<?xml version="1.0" encoding="us-ascii" standalone="no"?><svg xmlns="http://www.w3.org/2000/svg" xmlns:xlink="http://www.w3.org/1999/xlink" contentStyleType="text/css" height="838px" preserveAspectRatio="none" style="width:1393px;height:838px;background:#FFFFFF;" version="1.1" viewBox="0 0 1393 838" width="1393px" zoomAndPan="magnify"><defs/><g><rect fill="#FFFFFF" height="643.8203" style="stroke:#181818;stroke-width:1.0;" width="10" x="48.5" y="93.6211"/><rect fill="#FFFFFF" height="620.5293" style="stroke:#181818;stroke-width:1.0;" width="10" x="472.5" y="116.9121"/><rect fill="#FFFFFF" height="557.9473" style="stroke:#181818;stroke-width:1.0;" width="10" x="700.5" y="148.2031"/><rect fill="#FFFFFF" height="31.291" style="stroke:#181818;stroke-width:1.0;" width="10" x="862.5" y="179.4941"/><rect fill="#FFFFFF" height="200.7461" style="stroke:#181818;stroke-width:1.0;" width="10" x="862.5" y="242.0762"/><rect fill="#FFFFFF" height="138.1641" style="stroke:#181818;stroke-width:1.0;" width="10" x="1024.5" y="273.3672"/><rect fill="#FFFFFF" height="31.291" style="stroke:#181818;stroke-width:1.0;" width="10" x="1207.5" y="348.9492"/><line style="stroke:#181818;stroke-width:0.5;stroke-dasharray:5.0,5.0;" x1="53" x2="53" y1="83.6211" y2="755.4414"/><line style="stroke:#181818;stroke-width:0.5;stroke-dasharray:5.0,5.0;" x1="477" x2="477" y1="83.6211" y2="755.4414"/><line style="stroke:#181818;stroke-width:0.5;stroke-dasharray:5.0,5.0;" x1="705" x2="705" y1="83.6211" y2="755.4414"/><line style="stroke:#181818;stroke-width:0.5;stroke-dasharray:5.0,5.0;" x1="867.5" x2="867.5" y1="83.6211" y2="755.4414"/><line style="stroke:#181818;stroke-width:0.5;stroke-dasharray:5.0,5.0;" x1="1029.5" x2="1029.5" y1="83.6211" y2="755.4414"/><line style="stroke:#181818;stroke-width:0.5;stroke-dasharray:5.0,5.0;" x1="1212" x2="1212" y1="83.6211" y2="755.4414"/><line style="stroke:#181818;stroke-width:0.5;stroke-dasharray:5.0,5.0;" x1="1343" x2="1343" y1="83.6211" y2="755.4414"/><text fill="#000000" font-family="sans-serif" font-size="14" lengthAdjust="spacing" textLength="91" x="5" y="80.1074">Task Manager</text><ellipse cx="53.5" cy="13.5" fill="#E2E2F0" rx="8" ry="8" style="stroke:#181818;stroke-width:0.5;"/><path d="M53.5,21.5 L53.5,48.5 M40.5,29.5 L66.5,29.5 M53.5,48.5 L40.5,63.5 M53.5,48.5 L66.5,63.5 " fill="none" style="stroke:#181818;stroke-width:0.5;"/><text fill="#000000" font-family="sans-serif" font-size="14" lengthAdjust="spacing" textLength="91" x="5" y="769.5488">Task Manager</text><ellipse cx="53.5" cy="781.5625" fill="#E2E2F0" rx="8" ry="8" style="stroke:#181818;stroke-width:0.5;"/><path d="M53.5,789.5625 L53.5,816.5625 M40.5,797.5625 L66.5,797.5625 M53.5,816.5625 L40.5,831.5625 M53.5,816.5625 L66.5,831.5625 " fill="none" style="stroke:#181818;stroke-width:0.5;"/><rect fill="#E2E2F0" height="32.6211" rx="2.5" ry="2.5" style="stroke:#181818;stroke-width:0.5;" width="43" x="456" y="50"/><text fill="#000000" font-family="sans-serif" font-size="14" lengthAdjust="spacing" textLength="29" x="463" y="72.1074">View</text><rect fill="#E2E2F0" height="32.6211" rx="2.5" ry="2.5" style="stroke:#181818;stroke-width:0.5;" width="43" x="456" y="754.4414"/><text fill="#000000" font-family="sans-serif" font-size="14" lengthAdjust="spacing" textLength="29" x="463" y="776.5488">View</text><rect fill="#E2E2F0" height="32.6211" rx="2.5" ry="2.5" style="stroke:#181818;stroke-width:0.5;" width="87" x="662" y="50"/><text fill="#000000" font-family="sans-serif" font-size="14" lengthAdjust="spacing" textLength="73" x="669" y="72.1074">Component</text><rect fill="#E2E2F0" height="32.6211" rx="2.5" ry="2.5" style="stroke:#181818;stroke-width:0.5;" width="87" x="662" y="754.4414"/><text fill="#000000" font-family="sans-serif" font-size="14" lengthAdjust="spacing" textLength="73" x="669" y="776.5488">Component</text><rect fill="#E2E2F0" height="32.6211" rx="2.5" ry="2.5" style="stroke:#181818;stroke-width:0.5;" width="120" x="807.5" y="50"/><text fill="#000000" font-family="sans-serif" font-size="14" lengthAdjust="spacing" textLength="106" x="814.5" y="72.1074">FrontEndService</text><rect fill="#E2E2F0" height="32.6211" rx="2.5" ry="2.5" style="stroke:#181818;stroke-width:0.5;" width="120" x="807.5" y="754.4414"/><text fill="#000000" font-family="sans-serif" font-size="14" lengthAdjust="spacing" textLength="106" x="814.5" y="776.5488">FrontEndService</text><rect fill="#E2E2F0" height="32.6211" rx="2.5" ry="2.5" style="stroke:#181818;stroke-width:0.5;" width="134" x="962.5" y="50"/><text fill="#000000" font-family="sans-serif" font-size="14" lengthAdjust="spacing" textLength="120" x="969.5" y="72.1074">AssignmentService</text><rect fill="#E2E2F0" height="32.6211" rx="2.5" ry="2.5" style="stroke:#181818;stroke-width:0.5;" width="134" x="962.5" y="754.4414"/><text fill="#000000" font-family="sans-serif" font-size="14" lengthAdjust="spacing" textLength="120" x="969.5" y="776.5488">AssignmentService</text><rect fill="#E2E2F0" height="32.6211" rx="2.5" ry="2.5" style="stroke:#181818;stroke-width:0.5;" width="155" x="1135" y="50"/><text fill="#000000" font-family="sans-serif" font-size="14" lengthAdjust="spacing" textLength="141" x="1142" y="72.1074">AssignmentRepository</text><rect fill="#E2E2F0" height="32.6211" rx="2.5" ry="2.5" style="stroke:#181818;stroke-width:0.5;" width="155" x="1135" y="754.4414"/><text fill="#000000" font-family="sans-serif" font-size="14" lengthAdjust="spacing" textLength="141" x="1142" y="776.5488">AssignmentRepository</text><rect fill="#E2E2F0" height="32.6211" rx="2.5" ry="2.5" style="stroke:#181818;stroke-width:0.5;" width="87" x="1300" y="50"/><text fill="#000000" font-family="sans-serif" font-size="14" lengthAdjust="spacing" textLength="73" x="1307" y="72.1074">Assignment</text><rect fill="#E2E2F0" height="32.6211" rx="2.5" ry="2.5" style="stroke:#181818;stroke-width:0.5;" width="87" x="1300" y="754.4414"/><text fill="#000000" font-family="sans-serif" font-size="14" lengthAdjust="spacing" textLength="73" x="1307" y="776.5488">Assignment</text><rect fill="#FFFFFF" height="643.8203" style="stroke:#181818;stroke-width:1.0;" width="10" x="48.5" y="93.6211"/><rect fill="#FFFFFF" height="620.5293" style="stroke:#181818;stroke-width:1.0;" width="10" x="472.5" y="116.9121"/><rect fill="#FFFFFF" height="557.9473" style="stroke:#181818;stroke-width:1.0;" width="10" x="700.5" y="148.2031"/><rect fill="#FFFFFF" height="31.291" style="stroke:#181818;stroke-width:1.0;" width="10" x="862.5" y="179.4941"/><rect fill="#FFFFFF" height="200.7461" style="stroke:#181818;stroke-width:1.0;" width="10" x="862.5" y="242.0762"/><rect fill="#FFFFFF" height="138.1641" style="stroke:#181818;stroke-width:1.0;" width="10" x="1024.5" y="273.3672"/><rect fill="#FFFFFF" height="31.291" style="stroke:#181818;stroke-width:1.0;" width="10" x="1207.5" y="348.9492"/><polygon fill="#181818" points="460.5,112.9121,470.5,116.9121,460.5,120.9121,464.5,116.9121" style="stroke:#181818;stroke-width:1.0;"/><line style="stroke:#181818;stroke-width:1.0;" x1="58.5" x2="466.5" y1="116.9121" y2="116.9121"/><text fill="#000000" font-family="sans-serif" font-size="13" lengthAdjust="spacing" textLength="148" x="65.5" y="111.6494">wants to list assignments</text><polygon fill="#181818" points="688.5,144.2031,698.5,148.2031,688.5,152.2031,692.5,148.2031" style="stroke:#181818;stroke-width:1.0;"/><line style="stroke:#181818;stroke-width:1.0;" x1="482.5" x2="694.5" y1="148.2031" y2="148.2031"/><text fill="#000000" font-family="sans-serif" font-size="13" lengthAdjust="spacing" textLength="101" x="489.5" y="142.9404">listAssignments()</text><polygon fill="#181818" points="850.5,175.4941,860.5,179.4941,850.5,183.4941,854.5,179.4941" style="stroke:#181818;stroke-width:1.0;"/><line style="stroke:#181818;stroke-width:1.0;" x1="710.5" x2="856.5" y1="179.4941" y2="179.4941"/><text fill="#000000" font-family="sans-serif" font-size="13" lengthAdjust="spacing" textLength="61" x="717.5" y="174.2314">getToken()</text><polygon fill="#181818" points="721.5,206.7852,711.5,210.7852,721.5,214.7852,717.5,210.7852" style="stroke:#181818;stroke-width:1.0;"/><line style="stroke:#181818;stroke-width:1.0;" x1="715.5" x2="866.5" y1="210.7852" y2="210.7852"/><text fill="#000000" font-family="sans-serif" font-size="13" lengthAdjust="spacing" textLength="32" x="727.5" y="205.5225">token</text><polygon fill="#181818" points="850.5,238.0762,860.5,242.0762,850.5,246.0762,854.5,242.0762" style="stroke:#181818;stroke-width:1.0;"/><line style="stroke:#181818;stroke-width:1.0;" x1="710.5" x2="856.5" y1="242.0762" y2="242.0762"/><text fill="#000000" font-family="sans-serif" font-size="13" lengthAdjust="spacing" textLength="133" x="717.5" y="236.8135">listAssignments(token)</text><polygon fill="#181818" points="1012.5,269.3672,1022.5,273.3672,1012.5,277.3672,1016.5,273.3672" style="stroke:#181818;stroke-width:1.0;"/><line style="stroke:#181818;stroke-width:1.0;" x1="872.5" x2="1018.5" y1="273.3672" y2="273.3672"/><text fill="#000000" font-family="sans-serif" font-size="13" lengthAdjust="spacing" textLength="133" x="879.5" y="268.1045">listAssignments(token)</text><line style="stroke:#181818;stroke-width:1.0;" x1="1034.5" x2="1076.5" y1="304.6582" y2="304.6582"/><line style="stroke:#181818;stroke-width:1.0;" x1="1076.5" x2="1076.5" y1="304.6582" y2="317.6582"/><line style="stroke:#181818;stroke-width:1.0;" x1="1035.5" x2="1076.5" y1="317.6582" y2="317.6582"/><polygon fill="#181818" points="1045.5,313.6582,1035.5,317.6582,1045.5,321.6582,1041.5,317.6582" style="stroke:#181818;stroke-width:1.0;"/><text fill="#000000" font-family="sans-serif" font-size="13" lengthAdjust="spacing" textLength="104" x="1041.5" y="299.3955">verifyToken(token)</text><polygon fill="#181818" points="1195.5,344.9492,1205.5,348.9492,1195.5,352.9492,1199.5,348.9492" style="stroke:#181818;stroke-width:1.0;"/><line style="stroke:#181818;stroke-width:1.0;" x1="1034.5" x2="1201.5" y1="348.9492" y2="348.9492"/><text fill="#000000" font-family="sans-serif" font-size="13" lengthAdjust="spacing" textLength="154" x="1041.5" y="343.6865">getAllAssignmentsAsync()</text><polygon fill="#181818" points="1045.5,376.2402,1035.5,380.2402,1045.5,384.2402,1041.5,380.2402" style="stroke:#181818;stroke-width:1.0;"/><line style="stroke:#181818;stroke-width:1.0;" x1="1039.5" x2="1211.5" y1="380.2402" y2="380.2402"/><text fill="#000000" font-family="sans-serif" font-size="13" lengthAdjust="spacing" textLength="74" x="1051.5" y="374.9775">assignments</text><polygon fill="#181818" points="883.5,407.5313,873.5,411.5313,883.5,415.5313,879.5,411.5313" style="stroke:#181818;stroke-width:1.0;"/><line style="stroke:#181818;stroke-width:1.0;" x1="877.5" x2="1028.5" y1="411.5313" y2="411.5313"/><text fill="#000000" font-family="sans-serif" font-size="13" lengthAdjust="spacing" textLength="94" x="889.5" y="406.2686">assignmentsDto</text><polygon fill="#181818" points="721.5,438.8223,711.5,442.8223,721.5,446.8223,717.5,442.8223" style="stroke:#181818;stroke-width:1.0;"/><line style="stroke:#181818;stroke-width:1.0;" x1="715.5" x2="866.5" y1="442.8223" y2="442.8223"/><text fill="#000000" font-family="sans-serif" font-size="13" lengthAdjust="spacing" textLength="94" x="727.5" y="437.5596">assignmentsDto</text><polygon fill="#181818" points="493.5,470.1133,483.5,474.1133,493.5,478.1133,489.5,474.1133" style="stroke:#181818;stroke-width:1.0;"/><line style="stroke:#181818;stroke-width:1.0;" x1="487.5" x2="699.5" y1="474.1133" y2="474.1133"/><text fill="#000000" font-family="sans-serif" font-size="13" lengthAdjust="spacing" textLength="154" x="499.5" y="468.8506">display list of assignments</text><polygon fill="#181818" points="69.5,501.4043,59.5,505.4043,69.5,509.4043,65.5,505.4043" style="stroke:#181818;stroke-width:1.0;"/><line style="stroke:#181818;stroke-width:1.0;" x1="63.5" x2="471.5" y1="505.4043" y2="505.4043"/><text fill="#000000" font-family="sans-serif" font-size="13" lengthAdjust="spacing" textLength="150" x="75.5" y="500.1416">shows list of assignments</text><polygon fill="#181818" points="460.5,532.6953,470.5,536.6953,460.5,540.6953,464.5,536.6953" style="stroke:#181818;stroke-width:1.0;"/><line style="stroke:#181818;stroke-width:1.0;" x1="58.5" x2="466.5" y1="536.6953" y2="536.6953"/><text fill="#000000" font-family="sans-serif" font-size="13" lengthAdjust="spacing" textLength="169" x="65.5" y="531.4326">requests to sort assignments</text><polygon fill="#181818" points="69.5,563.9863,59.5,567.9863,69.5,571.9863,65.5,567.9863" style="stroke:#181818;stroke-width:1.0;"/><line style="stroke:#181818;stroke-width:1.0;" x1="63.5" x2="471.5" y1="567.9863" y2="567.9863"/><text fill="#000000" font-family="sans-serif" font-size="13" lengthAdjust="spacing" textLength="390" x="75.5" y="562.7236">shows sort options (StartPoint, EndPoint, Status, Type, TM, Name)</text><polygon fill="#181818" points="460.5,595.2773,470.5,599.2773,460.5,603.2773,464.5,599.2773" style="stroke:#181818;stroke-width:1.0;"/><line style="stroke:#181818;stroke-width:1.0;" x1="58.5" x2="466.5" y1="599.2773" y2="599.2773"/><text fill="#000000" font-family="sans-serif" font-size="13" lengthAdjust="spacing" textLength="100" x="65.5" y="594.0146">select sort option</text><polygon fill="#181818" points="688.5,626.5684,698.5,630.5684,688.5,634.5684,692.5,630.5684" style="stroke:#181818;stroke-width:1.0;"/><line style="stroke:#181818;stroke-width:1.0;" x1="482.5" x2="694.5" y1="630.5684" y2="630.5684"/><text fill="#000000" font-family="sans-serif" font-size="13" lengthAdjust="spacing" textLength="166" x="489.5" y="625.3057">sortAssignments(sortOption)</text><line style="stroke:#181818;stroke-width:1.0;" x1="710.5" x2="752.5" y1="661.8594" y2="661.8594"/><line style="stroke:#181818;stroke-width:1.0;" x1="752.5" x2="752.5" y1="661.8594" y2="674.8594"/><line style="stroke:#181818;stroke-width:1.0;" x1="711.5" x2="752.5" y1="674.8594" y2="674.8594"/><polygon fill="#181818" points="721.5,670.8594,711.5,674.8594,721.5,678.8594,717.5,674.8594" style="stroke:#181818;stroke-width:1.0;"/><text fill="#000000" font-family="sans-serif" font-size="13" lengthAdjust="spacing" textLength="108" x="717.5" y="656.5967">assignments.sort()</text><polygon fill="#181818" points="493.5,702.1504,483.5,706.1504,493.5,710.1504,489.5,706.1504" style="stroke:#181818;stroke-width:1.0;"/><line style="stroke:#181818;stroke-width:1.0;" x1="487.5" x2="704.5" y1="706.1504" y2="706.1504"/><text fill="#000000" font-family="sans-serif" font-size="13" lengthAdjust="spacing" textLength="194" x="499.5" y="700.8877">display sorted list of assignments</text><polygon fill="#181818" points="64.5,733.4414,54.5,737.4414,64.5,741.4414,60.5,737.4414" style="stroke:#181818;stroke-width:1.0;"/><line style="stroke:#181818;stroke-width:1.0;" x1="58.5" x2="476.5" y1="737.4414" y2="737.4414"/><text fill="#000000" font-family="sans-serif" font-size="13" lengthAdjust="spacing" textLength="190" x="70.5" y="732.1787">shows sorted list of assignments</text><!--SRC=[ZPF1ReCm38RlUOgefrRgzW0S9Y7MtjWcGDmZSBkeD65nsegtdmCKaefgEu28_UMFVpk8och3YvGBvAj2u8cdGeaZc1LhXR6oagrGbfSIRWufWsYYpwrMG5-KIeBKtcXbTwhEmLnb1GxOx_80YH7bKPrfkmV5pvWCMesIYkrwB7k2zKd6H6NbLLWWPupClRpnCk8tGf5RpHk93hplmHalMUdW9EgPMHRNcnbAME8WyXFn8zX2dq3vUMUKdb78kZIh8KZF0e_dzFYoMFmFdFeNJ_0LZ3nqGtqZE2QpllAuQJoj63jL-JweoN5sr_BRvPbnJ3wPyQ1tgmFERybpREeDZQkMs3QY6wQb3q45mvYADEBuhM-up4o3D_1p0HncZzg4itzGwlEwjL8hvElSqYtxqbBPBQVRF7vHr5vmoukk1NgdM_uXph2P3qHeeBA-rdIlNCmVe5j_ziY63TR31hqwWARos1KNXdhHkDVFPCdUtzjAVq6_q2y0]--></g></svg>