<?xml version="1.0" encoding="us-ascii" standalone="no"?><svg xmlns="http://www.w3.org/2000/svg" xmlns:xlink="http://www.w3.org/1999/xlink" contentStyleType="text/css" height="423px" preserveAspectRatio="none" style="width:748px;height:423px;background:#FFFFFF;" version="1.1" viewBox="0 0 748 423" width="748px" zoomAndPan="magnify"><defs/><g><rect fill="#FFFFFF" height="214.4551" style="stroke:#181818;stroke-width:1.0;" width="10" x="302" y="116.9121"/><rect fill="#FFFFFF" height="174.1641" style="stroke:#181818;stroke-width:1.0;" width="10" x="524" y="148.2031"/><line style="stroke:#181818;stroke-width:0.5;stroke-dasharray:5.0,5.0;" x1="62" x2="62" y1="83.6211" y2="340.3672"/><line style="stroke:#181818;stroke-width:0.5;stroke-dasharray:5.0,5.0;" x1="307" x2="307" y1="83.6211" y2="340.3672"/><line style="stroke:#181818;stroke-width:0.5;stroke-dasharray:5.0,5.0;" x1="528.5" x2="528.5" y1="83.6211" y2="340.3672"/><text fill="#000000" font-family="sans-serif" font-size="14" lengthAdjust="spacing" textLength="108" x="5" y="80.1074">CampusManager</text><ellipse cx="62" cy="13.5" fill="#E2E2F0" rx="8" ry="8" style="stroke:#181818;stroke-width:0.5;"/><path d="M62,21.5 L62,48.5 M49,29.5 L75,29.5 M62,48.5 L49,63.5 M62,48.5 L75,63.5 " fill="none" style="stroke:#181818;stroke-width:0.5;"/><text fill="#000000" font-family="sans-serif" font-size="14" lengthAdjust="spacing" textLength="108" x="5" y="354.4746">CampusManager</text><ellipse cx="62" cy="366.4883" fill="#E2E2F0" rx="8" ry="8" style="stroke:#181818;stroke-width:0.5;"/><path d="M62,374.4883 L62,401.4883 M49,382.4883 L75,382.4883 M62,401.4883 L49,416.4883 M62,401.4883 L75,416.4883 " fill="none" style="stroke:#181818;stroke-width:0.5;"/><rect fill="#E2E2F0" height="32.6211" rx="2.5" ry="2.5" style="stroke:#181818;stroke-width:0.5;" width="26" x="294" y="50"/><text fill="#000000" font-family="sans-serif" font-size="14" lengthAdjust="spacing" textLength="12" x="301" y="72.1074">UI</text><rect fill="#E2E2F0" height="32.6211" rx="2.5" ry="2.5" style="stroke:#181818;stroke-width:0.5;" width="26" x="294" y="339.3672"/><text fill="#000000" font-family="sans-serif" font-size="14" lengthAdjust="spacing" textLength="12" x="301" y="361.4746">UI</text><rect fill="#E2E2F0" height="32.6211" rx="2.5" ry="2.5" style="stroke:#181818;stroke-width:0.5;" width="35" x="511.5" y="50"/><text fill="#000000" font-family="sans-serif" font-size="14" lengthAdjust="spacing" textLength="21" x="518.5" y="72.1074">MD</text><rect fill="#E2E2F0" height="32.6211" rx="2.5" ry="2.5" style="stroke:#181818;stroke-width:0.5;" width="35" x="511.5" y="339.3672"/><text fill="#000000" font-family="sans-serif" font-size="14" lengthAdjust="spacing" textLength="21" x="518.5" y="361.4746">MD</text><rect fill="#FFFFFF" height="214.4551" style="stroke:#181818;stroke-width:1.0;" width="10" x="302" y="116.9121"/><rect fill="#FFFFFF" height="174.1641" style="stroke:#181818;stroke-width:1.0;" width="10" x="524" y="148.2031"/><polygon fill="#181818" points="290,112.9121,300,116.9121,290,120.9121,294,116.9121" style="stroke:#181818;stroke-width:1.0;"/><line style="stroke:#181818;stroke-width:1.0;" x1="62" x2="296" y1="116.9121" y2="116.9121"/><text fill="#000000" font-family="sans-serif" font-size="13" font-weight="bold" lengthAdjust="spacing" textLength="7" x="69" y="111.6494">1</text><text fill="#000000" font-family="sans-serif" font-size="13" lengthAdjust="spacing" textLength="210" x="80" y="111.6494">requests list of elevator from building</text><polygon fill="#181818" points="512,144.2031,522,148.2031,512,152.2031,516,148.2031" style="stroke:#181818;stroke-width:1.0;"/><line style="stroke:#181818;stroke-width:1.0;" x1="312" x2="518" y1="148.2031" y2="148.2031"/><text fill="#000000" font-family="sans-serif" font-size="13" font-weight="bold" lengthAdjust="spacing" textLength="7" x="319" y="142.9404">2</text><text fill="#000000" font-family="sans-serif" font-size="13" lengthAdjust="spacing" textLength="182" x="330" y="142.9404">get('/api/elevator/listByBuilding')</text><line style="stroke:#181818;stroke-width:1.0;" x1="534" x2="576" y1="221.7852" y2="221.7852"/><line style="stroke:#181818;stroke-width:1.0;" x1="576" x2="576" y1="221.7852" y2="234.7852"/><line style="stroke:#181818;stroke-width:1.0;" x1="535" x2="576" y1="234.7852" y2="234.7852"/><polygon fill="#181818" points="545,230.7852,535,234.7852,545,238.7852,541,234.7852" style="stroke:#181818;stroke-width:1.0;"/><text fill="#000000" font-family="sans-serif" font-size="13" font-weight="bold" lengthAdjust="spacing" textLength="7" x="541" y="207.877">3</text><text fill="#000000" font-family="sans-serif" font-size="13" lengthAdjust="spacing" textLength="185" x="552" y="199.2314">gets list of elevator from building</text><text fill="#000000" font-family="sans-serif" font-size="13" lengthAdjust="spacing" textLength="76" x="556" y="216.5225">and returns it</text><polygon fill="#181818" points="323,287.0762,313,291.0762,323,295.0762,319,291.0762" style="stroke:#181818;stroke-width:1.0;"/><line style="stroke:#181818;stroke-width:1.0;" x1="317" x2="523" y1="291.0762" y2="291.0762"/><text fill="#000000" font-family="sans-serif" font-size="13" font-weight="bold" lengthAdjust="spacing" textLength="7" x="329" y="285.8135">4</text><text fill="#000000" font-family="sans-serif" font-size="13" lengthAdjust="spacing" textLength="93" x="340" y="285.8135">response status</text><polygon fill="#181818" points="73,318.3672,63,322.3672,73,326.3672,69,322.3672" style="stroke:#181818;stroke-width:1.0;"/><line style="stroke:#181818;stroke-width:1.0;" x1="67" x2="301" y1="322.3672" y2="322.3672"/><text fill="#000000" font-family="sans-serif" font-size="13" font-weight="bold" lengthAdjust="spacing" textLength="7" x="79" y="317.1045">5</text><text fill="#000000" font-family="sans-serif" font-size="13" lengthAdjust="spacing" textLength="106" x="90" y="317.1045">operation success</text><!--SRC=[XOwzRiCm38HtFGKtjqEgFKE7j4k6B0QyTM5anYMWlufKWG9- -4g1YxfJD-AEtzqDxwfPZjPcZr5hy4yk1IlqKIawEioCIy5W35PDiOOhbNOxJGLUCEGg5uouK04Kc4p6ekmujoIOpdVj_4Uyl49NHsCcE3ptdoEKtYKgu5aKqWt8qoVsXbj90QwL_SnnkTToCwY7DhBnOyCNqeV1OcRxmzaUTFewRU3mk4D7iwwh6NVmVxtm5W7Zt6PgBL60zJTYsoyvHI4GHQsoJPkQap8LL4uHf3f78cQctHBp3G00]--></g></svg>