<?xml version="1.0" encoding="us-ascii" standalone="no"?><svg xmlns="http://www.w3.org/2000/svg" xmlns:xlink="http://www.w3.org/1999/xlink" contentStyleType="text/css" height="976px" preserveAspectRatio="none" style="width:1627px;height:976px;background:#FFFFFF;" version="1.1" viewBox="0 0 1627 976" width="1627px" zoomAndPan="magnify"><defs/><g><!--cluster RobDroneGo_I--><g id="cluster_RobDroneGo_I"><rect fill="#80F0FF" height="857" rx="2.5" ry="2.5" style="stroke:#181818;stroke-width:1.0;" width="621" x="584.5" y="113"/><rect fill="#80F0FF" height="10" style="stroke:#181818;stroke-width:1.0;" width="15" x="1185.5" y="118"/><rect fill="#80F0FF" height="2" style="stroke:#181818;stroke-width:1.0;" width="4" x="1183.5" y="120"/><rect fill="#80F0FF" height="2" style="stroke:#181818;stroke-width:1.0;" width="4" x="1183.5" y="124"/><text fill="#000000" font-family="sans-serif" font-size="14" font-style="italic" lengthAdjust="spacing" textLength="86" x="852" y="142.1074">&#171;component&#187;</text><text fill="#000000" font-family="sans-serif" font-size="14" font-style="italic" lengthAdjust="spacing" textLength="88" x="851" y="160.7285">&#171;system(C4)&#187;</text><text fill="#000000" font-family="sans-serif" font-size="14" font-weight="bold" lengthAdjust="spacing" textLength="91" x="849.5" y="181.3496">RobDroneGo</text></g><!--cluster MD_I--><g id="cluster_MD_I"><rect fill="#80F0FF" height="194" rx="2.5" ry="2.5" style="stroke:#181818;stroke-width:1.0;" width="271" x="724.5" y="746"/><rect fill="#80F0FF" height="10" style="stroke:#181818;stroke-width:1.0;" width="15" x="975.5" y="751"/><rect fill="#80F0FF" height="2" style="stroke:#181818;stroke-width:1.0;" width="4" x="973.5" y="753"/><rect fill="#80F0FF" height="2" style="stroke:#181818;stroke-width:1.0;" width="4" x="973.5" y="757"/><text fill="#000000" font-family="sans-serif" font-size="14" font-style="italic" lengthAdjust="spacing" textLength="86" x="817" y="775.1074">&#171;component&#187;</text><text fill="#000000" font-family="sans-serif" font-size="14" font-style="italic" lengthAdjust="spacing" textLength="103" x="808.5" y="793.7285">&#171;container(C4)&#187;</text><text fill="#000000" font-family="sans-serif" font-size="14" font-weight="bold" lengthAdjust="spacing" textLength="121" x="799.5" y="814.3496">Master Data (MD)</text></g><!--cluster FE--><g id="cluster_FE"><rect fill="#80F0FF" height="248" rx="2.5" ry="2.5" style="stroke:#181818;stroke-width:1.0;" width="177" x="873.5" y="273"/><rect fill="#80F0FF" height="10" style="stroke:#181818;stroke-width:1.0;" width="15" x="1030.5" y="278"/><rect fill="#80F0FF" height="2" style="stroke:#181818;stroke-width:1.0;" width="4" x="1028.5" y="280"/><rect fill="#80F0FF" height="2" style="stroke:#181818;stroke-width:1.0;" width="4" x="1028.5" y="284"/><text fill="#000000" font-family="sans-serif" font-size="14" font-style="italic" lengthAdjust="spacing" textLength="86" x="919" y="302.1074">&#171;component&#187;</text><text fill="#000000" font-family="sans-serif" font-size="14" font-style="italic" lengthAdjust="spacing" textLength="103" x="910.5" y="320.7285">&#171;container(C4)&#187;</text><text fill="#000000" font-family="sans-serif" font-size="14" font-weight="bold" lengthAdjust="spacing" textLength="65" x="929.5" y="341.3496">FrontEnd</text></g><!--cluster Planning--><g id="cluster_Planning"><rect fill="#80F0FF" height="171" rx="2.5" ry="2.5" style="stroke:#181818;stroke-width:1.0;" width="100" x="728.5" y="226"/><rect fill="#80F0FF" height="10" style="stroke:#181818;stroke-width:1.0;" width="15" x="808.5" y="231"/><rect fill="#80F0FF" height="2" style="stroke:#181818;stroke-width:1.0;" width="4" x="806.5" y="233"/><rect fill="#80F0FF" height="2" style="stroke:#181818;stroke-width:1.0;" width="4" x="806.5" y="237"/><text fill="#000000" font-family="sans-serif" font-size="14" font-style="italic" lengthAdjust="spacing" textLength="86" x="735.5" y="255.1074">&#171;component&#187;</text><text fill="#000000" font-family="sans-serif" font-size="14" font-style="italic" lengthAdjust="spacing" textLength="88" x="734.5" y="273.7285">&#171;system(C4)&#187;</text><text fill="#000000" font-family="sans-serif" font-size="14" font-weight="bold" lengthAdjust="spacing" textLength="61" x="748" y="294.3496">Planning</text></g><text fill="#000000" font-family="sans-serif" font-size="14" lengthAdjust="spacing" textLength="4" x="1203.5" y="374.4863">&#160;</text><rect fill="#0FAAFF" height="12" style="stroke:#181818;stroke-width:1.5;" width="12" x="1199.5" y="391"/><text fill="#000000" font-family="sans-serif" font-size="14" lengthAdjust="spacing" textLength="4" x="1057.5" y="90.4863">&#160;</text><rect fill="#0FAAFF" height="12" style="stroke:#181818;stroke-width:1.5;" width="12" x="1053.5" y="107"/><text fill="#000000" font-family="sans-serif" font-size="14" lengthAdjust="spacing" textLength="4" x="953.5" y="90.4863">&#160;</text><rect fill="#0FAAFF" height="12" style="stroke:#181818;stroke-width:1.5;" width="12" x="949.5" y="107"/><text fill="#000000" font-family="sans-serif" font-size="14" lengthAdjust="spacing" textLength="4" x="741.5" y="90.4863">&#160;</text><rect fill="#0FAAFF" height="12" style="stroke:#181818;stroke-width:1.5;" width="12" x="737.5" y="107"/><text fill="#000000" font-family="sans-serif" font-size="14" lengthAdjust="spacing" textLength="4" x="694.5" y="90.4863">&#160;</text><rect fill="#0FAAFF" height="12" style="stroke:#181818;stroke-width:1.5;" width="12" x="690.5" y="107"/><text fill="#000000" font-family="sans-serif" font-size="14" lengthAdjust="spacing" textLength="4" x="647.5" y="90.4863">&#160;</text><rect fill="#0FAAFF" height="12" style="stroke:#181818;stroke-width:1.5;" width="12" x="643.5" y="107"/><text fill="#000000" font-family="sans-serif" font-size="14" lengthAdjust="spacing" textLength="4" x="600.5" y="90.4863">&#160;</text><rect fill="#0FAAFF" height="12" style="stroke:#181818;stroke-width:1.5;" width="12" x="596.5" y="107"/><text fill="#000000" font-family="sans-serif" font-size="14" lengthAdjust="spacing" textLength="4" x="893.5" y="90.4863">&#160;</text><rect fill="#0FAAFF" height="12" style="stroke:#181818;stroke-width:1.5;" width="12" x="889.5" y="107"/><text fill="#000000" font-family="sans-serif" font-size="14" lengthAdjust="spacing" textLength="4" x="1007.5" y="90.4863">&#160;</text><rect fill="#0FAAFF" height="12" style="stroke:#181818;stroke-width:1.5;" width="12" x="1003.5" y="107"/><!--entity Planning_API_I--><g id="elem_Planning_API_I"><ellipse cx="807.5" cy="521" fill="#0FAAFF" rx="8" ry="8" style="stroke:#181818;stroke-width:0.5;"/><text fill="#000000" font-family="sans-serif" font-size="14" font-weight="bold" lengthAdjust="spacing" textLength="87" x="764" y="554.1074">Planning API</text></g><!--entity MD_API_I--><g id="elem_MD_API_I"><ellipse cx="975.5" cy="647" fill="#0FAAFF" rx="8" ry="8" style="stroke:#181818;stroke-width:0.5;"/><text fill="#000000" font-family="sans-serif" font-size="14" font-weight="bold" lengthAdjust="spacing" textLength="49" x="951" y="680.1074">MD API</text></g><text fill="#000000" font-family="sans-serif" font-size="14" lengthAdjust="spacing" textLength="4" x="881.5" y="723.4863">&#160;</text><rect fill="#0FAAFF" height="12" style="stroke:#181818;stroke-width:1.5;" width="12" x="877.5" y="740"/><text fill="#000000" font-family="sans-serif" font-size="14" lengthAdjust="spacing" textLength="4" x="834.5" y="723.4863">&#160;</text><rect fill="#0FAAFF" height="12" style="stroke:#181818;stroke-width:1.5;" width="12" x="830.5" y="740"/><text fill="#000000" font-family="sans-serif" font-size="14" lengthAdjust="spacing" textLength="4" x="916.5" y="962.1074">&#160;</text><rect fill="#0FAAFF" height="12" style="stroke:#181818;stroke-width:1.5;" width="12" x="912.5" y="934"/><text fill="#000000" font-family="sans-serif" font-size="14" lengthAdjust="spacing" textLength="4" x="975.5" y="723.4863">&#160;</text><rect fill="#0FAAFF" height="12" style="stroke:#181818;stroke-width:1.5;" width="12" x="971.5" y="740"/><text fill="#000000" font-family="sans-serif" font-size="14" lengthAdjust="spacing" textLength="4" x="928.5" y="723.4863">&#160;</text><rect fill="#0FAAFF" height="12" style="stroke:#181818;stroke-width:1.5;" width="12" x="924.5" y="740"/><text fill="#000000" font-family="sans-serif" font-size="14" lengthAdjust="spacing" textLength="4" x="740.5" y="723.4863">&#160;</text><rect fill="#0FAAFF" height="12" style="stroke:#181818;stroke-width:1.5;" width="12" x="736.5" y="740"/><text fill="#000000" font-family="sans-serif" font-size="14" lengthAdjust="spacing" textLength="4" x="787.5" y="723.4863">&#160;</text><rect fill="#0FAAFF" height="12" style="stroke:#181818;stroke-width:1.5;" width="12" x="783.5" y="740"/><text fill="#000000" font-family="sans-serif" font-size="14" lengthAdjust="spacing" textLength="4" x="971.5" y="543.1074">&#160;</text><rect fill="#0FAAFF" height="12" style="stroke:#181818;stroke-width:1.5;" width="12" x="967.5" y="515"/><text fill="#000000" font-family="sans-serif" font-size="14" lengthAdjust="spacing" textLength="4" x="936.5" y="250.4863">&#160;</text><rect fill="#0FAAFF" height="12" style="stroke:#181818;stroke-width:1.5;" width="12" x="932.5" y="267"/><text fill="#000000" font-family="sans-serif" font-size="14" lengthAdjust="spacing" textLength="4" x="1030.5" y="250.4863">&#160;</text><rect fill="#0FAAFF" height="12" style="stroke:#181818;stroke-width:1.5;" width="12" x="1026.5" y="267"/><text fill="#000000" font-family="sans-serif" font-size="14" lengthAdjust="spacing" textLength="4" x="889.5" y="250.4863">&#160;</text><rect fill="#0FAAFF" height="12" style="stroke:#181818;stroke-width:1.5;" width="12" x="885.5" y="267"/><text fill="#000000" font-family="sans-serif" font-size="14" lengthAdjust="spacing" textLength="4" x="983.5" y="250.4863">&#160;</text><rect fill="#0FAAFF" height="12" style="stroke:#181818;stroke-width:1.5;" width="12" x="979.5" y="267"/><text fill="#000000" font-family="sans-serif" font-size="14" lengthAdjust="spacing" textLength="4" x="800.5" y="419.1074">&#160;</text><rect fill="#0FAAFF" height="12" style="stroke:#181818;stroke-width:1.5;" width="12" x="796.5" y="391"/><!--entity CM_API_I--><g id="elem_CM_API_I"><ellipse cx="713.5" cy="14" fill="#0FAAFF" rx="8" ry="8" style="stroke:#181818;stroke-width:0.5;"/><text fill="#000000" font-family="sans-serif" font-size="14" font-weight="bold" lengthAdjust="spacing" textLength="176" x="625.5" y="47.1074">Campus management API</text></g><!--entity TM_API_I--><g id="elem_TM_API_I"><ellipse cx="287.5" cy="14" fill="#0FAAFF" rx="8" ry="8" style="stroke:#181818;stroke-width:0.5;"/><text fill="#000000" font-family="sans-serif" font-size="14" font-weight="bold" lengthAdjust="spacing" textLength="152" x="211.5" y="47.1074">Task management API</text></g><!--entity UM_API_I--><g id="elem_UM_API_I"><ellipse cx="82.5" cy="14" fill="#0FAAFF" rx="8" ry="8" style="stroke:#181818;stroke-width:0.5;"/><text fill="#000000" font-family="sans-serif" font-size="14" font-weight="bold" lengthAdjust="spacing" textLength="153" x="6" y="47.1074">User management API</text></g><!--entity FM_API_I--><g id="elem_FM_API_I"><ellipse cx="494.5" cy="14" fill="#0FAAFF" rx="8" ry="8" style="stroke:#181818;stroke-width:0.5;"/><text fill="#000000" font-family="sans-serif" font-size="14" font-weight="bold" lengthAdjust="spacing" textLength="156" x="416.5" y="47.1074">Fleet management API</text></g><!--entity CampusM_I--><g id="elem_CampusM_I"><ellipse cx="1535.5" cy="14" fill="#0FAAFF" rx="8" ry="8" style="stroke:#181818;stroke-width:0.5;"/><text fill="#000000" font-family="sans-serif" font-size="14" font-weight="bold" lengthAdjust="spacing" textLength="169" x="1451" y="47.1074">Campus Management UI</text></g><!--entity TaskM_I--><g id="elem_TaskM_I"><ellipse cx="926.5" cy="14" fill="#0FAAFF" rx="8" ry="8" style="stroke:#181818;stroke-width:0.5;"/><text fill="#000000" font-family="sans-serif" font-size="14" font-weight="bold" lengthAdjust="spacing" textLength="145" x="854" y="47.1074">Task Management UI</text></g><!--entity UserM_I--><g id="elem_UserM_I"><ellipse cx="1325.5" cy="14" fill="#0FAAFF" rx="8" ry="8" style="stroke:#181818;stroke-width:0.5;"/><text fill="#000000" font-family="sans-serif" font-size="14" font-weight="bold" lengthAdjust="spacing" textLength="146" x="1252.5" y="47.1074">User Management UI</text></g><!--entity FleetM_I--><g id="elem_FleetM_I"><ellipse cx="1125.5" cy="14" fill="#0FAAFF" rx="8" ry="8" style="stroke:#181818;stroke-width:0.5;"/><text fill="#000000" font-family="sans-serif" font-size="14" font-weight="bold" lengthAdjust="spacing" textLength="149" x="1051" y="47.1074">Fleet Management UI</text></g><!--entity filesystem_API--><g id="elem_filesystem_API"><ellipse cx="1284.5" cy="273" fill="#0FAAFF" rx="8" ry="8" style="stroke:#181818;stroke-width:0.5;"/><text fill="#000000" font-family="sans-serif" font-size="14" font-weight="bold" lengthAdjust="spacing" textLength="97" x="1236" y="306.1074">filesystem API</text></g><!--reverse link filesystem_API to p1_I--><g id="link_filesystem_API_p1_I"><path d="M1273.8836,290.3932 C1258.8436,313.6132 1220.95,372.14 1208.74,391 " fill="none" id="filesystem_API-backto-p1_I" style="stroke:#181818;stroke-width:1.0;"/><path d="M1270.5483,279.9859 A9,9 0 0 0 1284.7449 289.1813" fill="none" style="stroke:#181818;stroke-width:1.5;"/></g><!--link CampusM_I to p2_I--><g id="link_CampusM_I_p2_I"><path d="M1526.46,17.99 C1507.77,24.09 1463.46,38.13 1425.5,47 C1280.96,80.76 1100.71,106.32 1065.59,111.17 " fill="none" id="CampusM_I-p2_I" style="stroke:#181818;stroke-width:1.0;"/></g><!--link FleetM_I to p3_I--><g id="link_FleetM_I_p3_I"><path d="M1116.36,20.22 C1085.74,37.69 987.26,93.88 961.64,108.5 " fill="none" id="FleetM_I-p3_I" style="stroke:#181818;stroke-width:1.0;"/></g><!--link CM_API_I to p4_I--><g id="link_CM_API_I_p4_I"><path d="M716.06,23.27 C722.07,42.7 736.94,90.8 741.88,106.76 " fill="none" id="CM_API_I-p4_I" style="stroke:#181818;stroke-width:1.0;"/></g><!--link FM_API_I to p5_I--><g id="link_FM_API_I_p5_I"><path d="M503.85,19.19 C530.46,31.17 608.78,66.74 672.5,99 C678.59,102.08 685.42,105.81 690.23,108.48 " fill="none" id="FM_API_I-p5_I" style="stroke:#181818;stroke-width:1.0;"/></g><!--link TM_API_I to p6_I--><g id="link_TM_API_I_p6_I"><path d="M296.7,18.18 C314.49,24.27 354.89,37.78 389.5,47 C493.28,74.66 524.85,61.5 625.5,99 C631.89,101.38 638.69,105.2 643.41,108.08 " fill="none" id="TM_API_I-p6_I" style="stroke:#181818;stroke-width:1.0;"/></g><!--link UM_API_I to p7_I--><g id="link_UM_API_I_p7_I"><path d="M91.65,18.38 C109.36,24.81 149.62,38.86 184.5,47 C350.07,85.62 558.01,107.55 596.3,111.39 " fill="none" id="UM_API_I-p7_I" style="stroke:#181818;stroke-width:1.0;"/></g><!--link TaskM_I to p8_I--><g id="link_TaskM_I_p8_I"><path d="M923.86,23.27 C917.65,42.7 902.28,90.8 897.17,106.76 " fill="none" id="TaskM_I-p8_I" style="stroke:#181818;stroke-width:1.0;"/></g><!--link UserM_I to p9_I--><g id="link_UserM_I_p9_I"><path d="M1316.26,18.14 C1298.8,24.04 1259.73,37.09 1226.5,47 C1142.6,72.03 1118.5,68.33 1036.5,99 C1029.09,101.77 1020.96,105.83 1015.58,108.68 " fill="none" id="UserM_I-p9_I" style="stroke:#181818;stroke-width:1.0;"/></g><!--link p2_I to pFE1_I--><g id="link_p2_I_pFE1_I"><path d="M1058.6,119.26 C1054.48,143.35 1037.44,243.08 1033.37,266.88 " fill="none" id="p2_I-pFE1_I" style="stroke:#181818;stroke-width:1.0;"/></g><!--link p3_I to pFE2_I--><g id="link_p3_I_pFE2_I"><path d="M954.93,119.26 C952.34,143.35 941.61,243.08 939.05,266.88 " fill="none" id="p3_I-pFE2_I" style="stroke:#181818;stroke-width:1.0;"/></g><!--link p8_I to pFE3_I--><g id="link_p8_I_pFE3_I"><path d="M895.37,119.26 C894.76,143.35 892.23,243.08 891.63,266.88 " fill="none" id="p8_I-pFE3_I" style="stroke:#181818;stroke-width:1.0;"/></g><!--link p9_I to pFE4_I--><g id="link_p9_I_pFE4_I"><path d="M1008.7,119.26 C1005.04,143.35 989.89,243.08 986.28,266.88 " fill="none" id="p9_I-pFE4_I" style="stroke:#181818;stroke-width:1.0;"/></g><!--link pFE5_I to MD_API_I--><g id="link_pFE5_I_MD_API_I"><path d="M973.58,527.01 C973.89,546.04 974.816,603.9213 975.206,627.7013 " fill="none" id="pFE5_I-to-MD_API_I" style="stroke:#181818;stroke-width:1.0;"/><path d="M983.7756,634.4835 A9,9 0 0 0 966.8634 634.7609" fill="none" style="stroke:#181818;stroke-width:1.5;"/></g><!--link p4_I to pMD1_I--><g id="link_p4_I_pMD1_I"><path d="M741.52,119.09 C734.11,138.59 708.5,210.47 708.5,272 C708.5,272 708.5,272 708.5,522 C708.5,592.26 672.1,623.24 713.5,680 C754.09,735.65 796.58,703.96 859.5,732 C865.73,734.78 872.55,738.54 877.32,741.31 " fill="none" id="p4_I-pMD1_I" style="stroke:#181818;stroke-width:1.0;"/></g><!--link p5_I to pMD2_I--><g id="link_p5_I_pMD2_I"><path d="M695.08,119.14 C689.8,138.79 671.5,211.18 671.5,272 C671.5,272 671.5,272 671.5,522 C671.5,592.54 644.54,623.3 686.5,680 C722.53,728.7 757.79,705.98 812.5,732 C818.66,734.93 825.49,738.68 830.28,741.4 " fill="none" id="p5_I-pMD2_I" style="stroke:#181818;stroke-width:1.0;"/></g><!--link p1_I to pMD3_I--><g id="link_p1_I_pMD3_I"><path d="M1202.65,403.23 C1188.95,428.89 1130.5,544.34 1130.5,646 C1130.5,646 1130.5,646 1130.5,747 C1130.5,861.21 959.38,925.18 924.62,937 " fill="none" id="p1_I-pMD3_I" style="stroke:#181818;stroke-width:1.0;"/></g><!--link MD_API_I to pMD4_I--><g id="link_MD_API_I_pMD4_I"><path d="M975.67,656.27 C976.07,675.7 977.06,723.8 977.39,739.76 " fill="none" id="MD_API_I-pMD4_I" style="stroke:#181818;stroke-width:1.0;"/></g><!--reverse link Planning_API_I to pMD5_I--><g id="link_Planning_API_I_pMD5_I"><path d="M816.8499,538.9563 C836.7899,575.1063 911.71,710.93 927.7,739.92 " fill="none" id="Planning_API_I-backto-pMD5_I" style="stroke:#181818;stroke-width:1.0;"/><path d="M806.1013,536.9801 A9,9 0 0 0 820.9121 528.8106" fill="none" style="stroke:#181818;stroke-width:1.5;"/></g><!--link p7_I to pMD6_I--><g id="link_p7_I_pMD6_I"><path d="M602.22,119.18 C601.16,139 597.5,211.9 597.5,272 C597.5,272 597.5,272 597.5,522 C597.5,593.32 584.09,621.94 625.5,680 C654.37,720.48 716.73,738.71 736.42,743.59 " fill="none" id="p7_I-pMD6_I" style="stroke:#181818;stroke-width:1.0;"/></g><!--link p6_I to pMD7_I--><g id="link_p6_I_pMD7_I"><path d="M648.65,119.17 C645.48,138.93 634.5,211.66 634.5,272 C634.5,272 634.5,272 634.5,522 C634.5,592.84 613.73,622.79 655.5,680 C687.39,723.67 717.26,707.56 765.5,732 C771.59,735.08 778.42,738.81 783.23,741.48 " fill="none" id="p6_I-pMD7_I" style="stroke:#181818;stroke-width:1.0;"/></g><!--link pp1_I to Planning_API_I--><g id="link_pp1_I_Planning_API_I"><path d="M802.71,403.24 C803.5,422.4 806.22,488.69 807.17,511.9 " fill="none" id="pp1_I-Planning_API_I" style="stroke:#181818;stroke-width:1.0;"/></g><!--SRC=[ZLHDg-8m5DtdLmHdunC4jNuz466mTd0HU0owUWmIszGfjab9w-8nlFy-QTAaRQgjraLpxZctz-P-PBU8ffZZ1FeiIHabD8V_01I_2_PlLyxkDDYnc77uOpq99s48lW78Z2YYEU4XziapqIJ4M8d-HW61ViJzcAXtagJv5qn8SY4ygpjDSH14z0gdGFgilh53vvyVX_C1uWmEHgCTJj9x1XDCyPKaHUJ2EXeDBDMngJhYxDQhEJKrfupmNetNr7Wn8Va3aPsJJ0BPIQ5ATtgKaqW2DLFgKHGfe6P2FGgP0BBoQMb0rJUVlzd5vUBz5piV_i3DnfYssyqc-yfoaWntyxVjLhgis0FLF2dZERldS20UGKYdujkwWRJT66TTHgVBEEyoBhgCooxZgikuxZA-MqQxHJvYJAaOY4PxQV1nBoAtGKPke_jg9HF4TgbyHdCSKS9hrK9Ob8z35-SO3f7xLjQibGnoxR8zeCoUKEhLHwxJxsZUJrdqKvRzb7fr9UUxTPNU_gMBz4JFvtiQM1TOJztRFmiweZNIx1NIz1MIymh9lcjn0wqxq5tPF_sQsN4DhGKWlYZ-LPU7KKoKuwBRorwlGDFpqj7uFXvQ2Y2tY31KMnZ8tL50Ulq1kJ0agLpmG6u9oJ78iaIE1bcLoCaWQyrHonl8mPSKjPj5eAfU1LQ41ieYoxEZpZgymXiegoBFx-eiGmj4gde52Azg9WLhBBSVA2TG0Gi5E0QOAa0xDdxAMIf8GsidWNA8b8EL0bO6MCeeL1N6jXJy1m00]--></g></svg>