<?xml version="1.0" encoding="us-ascii" standalone="no"?><svg xmlns="http://www.w3.org/2000/svg" xmlns:xlink="http://www.w3.org/1999/xlink" contentStyleType="text/css" height="702px" preserveAspectRatio="none" style="width:899px;height:702px;background:#FFFFFF;" version="1.1" viewBox="0 0 899 702" width="899px" zoomAndPan="magnify"><defs/><g><rect fill="#FFFFFF" height="517.0742" style="stroke:#181818;stroke-width:1.0;" width="10" x="69.5" y="93.6211"/><rect fill="#FFFFFF" height="484.7832" style="stroke:#181818;stroke-width:1.0;" width="10" x="297.5" y="116.9121"/><rect fill="#FFFFFF" height="119.873" style="stroke:#181818;stroke-width:1.0;" width="10" x="603.5" y="192.4941"/><rect fill="#FFFFFF" height="119.873" style="stroke:#181818;stroke-width:1.0;" width="10" x="603.5" y="450.5313"/><line style="stroke:#181818;stroke-width:0.5;stroke-dasharray:5.0,5.0;" x1="74" x2="74" y1="83.6211" y2="619.6953"/><line style="stroke:#181818;stroke-width:0.5;stroke-dasharray:5.0,5.0;" x1="302" x2="302" y1="83.6211" y2="619.6953"/><line style="stroke:#181818;stroke-width:0.5;stroke-dasharray:5.0,5.0;" x1="608" x2="608" y1="83.6211" y2="619.6953"/><line style="stroke:#181818;stroke-width:0.5;stroke-dasharray:5.0,5.0;" x1="871" x2="871" y1="83.6211" y2="619.6953"/><text fill="#000000" font-family="sans-serif" font-size="14" lengthAdjust="spacing" textLength="133" x="5" y="80.1074">Assignment Manager</text><ellipse cx="74.5" cy="13.5" fill="#E2E2F0" rx="8" ry="8" style="stroke:#181818;stroke-width:0.5;"/><path d="M74.5,21.5 L74.5,48.5 M61.5,29.5 L87.5,29.5 M74.5,48.5 L61.5,63.5 M74.5,48.5 L87.5,63.5 " fill="none" style="stroke:#181818;stroke-width:0.5;"/><text fill="#000000" font-family="sans-serif" font-size="14" lengthAdjust="spacing" textLength="133" x="5" y="633.8027">Assignment Manager</text><ellipse cx="74.5" cy="645.8164" fill="#E2E2F0" rx="8" ry="8" style="stroke:#181818;stroke-width:0.5;"/><path d="M74.5,653.8164 L74.5,680.8164 M61.5,661.8164 L87.5,661.8164 M74.5,680.8164 L61.5,695.8164 M74.5,680.8164 L87.5,695.8164 " fill="none" style="stroke:#181818;stroke-width:0.5;"/><rect fill="#E2E2F0" height="32.6211" rx="2.5" ry="2.5" style="stroke:#181818;stroke-width:0.5;" width="73" x="266" y="50"/><text fill="#000000" font-family="sans-serif" font-size="14" lengthAdjust="spacing" textLength="59" x="273" y="72.1074">FrontEnd</text><rect fill="#E2E2F0" height="32.6211" rx="2.5" ry="2.5" style="stroke:#181818;stroke-width:0.5;" width="73" x="266" y="618.6953"/><text fill="#000000" font-family="sans-serif" font-size="14" lengthAdjust="spacing" textLength="59" x="273" y="640.8027">FrontEnd</text><rect fill="#E2E2F0" height="32.6211" rx="2.5" ry="2.5" style="stroke:#181818;stroke-width:0.5;" width="35" x="591" y="50"/><text fill="#000000" font-family="sans-serif" font-size="14" lengthAdjust="spacing" textLength="21" x="598" y="72.1074">MD</text><rect fill="#E2E2F0" height="32.6211" rx="2.5" ry="2.5" style="stroke:#181818;stroke-width:0.5;" width="35" x="591" y="618.6953"/><text fill="#000000" font-family="sans-serif" font-size="14" lengthAdjust="spacing" textLength="21" x="598" y="640.8027">MD</text><rect fill="#E2E2F0" height="32.6211" rx="2.5" ry="2.5" style="stroke:#181818;stroke-width:0.5;" width="43" x="850" y="50"/><text fill="#000000" font-family="sans-serif" font-size="14" lengthAdjust="spacing" textLength="29" x="857" y="72.1074">User</text><rect fill="#E2E2F0" height="32.6211" rx="2.5" ry="2.5" style="stroke:#181818;stroke-width:0.5;" width="43" x="850" y="618.6953"/><text fill="#000000" font-family="sans-serif" font-size="14" lengthAdjust="spacing" textLength="29" x="857" y="640.8027">User</text><rect fill="#FFFFFF" height="517.0742" style="stroke:#181818;stroke-width:1.0;" width="10" x="69.5" y="93.6211"/><rect fill="#FFFFFF" height="484.7832" style="stroke:#181818;stroke-width:1.0;" width="10" x="297.5" y="116.9121"/><rect fill="#FFFFFF" height="119.873" style="stroke:#181818;stroke-width:1.0;" width="10" x="603.5" y="192.4941"/><rect fill="#FFFFFF" height="119.873" style="stroke:#181818;stroke-width:1.0;" width="10" x="603.5" y="450.5313"/><polygon fill="#181818" points="285.5,112.9121,295.5,116.9121,285.5,120.9121,289.5,116.9121" style="stroke:#181818;stroke-width:1.0;"/><line style="stroke:#181818;stroke-width:1.0;" x1="79.5" x2="291.5" y1="116.9121" y2="116.9121"/><text fill="#000000" font-family="sans-serif" font-size="13" lengthAdjust="spacing" textLength="199" x="86.5" y="111.6494">want to accept/reject assignments</text><line style="stroke:#181818;stroke-width:1.0;" x1="307.5" x2="349.5" y1="148.2031" y2="148.2031"/><line style="stroke:#181818;stroke-width:1.0;" x1="349.5" x2="349.5" y1="148.2031" y2="161.2031"/><line style="stroke:#181818;stroke-width:1.0;" x1="308.5" x2="349.5" y1="161.2031" y2="161.2031"/><polygon fill="#181818" points="318.5,157.2031,308.5,161.2031,318.5,165.2031,314.5,161.2031" style="stroke:#181818;stroke-width:1.0;"/><text fill="#000000" font-family="sans-serif" font-size="13" lengthAdjust="spacing" textLength="109" x="314.5" y="142.9404">token = getToken()</text><polygon fill="#181818" points="591.5,188.4941,601.5,192.4941,591.5,196.4941,595.5,192.4941" style="stroke:#181818;stroke-width:1.0;"/><line style="stroke:#181818;stroke-width:1.0;" x1="307.5" x2="597.5" y1="192.4941" y2="192.4941"/><text fill="#000000" font-family="sans-serif" font-size="13" lengthAdjust="spacing" textLength="181" x="314.5" y="187.2314">getPendingAssignments(token)</text><line style="stroke:#181818;stroke-width:1.0;" x1="613.5" x2="655.5" y1="223.7852" y2="223.7852"/><line style="stroke:#181818;stroke-width:1.0;" x1="655.5" x2="655.5" y1="223.7852" y2="236.7852"/><line style="stroke:#181818;stroke-width:1.0;" x1="614.5" x2="655.5" y1="236.7852" y2="236.7852"/><polygon fill="#181818" points="624.5,232.7852,614.5,236.7852,624.5,240.7852,620.5,236.7852" style="stroke:#181818;stroke-width:1.0;"/><text fill="#000000" font-family="sans-serif" font-size="13" lengthAdjust="spacing" textLength="79" x="620.5" y="218.5225">validate token</text><line style="stroke:#181818;stroke-width:1.0;" x1="613.5" x2="655.5" y1="268.0762" y2="268.0762"/><line style="stroke:#181818;stroke-width:1.0;" x1="655.5" x2="655.5" y1="268.0762" y2="281.0762"/><line style="stroke:#181818;stroke-width:1.0;" x1="614.5" x2="655.5" y1="281.0762" y2="281.0762"/><polygon fill="#181818" points="624.5,277.0762,614.5,281.0762,624.5,285.0762,620.5,281.0762" style="stroke:#181818;stroke-width:1.0;"/><text fill="#000000" font-family="sans-serif" font-size="13" lengthAdjust="spacing" textLength="239" x="620.5" y="262.8135">assignments = getPendingAssignments()</text><polygon fill="#181818" points="318.5,308.3672,308.5,312.3672,318.5,316.3672,314.5,312.3672" style="stroke:#181818;stroke-width:1.0;"/><line style="stroke:#181818;stroke-width:1.0;" x1="312.5" x2="607.5" y1="312.3672" y2="312.3672"/><text fill="#000000" font-family="sans-serif" font-size="13" lengthAdjust="spacing" textLength="74" x="324.5" y="307.1045">assignments</text><polygon fill="#181818" points="859.5,339.6582,869.5,343.6582,859.5,347.6582,863.5,343.6582" style="stroke:#181818;stroke-width:1.0;"/><line style="stroke:#181818;stroke-width:1.0;" x1="307.5" x2="865.5" y1="343.6582" y2="343.6582"/><text fill="#000000" font-family="sans-serif" font-size="13" lengthAdjust="spacing" textLength="168" x="314.5" y="338.3955">display pending assignments</text><polygon fill="#181818" points="318.5,370.9492,308.5,374.9492,318.5,378.9492,314.5,374.9492" style="stroke:#181818;stroke-width:1.0;"/><line style="stroke:#181818;stroke-width:1.0;" x1="312.5" x2="870.5" y1="374.9492" y2="374.9492"/><text fill="#000000" font-family="sans-serif" font-size="13" lengthAdjust="spacing" textLength="146" x="324.5" y="369.6865">accept/reject assignment</text><line style="stroke:#181818;stroke-width:1.0;" x1="307.5" x2="349.5" y1="406.2402" y2="406.2402"/><line style="stroke:#181818;stroke-width:1.0;" x1="349.5" x2="349.5" y1="406.2402" y2="419.2402"/><line style="stroke:#181818;stroke-width:1.0;" x1="308.5" x2="349.5" y1="419.2402" y2="419.2402"/><polygon fill="#181818" points="318.5,415.2402,308.5,419.2402,318.5,423.2402,314.5,419.2402" style="stroke:#181818;stroke-width:1.0;"/><text fill="#000000" font-family="sans-serif" font-size="13" lengthAdjust="spacing" textLength="147" x="314.5" y="400.9775">status = "accept"/"reject"</text><polygon fill="#181818" points="591.5,446.5313,601.5,450.5313,591.5,454.5313,595.5,450.5313" style="stroke:#181818;stroke-width:1.0;"/><line style="stroke:#181818;stroke-width:1.0;" x1="307.5" x2="597.5" y1="450.5313" y2="450.5313"/><text fill="#000000" font-family="sans-serif" font-size="13" lengthAdjust="spacing" textLength="277" x="314.5" y="445.2686">acceptAssignment(token, assignmentId, status)</text><line style="stroke:#181818;stroke-width:1.0;" x1="613.5" x2="655.5" y1="481.8223" y2="481.8223"/><line style="stroke:#181818;stroke-width:1.0;" x1="655.5" x2="655.5" y1="481.8223" y2="494.8223"/><line style="stroke:#181818;stroke-width:1.0;" x1="614.5" x2="655.5" y1="494.8223" y2="494.8223"/><polygon fill="#181818" points="624.5,490.8223,614.5,494.8223,624.5,498.8223,620.5,494.8223" style="stroke:#181818;stroke-width:1.0;"/><text fill="#000000" font-family="sans-serif" font-size="13" lengthAdjust="spacing" textLength="79" x="620.5" y="476.5596">validate token</text><line style="stroke:#181818;stroke-width:1.0;" x1="613.5" x2="655.5" y1="526.1133" y2="526.1133"/><line style="stroke:#181818;stroke-width:1.0;" x1="655.5" x2="655.5" y1="526.1133" y2="539.1133"/><line style="stroke:#181818;stroke-width:1.0;" x1="614.5" x2="655.5" y1="539.1133" y2="539.1133"/><polygon fill="#181818" points="624.5,535.1133,614.5,539.1133,624.5,543.1133,620.5,539.1133" style="stroke:#181818;stroke-width:1.0;"/><text fill="#000000" font-family="sans-serif" font-size="13" lengthAdjust="spacing" textLength="237" x="620.5" y="520.8506">acceptAssignment(assignmentId, status)</text><polygon fill="#181818" points="318.5,566.4043,308.5,570.4043,318.5,574.4043,314.5,570.4043" style="stroke:#181818;stroke-width:1.0;"/><line style="stroke:#181818;stroke-width:1.0;" x1="312.5" x2="607.5" y1="570.4043" y2="570.4043"/><text fill="#000000" font-family="sans-serif" font-size="13" lengthAdjust="spacing" textLength="67" x="324.5" y="565.1416">assignment</text><polygon fill="#181818" points="90.5,597.6953,80.5,601.6953,90.5,605.6953,86.5,601.6953" style="stroke:#181818;stroke-width:1.0;"/><line style="stroke:#181818;stroke-width:1.0;" x1="84.5" x2="301.5" y1="601.6953" y2="601.6953"/><text fill="#000000" font-family="sans-serif" font-size="13" lengthAdjust="spacing" textLength="106" x="96.5" y="596.4326">success message</text><!--SRC=[bLBBQiCm4BpxAnQTOaZ9tT22mJRq8EYX_O15MepQH3RI9gL_trNar4fn3xq8iVFOqI0qF0LGROnkz2Vo31ezZXGKO8HMLpC6TiRDAD0G9i-zjmaQ-Zj8Tscekwf2m-w2J4dSQdXu4ce3dud44w0nDFCXq3iP5ibjRLnruZpqDnrF7-JX4KRYrtJTrGkekoODNyXRvySrVznT9VNg9w4atIAvuD7PDBso2g28ajTjEDSBFmKherigb-LyRv520zR5-OXVC6UpErMLA3zsV_HIL14P-Pp2gKnM1vNfggWaGsletCQ-S7os-yNg_ntzDjzstIffiwDMowlEOXeZdEIGVrVov2Dy0m00]--></g></svg>