<?xml version="1.0" encoding="us-ascii" standalone="no"?><svg xmlns="http://www.w3.org/2000/svg" xmlns:xlink="http://www.w3.org/1999/xlink" contentStyleType="text/css" height="1339px" preserveAspectRatio="none" style="width:591px;height:1339px;background:#FFFFFF;" version="1.1" viewBox="0 0 591 1339" width="591px" zoomAndPan="magnify"><defs/><g><!--entity GC--><g id="elem_GC"><ellipse cx="65.5" cy="638.5" fill="#F1F1F1" rx="8" ry="8" style="stroke:#181818;stroke-width:0.5;"/><path d="M65.5,646.5 L65.5,673.5 M52.5,654.5 L78.5,654.5 M65.5,673.5 L52.5,688.5 M65.5,673.5 L78.5,688.5 " fill="none" style="stroke:#181818;stroke-width:0.5;"/><text fill="#000000" font-family="sans-serif" font-size="14" lengthAdjust="spacing" textLength="119" x="6" y="705.1074">Gestor de Campus</text></g><g id="elem_Criar edif&#237;cio"><ellipse cx="384.9429" cy="22.4937" fill="#F1F1F1" rx="68.9429" ry="16.4937" style="stroke:#181818;stroke-width:0.5;"/><text fill="#000000" font-family="sans-serif" font-size="14" lengthAdjust="spacing" textLength="79" x="342.4429" y="27.2974">Criar edif&#237;cio</text></g><g id="elem_Editar edif&#237;cio"><ellipse cx="384.7856" cy="91.2571" fill="#F1F1F1" rx="71.7856" ry="16.7571" style="stroke:#181818;stroke-width:0.5;"/><text fill="#000000" font-family="sans-serif" font-size="14" lengthAdjust="spacing" textLength="85" x="339.2856" y="96.0608">Editar edif&#237;cio</text></g><g id="elem_Listar todos os edif&#237;cios"><ellipse cx="385.1884" cy="165.5377" fill="#F1F1F1" rx="95.6884" ry="21.5377" style="stroke:#181818;stroke-width:0.5;"/><text fill="#000000" font-family="sans-serif" font-size="14" lengthAdjust="spacing" textLength="148" x="308.7253" y="170.1811">Listar todos os edif&#237;cios</text></g><g id="elem_Listar edif&#237;cios com min e max de pisos"><ellipse cx="385.2026" cy="252.7405" fill="#F1F1F1" rx="139.2026" ry="30.2405" style="stroke:#181818;stroke-width:0.5;"/><text fill="#000000" font-family="sans-serif" font-size="14" lengthAdjust="spacing" textLength="244" x="263.2026" y="256.5374">Listar edif&#237;cios com min e max de pisos</text></g><g id="elem_Criar piso de edif&#237;cio"><ellipse cx="384.9556" cy="337.4911" fill="#F1F1F1" rx="87.9556" ry="19.9911" style="stroke:#181818;stroke-width:0.5;"/><text fill="#000000" font-family="sans-serif" font-size="14" lengthAdjust="spacing" textLength="129" x="317.4556" y="342.2948">Criar piso de edif&#237;cio</text></g><g id="elem_Editar informa&#231;&#227;o de piso de edif&#237;cio"><ellipse cx="385.1797" cy="421.3359" fill="#F1F1F1" rx="132.1797" ry="28.8359" style="stroke:#181818;stroke-width:0.5;"/><text fill="#000000" font-family="sans-serif" font-size="14" lengthAdjust="spacing" textLength="229" x="270.6797" y="425.1328">Editar informa&#231;&#227;o de piso de edif&#237;cio</text></g><g id="elem_Listar todos os pisos de um edif&#237;cio"><ellipse cx="384.9568" cy="513.5914" fill="#F1F1F1" rx="128.4568" ry="28.0914" style="stroke:#181818;stroke-width:0.5;"/><text fill="#000000" font-family="sans-serif" font-size="14" lengthAdjust="spacing" textLength="221" x="274.4568" y="517.3882">Listar todos os pisos de um edif&#237;cio</text></g><g id="elem_Listar pisos de edif&#237;cio com passagem para outros edif&#237;cios"><ellipse cx="385.0772" cy="619.4154" fill="#F1F1F1" rx="200.0772" ry="42.4154" style="stroke:#181818;stroke-width:0.5;"/><text fill="#000000" font-family="sans-serif" font-size="14" lengthAdjust="spacing" textLength="371" x="199.5772" y="623.2123">Listar pisos de edif&#237;cio com passagem para outros edif&#237;cios</text></g><g id="elem_Carregar mapa de piso"><ellipse cx="384.8554" cy="718.3711" fill="#F1F1F1" rx="94.8554" ry="21.3711" style="stroke:#181818;stroke-width:0.5;"/><text fill="#000000" font-family="sans-serif" font-size="14" lengthAdjust="spacing" textLength="146" x="309.1093" y="723.1">Carregar mapa de piso</text></g><g id="elem_Criar passagem entre edif&#237;cios"><ellipse cx="385.1212" cy="800.4242" fill="#F1F1F1" rx="115.1212" ry="25.4242" style="stroke:#181818;stroke-width:0.5;"/><text fill="#000000" font-family="sans-serif" font-size="14" lengthAdjust="spacing" textLength="192" x="289.1212" y="804.2211">Criar passagem entre edif&#237;cios</text></g><g id="elem_Editar passagem entre edif&#237;cios"><ellipse cx="384.8571" cy="887.4714" fill="#F1F1F1" rx="117.8571" ry="25.9714" style="stroke:#181818;stroke-width:0.5;"/><text fill="#000000" font-family="sans-serif" font-size="14" lengthAdjust="spacing" textLength="198" x="285.8571" y="891.2683">Editar passagem entre edif&#237;cios</text></g><g id="elem_Listar passagens entre 2 edif&#237;cios"><ellipse cx="384.7896" cy="976.2579" fill="#F1F1F1" rx="124.2896" ry="27.2579" style="stroke:#181818;stroke-width:0.5;"/><text fill="#000000" font-family="sans-serif" font-size="14" lengthAdjust="spacing" textLength="212" x="278.7896" y="980.0548">Listar passagens entre 2 edif&#237;cios</text></g><g id="elem_Criar elevador em edif&#237;cio"><ellipse cx="385.244" cy="1061.6488" fill="#F1F1F1" rx="101.244" ry="22.6488" style="stroke:#181818;stroke-width:0.5;"/><text fill="#000000" font-family="sans-serif" font-size="14" lengthAdjust="spacing" textLength="161" x="303.9994" y="1065.7223">Criar elevador em edif&#237;cio</text></g><g id="elem_Editar elevador em edif&#237;cio"><ellipse cx="384.8831" cy="1142.6766" fill="#F1F1F1" rx="103.8831" ry="23.1766" style="stroke:#181818;stroke-width:0.5;"/><text fill="#000000" font-family="sans-serif" font-size="14" lengthAdjust="spacing" textLength="167" x="301.3675" y="1146.4795">Editar elevador em edif&#237;cio</text></g><g id="elem_Listar elevadores em edif&#237;cio"><ellipse cx="385.1919" cy="1225.3384" fill="#F1F1F1" rx="109.6919" ry="24.3384" style="stroke:#181818;stroke-width:0.5;"/><text fill="#000000" font-family="sans-serif" font-size="14" lengthAdjust="spacing" textLength="180" x="295.1919" y="1229.1353">Listar elevadores em edif&#237;cio</text></g><g id="elem_Criar sala de piso de edif&#237;cio"><ellipse cx="385.2422" cy="1309.7484" fill="#F1F1F1" rx="109.2422" ry="24.2484" style="stroke:#181818;stroke-width:0.5;"/><text fill="#000000" font-family="sans-serif" font-size="14" lengthAdjust="spacing" textLength="179" x="295.7422" y="1313.5453">Criar sala de piso de edif&#237;cio</text></g><!--link GC to Criar edif?cio--><g id="link_GC_Criar edif&#237;cio"><path d="M68.45,629.83 C75.31,507.12 102.59,137.14 185,56.5 C220.45,21.81 271.5113,14.9658 315.4613,15.8758 " fill="none" id="GC-to-Criar edif&#237;cio" style="stroke:#181818;stroke-width:1.0;"/><polygon fill="#181818" points="321.46,16,312.5447,11.8145,316.4611,15.8965,312.3791,19.8128,321.46,16" style="stroke:#181818;stroke-width:1.0;"/></g><!--link GC to Editar edif?cio--><g id="link_GC_Editar edif&#237;cio"><path d="M69.56,629.6 C79.07,516.34 112,196.58 185,126.5 C219.67,93.22 268.22,85.5231 311.45,85.5731 " fill="none" id="GC-to-Editar edif&#237;cio" style="stroke:#181818;stroke-width:1.0;"/><polygon fill="#181818" points="317.45,85.58,308.4546,81.5696,312.45,85.5742,308.4454,89.5696,317.45,85.58" style="stroke:#181818;stroke-width:1.0;"/></g><!--link GC to Listar todos os edif?cios--><g id="link_GC_Listar todos os edif&#237;cios"><path d="M71.16,629.96 C83.91,528.63 122.65,263.45 185,204.5 C212.82,178.2 246.9539,167.8367 283.8739,163.8967 " fill="none" id="GC-to-Listar todos os edif&#237;cios" style="stroke:#181818;stroke-width:1.0;"/><polygon fill="#181818" points="289.84,163.26,280.4664,160.2376,284.8682,163.7906,281.3153,168.1924,289.84,163.26" style="stroke:#181818;stroke-width:1.0;"/></g><!--link GC to Listar edif?cios com min e max de pisos--><g id="link_GC_Listar edif&#237;cios com min e max de pisos"><path d="M67.11,629.95 C70.51,554.16 89.18,388.12 185,299.5 C204.29,281.66 223.2806,271.8574 248.7406,264.5874 " fill="none" id="GC-to-Listar edif&#237;cios com min e max de pisos" style="stroke:#181818;stroke-width:1.0;"/><polygon fill="#181818" points="254.51,262.94,244.7576,261.5649,249.7022,264.3129,246.9542,269.2574,254.51,262.94" style="stroke:#181818;stroke-width:1.0;"/></g><!--link GC to Criar piso de edif?cio--><g id="link_GC_Criar piso de edif&#237;cio"><path d="M70.42,629.98 C79.01,565.81 105.59,439.56 185,374.5 C216.13,349 253.2432,339.4367 291.3732,336.0767 " fill="none" id="GC-to-Criar piso de edif&#237;cio" style="stroke:#181818;stroke-width:1.0;"/><polygon fill="#181818" points="297.35,335.55,288.0336,332.3555,292.3693,335.9889,288.7359,340.3246,297.35,335.55" style="stroke:#181818;stroke-width:1.0;"/></g><!--link GC to Editar informa??o de piso de edif?cio--><g id="link_GC_Editar informa&#231;&#227;o de piso de edif&#237;cio"><path d="M78.92,629.88 C95.52,583.63 129.47,508.31 185,467.5 C207.86,450.7 230.0479,441.3603 257.7479,434.4603 " fill="none" id="GC-to-Editar informa&#231;&#227;o de piso de edif&#237;cio" style="stroke:#181818;stroke-width:1.0;"/><polygon fill="#181818" points="263.57,433.01,253.87,431.304,258.7183,434.2186,255.8037,439.0668,263.57,433.01" style="stroke:#181818;stroke-width:1.0;"/></g><!--link GC to Listar todos os pisos de um edif?cio--><g id="link_GC_Listar todos os pisos de um edif&#237;cio"><path d="M99.44,629.84 C121.32,606 152.02,576.99 185,559.5 C212.57,544.88 238.847,536.1898 269.137,529.3598 " fill="none" id="GC-to-Listar todos os pisos de um edif&#237;cio" style="stroke:#181818;stroke-width:1.0;"/><polygon fill="#181818" points="274.99,528.04,265.3306,526.1176,270.1125,529.1398,267.0903,533.9217,274.99,528.04" style="stroke:#181818;stroke-width:1.0;"/></g><!--link GC to Listar pisos de edif?cio com passagem para outros edif?cios--><g id="link_GC_Listar pisos de edif&#237;cio com passagem para outros edif&#237;cios"><path d="M125.1,660.27 C153.24,655.84 182.533,651.223 217.853,645.663 " fill="none" id="GC-to-Listar pisos de edif&#237;cio com passagem para outros edif&#237;cios" style="stroke:#181818;stroke-width:1.0;"/><polygon fill="#181818" points="223.78,644.73,214.2675,642.1782,218.8408,645.5075,215.5115,650.0809,223.78,644.73" style="stroke:#181818;stroke-width:1.0;"/></g><!--link GC to Carregar mapa de piso--><g id="link_GC_Carregar mapa de piso"><path d="M125.1,678.54 C175.99,686.4 244.1502,696.9145 300.0502,705.5445 " fill="none" id="GC-to-Carregar mapa de piso" style="stroke:#181818;stroke-width:1.0;"/><polygon fill="#181818" points="305.98,706.46,297.6957,701.1337,301.0385,705.6971,296.4751,709.04,305.98,706.46" style="stroke:#181818;stroke-width:1.0;"/></g><!--link GC to Criar passagem entre edif?cios--><g id="link_GC_Criar passagem entre edif&#237;cios"><path d="M110.32,709.1 C131.52,726.33 158.16,745.33 185,757.5 C216.22,771.66 246.4732,780.1002 279.3132,786.5702 " fill="none" id="GC-to-Criar passagem entre edif&#237;cios" style="stroke:#181818;stroke-width:1.0;"/><polygon fill="#181818" points="285.2,787.73,277.1429,782.0657,280.2943,786.7635,275.5965,789.9149,285.2,787.73" style="stroke:#181818;stroke-width:1.0;"/></g><!--link GC to Editar passagem entre edif?cios--><g id="link_GC_Editar passagem entre edif&#237;cios"><path d="M82.87,709.22 C101.54,749.44 135.98,810.3 185,843.5 C211.22,861.26 237.5565,870.7542 268.3665,877.1842 " fill="none" id="GC-to-Editar passagem entre edif&#237;cios" style="stroke:#181818;stroke-width:1.0;"/><polygon fill="#181818" points="274.24,878.41,266.247,872.6557,269.3455,877.3885,264.6126,880.487,274.24,878.41" style="stroke:#181818;stroke-width:1.0;"/></g><!--link GC to Listar passagens entre 2 edif?cios--><g id="link_GC_Listar passagens entre 2 edif&#237;cios"><path d="M73.2,709.37 C85.09,767.19 115.49,873.61 185,930.5 C208.12,949.42 231.7294,959.4961 260.8494,966.3461 " fill="none" id="GC-to-Listar passagens entre 2 edif&#237;cios" style="stroke:#181818;stroke-width:1.0;"/><polygon fill="#181818" points="266.69,967.72,258.8451,961.7654,261.8228,966.5751,257.0132,969.5529,266.69,967.72" style="stroke:#181818;stroke-width:1.0;"/></g><!--link GC to Criar elevador em edif?cio--><g id="link_GC_Criar elevador em edif&#237;cio"><path d="M67.6,709.15 C71.9,782.58 92.1,939.66 185,1021.5 C211.97,1045.26 243.0973,1055.6127 277.9373,1060.4627 " fill="none" id="GC-to-Criar elevador em edif&#237;cio" style="stroke:#181818;stroke-width:1.0;"/><polygon fill="#181818" points="283.88,1061.29,275.5175,1056.0873,278.9278,1060.6006,274.4144,1064.0109,283.88,1061.29" style="stroke:#181818;stroke-width:1.0;"/></g><!--link GC to Editar elevador em edif?cio--><g id="link_GC_Editar elevador em edif&#237;cio"><path d="M72.02,709.02 C86.24,805.14 127.13,1047.25 185,1101.5 C210.67,1125.56 240.616,1136.2124 274.846,1141.3324 " fill="none" id="GC-to-Editar elevador em edif&#237;cio" style="stroke:#181818;stroke-width:1.0;"/><polygon fill="#181818" points="280.78,1142.22,272.4707,1136.9326,275.835,1141.4803,271.2873,1144.8446,280.78,1142.22" style="stroke:#181818;stroke-width:1.0;"/></g><!--link GC to Listar elevadores em edif?cio--><g id="link_GC_Listar elevadores em edif&#237;cio"><path d="M70.22,709.02 C81.21,817.38 117.14,1115.6 185,1182.5 C208.97,1206.14 236.7499,1217.1055 269.5999,1222.8555 " fill="none" id="GC-to-Listar elevadores em edif&#237;cio" style="stroke:#181818;stroke-width:1.0;"/><polygon fill="#181818" points="275.51,1223.89,267.3344,1218.3982,270.5849,1223.0279,265.9551,1226.2783,275.51,1223.89" style="stroke:#181818;stroke-width:1.0;"/></g><!--link GC to Criar sala de piso de edif?cio--><g id="link_GC_Criar sala de piso de edif&#237;cio"><path d="M68.81,709.35 C76.63,829.96 106.16,1187.68 185,1267.5 C208.82,1291.62 236.8411,1302.5671 269.9611,1308.0671 " fill="none" id="GC-to-Criar sala de piso de edif&#237;cio" style="stroke:#181818;stroke-width:1.0;"/><polygon fill="#181818" points="275.88,1309.05,267.6569,1303.6297,270.9475,1308.2309,266.3463,1311.5216,275.88,1309.05" style="stroke:#181818;stroke-width:1.0;"/></g><!--SRC=[ZP8_ReKm38VtdC9Rsu4YTMJeWYgMNi8YXXU99CWsLU_JeLDFmSLA7dzQzG6gX2AKtnVdivoxYselHPxt7GOTVFTOHvyFGbcDqs8TjepUc8uQ1Ot0hhqeMCTKgul1cA8YqSXW2Khq_I05e41L6cEg4hBi6UvBTiX0rZNZL-tYmnQyMAVxoQkJb6YqKM3wDaHkc9y89dNmBW21n_Tar3lvVM8MIPifF1PoeOdiSVmSF-9Qvk34Nz7hZOaT_0c-KHjoTUzH15jAFumG1-M3rajafdOgvB77rV2cpxKQ1MNQhRFq-mzo5P_980lwjAyt3xoZDxJJqo1_DlnpQXtoGf4SSFELWXqU3CoORm00]--></g></svg>