<?xml version="1.0" encoding="us-ascii" standalone="no"?><svg xmlns="http://www.w3.org/2000/svg" xmlns:xlink="http://www.w3.org/1999/xlink" contentStyleType="text/css" height="674.45px" preserveAspectRatio="none" style="width:1050px;height:674px;background:#FFFFFF;" version="1.1" viewBox="0 0 1050 674" width="1050.42px" zoomAndPan="magnify"><defs/><g><!--cluster RobDroneGo_L--><g id="cluster_RobDroneGo_L"><rect fill="#0FAAFF" height="243.95" rx="1.025" ry="1.025" style="stroke:#181818;stroke-width:0.41;" width="398.52" x="317.75" y="428.04"/><rect fill="#0FAAFF" height="4.1" style="stroke:#181818;stroke-width:0.41;" width="6.15" x="708.07" y="430.09"/><rect fill="#0FAAFF" height="0.82" style="stroke:#181818;stroke-width:0.41;" width="1.64" x="707.25" y="430.91"/><rect fill="#0FAAFF" height="0.82" style="stroke:#181818;stroke-width:0.41;" width="1.64" x="707.25" y="432.55"/><text fill="#000000" font-family="sans-serif" font-size="5.74" font-weight="bold" lengthAdjust="spacing" textLength="38.95" x="497.535" y="439.974">&#171;component&#187;</text><text fill="#000000" font-family="sans-serif" font-size="5.74" font-weight="bold" lengthAdjust="spacing" textLength="38.13" x="497.945" y="447.6087">&#171;system(C4)&#187;</text><text fill="#000000" font-family="sans-serif" font-size="5.74" font-weight="bold" lengthAdjust="spacing" textLength="37.31" x="498.355" y="456.0633">RobDroneGo</text></g><!--cluster CM_L--><g id="cluster_CM_L"><rect fill="#0FAAFF" height="86.1" rx="1.025" ry="1.025" style="stroke:#181818;stroke-width:0.41;" width="66.83" x="341.94" y="476.42"/><rect fill="#0FAAFF" height="4.1" style="stroke:#181818;stroke-width:0.41;" width="6.15" x="400.57" y="478.47"/><rect fill="#0FAAFF" height="0.82" style="stroke:#181818;stroke-width:0.41;" width="1.64" x="399.75" y="479.29"/><rect fill="#0FAAFF" height="0.82" style="stroke:#181818;stroke-width:0.41;" width="1.64" x="399.75" y="480.93"/><text fill="#000000" font-family="sans-serif" font-size="5.74" font-weight="bold" lengthAdjust="spacing" textLength="38.95" x="355.88" y="488.354">&#171;component&#187;</text><text fill="#000000" font-family="sans-serif" font-size="5.74" font-weight="bold" lengthAdjust="spacing" textLength="61.91" x="344.4" y="496.8087">Campus Management</text></g><!--cluster FM_L--><g id="cluster_FM_L"><rect fill="#0FAAFF" height="86.1" rx="1.025" ry="1.025" style="stroke:#181818;stroke-width:0.41;" width="58.63" x="521.52" y="476.42"/><rect fill="#0FAAFF" height="4.1" style="stroke:#181818;stroke-width:0.41;" width="6.15" x="571.95" y="478.47"/><rect fill="#0FAAFF" height="0.82" style="stroke:#181818;stroke-width:0.41;" width="1.64" x="571.13" y="479.29"/><rect fill="#0FAAFF" height="0.82" style="stroke:#181818;stroke-width:0.41;" width="1.64" x="571.13" y="480.93"/><text fill="#000000" font-family="sans-serif" font-size="5.74" font-weight="bold" lengthAdjust="spacing" textLength="38.95" x="531.36" y="488.354">&#171;component&#187;</text><text fill="#000000" font-family="sans-serif" font-size="5.74" font-weight="bold" lengthAdjust="spacing" textLength="53.71" x="523.98" y="496.8087">Fleet Management</text></g><!--cluster TM_L--><g id="cluster_TM_L"><rect fill="#0FAAFF" height="86.1" rx="1.025" ry="1.025" style="stroke:#181818;stroke-width:0.41;" width="56.99" x="448.745" y="476.42"/><rect fill="#0FAAFF" height="4.1" style="stroke:#181818;stroke-width:0.41;" width="6.15" x="497.535" y="478.47"/><rect fill="#0FAAFF" height="0.82" style="stroke:#181818;stroke-width:0.41;" width="1.64" x="496.715" y="479.29"/><rect fill="#0FAAFF" height="0.82" style="stroke:#181818;stroke-width:0.41;" width="1.64" x="496.715" y="480.93"/><text fill="#000000" font-family="sans-serif" font-size="5.74" font-weight="bold" lengthAdjust="spacing" textLength="38.95" x="457.765" y="488.354">&#171;component&#187;</text><text fill="#000000" font-family="sans-serif" font-size="5.74" font-weight="bold" lengthAdjust="spacing" textLength="52.07" x="451.205" y="496.8087">Task Management</text></g><!--cluster UM_L--><g id="cluster_UM_L"><rect fill="#0FAAFF" height="66.83" rx="1.025" ry="1.025" style="stroke:#181818;stroke-width:0.41;" width="57.4" x="594.91" y="476.42"/><rect fill="#0FAAFF" height="4.1" style="stroke:#181818;stroke-width:0.41;" width="6.15" x="644.11" y="478.47"/><rect fill="#0FAAFF" height="0.82" style="stroke:#181818;stroke-width:0.41;" width="1.64" x="643.29" y="479.29"/><rect fill="#0FAAFF" height="0.82" style="stroke:#181818;stroke-width:0.41;" width="1.64" x="643.29" y="480.93"/><text fill="#000000" font-family="sans-serif" font-size="5.74" font-weight="bold" lengthAdjust="spacing" textLength="38.95" x="604.135" y="488.354">&#171;component&#187;</text><text fill="#000000" font-family="sans-serif" font-size="5.74" font-weight="bold" lengthAdjust="spacing" textLength="52.48" x="597.37" y="496.8087">User Management</text></g><!--cluster Planning_L--><g id="cluster_Planning_L"><rect fill="#0FAAFF" height="55.35" rx="1.025" ry="1.025" style="stroke:#181818;stroke-width:0.41;" width="82" x="432.14" y="603.52"/><rect fill="#0FAAFF" height="4.1" style="stroke:#181818;stroke-width:0.41;" width="6.15" x="505.94" y="605.57"/><rect fill="#0FAAFF" height="0.82" style="stroke:#181818;stroke-width:0.41;" width="1.64" x="505.12" y="606.39"/><rect fill="#0FAAFF" height="0.82" style="stroke:#181818;stroke-width:0.41;" width="1.64" x="505.12" y="608.03"/><text fill="#000000" font-family="sans-serif" font-size="5.74" font-weight="bold" lengthAdjust="spacing" textLength="38.95" x="453.665" y="615.454">&#171;component&#187;</text><text fill="#000000" font-family="sans-serif" font-size="5.74" font-weight="bold" lengthAdjust="spacing" textLength="25.01" x="460.635" y="623.9087">Planning</text></g><!--cluster Host_F--><g id="cluster_Host_F"><polygon fill="#ADD8E6" points="389.5,126.69,393.6,122.59,488.72,122.59,488.72,216.48,484.62,220.58,389.5,220.58,389.5,126.69" style="stroke:#181818;stroke-width:0.41;"/><line style="stroke:#181818;stroke-width:0.41;" x1="484.62" x2="488.72" y1="126.69" y2="122.59"/><line style="stroke:#181818;stroke-width:0.41;" x1="389.5" x2="484.62" y1="126.69" y2="126.69"/><line style="stroke:#181818;stroke-width:0.41;" x1="484.62" x2="484.62" y1="126.69" y2="220.58"/><text fill="#000000" font-family="sans-serif" font-size="5.74" font-weight="bold" lengthAdjust="spacing" textLength="35.26" x="419.84" y="134.524">localhost:??</text></g><!--cluster B--><g id="cluster_B"><rect fill="#0FAAFF" height="60.27" rx="1.025" ry="1.025" style="stroke:#181818;stroke-width:0.41;" width="69.7" x="405.9" y="147.19"/><rect fill="#0FAAFF" height="4.1" style="stroke:#181818;stroke-width:0.41;" width="6.15" x="467.4" y="149.24"/><rect fill="#0FAAFF" height="0.82" style="stroke:#181818;stroke-width:0.41;" width="1.64" x="466.58" y="150.06"/><rect fill="#0FAAFF" height="0.82" style="stroke:#181818;stroke-width:0.41;" width="1.64" x="466.58" y="151.7"/><text fill="#000000" font-family="sans-serif" font-size="5.74" font-weight="bold" lengthAdjust="spacing" textLength="38.95" x="421.275" y="159.124">&#171;component&#187;</text><text fill="#000000" font-family="sans-serif" font-size="5.74" font-weight="bold" lengthAdjust="spacing" textLength="24.19" x="428.655" y="167.5787">Browser</text></g><!--cluster Remote_F--><g id="cluster_Remote_F"><polygon fill="#ADD8E6" points="389.5,252.97,393.6,248.87,820.41,248.87,820.41,305.04,816.31,309.14,389.5,309.14,389.5,252.97" style="stroke:#181818;stroke-width:0.41;"/><line style="stroke:#181818;stroke-width:0.41;" x1="816.31" x2="820.41" y1="252.97" y2="248.87"/><line style="stroke:#181818;stroke-width:0.41;" x1="389.5" x2="816.31" y1="252.97" y2="252.97"/><line style="stroke:#181818;stroke-width:0.41;" x1="816.31" x2="816.31" y1="252.97" y2="309.14"/><text fill="#000000" font-family="sans-serif" font-size="5.74" font-weight="bold" lengthAdjust="spacing" textLength="43.46" x="581.585" y="260.804">Remote Server</text></g><text fill="#000000" font-family="sans-serif" font-size="5.74" lengthAdjust="spacing" textLength="1.64" x="715.45" y="494.6594">&#160;</text><rect fill="#0FAAFF" height="4.92" style="stroke:#181818;stroke-width:0.615;" width="4.92" x="713.81" y="501.43"/><text fill="#000000" font-family="sans-serif" font-size="5.74" lengthAdjust="spacing" textLength="1.64" x="388.68" y="418.8094">&#160;</text><rect fill="#0FAAFF" height="4.92" style="stroke:#181818;stroke-width:0.615;" width="4.92" x="387.04" y="425.58"/><text fill="#000000" font-family="sans-serif" font-size="5.74" lengthAdjust="spacing" textLength="1.64" x="355.06" y="418.8094">&#160;</text><rect fill="#0FAAFF" height="4.92" style="stroke:#181818;stroke-width:0.615;" width="4.92" x="353.42" y="425.58"/><text fill="#000000" font-family="sans-serif" font-size="5.74" lengthAdjust="spacing" textLength="1.64" x="450.59" y="418.8094">&#160;</text><rect fill="#0FAAFF" height="4.92" style="stroke:#181818;stroke-width:0.615;" width="4.92" x="448.95" y="425.58"/><text fill="#000000" font-family="sans-serif" font-size="5.74" lengthAdjust="spacing" textLength="1.64" x="416.97" y="418.8094">&#160;</text><rect fill="#0FAAFF" height="4.92" style="stroke:#181818;stroke-width:0.615;" width="4.92" x="415.33" y="425.58"/><text fill="#000000" font-family="sans-serif" font-size="5.74" lengthAdjust="spacing" textLength="1.64" x="566.62" y="418.8094">&#160;</text><rect fill="#0FAAFF" height="4.92" style="stroke:#181818;stroke-width:0.615;" width="4.92" x="564.98" y="425.58"/><text fill="#000000" font-family="sans-serif" font-size="5.74" lengthAdjust="spacing" textLength="1.64" x="533" y="418.8094">&#160;</text><rect fill="#0FAAFF" height="4.92" style="stroke:#181818;stroke-width:0.615;" width="4.92" x="531.36" y="425.58"/><text fill="#000000" font-family="sans-serif" font-size="5.74" lengthAdjust="spacing" textLength="1.64" x="657.23" y="418.8094">&#160;</text><rect fill="#0FAAFF" height="4.92" style="stroke:#181818;stroke-width:0.615;" width="4.92" x="655.59" y="425.58"/><text fill="#000000" font-family="sans-serif" font-size="5.74" lengthAdjust="spacing" textLength="1.64" x="623.61" y="418.8094">&#160;</text><rect fill="#0FAAFF" height="4.92" style="stroke:#181818;stroke-width:0.615;" width="4.92" x="621.97" y="425.58"/><text fill="#000000" font-family="sans-serif" font-size="5.74" lengthAdjust="spacing" textLength="1.64" x="388.68" y="467.1894">&#160;</text><rect fill="#0FAAFF" height="4.92" style="stroke:#181818;stroke-width:0.615;" width="4.92" x="387.04" y="473.96"/><text fill="#000000" font-family="sans-serif" font-size="5.74" lengthAdjust="spacing" textLength="1.64" x="355.06" y="467.1894">&#160;</text><rect fill="#0FAAFF" height="4.92" style="stroke:#181818;stroke-width:0.615;" width="4.92" x="353.42" y="473.96"/><text fill="#000000" font-family="sans-serif" font-size="5.74" lengthAdjust="spacing" textLength="1.64" x="394.01" y="571.584">&#160;</text><rect fill="#0FAAFF" height="4.92" style="stroke:#181818;stroke-width:0.615;" width="4.92" x="392.37" y="560.06"/><text fill="#000000" font-family="sans-serif" font-size="5.74" lengthAdjust="spacing" textLength="1.64" x="571.13" y="467.1894">&#160;</text><rect fill="#0FAAFF" height="4.92" style="stroke:#181818;stroke-width:0.615;" width="4.92" x="569.49" y="473.96"/><text fill="#000000" font-family="sans-serif" font-size="5.74" lengthAdjust="spacing" textLength="1.64" x="537.51" y="467.1894">&#160;</text><rect fill="#0FAAFF" height="4.92" style="stroke:#181818;stroke-width:0.615;" width="4.92" x="535.87" y="473.96"/><text fill="#000000" font-family="sans-serif" font-size="5.74" lengthAdjust="spacing" textLength="1.64" x="528.9" y="571.584">&#160;</text><rect fill="#0FAAFF" height="4.92" style="stroke:#181818;stroke-width:0.615;" width="4.92" x="527.26" y="560.06"/><text fill="#000000" font-family="sans-serif" font-size="5.74" lengthAdjust="spacing" textLength="1.64" x="493.23" y="467.1894">&#160;</text><rect fill="#0FAAFF" height="4.92" style="stroke:#181818;stroke-width:0.615;" width="4.92" x="491.59" y="473.96"/><text fill="#000000" font-family="sans-serif" font-size="5.74" lengthAdjust="spacing" textLength="1.64" x="459.61" y="467.1894">&#160;</text><rect fill="#0FAAFF" height="4.92" style="stroke:#181818;stroke-width:0.615;" width="4.92" x="457.97" y="473.96"/><text fill="#000000" font-family="sans-serif" font-size="5.74" lengthAdjust="spacing" textLength="1.64" x="467.81" y="571.584">&#160;</text><rect fill="#0FAAFF" height="4.92" style="stroke:#181818;stroke-width:0.615;" width="4.92" x="466.17" y="560.06"/><text fill="#000000" font-family="sans-serif" font-size="5.74" lengthAdjust="spacing" textLength="1.64" x="639.6" y="467.1894">&#160;</text><rect fill="#0FAAFF" height="4.92" style="stroke:#181818;stroke-width:0.615;" width="4.92" x="637.96" y="473.96"/><text fill="#000000" font-family="sans-serif" font-size="5.74" lengthAdjust="spacing" textLength="1.64" x="605.98" y="467.1894">&#160;</text><rect fill="#0FAAFF" height="4.92" style="stroke:#181818;stroke-width:0.615;" width="4.92" x="604.34" y="473.96"/><text fill="#000000" font-family="sans-serif" font-size="5.74" lengthAdjust="spacing" textLength="1.64" x="438.7" y="594.2894">&#160;</text><rect fill="#0FAAFF" height="4.92" style="stroke:#181818;stroke-width:0.615;" width="4.92" x="437.06" y="601.06"/><text fill="#000000" font-family="sans-serif" font-size="5.74" lengthAdjust="spacing" textLength="1.64" x="472.32" y="594.2894">&#160;</text><rect fill="#0FAAFF" height="4.92" style="stroke:#181818;stroke-width:0.615;" width="4.92" x="470.68" y="601.06"/><text fill="#000000" font-family="sans-serif" font-size="5.74" lengthAdjust="spacing" textLength="1.64" x="505.94" y="594.2894">&#160;</text><rect fill="#0FAAFF" height="4.92" style="stroke:#181818;stroke-width:0.615;" width="4.92" x="504.3" y="601.06"/><!--entity UI--><g id="elem_UI"><rect fill="#0FAAFF" height="29.2093" rx="1.025" ry="1.025" style="stroke:#181818;stroke-width:0.205;" width="56.17" x="412.665" y="171.79"/><rect fill="#0FAAFF" height="4.1" style="stroke:#181818;stroke-width:0.205;" width="6.15" x="460.635" y="173.84"/><rect fill="#0FAAFF" height="0.82" style="stroke:#181818;stroke-width:0.205;" width="1.64" x="459.815" y="174.66"/><rect fill="#0FAAFF" height="0.82" style="stroke:#181818;stroke-width:0.205;" width="1.64" x="459.815" y="176.3"/><text fill="#000000" font-family="sans-serif" font-size="5.74" font-weight="bold" lengthAdjust="spacing" textLength="38.95" x="419.225" y="186.594">&#171;component&#187;</text><text fill="#000000" font-family="sans-serif" font-size="5.74" font-weight="bold" lengthAdjust="spacing" textLength="5.74" x="435.83" y="195.0487">UI</text></g><!--entity CM--><g id="elem_CM"><rect fill="#0FAAFF" height="29.2093" rx="1.025" ry="1.025" style="stroke:#181818;stroke-width:0.205;" width="79.13" x="407.335" y="270.19"/><rect fill="#0FAAFF" height="4.1" style="stroke:#181818;stroke-width:0.205;" width="6.15" x="478.265" y="272.24"/><rect fill="#0FAAFF" height="0.82" style="stroke:#181818;stroke-width:0.205;" width="1.64" x="477.445" y="273.06"/><rect fill="#0FAAFF" height="0.82" style="stroke:#181818;stroke-width:0.205;" width="1.64" x="477.445" y="274.7"/><text fill="#000000" font-family="sans-serif" font-size="5.74" font-weight="bold" lengthAdjust="spacing" textLength="38.95" x="425.375" y="284.994">&#171;component&#187;</text><text fill="#000000" font-family="sans-serif" font-size="5.74" font-weight="bold" lengthAdjust="spacing" textLength="61.91" x="413.895" y="293.4487">Campus Management</text></g><!--entity FM--><g id="elem_FM"><rect fill="#0FAAFF" height="29.2093" rx="1.025" ry="1.025" style="stroke:#181818;stroke-width:0.205;" width="70.93" x="584.455" y="270.19"/><rect fill="#0FAAFF" height="4.1" style="stroke:#181818;stroke-width:0.205;" width="6.15" x="647.185" y="272.24"/><rect fill="#0FAAFF" height="0.82" style="stroke:#181818;stroke-width:0.205;" width="1.64" x="646.365" y="273.06"/><rect fill="#0FAAFF" height="0.82" style="stroke:#181818;stroke-width:0.205;" width="1.64" x="646.365" y="274.7"/><text fill="#000000" font-family="sans-serif" font-size="5.74" font-weight="bold" lengthAdjust="spacing" textLength="38.95" x="598.395" y="284.994">&#171;component&#187;</text><text fill="#000000" font-family="sans-serif" font-size="5.74" font-weight="bold" lengthAdjust="spacing" textLength="53.71" x="591.015" y="293.4487">Fleet Management</text></g><!--entity Planning--><g id="elem_Planning"><rect fill="#0FAAFF" height="29.2093" rx="1.025" ry="1.025" style="stroke:#181818;stroke-width:0.205;" width="56.17" x="754.195" y="270.19"/><rect fill="#0FAAFF" height="4.1" style="stroke:#181818;stroke-width:0.205;" width="6.15" x="802.165" y="272.24"/><rect fill="#0FAAFF" height="0.82" style="stroke:#181818;stroke-width:0.205;" width="1.64" x="801.345" y="273.06"/><rect fill="#0FAAFF" height="0.82" style="stroke:#181818;stroke-width:0.205;" width="1.64" x="801.345" y="274.7"/><text fill="#000000" font-family="sans-serif" font-size="5.74" font-weight="bold" lengthAdjust="spacing" textLength="38.95" x="760.755" y="284.994">&#171;component&#187;</text><text fill="#000000" font-family="sans-serif" font-size="5.74" font-weight="bold" lengthAdjust="spacing" textLength="25.01" x="767.725" y="293.4487">Planning</text></g><!--entity TM--><g id="elem_TM"><rect fill="#0FAAFF" height="29.2093" rx="1.025" ry="1.025" style="stroke:#181818;stroke-width:0.205;" width="69.29" x="500.815" y="270.19"/><rect fill="#0FAAFF" height="4.1" style="stroke:#181818;stroke-width:0.205;" width="6.15" x="561.905" y="272.24"/><rect fill="#0FAAFF" height="0.82" style="stroke:#181818;stroke-width:0.205;" width="1.64" x="561.085" y="273.06"/><rect fill="#0FAAFF" height="0.82" style="stroke:#181818;stroke-width:0.205;" width="1.64" x="561.085" y="274.7"/><text fill="#000000" font-family="sans-serif" font-size="5.74" font-weight="bold" lengthAdjust="spacing" textLength="38.95" x="513.935" y="284.994">&#171;component&#187;</text><text fill="#000000" font-family="sans-serif" font-size="5.74" font-weight="bold" lengthAdjust="spacing" textLength="52.07" x="507.375" y="293.4487">Task Management</text></g><!--entity UM--><g id="elem_UM"><rect fill="#0FAAFF" height="29.2093" rx="1.025" ry="1.025" style="stroke:#181818;stroke-width:0.205;" width="69.7" x="669.94" y="270.19"/><rect fill="#0FAAFF" height="4.1" style="stroke:#181818;stroke-width:0.205;" width="6.15" x="731.44" y="272.24"/><rect fill="#0FAAFF" height="0.82" style="stroke:#181818;stroke-width:0.205;" width="1.64" x="730.62" y="273.06"/><rect fill="#0FAAFF" height="0.82" style="stroke:#181818;stroke-width:0.205;" width="1.64" x="730.62" y="274.7"/><text fill="#000000" font-family="sans-serif" font-size="5.74" font-weight="bold" lengthAdjust="spacing" textLength="38.95" x="683.265" y="284.994">&#171;component&#187;</text><text fill="#000000" font-family="sans-serif" font-size="5.74" font-weight="bold" lengthAdjust="spacing" textLength="52.48" x="676.5" y="293.4487">User Management</text></g><!--entity filesystem_API_L--><g id="elem_filesystem_API_L"><ellipse cx="751.94" cy="562.52" fill="#0FAAFF" rx="3.28" ry="3.28" style="stroke:#181818;stroke-width:0.205;"/><text fill="#000000" font-family="sans-serif" font-size="5.74" font-weight="bold" lengthAdjust="spacing" textLength="39.77" x="732.055" y="576.094">filesystem API</text></g><!--entity CM_API_L--><g id="elem_CM_API_L"><ellipse cx="136.53" cy="378.84" fill="#0FAAFF" rx="3.28" ry="3.28" style="stroke:#181818;stroke-width:0.205;"/><text fill="#000000" font-family="sans-serif" font-size="5.74" font-weight="bold" lengthAdjust="spacing" textLength="72.16" x="100.45" y="392.414">Campus management API</text></g><!--entity FM_API_L--><g id="elem_FM_API_L"><ellipse cx="481.75" cy="378.84" fill="#0FAAFF" rx="3.28" ry="3.28" style="stroke:#181818;stroke-width:0.205;"/><text fill="#000000" font-family="sans-serif" font-size="5.74" font-weight="bold" lengthAdjust="spacing" textLength="63.96" x="449.77" y="392.414">Fleet management API</text></g><!--entity Task_API_L--><g id="elem_Task_API_L"><ellipse cx="316.11" cy="378.84" fill="#0FAAFF" rx="3.28" ry="3.28" style="stroke:#181818;stroke-width:0.205;"/><text fill="#000000" font-family="sans-serif" font-size="5.74" font-weight="bold" lengthAdjust="spacing" textLength="62.32" x="284.95" y="392.414">Task management API</text></g><!--entity UM_API_L--><g id="elem_UM_API_L"><ellipse cx="730.62" cy="378.84" fill="#0FAAFF" rx="3.28" ry="3.28" style="stroke:#181818;stroke-width:0.205;"/><text fill="#000000" font-family="sans-serif" font-size="5.74" font-weight="bold" lengthAdjust="spacing" textLength="62.73" x="699.255" y="392.414">User management API</text></g><!--entity CampusM_L--><g id="elem_CampusM_L"><ellipse cx="228.78" cy="378.84" fill="#0FAAFF" rx="3.28" ry="3.28" style="stroke:#181818;stroke-width:0.205;"/><text fill="#000000" font-family="sans-serif" font-size="5.74" font-weight="bold" lengthAdjust="spacing" textLength="69.29" x="194.135" y="392.414">Campus Management UI</text></g><!--entity TaskM_L--><g id="elem_TaskM_L"><ellipse cx="398.52" cy="378.84" fill="#0FAAFF" rx="3.28" ry="3.28" style="stroke:#181818;stroke-width:0.205;"/><text fill="#000000" font-family="sans-serif" font-size="5.74" font-weight="bold" lengthAdjust="spacing" textLength="59.45" x="368.795" y="392.414">Task Management UI</text></g><!--entity FleetM_L--><g id="elem_FleetM_L"><ellipse cx="565.8" cy="378.84" fill="#0FAAFF" rx="3.28" ry="3.28" style="stroke:#181818;stroke-width:0.205;"/><text fill="#000000" font-family="sans-serif" font-size="5.74" font-weight="bold" lengthAdjust="spacing" textLength="61.09" x="535.255" y="392.414">Fleet Management UI</text></g><!--entity UserM_L--><g id="elem_UserM_L"><ellipse cx="647.8" cy="378.84" fill="#0FAAFF" rx="3.28" ry="3.28" style="stroke:#181818;stroke-width:0.205;"/><text fill="#000000" font-family="sans-serif" font-size="5.74" font-weight="bold" lengthAdjust="spacing" textLength="59.86" x="617.87" y="392.414">User Management UI</text></g><!--entity RobDroneGo_I--><g id="elem_RobDroneGo_I"><rect fill="#0FAAFF" height="20.7546" rx="1.025" ry="1.025" style="stroke:#181818;stroke-width:0.205;" width="56.17" x="968.625" y="2.87"/><rect fill="#0FAAFF" height="4.1" style="stroke:#181818;stroke-width:0.205;" width="6.15" x="1016.595" y="4.92"/><rect fill="#0FAAFF" height="0.82" style="stroke:#181818;stroke-width:0.205;" width="1.64" x="1015.775" y="5.74"/><rect fill="#0FAAFF" height="0.82" style="stroke:#181818;stroke-width:0.205;" width="1.64" x="1015.775" y="7.38"/><text fill="#000000" font-family="sans-serif" font-size="5.74" lengthAdjust="spacing" textLength="38.95" x="975.185" y="17.674">RobDroneGo_I</text></g><!--link p1_L to filesystem_API_L--><g id="link_p1_L_filesystem_API_L"><path d="M717.541,506.3582 C722.8505,514.9682 741.1695,544.6517 747.7418,555.3076 " fill="none" id="p1_L-to-filesystem_API_L" style="stroke:#181818;stroke-width:0.41;"/><path d="M752.1828,555.9028 A3.69,3.69 0 0 0 746.2803 559.5433" fill="none" style="stroke:#181818;stroke-width:0.615;"/></g><!--link CampusM_L to p2_L--><g id="link_CampusM_L_p2_L"><path d="M232.5233,380.3406 C240.2477,382.5874 258.5337,387.9092 273.88,392.37 C314.6955,404.2272 325.3104,405.8549 365.72,419.02 C373.5674,421.5784 382.7145,425.0224 387.0195,426.6706 " fill="none" id="CampusM_L-p2_L" style="stroke:#181818;stroke-width:0.41;"/></g><!--link CM_API_L to p3_L--><g id="link_CM_API_L_p3_L"><path d="M140.261,380.398 C148.1535,382.8006 167.1324,388.4627 183.27,392.37 C252.0885,409.0324 337.594,424.3951 353.3298,427.179 " fill="none" id="CM_API_L-p3_L" style="stroke:#181818;stroke-width:0.41;"/></g><!--link TaskM_L to p4_L--><g id="link_TaskM_L_p4_L"><path d="M402.1567,382.5751 C412.3329,391.8821 440.8935,418.0114 449.1509,425.5636 " fill="none" id="TaskM_L-p4_L" style="stroke:#181818;stroke-width:0.41;"/></g><!--link Task_API_L to p5_L--><g id="link_Task_API_L_p5_L"><path d="M319.8492,381.0294 C336.2574,388.8358 401.6811,419.9671 415.2972,426.4451 " fill="none" id="Task_API_L-p5_L" style="stroke:#181818;stroke-width:0.41;"/></g><!--link FleetM_L to p6_L--><g id="link_FleetM_L_p6_L"><path d="M565.9107,382.5751 C566.2264,391.8821 567.112,418.0114 567.3703,425.5636 " fill="none" id="FleetM_L-p6_L" style="stroke:#181818;stroke-width:0.41;"/></g><!--link FM_API_L to p7_L--><g id="link_FM_API_L_p7_L"><path d="M485.3293,382.5751 C495.3456,391.8821 523.4675,418.0114 531.5937,425.5636 " fill="none" id="FM_API_L-p7_L" style="stroke:#181818;stroke-width:0.41;"/></g><!--link pMD1_L to p2_L--><g id="link_pMD1_L_p2_L"><path d="M389.5,473.9395 C389.5,466.1372 389.5,438.577 389.5,430.6189 " fill="none" id="pMD1_L-p2_L" style="stroke:#181818;stroke-width:0.41;"/></g><!--link pMD2_L to p3_L--><g id="link_pMD2_L_p3_L"><path d="M355.88,473.9395 C355.88,466.1372 355.88,438.577 355.88,430.6189 " fill="none" id="pMD2_L-p3_L" style="stroke:#181818;stroke-width:0.41;"/></g><!--link pTM1_L to p4_L--><g id="link_pTM1_L_p4_L"><path d="M492.1927,473.9395 C485.1981,466.1372 460.4874,438.577 453.3534,430.6189 " fill="none" id="pTM1_L-p4_L" style="stroke:#181818;stroke-width:0.41;"/></g><!--link pTM2_L to p5_L--><g id="link_pTM2_L_p5_L"><path d="M458.5727,473.9395 C451.5781,466.1372 426.8674,438.577 419.7334,430.6189 " fill="none" id="pTM2_L-p5_L" style="stroke:#181818;stroke-width:0.41;"/></g><!--link pFM1_L to p6_L--><g id="link_pFM1_L_p6_L"><path d="M571.7532,473.9395 C571.0152,466.1372 568.3994,438.577 567.645,430.6189 " fill="none" id="pFM1_L-p6_L" style="stroke:#181818;stroke-width:0.41;"/></g><!--link pFM2_L to p7_L--><g id="link_pFM2_L_p7_L"><path d="M538.1332,473.9395 C537.3952,466.1372 534.7794,438.577 534.025,430.6189 " fill="none" id="pFM2_L-p7_L" style="stroke:#181818;stroke-width:0.41;"/></g><!--link pUM1_L to p8_L--><g id="link_pUM1_L_p8_L"><path d="M640.7234,473.8739 C641.2605,470.3315 642.5151,463.0499 644.52,457.15 C648.0255,446.8221 654.2042,435.3011 656.82,430.6107 " fill="none" id="pUM1_L-p8_L" style="stroke:#181818;stroke-width:0.41;"/></g><!--link pUM2_L to p9_L--><g id="link_pUM2_L_p9_L"><path d="M607.5667,473.9395 C610.4613,466.1372 620.6744,438.577 623.6264,430.6189 " fill="none" id="pUM2_L-p9_L" style="stroke:#181818;stroke-width:0.41;"/></g><!--link pMD3_L to pp1_L--><g id="link_pMD3_L_pp1_L"><path d="M397.2326,565.0907 C405.0267,572.0976 429.557,594.1515 437.2117,601.0354 " fill="none" id="pMD3_L-pp1_L" style="stroke:#181818;stroke-width:0.41;"/></g><!--link pTM3_L to pp2_L--><g id="link_pTM3_L_pp2_L"><path d="M468.8719,565.0907 C469.655,572.0648 472.1109,593.9465 472.8981,600.9411 " fill="none" id="pTM3_L-pp2_L" style="stroke:#181818;stroke-width:0.41;"/></g><!--link pFM3_L to pp3_L--><g id="link_pFM3_L_pp3_L"><path d="M528.4859,565.0907 C524.5007,572.0648 511.9957,593.9465 508.0023,600.9411 " fill="none" id="pFM3_L-pp3_L" style="stroke:#181818;stroke-width:0.41;"/></g><!--link UM_API_L to p8_L--><g id="link_UM_API_L_p8_L"><path d="M726.9218,381.7141 C714.0396,390.3036 671.3422,418.7699 660.5469,425.9654 " fill="none" id="UM_API_L-p8_L" style="stroke:#181818;stroke-width:0.41;"/></g><!--link UserM_L to p9_L--><g id="link_UserM_L_p9_L"><path d="M646.1928,382.5751 C641.6992,391.8821 629.0753,418.0114 625.4304,425.5636 " fill="none" id="UserM_L-p9_L" style="stroke:#181818;stroke-width:0.41;"/></g><!--link Host_F to Remote_F--><g id="link_Host_F_Remote_F"><path d="M392.78,221.1102 C392.78,221.4704 392.78,221.8318 392.78,222.1943 C392.78,223.6441 392.78,225.111 392.78,226.5893 C392.78,229.5458 392.78,232.5477 392.78,235.5496 C392.78,238.5515 392.78,241.5534 392.78,244.5098 C392.78,245.2489 392.78,245.9852 392.78,246.7179 C392.78,247.0842 392.78,247.4497 392.78,247.8142 C392.78,247.9964 392.78,248.1784 392.78,248.3602 C392.78,248.451 392.78,248.5418 392.78,248.6326 " fill="none" id="Host_F-Remote_F" style="stroke:#181818;stroke-width:0.41;"/><text fill="#000000" font-family="sans-serif" font-size="5.33" lengthAdjust="spacing" textLength="13.53" x="393.6" y="236.9916">http/s</text></g><!--link UI to CM_L--><g id="link_UI_CM_L"><path d="M434.5057,201.0845 C429.6267,210.3382 421.8818,221.646 411.23,227.14 C404.9037,230.4036 162.0771,229.8706 154.98,230.42 C117.7233,233.3064 106.9321,229.723 71.75,242.31 C37.8389,254.4419 2.46,248.3165 2.46,284.335 C2.46,284.335 2.46,284.335 2.46,476.83 C2.46,510.778 248.173,522.8402 340.7961,526.1776 " fill="none" id="UI-CM_L" style="stroke:#181818;stroke-width:0.41;stroke-dasharray:7.0,7.0;"/><text fill="#000000" font-family="sans-serif" font-size="5.33" lengthAdjust="spacing" textLength="20.09" x="3.28" y="381.1066">manifest</text></g><!--link UI to pTM1_L--><g id="link_UI_pTM1_L"><path d="M468.9375,187.5791 C546.5874,190.3548 761.5258,201.6216 817.13,242.31 C833.899,254.5813 837.63,263.5521 837.63,284.335 C837.63,284.335 837.63,284.335 837.63,428.45 C837.63,461.2377 799.8403,445.8955 767.52,451.41 C752.8543,453.911 511.6472,448.1669 499.79,457.15 C494.4969,461.1598 493.9311,469.9215 493.9639,473.9313 " fill="none" id="UI-pTM1_L" style="stroke:#181818;stroke-width:0.41;stroke-dasharray:7.0,7.0;"/><text fill="#000000" font-family="sans-serif" font-size="5.33" lengthAdjust="spacing" textLength="20.09" x="838.45" y="350.9716">manifest</text></g><!--link UI to pFM1_L--><g id="link_UI_pFM1_L"><path d="M468.9498,186.4844 C571.294,186.2466 917.17,192.2531 917.17,284.335 C917.17,284.335 917.17,284.335 917.17,428.45 C917.17,452.5785 891.4753,445.9529 867.97,451.41 C852.2588,455.059 590.5558,447.4207 577.69,457.15 C572.3928,461.1557 571.827,469.9215 571.8639,473.9313 " fill="none" id="UI-pFM1_L" style="stroke:#181818;stroke-width:0.41;stroke-dasharray:7.0,7.0;"/><text fill="#000000" font-family="sans-serif" font-size="5.33" lengthAdjust="spacing" textLength="20.09" x="917.99" y="350.9716">manifest</text></g><!--link UI to pUM1_L--><g id="link_UI_pUM1_L"><path d="M434.0301,201.023 C429.0322,210.0061 421.3324,221.0187 411.23,227.14 C402.8783,232.1994 399.1432,228.8661 389.5,230.42 C319.5007,241.7032 75.03,213.4337 75.03,284.335 C75.03,284.335 75.03,284.335 75.03,349.115 C75.03,369.369 74.6077,378.512 89.38,392.37 C164.8077,463.1319 212.0274,437.2076 314.47,451.41 C347.7333,456.0225 585.0372,445.8012 616.64,457.15 C626.2627,460.6063 634.9547,469.655 638.6037,473.837 " fill="none" id="UI-pUM1_L" style="stroke:#181818;stroke-width:0.41;stroke-dasharray:7.0,7.0;"/><text fill="#000000" font-family="sans-serif" font-size="5.33" lengthAdjust="spacing" textLength="20.09" x="75.85" y="350.9716">manifest</text></g><!--link CM to CM_L--><g id="link_CM_CM_L"><path d="M432.4147,299.3082 C425.088,305.532 415.6826,312.215 405.9,315.7 C387.0441,322.4199 45.92,311.6697 45.92,331.69 C45.92,331.69 45.92,331.69 45.92,476.83 C45.92,506.4279 256.2705,520.9214 340.9068,525.5503 " fill="none" id="CM-CM_L" style="stroke:#181818;stroke-width:0.41;stroke-dasharray:7.0,7.0;"/><text fill="#000000" font-family="sans-serif" font-size="5.33" lengthAdjust="spacing" textLength="20.09" x="46.74" y="411.2416">manifest</text></g><!--link TM to pTM1_L--><g id="link_TM_pTM1_L"><path d="M550.5193,299.341 C557.9854,305.4951 567.4892,312.1002 577.28,315.7 C599.9612,324.0353 794.17,307.5246 794.17,331.69 C794.17,331.69 794.17,331.69 794.17,428.45 C794.17,460.7211 757.0732,445.8381 725.29,451.41 C712.9449,453.5748 509.7653,449.5609 499.79,457.15 C494.5051,461.1721 493.9352,469.9297 493.968,473.9354 " fill="none" id="TM-pTM1_L" style="stroke:#181818;stroke-width:0.41;stroke-dasharray:7.0,7.0;"/><text fill="#000000" font-family="sans-serif" font-size="5.33" lengthAdjust="spacing" textLength="20.09" x="794.99" y="381.1066">manifest</text></g><!--link FM to pFM1_L--><g id="link_FM_pFM1_L"><path d="M635.2253,299.3615 C642.9456,305.6017 652.8102,312.2765 662.97,315.7 C685.2248,323.1989 873.71,308.2052 873.71,331.69 C873.71,331.69 873.71,331.69 873.71,428.45 C873.71,443.6733 862.4391,445.793 848.29,451.41 C834.3131,456.9573 589.6743,448.0726 577.69,457.15 C572.3969,461.1598 571.8311,469.9215 571.8639,473.9313 " fill="none" id="FM-pFM1_L" style="stroke:#181818;stroke-width:0.41;stroke-dasharray:7.0,7.0;"/><text fill="#000000" font-family="sans-serif" font-size="5.33" lengthAdjust="spacing" textLength="20.09" x="874.53" y="381.1066">manifest</text></g><!--link UM to pUM1_L--><g id="link_UM_pUM1_L"><path d="M719.7632,299.3574 C727.3236,305.5935 737.0037,312.2683 747.02,315.7 C768.7623,323.1497 953.25,308.7054 953.25,331.69 C953.25,331.69 953.25,331.69 953.25,428.45 C953.25,443.6733 941.9832,445.8012 927.83,451.41 C913.1971,457.2115 656.6765,447.146 644.52,457.15 C639.5016,461.2787 639.7353,469.983 640.1412,473.9559 " fill="none" id="UM-pUM1_L" style="stroke:#181818;stroke-width:0.41;stroke-dasharray:7.0,7.0;"/><text fill="#000000" font-family="sans-serif" font-size="5.33" lengthAdjust="spacing" textLength="20.09" x="954.07" y="381.1066">manifest</text></g><!--link Planning to Planning_L--><g id="link_Planning_Planning_L"><path d="M810.4552,287.615 C874.5628,293.5846 1025.82,309.9805 1025.82,331.69 C1025.82,331.69 1025.82,331.69 1025.82,603.93 C1025.82,617.2489 921.0937,625.742 803.3279,631.0822 C744.4449,633.7524 682.3021,635.6343 628.3603,636.937 C601.3894,637.5884 576.4687,638.095 555.0309,638.483 C544.3119,638.677 534.4637,638.8413 525.6653,638.9792 C523.4657,639.0137 521.3317,639.0465 519.2661,639.0778 C518.2333,639.0934 517.2177,639.1086 516.2194,639.1234 C515.7203,639.1309 515.2255,639.1382 514.7352,639.1454 " fill="none" id="Planning-Planning_L" style="stroke:#181818;stroke-width:0.41;stroke-dasharray:7.0,7.0;"/><text fill="#000000" font-family="sans-serif" font-size="5.33" lengthAdjust="spacing" textLength="20.09" x="1026.64" y="449.3716">manifest</text></g><!--link RobDroneGo_I to RobDroneGo_L--><!--SRC=[ZLPRRvim57xthx3OInU9RUsoBesYL6iYjaYrLBNmL5MH4vm45J02PrDKvR_FDkPcOe3a0SvtBf-Fppds8V09t0RfDYJW8Dv9bB0JZ4Yq8Ma6GFOUn0bESGGJxFj1l8VNe2uDOaRI7TuI-04WVpPu-xvFwJ7s5pIaAVpqROVnRWVETQCjZH8QavZr6mcuYh4BGfATCaQYzQ-drVeHuWnQer4bXbmy6bcwtG8rz1SuIeuPZ72CzoGIF9HPqyffMZaX8QpNoCNPUyDC27gjl6OeBoFf1PlMikGwaBukL1bw1eQeIQ_7GguSQOdeiH5BGCq5jIn0LGYlptIpJFdxRxf-V8EpMGdDvxDPlhbNY_7d-LnwhBIjl8GIcZ9wPD3YFwwGNFFGHHaLU0dUT87Vky1n5_YZ2xpj0dzsWPCkyAu6IhIMKbxrUYfbybfbedBOSewMUXelgDmOLEgxWPPwLiyjjew1hLvj9h8EwYNhe25a7THFrZMGrRh9nDNjv-eEukeEuEePk6ezQUBgzNFrMbpFe4NZASHnp0-GosGArCGYwIMHtFHgNCWL_qlNjdtLEbr0DLzjMquDK1uaGi3TWMAOYk-n-gwfy940okaf1BT2K7V2MvzJo3kjYAAwgeW1LBqKCLHj5Fw1Alt2lIhpohbNmXC1UoLy9-5y_KTRjId8Coa5ihn0dZWfaBt1RIPAK9nRG0uYASddVkEI45EV64xwCDWVs2Oy4iCDmQ4nUs6da3HBPaD37m3X5reXtUBmG3CslR-N6_s7lwyTURUewizwIEa_pirg5z_3XrQhtkfIkwp44NSMF6NSPn9HHdWSUHx93_X2qhyYXEvmWGQDOStAGKF6eMPKD59NZsacBXemoVGKeG4JHUIAFse_RDykapQ51yQIh_o22TGnPH-_sBmcUUgdukOJx4Z6oiA_Y3aTc6V6j81yQum1NMGEwA2EW0siCVcKHhbB3MArEz2Ag_gl_4Rka_ZDBXxzcbIt_Wy0]--></g></svg>