<?xml version="1.0" encoding="us-ascii" standalone="no"?><svg xmlns="http://www.w3.org/2000/svg" xmlns:xlink="http://www.w3.org/1999/xlink" contentStyleType="text/css" height="465px" preserveAspectRatio="none" style="width:638px;height:465px;background:#FFFFFF;" version="1.1" viewBox="0 0 638 465" width="638px" zoomAndPan="magnify"><defs/><g><rect fill="#FFFFFF" height="256.7461" style="stroke:#181818;stroke-width:1.0;" width="10" x="285" y="116.9121"/><rect fill="#FFFFFF" height="160.1641" style="stroke:#181818;stroke-width:1.0;" width="10" x="476" y="148.2031"/><line style="stroke:#181818;stroke-width:0.5;stroke-dasharray:5.0,5.0;" x1="62" x2="62" y1="83.6211" y2="382.6582"/><line style="stroke:#181818;stroke-width:0.5;stroke-dasharray:5.0,5.0;" x1="290" x2="290" y1="83.6211" y2="382.6582"/><line style="stroke:#181818;stroke-width:0.5;stroke-dasharray:5.0,5.0;" x1="480.5" x2="480.5" y1="83.6211" y2="382.6582"/><text fill="#000000" font-family="sans-serif" font-size="14" lengthAdjust="spacing" textLength="108" x="5" y="80.1074">CampusManager</text><ellipse cx="62" cy="13.5" fill="#E2E2F0" rx="8" ry="8" style="stroke:#181818;stroke-width:0.5;"/><path d="M62,21.5 L62,48.5 M49,29.5 L75,29.5 M62,48.5 L49,63.5 M62,48.5 L75,63.5 " fill="none" style="stroke:#181818;stroke-width:0.5;"/><text fill="#000000" font-family="sans-serif" font-size="14" lengthAdjust="spacing" textLength="108" x="5" y="396.7656">CampusManager</text><ellipse cx="62" cy="408.7793" fill="#E2E2F0" rx="8" ry="8" style="stroke:#181818;stroke-width:0.5;"/><path d="M62,416.7793 L62,443.7793 M49,424.7793 L75,424.7793 M62,443.7793 L49,458.7793 M62,443.7793 L75,458.7793 " fill="none" style="stroke:#181818;stroke-width:0.5;"/><rect fill="#E2E2F0" height="32.6211" rx="2.5" ry="2.5" style="stroke:#181818;stroke-width:0.5;" width="26" x="277" y="50"/><text fill="#000000" font-family="sans-serif" font-size="14" lengthAdjust="spacing" textLength="12" x="284" y="72.1074">UI</text><rect fill="#E2E2F0" height="32.6211" rx="2.5" ry="2.5" style="stroke:#181818;stroke-width:0.5;" width="26" x="277" y="381.6582"/><text fill="#000000" font-family="sans-serif" font-size="14" lengthAdjust="spacing" textLength="12" x="284" y="403.7656">UI</text><rect fill="#E2E2F0" height="32.6211" rx="2.5" ry="2.5" style="stroke:#181818;stroke-width:0.5;" width="35" x="463.5" y="50"/><text fill="#000000" font-family="sans-serif" font-size="14" lengthAdjust="spacing" textLength="21" x="470.5" y="72.1074">MD</text><rect fill="#E2E2F0" height="32.6211" rx="2.5" ry="2.5" style="stroke:#181818;stroke-width:0.5;" width="35" x="463.5" y="381.6582"/><text fill="#000000" font-family="sans-serif" font-size="14" lengthAdjust="spacing" textLength="21" x="470.5" y="403.7656">MD</text><rect fill="#FFFFFF" height="256.7461" style="stroke:#181818;stroke-width:1.0;" width="10" x="285" y="116.9121"/><rect fill="#FFFFFF" height="160.1641" style="stroke:#181818;stroke-width:1.0;" width="10" x="476" y="148.2031"/><polygon fill="#181818" points="273,112.9121,283,116.9121,273,120.9121,277,116.9121" style="stroke:#181818;stroke-width:1.0;"/><line style="stroke:#181818;stroke-width:1.0;" x1="62" x2="279" y1="116.9121" y2="116.9121"/><text fill="#000000" font-family="sans-serif" font-size="13" font-weight="bold" lengthAdjust="spacing" textLength="7" x="69" y="111.6494">1</text><text fill="#000000" font-family="sans-serif" font-size="13" lengthAdjust="spacing" textLength="193" x="80" y="111.6494">requests list floors with passages</text><polygon fill="#181818" points="464,144.2031,474,148.2031,464,152.2031,468,148.2031" style="stroke:#181818;stroke-width:1.0;"/><line style="stroke:#181818;stroke-width:1.0;" x1="295" x2="470" y1="148.2031" y2="148.2031"/><text fill="#000000" font-family="sans-serif" font-size="13" font-weight="bold" lengthAdjust="spacing" textLength="7" x="302" y="142.9404">2</text><text fill="#000000" font-family="sans-serif" font-size="13" lengthAdjust="spacing" textLength="151" x="313" y="142.9404">post('/api/passage/create')</text><line style="stroke:#181818;stroke-width:1.0;" x1="486" x2="528" y1="239.0762" y2="239.0762"/><line style="stroke:#181818;stroke-width:1.0;" x1="528" x2="528" y1="239.0762" y2="252.0762"/><line style="stroke:#181818;stroke-width:1.0;" x1="487" x2="528" y1="252.0762" y2="252.0762"/><polygon fill="#181818" points="497,248.0762,487,252.0762,497,256.0762,493,252.0762" style="stroke:#181818;stroke-width:1.0;"/><text fill="#000000" font-family="sans-serif" font-size="13" font-weight="bold" lengthAdjust="spacing" textLength="7" x="493" y="216.5225">3</text><text fill="#000000" font-family="sans-serif" font-size="13" lengthAdjust="spacing" textLength="123" x="504" y="199.2314">creates passage with</text><text fill="#000000" font-family="sans-serif" font-size="13" lengthAdjust="spacing" textLength="98" x="508" y="216.5225">input data, saves</text><text fill="#000000" font-family="sans-serif" font-size="13" lengthAdjust="spacing" textLength="76" x="508" y="233.8135">and returns it</text><polygon fill="#181818" points="306,304.3672,296,308.3672,306,312.3672,302,308.3672" style="stroke:#181818;stroke-width:1.0;"/><line style="stroke:#181818;stroke-width:1.0;" x1="300" x2="480" y1="308.3672" y2="308.3672"/><text fill="#000000" font-family="sans-serif" font-size="13" font-weight="bold" lengthAdjust="spacing" textLength="7" x="312" y="303.1045">4</text><text fill="#000000" font-family="sans-serif" font-size="13" lengthAdjust="spacing" textLength="93" x="323" y="303.1045">response status</text><polygon fill="#181818" points="73,360.6582,63,364.6582,73,368.6582,69,364.6582" style="stroke:#181818;stroke-width:1.0;"/><line style="stroke:#181818;stroke-width:1.0;" x1="67" x2="284" y1="364.6582" y2="364.6582"/><text fill="#000000" font-family="sans-serif" font-size="13" font-weight="bold" lengthAdjust="spacing" textLength="7" x="79" y="359.3955">5</text><text fill="#000000" font-family="sans-serif" font-size="13" lengthAdjust="spacing" textLength="106" x="90" y="359.3955">operation success</text><!--SRC=[NOwnRW8n44Jx_Ohj25AYwodIa8Q2vgJhqYo-9La9REDPa-O-FhuS295szDxCIFKKw_cWXKY2fy9REUUAlKJvqi827YXBSGkM9JeFkxziznJkFtXEUwA1tzvdPiD5BrNXu9F1-NXAgO1_pByv2z3ACG_QLLpdkkOqiszYJl2NLIVPkXlPXQ8DMwtfeVGqJHFrTsaXSEzUXZuZMypLUHINLuPS6z52YMExvxL4iFcZwFOREKKemyKhQDH_cylJeQ4fQn6t51ar10M8VW40]--></g></svg>