<?xml version="1.0" encoding="us-ascii" standalone="no"?><svg xmlns="http://www.w3.org/2000/svg" xmlns:xlink="http://www.w3.org/1999/xlink" contentStyleType="text/css" height="423px" preserveAspectRatio="none" style="width:495px;height:423px;background:#FFFFFF;" version="1.1" viewBox="0 0 495 423" width="495px" zoomAndPan="magnify"><defs/><g><rect fill="#FFFFFF" height="214.4551" style="stroke:#181818;stroke-width:1.0;" width="10" x="207" y="116.9121"/><rect fill="#FFFFFF" height="174.1641" style="stroke:#181818;stroke-width:1.0;" width="10" x="352" y="148.2031"/><line style="stroke:#181818;stroke-width:0.5;stroke-dasharray:5.0,5.0;" x1="52" x2="52" y1="83.6211" y2="340.3672"/><line style="stroke:#181818;stroke-width:0.5;stroke-dasharray:5.0,5.0;" x1="212" x2="212" y1="83.6211" y2="340.3672"/><line style="stroke:#181818;stroke-width:0.5;stroke-dasharray:5.0,5.0;" x1="356.5" x2="356.5" y1="83.6211" y2="340.3672"/><text fill="#000000" font-family="sans-serif" font-size="14" lengthAdjust="spacing" textLength="88" x="5" y="80.1074">FleetManager</text><ellipse cx="52" cy="13.5" fill="#E2E2F0" rx="8" ry="8" style="stroke:#181818;stroke-width:0.5;"/><path d="M52,21.5 L52,48.5 M39,29.5 L65,29.5 M52,48.5 L39,63.5 M52,48.5 L65,63.5 " fill="none" style="stroke:#181818;stroke-width:0.5;"/><text fill="#000000" font-family="sans-serif" font-size="14" lengthAdjust="spacing" textLength="88" x="5" y="354.4746">FleetManager</text><ellipse cx="52" cy="366.4883" fill="#E2E2F0" rx="8" ry="8" style="stroke:#181818;stroke-width:0.5;"/><path d="M52,374.4883 L52,401.4883 M39,382.4883 L65,382.4883 M52,401.4883 L39,416.4883 M52,401.4883 L65,416.4883 " fill="none" style="stroke:#181818;stroke-width:0.5;"/><rect fill="#E2E2F0" height="32.6211" rx="2.5" ry="2.5" style="stroke:#181818;stroke-width:0.5;" width="26" x="199" y="50"/><text fill="#000000" font-family="sans-serif" font-size="14" lengthAdjust="spacing" textLength="12" x="206" y="72.1074">UI</text><rect fill="#E2E2F0" height="32.6211" rx="2.5" ry="2.5" style="stroke:#181818;stroke-width:0.5;" width="26" x="199" y="339.3672"/><text fill="#000000" font-family="sans-serif" font-size="14" lengthAdjust="spacing" textLength="12" x="206" y="361.4746">UI</text><rect fill="#E2E2F0" height="32.6211" rx="2.5" ry="2.5" style="stroke:#181818;stroke-width:0.5;" width="35" x="339.5" y="50"/><text fill="#000000" font-family="sans-serif" font-size="14" lengthAdjust="spacing" textLength="21" x="346.5" y="72.1074">MD</text><rect fill="#E2E2F0" height="32.6211" rx="2.5" ry="2.5" style="stroke:#181818;stroke-width:0.5;" width="35" x="339.5" y="339.3672"/><text fill="#000000" font-family="sans-serif" font-size="14" lengthAdjust="spacing" textLength="21" x="346.5" y="361.4746">MD</text><rect fill="#FFFFFF" height="214.4551" style="stroke:#181818;stroke-width:1.0;" width="10" x="207" y="116.9121"/><rect fill="#FFFFFF" height="174.1641" style="stroke:#181818;stroke-width:1.0;" width="10" x="352" y="148.2031"/><polygon fill="#181818" points="195,112.9121,205,116.9121,195,120.9121,199,116.9121" style="stroke:#181818;stroke-width:1.0;"/><line style="stroke:#181818;stroke-width:1.0;" x1="52" x2="201" y1="116.9121" y2="116.9121"/><text fill="#000000" font-family="sans-serif" font-size="13" font-weight="bold" lengthAdjust="spacing" textLength="7" x="59" y="111.6494">1</text><text fill="#000000" font-family="sans-serif" font-size="13" lengthAdjust="spacing" textLength="125" x="70" y="111.6494">requests list of robots</text><polygon fill="#181818" points="340,144.2031,350,148.2031,340,152.2031,344,148.2031" style="stroke:#181818;stroke-width:1.0;"/><line style="stroke:#181818;stroke-width:1.0;" x1="217" x2="346" y1="148.2031" y2="148.2031"/><text fill="#000000" font-family="sans-serif" font-size="13" font-weight="bold" lengthAdjust="spacing" textLength="7" x="224" y="142.9404">2</text><text fill="#000000" font-family="sans-serif" font-size="13" lengthAdjust="spacing" textLength="105" x="235" y="142.9404">get('/api/robot/list')</text><line style="stroke:#181818;stroke-width:1.0;" x1="362" x2="404" y1="221.7852" y2="221.7852"/><line style="stroke:#181818;stroke-width:1.0;" x1="404" x2="404" y1="221.7852" y2="234.7852"/><line style="stroke:#181818;stroke-width:1.0;" x1="363" x2="404" y1="234.7852" y2="234.7852"/><polygon fill="#181818" points="373,230.7852,363,234.7852,373,238.7852,369,234.7852" style="stroke:#181818;stroke-width:1.0;"/><text fill="#000000" font-family="sans-serif" font-size="13" font-weight="bold" lengthAdjust="spacing" textLength="7" x="369" y="207.877">3</text><text fill="#000000" font-family="sans-serif" font-size="13" lengthAdjust="spacing" textLength="104" x="380" y="199.2314">gets list of robots,</text><text fill="#000000" font-family="sans-serif" font-size="13" lengthAdjust="spacing" textLength="76" x="384" y="216.5225">and returns it</text><polygon fill="#181818" points="228,287.0762,218,291.0762,228,295.0762,224,291.0762" style="stroke:#181818;stroke-width:1.0;"/><line style="stroke:#181818;stroke-width:1.0;" x1="222" x2="351" y1="291.0762" y2="291.0762"/><text fill="#000000" font-family="sans-serif" font-size="13" font-weight="bold" lengthAdjust="spacing" textLength="7" x="234" y="285.8135">4</text><text fill="#000000" font-family="sans-serif" font-size="13" lengthAdjust="spacing" textLength="93" x="245" y="285.8135">response status</text><polygon fill="#181818" points="63,318.3672,53,322.3672,63,326.3672,59,322.3672" style="stroke:#181818;stroke-width:1.0;"/><line style="stroke:#181818;stroke-width:1.0;" x1="57" x2="206" y1="322.3672" y2="322.3672"/><text fill="#000000" font-family="sans-serif" font-size="13" font-weight="bold" lengthAdjust="spacing" textLength="7" x="69" y="317.1045">5</text><text fill="#000000" font-family="sans-serif" font-size="13" lengthAdjust="spacing" textLength="112" x="80" y="317.1045">shows list of robots</text><!--SRC=[POwx3i8m34NtV8MtWWHaPs12I0miaRgnkAqfaTean0ui_NYI2edNPbqVt-FgAX9ugtKOq4aQXqthHyrqI-HQMdSM-uYZKfZ4kpGs5FFSYezm68ZaX0vxYe0CjGeOnROsv2AeZtDs_0fFUoYfKQg6zQumMuX5nS8mM1Rm5uY-yS95OkyeL3eoc76JwPvaKMaCLi-OBaVLKhrfewPfKkQ3_srUmTa1kYwR9KN7OELzytg9WtTCm8AI-AMlyuQl_l7tQKSVzYS0]--></g></svg>