<?xml version="1.0" encoding="us-ascii" standalone="no"?><svg xmlns="http://www.w3.org/2000/svg" xmlns:xlink="http://www.w3.org/1999/xlink" contentStyleType="text/css" height="1066.2px" preserveAspectRatio="none" style="width:1062px;height:1066px;background:#FFFFFF;" version="1.1" viewBox="0 0 1062 1066" width="1062px" zoomAndPan="magnify"><defs/><g><!--cluster RobDroneGo_L--><g id="cluster_RobDroneGo_L"><rect fill="#0FAAFF" height="345" rx="1.5" ry="1.5" style="stroke:#181818;stroke-width:0.6;" width="469.2" x="201" y="717.6"/><rect fill="#0FAAFF" height="6" style="stroke:#181818;stroke-width:0.6;" width="9" x="658.2" y="720.6"/><rect fill="#0FAAFF" height="1.2" style="stroke:#181818;stroke-width:0.6;" width="2.4" x="657" y="721.8"/><rect fill="#0FAAFF" height="1.2" style="stroke:#181818;stroke-width:0.6;" width="2.4" x="657" y="724.2"/><text fill="#000000" font-family="sans-serif" font-size="8.4" font-style="italic" lengthAdjust="spacing" textLength="51.6" x="409.8" y="735.0645">&#171;component&#187;</text><text fill="#000000" font-family="sans-serif" font-size="8.4" font-style="italic" lengthAdjust="spacing" textLength="52.8" x="409.2" y="746.2371">&#171;system(C4)&#187;</text><text fill="#000000" font-family="sans-serif" font-size="8.4" font-weight="bold" lengthAdjust="spacing" textLength="54.6" x="408.3" y="758.6098">RobDroneGo</text></g><!--cluster CM--><g id="cluster_CM"><rect fill="#0FAAFF" height="126" rx="1.5" ry="1.5" style="stroke:#181818;stroke-width:0.6;" width="97.8" x="553.5" y="776.4"/><rect fill="#0FAAFF" height="6" style="stroke:#181818;stroke-width:0.6;" width="9" x="639.3" y="779.4"/><rect fill="#0FAAFF" height="1.2" style="stroke:#181818;stroke-width:0.6;" width="2.4" x="638.1" y="780.6"/><rect fill="#0FAAFF" height="1.2" style="stroke:#181818;stroke-width:0.6;" width="2.4" x="638.1" y="783"/><text fill="#000000" font-family="sans-serif" font-size="8.4" font-style="italic" lengthAdjust="spacing" textLength="51.6" x="576.6" y="793.8645">&#171;component&#187;</text><text fill="#000000" font-family="sans-serif" font-size="8.4" font-weight="bold" lengthAdjust="spacing" textLength="90.6" x="557.1" y="806.2371">Campus Management</text></g><!--cluster FM--><g id="cluster_FM"><rect fill="#0FAAFF" height="126" rx="1.5" ry="1.5" style="stroke:#181818;stroke-width:0.6;" width="85.8" x="295.5" y="776.4"/><rect fill="#0FAAFF" height="6" style="stroke:#181818;stroke-width:0.6;" width="9" x="369.3" y="779.4"/><rect fill="#0FAAFF" height="1.2" style="stroke:#181818;stroke-width:0.6;" width="2.4" x="368.1" y="780.6"/><rect fill="#0FAAFF" height="1.2" style="stroke:#181818;stroke-width:0.6;" width="2.4" x="368.1" y="783"/><text fill="#000000" font-family="sans-serif" font-size="8.4" font-style="italic" lengthAdjust="spacing" textLength="51.6" x="312.6" y="793.8645">&#171;component&#187;</text><text fill="#000000" font-family="sans-serif" font-size="8.4" font-weight="bold" lengthAdjust="spacing" textLength="78.6" x="299.1" y="806.2371">Fleet Management</text></g><!--cluster TM--><g id="cluster_TM"><rect fill="#0FAAFF" height="126" rx="1.5" ry="1.5" style="stroke:#181818;stroke-width:0.6;" width="83.4" x="435.9" y="776.4"/><rect fill="#0FAAFF" height="6" style="stroke:#181818;stroke-width:0.6;" width="9" x="507.3" y="779.4"/><rect fill="#0FAAFF" height="1.2" style="stroke:#181818;stroke-width:0.6;" width="2.4" x="506.1" y="780.6"/><rect fill="#0FAAFF" height="1.2" style="stroke:#181818;stroke-width:0.6;" width="2.4" x="506.1" y="783"/><text fill="#000000" font-family="sans-serif" font-size="8.4" font-style="italic" lengthAdjust="spacing" textLength="51.6" x="451.8" y="793.8645">&#171;component&#187;</text><text fill="#000000" font-family="sans-serif" font-size="8.4" font-weight="bold" lengthAdjust="spacing" textLength="76.2" x="439.5" y="806.2371">Task Management</text></g><!--cluster Planning_L--><g id="cluster_Planning_L"><rect fill="#0FAAFF" height="81" rx="1.5" ry="1.5" style="stroke:#181818;stroke-width:0.6;" width="120" x="414.6" y="962.4"/><rect fill="#0FAAFF" height="6" style="stroke:#181818;stroke-width:0.6;" width="9" x="522.6" y="965.4"/><rect fill="#0FAAFF" height="1.2" style="stroke:#181818;stroke-width:0.6;" width="2.4" x="521.4" y="966.6"/><rect fill="#0FAAFF" height="1.2" style="stroke:#181818;stroke-width:0.6;" width="2.4" x="521.4" y="969"/><text fill="#000000" font-family="sans-serif" font-size="8.4" font-style="italic" lengthAdjust="spacing" textLength="51.6" x="448.8" y="979.8645">&#171;component&#187;</text><text fill="#000000" font-family="sans-serif" font-size="8.4" font-weight="bold" lengthAdjust="spacing" textLength="36.6" x="456.3" y="992.2371">Planning</text></g><!--cluster RobDroneGo_I--><g id="cluster_RobDroneGo_I"><rect fill="#0FAAFF" height="449.4" rx="1.5" ry="1.5" style="stroke:#181818;stroke-width:0.6;" width="385.8" x="413.4" y="68.4"/><rect fill="#0FAAFF" height="6" style="stroke:#181818;stroke-width:0.6;" width="9" x="787.2" y="71.4"/><rect fill="#0FAAFF" height="1.2" style="stroke:#181818;stroke-width:0.6;" width="2.4" x="786" y="72.6"/><rect fill="#0FAAFF" height="1.2" style="stroke:#181818;stroke-width:0.6;" width="2.4" x="786" y="75"/><text fill="#000000" font-family="sans-serif" font-size="8.4" font-style="italic" lengthAdjust="spacing" textLength="51.6" x="580.5" y="85.8645">&#171;component&#187;</text><text fill="#000000" font-family="sans-serif" font-size="8.4" font-style="italic" lengthAdjust="spacing" textLength="52.8" x="579.9" y="97.0371">&#171;system(C4)&#187;</text><text fill="#000000" font-family="sans-serif" font-size="8.4" font-weight="bold" lengthAdjust="spacing" textLength="54.6" x="579" y="109.4098">RobDroneGo</text></g><!--cluster MD_I--><g id="cluster_MD_I"><rect fill="#0FAAFF" height="99" rx="1.5" ry="1.5" style="stroke:#181818;stroke-width:0.6;" width="169.2" x="456.6" y="391.2"/><rect fill="#0FAAFF" height="6" style="stroke:#181818;stroke-width:0.6;" width="9" x="613.8" y="394.2"/><rect fill="#0FAAFF" height="1.2" style="stroke:#181818;stroke-width:0.6;" width="2.4" x="612.6" y="395.4"/><rect fill="#0FAAFF" height="1.2" style="stroke:#181818;stroke-width:0.6;" width="2.4" x="612.6" y="397.8"/><text fill="#000000" font-family="sans-serif" font-size="8.4" font-style="italic" lengthAdjust="spacing" textLength="51.6" x="515.4" y="408.6645">&#171;component&#187;</text><text fill="#000000" font-family="sans-serif" font-size="8.4" font-style="italic" lengthAdjust="spacing" textLength="61.8" x="510.3" y="419.8371">&#171;container(C4)&#187;</text><text fill="#000000" font-family="sans-serif" font-size="8.4" font-weight="bold" lengthAdjust="spacing" textLength="72.6" x="504.9" y="432.2098">Master Data (MD)</text></g><!--cluster FE_L--><g id="cluster_FE_L"><rect fill="#0FAAFF" height="112.8" rx="1.5" ry="1.5" style="stroke:#181818;stroke-width:0.6;" width="99" x="457.8" y="246.6"/><rect fill="#0FAAFF" height="6" style="stroke:#181818;stroke-width:0.6;" width="9" x="544.8" y="249.6"/><rect fill="#0FAAFF" height="1.2" style="stroke:#181818;stroke-width:0.6;" width="2.4" x="543.6" y="250.8"/><rect fill="#0FAAFF" height="1.2" style="stroke:#181818;stroke-width:0.6;" width="2.4" x="543.6" y="253.2"/><text fill="#000000" font-family="sans-serif" font-size="8.4" font-style="italic" lengthAdjust="spacing" textLength="51.6" x="481.5" y="264.0645">&#171;component&#187;</text><text fill="#000000" font-family="sans-serif" font-size="8.4" font-style="italic" lengthAdjust="spacing" textLength="61.8" x="476.4" y="275.2371">&#171;container(C4)&#187;</text><text fill="#000000" font-family="sans-serif" font-size="8.4" font-weight="bold" lengthAdjust="spacing" textLength="55.8" x="479.4" y="287.6098">Frontend (UI)</text></g><!--cluster Planning_I--><g id="cluster_Planning_I"><rect fill="#0FAAFF" height="113.4" rx="1.5" ry="1.5" style="stroke:#181818;stroke-width:0.6;" width="80.4" x="625.2" y="166.2"/><rect fill="#0FAAFF" height="6" style="stroke:#181818;stroke-width:0.6;" width="9" x="693.6" y="169.2"/><rect fill="#0FAAFF" height="1.2" style="stroke:#181818;stroke-width:0.6;" width="2.4" x="692.4" y="170.4"/><rect fill="#0FAAFF" height="1.2" style="stroke:#181818;stroke-width:0.6;" width="2.4" x="692.4" y="172.8"/><text fill="#000000" font-family="sans-serif" font-size="8.4" font-style="italic" lengthAdjust="spacing" textLength="51.6" x="639.6" y="183.6645">&#171;component&#187;</text><text fill="#000000" font-family="sans-serif" font-size="8.4" font-style="italic" lengthAdjust="spacing" textLength="52.8" x="639" y="194.8371">&#171;system(C4)&#187;</text><text fill="#000000" font-family="sans-serif" font-size="8.4" font-weight="bold" lengthAdjust="spacing" textLength="36.6" x="647.1" y="207.2098">Planning</text></g><text fill="#000000" font-family="sans-serif" font-size="8.4" lengthAdjust="spacing" textLength="2.4" x="199.8" y="803.0918">&#160;</text><rect fill="#0FAAFF" height="7.2" style="stroke:#181818;stroke-width:0.8999999999999999;" width="7.2" x="197.4" y="813"/><text fill="#000000" font-family="sans-serif" font-size="8.4" lengthAdjust="spacing" textLength="2.4" x="637.8" y="704.0918">&#160;</text><rect fill="#0FAAFF" height="7.2" style="stroke:#181818;stroke-width:0.8999999999999999;" width="7.2" x="635.4" y="714"/><text fill="#000000" font-family="sans-serif" font-size="8.4" lengthAdjust="spacing" textLength="2.4" x="588.6" y="704.0918">&#160;</text><rect fill="#0FAAFF" height="7.2" style="stroke:#181818;stroke-width:0.8999999999999999;" width="7.2" x="586.2" y="714"/><text fill="#000000" font-family="sans-serif" font-size="8.4" lengthAdjust="spacing" textLength="2.4" x="526.8" y="704.0918">&#160;</text><rect fill="#0FAAFF" height="7.2" style="stroke:#181818;stroke-width:0.8999999999999999;" width="7.2" x="524.4" y="714"/><text fill="#000000" font-family="sans-serif" font-size="8.4" lengthAdjust="spacing" textLength="2.4" x="425.4" y="704.0918">&#160;</text><rect fill="#0FAAFF" height="7.2" style="stroke:#181818;stroke-width:0.8999999999999999;" width="7.2" x="423" y="714"/><text fill="#000000" font-family="sans-serif" font-size="8.4" lengthAdjust="spacing" textLength="2.4" x="331.8" y="704.0918">&#160;</text><rect fill="#0FAAFF" height="7.2" style="stroke:#181818;stroke-width:0.8999999999999999;" width="7.2" x="329.4" y="714"/><text fill="#000000" font-family="sans-serif" font-size="8.4" lengthAdjust="spacing" textLength="2.4" x="272.4" y="704.0918">&#160;</text><rect fill="#0FAAFF" height="7.2" style="stroke:#181818;stroke-width:0.8999999999999999;" width="7.2" x="270" y="714"/><text fill="#000000" font-family="sans-serif" font-size="8.4" lengthAdjust="spacing" textLength="2.4" x="637.8" y="762.8918">&#160;</text><rect fill="#0FAAFF" height="7.2" style="stroke:#181818;stroke-width:0.8999999999999999;" width="7.2" x="635.4" y="772.8"/><text fill="#000000" font-family="sans-serif" font-size="8.4" lengthAdjust="spacing" textLength="2.4" x="588.6" y="762.8918">&#160;</text><rect fill="#0FAAFF" height="7.2" style="stroke:#181818;stroke-width:0.8999999999999999;" width="7.2" x="586.2" y="772.8"/><text fill="#000000" font-family="sans-serif" font-size="8.4" lengthAdjust="spacing" textLength="2.4" x="564.6" y="915.6645">&#160;</text><rect fill="#0FAAFF" height="7.2" style="stroke:#181818;stroke-width:0.8999999999999999;" width="7.2" x="562.2" y="898.8"/><text fill="#000000" font-family="sans-serif" font-size="8.4" lengthAdjust="spacing" textLength="2.4" x="357.6" y="762.8918">&#160;</text><rect fill="#0FAAFF" height="7.2" style="stroke:#181818;stroke-width:0.8999999999999999;" width="7.2" x="355.2" y="772.8"/><text fill="#000000" font-family="sans-serif" font-size="8.4" lengthAdjust="spacing" textLength="2.4" x="308.4" y="762.8918">&#160;</text><rect fill="#0FAAFF" height="7.2" style="stroke:#181818;stroke-width:0.8999999999999999;" width="7.2" x="306" y="772.8"/><text fill="#000000" font-family="sans-serif" font-size="8.4" lengthAdjust="spacing" textLength="2.4" x="366" y="915.6645">&#160;</text><rect fill="#0FAAFF" height="7.2" style="stroke:#181818;stroke-width:0.8999999999999999;" width="7.2" x="363.6" y="898.8"/><text fill="#000000" font-family="sans-serif" font-size="8.4" lengthAdjust="spacing" textLength="2.4" x="501" y="762.8918">&#160;</text><rect fill="#0FAAFF" height="7.2" style="stroke:#181818;stroke-width:0.8999999999999999;" width="7.2" x="498.6" y="772.8"/><text fill="#000000" font-family="sans-serif" font-size="8.4" lengthAdjust="spacing" textLength="2.4" x="451.8" y="762.8918">&#160;</text><rect fill="#0FAAFF" height="7.2" style="stroke:#181818;stroke-width:0.8999999999999999;" width="7.2" x="449.4" y="772.8"/><text fill="#000000" font-family="sans-serif" font-size="8.4" lengthAdjust="spacing" textLength="2.4" x="465.6" y="915.6645">&#160;</text><rect fill="#0FAAFF" height="7.2" style="stroke:#181818;stroke-width:0.8999999999999999;" width="7.2" x="463.2" y="898.8"/><text fill="#000000" font-family="sans-serif" font-size="8.4" lengthAdjust="spacing" textLength="2.4" x="522.6" y="948.8918">&#160;</text><rect fill="#0FAAFF" height="7.2" style="stroke:#181818;stroke-width:0.8999999999999999;" width="7.2" x="520.2" y="958.8"/><text fill="#000000" font-family="sans-serif" font-size="8.4" lengthAdjust="spacing" textLength="2.4" x="473.4" y="948.8918">&#160;</text><rect fill="#0FAAFF" height="7.2" style="stroke:#181818;stroke-width:0.8999999999999999;" width="7.2" x="471" y="958.8"/><text fill="#000000" font-family="sans-serif" font-size="8.4" lengthAdjust="spacing" textLength="2.4" x="424.2" y="948.8918">&#160;</text><rect fill="#0FAAFF" height="7.2" style="stroke:#181818;stroke-width:0.8999999999999999;" width="7.2" x="421.8" y="958.8"/><text fill="#000000" font-family="sans-serif" font-size="8.4" lengthAdjust="spacing" textLength="2.4" x="798" y="192.8918">&#160;</text><rect fill="#0FAAFF" height="7.2" style="stroke:#181818;stroke-width:0.8999999999999999;" width="7.2" x="795.6" y="202.8"/><text fill="#000000" font-family="sans-serif" font-size="8.4" lengthAdjust="spacing" textLength="2.4" x="528.6" y="54.8918">&#160;</text><rect fill="#0FAAFF" height="7.2" style="stroke:#181818;stroke-width:0.8999999999999999;" width="7.2" x="526.2" y="64.8"/><text fill="#000000" font-family="sans-serif" font-size="8.4" lengthAdjust="spacing" textLength="2.4" x="472.2" y="54.8918">&#160;</text><rect fill="#0FAAFF" height="7.2" style="stroke:#181818;stroke-width:0.8999999999999999;" width="7.2" x="469.8" y="64.8"/><text fill="#000000" font-family="sans-serif" font-size="8.4" lengthAdjust="spacing" textLength="2.4" x="423" y="54.8918">&#160;</text><rect fill="#0FAAFF" height="7.2" style="stroke:#181818;stroke-width:0.8999999999999999;" width="7.2" x="420.6" y="64.8"/><text fill="#000000" font-family="sans-serif" font-size="8.4" lengthAdjust="spacing" textLength="2.4" x="500.4" y="54.8918">&#160;</text><rect fill="#0FAAFF" height="7.2" style="stroke:#181818;stroke-width:0.8999999999999999;" width="7.2" x="498" y="64.8"/><!--entity Planning_API_I--><g id="elem_Planning_API_I"><ellipse cx="598.2" cy="166.2" fill="#0FAAFF" rx="4.8" ry="4.8" style="stroke:#181818;stroke-width:0.3;"/><text fill="#000000" font-family="sans-serif" font-size="8.4" font-weight="bold" lengthAdjust="spacing" textLength="52.2" x="572.1" y="186.0645">Planning API</text></g><!--entity MD_API_I--><g id="elem_MD_API_I"><ellipse cx="576" cy="246.6" fill="#0FAAFF" rx="4.8" ry="4.8" style="stroke:#181818;stroke-width:0.3;"/><text fill="#000000" font-family="sans-serif" font-size="8.4" font-weight="bold" lengthAdjust="spacing" textLength="29.4" x="561.3" y="266.4645">MD API</text></g><text fill="#000000" font-family="sans-serif" font-size="8.4" lengthAdjust="spacing" textLength="2.4" x="466.2" y="377.6918">&#160;</text><rect fill="#0FAAFF" height="7.2" style="stroke:#181818;stroke-width:0.8999999999999999;" width="7.2" x="463.8" y="387.6"/><text fill="#000000" font-family="sans-serif" font-size="8.4" lengthAdjust="spacing" textLength="2.4" x="515.4" y="377.6918">&#160;</text><rect fill="#0FAAFF" height="7.2" style="stroke:#181818;stroke-width:0.8999999999999999;" width="7.2" x="513" y="387.6"/><text fill="#000000" font-family="sans-serif" font-size="8.4" lengthAdjust="spacing" textLength="2.4" x="589.8" y="503.4645">&#160;</text><rect fill="#0FAAFF" height="7.2" style="stroke:#181818;stroke-width:0.8999999999999999;" width="7.2" x="587.4" y="486.6"/><text fill="#000000" font-family="sans-serif" font-size="8.4" lengthAdjust="spacing" textLength="2.4" x="564.6" y="377.6918">&#160;</text><rect fill="#0FAAFF" height="7.2" style="stroke:#181818;stroke-width:0.8999999999999999;" width="7.2" x="562.2" y="387.6"/><text fill="#000000" font-family="sans-serif" font-size="8.4" lengthAdjust="spacing" textLength="2.4" x="613.8" y="377.6918">&#160;</text><rect fill="#0FAAFF" height="7.2" style="stroke:#181818;stroke-width:0.8999999999999999;" width="7.2" x="611.4" y="387.6"/><text fill="#000000" font-family="sans-serif" font-size="8.4" lengthAdjust="spacing" textLength="2.4" x="516.6" y="233.0918">&#160;</text><rect fill="#0FAAFF" height="7.2" style="stroke:#181818;stroke-width:0.8999999999999999;" width="7.2" x="514.2" y="243"/><text fill="#000000" font-family="sans-serif" font-size="8.4" lengthAdjust="spacing" textLength="2.4" x="467.4" y="233.0918">&#160;</text><rect fill="#0FAAFF" height="7.2" style="stroke:#181818;stroke-width:0.8999999999999999;" width="7.2" x="465" y="243"/><text fill="#000000" font-family="sans-serif" font-size="8.4" lengthAdjust="spacing" textLength="2.4" x="544.8" y="233.0918">&#160;</text><rect fill="#0FAAFF" height="7.2" style="stroke:#181818;stroke-width:0.8999999999999999;" width="7.2" x="542.4" y="243"/><text fill="#000000" font-family="sans-serif" font-size="8.4" lengthAdjust="spacing" textLength="2.4" x="634.8" y="152.6918">&#160;</text><rect fill="#0FAAFF" height="7.2" style="stroke:#181818;stroke-width:0.8999999999999999;" width="7.2" x="632.4" y="162.6"/><!--entity CM_API_L--><g id="elem_CM_API_L"><ellipse cx="666" cy="657.6" fill="#0FAAFF" rx="4.8" ry="4.8" style="stroke:#181818;stroke-width:0.3;"/><text fill="#000000" font-family="sans-serif" font-size="8.4" font-weight="bold" lengthAdjust="spacing" textLength="105.6" x="613.2" y="677.4645">Campus management API</text></g><!--entity FM_API_L--><g id="elem_FM_API_L"><ellipse cx="172.8" cy="657.6" fill="#0FAAFF" rx="4.8" ry="4.8" style="stroke:#181818;stroke-width:0.3;"/><text fill="#000000" font-family="sans-serif" font-size="8.4" font-weight="bold" lengthAdjust="spacing" textLength="93.6" x="126" y="677.4645">Fleet management API</text></g><!--entity Task_API_L--><g id="elem_Task_API_L"><ellipse cx="417.6" cy="657.6" fill="#0FAAFF" rx="4.8" ry="4.8" style="stroke:#181818;stroke-width:0.3;"/><text fill="#000000" font-family="sans-serif" font-size="8.4" font-weight="bold" lengthAdjust="spacing" textLength="91.2" x="372" y="677.4645">Task management API</text></g><!--entity CampusM_L--><g id="elem_CampusM_L"><ellipse cx="801" cy="657.6" fill="#0FAAFF" rx="4.8" ry="4.8" style="stroke:#181818;stroke-width:0.3;"/><text fill="#000000" font-family="sans-serif" font-size="8.4" font-weight="bold" lengthAdjust="spacing" textLength="101.4" x="750.3" y="677.4645">UI Campus Management</text></g><!--entity TaskM_L--><g id="elem_TaskM_L"><ellipse cx="538.2" cy="657.6" fill="#0FAAFF" rx="4.8" ry="4.8" style="stroke:#181818;stroke-width:0.3;"/><text fill="#000000" font-family="sans-serif" font-size="8.4" font-weight="bold" lengthAdjust="spacing" textLength="87" x="494.7" y="677.4645">UI Task Management</text></g><!--entity FleetM_L--><g id="elem_FleetM_L"><ellipse cx="295.8" cy="657.6" fill="#0FAAFF" rx="4.8" ry="4.8" style="stroke:#181818;stroke-width:0.3;"/><text fill="#000000" font-family="sans-serif" font-size="8.4" font-weight="bold" lengthAdjust="spacing" textLength="89.4" x="251.1" y="677.4645">UI Fleet Management</text></g><!--entity filesystem_API--><g id="elem_filesystem_API"><ellipse cx="150.6" cy="902.4" fill="#0FAAFF" rx="4.8" ry="4.8" style="stroke:#181818;stroke-width:0.3;"/><text fill="#000000" font-family="sans-serif" font-size="8.4" lengthAdjust="spacing" textLength="54.6" x="123.3" y="922.2645">filesystem_API</text></g><!--entity CM_API_I--><g id="elem_CM_API_I"><ellipse cx="297" cy="8.4" fill="#0FAAFF" rx="4.8" ry="4.8" style="stroke:#181818;stroke-width:0.3;"/><text fill="#000000" font-family="sans-serif" font-size="8.4" font-weight="bold" lengthAdjust="spacing" textLength="105.6" x="244.2" y="28.2645">Campus management API</text></g><!--entity FM_API_I--><g id="elem_FM_API_I"><ellipse cx="549" cy="8.4" fill="#0FAAFF" rx="4.8" ry="4.8" style="stroke:#181818;stroke-width:0.3;"/><text fill="#000000" font-family="sans-serif" font-size="8.4" font-weight="bold" lengthAdjust="spacing" textLength="93.6" x="502.2" y="28.2645">Fleet management API</text></g><!--entity CampusM_I--><g id="elem_CampusM_I"><ellipse cx="678" cy="8.4" fill="#0FAAFF" rx="4.8" ry="4.8" style="stroke:#181818;stroke-width:0.3;"/><text fill="#000000" font-family="sans-serif" font-size="8.4" font-weight="bold" lengthAdjust="spacing" textLength="101.4" x="627.3" y="28.2645">UI Campus Management</text></g><!--entity FleetM_I--><g id="elem_FleetM_I"><ellipse cx="426" cy="8.4" fill="#0FAAFF" rx="4.8" ry="4.8" style="stroke:#181818;stroke-width:0.3;"/><text fill="#000000" font-family="sans-serif" font-size="8.4" font-weight="bold" lengthAdjust="spacing" textLength="89.4" x="381.3" y="28.2645">UI Fleet Management</text></g><!--entity filesystem_API_I--><g id="elem_filesystem_API_I"><ellipse cx="852.6" cy="109.8" fill="#0FAAFF" rx="4.8" ry="4.8" style="stroke:#181818;stroke-width:0.3;"/><text fill="#000000" font-family="sans-serif" font-size="8.4" font-weight="bold" lengthAdjust="spacing" textLength="60.6" x="822.3" y="129.6645">Filesystem API</text></g><!--link p1_L to filesystem_API--><g id="link_p1_L_filesystem_API"><path d="M199.206,820.212 C191.7,832.812 165.8503,876.2031 156.5623,891.7971 " fill="none" id="p1_L-to-filesystem_API" style="stroke:#181818;stroke-width:0.6;"/><path d="M158.7967,897.9619 A5.4,5.4 0 0 0 150.0775 892.7686" fill="none" style="stroke:#181818;stroke-width:0.8999999999999999;"/></g><!--link CampusM_L to p2_L--><g id="link_CampusM_L_p2_L"><path d="M795.426,660.222 C769.83,669.516 663.96,707.94 642.72,715.65 " fill="none" id="CampusM_L-p2_L" style="stroke:#181818;stroke-width:0.6;"/></g><!--link CM_API_L to p3_L--><g id="link_CM_API_L_p3_L"><path d="M660.522,662.43 C645.846,673.752 605.94,704.544 593.532,714.12 " fill="none" id="CM_API_L-p3_L" style="stroke:#181818;stroke-width:0.6;"/></g><!--link TaskM_L to p4_L--><g id="link_TaskM_L_p4_L"><path d="M537.366,663.012 C535.35,674.64 530.25,704.034 528.558,713.796 " fill="none" id="TaskM_L-p4_L" style="stroke:#181818;stroke-width:0.6;"/></g><!--link Task_API_L to p5_L--><g id="link_Task_API_L_p5_L"><path d="M418.338,663.012 C420.114,674.64 424.614,704.034 426.108,713.796 " fill="none" id="Task_API_L-p5_L" style="stroke:#181818;stroke-width:0.6;"/></g><!--link FleetM_L to p6_L--><g id="link_FleetM_L_p6_L"><path d="M298.842,663.012 C306.204,674.64 324.798,704.034 330.972,713.796 " fill="none" id="FleetM_L-p6_L" style="stroke:#181818;stroke-width:0.6;"/></g><!--link FM_API_L to p7_L--><g id="link_FM_API_L_p7_L"><path d="M178.218,661.362 C196.374,671.952 254.772,706.014 269.958,714.876 " fill="none" id="FM_API_L-p7_L" style="stroke:#181818;stroke-width:0.6;"/></g><!--link pMD1_L to p2_L--><g id="link_pMD1_L_p2_L"><path d="M639,772.686 C639,762.666 639,731.298 639,721.296 " fill="none" id="pMD1_L-p2_L" style="stroke:#181818;stroke-width:0.6;"/></g><!--link pMD2_L to p3_L--><g id="link_pMD2_L_p3_L"><path d="M589.8,772.686 C589.8,762.666 589.8,731.298 589.8,721.296 " fill="none" id="pMD2_L-p3_L" style="stroke:#181818;stroke-width:0.6;"/></g><!--link pTM1_L to p4_L--><g id="link_pTM1_L_p4_L"><path d="M503.592,772.686 C508.086,762.666 522.132,731.298 526.614,721.296 " fill="none" id="pTM1_L-p4_L" style="stroke:#181818;stroke-width:0.6;"/></g><!--link pTM2_L to p5_L--><g id="link_pTM2_L_p5_L"><path d="M451.572,772.686 C446.982,762.666 432.606,731.298 428.022,721.296 " fill="none" id="pTM2_L-p5_L" style="stroke:#181818;stroke-width:0.6;"/></g><!--link pFM1_L to p6_L--><g id="link_pFM1_L_p6_L"><path d="M357.408,772.686 C352.914,762.666 338.868,731.298 334.386,721.296 " fill="none" id="pFM1_L-p6_L" style="stroke:#181818;stroke-width:0.6;"/></g><!--link pFM2_L to p7_L--><g id="link_pFM2_L_p7_L"><path d="M309.492,772.704 C309.18,767.382 308.016,756.294 303.6,748.2 C296.892,735.918 283.614,725.34 277.218,720.702 " fill="none" id="pFM2_L-p7_L" style="stroke:#181818;stroke-width:0.6;"/></g><!--link pMD3_L to pp1_L--><g id="link_pMD3_L_pp1_L"><path d="M563.544,906.162 C556.248,916.368 533.376,948.39 526.068,958.626 " fill="none" id="pMD3_L-pp1_L" style="stroke:#181818;stroke-width:0.6;"/></g><!--link pTM3_L to pp2_L--><g id="link_pTM3_L_pp2_L"><path d="M467.22,906.162 C468.576,916.368 472.824,948.39 474.18,958.626 " fill="none" id="pTM3_L-pp2_L" style="stroke:#181818;stroke-width:0.6;"/></g><!--link pFM3_L to pp3_L--><g id="link_pFM3_L_pp3_L"><path d="M370.332,906.162 C380.436,916.368 412.128,948.39 422.256,958.626 " fill="none" id="pFM3_L-pp3_L" style="stroke:#181818;stroke-width:0.6;"/></g><!--reverse link filesystem_API_I to p1_I--><g id="link_filesystem_API_I_p1_I"><path d="M846.9452,120.4955 C837.4232,137.5055 808.698,188.832 800.934,202.71 " fill="none" id="filesystem_API_I-backto-p1_I" style="stroke:#181818;stroke-width:0.6;"/><path d="M844.5461,114.393 A5.4,5.4 0 0 0 853.4016 119.3502" fill="none" style="stroke:#181818;stroke-width:0.8999999999999999;"/></g><!--link CampusM_I to p2_I--><g id="link_CampusM_I_p2_I"><path d="M672.552,11.16 C648.63,20.652 553.278,58.482 533.43,66.36 " fill="none" id="CampusM_I-p2_I" style="stroke:#181818;stroke-width:0.6;"/></g><!--link FleetM_I to p3_I--><g id="link_FleetM_I_p3_I"><path d="M429.876,13.812 C439.254,25.44 462.948,54.834 470.814,64.596 " fill="none" id="FleetM_I-p3_I" style="stroke:#181818;stroke-width:0.6;"/></g><!--link CM_API_I to p4_I--><g id="link_CM_API_I_p4_I"><path d="M302.466,11.526 C323.958,21.462 402.378,57.714 420.462,66.072 " fill="none" id="CM_API_I-p4_I" style="stroke:#181818;stroke-width:0.6;"/></g><!--link FM_API_I to p5_I--><g id="link_FM_API_I_p5_I"><path d="M545.124,13.812 C535.746,25.44 512.052,54.834 504.186,64.596 " fill="none" id="FM_API_I-p5_I" style="stroke:#181818;stroke-width:0.6;"/></g><!--link p2_I to pFE1_I--><g id="link_p2_I_pFE1_I"><path d="M529.59,72.072 C528.138,93.558 519.492,221.082 518.016,242.844 " fill="none" id="p2_I-pFE1_I" style="stroke:#181818;stroke-width:0.6;"/></g><!--link p3_I to pFE2_I--><g id="link_p3_I_pFE2_I"><path d="M473.316,72.072 C472.734,93.558 469.278,221.082 468.684,242.844 " fill="none" id="p3_I-pFE2_I" style="stroke:#181818;stroke-width:0.6;"/></g><!--link pFE3_I to MD_API_I--><g id="link_pFE3_I_MD_API_I"><path d="M549.75,246.6 C556.656,246.6 557.556,246.6 564.462,246.6 " fill="none" id="pFE3_I-to-MD_API_I" style="stroke:#181818;stroke-width:0.6;"/><path d="M568.6151,241.5257 A5.4,5.4 0 0 0 568.6151 251.6743" fill="none" style="stroke:#181818;stroke-width:0.8999999999999999;"/></g><!--link p4_I to pMD1_I--><g id="link_p4_I_pMD1_I"><path d="M424.038,72.006 C423.414,83.874 421.2,128.688 421.2,165.6 C421.2,165.6 421.2,165.6 421.2,327 C421.2,347.994 427.482,354.066 441.6,369.6 C448.59,377.292 458.508,384.552 463.776,388.182 " fill="none" id="p4_I-pMD1_I" style="stroke:#181818;stroke-width:0.6;"/></g><!--link p5_I to pMD2_I--><g id="link_p5_I_pMD2_I"><path d="M499.098,72.168 C487.962,86.61 443.4,147.984 443.4,205.8 C443.4,205.8 443.4,205.8 443.4,327 C443.4,345.978 434.112,355.134 446.4,369.6 C456.87,381.924 466.308,373.374 481.8,378 C493.374,381.456 506.718,386.634 512.988,389.136 " fill="none" id="p5_I-pMD2_I" style="stroke:#181818;stroke-width:0.6;"/></g><!--link p1_I to pMD3_I--><g id="link_p1_I_pMD3_I"><path d="M796.182,210.144 C786.552,220.506 757.2,254.904 757.2,289.2 C757.2,289.2 757.2,289.2 757.2,413.4 C757.2,487.518 618.93,489.822 594.624,489.654 " fill="none" id="p1_I-pMD3_I" style="stroke:#181818;stroke-width:0.6;"/></g><!--link MD_API_I to pMD4_I--><g id="link_MD_API_I_pMD4_I"><path d="M576.102,252.126 C576.372,268.752 576.726,324.282 570.6,369.6 C569.736,375.972 567.87,383.262 566.73,387.36 " fill="none" id="MD_API_I-pMD4_I" style="stroke:#181818;stroke-width:0.6;"/></g><!--reverse link Planning_API_I to pMD5_I--><g id="link_Planning_API_I_pMD5_I"><path d="M598.7859,177.6814 C599.1579,184.6054 599.52,191.67 600,202.8 C603.186,276.912 589.782,297.216 606,369.6 C607.494,376.26 611.04,383.448 613.212,387.45 " fill="none" id="Planning_API_I-backto-pMD5_I" style="stroke:#181818;stroke-width:0.6;"/><path d="M593.4961,173.8065 A5.4,5.4 0 0 0 603.6301 173.262" fill="none" style="stroke:#181818;stroke-width:0.8999999999999999;"/></g><!--link pp1_I to Planning_API_I--><g id="link_pp1_I_Planning_API_I"><path d="M632.226,166.2 C622.758,166.2 613.284,166.2 603.81,166.2 " fill="none" id="pp1_I-Planning_API_I" style="stroke:#181818;stroke-width:0.6;"/></g><!--reverse link FE_L to CM--><g id="link_FE_L_CM"><path d="M560.7004,328.895 C564.4374,329.0535 564.7583,329.0713 568.8411,329.2541 C577.0066,329.6196 585.8326,330.0344 595.1946,330.5019 C613.9186,331.437 634.7869,332.583 656.8047,333.9675 C700.8403,336.7365 749.4739,340.4595 794.7473,345.357 C885.294,355.152 962.4,369.645 962.4,390.6 C962.4,390.6 962.4,390.6 962.4,777 C962.4,809.829 906.6165,828.321 837.9765,838.6485 C803.6565,843.8123 766.1224,846.9349 730.74,848.7879 C713.0488,849.7145 695.8956,850.3236 679.951,850.7118 C671.9787,850.9059 664.3086,851.0448 657.0245,851.1404 C655.2034,851.1644 653.4065,851.1856 651.6351,851.2043 " fill="none" id="FE_L-backto-CM" style="stroke:#181818;stroke-width:0.6;stroke-dasharray:7.0,7.0;"/><polygon fill="#181818" points="557.1036,328.7424,562.397,331.3691,560.1009,328.8695,562.6005,326.5734,557.1036,328.7424" style="stroke:#181818;stroke-width:0.6;"/><text fill="#000000" font-family="sans-serif" font-size="7.8" lengthAdjust="spacing" textLength="29.4" x="963.6" y="586.217">manifest</text></g><!--reverse link MD_I to CM--><g id="link_MD_I_CM"><path d="M630.4075,452.4692 C636.7775,452.7604 639.9108,452.9368 646.9235,453.3357 C660.9491,454.1335 676.1077,455.1637 691.7893,456.4938 C723.1526,459.1539 756.6083,463.0136 787.2765,468.6128 C848.613,479.811 898.8,497.967 898.8,527.4 C898.8,527.4 898.8,527.4 898.8,777 C898.8,803.622 855.3855,820.65 800.8837,831.5378 C773.6329,836.9816 743.6102,840.8904 714.8566,843.6959 C700.4798,845.0986 686.4203,846.2255 673.1831,847.1306 C666.5646,847.5831 660.1516,847.9801 654.0074,848.3284 C653.2393,848.372 652.4755,848.4148 651.716,848.4568 " fill="none" id="MD_I-backto-CM" style="stroke:#181818;stroke-width:0.6;stroke-dasharray:7.0,7.0;"/><polygon fill="#181818" points="626.8113,452.3049,632.096,454.9489,629.8081,452.4418,632.3152,450.1539,626.8113,452.3049" style="stroke:#181818;stroke-width:0.6;"/><text fill="#000000" font-family="sans-serif" font-size="7.8" lengthAdjust="spacing" textLength="29.4" x="900" y="660.917">manifest</text></g><!--reverse link MD_I to pFM1_L--><g id="link_MD_I_pFM1_L"><path d="M451.7831,461.7005 C449.6396,462.0373 449.4301,462.0824 447.249,462.4404 C442.8867,463.1564 438.451,463.9157 433.9502,464.7207 C397.9436,471.1611 357.7658,480.5329 317.5845,494.1682 C237.222,521.439 156.846,565.764 109.8,637.8 C78.594,685.584 134.556,719.262 187.8,739.8 C244.386,761.628 267.372,726.492 324,748.2 C337.968,753.552 350.748,766.644 356.124,772.668 " fill="none" id="MD_I-backto-pFM1_L" style="stroke:#181818;stroke-width:0.6;stroke-dasharray:7.0,7.0;"/><polygon fill="#181818" points="455.3404,461.1478,449.636,459.6053,452.376,461.6084,450.3729,464.3484,455.3404,461.1478" style="stroke:#181818;stroke-width:0.6;"/><text fill="#000000" font-family="sans-serif" font-size="7.8" lengthAdjust="spacing" textLength="29.4" x="134.4" y="616.817">manifest</text></g><!--reverse link FE_L to pFM2_L--><g id="link_FE_L_pFM2_L"><path d="M453.3103,328.9589 C451.3143,329.0386 452.8705,328.9776 450.7867,329.0633 C442.4513,329.4061 433.4291,329.7972 423.8487,330.2406 C404.688,331.1274 383.2947,332.2235 360.6977,333.5608 C315.5036,336.2355 265.4947,339.8753 218.9025,344.736 C125.718,354.4575 46.2,369.063 46.2,390.6 C46.2,390.6 46.2,390.6 46.2,718.2 C46.2,748.716 151.482,736.344 181.8,739.8 C195.276,741.336 293.34,739.326 303.6,748.2 C310.722,754.356 310.536,766.806 309.996,772.644 " fill="none" id="FE_L-backto-pFM2_L" style="stroke:#181818;stroke-width:0.6;stroke-dasharray:7.0,7.0;"/><polygon fill="#181818" points="456.9075,328.8153,451.416,326.6327,453.9099,328.935,451.6075,331.4288,456.9075,328.8153" style="stroke:#181818;stroke-width:0.6;"/><text fill="#000000" font-family="sans-serif" font-size="7.8" lengthAdjust="spacing" textLength="29.4" x="47.4" y="555.617">manifest</text></g><!--reverse link Planning_I to Planning_L--><g id="link_Planning_I_Planning_L"><path d="M709.6344,247.5979 C710.4555,247.6146 708.9108,247.5855 709.748,247.6036 C716.4459,247.7481 723.6563,247.9368 731.2811,248.1821 C746.5307,248.6727 763.4379,249.3896 781.218,250.432 C816.7781,252.5169 855.8295,255.9041 892.0935,261.3878 C964.6215,272.355 1026,291.708 1026,325.8 C1026,325.8 1026,325.8 1026,963 C1026,989.322 925.1175,1002.6765 809.6542,1009.341 C751.9226,1012.6733 690.5458,1014.333 636.3115,1015.1049 C609.1944,1015.4909 583.8629,1015.6549 561.6655,1015.6951 C556.1161,1015.7051 550.7626,1015.7074 545.6261,1015.7035 C543.0579,1015.7015 540.5438,1015.698 538.0867,1015.6932 C536.8581,1015.6907 535.6438,1015.6879 534.444,1015.6849 C533.844,1015.6833 533.2478,1015.6817 532.6552,1015.68 " fill="none" id="Planning_I-backto-Planning_L" style="stroke:#181818;stroke-width:0.6;stroke-dasharray:7.0,7.0;"/><polygon fill="#181818" points="706.0351,247.5268,711.3867,250.033,709.0346,247.5861,711.4815,245.2339,706.0351,247.5268" style="stroke:#181818;stroke-width:0.6;"/><text fill="#000000" font-family="sans-serif" font-size="7.8" lengthAdjust="spacing" textLength="29.4" x="1027.2" y="616.817">manifest</text></g><!--link RobDroneGo_L to RobDroneGo_I--><!--SRC=[hLTTQzim57tNhn3PInhmMDEqXH428ww7e88oqgTIWfeehMai6zjvAAF_VVgq9TcMix6s3ydzql7HlUUwR-cUmbrQxeuKl8dFD2lg3vZHx8MM5G3LUyeAKf8C5cI_Jzahl0IsDMKrBGzaH-5l0FdF2zczlvRvYUtN-J4luPTl1q8E1_1f9-tohCWPPVLuad2tPwpnziS3sjv3Ki79RBOcMN6gO4OOUQMPgCUzizd4oqhShEH8QJsQj27LkvCc33rPFa892JTPZqYR86vI-mzpSkHXeGpv44wAUYmt1xHCF_tAN-AIV_wPR- -VuNBPk5QhvRBwg6gQJTUBYzLAbcoZ9-gEYhoiyrCD9_oN1nIN_6npJyRVEESXvrN8kGWvhqFEcv3prd9AhqNC6djqI08wjwPvw9J6iKz5JyXy8CHc5CS-CvyTh4alLl_gXw0cU1HgWi-1ck1ng9jUg5vZ3o7TZ2FTd8LqquVKX_fm98nnRUiCXeHil4DOYr6enNmqeWSb_vEbesWA3-cHgXaLcWHQbOaYEMsWKKPXuCM0aHJnVQ6_Mo5yb42Z8S9m8mns4Juo783gRdEAxcHp1j3tPCxGTsBg0zrmfhnkhhQuUhnJf7iVAAAaGTuRKBn8Wsmv00Os0lgdZO16DiA0jgE_qdRDCWehjPlZNdUBip4t2Fi57lqNWKSXWKSXWKSXWKSXWKUkJBkqD7DgasACzasxQJXs4d3SiESB0O_iKhVBMKrIHakBFKmudIMCIKtW5CSNeUM0nfS3EcivZ1PQZ8Tq6ExPCNSzBmXz92IyVshAzd3wY7m6KjOkYxiX3foW-HZuvCwdu1C4jFoC6JX3sL6_AYCXIjFEd08v64Al6gq0SXo4oGW1a3CWWx19kpOnnW8qRP4Klxc8KHGfmvKooD9HoP6O7jUIBQifMKP0jvYsN2lBLMkvL1QDAcfhwNwHOLDl-fHySsV7Bb-eP4uKVLsPVlekz3KzqAhk1AYfimBCtWY7pDkG_dE0izYjQdQFsF70qr3EzHF_fsXFsRD8zTwXmHy0]--></g></svg>