<?xml version="1.0" encoding="us-ascii" standalone="no"?><svg xmlns="http://www.w3.org/2000/svg" xmlns:xlink="http://www.w3.org/1999/xlink" contentStyleType="text/css" height="448px" preserveAspectRatio="none" style="width:888px;height:448px;background:#FFFFFF;" version="1.1" viewBox="0 0 888 448" width="888px" zoomAndPan="magnify"><defs/><g><rect fill="#FFFFFF" height="239.4551" style="stroke:#181818;stroke-width:1.0;" width="10" x="336" y="116.9121"/><rect fill="#FFFFFF" height="142.873" style="stroke:#181818;stroke-width:1.0;" width="10" x="676" y="148.2031"/><line style="stroke:#181818;stroke-width:0.5;stroke-dasharray:5.0,5.0;" x1="62" x2="62" y1="83.6211" y2="365.3672"/><line style="stroke:#181818;stroke-width:0.5;stroke-dasharray:5.0,5.0;" x1="341" x2="341" y1="83.6211" y2="365.3672"/><line style="stroke:#181818;stroke-width:0.5;stroke-dasharray:5.0,5.0;" x1="680.5" x2="680.5" y1="83.6211" y2="365.3672"/><text fill="#000000" font-family="sans-serif" font-size="14" lengthAdjust="spacing" textLength="108" x="5" y="80.1074">CampusManager</text><ellipse cx="62" cy="13.5" fill="#E2E2F0" rx="8" ry="8" style="stroke:#181818;stroke-width:0.5;"/><path d="M62,21.5 L62,48.5 M49,29.5 L75,29.5 M62,48.5 L49,63.5 M62,48.5 L75,63.5 " fill="none" style="stroke:#181818;stroke-width:0.5;"/><text fill="#000000" font-family="sans-serif" font-size="14" lengthAdjust="spacing" textLength="108" x="5" y="379.4746">CampusManager</text><ellipse cx="62" cy="391.4883" fill="#E2E2F0" rx="8" ry="8" style="stroke:#181818;stroke-width:0.5;"/><path d="M62,399.4883 L62,426.4883 M49,407.4883 L75,407.4883 M62,426.4883 L49,441.4883 M62,426.4883 L75,441.4883 " fill="none" style="stroke:#181818;stroke-width:0.5;"/><rect fill="#E2E2F0" height="32.6211" rx="2.5" ry="2.5" style="stroke:#181818;stroke-width:0.5;" width="26" x="328" y="50"/><text fill="#000000" font-family="sans-serif" font-size="14" lengthAdjust="spacing" textLength="12" x="335" y="72.1074">UI</text><rect fill="#E2E2F0" height="32.6211" rx="2.5" ry="2.5" style="stroke:#181818;stroke-width:0.5;" width="26" x="328" y="364.3672"/><text fill="#000000" font-family="sans-serif" font-size="14" lengthAdjust="spacing" textLength="12" x="335" y="386.4746">UI</text><rect fill="#E2E2F0" height="32.6211" rx="2.5" ry="2.5" style="stroke:#181818;stroke-width:0.5;" width="35" x="663.5" y="50"/><text fill="#000000" font-family="sans-serif" font-size="14" lengthAdjust="spacing" textLength="21" x="670.5" y="72.1074">MD</text><rect fill="#E2E2F0" height="32.6211" rx="2.5" ry="2.5" style="stroke:#181818;stroke-width:0.5;" width="35" x="663.5" y="364.3672"/><text fill="#000000" font-family="sans-serif" font-size="14" lengthAdjust="spacing" textLength="21" x="670.5" y="386.4746">MD</text><rect fill="#FFFFFF" height="239.4551" style="stroke:#181818;stroke-width:1.0;" width="10" x="336" y="116.9121"/><rect fill="#FFFFFF" height="142.873" style="stroke:#181818;stroke-width:1.0;" width="10" x="676" y="148.2031"/><polygon fill="#181818" points="324,112.9121,334,116.9121,324,120.9121,328,116.9121" style="stroke:#181818;stroke-width:1.0;"/><line style="stroke:#181818;stroke-width:1.0;" x1="62" x2="330" y1="116.9121" y2="116.9121"/><text fill="#000000" font-family="sans-serif" font-size="13" font-weight="bold" lengthAdjust="spacing" textLength="7" x="69" y="111.6494">1</text><text fill="#000000" font-family="sans-serif" font-size="13" lengthAdjust="spacing" textLength="238" x="80" y="111.6494">requests list passages between buildings</text><polygon fill="#181818" points="664,144.2031,674,148.2031,664,152.2031,668,148.2031" style="stroke:#181818;stroke-width:1.0;"/><line style="stroke:#181818;stroke-width:1.0;" x1="346" x2="670" y1="148.2031" y2="148.2031"/><text fill="#000000" font-family="sans-serif" font-size="13" font-weight="bold" lengthAdjust="spacing" textLength="7" x="353" y="142.9404">2</text><text fill="#000000" font-family="sans-serif" font-size="13" lengthAdjust="spacing" textLength="300" x="364" y="142.9404">get('/api/passagens/listPassagesBetweenBuildings')</text><line style="stroke:#181818;stroke-width:1.0;" x1="686" x2="728" y1="221.7852" y2="221.7852"/><line style="stroke:#181818;stroke-width:1.0;" x1="728" x2="728" y1="221.7852" y2="234.7852"/><line style="stroke:#181818;stroke-width:1.0;" x1="687" x2="728" y1="234.7852" y2="234.7852"/><polygon fill="#181818" points="697,230.7852,687,234.7852,697,238.7852,693,234.7852" style="stroke:#181818;stroke-width:1.0;"/><text fill="#000000" font-family="sans-serif" font-size="13" font-weight="bold" lengthAdjust="spacing" textLength="7" x="693" y="207.877">3</text><text fill="#000000" font-family="sans-serif" font-size="13" lengthAdjust="spacing" textLength="173" x="704" y="199.2314">Encontra todas as passagens</text><text fill="#000000" font-family="sans-serif" font-size="13" lengthAdjust="spacing" textLength="141" x="708" y="216.5225">entre os buildings dados</text><polygon fill="#181818" points="357,287.0762,347,291.0762,357,295.0762,353,291.0762" style="stroke:#181818;stroke-width:1.0;"/><line style="stroke:#181818;stroke-width:1.0;" x1="351" x2="680" y1="291.0762" y2="291.0762"/><text fill="#000000" font-family="sans-serif" font-size="13" font-weight="bold" lengthAdjust="spacing" textLength="7" x="363" y="285.8135">4</text><text fill="#000000" font-family="sans-serif" font-size="13" lengthAdjust="spacing" textLength="108" x="374" y="285.8135">status da resposta</text><polygon fill="#181818" points="73,343.3672,63,347.3672,73,351.3672,69,347.3672" style="stroke:#181818;stroke-width:1.0;"/><line style="stroke:#181818;stroke-width:1.0;" x1="67" x2="335" y1="347.3672" y2="347.3672"/><text fill="#000000" font-family="sans-serif" font-size="13" font-weight="bold" lengthAdjust="spacing" textLength="7" x="79" y="342.1045">5</text><text fill="#000000" font-family="sans-serif" font-size="13" lengthAdjust="spacing" textLength="239" x="90" y="342.1045">shows list of passages between buildings</text><!--SRC=[VO-nRiCm34HtVWMtj4FXFKE7D1qo10WCUEj2Mwmh814LaMeMVtobnAdH30MqwCXxlADi4lAfvmH0Wqd2Dph5h7iAD792KkmWKZ8_-4Z1iDjTjTqVSR_5ghO07Rwyrfqr9ZvdLbCyUZMCf5g0YZtRXJbWd_tH-J1gFUk_oRX2YxFuss8VsPvM3KNVpDQWJIKTPj3cnjdSCQjdM4WjJDC4xPtr7WO9bWXDN8bPtYyJFm9ocJ6ABfdGaHDT8DT2QcIvZaerZLA-uFZXv2r_LxU_v39tby__wiCF]--></g></svg>