<?xml version="1.0" encoding="us-ascii" standalone="no"?><svg xmlns="http://www.w3.org/2000/svg" xmlns:xlink="http://www.w3.org/1999/xlink" contentStyleType="text/css" height="423px" preserveAspectRatio="none" style="width:665px;height:423px;background:#FFFFFF;" version="1.1" viewBox="0 0 665 423" width="665px" zoomAndPan="magnify"><defs/><g><rect fill="#FFFFFF" height="214.4551" style="stroke:#181818;stroke-width:1.0;" width="10" x="285" y="116.9121"/><rect fill="#FFFFFF" height="183.1641" style="stroke:#181818;stroke-width:1.0;" width="10" x="486" y="148.2031"/><line style="stroke:#181818;stroke-width:0.5;stroke-dasharray:5.0,5.0;" x1="62" x2="62" y1="83.6211" y2="340.3672"/><line style="stroke:#181818;stroke-width:0.5;stroke-dasharray:5.0,5.0;" x1="290" x2="290" y1="83.6211" y2="340.3672"/><line style="stroke:#181818;stroke-width:0.5;stroke-dasharray:5.0,5.0;" x1="490.5" x2="490.5" y1="83.6211" y2="340.3672"/><text fill="#000000" font-family="sans-serif" font-size="14" lengthAdjust="spacing" textLength="108" x="5" y="80.1074">CampusManager</text><ellipse cx="62" cy="13.5" fill="#E2E2F0" rx="8" ry="8" style="stroke:#181818;stroke-width:0.5;"/><path d="M62,21.5 L62,48.5 M49,29.5 L75,29.5 M62,48.5 L49,63.5 M62,48.5 L75,63.5 " fill="none" style="stroke:#181818;stroke-width:0.5;"/><text fill="#000000" font-family="sans-serif" font-size="14" lengthAdjust="spacing" textLength="108" x="5" y="354.4746">CampusManager</text><ellipse cx="62" cy="366.4883" fill="#E2E2F0" rx="8" ry="8" style="stroke:#181818;stroke-width:0.5;"/><path d="M62,374.4883 L62,401.4883 M49,382.4883 L75,382.4883 M62,401.4883 L49,416.4883 M62,401.4883 L75,416.4883 " fill="none" style="stroke:#181818;stroke-width:0.5;"/><rect fill="#E2E2F0" height="32.6211" rx="2.5" ry="2.5" style="stroke:#181818;stroke-width:0.5;" width="26" x="277" y="50"/><text fill="#000000" font-family="sans-serif" font-size="14" lengthAdjust="spacing" textLength="12" x="284" y="72.1074">UI</text><rect fill="#E2E2F0" height="32.6211" rx="2.5" ry="2.5" style="stroke:#181818;stroke-width:0.5;" width="26" x="277" y="339.3672"/><text fill="#000000" font-family="sans-serif" font-size="14" lengthAdjust="spacing" textLength="12" x="284" y="361.4746">UI</text><rect fill="#E2E2F0" height="32.6211" rx="2.5" ry="2.5" style="stroke:#181818;stroke-width:0.5;" width="35" x="473.5" y="50"/><text fill="#000000" font-family="sans-serif" font-size="14" lengthAdjust="spacing" textLength="21" x="480.5" y="72.1074">MD</text><rect fill="#E2E2F0" height="32.6211" rx="2.5" ry="2.5" style="stroke:#181818;stroke-width:0.5;" width="35" x="473.5" y="339.3672"/><text fill="#000000" font-family="sans-serif" font-size="14" lengthAdjust="spacing" textLength="21" x="480.5" y="361.4746">MD</text><rect fill="#FFFFFF" height="214.4551" style="stroke:#181818;stroke-width:1.0;" width="10" x="285" y="116.9121"/><rect fill="#FFFFFF" height="183.1641" style="stroke:#181818;stroke-width:1.0;" width="10" x="486" y="148.2031"/><polygon fill="#181818" points="273,112.9121,283,116.9121,273,120.9121,277,116.9121" style="stroke:#181818;stroke-width:1.0;"/><line style="stroke:#181818;stroke-width:1.0;" x1="62" x2="279" y1="116.9121" y2="116.9121"/><text fill="#000000" font-family="sans-serif" font-size="13" font-weight="bold" lengthAdjust="spacing" textLength="7" x="69" y="111.6494">1</text><text fill="#000000" font-family="sans-serif" font-size="13" lengthAdjust="spacing" textLength="193" x="80" y="111.6494">requests list floors with passages</text><polygon fill="#181818" points="474,144.2031,484,148.2031,474,152.2031,478,148.2031" style="stroke:#181818;stroke-width:1.0;"/><line style="stroke:#181818;stroke-width:1.0;" x1="295" x2="480" y1="148.2031" y2="148.2031"/><text fill="#000000" font-family="sans-serif" font-size="13" font-weight="bold" lengthAdjust="spacing" textLength="7" x="302" y="142.9404">2</text><text fill="#000000" font-family="sans-serif" font-size="13" lengthAdjust="spacing" textLength="161" x="313" y="142.9404">patch('/api/passage/update')</text><line style="stroke:#181818;stroke-width:1.0;" x1="496" x2="538" y1="221.7852" y2="221.7852"/><line style="stroke:#181818;stroke-width:1.0;" x1="538" x2="538" y1="221.7852" y2="234.7852"/><line style="stroke:#181818;stroke-width:1.0;" x1="497" x2="538" y1="234.7852" y2="234.7852"/><polygon fill="#181818" points="507,230.7852,497,234.7852,507,238.7852,503,234.7852" style="stroke:#181818;stroke-width:1.0;"/><text fill="#000000" font-family="sans-serif" font-size="13" font-weight="bold" lengthAdjust="spacing" textLength="7" x="503" y="207.877">3</text><text fill="#000000" font-family="sans-serif" font-size="13" lengthAdjust="spacing" textLength="140" x="514" y="199.2314">updates passage, saves</text><text fill="#000000" font-family="sans-serif" font-size="13" lengthAdjust="spacing" textLength="76" x="518" y="216.5225">and returns it</text><polygon fill="#181818" points="306,287.0762,296,291.0762,306,295.0762,302,291.0762" style="stroke:#181818;stroke-width:1.0;"/><line style="stroke:#181818;stroke-width:1.0;" x1="300" x2="485" y1="291.0762" y2="291.0762"/><text fill="#000000" font-family="sans-serif" font-size="13" font-weight="bold" lengthAdjust="spacing" textLength="7" x="312" y="285.8135">4</text><text fill="#000000" font-family="sans-serif" font-size="13" lengthAdjust="spacing" textLength="93" x="323" y="285.8135">response status</text><polygon fill="#181818" points="73,318.3672,63,322.3672,73,326.3672,69,322.3672" style="stroke:#181818;stroke-width:1.0;"/><line style="stroke:#181818;stroke-width:1.0;" x1="67" x2="284" y1="322.3672" y2="322.3672"/><text fill="#000000" font-family="sans-serif" font-size="13" font-weight="bold" lengthAdjust="spacing" textLength="7" x="79" y="317.1045">5</text><text fill="#000000" font-family="sans-serif" font-size="13" lengthAdjust="spacing" textLength="106" x="90" y="317.1045">operation success</text><!--SRC=[LOwn3i8m34HtVuKtG09rPs21XO6bKZSM4m94WiJa75ZwyQHGX1XpUUzyKYp5SZluJ2JEKkQrtBHW9r7EFhE0ErB95bnGYSRTzfrj_yBTXeUq9UfuiHgO9MT_Bnu6lWOOdwufPV0ps8LLW5gEuM1uYFcXZgfKrRQQAkOkqqaZ6fgHROeUApYPqKzggUzxQh_MXy2tVSwGHttk8qiyrZLMSWG7-rdZJ6YAy0mJAnXdTFKdgSzY8KL6SSu3H2y0]--></g></svg>