<?xml version="1.0" encoding="us-ascii" standalone="no"?><svg xmlns="http://www.w3.org/2000/svg" xmlns:xlink="http://www.w3.org/1999/xlink" contentStyleType="text/css" height="685px" preserveAspectRatio="none" style="width:1222px;height:685px;background:#FFFFFF;" version="1.1" viewBox="0 0 1222 685" width="1222px" zoomAndPan="magnify"><defs/><g><!--cluster RobDroneGo_L--><g id="cluster_RobDroneGo_L"><rect fill="#0FAAFF" height="566" rx="2.5" ry="2.5" style="stroke:#181818;stroke-width:1.0;" width="734" x="245" y="113"/><rect fill="#0FAAFF" height="10" style="stroke:#181818;stroke-width:1.0;" width="15" x="959" y="118"/><rect fill="#0FAAFF" height="2" style="stroke:#181818;stroke-width:1.0;" width="4" x="957" y="120"/><rect fill="#0FAAFF" height="2" style="stroke:#181818;stroke-width:1.0;" width="4" x="957" y="124"/><text fill="#000000" font-family="sans-serif" font-size="14" font-style="italic" lengthAdjust="spacing" textLength="86" x="569" y="142.1074">&#171;component&#187;</text><text fill="#000000" font-family="sans-serif" font-size="14" font-style="italic" lengthAdjust="spacing" textLength="88" x="568" y="160.7285">&#171;system(C4)&#187;</text><text fill="#000000" font-family="sans-serif" font-size="14" font-weight="bold" lengthAdjust="spacing" textLength="91" x="566.5" y="181.3496">RobDroneGo</text></g><!--cluster MD_L--><g id="cluster_MD_L"><rect fill="#0FAAFF" height="228" rx="2.5" ry="2.5" style="stroke:#181818;stroke-width:1.0;" width="163" x="272.5" y="210"/><rect fill="#0FAAFF" height="10" style="stroke:#181818;stroke-width:1.0;" width="15" x="415.5" y="215"/><rect fill="#0FAAFF" height="2" style="stroke:#181818;stroke-width:1.0;" width="4" x="413.5" y="217"/><rect fill="#0FAAFF" height="2" style="stroke:#181818;stroke-width:1.0;" width="4" x="413.5" y="221"/><text fill="#000000" font-family="sans-serif" font-size="14" font-style="italic" lengthAdjust="spacing" textLength="86" x="311" y="239.1074">&#171;component&#187;</text><text fill="#000000" font-family="sans-serif" font-size="14" font-weight="bold" lengthAdjust="spacing" textLength="151" x="278.5" y="259.7285">Campus Management</text></g><!--cluster FM--><g id="cluster_FM"><rect fill="#0FAAFF" height="228" rx="2.5" ry="2.5" style="stroke:#181818;stroke-width:1.0;" width="143" x="686" y="210"/><rect fill="#0FAAFF" height="10" style="stroke:#181818;stroke-width:1.0;" width="15" x="809" y="215"/><rect fill="#0FAAFF" height="2" style="stroke:#181818;stroke-width:1.0;" width="4" x="807" y="217"/><rect fill="#0FAAFF" height="2" style="stroke:#181818;stroke-width:1.0;" width="4" x="807" y="221"/><text fill="#000000" font-family="sans-serif" font-size="14" font-style="italic" lengthAdjust="spacing" textLength="86" x="714.5" y="239.1074">&#171;component&#187;</text><text fill="#000000" font-family="sans-serif" font-size="14" font-weight="bold" lengthAdjust="spacing" textLength="131" x="692" y="259.7285">Fleet Management</text></g><!--cluster TM--><g id="cluster_TM"><rect fill="#0FAAFF" height="228" rx="2.5" ry="2.5" style="stroke:#181818;stroke-width:1.0;" width="154" x="471" y="210"/><rect fill="#0FAAFF" height="10" style="stroke:#181818;stroke-width:1.0;" width="15" x="605" y="215"/><rect fill="#0FAAFF" height="2" style="stroke:#181818;stroke-width:1.0;" width="4" x="603" y="217"/><rect fill="#0FAAFF" height="2" style="stroke:#181818;stroke-width:1.0;" width="4" x="603" y="221"/><text fill="#000000" font-family="sans-serif" font-size="14" font-style="italic" lengthAdjust="spacing" textLength="86" x="505" y="239.1074">&#171;component&#187;</text><text fill="#000000" font-family="sans-serif" font-size="14" font-weight="bold" lengthAdjust="spacing" textLength="127" x="484.5" y="259.7285">Task Management</text></g><!--cluster Planning--><g id="cluster_Planning"><rect fill="#0FAAFF" height="126" rx="2.5" ry="2.5" style="stroke:#181818;stroke-width:1.0;" width="130" x="495" y="537"/><rect fill="#0FAAFF" height="10" style="stroke:#181818;stroke-width:1.0;" width="15" x="605" y="542"/><rect fill="#0FAAFF" height="2" style="stroke:#181818;stroke-width:1.0;" width="4" x="603" y="544"/><rect fill="#0FAAFF" height="2" style="stroke:#181818;stroke-width:1.0;" width="4" x="603" y="548"/><text fill="#000000" font-family="sans-serif" font-size="14" font-style="italic" lengthAdjust="spacing" textLength="86" x="517" y="566.1074">&#171;component&#187;</text><text fill="#000000" font-family="sans-serif" font-size="14" font-weight="bold" lengthAdjust="spacing" textLength="61" x="529.5" y="586.7285">Planning</text></g><text fill="#000000" font-family="sans-serif" font-size="14" lengthAdjust="spacing" textLength="4" x="977" y="300.4863">&#160;</text><rect fill="#0FAAFF" height="12" style="stroke:#181818;stroke-width:1.5;" width="12" x="973" y="317"/><text fill="#000000" font-family="sans-serif" font-size="14" lengthAdjust="spacing" textLength="4" x="348" y="90.4863">&#160;</text><rect fill="#0FAAFF" height="12" style="stroke:#181818;stroke-width:1.5;" width="12" x="344" y="107"/><text fill="#000000" font-family="sans-serif" font-size="14" lengthAdjust="spacing" textLength="4" x="301" y="90.4863">&#160;</text><rect fill="#0FAAFF" height="12" style="stroke:#181818;stroke-width:1.5;" width="12" x="297" y="107"/><text fill="#000000" font-family="sans-serif" font-size="14" lengthAdjust="spacing" textLength="4" x="605" y="90.4863">&#160;</text><rect fill="#0FAAFF" height="12" style="stroke:#181818;stroke-width:1.5;" width="12" x="601" y="107"/><text fill="#000000" font-family="sans-serif" font-size="14" lengthAdjust="spacing" textLength="4" x="558" y="90.4863">&#160;</text><rect fill="#0FAAFF" height="12" style="stroke:#181818;stroke-width:1.5;" width="12" x="554" y="107"/><text fill="#000000" font-family="sans-serif" font-size="14" lengthAdjust="spacing" textLength="4" x="875" y="90.4863">&#160;</text><rect fill="#0FAAFF" height="12" style="stroke:#181818;stroke-width:1.5;" width="12" x="871" y="107"/><text fill="#000000" font-family="sans-serif" font-size="14" lengthAdjust="spacing" textLength="4" x="828" y="90.4863">&#160;</text><rect fill="#0FAAFF" height="12" style="stroke:#181818;stroke-width:1.5;" width="12" x="824" y="107"/><text fill="#000000" font-family="sans-serif" font-size="14" lengthAdjust="spacing" textLength="4" x="348" y="187.4863">&#160;</text><rect fill="#0FAAFF" height="12" style="stroke:#181818;stroke-width:1.5;" width="12" x="344" y="204"/><text fill="#000000" font-family="sans-serif" font-size="14" lengthAdjust="spacing" textLength="4" x="301" y="187.4863">&#160;</text><rect fill="#0FAAFF" height="12" style="stroke:#181818;stroke-width:1.5;" width="12" x="297" y="204"/><text fill="#000000" font-family="sans-serif" font-size="14" lengthAdjust="spacing" textLength="4" x="403" y="460.1074">&#160;</text><rect fill="#0FAAFF" height="12" style="stroke:#181818;stroke-width:1.5;" width="12" x="399" y="432"/><text fill="#000000" font-family="sans-serif" font-size="14" lengthAdjust="spacing" textLength="4" x="804" y="187.4863">&#160;</text><rect fill="#0FAAFF" height="12" style="stroke:#181818;stroke-width:1.5;" width="12" x="800" y="204"/><text fill="#000000" font-family="sans-serif" font-size="14" lengthAdjust="spacing" textLength="4" x="757" y="187.4863">&#160;</text><rect fill="#0FAAFF" height="12" style="stroke:#181818;stroke-width:1.5;" width="12" x="753" y="204"/><text fill="#000000" font-family="sans-serif" font-size="14" lengthAdjust="spacing" textLength="4" x="707" y="460.1074">&#160;</text><rect fill="#0FAAFF" height="12" style="stroke:#181818;stroke-width:1.5;" width="12" x="703" y="432"/><text fill="#000000" font-family="sans-serif" font-size="14" lengthAdjust="spacing" textLength="4" x="605" y="187.4863">&#160;</text><rect fill="#0FAAFF" height="12" style="stroke:#181818;stroke-width:1.5;" width="12" x="601" y="204"/><text fill="#000000" font-family="sans-serif" font-size="14" lengthAdjust="spacing" textLength="4" x="558" y="187.4863">&#160;</text><rect fill="#0FAAFF" height="12" style="stroke:#181818;stroke-width:1.5;" width="12" x="554" y="204"/><text fill="#000000" font-family="sans-serif" font-size="14" lengthAdjust="spacing" textLength="4" x="558" y="460.1074">&#160;</text><rect fill="#0FAAFF" height="12" style="stroke:#181818;stroke-width:1.5;" width="12" x="554" y="432"/><text fill="#000000" font-family="sans-serif" font-size="14" lengthAdjust="spacing" textLength="4" x="511" y="514.4863">&#160;</text><rect fill="#0FAAFF" height="12" style="stroke:#181818;stroke-width:1.5;" width="12" x="507" y="531"/><text fill="#000000" font-family="sans-serif" font-size="14" lengthAdjust="spacing" textLength="4" x="558" y="514.4863">&#160;</text><rect fill="#0FAAFF" height="12" style="stroke:#181818;stroke-width:1.5;" width="12" x="554" y="531"/><text fill="#000000" font-family="sans-serif" font-size="14" lengthAdjust="spacing" textLength="4" x="605" y="514.4863">&#160;</text><rect fill="#0FAAFF" height="12" style="stroke:#181818;stroke-width:1.5;" width="12" x="601" y="531"/><!--entity CM_API_L--><g id="elem_CM_API_L"><ellipse cx="94" cy="14" fill="#0FAAFF" rx="8" ry="8" style="stroke:#181818;stroke-width:0.5;"/><text fill="#000000" font-family="sans-serif" font-size="14" font-weight="bold" lengthAdjust="spacing" textLength="176" x="6" y="47.1074">Campus management API</text></g><!--entity FM_API_L--><g id="elem_FM_API_L"><ellipse cx="936" cy="14" fill="#0FAAFF" rx="8" ry="8" style="stroke:#181818;stroke-width:0.5;"/><text fill="#000000" font-family="sans-serif" font-size="14" font-weight="bold" lengthAdjust="spacing" textLength="156" x="858" y="47.1074">Fleet management API</text></g><!--entity Task_API_L--><g id="elem_Task_API_L"><ellipse cx="532" cy="14" fill="#0FAAFF" rx="8" ry="8" style="stroke:#181818;stroke-width:0.5;"/><text fill="#000000" font-family="sans-serif" font-size="14" font-weight="bold" lengthAdjust="spacing" textLength="152" x="456" y="47.1074">Task management API</text></g><!--entity CampusM_L--><g id="elem_CampusM_L"><ellipse cx="319" cy="14" fill="#0FAAFF" rx="8" ry="8" style="stroke:#181818;stroke-width:0.5;"/><text fill="#000000" font-family="sans-serif" font-size="14" font-weight="bold" lengthAdjust="spacing" textLength="169" x="234.5" y="47.1074">UI Campus Management</text></g><!--entity TaskM_L--><g id="elem_TaskM_L"><ellipse cx="733" cy="14" fill="#0FAAFF" rx="8" ry="8" style="stroke:#181818;stroke-width:0.5;"/><text fill="#000000" font-family="sans-serif" font-size="14" font-weight="bold" lengthAdjust="spacing" textLength="145" x="660.5" y="47.1074">UI Task Management</text></g><!--entity FleetM_L--><g id="elem_FleetM_L"><ellipse cx="1141" cy="14" fill="#0FAAFF" rx="8" ry="8" style="stroke:#181818;stroke-width:0.5;"/><text fill="#000000" font-family="sans-serif" font-size="14" font-weight="bold" lengthAdjust="spacing" textLength="149" x="1066.5" y="47.1074">UI Fleet Management</text></g><!--entity filesystem_API--><g id="elem_filesystem_API"><ellipse cx="1055" cy="438" fill="#0FAAFF" rx="8" ry="8" style="stroke:#181818;stroke-width:0.5;"/><text fill="#000000" font-family="sans-serif" font-size="14" lengthAdjust="spacing" textLength="91" x="1009.5" y="471.1074">filesystem_API</text></g><!--link p1_L to filesystem_API--><g id="link_p1_L_filesystem_API"><path d="M982.46,329.15 C994.54,347.11 1029.2998,398.7818 1043.9998,420.6418 " fill="none" id="p1_L-to-filesystem_API" style="stroke:#181818;stroke-width:1.0;"/><path d="M1054.8803,421.6663 A9,9 0 0 0 1040.8443 431.105" fill="none" style="stroke:#181818;stroke-width:1.5;"/></g><!--link CampusM_L to p2_L--><g id="link_CampusM_L_p2_L"><path d="M321.64,23.27 C327.85,42.7 343.22,90.8 348.33,106.76 " fill="none" id="CampusM_L-p2_L" style="stroke:#181818;stroke-width:1.0;"/></g><!--link CM_API_L to p3_L--><g id="link_CM_API_L_p3_L"><path d="M103.25,19.29 C138.96,35.87 267.3,95.43 296.88,109.16 " fill="none" id="CM_API_L-p3_L" style="stroke:#181818;stroke-width:1.0;"/></g><!--link TaskM_L to p4_L--><g id="link_TaskM_L_p4_L"><path d="M723.94,21.98 C699.67,40.66 633.69,91.46 613.17,107.25 " fill="none" id="TaskM_L-p4_L" style="stroke:#181818;stroke-width:1.0;"/></g><!--link Task_API_L to p5_L--><g id="link_Task_API_L_p5_L"><path d="M534.39,23.27 C539.99,42.7 553.88,90.8 558.49,106.76 " fill="none" id="Task_API_L-p5_L" style="stroke:#181818;stroke-width:1.0;"/></g><!--link FleetM_L to p6_L--><g id="link_FleetM_L_p6_L"><path d="M1131.91,18.34 C1090.21,33.66 917.68,97.05 883.06,109.77 " fill="none" id="FleetM_L-p6_L" style="stroke:#181818;stroke-width:1.0;"/></g><!--link FM_API_L to p7_L--><g id="link_FM_API_L_p7_L"><path d="M926.96,23.27 C905.73,42.7 853.17,90.8 835.73,106.76 " fill="none" id="FM_API_L-p7_L" style="stroke:#181818;stroke-width:1.0;"/></g><!--link pMD1_L to p2_L--><g id="link_pMD1_L_p2_L"><path d="M350,203.87 C350,187.34 350,135.6 350,119.11 " fill="none" id="pMD1_L-p2_L" style="stroke:#181818;stroke-width:1.0;"/></g><!--link pMD2_L to p3_L--><g id="link_pMD2_L_p3_L"><path d="M303,203.87 C303,187.34 303,135.6 303,119.11 " fill="none" id="pMD2_L-p3_L" style="stroke:#181818;stroke-width:1.0;"/></g><!--link pTM1_L to p4_L--><g id="link_pTM1_L_p4_L"><path d="M607,203.87 C607,187.34 607,135.6 607,119.11 " fill="none" id="pTM1_L-p4_L" style="stroke:#181818;stroke-width:1.0;"/></g><!--link pTM2_L to p5_L--><g id="link_pTM2_L_p5_L"><path d="M560,203.87 C560,187.34 560,135.6 560,119.11 " fill="none" id="pTM2_L-p5_L" style="stroke:#181818;stroke-width:1.0;"/></g><!--link pFM1_L to p6_L--><g id="link_pFM1_L_p6_L"><path d="M806.43,203.98 C807.27,196.37 809.63,181.66 816,171 C830.56,146.61 858.58,126.15 870.92,117.91 " fill="none" id="pFM1_L-p6_L" style="stroke:#181818;stroke-width:1.0;"/></g><!--link pFM2_L to p7_L--><g id="link_pFM2_L_p7_L"><path d="M761.91,203.95 C766.25,196.54 774.77,182.38 783,171 C797.44,151.05 816.66,128.96 825.36,119.17 " fill="none" id="pFM2_L-p7_L" style="stroke:#181818;stroke-width:1.0;"/></g><!--link pMD3_L to pp1_L--><g id="link_pMD3_L_pp1_L"><path d="M410.81,444.22 C429.65,461.14 488.92,514.37 507.43,530.99 " fill="none" id="pMD3_L-pp1_L" style="stroke:#181818;stroke-width:1.0;"/></g><!--link pTM3_L to pp2_L--><g id="link_pTM3_L_pp2_L"><path d="M560,444.22 C560,461.06 560,513.88 560,530.76 " fill="none" id="pTM3_L-pp2_L" style="stroke:#181818;stroke-width:1.0;"/></g><!--link pFM3_L to pp3_L--><g id="link_pFM3_L_pp3_L"><path d="M703.52,444.22 C685.72,461.14 629.74,514.37 612.26,530.99 " fill="none" id="pFM3_L-pp3_L" style="stroke:#181818;stroke-width:1.0;"/></g><!--SRC=[ZLHDQy904BtFhrZifHK2hRNs8a9HKWfTA2KzbI9ht6Wm-q4I3wNutxkxsSsNCT5uIERDctaxCplxU4jH6ATXGc6ltocJ-IzYb6recW5aXvXBaXA69DbkOxv33r2tnZodQKH2Ylu0gT-6X8TTAevyknI9ID7DVKH85C6fJWe5au9JdW-JD5pbMEBroyVR-XsH38t6uoLXyfWXHZZPKQRZANGy7hLOVfFb9vJcWwI0P8S6JHiwM6s5HX8kMLzlreHmIUrErk2OP7qCSuW6fJXMamDLfRy_nMQLglTNiNx_GVDv2IqMytdsc-MKtIwdTuk52LbvZueUIP7cufYZaNgKWtnGkLsV75w2apxmiG-Sze5FVU2i3tokWGQj5GQlpWfYId3MDrk9i-1urIv6XylaWakzfdZLhitfJAsFkxIsctz9gey7fVhu6ga-7fOQT4fjZVObfS6mqk0gfK6NqhRKZuHmhhPRbs27NL8g1uNAoQ17XqRrDw4zxnP5SKABEwft4bHRnlFCRODoCsg32WPkfUZlgVskkQYh1EKEqOQPDjI3g2kZ11IpxRBOENOvm7R9vR0TSV71ZfiBRqUh2buSx-ZPoOUYKCPWkWP5NOp131p0Fm00]--></g></svg>