<?xml version="1.0" encoding="us-ascii" standalone="no"?><svg xmlns="http://www.w3.org/2000/svg" xmlns:xlink="http://www.w3.org/1999/xlink" contentStyleType="text/css" height="731px" preserveAspectRatio="none" style="width:1174px;height:731px;background:#FFFFFF;" version="1.1" viewBox="0 0 1174 731" width="1174px" zoomAndPan="magnify"><defs/><g><rect fill="#FFFFFF" height="536.9473" style="stroke:#181818;stroke-width:1.0;" width="10" x="17.5" y="93.6211"/><rect fill="#FFFFFF" height="513.6563" style="stroke:#181818;stroke-width:1.0;" width="10" x="235.5" y="116.9121"/><rect fill="#FFFFFF" height="451.0742" style="stroke:#181818;stroke-width:1.0;" width="10" x="406.5" y="148.2031"/><rect fill="#FFFFFF" height="325.9102" style="stroke:#181818;stroke-width:1.0;" width="10" x="520.5" y="242.0762"/><rect fill="#FFFFFF" height="31.291" style="stroke:#181818;stroke-width:1.0;" width="10" x="635.5" y="179.4941"/><rect fill="#FFFFFF" height="263.3281" style="stroke:#181818;stroke-width:1.0;" width="10" x="743" y="273.3672"/><rect fill="#FFFFFF" height="200.7461" style="stroke:#181818;stroke-width:1.0;" width="10" x="881" y="304.6582"/><rect fill="#FFFFFF" height="93.873" style="stroke:#181818;stroke-width:1.0;" width="10" x="1046" y="380.2402"/><rect fill="#FFFFFF" height="31.291" style="stroke:#181818;stroke-width:1.0;" width="10" x="1142" y="411.5313"/><line style="stroke:#181818;stroke-width:0.5;stroke-dasharray:5.0,5.0;" x1="22" x2="22" y1="83.6211" y2="648.5684"/><line style="stroke:#181818;stroke-width:0.5;stroke-dasharray:5.0,5.0;" x1="240" x2="240" y1="83.6211" y2="648.5684"/><line style="stroke:#181818;stroke-width:0.5;stroke-dasharray:5.0,5.0;" x1="411" x2="411" y1="83.6211" y2="648.5684"/><line style="stroke:#181818;stroke-width:0.5;stroke-dasharray:5.0,5.0;" x1="525.5" x2="525.5" y1="83.6211" y2="648.5684"/><line style="stroke:#181818;stroke-width:0.5;stroke-dasharray:5.0,5.0;" x1="640.5" x2="640.5" y1="83.6211" y2="648.5684"/><line style="stroke:#181818;stroke-width:0.5;stroke-dasharray:5.0,5.0;" x1="747.5" x2="747.5" y1="83.6211" y2="648.5684"/><line style="stroke:#181818;stroke-width:0.5;stroke-dasharray:5.0,5.0;" x1="886" x2="886" y1="83.6211" y2="648.5684"/><line style="stroke:#181818;stroke-width:0.5;stroke-dasharray:5.0,5.0;" x1="1050.5" x2="1050.5" y1="83.6211" y2="648.5684"/><line style="stroke:#181818;stroke-width:0.5;stroke-dasharray:5.0,5.0;" x1="1146.5" x2="1146.5" y1="83.6211" y2="648.5684"/><text fill="#000000" font-family="sans-serif" font-size="14" lengthAdjust="spacing" textLength="29" x="5" y="80.1074">User</text><ellipse cx="22.5" cy="13.5" fill="#E2E2F0" rx="8" ry="8" style="stroke:#181818;stroke-width:0.5;"/><path d="M22.5,21.5 L22.5,48.5 M9.5,29.5 L35.5,29.5 M22.5,48.5 L9.5,63.5 M22.5,48.5 L35.5,63.5 " fill="none" style="stroke:#181818;stroke-width:0.5;"/><text fill="#000000" font-family="sans-serif" font-size="14" lengthAdjust="spacing" textLength="29" x="5" y="662.6758">User</text><ellipse cx="22.5" cy="674.6895" fill="#E2E2F0" rx="8" ry="8" style="stroke:#181818;stroke-width:0.5;"/><path d="M22.5,682.6895 L22.5,709.6895 M9.5,690.6895 L35.5,690.6895 M22.5,709.6895 L9.5,724.6895 M22.5,709.6895 L35.5,724.6895 " fill="none" style="stroke:#181818;stroke-width:0.5;"/><rect fill="#E2E2F0" height="32.6211" rx="2.5" ry="2.5" style="stroke:#181818;stroke-width:0.5;" width="43" x="219" y="50"/><text fill="#000000" font-family="sans-serif" font-size="14" lengthAdjust="spacing" textLength="29" x="226" y="72.1074">View</text><rect fill="#E2E2F0" height="32.6211" rx="2.5" ry="2.5" style="stroke:#181818;stroke-width:0.5;" width="43" x="219" y="647.5684"/><text fill="#000000" font-family="sans-serif" font-size="14" lengthAdjust="spacing" textLength="29" x="226" y="669.6758">View</text><rect fill="#E2E2F0" height="32.6211" rx="2.5" ry="2.5" style="stroke:#181818;stroke-width:0.5;" width="87" x="368" y="50"/><text fill="#000000" font-family="sans-serif" font-size="14" lengthAdjust="spacing" textLength="73" x="375" y="72.1074">Component</text><rect fill="#E2E2F0" height="32.6211" rx="2.5" ry="2.5" style="stroke:#181818;stroke-width:0.5;" width="87" x="368" y="647.5684"/><text fill="#000000" font-family="sans-serif" font-size="14" lengthAdjust="spacing" textLength="73" x="375" y="669.6758">Component</text><rect fill="#E2E2F0" height="32.6211" rx="2.5" ry="2.5" style="stroke:#181818;stroke-width:0.5;" width="120" x="465.5" y="50"/><text fill="#000000" font-family="sans-serif" font-size="14" lengthAdjust="spacing" textLength="106" x="472.5" y="72.1074">FrontEndService</text><rect fill="#E2E2F0" height="32.6211" rx="2.5" ry="2.5" style="stroke:#181818;stroke-width:0.5;" width="120" x="465.5" y="647.5684"/><text fill="#000000" font-family="sans-serif" font-size="14" lengthAdjust="spacing" textLength="106" x="472.5" y="669.6758">FrontEndService</text><rect fill="#E2E2F0" height="32.6211" rx="2.5" ry="2.5" style="stroke:#181818;stroke-width:0.5;" width="90" x="595.5" y="50"/><text fill="#000000" font-family="sans-serif" font-size="14" lengthAdjust="spacing" textLength="76" x="602.5" y="72.1074">AuthService</text><rect fill="#E2E2F0" height="32.6211" rx="2.5" ry="2.5" style="stroke:#181818;stroke-width:0.5;" width="90" x="595.5" y="647.5684"/><text fill="#000000" font-family="sans-serif" font-size="14" lengthAdjust="spacing" textLength="76" x="602.5" y="669.6758">AuthService</text><rect fill="#E2E2F0" height="32.6211" rx="2.5" ry="2.5" style="stroke:#181818;stroke-width:0.5;" width="105" x="695.5" y="50"/><text fill="#000000" font-family="sans-serif" font-size="14" lengthAdjust="spacing" textLength="91" x="702.5" y="72.1074">UserController</text><rect fill="#E2E2F0" height="32.6211" rx="2.5" ry="2.5" style="stroke:#181818;stroke-width:0.5;" width="105" x="695.5" y="647.5684"/><text fill="#000000" font-family="sans-serif" font-size="14" lengthAdjust="spacing" textLength="91" x="702.5" y="669.6758">UserController</text><rect fill="#E2E2F0" height="32.6211" rx="2.5" ry="2.5" style="stroke:#181818;stroke-width:0.5;" width="90" x="841" y="50"/><text fill="#000000" font-family="sans-serif" font-size="14" lengthAdjust="spacing" textLength="76" x="848" y="72.1074">UserService</text><rect fill="#E2E2F0" height="32.6211" rx="2.5" ry="2.5" style="stroke:#181818;stroke-width:0.5;" width="90" x="841" y="647.5684"/><text fill="#000000" font-family="sans-serif" font-size="14" lengthAdjust="spacing" textLength="76" x="848" y="669.6758">UserService</text><rect fill="#E2E2F0" height="32.6211" rx="2.5" ry="2.5" style="stroke:#181818;stroke-width:0.5;" width="111" x="995.5" y="50"/><text fill="#000000" font-family="sans-serif" font-size="14" lengthAdjust="spacing" textLength="97" x="1002.5" y="72.1074">UserRepository</text><rect fill="#E2E2F0" height="32.6211" rx="2.5" ry="2.5" style="stroke:#181818;stroke-width:0.5;" width="111" x="995.5" y="647.5684"/><text fill="#000000" font-family="sans-serif" font-size="14" lengthAdjust="spacing" textLength="97" x="1002.5" y="669.6758">UserRepository</text><rect fill="#E2E2F0" height="32.6211" rx="2.5" ry="2.5" style="stroke:#181818;stroke-width:0.5;" width="43" x="1125.5" y="50"/><text fill="#000000" font-family="sans-serif" font-size="14" lengthAdjust="spacing" textLength="29" x="1132.5" y="72.1074">User</text><rect fill="#E2E2F0" height="32.6211" rx="2.5" ry="2.5" style="stroke:#181818;stroke-width:0.5;" width="43" x="1125.5" y="647.5684"/><text fill="#000000" font-family="sans-serif" font-size="14" lengthAdjust="spacing" textLength="29" x="1132.5" y="669.6758">User</text><rect fill="#FFFFFF" height="536.9473" style="stroke:#181818;stroke-width:1.0;" width="10" x="17.5" y="93.6211"/><rect fill="#FFFFFF" height="513.6563" style="stroke:#181818;stroke-width:1.0;" width="10" x="235.5" y="116.9121"/><rect fill="#FFFFFF" height="451.0742" style="stroke:#181818;stroke-width:1.0;" width="10" x="406.5" y="148.2031"/><rect fill="#FFFFFF" height="325.9102" style="stroke:#181818;stroke-width:1.0;" width="10" x="520.5" y="242.0762"/><rect fill="#FFFFFF" height="31.291" style="stroke:#181818;stroke-width:1.0;" width="10" x="635.5" y="179.4941"/><rect fill="#FFFFFF" height="263.3281" style="stroke:#181818;stroke-width:1.0;" width="10" x="743" y="273.3672"/><rect fill="#FFFFFF" height="200.7461" style="stroke:#181818;stroke-width:1.0;" width="10" x="881" y="304.6582"/><rect fill="#FFFFFF" height="93.873" style="stroke:#181818;stroke-width:1.0;" width="10" x="1046" y="380.2402"/><rect fill="#FFFFFF" height="31.291" style="stroke:#181818;stroke-width:1.0;" width="10" x="1142" y="411.5313"/><polygon fill="#181818" points="223.5,112.9121,233.5,116.9121,223.5,120.9121,227.5,116.9121" style="stroke:#181818;stroke-width:1.0;"/><line style="stroke:#181818;stroke-width:1.0;" x1="27.5" x2="229.5" y1="116.9121" y2="116.9121"/><text fill="#000000" font-family="sans-serif" font-size="13" lengthAdjust="spacing" textLength="189" x="34.5" y="111.6494">asks to get a copy of their profile</text><polygon fill="#181818" points="394.5,144.2031,404.5,148.2031,394.5,152.2031,398.5,148.2031" style="stroke:#181818;stroke-width:1.0;"/><line style="stroke:#181818;stroke-width:1.0;" x1="245.5" x2="400.5" y1="148.2031" y2="148.2031"/><text fill="#000000" font-family="sans-serif" font-size="13" lengthAdjust="spacing" textLength="53" x="252.5" y="142.9404">getUser()</text><polygon fill="#181818" points="623.5,175.4941,633.5,179.4941,623.5,183.4941,627.5,179.4941" style="stroke:#181818;stroke-width:1.0;"/><line style="stroke:#181818;stroke-width:1.0;" x1="416.5" x2="629.5" y1="179.4941" y2="179.4941"/><text fill="#000000" font-family="sans-serif" font-size="13" lengthAdjust="spacing" textLength="61" x="423.5" y="174.2314">getToken()</text><polygon fill="#181818" points="427.5,206.7852,417.5,210.7852,427.5,214.7852,423.5,210.7852" style="stroke:#181818;stroke-width:1.0;"/><line style="stroke:#181818;stroke-width:1.0;" x1="421.5" x2="639.5" y1="210.7852" y2="210.7852"/><text fill="#000000" font-family="sans-serif" font-size="13" lengthAdjust="spacing" textLength="32" x="433.5" y="205.5225">token</text><polygon fill="#181818" points="508.5,238.0762,518.5,242.0762,508.5,246.0762,512.5,242.0762" style="stroke:#181818;stroke-width:1.0;"/><line style="stroke:#181818;stroke-width:1.0;" x1="416.5" x2="514.5" y1="242.0762" y2="242.0762"/><text fill="#000000" font-family="sans-serif" font-size="13" lengthAdjust="spacing" textLength="85" x="423.5" y="236.8135">getUser(token)</text><polygon fill="#181818" points="731,269.3672,741,273.3672,731,277.3672,735,273.3672" style="stroke:#181818;stroke-width:1.0;"/><line style="stroke:#181818;stroke-width:1.0;" x1="530.5" x2="737" y1="273.3672" y2="273.3672"/><text fill="#000000" font-family="sans-serif" font-size="13" lengthAdjust="spacing" textLength="85" x="537.5" y="268.1045">getUser(token)</text><polygon fill="#181818" points="869,300.6582,879,304.6582,869,308.6582,873,304.6582" style="stroke:#181818;stroke-width:1.0;"/><line style="stroke:#181818;stroke-width:1.0;" x1="753" x2="875" y1="304.6582" y2="304.6582"/><text fill="#000000" font-family="sans-serif" font-size="13" lengthAdjust="spacing" textLength="109" x="760" y="299.3955">getByToken(token)</text><line style="stroke:#181818;stroke-width:1.0;" x1="891" x2="933" y1="335.9492" y2="335.9492"/><line style="stroke:#181818;stroke-width:1.0;" x1="933" x2="933" y1="335.9492" y2="348.9492"/><line style="stroke:#181818;stroke-width:1.0;" x1="892" x2="933" y1="348.9492" y2="348.9492"/><polygon fill="#181818" points="902,344.9492,892,348.9492,902,352.9492,898,348.9492" style="stroke:#181818;stroke-width:1.0;"/><text fill="#000000" font-family="sans-serif" font-size="13" lengthAdjust="spacing" textLength="141" x="898" y="330.6865">decodeJWTEmail(token)</text><polygon fill="#181818" points="1034,376.2402,1044,380.2402,1034,384.2402,1038,380.2402" style="stroke:#181818;stroke-width:1.0;"/><line style="stroke:#181818;stroke-width:1.0;" x1="891" x2="1040" y1="380.2402" y2="380.2402"/><text fill="#000000" font-family="sans-serif" font-size="13" lengthAdjust="spacing" textLength="106" x="898" y="374.9775">getByEmail(email)</text><polygon fill="#181818" points="1130,407.5313,1140,411.5313,1130,415.5313,1134,411.5313" style="stroke:#181818;stroke-width:1.0;"/><line style="stroke:#181818;stroke-width:1.0;" x1="1056" x2="1136" y1="411.5313" y2="411.5313"/><text fill="#000000" font-family="sans-serif" font-size="13" lengthAdjust="spacing" textLength="67" x="1063" y="406.2686">query email</text><polygon fill="#181818" points="1067,438.8223,1057,442.8223,1067,446.8223,1063,442.8223" style="stroke:#181818;stroke-width:1.0;"/><line style="stroke:#181818;stroke-width:1.0;" x1="1061" x2="1146" y1="442.8223" y2="442.8223"/><text fill="#000000" font-family="sans-serif" font-size="13" lengthAdjust="spacing" textLength="25" x="1073" y="437.5596">user</text><polygon fill="#181818" points="902,470.1133,892,474.1133,902,478.1133,898,474.1133" style="stroke:#181818;stroke-width:1.0;"/><line style="stroke:#181818;stroke-width:1.0;" x1="896" x2="1050" y1="474.1133" y2="474.1133"/><text fill="#000000" font-family="sans-serif" font-size="13" lengthAdjust="spacing" textLength="25" x="908" y="468.8506">user</text><polygon fill="#181818" points="764,501.4043,754,505.4043,764,509.4043,760,505.4043" style="stroke:#181818;stroke-width:1.0;"/><line style="stroke:#181818;stroke-width:1.0;" x1="758" x2="885" y1="505.4043" y2="505.4043"/><text fill="#000000" font-family="sans-serif" font-size="13" lengthAdjust="spacing" textLength="43" x="770" y="500.1416">userdto</text><polygon fill="#181818" points="541.5,532.6953,531.5,536.6953,541.5,540.6953,537.5,536.6953" style="stroke:#181818;stroke-width:1.0;"/><line style="stroke:#181818;stroke-width:1.0;" x1="535.5" x2="747" y1="536.6953" y2="536.6953"/><text fill="#000000" font-family="sans-serif" font-size="13" lengthAdjust="spacing" textLength="43" x="547.5" y="531.4326">userdto</text><polygon fill="#181818" points="427.5,563.9863,417.5,567.9863,427.5,571.9863,423.5,567.9863" style="stroke:#181818;stroke-width:1.0;"/><line style="stroke:#181818;stroke-width:1.0;" x1="421.5" x2="524.5" y1="567.9863" y2="567.9863"/><text fill="#000000" font-family="sans-serif" font-size="13" lengthAdjust="spacing" textLength="25" x="433.5" y="562.7236">user</text><polygon fill="#181818" points="256.5,595.2773,246.5,599.2773,256.5,603.2773,252.5,599.2773" style="stroke:#181818;stroke-width:1.0;"/><line style="stroke:#181818;stroke-width:1.0;" x1="250.5" x2="410.5" y1="599.2773" y2="599.2773"/><text fill="#000000" font-family="sans-serif" font-size="13" lengthAdjust="spacing" textLength="137" x="262.5" y="594.0146">display user information</text><polygon fill="#181818" points="33.5,626.5684,23.5,630.5684,33.5,634.5684,29.5,630.5684" style="stroke:#181818;stroke-width:1.0;"/><line style="stroke:#181818;stroke-width:1.0;" x1="27.5" x2="239.5" y1="630.5684" y2="630.5684"/><text fill="#000000" font-family="sans-serif" font-size="13" lengthAdjust="spacing" textLength="133" x="39.5" y="625.3057">shows user information</text><!--SRC=[VPB1Ri8m38RlUOeSjyDUWCCa5i5XnuPivwWr8wBK8GcWlltij8LKHLogAl_t_x4TspfXa2P24Dw6v6hdRPVaZuFRx43XoMC7z6UZL3Df6x1BcwxH4Awk1WQs6pr3rfTqAEJrNENR5MK4R5i831Yr00gxMTehy1WTjT9de5e0-LW8MoTtjGc6ZhFmyPcxbIj2Zb4cb7z0NSeQVIznBzC1N90-uDwry0Z84yf62b3a9XVdlRq_62KKgsizo3iyGbVgD0VIHdzYLJHGgjbEmopYCrPayAYP8D2e5noDrEGuCwPzzKCz2r0Be-zW0pKsyFsxsvoiQoTu1AefQH21lsLI9GXXaBZp1UXnCb8Gmjo3BlmYHVjcCkjdOZNLe4QrIJW3zDZkCBrdX9hcffvSm6DLnMuqBlhMzfcJhjjZEDdaSFPWwhuFUR5MCXxm5bzQyXQLHN4P_m00]--></g></svg>