<?xml version="1.0" encoding="us-ascii" standalone="no"?><svg xmlns="http://www.w3.org/2000/svg" xmlns:xlink="http://www.w3.org/1999/xlink" contentStyleType="text/css" height="448px" preserveAspectRatio="none" style="width:488px;height:448px;background:#FFFFFF;" version="1.1" viewBox="0 0 488 448" width="488px" zoomAndPan="magnify"><defs/><g><rect fill="#FFFFFF" height="230.4551" style="stroke:#181818;stroke-width:1.0;" width="10" x="198" y="116.9121"/><rect fill="#FFFFFF" height="142.873" style="stroke:#181818;stroke-width:1.0;" width="10" x="336" y="148.2031"/><line style="stroke:#181818;stroke-width:0.5;stroke-dasharray:5.0,5.0;" x1="52" x2="52" y1="83.6211" y2="365.3672"/><line style="stroke:#181818;stroke-width:0.5;stroke-dasharray:5.0,5.0;" x1="203" x2="203" y1="83.6211" y2="365.3672"/><line style="stroke:#181818;stroke-width:0.5;stroke-dasharray:5.0,5.0;" x1="341" x2="341" y1="83.6211" y2="365.3672"/><text fill="#000000" font-family="sans-serif" font-size="14" lengthAdjust="spacing" textLength="88" x="5" y="80.1074">FleetManager</text><ellipse cx="52" cy="13.5" fill="#E2E2F0" rx="8" ry="8" style="stroke:#181818;stroke-width:0.5;"/><path d="M52,21.5 L52,48.5 M39,29.5 L65,29.5 M52,48.5 L39,63.5 M52,48.5 L65,63.5 " fill="none" style="stroke:#181818;stroke-width:0.5;"/><text fill="#000000" font-family="sans-serif" font-size="14" lengthAdjust="spacing" textLength="88" x="5" y="379.4746">FleetManager</text><ellipse cx="52" cy="391.4883" fill="#E2E2F0" rx="8" ry="8" style="stroke:#181818;stroke-width:0.5;"/><path d="M52,399.4883 L52,426.4883 M39,407.4883 L65,407.4883 M52,426.4883 L39,441.4883 M52,426.4883 L65,441.4883 " fill="none" style="stroke:#181818;stroke-width:0.5;"/><rect fill="#E2E2F0" height="32.6211" rx="2.5" ry="2.5" style="stroke:#181818;stroke-width:0.5;" width="26" x="190" y="50"/><text fill="#000000" font-family="sans-serif" font-size="14" lengthAdjust="spacing" textLength="12" x="197" y="72.1074">UI</text><rect fill="#E2E2F0" height="32.6211" rx="2.5" ry="2.5" style="stroke:#181818;stroke-width:0.5;" width="26" x="190" y="364.3672"/><text fill="#000000" font-family="sans-serif" font-size="14" lengthAdjust="spacing" textLength="12" x="197" y="386.4746">UI</text><rect fill="#E2E2F0" height="32.6211" rx="2.5" ry="2.5" style="stroke:#181818;stroke-width:0.5;" width="52" x="315" y="50"/><text fill="#000000" font-family="sans-serif" font-size="14" lengthAdjust="spacing" textLength="38" x="322" y="72.1074">Route</text><rect fill="#E2E2F0" height="32.6211" rx="2.5" ry="2.5" style="stroke:#181818;stroke-width:0.5;" width="52" x="315" y="364.3672"/><text fill="#000000" font-family="sans-serif" font-size="14" lengthAdjust="spacing" textLength="38" x="322" y="386.4746">Route</text><rect fill="#FFFFFF" height="230.4551" style="stroke:#181818;stroke-width:1.0;" width="10" x="198" y="116.9121"/><rect fill="#FFFFFF" height="142.873" style="stroke:#181818;stroke-width:1.0;" width="10" x="336" y="148.2031"/><polygon fill="#181818" points="186,112.9121,196,116.9121,186,120.9121,190,116.9121" style="stroke:#181818;stroke-width:1.0;"/><line style="stroke:#181818;stroke-width:1.0;" x1="52" x2="192" y1="116.9121" y2="116.9121"/><text fill="#000000" font-family="sans-serif" font-size="13" font-weight="bold" lengthAdjust="spacing" textLength="7" x="59" y="111.6494">1</text><text fill="#000000" font-family="sans-serif" font-size="13" lengthAdjust="spacing" textLength="116" x="70" y="111.6494">request create robot</text><polygon fill="#181818" points="324,144.2031,334,148.2031,324,152.2031,328,148.2031" style="stroke:#181818;stroke-width:1.0;"/><line style="stroke:#181818;stroke-width:1.0;" x1="208" x2="330" y1="148.2031" y2="148.2031"/><text fill="#000000" font-family="sans-serif" font-size="13" font-weight="bold" lengthAdjust="spacing" textLength="7" x="215" y="142.9404">2</text><text fill="#000000" font-family="sans-serif" font-size="13" lengthAdjust="spacing" textLength="91" x="226" y="142.9404">post('/api/robot')</text><line style="stroke:#181818;stroke-width:1.0;" x1="346" x2="388" y1="221.7852" y2="221.7852"/><line style="stroke:#181818;stroke-width:1.0;" x1="388" x2="388" y1="221.7852" y2="234.7852"/><line style="stroke:#181818;stroke-width:1.0;" x1="347" x2="388" y1="234.7852" y2="234.7852"/><polygon fill="#181818" points="357,230.7852,347,234.7852,357,238.7852,353,234.7852" style="stroke:#181818;stroke-width:1.0;"/><text fill="#000000" font-family="sans-serif" font-size="13" font-weight="bold" lengthAdjust="spacing" textLength="7" x="353" y="207.877">3</text><text fill="#000000" font-family="sans-serif" font-size="13" lengthAdjust="spacing" textLength="76" x="364" y="199.2314">creates robot</text><text fill="#000000" font-family="sans-serif" font-size="13" lengthAdjust="spacing" textLength="113" x="368" y="216.5225">saves and returns it</text><polygon fill="#181818" points="219,287.0762,209,291.0762,219,295.0762,215,291.0762" style="stroke:#181818;stroke-width:1.0;"/><line style="stroke:#181818;stroke-width:1.0;" x1="213" x2="340" y1="291.0762" y2="291.0762"/><text fill="#000000" font-family="sans-serif" font-size="13" font-weight="bold" lengthAdjust="spacing" textLength="7" x="225" y="285.8135">4</text><text fill="#000000" font-family="sans-serif" font-size="13" lengthAdjust="spacing" textLength="93" x="236" y="285.8135">response status</text><polygon fill="#181818" points="63,343.3672,53,347.3672,63,351.3672,59,347.3672" style="stroke:#181818;stroke-width:1.0;"/><line style="stroke:#181818;stroke-width:1.0;" x1="57" x2="202" y1="347.3672" y2="347.3672"/><text fill="#000000" font-family="sans-serif" font-size="13" font-weight="bold" lengthAdjust="spacing" textLength="7" x="69" y="342.1045">5</text><text fill="#000000" font-family="sans-serif" font-size="13" lengthAdjust="spacing" textLength="106" x="80" y="342.1045">operation success</text><!--SRC=[NOwxRiCm34LtVGKtjqEgFKF70Xww2F2MXP69L80jgIILoHzVAauGf1iVX-To-56jSlI-BfYrhSj7BAiN-csK8ntcX1V6rJbiMd9RpyHMHoqCNmkHVcF62p6WmEGgigQOgebW6c-pyMKOIbE2lWZEJN3uxDWHkAU9GcH2stCv5-qXwTfRSnXbR32q5j6tmMDD_eODx-v91hTjcmiFTjV9xeDJ1i6hjPXdIzJ6MI3fy-J-YjIIXK0KjOcRwPzzVsKoj5HYr5JCss8aUO6dyGy0]--></g></svg>