<?xml version="1.0" encoding="us-ascii" standalone="no"?><svg xmlns="http://www.w3.org/2000/svg" xmlns:xlink="http://www.w3.org/1999/xlink" contentStyleType="text/css" height="1162px" preserveAspectRatio="none" style="width:762px;height:1162px;background:#FFFFFF;" version="1.1" viewBox="0 0 762 1162" width="762px" zoomAndPan="magnify"><defs/><g><!--cluster MDR--><g id="cluster_MDR"><rect fill="#0FAAFF" height="1043" rx="2.5" ry="2.5" style="stroke:#181818;stroke-width:1.0;" width="749" x="7" y="113"/><rect fill="#0FAAFF" height="10" style="stroke:#181818;stroke-width:1.0;" width="15" x="736" y="118"/><rect fill="#0FAAFF" height="2" style="stroke:#181818;stroke-width:1.0;" width="4" x="734" y="120"/><rect fill="#0FAAFF" height="2" style="stroke:#181818;stroke-width:1.0;" width="4" x="734" y="124"/><text fill="#000000" font-family="sans-serif" font-size="14" font-style="italic" lengthAdjust="spacing" textLength="104" x="329.5" y="142.1074">&#171;container (c4)&#187;</text><text fill="#000000" font-family="sans-serif" font-size="14" font-weight="bold" lengthAdjust="spacing" textLength="23" x="368" y="162.7285">MD</text></g><!--cluster EB--><g id="cluster_EB"><path d="M373.5,1006 L563.5,1006 A3.75,3.75 0 0 1 566,1008.5 L573,1032.6211 L573.5,1032.6211 A2.5,2.5 0 0 1 576,1035.1211 L576,1129.5 A2.5,2.5 0 0 1 573.5,1132 L373.5,1132 A2.5,2.5 0 0 1 371,1129.5 L371,1008.5 A2.5,2.5 0 0 1 373.5,1006 " fill="#A0AAFA" style="stroke:#000000;stroke-width:1.5;"/><line style="stroke:#000000;stroke-width:1.5;" x1="371" x2="573" y1="1032.6211" y2="1032.6211"/><text fill="#000000" font-family="sans-serif" font-size="14" font-weight="bold" lengthAdjust="spacing" textLength="187" x="376" y="1024.1074">Enterprise Business Rules</text></g><!--cluster AB--><g id="cluster_AB"><path d="M308.5,749 L502.5,749 A3.75,3.75 0 0 1 505,751.5 L512,775.6211 L513.5,775.6211 A2.5,2.5 0 0 1 516,778.1211 L516,872.5 A2.5,2.5 0 0 1 513.5,875 L308.5,875 A2.5,2.5 0 0 1 306,872.5 L306,751.5 A2.5,2.5 0 0 1 308.5,749 " fill="#FFD000" style="stroke:#000000;stroke-width:1.5;"/><line style="stroke:#000000;stroke-width:1.5;" x1="306" x2="512" y1="775.6211" y2="775.6211"/><text fill="#000000" font-family="sans-serif" font-size="14" font-weight="bold" lengthAdjust="spacing" textLength="191" x="311" y="767.1074">Application Business Rules</text></g><!--cluster IAL--><g id="cluster_IAL"><path d="M167.5,454 L350.5,454 A3.75,3.75 0 0 1 353,456.5 L360,480.6211 L668.5,480.6211 A2.5,2.5 0 0 1 671,483.1211 L671,577.5 A2.5,2.5 0 0 1 668.5,580 L167.5,580 A2.5,2.5 0 0 1 165,577.5 L165,456.5 A2.5,2.5 0 0 1 167.5,454 " fill="#00A36C" style="stroke:#000000;stroke-width:1.5;"/><line style="stroke:#000000;stroke-width:1.5;" x1="165" x2="360" y1="480.6211" y2="480.6211"/><text fill="#000000" font-family="sans-serif" font-size="14" font-weight="bold" lengthAdjust="spacing" textLength="180" x="170" y="472.1074">Interface Adapters Layers</text></g><!--cluster FDL--><g id="cluster_FDL"><path d="M41.5,151 L250.5,151 A3.75,3.75 0 0 1 253,153.5 L260,177.6211 L591.5,177.6211 A2.5,2.5 0 0 1 594,180.1211 L594,290.5 A2.5,2.5 0 0 1 591.5,293 L41.5,293 A2.5,2.5 0 0 1 39,290.5 L39,153.5 A2.5,2.5 0 0 1 41.5,151 " fill="#FFA000" style="stroke:#000000;stroke-width:1.5;"/><line style="stroke:#000000;stroke-width:1.5;" x1="39" x2="260" y1="177.6211" y2="177.6211"/><text fill="#000000" font-family="sans-serif" font-size="14" font-weight="bold" lengthAdjust="spacing" textLength="206" x="44" y="169.1074">Frameworks &amp; Drivers Layers</text></g><text fill="#000000" font-family="sans-serif" font-size="14" lengthAdjust="spacing" textLength="4" x="144" y="90.4863">&#160;</text><rect fill="#0FAAFF" height="12" style="stroke:#181818;stroke-width:1.5;" width="12" x="140" y="107"/><text fill="#000000" font-family="sans-serif" font-size="14" lengthAdjust="spacing" textLength="4" x="307" y="90.4863">&#160;</text><rect fill="#0FAAFF" height="12" style="stroke:#181818;stroke-width:1.5;" width="12" x="303" y="107"/><text fill="#000000" font-family="sans-serif" font-size="14" lengthAdjust="spacing" textLength="4" x="487" y="90.4863">&#160;</text><rect fill="#0FAAFF" height="12" style="stroke:#181818;stroke-width:1.5;" width="12" x="483" y="107"/><!--entity DTO--><g id="elem_DTO"><rect fill="#0FAAFF" height="71.2422" rx="2.5" ry="2.5" style="stroke:#181818;stroke-width:0.5;" width="128" x="23" y="640.5"/><rect fill="#0FAAFF" height="10" style="stroke:#181818;stroke-width:0.5;" width="15" x="131" y="645.5"/><rect fill="#0FAAFF" height="2" style="stroke:#181818;stroke-width:0.5;" width="4" x="129" y="647.5"/><rect fill="#0FAAFF" height="2" style="stroke:#181818;stroke-width:0.5;" width="4" x="129" y="651.5"/><text fill="#000000" font-family="sans-serif" font-size="14" font-style="italic" lengthAdjust="spacing" textLength="86" x="39" y="676.6074">&#171;component&#187;</text><text fill="#000000" font-family="sans-serif" font-size="14" font-weight="bold" lengthAdjust="spacing" textLength="29" x="67.5" y="697.2285">DTO</text></g><!--entity DM--><g id="elem_DM"><rect fill="#0FAAFF" height="71.2422" rx="2.5" ry="2.5" style="stroke:#181818;stroke-width:0.5;" width="128" x="429" y="345.5"/><rect fill="#0FAAFF" height="10" style="stroke:#181818;stroke-width:0.5;" width="15" x="537" y="350.5"/><rect fill="#0FAAFF" height="2" style="stroke:#181818;stroke-width:0.5;" width="4" x="535" y="352.5"/><rect fill="#0FAAFF" height="2" style="stroke:#181818;stroke-width:0.5;" width="4" x="535" y="356.5"/><text fill="#000000" font-family="sans-serif" font-size="14" font-style="italic" lengthAdjust="spacing" textLength="86" x="445" y="381.6074">&#171;component&#187;</text><text fill="#000000" font-family="sans-serif" font-size="14" font-weight="bold" lengthAdjust="spacing" textLength="79" x="448.5" y="402.2285">Data Model</text></g><!--entity R_API--><g id="elem_R_API"><ellipse cx="440" cy="676" fill="#0FAAFF" rx="8" ry="8" style="stroke:#181818;stroke-width:0.5;"/><text fill="#000000" font-family="sans-serif" font-size="14" font-weight="bold" lengthAdjust="spacing" textLength="102" x="389" y="709.1074">Repository API</text></g><!--entity C_API--><g id="elem_C_API"><ellipse cx="150" cy="381" fill="#0FAAFF" rx="8" ry="8" style="stroke:#181818;stroke-width:0.5;"/><text fill="#000000" font-family="sans-serif" font-size="14" font-weight="bold" lengthAdjust="spacing" textLength="71" x="112.5" y="414.1074">Controller</text><text fill="#000000" font-family="sans-serif" font-size="14" lengthAdjust="spacing" textLength="4" x="183.5" y="414.1074">&#160;</text><text fill="#000000" font-family="sans-serif" font-size="14" lengthAdjust="spacing" textLength="4" x="112.5" y="432.7285">&#160;</text><text fill="#000000" font-family="sans-serif" font-size="14" font-weight="bold" lengthAdjust="spacing" textLength="22" x="116.5" y="432.7285">API</text></g><!--entity DM_API--><g id="elem_DM_API"><ellipse cx="385" cy="381" fill="#0FAAFF" rx="8" ry="8" style="stroke:#181818;stroke-width:0.5;"/><text fill="#000000" font-family="sans-serif" font-size="14" font-weight="bold" lengthAdjust="spacing" textLength="79" x="343.5" y="414.1074">Data Model</text><text fill="#000000" font-family="sans-serif" font-size="14" lengthAdjust="spacing" textLength="4" x="422.5" y="414.1074">&#160;</text><text fill="#000000" font-family="sans-serif" font-size="14" lengthAdjust="spacing" textLength="4" x="343.5" y="432.7285">&#160;</text><text fill="#000000" font-family="sans-serif" font-size="14" font-weight="bold" lengthAdjust="spacing" textLength="22" x="347.5" y="432.7285">API</text></g><!--entity P_API--><g id="elem_P_API"><ellipse cx="288" cy="381" fill="#0FAAFF" rx="8" ry="8" style="stroke:#181818;stroke-width:0.5;"/><text fill="#000000" font-family="sans-serif" font-size="14" font-weight="bold" lengthAdjust="spacing" textLength="84" x="244" y="414.1074">Persistence</text><text fill="#000000" font-family="sans-serif" font-size="14" lengthAdjust="spacing" textLength="4" x="328" y="414.1074">&#160;</text><text fill="#000000" font-family="sans-serif" font-size="14" lengthAdjust="spacing" textLength="4" x="244" y="432.7285">&#160;</text><text fill="#000000" font-family="sans-serif" font-size="14" font-weight="bold" lengthAdjust="spacing" textLength="22" x="248" y="432.7285">API</text></g><!--entity fD_API--><g id="elem_fD_API"><ellipse cx="662" cy="381" fill="#0FAAFF" rx="8" ry="8" style="stroke:#181818;stroke-width:0.5;"/><text fill="#000000" font-family="sans-serif" font-size="14" font-weight="bold" lengthAdjust="spacing" textLength="118" x="601" y="414.1074">filesystem driver</text><text fill="#000000" font-family="sans-serif" font-size="14" lengthAdjust="spacing" textLength="4" x="719" y="414.1074">&#160;</text><text fill="#000000" font-family="sans-serif" font-size="14" lengthAdjust="spacing" textLength="4" x="601" y="432.7285">&#160;</text><text fill="#000000" font-family="sans-serif" font-size="14" font-weight="bold" lengthAdjust="spacing" textLength="22" x="605" y="432.7285">API</text></g><!--entity gsx_API--><g id="elem_gsx_API"><ellipse cx="581" cy="823.5" fill="#0FAAFF" rx="8" ry="8" style="stroke:#181818;stroke-width:0.5;"/><text fill="#000000" font-family="sans-serif" font-size="14" font-weight="bold" lengthAdjust="spacing" textLength="92" x="535" y="856.6074">gsx Repo API</text></g><!--entity S_API--><g id="elem_S_API"><ellipse cx="292" cy="676" fill="#0FAAFF" rx="8" ry="8" style="stroke:#181818;stroke-width:0.5;"/><text fill="#000000" font-family="sans-serif" font-size="14" font-weight="bold" lengthAdjust="spacing" textLength="85" x="247.5" y="709.1074">App Service</text><text fill="#000000" font-family="sans-serif" font-size="14" lengthAdjust="spacing" textLength="4" x="332.5" y="709.1074">&#160;</text><text fill="#000000" font-family="sans-serif" font-size="14" lengthAdjust="spacing" textLength="4" x="247.5" y="727.7285">&#160;</text><text fill="#000000" font-family="sans-serif" font-size="14" font-weight="bold" lengthAdjust="spacing" textLength="22" x="251.5" y="727.7285">API</text></g><!--entity DTO_API--><g id="elem_DTO_API"><ellipse cx="195" cy="676" fill="#0FAAFF" rx="8" ry="8" style="stroke:#181818;stroke-width:0.5;"/><text fill="#000000" font-family="sans-serif" font-size="14" font-weight="bold" lengthAdjust="spacing" textLength="29" x="178.5" y="709.1074">DTO</text><text fill="#000000" font-family="sans-serif" font-size="14" lengthAdjust="spacing" textLength="4" x="207.5" y="709.1074">&#160;</text><text fill="#000000" font-family="sans-serif" font-size="14" lengthAdjust="spacing" textLength="4" x="178.5" y="727.7285">&#160;</text><text fill="#000000" font-family="sans-serif" font-size="14" font-weight="bold" lengthAdjust="spacing" textLength="22" x="182.5" y="727.7285">API</text></g><!--entity M_API--><g id="elem_M_API"><ellipse cx="473" cy="952" fill="#0FAAFF" rx="8" ry="8" style="stroke:#181818;stroke-width:0.5;"/><text fill="#000000" font-family="sans-serif" font-size="14" font-weight="bold" lengthAdjust="spacing" textLength="70" x="438" y="985.1074">Model API</text></g><!--entity Domain--><g id="elem_Domain"><rect fill="#0FAAFF" height="71.2422" rx="2.5" ry="2.5" style="stroke:#181818;stroke-width:0.5;" width="142" x="402" y="1045"/><rect fill="#0FAAFF" height="10" style="stroke:#181818;stroke-width:0.5;" width="15" x="524" y="1050"/><rect fill="#0FAAFF" height="2" style="stroke:#181818;stroke-width:0.5;" width="4" x="522" y="1052"/><rect fill="#0FAAFF" height="2" style="stroke:#181818;stroke-width:0.5;" width="4" x="522" y="1056"/><text fill="#000000" font-family="sans-serif" font-size="14" font-style="italic" lengthAdjust="spacing" textLength="86" x="425" y="1081.1074">&#171;component&#187;</text><text fill="#000000" font-family="sans-serif" font-size="14" font-weight="bold" lengthAdjust="spacing" textLength="100" x="418" y="1101.7285">Domain Model</text></g><!--entity AppService--><g id="elem_AppService"><rect fill="#0FAAFF" height="71.2422" rx="2.5" ry="2.5" style="stroke:#181818;stroke-width:0.5;" width="178" x="322" y="788"/><rect fill="#0FAAFF" height="10" style="stroke:#181818;stroke-width:0.5;" width="15" x="480" y="793"/><rect fill="#0FAAFF" height="2" style="stroke:#181818;stroke-width:0.5;" width="4" x="478" y="795"/><rect fill="#0FAAFF" height="2" style="stroke:#181818;stroke-width:0.5;" width="4" x="478" y="799"/><text fill="#000000" font-family="sans-serif" font-size="14" font-style="italic" lengthAdjust="spacing" textLength="86" x="363" y="824.1074">&#171;component&#187;</text><text fill="#000000" font-family="sans-serif" font-size="14" font-weight="bold" lengthAdjust="spacing" textLength="136" x="338" y="844.7285">Application Service</text></g><!--entity C--><g id="elem_C"><rect fill="#0FAAFF" height="71.2422" rx="2.5" ry="2.5" style="stroke:#181818;stroke-width:0.5;" width="128" x="181" y="493"/><rect fill="#0FAAFF" height="10" style="stroke:#181818;stroke-width:0.5;" width="15" x="289" y="498"/><rect fill="#0FAAFF" height="2" style="stroke:#181818;stroke-width:0.5;" width="4" x="287" y="500"/><rect fill="#0FAAFF" height="2" style="stroke:#181818;stroke-width:0.5;" width="4" x="287" y="504"/><text fill="#000000" font-family="sans-serif" font-size="14" font-style="italic" lengthAdjust="spacing" textLength="86" x="197" y="529.1074">&#171;component&#187;</text><text fill="#000000" font-family="sans-serif" font-size="14" font-weight="bold" lengthAdjust="spacing" textLength="71" x="204.5" y="549.7285">Controller</text></g><!--entity Repository--><g id="elem_Repository"><rect fill="#0FAAFF" height="71.2422" rx="2.5" ry="2.5" style="stroke:#181818;stroke-width:0.5;" width="128" x="344" y="493"/><rect fill="#0FAAFF" height="10" style="stroke:#181818;stroke-width:0.5;" width="15" x="452" y="498"/><rect fill="#0FAAFF" height="2" style="stroke:#181818;stroke-width:0.5;" width="4" x="450" y="500"/><rect fill="#0FAAFF" height="2" style="stroke:#181818;stroke-width:0.5;" width="4" x="450" y="504"/><text fill="#000000" font-family="sans-serif" font-size="14" font-style="italic" lengthAdjust="spacing" textLength="86" x="360" y="529.1074">&#171;component&#187;</text><text fill="#000000" font-family="sans-serif" font-size="14" font-weight="bold" lengthAdjust="spacing" textLength="76" x="365" y="549.7285">Repository</text></g><!--entity gsxRepo--><g id="elem_gsxRepo"><rect fill="#0FAAFF" height="71.2422" rx="2.5" ry="2.5" style="stroke:#181818;stroke-width:0.5;" width="147" x="507.5" y="493"/><rect fill="#0FAAFF" height="10" style="stroke:#181818;stroke-width:0.5;" width="15" x="634.5" y="498"/><rect fill="#0FAAFF" height="2" style="stroke:#181818;stroke-width:0.5;" width="4" x="632.5" y="500"/><rect fill="#0FAAFF" height="2" style="stroke:#181818;stroke-width:0.5;" width="4" x="632.5" y="504"/><text fill="#000000" font-family="sans-serif" font-size="14" font-style="italic" lengthAdjust="spacing" textLength="86" x="533" y="529.1074">&#171;component&#187;</text><text fill="#000000" font-family="sans-serif" font-size="14" font-weight="bold" lengthAdjust="spacing" textLength="105" x="523.5" y="549.7285">gsx Repository</text></g><!--entity Routing--><g id="elem_Routing"><rect fill="#0FAAFF" height="71.2422" rx="2.5" ry="2.5" style="stroke:#181818;stroke-width:0.5;" width="128" x="82" y="198"/><rect fill="#0FAAFF" height="10" style="stroke:#181818;stroke-width:0.5;" width="15" x="190" y="203"/><rect fill="#0FAAFF" height="2" style="stroke:#181818;stroke-width:0.5;" width="4" x="188" y="205"/><rect fill="#0FAAFF" height="2" style="stroke:#181818;stroke-width:0.5;" width="4" x="188" y="209"/><text fill="#000000" font-family="sans-serif" font-size="14" font-style="italic" lengthAdjust="spacing" textLength="86" x="98" y="234.1074">&#171;component&#187;</text><text fill="#000000" font-family="sans-serif" font-size="14" font-weight="bold" lengthAdjust="spacing" textLength="55" x="113.5" y="254.7285">Routing</text></g><!--entity P--><g id="elem_P"><rect fill="#0FAAFF" height="71.2422" rx="2.5" ry="2.5" style="stroke:#181818;stroke-width:0.5;" width="128" x="245" y="198"/><rect fill="#0FAAFF" height="10" style="stroke:#181818;stroke-width:0.5;" width="15" x="353" y="203"/><rect fill="#0FAAFF" height="2" style="stroke:#181818;stroke-width:0.5;" width="4" x="351" y="205"/><rect fill="#0FAAFF" height="2" style="stroke:#181818;stroke-width:0.5;" width="4" x="351" y="209"/><text fill="#000000" font-family="sans-serif" font-size="14" font-style="italic" lengthAdjust="spacing" textLength="86" x="261" y="234.1074">&#171;component&#187;</text><text fill="#000000" font-family="sans-serif" font-size="14" font-weight="bold" lengthAdjust="spacing" textLength="84" x="262" y="254.7285">Persistence</text></g><!--entity FD--><g id="elem_FD"><rect fill="#0FAAFF" height="71.2422" rx="2.5" ry="2.5" style="stroke:#181818;stroke-width:0.5;" width="161" x="408.5" y="198"/><rect fill="#0FAAFF" height="10" style="stroke:#181818;stroke-width:0.5;" width="15" x="549.5" y="203"/><rect fill="#0FAAFF" height="2" style="stroke:#181818;stroke-width:0.5;" width="4" x="547.5" y="205"/><rect fill="#0FAAFF" height="2" style="stroke:#181818;stroke-width:0.5;" width="4" x="547.5" y="209"/><text fill="#000000" font-family="sans-serif" font-size="14" font-style="italic" lengthAdjust="spacing" textLength="86" x="441" y="234.1074">&#171;component&#187;</text><text fill="#000000" font-family="sans-serif" font-size="14" font-weight="bold" lengthAdjust="spacing" textLength="119" x="424.5" y="254.7285">filesystem Driver</text></g><!--entity MDR_API--><g id="elem_MDR_API"><ellipse cx="146" cy="14" fill="#0FAAFF" rx="8" ry="8" style="stroke:#181818;stroke-width:0.5;"/><text fill="#000000" font-family="sans-serif" font-size="14" font-weight="bold" lengthAdjust="spacing" textLength="49" x="121.5" y="47.1074">MD API</text></g><!--entity Mongo_API--><g id="elem_Mongo_API"><ellipse cx="309" cy="14" fill="#0FAAFF" rx="8" ry="8" style="stroke:#181818;stroke-width:0.5;"/><text fill="#000000" font-family="sans-serif" font-size="14" font-weight="bold" lengthAdjust="spacing" textLength="66" x="276" y="47.1074">SGBD API</text></g><!--entity filesystem_API--><g id="elem_filesystem_API"><ellipse cx="489" cy="14" fill="#0FAAFF" rx="8" ry="8" style="stroke:#181818;stroke-width:0.5;"/><text fill="#000000" font-family="sans-serif" font-size="14" font-weight="bold" lengthAdjust="spacing" textLength="97" x="440.5" y="47.1074">filesystem API</text></g><!--link P to FD--><!--link Routing to P--><!--link FDL to p1--><!--link MDR_API to p1--><g id="link_MDR_API_p1"><path d="M146,23.27 C146,42.7 146,90.8 146,106.76 " fill="none" id="MDR_API-p1" style="stroke:#181818;stroke-width:1.0;"/></g><!--link p1 to Routing--><g id="link_p1_Routing"><path d="M146,119.09 C146,132.51 146,169.77 146,197.95 " fill="none" id="p1-Routing" style="stroke:#181818;stroke-width:1.0;"/></g><!--link Routing to C_API--><g id="link_Routing_C_API"><path d="M146.96,269.35 C147.89,303.32 148.9751,342.5738 149.5051,361.8438 " fill="none" id="Routing-to-C_API" style="stroke:#181818;stroke-width:1.0;"/><path d="M158.1494,368.5305 A9,9 0 0 0 141.2413 368.9955" fill="none" style="stroke:#181818;stroke-width:1.5;"/></g><!--link C_API to C--><g id="link_C_API_C"><path d="M155.38,390.24 C168.02,409.6 200.21,458.9 222.36,492.82 " fill="none" id="C_API-C" style="stroke:#181818;stroke-width:1.0;"/></g><!--link C to DTO_API--><g id="link_C_DTO_API"><path d="M233.02,564.35 C221.35,598.32 207.6834,638.114 201.0534,657.384 " fill="none" id="C-to-DTO_API" style="stroke:#181818;stroke-width:1.0;"/><path d="M206.7986,666.6808 A9,9 0 0 0 190.8043 661.1778" fill="none" style="stroke:#181818;stroke-width:1.5;"/></g><!--link DTO to DTO_API--><g id="link_DTO_DTO_API"><path d="M151.12,676 C162.67,676 174.21,676 185.75,676 " fill="none" id="DTO-DTO_API" style="stroke:#181818;stroke-width:1.0;"/></g><!--link C to S_API--><g id="link_C_S_API"><path d="M256.26,564.35 C267.23,598.32 280.0682,638.0535 286.2882,657.3235 " fill="none" id="C-to-S_API" style="stroke:#181818;stroke-width:1.0;"/><path d="M296.4628,661.3128 A9,9 0 0 0 280.3661 666.5085" fill="none" style="stroke:#181818;stroke-width:1.5;"/></g><!--link S_API to AppService--><g id="link_S_API_AppService"><path d="M298.74,685.24 C314.57,704.6 354.89,753.9 382.64,787.82 " fill="none" id="S_API-AppService" style="stroke:#181818;stroke-width:1.0;"/></g><!--reverse link DTO_API to AppService--><g id="link_DTO_API_AppService"><path d="M200.8355,694.6718 C204.6255,705.6418 209.39,715.68 222,728 C250.08,755.43 287.7,776.44 321.99,791.6 " fill="none" id="DTO_API-backto-AppService" style="stroke:#181818;stroke-width:1.0;"/><path d="M190.5816,690.8911 A9,9 0 0 0 206.5688 685.3677" fill="none" style="stroke:#181818;stroke-width:1.5;"/></g><!--link AppService to M_API--><g id="link_AppService_M_API"><path d="M427.94,859.07 C442,887.74 456.5375,917.4213 464.6475,933.9613 " fill="none" id="AppService-to-M_API" style="stroke:#181818;stroke-width:1.0;"/><path d="M475.2884,936.4529 A9,9 0 0 0 460.1013 943.8995" fill="none" style="stroke:#181818;stroke-width:1.5;"/></g><!--reverse link Mongo_API to p2--><g id="link_Mongo_API_p2"><path d="M309,33.27 C309,52.7 309,90.8 309,106.76 " fill="none" id="Mongo_API-backto-p2" style="stroke:#181818;stroke-width:1.0;"/><path d="M300.5428,26.3482 A9,9 0 0 0 317.4572 26.3482" fill="none" style="stroke:#181818;stroke-width:1.5;"/></g><!--link p2 to P--><g id="link_p2_P"><path d="M309,119.09 C309,132.51 309,169.77 309,197.95 " fill="none" id="p2-P" style="stroke:#181818;stroke-width:1.0;"/></g><!--link P to P_API--><g id="link_P_P_API"><path d="M303.97,269.35 C299.07,303.32 291.96,352.57 289.18,371.84 " fill="none" id="P-P_API" style="stroke:#181818;stroke-width:1.0;"/></g><!--link P to DM_API--><g id="link_P_DM_API"><path d="M327.65,269.44 C337.11,287.23 348.73,309.23 359,329 C366.79,343.99 371.1926,352.6334 376.3026,362.7534 " fill="none" id="P-to-DM_API" style="stroke:#181818;stroke-width:1.0;"/><path d="M386.9719,365.1202 A9,9 0 0 0 371.8731 372.7442" fill="none" style="stroke:#181818;stroke-width:1.5;"/></g><!--link DM_API to DM--><g id="link_DM_API_DM"><path d="M394.28,381 C405.85,381 417.42,381 428.99,381 " fill="none" id="DM_API-DM" style="stroke:#181818;stroke-width:1.0;"/></g><!--reverse link DM_API to Repository--><g id="link_DM_API_Repository"><path d="M387.8612,400.1174 C390.9212,419.4774 397.16,458.9 402.52,492.82 " fill="none" id="DM_API-backto-Repository" style="stroke:#181818;stroke-width:1.0;"/><path d="M378.427,394.6008 A9,9 0 0 0 395.1341 391.9601" fill="none" style="stroke:#181818;stroke-width:1.5;"/></g><!--reverse link P_API to Repository--><g id="link_P_API_Repository"><path d="M301.161,397.9561 C317.121,417.3161 351.42,458.9 379.4,492.82 " fill="none" id="P_API-backto-Repository" style="stroke:#181818;stroke-width:1.0;"/><path d="M290.2324,397.9948 A9,9 0 0 0 303.2837 387.2355" fill="none" style="stroke:#181818;stroke-width:1.5;"/></g><!--link Repository to R_API--><g id="link_Repository_R_API"><path d="M415.66,564.35 C423.13,598.32 433.97,647.57 438.21,666.84 " fill="none" id="Repository-R_API" style="stroke:#181818;stroke-width:1.0;"/></g><!--link Repository to M_API--><g id="link_Repository_M_API"><path d="M455.84,564.14 C482.26,584.43 511.09,608.96 518,624 C526.16,641.77 524.9,853 516,883 C508.85,907.1 496.9959,923.3272 486.7259,935.3472 " fill="none" id="Repository-to-M_API" style="stroke:#181818;stroke-width:1.0;"/><path d="M488.6595,946.1035 A9,9 0 0 0 475.7997 935.116" fill="none" style="stroke:#181818;stroke-width:1.5;"/></g><!--link R_API to AppService--><g id="link_R_API_AppService"><path d="M438.36,685.24 C434.5,704.6 424.67,753.9 417.91,787.82 " fill="none" id="R_API-AppService" style="stroke:#181818;stroke-width:1.0;"/></g><!--reverse link filesystem_API to p3--><g id="link_filesystem_API_p3"><path d="M489,33.27 C489,52.7 489,90.8 489,106.76 " fill="none" id="filesystem_API-backto-p3" style="stroke:#181818;stroke-width:1.0;"/><path d="M480.5428,26.3482 A9,9 0 0 0 497.4572 26.3482" fill="none" style="stroke:#181818;stroke-width:1.5;"/></g><!--link p3 to FD--><g id="link_p3_FD"><path d="M489,119.09 C489,132.51 489,169.77 489,197.95 " fill="none" id="p3-FD" style="stroke:#181818;stroke-width:1.0;"/></g><!--link FD to fD_API--><g id="link_FD_fD_API"><path d="M528.07,269.33 C542.4,281.96 558.83,296.24 574,309 C602.39,332.88 636.83,360.2 652.91,372.86 " fill="none" id="FD-fD_API" style="stroke:#181818;stroke-width:1.0;"/></g><!--reverse link fD_API to gsxRepo--><g id="link_fD_API_gsxRepo"><path d="M652.5486,398.9788 C641.7786,418.3388 619.19,458.9 600.31,492.82 " fill="none" id="fD_API-backto-gsxRepo" style="stroke:#181818;stroke-width:1.0;"/><path d="M648.523,388.8186 A9,9 0 0 0 663.3042 397.0414" fill="none" style="stroke:#181818;stroke-width:1.5;"/></g><!--link gsxRepo to gsx_API--><g id="link_gsxRepo_gsx_API"><path d="M581,564.26 C581,631.87 581,777.64 581,814.1 " fill="none" id="gsxRepo-gsx_API" style="stroke:#181818;stroke-width:1.0;"/></g><!--link AppService to gsx_API--><g id="link_AppService_gsx_API"><path d="M500.32,823.5 C524.16,823.5 538.01,823.5 561.86,823.5 " fill="none" id="AppService-to-gsx_API" style="stroke:#181818;stroke-width:1.0;"/><path d="M568.7818,815.0428 A9,9 0 0 0 568.7818 831.9572" fill="none" style="stroke:#181818;stroke-width:1.5;"/></g><!--link M_API to Domain--><g id="link_M_API_Domain"><path d="M473,961.3 C473,977.95 473,1016.29 473,1044.82 " fill="none" id="M_API-Domain" style="stroke:#181818;stroke-width:1.0;"/></g><!--SRC=[XLPHQzim47xNhn0PZDOGI9knfr98x7e46cQIlcrZgBQSYjYIaPnkOVI_xoHRjfp8YVDWwUu- -TEdkrFUM4PnocHQKFIcnxIiwYCkQVbAfK98xHclY2GbhaYMCRx3TyYrCbvJcPEKudy8m_DAqlrEYWFFGb48YJ_DSaBo77sue5IKbU2KrzT1_VhhQFDxaQmmKNWI1Ei8moG89cw4u3lXn6o_BJrHEIkeEggQbaveRxG0r9E4B-E7XrJmcZ1E9Rv9lzm-FXeaq9WqUwY4h75rPwpmirleNVVZhlcfo_Xw0j7BTqEWdRVV3WAmQwedmMj_BAa9A9JHma9wILnXDxGIYjL27gqImzZGYGr14YcAWieWm3yv3W8l95ex69V71KpYG1B8H0PdmrDw4PD7_XFD97k_Gd6d_ZfOc66jGvSBm-2j4xgeAhobyfrTuGP7vOgW3-v2j2kOqQfZOWBrauiYWrnyMfgm9msj95CKBmyAibGfl3c00f1JP0OvHTfIiu-JBwA4jFRdJEFgigPRuUECnwBX0N8KB2Kr4_oSI1ndizbib0XWMoMzPDobEyKd5oYj5iy6kkfaNMIaWh72p-G8BrrliyNyQpXAAVGoSTD-Ce9qoiYtHEyUNmAoq2IX3sypz7oDSntYgD4XXjPB_mYvL_WpZanDE4h4CRbqE1jng7NtzswcyOtl9F721cKz1eqZBzQfxgYjRYSzzGF0wG-uqJBAVnLJd0oSoS3NydSbr9fr8LFewyXUFzFCJA7Jwv65Mdd0TjEqI1HsuI4A6qVR191j1bFuE8ojs_GLjErmVK5qYDiJkrCpPWdJE51_4PhuwXx1xQD72KgQjmbBMbOD2EuDmyVEUdoVQ2ZnMfraDnwpmj1egRKY3ZPnSYCtdES8haKzYYEapn96JNz7RPitOMsD85ihhSt4kTf8863jwqxWfh_1tup_]--></g></svg>