<?xml version="1.0" encoding="us-ascii" standalone="no"?><svg xmlns="http://www.w3.org/2000/svg" xmlns:xlink="http://www.w3.org/1999/xlink" contentStyleType="text/css" height="1152px" preserveAspectRatio="none" style="width:1405px;height:1152px;background:#FFFFFF;" version="1.1" viewBox="0 0 1405 1152" width="1405px" zoomAndPan="magnify"><defs/><g><rect fill="#FFFFFF" height="966.4395" style="stroke:#181818;stroke-width:1.0;" width="10" x="37.5" y="93.6211"/><rect fill="#FFFFFF" height="31.291" style="stroke:#181818;stroke-width:1.0;" width="10" x="268.5" y="116.9121"/><rect fill="#FFFFFF" height="880.5664" style="stroke:#181818;stroke-width:1.0;" width="10" x="268.5" y="179.4941"/><rect fill="#FFFFFF" height="849.2754" style="stroke:#181818;stroke-width:1.0;" width="10" x="499.5" y="210.7852"/><rect fill="#FFFFFF" height="746.4023" style="stroke:#181818;stroke-width:1.0;" width="10" x="730.5" y="242.0762"/><rect fill="#FFFFFF" height="683.8203" style="stroke:#181818;stroke-width:1.0;" width="10" x="961.5" y="273.3672"/><rect fill="#FFFFFF" height="75.582" style="stroke:#181818;stroke-width:1.0;" width="10" x="1114.5" y="304.6582"/><rect fill="#FFFFFF" height="314.9102" style="stroke:#181818;stroke-width:1.0;" width="10" x="1114.5" y="455.8223"/><rect fill="#FFFFFF" height="123.873" style="stroke:#181818;stroke-width:1.0;" width="10" x="1114.5" y="802.0234"/><rect fill="#FFFFFF" height="252.3281" style="stroke:#181818;stroke-width:1.0;" width="10" x="1273.5" y="487.1133"/><rect fill="#FFFFFF" height="30" style="stroke:#181818;stroke-width:1.0;" width="10" x="1273.5" y="864.6055"/><rect fill="none" height="207.0371" style="stroke:#000000;stroke-width:1.5;" width="1334" x="10" y="502.1133"/><line style="stroke:#181818;stroke-width:0.5;stroke-dasharray:5.0,5.0;" x1="42" x2="42" y1="83.6211" y2="1069.0605"/><line style="stroke:#181818;stroke-width:0.5;stroke-dasharray:5.0,5.0;" x1="273" x2="273" y1="83.6211" y2="1069.0605"/><line style="stroke:#181818;stroke-width:0.5;stroke-dasharray:5.0,5.0;" x1="504" x2="504" y1="83.6211" y2="1069.0605"/><line style="stroke:#181818;stroke-width:0.5;stroke-dasharray:5.0,5.0;" x1="735.5" x2="735.5" y1="83.6211" y2="1069.0605"/><line style="stroke:#181818;stroke-width:0.5;stroke-dasharray:5.0,5.0;" x1="966" x2="966" y1="83.6211" y2="1069.0605"/><line style="stroke:#181818;stroke-width:0.5;stroke-dasharray:5.0,5.0;" x1="1119.5" x2="1119.5" y1="83.6211" y2="1069.0605"/><line style="stroke:#181818;stroke-width:0.5;stroke-dasharray:5.0,5.0;" x1="1278" x2="1278" y1="83.6211" y2="1069.0605"/><line style="stroke:#181818;stroke-width:0.5;stroke-dasharray:5.0,5.0;" x1="1377" x2="1377" y1="83.6211" y2="1069.0605"/><text fill="#000000" font-family="sans-serif" font-size="14" lengthAdjust="spacing" textLength="39" x="20" y="80.1074">Admin</text><ellipse cx="42.5" cy="13.5" fill="#E2E2F0" rx="8" ry="8" style="stroke:#181818;stroke-width:0.5;"/><path d="M42.5,21.5 L42.5,48.5 M29.5,29.5 L55.5,29.5 M42.5,48.5 L29.5,63.5 M42.5,48.5 L55.5,63.5 " fill="none" style="stroke:#181818;stroke-width:0.5;"/><text fill="#000000" font-family="sans-serif" font-size="14" lengthAdjust="spacing" textLength="39" x="20" y="1083.168">Admin</text><ellipse cx="42.5" cy="1095.1816" fill="#E2E2F0" rx="8" ry="8" style="stroke:#181818;stroke-width:0.5;"/><path d="M42.5,1103.1816 L42.5,1130.1816 M29.5,1111.1816 L55.5,1111.1816 M42.5,1130.1816 L29.5,1145.1816 M42.5,1130.1816 L55.5,1145.1816 " fill="none" style="stroke:#181818;stroke-width:0.5;"/><rect fill="#E2E2F0" height="32.6211" rx="2.5" ry="2.5" style="stroke:#181818;stroke-width:0.5;" width="43" x="252" y="50"/><text fill="#000000" font-family="sans-serif" font-size="14" lengthAdjust="spacing" textLength="29" x="259" y="72.1074">View</text><rect fill="#E2E2F0" height="32.6211" rx="2.5" ry="2.5" style="stroke:#181818;stroke-width:0.5;" width="43" x="252" y="1068.0605"/><text fill="#000000" font-family="sans-serif" font-size="14" lengthAdjust="spacing" textLength="29" x="259" y="1090.168">View</text><rect fill="#E2E2F0" height="32.6211" rx="2.5" ry="2.5" style="stroke:#181818;stroke-width:0.5;" width="87" x="461" y="50"/><text fill="#000000" font-family="sans-serif" font-size="14" lengthAdjust="spacing" textLength="73" x="468" y="72.1074">Component</text><rect fill="#E2E2F0" height="32.6211" rx="2.5" ry="2.5" style="stroke:#181818;stroke-width:0.5;" width="87" x="461" y="1068.0605"/><text fill="#000000" font-family="sans-serif" font-size="14" lengthAdjust="spacing" textLength="73" x="468" y="1090.168">Component</text><rect fill="#E2E2F0" height="32.6211" rx="2.5" ry="2.5" style="stroke:#181818;stroke-width:0.5;" width="120" x="675.5" y="50"/><text fill="#000000" font-family="sans-serif" font-size="14" lengthAdjust="spacing" textLength="106" x="682.5" y="72.1074">FrontEndService</text><rect fill="#E2E2F0" height="32.6211" rx="2.5" ry="2.5" style="stroke:#181818;stroke-width:0.5;" width="120" x="675.5" y="1068.0605"/><text fill="#000000" font-family="sans-serif" font-size="14" lengthAdjust="spacing" textLength="106" x="682.5" y="1090.168">FrontEndService</text><rect fill="#E2E2F0" height="32.6211" rx="2.5" ry="2.5" style="stroke:#181818;stroke-width:0.5;" width="105" x="914" y="50"/><text fill="#000000" font-family="sans-serif" font-size="14" lengthAdjust="spacing" textLength="91" x="921" y="72.1074">UserController</text><rect fill="#E2E2F0" height="32.6211" rx="2.5" ry="2.5" style="stroke:#181818;stroke-width:0.5;" width="105" x="914" y="1068.0605"/><text fill="#000000" font-family="sans-serif" font-size="14" lengthAdjust="spacing" textLength="91" x="921" y="1090.168">UserController</text><rect fill="#E2E2F0" height="32.6211" rx="2.5" ry="2.5" style="stroke:#181818;stroke-width:0.5;" width="90" x="1074.5" y="50"/><text fill="#000000" font-family="sans-serif" font-size="14" lengthAdjust="spacing" textLength="76" x="1081.5" y="72.1074">UserService</text><rect fill="#E2E2F0" height="32.6211" rx="2.5" ry="2.5" style="stroke:#181818;stroke-width:0.5;" width="90" x="1074.5" y="1068.0605"/><text fill="#000000" font-family="sans-serif" font-size="14" lengthAdjust="spacing" textLength="76" x="1081.5" y="1090.168">UserService</text><rect fill="#E2E2F0" height="32.6211" rx="2.5" ry="2.5" style="stroke:#181818;stroke-width:0.5;" width="111" x="1223" y="50"/><text fill="#000000" font-family="sans-serif" font-size="14" lengthAdjust="spacing" textLength="97" x="1230" y="72.1074">UserRepository</text><rect fill="#E2E2F0" height="32.6211" rx="2.5" ry="2.5" style="stroke:#181818;stroke-width:0.5;" width="111" x="1223" y="1068.0605"/><text fill="#000000" font-family="sans-serif" font-size="14" lengthAdjust="spacing" textLength="97" x="1230" y="1090.168">UserRepository</text><rect fill="#E2E2F0" height="32.6211" rx="2.5" ry="2.5" style="stroke:#181818;stroke-width:0.5;" width="43" x="1356" y="50"/><text fill="#000000" font-family="sans-serif" font-size="14" lengthAdjust="spacing" textLength="29" x="1363" y="72.1074">User</text><rect fill="#E2E2F0" height="32.6211" rx="2.5" ry="2.5" style="stroke:#181818;stroke-width:0.5;" width="43" x="1356" y="1068.0605"/><text fill="#000000" font-family="sans-serif" font-size="14" lengthAdjust="spacing" textLength="29" x="1363" y="1090.168">User</text><rect fill="#FFFFFF" height="966.4395" style="stroke:#181818;stroke-width:1.0;" width="10" x="37.5" y="93.6211"/><rect fill="#FFFFFF" height="31.291" style="stroke:#181818;stroke-width:1.0;" width="10" x="268.5" y="116.9121"/><rect fill="#FFFFFF" height="880.5664" style="stroke:#181818;stroke-width:1.0;" width="10" x="268.5" y="179.4941"/><rect fill="#FFFFFF" height="849.2754" style="stroke:#181818;stroke-width:1.0;" width="10" x="499.5" y="210.7852"/><rect fill="#FFFFFF" height="746.4023" style="stroke:#181818;stroke-width:1.0;" width="10" x="730.5" y="242.0762"/><rect fill="#FFFFFF" height="683.8203" style="stroke:#181818;stroke-width:1.0;" width="10" x="961.5" y="273.3672"/><rect fill="#FFFFFF" height="75.582" style="stroke:#181818;stroke-width:1.0;" width="10" x="1114.5" y="304.6582"/><rect fill="#FFFFFF" height="314.9102" style="stroke:#181818;stroke-width:1.0;" width="10" x="1114.5" y="455.8223"/><rect fill="#FFFFFF" height="123.873" style="stroke:#181818;stroke-width:1.0;" width="10" x="1114.5" y="802.0234"/><rect fill="#FFFFFF" height="252.3281" style="stroke:#181818;stroke-width:1.0;" width="10" x="1273.5" y="487.1133"/><rect fill="#FFFFFF" height="30" style="stroke:#181818;stroke-width:1.0;" width="10" x="1273.5" y="864.6055"/><polygon fill="#181818" points="256.5,112.9121,266.5,116.9121,256.5,120.9121,260.5,116.9121" style="stroke:#181818;stroke-width:1.0;"/><line style="stroke:#181818;stroke-width:1.0;" x1="47.5" x2="262.5" y1="116.9121" y2="116.9121"/><text fill="#000000" font-family="sans-serif" font-size="13" lengthAdjust="spacing" textLength="114" x="54.5" y="111.6494">wants to add a user</text><polygon fill="#181818" points="58.5,144.2031,48.5,148.2031,58.5,152.2031,54.5,148.2031" style="stroke:#181818;stroke-width:1.0;"/><line style="stroke:#181818;stroke-width:1.0;" x1="52.5" x2="272.5" y1="148.2031" y2="148.2031"/><text fill="#000000" font-family="sans-serif" font-size="13" lengthAdjust="spacing" textLength="146" x="64.5" y="142.9404">shows form to add a user</text><polygon fill="#181818" points="256.5,175.4941,266.5,179.4941,256.5,183.4941,260.5,179.4941" style="stroke:#181818;stroke-width:1.0;"/><line style="stroke:#181818;stroke-width:1.0;" x1="47.5" x2="262.5" y1="179.4941" y2="179.4941"/><text fill="#000000" font-family="sans-serif" font-size="13" lengthAdjust="spacing" textLength="70" x="54.5" y="174.2314">fills the form</text><polygon fill="#181818" points="487.5,206.7852,497.5,210.7852,487.5,214.7852,491.5,210.7852" style="stroke:#181818;stroke-width:1.0;"/><line style="stroke:#181818;stroke-width:1.0;" x1="278.5" x2="493.5" y1="210.7852" y2="210.7852"/><text fill="#000000" font-family="sans-serif" font-size="13" lengthAdjust="spacing" textLength="136" x="285.5" y="205.5225">createUser(data, token)</text><polygon fill="#181818" points="718.5,238.0762,728.5,242.0762,718.5,246.0762,722.5,242.0762" style="stroke:#181818;stroke-width:1.0;"/><line style="stroke:#181818;stroke-width:1.0;" x1="509.5" x2="724.5" y1="242.0762" y2="242.0762"/><text fill="#000000" font-family="sans-serif" font-size="13" lengthAdjust="spacing" textLength="136" x="516.5" y="236.8135">createUser(data, token)</text><polygon fill="#181818" points="949.5,269.3672,959.5,273.3672,949.5,277.3672,953.5,273.3672" style="stroke:#181818;stroke-width:1.0;"/><line style="stroke:#181818;stroke-width:1.0;" x1="740.5" x2="955.5" y1="273.3672" y2="273.3672"/><text fill="#000000" font-family="sans-serif" font-size="13" lengthAdjust="spacing" textLength="91" x="747.5" y="268.1045">post(dto, token)</text><polygon fill="#181818" points="1102.5,300.6582,1112.5,304.6582,1102.5,308.6582,1106.5,304.6582" style="stroke:#181818;stroke-width:1.0;"/><line style="stroke:#181818;stroke-width:1.0;" x1="971.5" x2="1108.5" y1="304.6582" y2="304.6582"/><text fill="#000000" font-family="sans-serif" font-size="13" lengthAdjust="spacing" textLength="84" x="978.5" y="299.3955">getRole(token)</text><line style="stroke:#181818;stroke-width:1.0;" x1="1124.5" x2="1166.5" y1="335.9492" y2="335.9492"/><line style="stroke:#181818;stroke-width:1.0;" x1="1166.5" x2="1166.5" y1="335.9492" y2="348.9492"/><line style="stroke:#181818;stroke-width:1.0;" x1="1125.5" x2="1166.5" y1="348.9492" y2="348.9492"/><polygon fill="#181818" points="1135.5,344.9492,1125.5,348.9492,1135.5,352.9492,1131.5,348.9492" style="stroke:#181818;stroke-width:1.0;"/><text fill="#000000" font-family="sans-serif" font-size="13" lengthAdjust="spacing" textLength="134" x="1131.5" y="330.6865">decodeJWTRole(token)</text><polygon fill="#181818" points="982.5,376.2402,972.5,380.2402,982.5,384.2402,978.5,380.2402" style="stroke:#181818;stroke-width:1.0;"/><line style="stroke:#181818;stroke-width:1.0;" x1="976.5" x2="1118.5" y1="380.2402" y2="380.2402"/><text fill="#000000" font-family="sans-serif" font-size="13" lengthAdjust="spacing" textLength="58" x="988.5" y="374.9775">return role</text><line style="stroke:#181818;stroke-width:1.0;" x1="971.5" x2="1013.5" y1="411.5313" y2="411.5313"/><line style="stroke:#181818;stroke-width:1.0;" x1="1013.5" x2="1013.5" y1="411.5313" y2="424.5313"/><line style="stroke:#181818;stroke-width:1.0;" x1="972.5" x2="1013.5" y1="424.5313" y2="424.5313"/><polygon fill="#181818" points="982.5,420.5313,972.5,424.5313,982.5,428.5313,978.5,424.5313" style="stroke:#181818;stroke-width:1.0;"/><text fill="#000000" font-family="sans-serif" font-size="13" lengthAdjust="spacing" textLength="129" x="978.5" y="406.2686">check if role is ADMIN</text><polygon fill="#181818" points="1102.5,451.8223,1112.5,455.8223,1102.5,459.8223,1106.5,455.8223" style="stroke:#181818;stroke-width:1.0;"/><line style="stroke:#181818;stroke-width:1.0;" x1="971.5" x2="1108.5" y1="455.8223" y2="455.8223"/><text fill="#000000" font-family="sans-serif" font-size="13" lengthAdjust="spacing" textLength="110" x="978.5" y="450.5596">getemail(dto.email)</text><polygon fill="#181818" points="1261.5,483.1133,1271.5,487.1133,1261.5,491.1133,1265.5,487.1133" style="stroke:#181818;stroke-width:1.0;"/><line style="stroke:#181818;stroke-width:1.0;" x1="1124.5" x2="1267.5" y1="487.1133" y2="487.1133"/><text fill="#000000" font-family="sans-serif" font-size="13" lengthAdjust="spacing" textLength="130" x="1131.5" y="481.8506">findByEmail(dto.email)</text><path d="M10,502.1133 L71,502.1133 L71,511.4043 L61,521.4043 L10,521.4043 L10,502.1133 " fill="#EEEEEE" style="stroke:#000000;stroke-width:1.5;"/><rect fill="none" height="207.0371" style="stroke:#000000;stroke-width:1.5;" width="1334" x="10" y="502.1133"/><text fill="#000000" font-family="sans-serif" font-size="13" font-weight="bold" lengthAdjust="spacing" textLength="16" x="25" y="517.1416">alt</text><text fill="#000000" font-family="sans-serif" font-size="11" font-weight="bold" lengthAdjust="spacing" textLength="73" x="86" y="515.9834">[email found]</text><polygon fill="#181818" points="1135.5,540.6953,1125.5,544.6953,1135.5,548.6953,1131.5,544.6953" style="stroke:#181818;stroke-width:1.0;"/><line style="stroke:#181818;stroke-width:1.0;" x1="1129.5" x2="1272.5" y1="544.6953" y2="544.6953"/><text fill="#000000" font-family="sans-serif" font-size="13" lengthAdjust="spacing" textLength="62" x="1141.5" y="539.4326">return user</text><polygon fill="#181818" points="982.5,571.9863,972.5,575.9863,982.5,579.9863,978.5,575.9863" style="stroke:#181818;stroke-width:1.0;"/><line style="stroke:#181818;stroke-width:1.0;" x1="976.5" x2="1113.5" y1="575.9863" y2="575.9863"/><text fill="#000000" font-family="sans-serif" font-size="13" lengthAdjust="spacing" textLength="62" x="988.5" y="570.7236">return user</text><polygon fill="#181818" points="751.5,603.2773,741.5,607.2773,751.5,611.2773,747.5,607.2773" style="stroke:#181818;stroke-width:1.0;"/><line style="stroke:#181818;stroke-width:1.0;" x1="745.5" x2="960.5" y1="607.2773" y2="607.2773"/><text fill="#000000" font-family="sans-serif" font-size="13" lengthAdjust="spacing" textLength="197" x="757.5" y="602.0146">message = "Email already exists"</text><polygon fill="#181818" points="520.5,634.5684,510.5,638.5684,520.5,642.5684,516.5,638.5684" style="stroke:#181818;stroke-width:1.0;"/><line style="stroke:#181818;stroke-width:1.0;" x1="514.5" x2="729.5" y1="638.5684" y2="638.5684"/><text fill="#000000" font-family="sans-serif" font-size="13" lengthAdjust="spacing" textLength="197" x="526.5" y="633.3057">message = "Email already exists"</text><polygon fill="#181818" points="289.5,665.8594,279.5,669.8594,289.5,673.8594,285.5,669.8594" style="stroke:#181818;stroke-width:1.0;"/><line style="stroke:#181818;stroke-width:1.0;" x1="283.5" x2="498.5" y1="669.8594" y2="669.8594"/><text fill="#000000" font-family="sans-serif" font-size="13" lengthAdjust="spacing" textLength="197" x="295.5" y="664.5967">message = "Email already exists"</text><polygon fill="#181818" points="58.5,697.1504,48.5,701.1504,58.5,705.1504,54.5,701.1504" style="stroke:#181818;stroke-width:1.0;"/><line style="stroke:#181818;stroke-width:1.0;" x1="52.5" x2="267.5" y1="701.1504" y2="701.1504"/><text fill="#000000" font-family="sans-serif" font-size="13" lengthAdjust="spacing" textLength="197" x="64.5" y="695.8877">message = "Email already exists"</text><polygon fill="#181818" points="1135.5,735.4414,1125.5,739.4414,1135.5,743.4414,1131.5,739.4414" style="stroke:#181818;stroke-width:1.0;"/><line style="stroke:#181818;stroke-width:1.0;" x1="1129.5" x2="1277.5" y1="739.4414" y2="739.4414"/><text fill="#000000" font-family="sans-serif" font-size="13" lengthAdjust="spacing" textLength="57" x="1141.5" y="734.1787">return null</text><polygon fill="#181818" points="982.5,766.7324,972.5,770.7324,982.5,774.7324,978.5,770.7324" style="stroke:#181818;stroke-width:1.0;"/><line style="stroke:#181818;stroke-width:1.0;" x1="976.5" x2="1118.5" y1="770.7324" y2="770.7324"/><text fill="#000000" font-family="sans-serif" font-size="13" lengthAdjust="spacing" textLength="57" x="988.5" y="765.4697">return null</text><polygon fill="#181818" points="1102.5,798.0234,1112.5,802.0234,1102.5,806.0234,1106.5,802.0234" style="stroke:#181818;stroke-width:1.0;"/><line style="stroke:#181818;stroke-width:1.0;" x1="971.5" x2="1108.5" y1="802.0234" y2="802.0234"/><text fill="#000000" font-family="sans-serif" font-size="13" lengthAdjust="spacing" textLength="62" x="978.5" y="796.7607">create(dto)</text><polygon fill="#181818" points="1365.5,829.3145,1375.5,833.3145,1365.5,837.3145,1369.5,833.3145" style="stroke:#181818;stroke-width:1.0;"/><line style="stroke:#181818;stroke-width:1.0;" x1="1124.5" x2="1371.5" y1="833.3145" y2="833.3145"/><text fill="#000000" font-family="sans-serif" font-size="13" lengthAdjust="spacing" textLength="229" x="1131.5" y="828.0518">user = new User(dto, Status = ACTIVE)</text><polygon fill="#181818" points="1261.5,860.6055,1271.5,864.6055,1261.5,868.6055,1265.5,864.6055" style="stroke:#181818;stroke-width:1.0;"/><line style="stroke:#181818;stroke-width:1.0;" x1="1124.5" x2="1267.5" y1="864.6055" y2="864.6055"/><text fill="#000000" font-family="sans-serif" font-size="13" lengthAdjust="spacing" textLength="59" x="1131.5" y="859.3428">save(user)</text><polygon fill="#181818" points="982.5,921.8965,972.5,925.8965,982.5,929.8965,978.5,925.8965" style="stroke:#181818;stroke-width:1.0;"/><line style="stroke:#181818;stroke-width:1.0;" x1="976.5" x2="1118.5" y1="925.8965" y2="925.8965"/><text fill="#000000" font-family="sans-serif" font-size="13" lengthAdjust="spacing" textLength="62" x="988.5" y="920.6338">return user</text><polygon fill="#181818" points="751.5,953.1875,741.5,957.1875,751.5,961.1875,747.5,957.1875" style="stroke:#181818;stroke-width:1.0;"/><line style="stroke:#181818;stroke-width:1.0;" x1="745.5" x2="965.5" y1="957.1875" y2="957.1875"/><text fill="#000000" font-family="sans-serif" font-size="13" lengthAdjust="spacing" textLength="190" x="757.5" y="951.9248">return message = "User created"</text><polygon fill="#181818" points="520.5,984.4785,510.5,988.4785,520.5,992.4785,516.5,988.4785" style="stroke:#181818;stroke-width:1.0;"/><line style="stroke:#181818;stroke-width:1.0;" x1="514.5" x2="734.5" y1="988.4785" y2="988.4785"/><text fill="#000000" font-family="sans-serif" font-size="13" lengthAdjust="spacing" textLength="90" x="526.5" y="983.2158">return message</text><polygon fill="#181818" points="289.5,1015.7695,279.5,1019.7695,289.5,1023.7695,285.5,1019.7695" style="stroke:#181818;stroke-width:1.0;"/><line style="stroke:#181818;stroke-width:1.0;" x1="283.5" x2="498.5" y1="1019.7695" y2="1019.7695"/><text fill="#000000" font-family="sans-serif" font-size="13" lengthAdjust="spacing" textLength="98" x="295.5" y="1014.5068">display message</text><polygon fill="#181818" points="58.5,1047.0605,48.5,1051.0605,58.5,1055.0605,54.5,1051.0605" style="stroke:#181818;stroke-width:1.0;"/><line style="stroke:#181818;stroke-width:1.0;" x1="52.5" x2="267.5" y1="1051.0605" y2="1051.0605"/><text fill="#000000" font-family="sans-serif" font-size="13" lengthAdjust="spacing" textLength="94" x="64.5" y="1045.7979">shows message</text><!--SRC=[ZPHDRjim48NtFCN0AnjeUu003P2g3f02xKAAaZKXZcCY52cGb1tVFZEKREilSBsnB7vFC_FUoBAApiE3ghK56ReB8Hhfewvq8ss45ur7FkBlqK7cwiPPf2iwvH-ZqqVlRDnQLQ0_w0gPUTmM8wGCw3EYl3C6FHDbDWC6-d8kpx5nGTC8fmJaGiWgweECs8_IJVRzlXlZ3ewa310TIAL0GalFk4hIY0aaGQUyWx1tnm0xv-k9JE5OE2srqyPGgJqcyHTLs3TYAuzqn1EjbOpo6vLwHxkvYfA_2IOH6Va_6lPRC4kICYC5UHNNAhevIiOJmHm_-GrZxWokPrGXok92AQoSmZ-lpqEsl5Rp65jlWTB5eLVyaEm2LNkita7l4WQQDl3ttwT_asQmbjfmup_IrM97UNBSgb-dxTTqBgI9a6vJAArLWdJdGds_ATlv6Dtjx6f_ZI78DuIVi4eLGHeAH9q0FtI8ONLsla_u9duEjz-Uc_nqJsyAS75SsnepYYTV67u6qM8D8kesaItVYALio3gYs47gpbBRtTBo8XPHnZRGxOVi-Ubbknd66UG1rwmQHtYhsUdBULcuBhUU6jYL-kjcKAkHCfk4EDOEKNxN9Wag7HeZJnTw-O_bV4gVJm00]--></g></svg>