<?xml version="1.0" encoding="us-ascii" standalone="no"?><svg xmlns="http://www.w3.org/2000/svg" xmlns:xlink="http://www.w3.org/1999/xlink" contentStyleType="text/css" height="1343.7px" preserveAspectRatio="none" style="width:2191px;height:1343px;background:#FFFFFF;" version="1.1" viewBox="0 0 2191 1343" width="2191.5px" zoomAndPan="magnify"><defs/><g><rect fill="#FFFFFF" height="1176.6586" style="stroke:#181818;stroke-width:0.9;" width="9" x="43.65" y="84.259"/><rect fill="#FFFFFF" height="429.3668" style="stroke:#181818;stroke-width:0.9;" width="9" x="328.95" y="105.2209"/><rect fill="#FFFFFF" height="690.068" style="stroke:#181818;stroke-width:0.9;" width="9" x="328.95" y="562.7496"/><rect fill="#FFFFFF" height="373.043" style="stroke:#181818;stroke-width:0.9;" width="9" x="577.35" y="133.3828"/><rect fill="#FFFFFF" height="633.7441" style="stroke:#181818;stroke-width:0.9;" width="9" x="577.35" y="590.9115"/><rect fill="#FFFFFF" height="316.7191" style="stroke:#181818;stroke-width:0.9;" width="9" x="795.15" y="161.5447"/><rect fill="#FFFFFF" height="497.6965" style="stroke:#181818;stroke-width:0.9;" width="9" x="795.15" y="698.7973"/><rect fill="#FFFFFF" height="220.5334" style="stroke:#181818;stroke-width:0.9;" width="9" x="1048.95" y="229.5686"/><rect fill="#FFFFFF" height="401.5107" style="stroke:#181818;stroke-width:0.9;" width="9" x="1048.95" y="766.8211"/><rect fill="#FFFFFF" height="164.2096" style="stroke:#181818;stroke-width:0.9;" width="9" x="1336.05" y="257.7305"/><rect fill="#FFFFFF" height="345.1869" style="stroke:#181818;stroke-width:0.9;" width="9" x="1336.05" y="794.983"/><rect fill="#FFFFFF" height="68.0238" style="stroke:#181818;stroke-width:0.9;" width="9" x="1587.15" y="325.7543"/><rect fill="#FFFFFF" height="68.0238" style="stroke:#181818;stroke-width:0.9;" width="9" x="1587.15" y="863.0068"/><rect fill="#FFFFFF" height="33.5619" style="stroke:#181818;stroke-width:0.9;" width="9" x="2056.05" y="982.8545"/><rect fill="#FFFFFF" height="33.5619" style="stroke:#181818;stroke-width:0.9;" width="9" x="2056.05" y="1065.8461"/><rect fill="none" height="168.3773" style="stroke:#000000;stroke-width:1.35;" width="914.4" x="1271.25" y="944.5307"/><line style="stroke:#181818;stroke-width:0.45;stroke-dasharray:5.0,5.0;" x1="47.7" x2="47.7" y1="75.259" y2="1269.0176"/><line style="stroke:#181818;stroke-width:0.45;stroke-dasharray:5.0,5.0;" x1="333" x2="333" y1="75.259" y2="1269.0176"/><line style="stroke:#181818;stroke-width:0.45;stroke-dasharray:5.0,5.0;" x1="581.4" x2="581.4" y1="75.259" y2="1269.0176"/><line style="stroke:#181818;stroke-width:0.45;stroke-dasharray:5.0,5.0;" x1="799.65" x2="799.65" y1="75.259" y2="1269.0176"/><line style="stroke:#181818;stroke-width:0.45;stroke-dasharray:5.0,5.0;" x1="1053" x2="1053" y1="75.259" y2="1269.0176"/><line style="stroke:#181818;stroke-width:0.45;stroke-dasharray:5.0,5.0;" x1="1340.55" x2="1340.55" y1="75.259" y2="1269.0176"/><line style="stroke:#181818;stroke-width:0.45;stroke-dasharray:5.0,5.0;" x1="1591.2" x2="1591.2" y1="75.259" y2="1269.0176"/><line style="stroke:#181818;stroke-width:0.45;stroke-dasharray:5.0,5.0;" x1="1938.6" x2="1938.6" y1="75.259" y2="1269.0176"/><line style="stroke:#181818;stroke-width:0.45;stroke-dasharray:5.0,5.0;" x1="2060.1" x2="2060.1" y1="75.259" y2="1269.0176"/><text fill="#000000" font-family="sans-serif" font-size="12.6" lengthAdjust="spacing" textLength="81.9" x="4.5" y="72.0967">Task Manager</text><ellipse cx="48.15" cy="12.15" fill="#E2E2F0" rx="7.2" ry="7.2" style="stroke:#181818;stroke-width:0.45;"/><path d="M48.15,19.35 L48.15,43.65 M36.45,26.55 L59.85,26.55 M48.15,43.65 L36.45,57.15 M48.15,43.65 L59.85,57.15 " fill="none" style="stroke:#181818;stroke-width:0.45;"/><text fill="#000000" font-family="sans-serif" font-size="12.6" lengthAdjust="spacing" textLength="81.9" x="4.5" y="1281.7143">Task Manager</text><ellipse cx="48.15" cy="1292.5266" fill="#E2E2F0" rx="7.2" ry="7.2" style="stroke:#181818;stroke-width:0.45;"/><path d="M48.15,1299.7266 L48.15,1324.0266 M36.45,1306.9266 L59.85,1306.9266 M48.15,1324.0266 L36.45,1337.5266 M48.15,1324.0266 L59.85,1337.5266 " fill="none" style="stroke:#181818;stroke-width:0.45;"/><rect fill="#E2E2F0" height="29.359" rx="2.25" ry="2.25" style="stroke:#181818;stroke-width:0.45;" width="38.7" x="314.1" y="45"/><text fill="#000000" font-family="sans-serif" font-size="12.6" lengthAdjust="spacing" textLength="26.1" x="320.4" y="64.8967">View</text><rect fill="#E2E2F0" height="29.359" rx="2.25" ry="2.25" style="stroke:#181818;stroke-width:0.45;" width="38.7" x="314.1" y="1268.1176"/><text fill="#000000" font-family="sans-serif" font-size="12.6" lengthAdjust="spacing" textLength="26.1" x="320.4" y="1288.0143">View</text><rect fill="#E2E2F0" height="29.359" rx="2.25" ry="2.25" style="stroke:#181818;stroke-width:0.45;" width="78.3" x="542.7" y="45"/><text fill="#000000" font-family="sans-serif" font-size="12.6" lengthAdjust="spacing" textLength="65.7" x="549" y="64.8967">Component</text><rect fill="#E2E2F0" height="29.359" rx="2.25" ry="2.25" style="stroke:#181818;stroke-width:0.45;" width="78.3" x="542.7" y="1268.1176"/><text fill="#000000" font-family="sans-serif" font-size="12.6" lengthAdjust="spacing" textLength="65.7" x="549" y="1288.0143">Component</text><rect fill="#E2E2F0" height="29.359" rx="2.25" ry="2.25" style="stroke:#181818;stroke-width:0.45;" width="108" x="745.65" y="45"/><text fill="#000000" font-family="sans-serif" font-size="12.6" lengthAdjust="spacing" textLength="95.4" x="751.95" y="64.8967">FrontEndService</text><rect fill="#E2E2F0" height="29.359" rx="2.25" ry="2.25" style="stroke:#181818;stroke-width:0.45;" width="108" x="745.65" y="1268.1176"/><text fill="#000000" font-family="sans-serif" font-size="12.6" lengthAdjust="spacing" textLength="95.4" x="751.95" y="1288.0143">FrontEndService</text><rect fill="#E2E2F0" height="29.359" rx="2.25" ry="2.25" style="stroke:#181818;stroke-width:0.45;" width="134.1" x="986.4" y="45"/><text fill="#000000" font-family="sans-serif" font-size="12.6" lengthAdjust="spacing" textLength="121.5" x="992.7" y="64.8967">AssignmentController</text><rect fill="#E2E2F0" height="29.359" rx="2.25" ry="2.25" style="stroke:#181818;stroke-width:0.45;" width="134.1" x="986.4" y="1268.1176"/><text fill="#000000" font-family="sans-serif" font-size="12.6" lengthAdjust="spacing" textLength="121.5" x="992.7" y="1288.0143">AssignmentController</text><rect fill="#E2E2F0" height="29.359" rx="2.25" ry="2.25" style="stroke:#181818;stroke-width:0.45;" width="120.6" x="1280.25" y="45"/><text fill="#000000" font-family="sans-serif" font-size="12.6" lengthAdjust="spacing" textLength="108" x="1286.55" y="64.8967">AssignmentService</text><rect fill="#E2E2F0" height="29.359" rx="2.25" ry="2.25" style="stroke:#181818;stroke-width:0.45;" width="120.6" x="1280.25" y="1268.1176"/><text fill="#000000" font-family="sans-serif" font-size="12.6" lengthAdjust="spacing" textLength="108" x="1286.55" y="1288.0143">AssignmentService</text><rect fill="#E2E2F0" height="29.359" rx="2.25" ry="2.25" style="stroke:#181818;stroke-width:0.45;" width="139.5" x="1521.9" y="45"/><text fill="#000000" font-family="sans-serif" font-size="12.6" lengthAdjust="spacing" textLength="126.9" x="1528.2" y="64.8967">AssignmentRepository</text><rect fill="#E2E2F0" height="29.359" rx="2.25" ry="2.25" style="stroke:#181818;stroke-width:0.45;" width="139.5" x="1521.9" y="1268.1176"/><text fill="#000000" font-family="sans-serif" font-size="12.6" lengthAdjust="spacing" textLength="126.9" x="1528.2" y="1288.0143">AssignmentRepository</text><rect fill="#E2E2F0" height="29.359" rx="2.25" ry="2.25" style="stroke:#181818;stroke-width:0.45;" width="146.7" x="1865.7" y="45"/><text fill="#000000" font-family="sans-serif" font-size="12.6" lengthAdjust="spacing" textLength="134.1" x="1872" y="64.8967">CreatingAssignmentDto</text><rect fill="#E2E2F0" height="29.359" rx="2.25" ry="2.25" style="stroke:#181818;stroke-width:0.45;" width="146.7" x="1865.7" y="1268.1176"/><text fill="#000000" font-family="sans-serif" font-size="12.6" lengthAdjust="spacing" textLength="134.1" x="1872" y="1288.0143">CreatingAssignmentDto</text><rect fill="#E2E2F0" height="29.359" rx="2.25" ry="2.25" style="stroke:#181818;stroke-width:0.45;" width="78.3" x="2021.4" y="45"/><text fill="#000000" font-family="sans-serif" font-size="12.6" lengthAdjust="spacing" textLength="65.7" x="2027.7" y="64.8967">Assignment</text><rect fill="#E2E2F0" height="29.359" rx="2.25" ry="2.25" style="stroke:#181818;stroke-width:0.45;" width="78.3" x="2021.4" y="1268.1176"/><text fill="#000000" font-family="sans-serif" font-size="12.6" lengthAdjust="spacing" textLength="65.7" x="2027.7" y="1288.0143">Assignment</text><rect fill="#FFFFFF" height="1176.6586" style="stroke:#181818;stroke-width:0.9;" width="9" x="43.65" y="84.259"/><rect fill="#FFFFFF" height="429.3668" style="stroke:#181818;stroke-width:0.9;" width="9" x="328.95" y="105.2209"/><rect fill="#FFFFFF" height="690.068" style="stroke:#181818;stroke-width:0.9;" width="9" x="328.95" y="562.7496"/><rect fill="#FFFFFF" height="373.043" style="stroke:#181818;stroke-width:0.9;" width="9" x="577.35" y="133.3828"/><rect fill="#FFFFFF" height="633.7441" style="stroke:#181818;stroke-width:0.9;" width="9" x="577.35" y="590.9115"/><rect fill="#FFFFFF" height="316.7191" style="stroke:#181818;stroke-width:0.9;" width="9" x="795.15" y="161.5447"/><rect fill="#FFFFFF" height="497.6965" style="stroke:#181818;stroke-width:0.9;" width="9" x="795.15" y="698.7973"/><rect fill="#FFFFFF" height="220.5334" style="stroke:#181818;stroke-width:0.9;" width="9" x="1048.95" y="229.5686"/><rect fill="#FFFFFF" height="401.5107" style="stroke:#181818;stroke-width:0.9;" width="9" x="1048.95" y="766.8211"/><rect fill="#FFFFFF" height="164.2096" style="stroke:#181818;stroke-width:0.9;" width="9" x="1336.05" y="257.7305"/><rect fill="#FFFFFF" height="345.1869" style="stroke:#181818;stroke-width:0.9;" width="9" x="1336.05" y="794.983"/><rect fill="#FFFFFF" height="68.0238" style="stroke:#181818;stroke-width:0.9;" width="9" x="1587.15" y="325.7543"/><rect fill="#FFFFFF" height="68.0238" style="stroke:#181818;stroke-width:0.9;" width="9" x="1587.15" y="863.0068"/><rect fill="#FFFFFF" height="33.5619" style="stroke:#181818;stroke-width:0.9;" width="9" x="2056.05" y="982.8545"/><rect fill="#FFFFFF" height="33.5619" style="stroke:#181818;stroke-width:0.9;" width="9" x="2056.05" y="1065.8461"/><polygon fill="#181818" points="318.15,101.6209,327.15,105.2209,318.15,108.8209,321.75,105.2209" style="stroke:#181818;stroke-width:0.9;"/><line style="stroke:#181818;stroke-width:0.9;" x1="52.65" x2="323.55" y1="105.2209" y2="105.2209"/><text fill="#000000" font-family="sans-serif" font-size="11.7" lengthAdjust="spacing" textLength="185.4" x="58.95" y="100.4845">wants to accept/reject assignments</text><polygon fill="#181818" points="566.55,129.7828,575.55,133.3828,566.55,136.9828,570.15,133.3828" style="stroke:#181818;stroke-width:0.9;"/><line style="stroke:#181818;stroke-width:0.9;" x1="337.95" x2="571.95" y1="133.3828" y2="133.3828"/><text fill="#000000" font-family="sans-serif" font-size="11.7" lengthAdjust="spacing" textLength="134.1" x="344.25" y="128.6464">getPendingAssignments()</text><polygon fill="#181818" points="784.35,157.9447,793.35,161.5447,784.35,165.1447,787.95,161.5447" style="stroke:#181818;stroke-width:0.9;"/><line style="stroke:#181818;stroke-width:0.9;" x1="586.35" x2="789.75" y1="161.5447" y2="161.5447"/><text fill="#000000" font-family="sans-serif" font-size="11.7" lengthAdjust="spacing" textLength="134.1" x="592.65" y="156.8083">getPendingAssignments()</text><line style="stroke:#181818;stroke-width:0.9;" x1="804.15" x2="841.95" y1="189.7066" y2="189.7066"/><line style="stroke:#181818;stroke-width:0.9;" x1="841.95" x2="841.95" y1="189.7066" y2="201.4066"/><line style="stroke:#181818;stroke-width:0.9;" x1="805.05" x2="841.95" y1="201.4066" y2="201.4066"/><polygon fill="#181818" points="814.05,197.8066,805.05,201.4066,814.05,205.0066,810.45,201.4066" style="stroke:#181818;stroke-width:0.9;"/><text fill="#000000" font-family="sans-serif" font-size="11.7" lengthAdjust="spacing" textLength="98.1" x="810.45" y="184.9702">token = getToken()</text><polygon fill="#181818" points="1038.15,225.9686,1047.15,229.5686,1038.15,233.1686,1041.75,229.5686" style="stroke:#181818;stroke-width:0.9;"/><line style="stroke:#181818;stroke-width:0.9;" x1="804.15" x2="1043.55" y1="229.5686" y2="229.5686"/><text fill="#000000" font-family="sans-serif" font-size="11.7" lengthAdjust="spacing" textLength="162.9" x="810.45" y="224.8321">getPendingAssignments(token)</text><polygon fill="#181818" points="1325.25,254.1305,1334.25,257.7305,1325.25,261.3305,1328.85,257.7305" style="stroke:#181818;stroke-width:0.9;"/><line style="stroke:#181818;stroke-width:0.9;" x1="1057.95" x2="1330.65" y1="257.7305" y2="257.7305"/><text fill="#000000" font-family="sans-serif" font-size="11.7" lengthAdjust="spacing" textLength="141.3" x="1064.25" y="252.994">getAllPendingAsync(token)</text><line style="stroke:#181818;stroke-width:0.9;" x1="1345.05" x2="1382.85" y1="285.8924" y2="285.8924"/><line style="stroke:#181818;stroke-width:0.9;" x1="1382.85" x2="1382.85" y1="285.8924" y2="297.5924"/><line style="stroke:#181818;stroke-width:0.9;" x1="1345.95" x2="1382.85" y1="297.5924" y2="297.5924"/><polygon fill="#181818" points="1354.95,293.9924,1345.95,297.5924,1354.95,301.1924,1351.35,297.5924" style="stroke:#181818;stroke-width:0.9;"/><text fill="#000000" font-family="sans-serif" font-size="11.7" lengthAdjust="spacing" textLength="85.5" x="1351.35" y="281.156">verifyRole(token)</text><polygon fill="#181818" points="1576.35,322.1543,1585.35,325.7543,1576.35,329.3543,1579.95,325.7543" style="stroke:#181818;stroke-width:0.9;"/><line style="stroke:#181818;stroke-width:0.9;" x1="1345.05" x2="1581.75" y1="325.7543" y2="325.7543"/><text fill="#000000" font-family="sans-serif" font-size="11.7" lengthAdjust="spacing" textLength="112.5" x="1351.35" y="321.0179">getAllPendingAsync()</text><line style="stroke:#181818;stroke-width:0.9;" x1="1596.15" x2="1633.95" y1="353.9162" y2="353.9162"/><line style="stroke:#181818;stroke-width:0.9;" x1="1633.95" x2="1633.95" y1="353.9162" y2="365.6162"/><line style="stroke:#181818;stroke-width:0.9;" x1="1597.05" x2="1633.95" y1="365.6162" y2="365.6162"/><polygon fill="#181818" points="1606.05,362.0162,1597.05,365.6162,1606.05,369.2162,1602.45,365.6162" style="stroke:#181818;stroke-width:0.9;"/><text fill="#000000" font-family="sans-serif" font-size="11.7" lengthAdjust="spacing" textLength="325.8" x="1602.45" y="349.1798">get all assignments with status == AssignmentStatus.Pending</text><polygon fill="#181818" points="1354.95,390.1781,1345.95,393.7781,1354.95,397.3781,1351.35,393.7781" style="stroke:#181818;stroke-width:0.9;"/><line style="stroke:#181818;stroke-width:0.9;" x1="1349.55" x2="1590.75" y1="393.7781" y2="393.7781"/><text fill="#000000" font-family="sans-serif" font-size="11.7" lengthAdjust="spacing" textLength="99.9" x="1360.35" y="389.0417">return assignments</text><polygon fill="#181818" points="1067.85,418.34,1058.85,421.94,1067.85,425.54,1064.25,421.94" style="stroke:#181818;stroke-width:0.9;"/><line style="stroke:#181818;stroke-width:0.9;" x1="1062.45" x2="1339.65" y1="421.94" y2="421.94"/><text fill="#000000" font-family="sans-serif" font-size="11.7" lengthAdjust="spacing" textLength="206.1" x="1073.25" y="417.2036">return assignments as AssignmentsDto</text><polygon fill="#181818" points="814.05,446.502,805.05,450.102,814.05,453.702,810.45,450.102" style="stroke:#181818;stroke-width:0.9;"/><line style="stroke:#181818;stroke-width:0.9;" x1="808.65" x2="1052.55" y1="450.102" y2="450.102"/><text fill="#000000" font-family="sans-serif" font-size="11.7" lengthAdjust="spacing" textLength="99.9" x="819.45" y="445.3655">return assignments</text><polygon fill="#181818" points="596.25,474.6639,587.25,478.2639,596.25,481.8639,592.65,478.2639" style="stroke:#181818;stroke-width:0.9;"/><line style="stroke:#181818;stroke-width:0.9;" x1="590.85" x2="798.75" y1="478.2639" y2="478.2639"/><text fill="#000000" font-family="sans-serif" font-size="11.7" lengthAdjust="spacing" textLength="99.9" x="601.65" y="473.5274">return assignments</text><polygon fill="#181818" points="347.85,502.8258,338.85,506.4258,347.85,510.0258,344.25,506.4258" style="stroke:#181818;stroke-width:0.9;"/><line style="stroke:#181818;stroke-width:0.9;" x1="342.45" x2="580.95" y1="506.4258" y2="506.4258"/><text fill="#000000" font-family="sans-serif" font-size="11.7" lengthAdjust="spacing" textLength="107.1" x="353.25" y="501.6894">display assignments</text><polygon fill="#181818" points="62.55,530.9877,53.55,534.5877,62.55,538.1877,58.95,534.5877" style="stroke:#181818;stroke-width:0.9;"/><line style="stroke:#181818;stroke-width:0.9;" x1="57.15" x2="332.55" y1="534.5877" y2="534.5877"/><text fill="#000000" font-family="sans-serif" font-size="11.7" lengthAdjust="spacing" textLength="254.7" x="67.95" y="529.8513">shows assignments with accepts / rejects button</text><polygon fill="#181818" points="318.15,559.1496,327.15,562.7496,318.15,566.3496,321.75,562.7496" style="stroke:#181818;stroke-width:0.9;"/><line style="stroke:#181818;stroke-width:0.9;" x1="52.65" x2="323.55" y1="562.7496" y2="562.7496"/><text fill="#000000" font-family="sans-serif" font-size="11.7" lengthAdjust="spacing" textLength="144" x="58.95" y="558.0132">accepts/rejects assignment</text><polygon fill="#181818" points="566.55,587.3115,575.55,590.9115,566.55,594.5115,570.15,590.9115" style="stroke:#181818;stroke-width:0.9;"/><line style="stroke:#181818;stroke-width:0.9;" x1="337.95" x2="571.95" y1="590.9115" y2="590.9115"/><text fill="#000000" font-family="sans-serif" font-size="11.7" lengthAdjust="spacing" textLength="222.3" x="344.25" y="586.1751">accepts(assignment) / rejects(assignment)</text><line style="stroke:#181818;stroke-width:0.9;" x1="586.35" x2="624.15" y1="619.0734" y2="619.0734"/><line style="stroke:#181818;stroke-width:0.9;" x1="624.15" x2="624.15" y1="619.0734" y2="630.7734"/><line style="stroke:#181818;stroke-width:0.9;" x1="587.25" x2="624.15" y1="630.7734" y2="630.7734"/><polygon fill="#181818" points="596.25,627.1734,587.25,630.7734,596.25,634.3734,592.65,630.7734" style="stroke:#181818;stroke-width:0.9;"/><text fill="#000000" font-family="sans-serif" font-size="11.7" lengthAdjust="spacing" textLength="164.7" x="592.65" y="614.337">status = "accepted" / "rejected"</text><line style="stroke:#181818;stroke-width:0.9;" x1="586.35" x2="624.15" y1="658.9354" y2="658.9354"/><line style="stroke:#181818;stroke-width:0.9;" x1="624.15" x2="624.15" y1="658.9354" y2="670.6354"/><line style="stroke:#181818;stroke-width:0.9;" x1="587.25" x2="624.15" y1="670.6354" y2="670.6354"/><polygon fill="#181818" points="596.25,667.0354,587.25,670.6354,596.25,674.2354,592.65,670.6354" style="stroke:#181818;stroke-width:0.9;"/><text fill="#000000" font-family="sans-serif" font-size="11.7" lengthAdjust="spacing" textLength="179.1" x="592.65" y="654.1989">changeStatus(assignment, status)</text><polygon fill="#181818" points="784.35,695.1973,793.35,698.7973,784.35,702.3973,787.95,698.7973" style="stroke:#181818;stroke-width:0.9;"/><line style="stroke:#181818;stroke-width:0.9;" x1="586.35" x2="789.75" y1="698.7973" y2="698.7973"/><text fill="#000000" font-family="sans-serif" font-size="11.7" lengthAdjust="spacing" textLength="191.7" x="592.65" y="694.0608">changeStatus(assignment.id, status)</text><line style="stroke:#181818;stroke-width:0.9;" x1="804.15" x2="841.95" y1="726.9592" y2="726.9592"/><line style="stroke:#181818;stroke-width:0.9;" x1="841.95" x2="841.95" y1="726.9592" y2="738.6592"/><line style="stroke:#181818;stroke-width:0.9;" x1="805.05" x2="841.95" y1="738.6592" y2="738.6592"/><polygon fill="#181818" points="814.05,735.0592,805.05,738.6592,814.05,742.2592,810.45,738.6592" style="stroke:#181818;stroke-width:0.9;"/><text fill="#000000" font-family="sans-serif" font-size="11.7" lengthAdjust="spacing" textLength="98.1" x="810.45" y="722.2228">token = getToken()</text><polygon fill="#181818" points="1038.15,763.2211,1047.15,766.8211,1038.15,770.4211,1041.75,766.8211" style="stroke:#181818;stroke-width:0.9;"/><line style="stroke:#181818;stroke-width:0.9;" x1="804.15" x2="1043.55" y1="766.8211" y2="766.8211"/><text fill="#000000" font-family="sans-serif" font-size="11.7" lengthAdjust="spacing" textLength="227.7" x="810.45" y="762.0847">changeStatus(token, assignment.id, status)</text><polygon fill="#181818" points="1325.25,791.383,1334.25,794.983,1325.25,798.583,1328.85,794.983" style="stroke:#181818;stroke-width:0.9;"/><line style="stroke:#181818;stroke-width:0.9;" x1="1057.95" x2="1330.65" y1="794.983" y2="794.983"/><text fill="#000000" font-family="sans-serif" font-size="11.7" lengthAdjust="spacing" textLength="261" x="1064.25" y="790.2466">changeStatusAsync(token, assignment.id, status)</text><line style="stroke:#181818;stroke-width:0.9;" x1="1345.05" x2="1382.85" y1="823.1449" y2="823.1449"/><line style="stroke:#181818;stroke-width:0.9;" x1="1382.85" x2="1382.85" y1="823.1449" y2="834.8449"/><line style="stroke:#181818;stroke-width:0.9;" x1="1345.95" x2="1382.85" y1="834.8449" y2="834.8449"/><polygon fill="#181818" points="1354.95,831.2449,1345.95,834.8449,1354.95,838.4449,1351.35,834.8449" style="stroke:#181818;stroke-width:0.9;"/><text fill="#000000" font-family="sans-serif" font-size="11.7" lengthAdjust="spacing" textLength="85.5" x="1351.35" y="818.4085">verifyRole(token)</text><polygon fill="#181818" points="1576.35,859.4068,1585.35,863.0068,1576.35,866.6068,1579.95,863.0068" style="stroke:#181818;stroke-width:0.9;"/><line style="stroke:#181818;stroke-width:0.9;" x1="1345.05" x2="1581.75" y1="863.0068" y2="863.0068"/><text fill="#000000" font-family="sans-serif" font-size="11.7" lengthAdjust="spacing" textLength="225" x="1351.35" y="858.2704">changeStatusAsync(assignment.id, status)</text><line style="stroke:#181818;stroke-width:0.9;" x1="1596.15" x2="1633.95" y1="891.1688" y2="891.1688"/><line style="stroke:#181818;stroke-width:0.9;" x1="1633.95" x2="1633.95" y1="891.1688" y2="902.8688"/><line style="stroke:#181818;stroke-width:0.9;" x1="1597.05" x2="1633.95" y1="902.8688" y2="902.8688"/><polygon fill="#181818" points="1606.05,899.2688,1597.05,902.8688,1606.05,906.4688,1602.45,902.8688" style="stroke:#181818;stroke-width:0.9;"/><text fill="#000000" font-family="sans-serif" font-size="11.7" lengthAdjust="spacing" textLength="211.5" x="1602.45" y="886.4323">get assignment with id == assignment.id</text><polygon fill="#181818" points="1354.95,927.4307,1345.95,931.0307,1354.95,934.6307,1351.35,931.0307" style="stroke:#181818;stroke-width:0.9;"/><line style="stroke:#181818;stroke-width:0.9;" x1="1349.55" x2="1590.75" y1="931.0307" y2="931.0307"/><text fill="#000000" font-family="sans-serif" font-size="11.7" lengthAdjust="spacing" textLength="93.6" x="1360.35" y="926.2942">return assignment</text><path d="M1271.25,944.5307 L1326.15,944.5307 L1326.15,952.8926 L1317.15,961.8926 L1271.25,961.8926 L1271.25,944.5307 " fill="#EEEEEE" style="stroke:#000000;stroke-width:1.35;"/><rect fill="none" height="168.3773" style="stroke:#000000;stroke-width:1.35;" width="914.4" x="1271.25" y="944.5307"/><text fill="#000000" font-family="sans-serif" font-size="11.7" font-weight="bold" lengthAdjust="spacing" textLength="14.4" x="1284.75" y="958.0562">alt</text><text fill="#000000" font-family="sans-serif" font-size="9.9" font-weight="bold" lengthAdjust="spacing" textLength="108.9" x="1339.65" y="957.0138">[status == "accepted"]</text><polygon fill="#181818" points="2045.25,979.2545,2054.25,982.8545,2045.25,986.4545,2048.85,982.8545" style="stroke:#181818;stroke-width:0.9;"/><line style="stroke:#181818;stroke-width:0.9;" x1="1345.05" x2="2050.65" y1="982.8545" y2="982.8545"/><text fill="#000000" font-family="sans-serif" font-size="11.7" lengthAdjust="spacing" textLength="42.3" x="1351.35" y="978.1181">accept()</text><line style="stroke:#181818;stroke-width:0.9;" x1="2065.05" x2="2102.85" y1="1015.5164" y2="1015.5164"/><line style="stroke:#181818;stroke-width:0.9;" x1="2102.85" x2="2102.85" y1="1015.5164" y2="1027.2164"/><line style="stroke:#181818;stroke-width:0.9;" x1="2060.55" x2="2102.85" y1="1027.2164" y2="1027.2164"/><polygon fill="#181818" points="2069.55,1023.6164,2060.55,1027.2164,2069.55,1030.8164,2065.95,1027.2164" style="stroke:#181818;stroke-width:0.9;"/><text fill="#000000" font-family="sans-serif" font-size="11.7" lengthAdjust="spacing" textLength="103.5" x="2071.35" y="1010.78">status = "accepted"</text><line style="stroke:#000000;stroke-width:0.9;stroke-dasharray:2.0,2.0;" x1="1271.25" x2="2185.65" y1="1030.8164" y2="1030.8164"/><text fill="#000000" font-family="sans-serif" font-size="9.9" font-weight="bold" lengthAdjust="spacing" textLength="105.3" x="1275.75" y="1041.4995">[status == "rejected"]</text><polygon fill="#181818" points="2045.25,1062.2461,2054.25,1065.8461,2045.25,1069.4461,2048.85,1065.8461" style="stroke:#181818;stroke-width:0.9;"/><line style="stroke:#181818;stroke-width:0.9;" x1="1345.05" x2="2050.65" y1="1065.8461" y2="1065.8461"/><text fill="#000000" font-family="sans-serif" font-size="11.7" lengthAdjust="spacing" textLength="36" x="1351.35" y="1061.1097">reject()</text><line style="stroke:#181818;stroke-width:0.9;" x1="2065.05" x2="2102.85" y1="1098.508" y2="1098.508"/><line style="stroke:#181818;stroke-width:0.9;" x1="2102.85" x2="2102.85" y1="1098.508" y2="1110.208"/><line style="stroke:#181818;stroke-width:0.9;" x1="2060.55" x2="2102.85" y1="1110.208" y2="1110.208"/><polygon fill="#181818" points="2069.55,1106.608,2060.55,1110.208,2069.55,1113.808,2065.95,1110.208" style="stroke:#181818;stroke-width:0.9;"/><text fill="#000000" font-family="sans-serif" font-size="11.7" lengthAdjust="spacing" textLength="97.2" x="2071.35" y="1093.7716">status = "rejected"</text><polygon fill="#181818" points="1067.85,1136.5699,1058.85,1140.1699,1067.85,1143.7699,1064.25,1140.1699" style="stroke:#181818;stroke-width:0.9;"/><line style="stroke:#181818;stroke-width:0.9;" x1="1062.45" x2="1339.65" y1="1140.1699" y2="1140.1699"/><text fill="#000000" font-family="sans-serif" font-size="11.7" lengthAdjust="spacing" textLength="93.6" x="1073.25" y="1135.4335">return assignment</text><polygon fill="#181818" points="814.05,1164.7318,805.05,1168.3318,814.05,1171.9318,810.45,1168.3318" style="stroke:#181818;stroke-width:0.9;"/><line style="stroke:#181818;stroke-width:0.9;" x1="808.65" x2="1052.55" y1="1168.3318" y2="1168.3318"/><text fill="#000000" font-family="sans-serif" font-size="11.7" lengthAdjust="spacing" textLength="93.6" x="819.45" y="1163.5954">return assignment</text><polygon fill="#181818" points="596.25,1192.8938,587.25,1196.4938,596.25,1200.0938,592.65,1196.4938" style="stroke:#181818;stroke-width:0.9;"/><line style="stroke:#181818;stroke-width:0.9;" x1="590.85" x2="798.75" y1="1196.4938" y2="1196.4938"/><text fill="#000000" font-family="sans-serif" font-size="11.7" lengthAdjust="spacing" textLength="77.4" x="601.65" y="1191.7573">return success</text><polygon fill="#181818" points="347.85,1221.0557,338.85,1224.6557,347.85,1228.2557,344.25,1224.6557" style="stroke:#181818;stroke-width:0.9;"/><line style="stroke:#181818;stroke-width:0.9;" x1="342.45" x2="580.95" y1="1224.6557" y2="1224.6557"/><text fill="#000000" font-family="sans-serif" font-size="11.7" lengthAdjust="spacing" textLength="135.9" x="353.25" y="1219.9192">display success message</text><polygon fill="#181818" points="62.55,1249.2176,53.55,1252.8176,62.55,1256.4176,58.95,1252.8176" style="stroke:#181818;stroke-width:0.9;"/><line style="stroke:#181818;stroke-width:0.9;" x1="57.15" x2="332.55" y1="1252.8176" y2="1252.8176"/><text fill="#000000" font-family="sans-serif" font-size="11.7" lengthAdjust="spacing" textLength="132.3" x="67.95" y="1248.0812">shows success message</text><!--SRC=[dPNBRk8m58RtVeeZLaNgb3qIbInFkqCQXIfxDpaJF0rsP1iGRpzsBjYU449d0IBsz_zspWrUMALXyS7D5sovv1Ng1N03T4iQhgqeHCEbXLpWsI_doIfJXqP9TB_S5aksthMIzasMEzGdKQ07tjzs2KAD4PKyE3bph5PrZRezcarWaHUTiigmKKQuTxgqM9RULoEtGbO1_scLvqgh9lnQ5q9uOSM9M_HneLluyGhv6iuEDU0TYW8RkzBu1mkl6CGcw7AIUnLRGuNs5yeokOPvMWQK4UPH5wu7O1zKzxaAhFf22Hil_F0_7TjlqycpMqtawH90solGxWQqhg-gYop6_8xGtS2VK8lVbqpLE73zNdRJAxR92CqY57XTny64ix1xC9RReu7D9YwCTksbDnvSt6KqsgEMIKPAJ0wyXcQCjgaFZwvK4l6k3r8Rzfc3s904DeVwVBA-lafXcffVfb3MbHJThi7irTcCOzNLfO4LTALfuFDehPAnInxgkSTN0npyRjLnJpy5QXaEYbT7bUt4GnPXqTbWkN3YHQTs3rUms7DPOPVWoFIvTrX6lJA1leWoqF_PDubrYpx3t0b95yK6KHCzuF9eRurFcBKUzLkOUctvYDAtMM9phxV-QIrUswXPGvw7EmyLb8m0Glkz6mMI-1Ei3SR-eNIk_jtId7yGflwo9FV6mpTcmTmeC4VtYcPs3FGO7DoN-v- -Emhki3dv2m00]--></g></svg>