<?xml version="1.0" encoding="us-ascii" standalone="no"?><svg xmlns="http://www.w3.org/2000/svg" xmlns:xlink="http://www.w3.org/1999/xlink" contentStyleType="text/css" height="507px" preserveAspectRatio="none" style="width:641px;height:507px;background:#FFFFFF;" version="1.1" viewBox="0 0 641 507" width="641px" zoomAndPan="magnify"><defs/><g><rect fill="#FFFFFF" height="321.6191" style="stroke:#181818;stroke-width:1.0;" width="10" x="17.5" y="93.6211"/><rect fill="#FFFFFF" height="289.3281" style="stroke:#181818;stroke-width:1.0;" width="10" x="261.5" y="116.9121"/><rect fill="#FFFFFF" height="119.873" style="stroke:#181818;stroke-width:1.0;" width="10" x="510.5" y="255.0762"/><line style="stroke:#181818;stroke-width:0.5;stroke-dasharray:5.0,5.0;" x1="22" x2="22" y1="83.6211" y2="424.2402"/><line style="stroke:#181818;stroke-width:0.5;stroke-dasharray:5.0,5.0;" x1="266" x2="266" y1="83.6211" y2="424.2402"/><line style="stroke:#181818;stroke-width:0.5;stroke-dasharray:5.0,5.0;" x1="515" x2="515" y1="83.6211" y2="424.2402"/><text fill="#000000" font-family="sans-serif" font-size="14" lengthAdjust="spacing" textLength="29" x="5" y="80.1074">User</text><ellipse cx="22.5" cy="13.5" fill="#E2E2F0" rx="8" ry="8" style="stroke:#181818;stroke-width:0.5;"/><path d="M22.5,21.5 L22.5,48.5 M9.5,29.5 L35.5,29.5 M22.5,48.5 L9.5,63.5 M22.5,48.5 L35.5,63.5 " fill="none" style="stroke:#181818;stroke-width:0.5;"/><text fill="#000000" font-family="sans-serif" font-size="14" lengthAdjust="spacing" textLength="29" x="5" y="438.3477">User</text><ellipse cx="22.5" cy="450.3613" fill="#E2E2F0" rx="8" ry="8" style="stroke:#181818;stroke-width:0.5;"/><path d="M22.5,458.3613 L22.5,485.3613 M9.5,466.3613 L35.5,466.3613 M22.5,485.3613 L9.5,500.3613 M22.5,485.3613 L35.5,500.3613 " fill="none" style="stroke:#181818;stroke-width:0.5;"/><rect fill="#E2E2F0" height="32.6211" rx="2.5" ry="2.5" style="stroke:#181818;stroke-width:0.5;" width="73" x="230" y="50"/><text fill="#000000" font-family="sans-serif" font-size="14" lengthAdjust="spacing" textLength="59" x="237" y="72.1074">FrontEnd</text><rect fill="#E2E2F0" height="32.6211" rx="2.5" ry="2.5" style="stroke:#181818;stroke-width:0.5;" width="73" x="230" y="423.2402"/><text fill="#000000" font-family="sans-serif" font-size="14" lengthAdjust="spacing" textLength="59" x="237" y="445.3477">FrontEnd</text><rect fill="#E2E2F0" height="32.6211" rx="2.5" ry="2.5" style="stroke:#181818;stroke-width:0.5;" width="35" x="498" y="50"/><text fill="#000000" font-family="sans-serif" font-size="14" lengthAdjust="spacing" textLength="21" x="505" y="72.1074">MD</text><rect fill="#E2E2F0" height="32.6211" rx="2.5" ry="2.5" style="stroke:#181818;stroke-width:0.5;" width="35" x="498" y="423.2402"/><text fill="#000000" font-family="sans-serif" font-size="14" lengthAdjust="spacing" textLength="21" x="505" y="445.3477">MD</text><rect fill="#FFFFFF" height="321.6191" style="stroke:#181818;stroke-width:1.0;" width="10" x="17.5" y="93.6211"/><rect fill="#FFFFFF" height="289.3281" style="stroke:#181818;stroke-width:1.0;" width="10" x="261.5" y="116.9121"/><rect fill="#FFFFFF" height="119.873" style="stroke:#181818;stroke-width:1.0;" width="10" x="510.5" y="255.0762"/><polygon fill="#181818" points="249.5,112.9121,259.5,116.9121,249.5,120.9121,253.5,116.9121" style="stroke:#181818;stroke-width:1.0;"/><line style="stroke:#181818;stroke-width:1.0;" x1="27.5" x2="255.5" y1="116.9121" y2="116.9121"/><text fill="#000000" font-family="sans-serif" font-size="13" lengthAdjust="spacing" textLength="178" x="34.5" y="111.6494">want to request an assignment</text><polygon fill="#181818" points="38.5,144.2031,28.5,148.2031,38.5,152.2031,34.5,148.2031" style="stroke:#181818;stroke-width:1.0;"/><line style="stroke:#181818;stroke-width:1.0;" x1="32.5" x2="260.5" y1="148.2031" y2="148.2031"/><text fill="#000000" font-family="sans-serif" font-size="13" lengthAdjust="spacing" textLength="210" x="44.5" y="142.9404">show form to request an assignment</text><polygon fill="#181818" points="249.5,175.4941,259.5,179.4941,249.5,183.4941,253.5,179.4941" style="stroke:#181818;stroke-width:1.0;"/><line style="stroke:#181818;stroke-width:1.0;" x1="27.5" x2="255.5" y1="179.4941" y2="179.4941"/><text fill="#000000" font-family="sans-serif" font-size="13" lengthAdjust="spacing" textLength="55" x="34.5" y="174.2314">fill in form</text><line style="stroke:#181818;stroke-width:1.0;" x1="271.5" x2="313.5" y1="210.7852" y2="210.7852"/><line style="stroke:#181818;stroke-width:1.0;" x1="313.5" x2="313.5" y1="210.7852" y2="223.7852"/><line style="stroke:#181818;stroke-width:1.0;" x1="272.5" x2="313.5" y1="223.7852" y2="223.7852"/><polygon fill="#181818" points="282.5,219.7852,272.5,223.7852,282.5,227.7852,278.5,223.7852" style="stroke:#181818;stroke-width:1.0;"/><text fill="#000000" font-family="sans-serif" font-size="13" lengthAdjust="spacing" textLength="109" x="278.5" y="205.5225">token = getToken()</text><polygon fill="#181818" points="498.5,251.0762,508.5,255.0762,498.5,259.0762,502.5,255.0762" style="stroke:#181818;stroke-width:1.0;"/><line style="stroke:#181818;stroke-width:1.0;" x1="271.5" x2="504.5" y1="255.0762" y2="255.0762"/><text fill="#000000" font-family="sans-serif" font-size="13" lengthAdjust="spacing" textLength="220" x="278.5" y="249.8135">createAssignment(assignment, token)</text><line style="stroke:#181818;stroke-width:1.0;" x1="520.5" x2="562.5" y1="286.3672" y2="286.3672"/><line style="stroke:#181818;stroke-width:1.0;" x1="562.5" x2="562.5" y1="286.3672" y2="299.3672"/><line style="stroke:#181818;stroke-width:1.0;" x1="521.5" x2="562.5" y1="299.3672" y2="299.3672"/><polygon fill="#181818" points="531.5,295.3672,521.5,299.3672,531.5,303.3672,527.5,299.3672" style="stroke:#181818;stroke-width:1.0;"/><text fill="#000000" font-family="sans-serif" font-size="13" lengthAdjust="spacing" textLength="79" x="527.5" y="281.1045">validate token</text><line style="stroke:#181818;stroke-width:1.0;" x1="520.5" x2="562.5" y1="330.6582" y2="330.6582"/><line style="stroke:#181818;stroke-width:1.0;" x1="562.5" x2="562.5" y1="330.6582" y2="343.6582"/><line style="stroke:#181818;stroke-width:1.0;" x1="521.5" x2="562.5" y1="343.6582" y2="343.6582"/><polygon fill="#181818" points="531.5,339.6582,521.5,343.6582,531.5,347.6582,527.5,343.6582" style="stroke:#181818;stroke-width:1.0;"/><text fill="#000000" font-family="sans-serif" font-size="13" lengthAdjust="spacing" textLength="107" x="527.5" y="325.3955">create assignment</text><polygon fill="#181818" points="282.5,370.9492,272.5,374.9492,282.5,378.9492,278.5,374.9492" style="stroke:#181818;stroke-width:1.0;"/><line style="stroke:#181818;stroke-width:1.0;" x1="276.5" x2="514.5" y1="374.9492" y2="374.9492"/><text fill="#000000" font-family="sans-serif" font-size="13" lengthAdjust="spacing" textLength="104" x="288.5" y="369.6865">return assignment</text><polygon fill="#181818" points="38.5,402.2402,28.5,406.2402,38.5,410.2402,34.5,406.2402" style="stroke:#181818;stroke-width:1.0;"/><line style="stroke:#181818;stroke-width:1.0;" x1="32.5" x2="265.5" y1="406.2402" y2="406.2402"/><text fill="#000000" font-family="sans-serif" font-size="13" lengthAdjust="spacing" textLength="140" x="44.5" y="400.9775">show success message</text><!--SRC=[TP313e8m38RlF4MFckWBa6XY0jouwGCqe-0YRDeLVNrN8J9Yl3HB-tz_-m-DU8PB8Cxko6ADlQCJgDWxALq36A0gLwEwq6PTP1aQiKyKcd0ji3z6UGul5Oe7fiT8GG1TP8Bjt41E5YuwLwKookOGhlu5hUVXFvekQMtVWtKVOlRHjlWREJX0HtBMvsOx3-iY1yCK5v- -Xfl5UpUHs-Myc366dSadzhRHxaUL32RBzCXffhSmoSYh00sbzZ_fmsWCXG13BDXHAe-VzGO0]--></g></svg>