<?xml version="1.0" encoding="us-ascii" standalone="no"?><svg xmlns="http://www.w3.org/2000/svg" xmlns:xlink="http://www.w3.org/1999/xlink" contentStyleType="text/css" height="468px" preserveAspectRatio="none" style="width:905px;height:468px;background:#FFFFFF;" version="1.1" viewBox="0 0 905 468" width="905px" zoomAndPan="magnify"><defs/><g><rect fill="#FFFFFF" height="282.6191" style="stroke:#181818;stroke-width:1.0;" width="10" x="59" y="93.6211"/><rect fill="#FFFFFF" height="259.3281" style="stroke:#181818;stroke-width:1.0;" width="10" x="251" y="116.9121"/><rect fill="#FFFFFF" height="228.0371" style="stroke:#181818;stroke-width:1.0;" width="10" x="409" y="148.2031"/><rect fill="#FFFFFF" height="125.1641" style="stroke:#181818;stroke-width:1.0;" width="10" x="579" y="179.4941"/><rect fill="#FFFFFF" height="62.582" style="stroke:#181818;stroke-width:1.0;" width="10" x="737" y="210.7852"/><line style="stroke:#181818;stroke-width:0.5;stroke-dasharray:5.0,5.0;" x1="64" x2="64" y1="83.6211" y2="385.2402"/><line style="stroke:#181818;stroke-width:0.5;stroke-dasharray:5.0,5.0;" x1="255.5" x2="255.5" y1="83.6211" y2="385.2402"/><line style="stroke:#181818;stroke-width:0.5;stroke-dasharray:5.0,5.0;" x1="414" x2="414" y1="83.6211" y2="385.2402"/><line style="stroke:#181818;stroke-width:0.5;stroke-dasharray:5.0,5.0;" x1="583.5" x2="583.5" y1="83.6211" y2="385.2402"/><line style="stroke:#181818;stroke-width:0.5;stroke-dasharray:5.0,5.0;" x1="742" x2="742" y1="83.6211" y2="385.2402"/><text fill="#000000" font-family="sans-serif" font-size="14" lengthAdjust="spacing" textLength="112" x="5" y="80.1074">Campus Manager</text><ellipse cx="64" cy="13.5" fill="#E2E2F0" rx="8" ry="8" style="stroke:#181818;stroke-width:0.5;"/><path d="M64,21.5 L64,48.5 M51,29.5 L77,29.5 M64,48.5 L51,63.5 M64,48.5 L77,63.5 " fill="none" style="stroke:#181818;stroke-width:0.5;"/><text fill="#000000" font-family="sans-serif" font-size="14" lengthAdjust="spacing" textLength="112" x="5" y="399.3477">Campus Manager</text><ellipse cx="64" cy="411.3613" fill="#E2E2F0" rx="8" ry="8" style="stroke:#181818;stroke-width:0.5;"/><path d="M64,419.3613 L64,446.3613 M51,427.3613 L77,427.3613 M64,446.3613 L51,461.3613 M64,446.3613 L77,461.3613 " fill="none" style="stroke:#181818;stroke-width:0.5;"/><rect fill="#E2E2F0" height="32.6211" rx="2.5" ry="2.5" style="stroke:#181818;stroke-width:0.5;" width="43" x="234.5" y="50"/><text fill="#000000" font-family="sans-serif" font-size="14" lengthAdjust="spacing" textLength="29" x="241.5" y="72.1074">View</text><rect fill="#E2E2F0" height="32.6211" rx="2.5" ry="2.5" style="stroke:#181818;stroke-width:0.5;" width="43" x="234.5" y="384.2402"/><text fill="#000000" font-family="sans-serif" font-size="14" lengthAdjust="spacing" textLength="29" x="241.5" y="406.3477">View</text><rect fill="#E2E2F0" height="32.6211" rx="2.5" ry="2.5" style="stroke:#181818;stroke-width:0.5;" width="76" x="376" y="50"/><text fill="#000000" font-family="sans-serif" font-size="14" lengthAdjust="spacing" textLength="62" x="383" y="72.1074">Controller</text><rect fill="#E2E2F0" height="32.6211" rx="2.5" ry="2.5" style="stroke:#181818;stroke-width:0.5;" width="76" x="376" y="384.2402"/><text fill="#000000" font-family="sans-serif" font-size="14" lengthAdjust="spacing" textLength="62" x="383" y="406.3477">Controller</text><rect fill="#E2E2F0" height="32.6211" rx="2.5" ry="2.5" style="stroke:#181818;stroke-width:0.5;" width="61" x="553.5" y="50"/><text fill="#000000" font-family="sans-serif" font-size="14" lengthAdjust="spacing" textLength="47" x="560.5" y="72.1074">Service</text><rect fill="#E2E2F0" height="32.6211" rx="2.5" ry="2.5" style="stroke:#181818;stroke-width:0.5;" width="61" x="553.5" y="384.2402"/><text fill="#000000" font-family="sans-serif" font-size="14" lengthAdjust="spacing" textLength="47" x="560.5" y="406.3477">Service</text><rect fill="#E2E2F0" height="32.6211" rx="2.5" ry="2.5" style="stroke:#181818;stroke-width:0.5;" width="88" x="698" y="50"/><text fill="#000000" font-family="sans-serif" font-size="14" lengthAdjust="spacing" textLength="74" x="705" y="72.1074">HTTPDriver</text><rect fill="#E2E2F0" height="32.6211" rx="2.5" ry="2.5" style="stroke:#181818;stroke-width:0.5;" width="88" x="698" y="384.2402"/><text fill="#000000" font-family="sans-serif" font-size="14" lengthAdjust="spacing" textLength="74" x="705" y="406.3477">HTTPDriver</text><rect fill="#FFFFFF" height="282.6191" style="stroke:#181818;stroke-width:1.0;" width="10" x="59" y="93.6211"/><rect fill="#FFFFFF" height="259.3281" style="stroke:#181818;stroke-width:1.0;" width="10" x="251" y="116.9121"/><rect fill="#FFFFFF" height="228.0371" style="stroke:#181818;stroke-width:1.0;" width="10" x="409" y="148.2031"/><rect fill="#FFFFFF" height="125.1641" style="stroke:#181818;stroke-width:1.0;" width="10" x="579" y="179.4941"/><rect fill="#FFFFFF" height="62.582" style="stroke:#181818;stroke-width:1.0;" width="10" x="737" y="210.7852"/><polygon fill="#181818" points="239,112.9121,249,116.9121,239,120.9121,243,116.9121" style="stroke:#181818;stroke-width:1.0;"/><line style="stroke:#181818;stroke-width:1.0;" x1="69" x2="245" y1="116.9121" y2="116.9121"/><text fill="#000000" font-family="sans-serif" font-size="13" font-weight="bold" lengthAdjust="spacing" textLength="7" x="76" y="111.6494">1</text><text fill="#000000" font-family="sans-serif" font-size="13" lengthAdjust="spacing" textLength="152" x="87" y="111.6494">selects robot listing option</text><polygon fill="#181818" points="397,144.2031,407,148.2031,397,152.2031,401,148.2031" style="stroke:#181818;stroke-width:1.0;"/><line style="stroke:#181818;stroke-width:1.0;" x1="261" x2="403" y1="148.2031" y2="148.2031"/><text fill="#000000" font-family="sans-serif" font-size="13" font-weight="bold" lengthAdjust="spacing" textLength="7" x="268" y="142.9404">2</text><text fill="#000000" font-family="sans-serif" font-size="13" lengthAdjust="spacing" textLength="43" x="279" y="142.9404">onList()</text><polygon fill="#181818" points="567,175.4941,577,179.4941,567,183.4941,571,179.4941" style="stroke:#181818;stroke-width:1.0;"/><line style="stroke:#181818;stroke-width:1.0;" x1="419" x2="573" y1="179.4941" y2="179.4941"/><text fill="#000000" font-family="sans-serif" font-size="13" font-weight="bold" lengthAdjust="spacing" textLength="7" x="426" y="174.2314">3</text><text fill="#000000" font-family="sans-serif" font-size="13" lengthAdjust="spacing" textLength="130" x="437" y="174.2314">function call to Service</text><polygon fill="#181818" points="725,206.7852,735,210.7852,725,214.7852,729,210.7852" style="stroke:#181818;stroke-width:1.0;"/><line style="stroke:#181818;stroke-width:1.0;" x1="589" x2="731" y1="210.7852" y2="210.7852"/><text fill="#000000" font-family="sans-serif" font-size="13" font-weight="bold" lengthAdjust="spacing" textLength="7" x="596" y="205.5225">4</text><text fill="#000000" font-family="sans-serif" font-size="13" lengthAdjust="spacing" textLength="84" x="607" y="205.5225">get('/api/robot')</text><polygon fill="#181818" points="892,238.0762,902,242.0762,892,246.0762,896,242.0762" style="stroke:#181818;stroke-width:1.0;"/><line style="stroke:#181818;stroke-width:1.0;" x1="747" x2="898" y1="242.0762" y2="242.0762"/><text fill="#000000" font-family="sans-serif" font-size="13" font-weight="bold" lengthAdjust="spacing" textLength="7" x="754" y="236.8135">5</text><text fill="#000000" font-family="sans-serif" font-size="13" lengthAdjust="spacing" textLength="122" x="765" y="236.8135">sends request to API</text><polygon fill="#181818" points="600,269.3672,590,273.3672,600,277.3672,596,273.3672" style="stroke:#181818;stroke-width:1.0;"/><line style="stroke:#181818;stroke-width:1.0;" x1="594" x2="741" y1="273.3672" y2="273.3672"/><text fill="#000000" font-family="sans-serif" font-size="13" font-weight="bold" lengthAdjust="spacing" textLength="7" x="606" y="268.1045">6</text><text fill="#000000" font-family="sans-serif" font-size="13" lengthAdjust="spacing" textLength="113" x="617" y="268.1045">return list of Robots</text><polygon fill="#181818" points="430,300.6582,420,304.6582,430,308.6582,426,304.6582" style="stroke:#181818;stroke-width:1.0;"/><line style="stroke:#181818;stroke-width:1.0;" x1="424" x2="583" y1="304.6582" y2="304.6582"/><text fill="#000000" font-family="sans-serif" font-size="13" font-weight="bold" lengthAdjust="spacing" textLength="7" x="436" y="299.3955">7</text><text fill="#000000" font-family="sans-serif" font-size="13" lengthAdjust="spacing" textLength="113" x="447" y="299.3955">return list of Robots</text><polygon fill="#181818" points="272,331.9492,262,335.9492,272,339.9492,268,335.9492" style="stroke:#181818;stroke-width:1.0;"/><line style="stroke:#181818;stroke-width:1.0;" x1="266" x2="408" y1="335.9492" y2="335.9492"/><text fill="#000000" font-family="sans-serif" font-size="13" font-weight="bold" lengthAdjust="spacing" textLength="7" x="278" y="330.6865">8</text><text fill="#000000" font-family="sans-serif" font-size="13" lengthAdjust="spacing" textLength="113" x="289" y="330.6865">return list of Robots</text><polygon fill="#181818" points="80,363.2402,70,367.2402,80,371.2402,76,367.2402" style="stroke:#181818;stroke-width:1.0;"/><line style="stroke:#181818;stroke-width:1.0;" x1="74" x2="250" y1="367.2402" y2="367.2402"/><text fill="#000000" font-family="sans-serif" font-size="13" font-weight="bold" lengthAdjust="spacing" textLength="7" x="86" y="361.9775">9</text><text fill="#000000" font-family="sans-serif" font-size="13" lengthAdjust="spacing" textLength="129" x="97" y="361.9775">shows list of all robots</text><!--SRC=[XP0zQyCm48Pt_OeZIz8XzUwXKDp1WGP25RmhyiKHo98gdPo_tvEJ56SetOJU3vxtrXUYaEgg2bOvogDzrNwi4dvdT1gtlL53LACGAfDtUJnXvBSc7w7PWqgmQjGOSeAzSch0k191HJBQ16w3pk0LYgjx-cwye-YjnLYqvacJ62UZiGZoIMYFnyD7DDCjr8ePmqoAa4c4O9hj6tHG0oIqg2b1z2TFO4qYumRmWOntYrJ75Q8hgOPJtdsoSVEohENM8akMpzdfaWUjh0No3yw5NNATBFwM_GFIPbsfOAgPOhtiPVQs-6ecTJrpbcCdAgtlXzrTb3N_Kuvk7W3-35-bA0dHux99FWRyxvRtFTtVxjivzWNjug_fLo-Zvo7f1m00]--></g></svg>