<?xml version="1.0" encoding="us-ascii" standalone="no"?><svg xmlns="http://www.w3.org/2000/svg" xmlns:xlink="http://www.w3.org/1999/xlink" contentStyleType="text/css" height="465px" preserveAspectRatio="none" style="width:509px;height:465px;background:#FFFFFF;" version="1.1" viewBox="0 0 509 465" width="509px" zoomAndPan="magnify"><defs/><g><rect fill="#FFFFFF" height="247.7461" style="stroke:#181818;stroke-width:1.0;" width="10" x="203" y="116.9121"/><rect fill="#FFFFFF" height="160.1641" style="stroke:#181818;stroke-width:1.0;" width="10" x="341" y="148.2031"/><line style="stroke:#181818;stroke-width:0.5;stroke-dasharray:5.0,5.0;" x1="62" x2="62" y1="83.6211" y2="382.6582"/><line style="stroke:#181818;stroke-width:0.5;stroke-dasharray:5.0,5.0;" x1="208" x2="208" y1="83.6211" y2="382.6582"/><line style="stroke:#181818;stroke-width:0.5;stroke-dasharray:5.0,5.0;" x1="345.5" x2="345.5" y1="83.6211" y2="382.6582"/><text fill="#000000" font-family="sans-serif" font-size="14" lengthAdjust="spacing" textLength="108" x="5" y="80.1074">CampusManager</text><ellipse cx="62" cy="13.5" fill="#E2E2F0" rx="8" ry="8" style="stroke:#181818;stroke-width:0.5;"/><path d="M62,21.5 L62,48.5 M49,29.5 L75,29.5 M62,48.5 L49,63.5 M62,48.5 L75,63.5 " fill="none" style="stroke:#181818;stroke-width:0.5;"/><text fill="#000000" font-family="sans-serif" font-size="14" lengthAdjust="spacing" textLength="108" x="5" y="396.7656">CampusManager</text><ellipse cx="62" cy="408.7793" fill="#E2E2F0" rx="8" ry="8" style="stroke:#181818;stroke-width:0.5;"/><path d="M62,416.7793 L62,443.7793 M49,424.7793 L75,424.7793 M62,443.7793 L49,458.7793 M62,443.7793 L75,458.7793 " fill="none" style="stroke:#181818;stroke-width:0.5;"/><rect fill="#E2E2F0" height="32.6211" rx="2.5" ry="2.5" style="stroke:#181818;stroke-width:0.5;" width="26" x="195" y="50"/><text fill="#000000" font-family="sans-serif" font-size="14" lengthAdjust="spacing" textLength="12" x="202" y="72.1074">UI</text><rect fill="#E2E2F0" height="32.6211" rx="2.5" ry="2.5" style="stroke:#181818;stroke-width:0.5;" width="26" x="195" y="381.6582"/><text fill="#000000" font-family="sans-serif" font-size="14" lengthAdjust="spacing" textLength="12" x="202" y="403.7656">UI</text><rect fill="#E2E2F0" height="32.6211" rx="2.5" ry="2.5" style="stroke:#181818;stroke-width:0.5;" width="35" x="328.5" y="50"/><text fill="#000000" font-family="sans-serif" font-size="14" lengthAdjust="spacing" textLength="21" x="335.5" y="72.1074">MD</text><rect fill="#E2E2F0" height="32.6211" rx="2.5" ry="2.5" style="stroke:#181818;stroke-width:0.5;" width="35" x="328.5" y="381.6582"/><text fill="#000000" font-family="sans-serif" font-size="14" lengthAdjust="spacing" textLength="21" x="335.5" y="403.7656">MD</text><rect fill="#FFFFFF" height="247.7461" style="stroke:#181818;stroke-width:1.0;" width="10" x="203" y="116.9121"/><rect fill="#FFFFFF" height="160.1641" style="stroke:#181818;stroke-width:1.0;" width="10" x="341" y="148.2031"/><polygon fill="#181818" points="191,112.9121,201,116.9121,191,120.9121,195,116.9121" style="stroke:#181818;stroke-width:1.0;"/><line style="stroke:#181818;stroke-width:1.0;" x1="62" x2="197" y1="116.9121" y2="116.9121"/><text fill="#000000" font-family="sans-serif" font-size="13" font-weight="bold" lengthAdjust="spacing" textLength="7" x="69" y="111.6494">1</text><text fill="#000000" font-family="sans-serif" font-size="13" lengthAdjust="spacing" textLength="111" x="80" y="111.6494">request create floor</text><polygon fill="#181818" points="329,144.2031,339,148.2031,329,152.2031,333,148.2031" style="stroke:#181818;stroke-width:1.0;"/><line style="stroke:#181818;stroke-width:1.0;" x1="213" x2="335" y1="148.2031" y2="148.2031"/><text fill="#000000" font-family="sans-serif" font-size="13" font-weight="bold" lengthAdjust="spacing" textLength="7" x="220" y="142.9404">2</text><text fill="#000000" font-family="sans-serif" font-size="13" lengthAdjust="spacing" textLength="86" x="231" y="142.9404">post('/api/floor')</text><line style="stroke:#181818;stroke-width:1.0;" x1="351" x2="393" y1="239.0762" y2="239.0762"/><line style="stroke:#181818;stroke-width:1.0;" x1="393" x2="393" y1="239.0762" y2="252.0762"/><line style="stroke:#181818;stroke-width:1.0;" x1="352" x2="393" y1="252.0762" y2="252.0762"/><polygon fill="#181818" points="362,248.0762,352,252.0762,362,256.0762,358,252.0762" style="stroke:#181818;stroke-width:1.0;"/><text fill="#000000" font-family="sans-serif" font-size="13" font-weight="bold" lengthAdjust="spacing" textLength="7" x="358" y="216.5225">3</text><text fill="#000000" font-family="sans-serif" font-size="13" lengthAdjust="spacing" textLength="78" x="369" y="199.2314">creates floors</text><text fill="#000000" font-family="sans-serif" font-size="13" lengthAdjust="spacing" textLength="125" x="373" y="216.5225">with input data, saves</text><text fill="#000000" font-family="sans-serif" font-size="13" lengthAdjust="spacing" textLength="98" x="373" y="233.8135">and returns them</text><polygon fill="#181818" points="224,304.3672,214,308.3672,224,312.3672,220,308.3672" style="stroke:#181818;stroke-width:1.0;"/><line style="stroke:#181818;stroke-width:1.0;" x1="218" x2="345" y1="308.3672" y2="308.3672"/><text fill="#000000" font-family="sans-serif" font-size="13" font-weight="bold" lengthAdjust="spacing" textLength="7" x="230" y="303.1045">4</text><text fill="#000000" font-family="sans-serif" font-size="13" lengthAdjust="spacing" textLength="93" x="241" y="303.1045">response status</text><polygon fill="#181818" points="73,360.6582,63,364.6582,73,368.6582,69,364.6582" style="stroke:#181818;stroke-width:1.0;"/><line style="stroke:#181818;stroke-width:1.0;" x1="67" x2="207" y1="364.6582" y2="364.6582"/><text fill="#000000" font-family="sans-serif" font-size="13" font-weight="bold" lengthAdjust="spacing" textLength="7" x="79" y="359.3955">5</text><text fill="#000000" font-family="sans-serif" font-size="13" lengthAdjust="spacing" textLength="106" x="90" y="359.3955">operation success</text><!--SRC=[NOynJyCm48Lt_uhR0X8bUmSMM3fqYPIDvN2Enb9i7tVdikJ7OoUWgcpsywVlFNUp6Uknxtd1P2Kkppx7NkchKF9qc09U1ADpM2od4Zz8wjbR5dZ5o4NFcF120gWmEaQnu0DN4uodBJlTXUStQEdWt0Y7byOSGLgN6dWXD8BF9MTf5U7QhbLGgSeE5UMizj3roA7ViExHtSZ1hUlgXZzsr-dkKtXFy1riXf2u64ne-0IALzfUC4rrXXL92ZPJl9b-5ohdf0HgQ4NTHFzAzuLZHJEJe8MSG8ltf7Tm_SiF]--></g></svg>