<?xml version="1.0" encoding="us-ascii" standalone="no"?><svg xmlns="http://www.w3.org/2000/svg" xmlns:xlink="http://www.w3.org/1999/xlink" contentStyleType="text/css" height="1021px" preserveAspectRatio="none" style="width:1446px;height:1021px;background:#FFFFFF;" version="1.1" viewBox="0 0 1446 1021" width="1446px" zoomAndPan="magnify"><defs/><g><rect fill="#FFFFFF" height="826.2754" style="stroke:#181818;stroke-width:1.0;" width="10" x="17.5" y="93.6211"/><rect fill="#FFFFFF" height="31.291" style="stroke:#181818;stroke-width:1.0;" width="10" x="238.5" y="116.9121"/><rect fill="#FFFFFF" height="740.4023" style="stroke:#181818;stroke-width:1.0;" width="10" x="238.5" y="179.4941"/><rect fill="#FFFFFF" height="677.8203" style="stroke:#181818;stroke-width:1.0;" width="10" x="423.5" y="210.7852"/><rect fill="#FFFFFF" height="552.6563" style="stroke:#181818;stroke-width:1.0;" width="10" x="590.5" y="242.0762"/><rect fill="#FFFFFF" height="490.0742" style="stroke:#181818;stroke-width:1.0;" width="10" x="757.5" y="273.3672"/><rect fill="#FFFFFF" height="182.4551" style="stroke:#181818;stroke-width:1.0;" width="10" x="988.5" y="304.6582"/><rect fill="#FFFFFF" height="213.7461" style="stroke:#181818;stroke-width:1.0;" width="10" x="988.5" y="518.4043"/><rect fill="#FFFFFF" height="31.291" style="stroke:#181818;stroke-width:1.0;" width="10" x="1259.5" y="380.2402"/><rect fill="#FFFFFF" height="31.291" style="stroke:#181818;stroke-width:1.0;" width="10" x="1259.5" y="593.9863"/><rect fill="#FFFFFF" height="75.582" style="stroke:#181818;stroke-width:1.0;" width="10" x="1346.5" y="656.5684"/><line style="stroke:#181818;stroke-width:0.5;stroke-dasharray:5.0,5.0;" x1="22" x2="22" y1="83.6211" y2="937.8965"/><line style="stroke:#181818;stroke-width:0.5;stroke-dasharray:5.0,5.0;" x1="243" x2="243" y1="83.6211" y2="937.8965"/><line style="stroke:#181818;stroke-width:0.5;stroke-dasharray:5.0,5.0;" x1="428" x2="428" y1="83.6211" y2="937.8965"/><line style="stroke:#181818;stroke-width:0.5;stroke-dasharray:5.0,5.0;" x1="595.5" x2="595.5" y1="83.6211" y2="937.8965"/><line style="stroke:#181818;stroke-width:0.5;stroke-dasharray:5.0,5.0;" x1="762" x2="762" y1="83.6211" y2="937.8965"/><line style="stroke:#181818;stroke-width:0.5;stroke-dasharray:5.0,5.0;" x1="993.5" x2="993.5" y1="83.6211" y2="937.8965"/><line style="stroke:#181818;stroke-width:0.5;stroke-dasharray:5.0,5.0;" x1="1264" x2="1264" y1="83.6211" y2="937.8965"/><line style="stroke:#181818;stroke-width:0.5;stroke-dasharray:5.0,5.0;" x1="1351" x2="1351" y1="83.6211" y2="937.8965"/><text fill="#000000" font-family="sans-serif" font-size="14" lengthAdjust="spacing" textLength="29" x="5" y="80.1074">User</text><ellipse cx="22.5" cy="13.5" fill="#E2E2F0" rx="8" ry="8" style="stroke:#181818;stroke-width:0.5;"/><path d="M22.5,21.5 L22.5,48.5 M9.5,29.5 L35.5,29.5 M22.5,48.5 L9.5,63.5 M22.5,48.5 L35.5,63.5 " fill="none" style="stroke:#181818;stroke-width:0.5;"/><text fill="#000000" font-family="sans-serif" font-size="14" lengthAdjust="spacing" textLength="29" x="5" y="952.0039">User</text><ellipse cx="22.5" cy="964.0176" fill="#E2E2F0" rx="8" ry="8" style="stroke:#181818;stroke-width:0.5;"/><path d="M22.5,972.0176 L22.5,999.0176 M9.5,980.0176 L35.5,980.0176 M22.5,999.0176 L9.5,1014.0176 M22.5,999.0176 L35.5,1014.0176 " fill="none" style="stroke:#181818;stroke-width:0.5;"/><rect fill="#E2E2F0" height="32.6211" rx="2.5" ry="2.5" style="stroke:#181818;stroke-width:0.5;" width="43" x="222" y="50"/><text fill="#000000" font-family="sans-serif" font-size="14" lengthAdjust="spacing" textLength="29" x="229" y="72.1074">View</text><rect fill="#E2E2F0" height="32.6211" rx="2.5" ry="2.5" style="stroke:#181818;stroke-width:0.5;" width="43" x="222" y="936.8965"/><text fill="#000000" font-family="sans-serif" font-size="14" lengthAdjust="spacing" textLength="29" x="229" y="959.0039">View</text><rect fill="#E2E2F0" height="32.6211" rx="2.5" ry="2.5" style="stroke:#181818;stroke-width:0.5;" width="87" x="385" y="50"/><text fill="#000000" font-family="sans-serif" font-size="14" lengthAdjust="spacing" textLength="73" x="392" y="72.1074">Component</text><rect fill="#E2E2F0" height="32.6211" rx="2.5" ry="2.5" style="stroke:#181818;stroke-width:0.5;" width="87" x="385" y="936.8965"/><text fill="#000000" font-family="sans-serif" font-size="14" lengthAdjust="spacing" textLength="73" x="392" y="959.0039">Component</text><rect fill="#E2E2F0" height="32.6211" rx="2.5" ry="2.5" style="stroke:#181818;stroke-width:0.5;" width="120" x="535.5" y="50"/><text fill="#000000" font-family="sans-serif" font-size="14" lengthAdjust="spacing" textLength="106" x="542.5" y="72.1074">FrontEndService</text><rect fill="#E2E2F0" height="32.6211" rx="2.5" ry="2.5" style="stroke:#181818;stroke-width:0.5;" width="120" x="535.5" y="936.8965"/><text fill="#000000" font-family="sans-serif" font-size="14" lengthAdjust="spacing" textLength="106" x="542.5" y="959.0039">FrontEndService</text><rect fill="#E2E2F0" height="32.6211" rx="2.5" ry="2.5" style="stroke:#181818;stroke-width:0.5;" width="105" x="710" y="50"/><text fill="#000000" font-family="sans-serif" font-size="14" lengthAdjust="spacing" textLength="91" x="717" y="72.1074">UserController</text><rect fill="#E2E2F0" height="32.6211" rx="2.5" ry="2.5" style="stroke:#181818;stroke-width:0.5;" width="105" x="710" y="936.8965"/><text fill="#000000" font-family="sans-serif" font-size="14" lengthAdjust="spacing" textLength="91" x="717" y="959.0039">UserController</text><rect fill="#E2E2F0" height="32.6211" rx="2.5" ry="2.5" style="stroke:#181818;stroke-width:0.5;" width="90" x="948.5" y="50"/><text fill="#000000" font-family="sans-serif" font-size="14" lengthAdjust="spacing" textLength="76" x="955.5" y="72.1074">UserService</text><rect fill="#E2E2F0" height="32.6211" rx="2.5" ry="2.5" style="stroke:#181818;stroke-width:0.5;" width="90" x="948.5" y="936.8965"/><text fill="#000000" font-family="sans-serif" font-size="14" lengthAdjust="spacing" textLength="76" x="955.5" y="959.0039">UserService</text><rect fill="#E2E2F0" height="32.6211" rx="2.5" ry="2.5" style="stroke:#181818;stroke-width:0.5;" width="111" x="1209" y="50"/><text fill="#000000" font-family="sans-serif" font-size="14" lengthAdjust="spacing" textLength="97" x="1216" y="72.1074">UserRepository</text><rect fill="#E2E2F0" height="32.6211" rx="2.5" ry="2.5" style="stroke:#181818;stroke-width:0.5;" width="111" x="1209" y="936.8965"/><text fill="#000000" font-family="sans-serif" font-size="14" lengthAdjust="spacing" textLength="97" x="1216" y="959.0039">UserRepository</text><rect fill="#E2E2F0" height="32.6211" rx="2.5" ry="2.5" style="stroke:#181818;stroke-width:0.5;" width="43" x="1330" y="50"/><text fill="#000000" font-family="sans-serif" font-size="14" lengthAdjust="spacing" textLength="29" x="1337" y="72.1074">User</text><rect fill="#E2E2F0" height="32.6211" rx="2.5" ry="2.5" style="stroke:#181818;stroke-width:0.5;" width="43" x="1330" y="936.8965"/><text fill="#000000" font-family="sans-serif" font-size="14" lengthAdjust="spacing" textLength="29" x="1337" y="959.0039">User</text><rect fill="#FFFFFF" height="826.2754" style="stroke:#181818;stroke-width:1.0;" width="10" x="17.5" y="93.6211"/><rect fill="#FFFFFF" height="31.291" style="stroke:#181818;stroke-width:1.0;" width="10" x="238.5" y="116.9121"/><rect fill="#FFFFFF" height="740.4023" style="stroke:#181818;stroke-width:1.0;" width="10" x="238.5" y="179.4941"/><rect fill="#FFFFFF" height="677.8203" style="stroke:#181818;stroke-width:1.0;" width="10" x="423.5" y="210.7852"/><rect fill="#FFFFFF" height="552.6563" style="stroke:#181818;stroke-width:1.0;" width="10" x="590.5" y="242.0762"/><rect fill="#FFFFFF" height="490.0742" style="stroke:#181818;stroke-width:1.0;" width="10" x="757.5" y="273.3672"/><rect fill="#FFFFFF" height="182.4551" style="stroke:#181818;stroke-width:1.0;" width="10" x="988.5" y="304.6582"/><rect fill="#FFFFFF" height="213.7461" style="stroke:#181818;stroke-width:1.0;" width="10" x="988.5" y="518.4043"/><rect fill="#FFFFFF" height="31.291" style="stroke:#181818;stroke-width:1.0;" width="10" x="1259.5" y="380.2402"/><rect fill="#FFFFFF" height="31.291" style="stroke:#181818;stroke-width:1.0;" width="10" x="1259.5" y="593.9863"/><rect fill="#FFFFFF" height="75.582" style="stroke:#181818;stroke-width:1.0;" width="10" x="1346.5" y="656.5684"/><polygon fill="#181818" points="226.5,112.9121,236.5,116.9121,226.5,120.9121,230.5,116.9121" style="stroke:#181818;stroke-width:1.0;"/><line style="stroke:#181818;stroke-width:1.0;" x1="27.5" x2="232.5" y1="116.9121" y2="116.9121"/><text fill="#000000" font-family="sans-serif" font-size="13" lengthAdjust="spacing" textLength="154" x="34.5" y="111.6494">requests to delete account</text><polygon fill="#181818" points="38.5,144.2031,28.5,148.2031,38.5,152.2031,34.5,148.2031" style="stroke:#181818;stroke-width:1.0;"/><line style="stroke:#181818;stroke-width:1.0;" x1="32.5" x2="242.5" y1="148.2031" y2="148.2031"/><text fill="#000000" font-family="sans-serif" font-size="13" lengthAdjust="spacing" textLength="187" x="44.5" y="142.9404">requests confirmation of deletion</text><polygon fill="#181818" points="226.5,175.4941,236.5,179.4941,226.5,183.4941,230.5,179.4941" style="stroke:#181818;stroke-width:1.0;"/><line style="stroke:#181818;stroke-width:1.0;" x1="27.5" x2="232.5" y1="179.4941" y2="179.4941"/><text fill="#000000" font-family="sans-serif" font-size="13" lengthAdjust="spacing" textLength="113" x="34.5" y="174.2314">confirm + password</text><polygon fill="#181818" points="411.5,206.7852,421.5,210.7852,411.5,214.7852,415.5,210.7852" style="stroke:#181818;stroke-width:1.0;"/><line style="stroke:#181818;stroke-width:1.0;" x1="248.5" x2="417.5" y1="210.7852" y2="210.7852"/><text fill="#000000" font-family="sans-serif" font-size="13" lengthAdjust="spacing" textLength="138" x="255.5" y="205.5225">delete(token, password)</text><polygon fill="#181818" points="578.5,238.0762,588.5,242.0762,578.5,246.0762,582.5,242.0762" style="stroke:#181818;stroke-width:1.0;"/><line style="stroke:#181818;stroke-width:1.0;" x1="433.5" x2="584.5" y1="242.0762" y2="242.0762"/><text fill="#000000" font-family="sans-serif" font-size="13" lengthAdjust="spacing" textLength="138" x="440.5" y="236.8135">delete(token, password)</text><polygon fill="#181818" points="745.5,269.3672,755.5,273.3672,745.5,277.3672,749.5,273.3672" style="stroke:#181818;stroke-width:1.0;"/><line style="stroke:#181818;stroke-width:1.0;" x1="600.5" x2="751.5" y1="273.3672" y2="273.3672"/><text fill="#000000" font-family="sans-serif" font-size="13" lengthAdjust="spacing" textLength="138" x="607.5" y="268.1045">delete(token, password)</text><polygon fill="#181818" points="976.5,300.6582,986.5,304.6582,976.5,308.6582,980.5,304.6582" style="stroke:#181818;stroke-width:1.0;"/><line style="stroke:#181818;stroke-width:1.0;" x1="767.5" x2="982.5" y1="304.6582" y2="304.6582"/><text fill="#000000" font-family="sans-serif" font-size="13" lengthAdjust="spacing" textLength="202" x="774.5" y="299.3955">confirmPassword(token, password)</text><line style="stroke:#181818;stroke-width:1.0;" x1="998.5" x2="1040.5" y1="335.9492" y2="335.9492"/><line style="stroke:#181818;stroke-width:1.0;" x1="1040.5" x2="1040.5" y1="335.9492" y2="348.9492"/><line style="stroke:#181818;stroke-width:1.0;" x1="999.5" x2="1040.5" y1="348.9492" y2="348.9492"/><polygon fill="#181818" points="1009.5,344.9492,999.5,348.9492,1009.5,352.9492,1005.5,348.9492" style="stroke:#181818;stroke-width:1.0;"/><text fill="#000000" font-family="sans-serif" font-size="13" lengthAdjust="spacing" textLength="117" x="1005.5" y="330.6865">decodeToken(token)</text><polygon fill="#181818" points="1247.5,376.2402,1257.5,380.2402,1247.5,384.2402,1251.5,380.2402" style="stroke:#181818;stroke-width:1.0;"/><line style="stroke:#181818;stroke-width:1.0;" x1="998.5" x2="1253.5" y1="380.2402" y2="380.2402"/><text fill="#000000" font-family="sans-serif" font-size="13" lengthAdjust="spacing" textLength="133" x="1005.5" y="374.9775">getUserByEmail(email)</text><polygon fill="#181818" points="1009.5,407.5313,999.5,411.5313,1009.5,415.5313,1005.5,411.5313" style="stroke:#181818;stroke-width:1.0;"/><line style="stroke:#181818;stroke-width:1.0;" x1="1003.5" x2="1263.5" y1="411.5313" y2="411.5313"/><text fill="#000000" font-family="sans-serif" font-size="13" lengthAdjust="spacing" textLength="25" x="1015.5" y="406.2686">user</text><line style="stroke:#181818;stroke-width:1.0;" x1="998.5" x2="1040.5" y1="442.8223" y2="442.8223"/><line style="stroke:#181818;stroke-width:1.0;" x1="1040.5" x2="1040.5" y1="442.8223" y2="455.8223"/><line style="stroke:#181818;stroke-width:1.0;" x1="999.5" x2="1040.5" y1="455.8223" y2="455.8223"/><polygon fill="#181818" points="1009.5,451.8223,999.5,455.8223,1009.5,459.8223,1005.5,455.8223" style="stroke:#181818;stroke-width:1.0;"/><text fill="#000000" font-family="sans-serif" font-size="13" lengthAdjust="spacing" textLength="247" x="1005.5" y="437.5596">checkPassword(password, user.password)</text><polygon fill="#181818" points="778.5,483.1133,768.5,487.1133,778.5,491.1133,774.5,487.1133" style="stroke:#181818;stroke-width:1.0;"/><line style="stroke:#181818;stroke-width:1.0;" x1="772.5" x2="992.5" y1="487.1133" y2="487.1133"/><text fill="#000000" font-family="sans-serif" font-size="13" lengthAdjust="spacing" textLength="22" x="784.5" y="481.8506">true</text><polygon fill="#181818" points="976.5,514.4043,986.5,518.4043,976.5,522.4043,980.5,518.4043" style="stroke:#181818;stroke-width:1.0;"/><line style="stroke:#181818;stroke-width:1.0;" x1="767.5" x2="982.5" y1="518.4043" y2="518.4043"/><text fill="#000000" font-family="sans-serif" font-size="13" lengthAdjust="spacing" textLength="102" x="774.5" y="513.1416">deleteUser(token)</text><line style="stroke:#181818;stroke-width:1.0;" x1="998.5" x2="1040.5" y1="549.6953" y2="549.6953"/><line style="stroke:#181818;stroke-width:1.0;" x1="1040.5" x2="1040.5" y1="549.6953" y2="562.6953"/><line style="stroke:#181818;stroke-width:1.0;" x1="999.5" x2="1040.5" y1="562.6953" y2="562.6953"/><polygon fill="#181818" points="1009.5,558.6953,999.5,562.6953,1009.5,566.6953,1005.5,562.6953" style="stroke:#181818;stroke-width:1.0;"/><text fill="#000000" font-family="sans-serif" font-size="13" lengthAdjust="spacing" textLength="117" x="1005.5" y="544.4326">decodeToken(token)</text><polygon fill="#181818" points="1247.5,589.9863,1257.5,593.9863,1247.5,597.9863,1251.5,593.9863" style="stroke:#181818;stroke-width:1.0;"/><line style="stroke:#181818;stroke-width:1.0;" x1="998.5" x2="1253.5" y1="593.9863" y2="593.9863"/><text fill="#000000" font-family="sans-serif" font-size="13" lengthAdjust="spacing" textLength="133" x="1005.5" y="588.7236">getUserByEmail(email)</text><polygon fill="#181818" points="1009.5,621.2773,999.5,625.2773,1009.5,629.2773,1005.5,625.2773" style="stroke:#181818;stroke-width:1.0;"/><line style="stroke:#181818;stroke-width:1.0;" x1="1003.5" x2="1263.5" y1="625.2773" y2="625.2773"/><text fill="#000000" font-family="sans-serif" font-size="13" lengthAdjust="spacing" textLength="25" x="1015.5" y="620.0146">user</text><polygon fill="#181818" points="1334.5,652.5684,1344.5,656.5684,1334.5,660.5684,1338.5,656.5684" style="stroke:#181818;stroke-width:1.0;"/><line style="stroke:#181818;stroke-width:1.0;" x1="998.5" x2="1340.5" y1="656.5684" y2="656.5684"/><text fill="#000000" font-family="sans-serif" font-size="13" lengthAdjust="spacing" textLength="69" x="1005.5" y="651.3057">setInactive()</text><line style="stroke:#181818;stroke-width:1.0;" x1="1356.5" x2="1398.5" y1="687.8594" y2="687.8594"/><line style="stroke:#181818;stroke-width:1.0;" x1="1398.5" x2="1398.5" y1="687.8594" y2="700.8594"/><line style="stroke:#181818;stroke-width:1.0;" x1="1357.5" x2="1398.5" y1="700.8594" y2="700.8594"/><polygon fill="#181818" points="1367.5,696.8594,1357.5,700.8594,1367.5,704.8594,1363.5,700.8594" style="stroke:#181818;stroke-width:1.0;"/><text fill="#000000" font-family="sans-serif" font-size="13" lengthAdjust="spacing" textLength="76" x="1363.5" y="682.5967">active = false</text><polygon fill="#181818" points="778.5,728.1504,768.5,732.1504,778.5,736.1504,774.5,732.1504" style="stroke:#181818;stroke-width:1.0;"/><line style="stroke:#181818;stroke-width:1.0;" x1="772.5" x2="992.5" y1="732.1504" y2="732.1504"/><text fill="#000000" font-family="sans-serif" font-size="13" lengthAdjust="spacing" textLength="49" x="784.5" y="726.8877">success</text><polygon fill="#181818" points="611.5,759.4414,601.5,763.4414,611.5,767.4414,607.5,763.4414" style="stroke:#181818;stroke-width:1.0;"/><line style="stroke:#181818;stroke-width:1.0;" x1="605.5" x2="761.5" y1="763.4414" y2="763.4414"/><text fill="#000000" font-family="sans-serif" font-size="13" lengthAdjust="spacing" textLength="49" x="617.5" y="758.1787">success</text><polygon fill="#181818" points="444.5,790.7324,434.5,794.7324,444.5,798.7324,440.5,794.7324" style="stroke:#181818;stroke-width:1.0;"/><line style="stroke:#181818;stroke-width:1.0;" x1="438.5" x2="594.5" y1="794.7324" y2="794.7324"/><text fill="#000000" font-family="sans-serif" font-size="13" lengthAdjust="spacing" textLength="49" x="450.5" y="789.4697">success</text><polygon fill="#181818" points="259.5,822.0234,249.5,826.0234,259.5,830.0234,255.5,826.0234" style="stroke:#181818;stroke-width:1.0;"/><line style="stroke:#181818;stroke-width:1.0;" x1="253.5" x2="422.5" y1="826.0234" y2="826.0234"/><text fill="#000000" font-family="sans-serif" font-size="13" lengthAdjust="spacing" textLength="151" x="265.5" y="820.7607">display success message</text><polygon fill="#181818" points="38.5,853.3145,28.5,857.3145,38.5,861.3145,34.5,857.3145" style="stroke:#181818;stroke-width:1.0;"/><line style="stroke:#181818;stroke-width:1.0;" x1="32.5" x2="237.5" y1="857.3145" y2="857.3145"/><text fill="#000000" font-family="sans-serif" font-size="13" lengthAdjust="spacing" textLength="147" x="44.5" y="852.0518">shows success message</text><polygon fill="#181818" points="259.5,884.6055,249.5,888.6055,259.5,892.6055,255.5,888.6055" style="stroke:#181818;stroke-width:1.0;"/><line style="stroke:#181818;stroke-width:1.0;" x1="253.5" x2="427.5" y1="888.6055" y2="888.6055"/><text fill="#000000" font-family="sans-serif" font-size="13" lengthAdjust="spacing" textLength="35" x="265.5" y="883.3428">logout</text><polygon fill="#181818" points="33.5,915.8965,23.5,919.8965,33.5,923.8965,29.5,919.8965" style="stroke:#181818;stroke-width:1.0;"/><line style="stroke:#181818;stroke-width:1.0;" x1="27.5" x2="242.5" y1="919.8965" y2="919.8965"/><text fill="#000000" font-family="sans-serif" font-size="13" lengthAdjust="spacing" textLength="35" x="39.5" y="914.6338">logout</text><!--SRC=[nPFFRiCW3CRlF8MFhTRj0IfjXw5MscrAHkw8k2rQWZCWhVhsW_mhKQgfjns28lpxxCy6fF9aGJYqh97MQwKRQJmK6YyW7HIpNKvrGmR3NmZnMMXloVYTANEqPwqm0ljTFaDY4HueIrM5DXA2Bu14BvRo31joEZY-Ta2s0BfjngJo-YmzzerrWUStABPWyQT5vnruWX8h38XKYbhZRvg25P6EgaIWo1oqhQNNP80ElJhyin8JPL9g4C0JDDAv2zboKO9l1nChJzzeDXEvlg6SyOY6OJu0nv67hxF_IF9m0A9BB_B9yEU0_INBcSX7MOcAIloAS2zPZy5i2qVqSIJlrrqjTRN2kAQ9CYQoCL4RpogPPWnELTG9rVTaRVIqwKGlDujYwjtR5cVPygJLVZ3HsMZvtthRWaF_ORe8hb8z4mFGn-0L3h9oo98cNQiKEZVBVBVfxlhSe_buN-vdYnUA3nUwrAwfv7N4e0wBF6BwMjo9Bcu1J1agEbBh8It0KtaVdx-er6mS8li5]--></g></svg>