<?xml version="1.0" encoding="us-ascii" standalone="no"?><svg xmlns="http://www.w3.org/2000/svg" xmlns:xlink="http://www.w3.org/1999/xlink" contentStyleType="text/css" height="423px" preserveAspectRatio="none" style="width:630px;height:423px;background:#FFFFFF;" version="1.1" viewBox="0 0 630 423" width="630px" zoomAndPan="magnify"><defs/><g><rect fill="#FFFFFF" height="214.4551" style="stroke:#181818;stroke-width:1.0;" width="10" x="282" y="116.9121"/><rect fill="#FFFFFF" height="142.873" style="stroke:#181818;stroke-width:1.0;" width="10" x="478" y="148.2031"/><line style="stroke:#181818;stroke-width:0.5;stroke-dasharray:5.0,5.0;" x1="62" x2="62" y1="83.6211" y2="340.3672"/><line style="stroke:#181818;stroke-width:0.5;stroke-dasharray:5.0,5.0;" x1="287" x2="287" y1="83.6211" y2="340.3672"/><line style="stroke:#181818;stroke-width:0.5;stroke-dasharray:5.0,5.0;" x1="482.5" x2="482.5" y1="83.6211" y2="340.3672"/><text fill="#000000" font-family="sans-serif" font-size="14" lengthAdjust="spacing" textLength="108" x="5" y="80.1074">CampusManager</text><ellipse cx="62" cy="13.5" fill="#E2E2F0" rx="8" ry="8" style="stroke:#181818;stroke-width:0.5;"/><path d="M62,21.5 L62,48.5 M49,29.5 L75,29.5 M62,48.5 L49,63.5 M62,48.5 L75,63.5 " fill="none" style="stroke:#181818;stroke-width:0.5;"/><text fill="#000000" font-family="sans-serif" font-size="14" lengthAdjust="spacing" textLength="108" x="5" y="354.4746">CampusManager</text><ellipse cx="62" cy="366.4883" fill="#E2E2F0" rx="8" ry="8" style="stroke:#181818;stroke-width:0.5;"/><path d="M62,374.4883 L62,401.4883 M49,382.4883 L75,382.4883 M62,401.4883 L49,416.4883 M62,401.4883 L75,416.4883 " fill="none" style="stroke:#181818;stroke-width:0.5;"/><rect fill="#E2E2F0" height="32.6211" rx="2.5" ry="2.5" style="stroke:#181818;stroke-width:0.5;" width="26" x="274" y="50"/><text fill="#000000" font-family="sans-serif" font-size="14" lengthAdjust="spacing" textLength="12" x="281" y="72.1074">UI</text><rect fill="#E2E2F0" height="32.6211" rx="2.5" ry="2.5" style="stroke:#181818;stroke-width:0.5;" width="26" x="274" y="339.3672"/><text fill="#000000" font-family="sans-serif" font-size="14" lengthAdjust="spacing" textLength="12" x="281" y="361.4746">UI</text><rect fill="#E2E2F0" height="32.6211" rx="2.5" ry="2.5" style="stroke:#181818;stroke-width:0.5;" width="35" x="465.5" y="50"/><text fill="#000000" font-family="sans-serif" font-size="14" lengthAdjust="spacing" textLength="21" x="472.5" y="72.1074">MD</text><rect fill="#E2E2F0" height="32.6211" rx="2.5" ry="2.5" style="stroke:#181818;stroke-width:0.5;" width="35" x="465.5" y="339.3672"/><text fill="#000000" font-family="sans-serif" font-size="14" lengthAdjust="spacing" textLength="21" x="472.5" y="361.4746">MD</text><rect fill="#FFFFFF" height="214.4551" style="stroke:#181818;stroke-width:1.0;" width="10" x="282" y="116.9121"/><rect fill="#FFFFFF" height="142.873" style="stroke:#181818;stroke-width:1.0;" width="10" x="478" y="148.2031"/><polygon fill="#181818" points="270,112.9121,280,116.9121,270,120.9121,274,116.9121" style="stroke:#181818;stroke-width:1.0;"/><line style="stroke:#181818;stroke-width:1.0;" x1="62" x2="276" y1="116.9121" y2="116.9121"/><text fill="#000000" font-family="sans-serif" font-size="13" font-weight="bold" lengthAdjust="spacing" textLength="7" x="69" y="111.6494">1</text><text fill="#000000" font-family="sans-serif" font-size="13" lengthAdjust="spacing" textLength="174" x="80" y="111.6494">requests to update an elevator</text><polygon fill="#181818" points="466,144.2031,476,148.2031,466,152.2031,470,148.2031" style="stroke:#181818;stroke-width:1.0;"/><line style="stroke:#181818;stroke-width:1.0;" x1="292" x2="472" y1="148.2031" y2="148.2031"/><text fill="#000000" font-family="sans-serif" font-size="13" font-weight="bold" lengthAdjust="spacing" textLength="7" x="299" y="142.9404">2</text><text fill="#000000" font-family="sans-serif" font-size="13" lengthAdjust="spacing" textLength="156" x="310" y="142.9404">patch('/api/elevator/update')</text><line style="stroke:#181818;stroke-width:1.0;" x1="488" x2="530" y1="221.7852" y2="221.7852"/><line style="stroke:#181818;stroke-width:1.0;" x1="530" x2="530" y1="221.7852" y2="234.7852"/><line style="stroke:#181818;stroke-width:1.0;" x1="489" x2="530" y1="234.7852" y2="234.7852"/><polygon fill="#181818" points="499,230.7852,489,234.7852,499,238.7852,495,234.7852" style="stroke:#181818;stroke-width:1.0;"/><text fill="#000000" font-family="sans-serif" font-size="13" font-weight="bold" lengthAdjust="spacing" textLength="7" x="495" y="207.877">3</text><text fill="#000000" font-family="sans-serif" font-size="13" lengthAdjust="spacing" textLength="98" x="506" y="199.2314">updates elevator,</text><text fill="#000000" font-family="sans-serif" font-size="13" lengthAdjust="spacing" textLength="113" x="510" y="216.5225">saves and returns it</text><polygon fill="#181818" points="303,287.0762,293,291.0762,303,295.0762,299,291.0762" style="stroke:#181818;stroke-width:1.0;"/><line style="stroke:#181818;stroke-width:1.0;" x1="297" x2="482" y1="291.0762" y2="291.0762"/><text fill="#000000" font-family="sans-serif" font-size="13" font-weight="bold" lengthAdjust="spacing" textLength="7" x="309" y="285.8135">4</text><text fill="#000000" font-family="sans-serif" font-size="13" lengthAdjust="spacing" textLength="93" x="320" y="285.8135">response status</text><polygon fill="#181818" points="73,318.3672,63,322.3672,73,326.3672,69,322.3672" style="stroke:#181818;stroke-width:1.0;"/><line style="stroke:#181818;stroke-width:1.0;" x1="67" x2="281" y1="322.3672" y2="322.3672"/><text fill="#000000" font-family="sans-serif" font-size="13" font-weight="bold" lengthAdjust="spacing" textLength="7" x="79" y="317.1045">5</text><text fill="#000000" font-family="sans-serif" font-size="13" lengthAdjust="spacing" textLength="185" x="90" y="317.1045">answers with operation success</text><!--SRC=[LOwnRiCm34HtVGKtjq1JxHwwD4i6Zzwwi38H2x0fLQISnHzVgadQT2CEz-wncrMpzDxd1Ldhkho6j7gXhqeSw315F1TSdSEgYUlwISNkeAd0Ewwvoe2CPog00gFBM3I6c6q9njDFTleN3aTewN1qReJ3MolrK9fCL40Jr3oX4Y03BRIXUPejRYsqBUiRPIizPDGmFtKUS_Jthh_YtRFxeyorxxipvavUI_9hU84F1i7D8kJ9tj5QM23g0tXxL79Y8H15hU8cUhJSdXkjY2mNAWANg3EaJ0Kr9dFK44Za6m00]--></g></svg>