<?xml version="1.0" encoding="us-ascii" standalone="no"?><svg xmlns="http://www.w3.org/2000/svg" xmlns:xlink="http://www.w3.org/1999/xlink" contentStyleType="text/css" height="754px" preserveAspectRatio="none" style="width:970px;height:754px;background:#FFFFFF;" version="1.1" viewBox="0 0 970 754" width="970px" zoomAndPan="magnify"><defs/><g><!--cluster RobDroneGo_I--><g id="cluster_RobDroneGo_I"><rect fill="#0FAAFF" height="358.4" rx="1" ry="1" style="stroke:#181818;stroke-width:0.4000000000000001;" width="301.2" x="418.8" y="280"/><rect fill="#0FAAFF" height="4" style="stroke:#181818;stroke-width:0.4000000000000001;" width="6" x="712" y="282"/><rect fill="#0FAAFF" height="0.8" style="stroke:#181818;stroke-width:0.4000000000000001;" width="1.6" x="711.2" y="282.8"/><rect fill="#0FAAFF" height="0.8" style="stroke:#181818;stroke-width:0.4000000000000001;" width="1.6" x="711.2" y="284.4"/><text fill="#000000" font-family="sans-serif" font-size="5.6" font-weight="bold" lengthAdjust="spacing" textLength="38" x="550.4" y="291.643">&#171;component&#187;</text><text fill="#000000" font-family="sans-serif" font-size="5.6" font-weight="bold" lengthAdjust="spacing" textLength="37.2" x="550.8" y="299.0914">&#171;system(C4)&#187;</text><text fill="#000000" font-family="sans-serif" font-size="5.6" font-weight="bold" lengthAdjust="spacing" textLength="36.4" x="551.2" y="307.3398">RobDroneGo</text></g><!--cluster MD_I--><g id="cluster_MD_I"><rect fill="#0FAAFF" height="66" rx="1" ry="1" style="stroke:#181818;stroke-width:0.4000000000000001;" width="100.4" x="474.8" y="554"/><rect fill="#0FAAFF" height="4" style="stroke:#181818;stroke-width:0.4000000000000001;" width="6" x="567.2" y="556"/><rect fill="#0FAAFF" height="0.8" style="stroke:#181818;stroke-width:0.4000000000000001;" width="1.6" x="566.4" y="556.8"/><rect fill="#0FAAFF" height="0.8" style="stroke:#181818;stroke-width:0.4000000000000001;" width="1.6" x="566.4" y="558.4"/><text fill="#000000" font-family="sans-serif" font-size="5.6" font-weight="bold" lengthAdjust="spacing" textLength="38" x="506" y="565.643">&#171;component&#187;</text><text fill="#000000" font-family="sans-serif" font-size="5.6" font-weight="bold" lengthAdjust="spacing" textLength="44.4" x="502.8" y="573.0914">&#171;container(C4)&#187;</text><text fill="#000000" font-family="sans-serif" font-size="5.6" font-weight="bold" lengthAdjust="spacing" textLength="48.4" x="500.8" y="581.3398">Master Data (MD)</text></g><!--cluster FE_I--><g id="cluster_FE_I"><rect fill="#0FAAFF" height="95.2" rx="1" ry="1" style="stroke:#181818;stroke-width:0.4000000000000001;" width="98.8" x="432.4" y="368"/><rect fill="#0FAAFF" height="4" style="stroke:#181818;stroke-width:0.4000000000000001;" width="6" x="523.2" y="370"/><rect fill="#0FAAFF" height="0.8" style="stroke:#181818;stroke-width:0.4000000000000001;" width="1.6" x="522.4" y="370.8"/><rect fill="#0FAAFF" height="0.8" style="stroke:#181818;stroke-width:0.4000000000000001;" width="1.6" x="522.4" y="372.4"/><text fill="#000000" font-family="sans-serif" font-size="5.6" font-weight="bold" lengthAdjust="spacing" textLength="38" x="462.8" y="379.643">&#171;component&#187;</text><text fill="#000000" font-family="sans-serif" font-size="5.6" font-weight="bold" lengthAdjust="spacing" textLength="44.4" x="459.6" y="387.0914">&#171;container(C4)&#187;</text><text fill="#000000" font-family="sans-serif" font-size="5.6" font-weight="bold" lengthAdjust="spacing" textLength="26" x="468.8" y="395.3398">FrontEnd</text></g><!--cluster Planning_I--><g id="cluster_Planning_I"><rect fill="#0FAAFF" height="48.8" rx="1" ry="1" style="stroke:#181818;stroke-width:0.4000000000000001;" width="42.8" x="562.325" y="346"/><rect fill="#0FAAFF" height="4" style="stroke:#181818;stroke-width:0.4000000000000001;" width="6" x="597.125" y="348"/><rect fill="#0FAAFF" height="0.8" style="stroke:#181818;stroke-width:0.4000000000000001;" width="1.6" x="596.325" y="348.8"/><rect fill="#0FAAFF" height="0.8" style="stroke:#181818;stroke-width:0.4000000000000001;" width="1.6" x="596.325" y="350.4"/><text fill="#000000" font-family="sans-serif" font-size="5.6" font-weight="bold" lengthAdjust="spacing" textLength="38" x="564.725" y="357.643">&#171;component&#187;</text><text fill="#000000" font-family="sans-serif" font-size="5.6" font-weight="bold" lengthAdjust="spacing" textLength="37.2" x="565.125" y="365.0914">&#171;system(C4)&#187;</text><text fill="#000000" font-family="sans-serif" font-size="5.6" font-weight="bold" lengthAdjust="spacing" textLength="24.4" x="571.525" y="373.3398">Planning</text></g><!--cluster Host_F--><g id="cluster_Host_F"><polygon fill="#ADD8E6" points="200,6.4,204,2.4,296.8,2.4,296.8,94,292.8,98,200,98,200,6.4" style="stroke:#181818;stroke-width:0.4000000000000001;"/><line style="stroke:#181818;stroke-width:0.4000000000000001;" x1="292.8" x2="296.8" y1="6.4" y2="2.4"/><line style="stroke:#181818;stroke-width:0.4000000000000001;" x1="200" x2="292.8" y1="6.4" y2="6.4"/><line style="stroke:#181818;stroke-width:0.4000000000000001;" x1="292.8" x2="292.8" y1="6.4" y2="98"/><text fill="#000000" font-family="sans-serif" font-size="5.6" font-weight="bold" lengthAdjust="spacing" textLength="34.4" x="229.6" y="14.043">localhost:??</text></g><!--cluster B--><g id="cluster_B"><rect fill="#0FAAFF" height="58.8" rx="1" ry="1" style="stroke:#181818;stroke-width:0.4000000000000001;" width="68" x="216" y="26.4"/><rect fill="#0FAAFF" height="4" style="stroke:#181818;stroke-width:0.4000000000000001;" width="6" x="276" y="28.4"/><rect fill="#0FAAFF" height="0.8" style="stroke:#181818;stroke-width:0.4000000000000001;" width="1.6" x="275.2" y="29.2"/><rect fill="#0FAAFF" height="0.8" style="stroke:#181818;stroke-width:0.4000000000000001;" width="1.6" x="275.2" y="30.8"/><text fill="#000000" font-family="sans-serif" font-size="5.6" font-weight="bold" lengthAdjust="spacing" textLength="38" x="231" y="38.043">&#171;component&#187;</text><text fill="#000000" font-family="sans-serif" font-size="5.6" font-weight="bold" lengthAdjust="spacing" textLength="23.6" x="238.2" y="46.2914">Browser</text></g><!--cluster Remote_F--><g id="cluster_Remote_F"><polygon fill="#ADD8E6" points="6.4,129.6,10.4,125.6,426.8,125.6,426.8,180.4,422.8,184.4,6.4,184.4,6.4,129.6" style="stroke:#181818;stroke-width:0.4000000000000001;"/><line style="stroke:#181818;stroke-width:0.4000000000000001;" x1="422.8" x2="426.8" y1="129.6" y2="125.6"/><line style="stroke:#181818;stroke-width:0.4000000000000001;" x1="6.4" x2="422.8" y1="129.6" y2="129.6"/><line style="stroke:#181818;stroke-width:0.4000000000000001;" x1="422.8" x2="422.8" y1="129.6" y2="184.4"/><text fill="#000000" font-family="sans-serif" font-size="5.6" font-weight="bold" lengthAdjust="spacing" textLength="42.4" x="193.8" y="137.243">Remote Server</text></g><text fill="#000000" font-family="sans-serif" font-size="5.6" lengthAdjust="spacing" textLength="1.6" x="418" y="385.7945">&#160;</text><rect fill="#0FAAFF" height="4.8" style="stroke:#181818;stroke-width:0.6000000000000001;" width="4.8" x="416.4" y="392.4"/><text fill="#000000" font-family="sans-serif" font-size="5.6" lengthAdjust="spacing" textLength="1.6" x="442.8" y="270.9945">&#160;</text><rect fill="#0FAAFF" height="4.8" style="stroke:#181818;stroke-width:0.6000000000000001;" width="4.8" x="441.2" y="277.6"/><text fill="#000000" font-family="sans-serif" font-size="5.6" lengthAdjust="spacing" textLength="1.6" x="491.6" y="270.9945">&#160;</text><rect fill="#0FAAFF" height="4.8" style="stroke:#181818;stroke-width:0.6000000000000001;" width="4.8" x="490" y="277.6"/><text fill="#000000" font-family="sans-serif" font-size="5.6" lengthAdjust="spacing" textLength="1.6" x="712" y="270.9945">&#160;</text><rect fill="#0FAAFF" height="4.8" style="stroke:#181818;stroke-width:0.6000000000000001;" width="4.8" x="710.4" y="277.6"/><text fill="#000000" font-family="sans-serif" font-size="5.6" lengthAdjust="spacing" textLength="1.6" x="639.6" y="270.9945">&#160;</text><rect fill="#0FAAFF" height="4.8" style="stroke:#181818;stroke-width:0.6000000000000001;" width="4.8" x="638" y="277.6"/><text fill="#000000" font-family="sans-serif" font-size="5.6" lengthAdjust="spacing" textLength="1.6" x="672.4" y="270.9945">&#160;</text><rect fill="#0FAAFF" height="4.8" style="stroke:#181818;stroke-width:0.6000000000000001;" width="4.8" x="670.8" y="277.6"/><text fill="#000000" font-family="sans-serif" font-size="5.6" lengthAdjust="spacing" textLength="1.6" x="705.2" y="270.9945">&#160;</text><rect fill="#0FAAFF" height="4.8" style="stroke:#181818;stroke-width:0.6000000000000001;" width="4.8" x="703.6" y="277.6"/><text fill="#000000" font-family="sans-serif" font-size="5.6" lengthAdjust="spacing" textLength="1.6" x="581.2" y="270.9945">&#160;</text><rect fill="#0FAAFF" height="4.8" style="stroke:#181818;stroke-width:0.6000000000000001;" width="4.8" x="579.6" y="277.6"/><text fill="#000000" font-family="sans-serif" font-size="5.6" lengthAdjust="spacing" textLength="1.6" x="616.8" y="270.9945">&#160;</text><rect fill="#0FAAFF" height="4.8" style="stroke:#181818;stroke-width:0.6000000000000001;" width="4.8" x="615.2" y="277.6"/><!--entity Planning_API_I--><g id="elem_Planning_API_I"><ellipse cx="564" cy="463.2" fill="#0FAAFF" rx="3.2" ry="3.2" style="stroke:#181818;stroke-width:0.20000000000000004;"/><text fill="#000000" font-family="sans-serif" font-size="5.6" font-weight="bold" lengthAdjust="spacing" textLength="34.8" x="546.6" y="476.443">Planning API</text></g><!--entity MD_API_I--><g id="elem_MD_API_I"><ellipse cx="482" cy="514" fill="#0FAAFF" rx="3.2" ry="3.2" style="stroke:#181818;stroke-width:0.20000000000000004;"/><text fill="#000000" font-family="sans-serif" font-size="5.6" font-weight="bold" lengthAdjust="spacing" textLength="19.6" x="472.2" y="527.243">MD API</text></g><text fill="#000000" font-family="sans-serif" font-size="5.6" lengthAdjust="spacing" textLength="1.6" x="567.2" y="544.9945">&#160;</text><rect fill="#0FAAFF" height="4.8" style="stroke:#181818;stroke-width:0.6000000000000001;" width="4.8" x="565.6" y="551.6"/><text fill="#000000" font-family="sans-serif" font-size="5.6" lengthAdjust="spacing" textLength="1.6" x="520.8" y="544.9945">&#160;</text><rect fill="#0FAAFF" height="4.8" style="stroke:#181818;stroke-width:0.6000000000000001;" width="4.8" x="519.2" y="551.6"/><text fill="#000000" font-family="sans-serif" font-size="5.6" lengthAdjust="spacing" textLength="1.6" x="497.2" y="628.843">&#160;</text><rect fill="#0FAAFF" height="4.8" style="stroke:#181818;stroke-width:0.6000000000000001;" width="4.8" x="495.6" y="617.6"/><text fill="#000000" font-family="sans-serif" font-size="5.6" lengthAdjust="spacing" textLength="1.6" x="481.2" y="544.9945">&#160;</text><rect fill="#0FAAFF" height="4.8" style="stroke:#181818;stroke-width:0.6000000000000001;" width="4.8" x="479.6" y="551.6"/><text fill="#000000" font-family="sans-serif" font-size="5.6" lengthAdjust="spacing" textLength="1.6" x="514" y="544.9945">&#160;</text><rect fill="#0FAAFF" height="4.8" style="stroke:#181818;stroke-width:0.6000000000000001;" width="4.8" x="512.4" y="551.6"/><text fill="#000000" font-family="sans-serif" font-size="5.6" lengthAdjust="spacing" textLength="1.6" x="560.4" y="544.9945">&#160;</text><rect fill="#0FAAFF" height="4.8" style="stroke:#181818;stroke-width:0.6000000000000001;" width="4.8" x="558.8" y="551.6"/><text fill="#000000" font-family="sans-serif" font-size="5.6" lengthAdjust="spacing" textLength="1.6" x="527.6" y="544.9945">&#160;</text><rect fill="#0FAAFF" height="4.8" style="stroke:#181818;stroke-width:0.6000000000000001;" width="4.8" x="526" y="551.6"/><text fill="#000000" font-family="sans-serif" font-size="5.6" lengthAdjust="spacing" textLength="1.6" x="481.2" y="472.043">&#160;</text><rect fill="#0FAAFF" height="4.8" style="stroke:#181818;stroke-width:0.6000000000000001;" width="4.8" x="479.6" y="460.8"/><text fill="#000000" font-family="sans-serif" font-size="5.6" lengthAdjust="spacing" textLength="1.6" x="471.6" y="358.9945">&#160;</text><rect fill="#0FAAFF" height="4.8" style="stroke:#181818;stroke-width:0.6000000000000001;" width="4.8" x="470" y="365.6"/><text fill="#000000" font-family="sans-serif" font-size="5.6" lengthAdjust="spacing" textLength="1.6" x="438.8" y="358.9945">&#160;</text><rect fill="#0FAAFF" height="4.8" style="stroke:#181818;stroke-width:0.6000000000000001;" width="4.8" x="437.2" y="365.6"/><text fill="#000000" font-family="sans-serif" font-size="5.6" lengthAdjust="spacing" textLength="1.6" x="490.4" y="358.9945">&#160;</text><rect fill="#0FAAFF" height="4.8" style="stroke:#181818;stroke-width:0.6000000000000001;" width="4.8" x="488.8" y="365.6"/><text fill="#000000" font-family="sans-serif" font-size="5.6" lengthAdjust="spacing" textLength="1.6" x="523.2" y="358.9945">&#160;</text><rect fill="#0FAAFF" height="4.8" style="stroke:#181818;stroke-width:0.6000000000000001;" width="4.8" x="521.6" y="365.6"/><text fill="#000000" font-family="sans-serif" font-size="5.6" lengthAdjust="spacing" textLength="1.6" x="568.8" y="403.643">&#160;</text><rect fill="#0FAAFF" height="4.8" style="stroke:#181818;stroke-width:0.6000000000000001;" width="4.8" x="567.2" y="392.4"/><!--entity UI--><g id="elem_UI"><rect fill="#0FAAFF" height="28.4969" rx="1" ry="1" style="stroke:#181818;stroke-width:0.20000000000000004;" width="54.8" x="222.6" y="50.4"/><rect fill="#0FAAFF" height="4" style="stroke:#181818;stroke-width:0.20000000000000004;" width="6" x="269.4" y="52.4"/><rect fill="#0FAAFF" height="0.8" style="stroke:#181818;stroke-width:0.20000000000000004;" width="1.6" x="268.6" y="53.2"/><rect fill="#0FAAFF" height="0.8" style="stroke:#181818;stroke-width:0.20000000000000004;" width="1.6" x="268.6" y="54.8"/><text fill="#000000" font-family="sans-serif" font-size="5.6" font-weight="bold" lengthAdjust="spacing" textLength="38" x="229" y="64.843">&#171;component&#187;</text><text fill="#000000" font-family="sans-serif" font-size="5.6" font-weight="bold" lengthAdjust="spacing" textLength="5.6" x="245.2" y="73.0914">UI</text></g><!--entity CM--><g id="elem_CM"><rect fill="#0FAAFF" height="28.4969" rx="1" ry="1" style="stroke:#181818;stroke-width:0.20000000000000004;" width="77.2" x="271" y="146.4"/><rect fill="#0FAAFF" height="4" style="stroke:#181818;stroke-width:0.20000000000000004;" width="6" x="340.2" y="148.4"/><rect fill="#0FAAFF" height="0.8" style="stroke:#181818;stroke-width:0.20000000000000004;" width="1.6" x="339.4" y="149.2"/><rect fill="#0FAAFF" height="0.8" style="stroke:#181818;stroke-width:0.20000000000000004;" width="1.6" x="339.4" y="150.8"/><text fill="#000000" font-family="sans-serif" font-size="5.6" font-weight="bold" lengthAdjust="spacing" textLength="38" x="288.6" y="160.843">&#171;component&#187;</text><text fill="#000000" font-family="sans-serif" font-size="5.6" font-weight="bold" lengthAdjust="spacing" textLength="60.4" x="277.4" y="169.0914">Campus Management</text></g><!--entity FM--><g id="elem_FM"><rect fill="#0FAAFF" height="28.4969" rx="1" ry="1" style="stroke:#181818;stroke-width:0.20000000000000004;" width="69.2" x="23.8" y="146.4"/><rect fill="#0FAAFF" height="4" style="stroke:#181818;stroke-width:0.20000000000000004;" width="6" x="85" y="148.4"/><rect fill="#0FAAFF" height="0.8" style="stroke:#181818;stroke-width:0.20000000000000004;" width="1.6" x="84.2" y="149.2"/><rect fill="#0FAAFF" height="0.8" style="stroke:#181818;stroke-width:0.20000000000000004;" width="1.6" x="84.2" y="150.8"/><text fill="#000000" font-family="sans-serif" font-size="5.6" font-weight="bold" lengthAdjust="spacing" textLength="38" x="37.4" y="160.843">&#171;component&#187;</text><text fill="#000000" font-family="sans-serif" font-size="5.6" font-weight="bold" lengthAdjust="spacing" textLength="52.4" x="30.2" y="169.0914">Fleet Management</text></g><!--entity Planning--><g id="elem_Planning"><rect fill="#0FAAFF" height="28.4969" rx="1" ry="1" style="stroke:#181818;stroke-width:0.20000000000000004;" width="54.8" x="362.2" y="146.4"/><rect fill="#0FAAFF" height="4" style="stroke:#181818;stroke-width:0.20000000000000004;" width="6" x="409" y="148.4"/><rect fill="#0FAAFF" height="0.8" style="stroke:#181818;stroke-width:0.20000000000000004;" width="1.6" x="408.2" y="149.2"/><rect fill="#0FAAFF" height="0.8" style="stroke:#181818;stroke-width:0.20000000000000004;" width="1.6" x="408.2" y="150.8"/><text fill="#000000" font-family="sans-serif" font-size="5.6" font-weight="bold" lengthAdjust="spacing" textLength="38" x="368.6" y="160.843">&#171;component&#187;</text><text fill="#000000" font-family="sans-serif" font-size="5.6" font-weight="bold" lengthAdjust="spacing" textLength="24.4" x="375.4" y="169.0914">Planning</text></g><!--entity TM--><g id="elem_TM"><rect fill="#0FAAFF" height="28.4969" rx="1" ry="1" style="stroke:#181818;stroke-width:0.20000000000000004;" width="67.6" x="107" y="146.4"/><rect fill="#0FAAFF" height="4" style="stroke:#181818;stroke-width:0.20000000000000004;" width="6" x="166.6" y="148.4"/><rect fill="#0FAAFF" height="0.8" style="stroke:#181818;stroke-width:0.20000000000000004;" width="1.6" x="165.8" y="149.2"/><rect fill="#0FAAFF" height="0.8" style="stroke:#181818;stroke-width:0.20000000000000004;" width="1.6" x="165.8" y="150.8"/><text fill="#000000" font-family="sans-serif" font-size="5.6" font-weight="bold" lengthAdjust="spacing" textLength="38" x="119.8" y="160.843">&#171;component&#187;</text><text fill="#000000" font-family="sans-serif" font-size="5.6" font-weight="bold" lengthAdjust="spacing" textLength="50.8" x="113.4" y="169.0914">Task Management</text></g><!--entity UM--><g id="elem_UM"><rect fill="#0FAAFF" height="28.4969" rx="1" ry="1" style="stroke:#181818;stroke-width:0.20000000000000004;" width="68" x="188.8" y="146.4"/><rect fill="#0FAAFF" height="4" style="stroke:#181818;stroke-width:0.20000000000000004;" width="6" x="248.8" y="148.4"/><rect fill="#0FAAFF" height="0.8" style="stroke:#181818;stroke-width:0.20000000000000004;" width="1.6" x="248" y="149.2"/><rect fill="#0FAAFF" height="0.8" style="stroke:#181818;stroke-width:0.20000000000000004;" width="1.6" x="248" y="150.8"/><text fill="#000000" font-family="sans-serif" font-size="5.6" font-weight="bold" lengthAdjust="spacing" textLength="38" x="201.8" y="160.843">&#171;component&#187;</text><text fill="#000000" font-family="sans-serif" font-size="5.6" font-weight="bold" lengthAdjust="spacing" textLength="51.2" x="195.2" y="169.0914">User Management</text></g><!--entity CM_API_I--><g id="elem_CM_API_I"><ellipse cx="932" cy="232" fill="#0FAAFF" rx="3.2" ry="3.2" style="stroke:#181818;stroke-width:0.20000000000000004;"/><text fill="#000000" font-family="sans-serif" font-size="5.6" font-weight="bold" lengthAdjust="spacing" textLength="70.4" x="896.8" y="245.243">Campus management API</text></g><!--entity TM_API_I--><g id="elem_TM_API_I"><ellipse cx="787.2" cy="232" fill="#0FAAFF" rx="3.2" ry="3.2" style="stroke:#181818;stroke-width:0.20000000000000004;"/><text fill="#000000" font-family="sans-serif" font-size="5.6" font-weight="bold" lengthAdjust="spacing" textLength="60.8" x="756.8" y="245.243">Task management API</text></g><!--entity UM_API_I--><g id="elem_UM_API_I"><ellipse cx="857.2" cy="232" fill="#0FAAFF" rx="3.2" ry="3.2" style="stroke:#181818;stroke-width:0.20000000000000004;"/><text fill="#000000" font-family="sans-serif" font-size="5.6" font-weight="bold" lengthAdjust="spacing" textLength="61.2" x="826.6" y="245.243">User management API</text></g><!--entity FM_API_I--><g id="elem_FM_API_I"><ellipse cx="716.4" cy="232" fill="#0FAAFF" rx="3.2" ry="3.2" style="stroke:#181818;stroke-width:0.20000000000000004;"/><text fill="#000000" font-family="sans-serif" font-size="5.6" font-weight="bold" lengthAdjust="spacing" textLength="62.4" x="685.2" y="245.243">Fleet management API</text></g><!--entity CampusM_I--><g id="elem_CampusM_I"><ellipse cx="439.6" cy="232" fill="#0FAAFF" rx="3.2" ry="3.2" style="stroke:#181818;stroke-width:0.20000000000000004;"/><text fill="#000000" font-family="sans-serif" font-size="5.6" font-weight="bold" lengthAdjust="spacing" textLength="67.6" x="405.8" y="245.243">Campus Management UI</text></g><!--entity TaskM_I--><g id="elem_TaskM_I"><ellipse cx="579.6" cy="232" fill="#0FAAFF" rx="3.2" ry="3.2" style="stroke:#181818;stroke-width:0.20000000000000004;"/><text fill="#000000" font-family="sans-serif" font-size="5.6" font-weight="bold" lengthAdjust="spacing" textLength="58" x="550.6" y="245.243">Task Management UI</text></g><!--entity UserM_I--><g id="elem_UserM_I"><ellipse cx="646.8" cy="232" fill="#0FAAFF" rx="3.2" ry="3.2" style="stroke:#181818;stroke-width:0.20000000000000004;"/><text fill="#000000" font-family="sans-serif" font-size="5.6" font-weight="bold" lengthAdjust="spacing" textLength="58.4" x="617.6" y="245.243">User Management UI</text></g><!--entity FleetM_I--><g id="elem_FleetM_I"><ellipse cx="512" cy="232" fill="#0FAAFF" rx="3.2" ry="3.2" style="stroke:#181818;stroke-width:0.20000000000000004;"/><text fill="#000000" font-family="sans-serif" font-size="5.6" font-weight="bold" lengthAdjust="spacing" textLength="59.6" x="482.2" y="245.243">Fleet Management UI</text></g><!--entity filesystem_API--><g id="elem_filesystem_API"><ellipse cx="384" cy="320" fill="#0FAAFF" rx="3.2" ry="3.2" style="stroke:#181818;stroke-width:0.20000000000000004;"/><text fill="#000000" font-family="sans-serif" font-size="5.6" font-weight="bold" lengthAdjust="spacing" textLength="38.8" x="364.6" y="333.243">filesystem API</text></g><!--entity RobDroneGo_L--><g id="elem_RobDroneGo_L"><rect fill="#0FAAFF" height="20.2484" rx="1" ry="1" style="stroke:#181818;stroke-width:0.20000000000000004;" width="56.8" x="708" y="731.6"/><rect fill="#0FAAFF" height="4" style="stroke:#181818;stroke-width:0.20000000000000004;" width="6" x="756.8" y="733.6"/><rect fill="#0FAAFF" height="0.8" style="stroke:#181818;stroke-width:0.20000000000000004;" width="1.6" x="756" y="734.4"/><rect fill="#0FAAFF" height="0.8" style="stroke:#181818;stroke-width:0.20000000000000004;" width="1.6" x="756" y="736"/><text fill="#000000" font-family="sans-serif" font-size="5.6" lengthAdjust="spacing" textLength="40" x="714.4" y="746.043">RobDroneGo_L</text></g><!--reverse link filesystem_API to p1_I--><g id="link_filesystem_API_p1_I"><path d="M387.2871,327.3913 C393.3271,340.2273 413.068,382.212 417.852,392.38 " fill="none" id="filesystem_API-backto-p1_I" style="stroke:#181818;stroke-width:0.4000000000000001;"/><path d="M383.0473,326.3264 A3.6,3.6 0 0 0 389.1692 323.4458" fill="none" style="stroke:#181818;stroke-width:0.6000000000000001;"/></g><!--link CampusM_I to p2_I--><g id="link_CampusM_I_p2_I"><path d="M439.876,235.644 C440.644,244.724 442.804,270.216 443.428,277.584 " fill="none" id="CampusM_I-p2_I" style="stroke:#181818;stroke-width:0.4000000000000001;"/></g><!--link FleetM_I to p3_I--><g id="link_FleetM_I_p3_I"><path d="M510.652,235.644 C506.88,244.724 496.296,270.216 493.236,277.584 " fill="none" id="FleetM_I-p3_I" style="stroke:#181818;stroke-width:0.4000000000000001;"/></g><!--link CM_API_I to p4_I--><g id="link_CM_API_I_p4_I"><path d="M928.364,233.708 C921.336,236.208 905.364,241.708 891.6,245.2 C820.516,263.232 731.424,276.832 715.344,279.224 " fill="none" id="CM_API_I-p4_I" style="stroke:#181818;stroke-width:0.4000000000000001;"/></g><!--link FM_API_I to p5_I--><g id="link_FM_API_I_p5_I"><path d="M712.736,234.676 C699.452,242.928 654.032,271.132 642.884,278.056 " fill="none" id="FM_API_I-p5_I" style="stroke:#181818;stroke-width:0.4000000000000001;"/></g><!--link TM_API_I to p6_I--><g id="link_TM_API_I_p6_I"><path d="M783.536,233.916 C765.928,241.208 690.26,272.536 675.648,278.588 " fill="none" id="TM_API_I-p6_I" style="stroke:#181818;stroke-width:0.4000000000000001;"/></g><!--link UM_API_I to p7_I--><g id="link_UM_API_I_p7_I"><path d="M853.504,233.888 C847.092,236.44 833.444,241.704 821.6,245.2 C815.496,247.004 714.96,267.208 710,271.2 C708.036,272.78 706.98,275.552 706.456,277.48 " fill="none" id="UM_API_I-p7_I" style="stroke:#181818;stroke-width:0.4000000000000001;"/></g><!--link TaskM_I to p8_I--><g id="link_TaskM_I_p8_I"><path d="M579.764,235.644 C580.228,244.724 581.524,270.216 581.896,277.584 " fill="none" id="TaskM_I-p8_I" style="stroke:#181818;stroke-width:0.4000000000000001;"/></g><!--link UserM_I to p9_I--><g id="link_UserM_I_p9_I"><path d="M644.792,235.644 C639.176,244.724 623.404,270.216 618.848,277.584 " fill="none" id="UserM_I-p9_I" style="stroke:#181818;stroke-width:0.4000000000000001;"/></g><!--link p2_I to pFE1_I--><g id="link_p2_I_pFE1_I"><path d="M443.5,282.556 C442.948,294.62 440.24,353.652 439.696,365.52 " fill="none" id="p2_I-pFE1_I" style="stroke:#181818;stroke-width:0.4000000000000001;"/></g><!--link p3_I to pFE2_I--><g id="link_p3_I_pFE2_I"><path d="M491.904,282.556 C489.14,294.62 475.6,353.652 472.876,365.52 " fill="none" id="p3_I-pFE2_I" style="stroke:#181818;stroke-width:0.4000000000000001;"/></g><!--link p8_I to pFE3_I--><g id="link_p8_I_pFE3_I"><path d="M579.508,282.152 C570.316,288.68 537.652,312.444 514.8,336.4 C505.236,346.424 495.928,360.284 492.54,365.5 " fill="none" id="p8_I-pFE3_I" style="stroke:#181818;stroke-width:0.4000000000000001;"/></g><!--link p9_I to pFE4_I--><g id="link_p9_I_pFE4_I"><path d="M615.116,281.752 C605.016,287.348 566.436,309.636 542.4,336.4 C533.744,346.036 527.104,360.368 524.84,365.596 " fill="none" id="p9_I-pFE4_I" style="stroke:#181818;stroke-width:0.4000000000000001;"/></g><!--link pFE5_I to MD_API_I--><g id="link_pFE5_I_MD_API_I"><path d="M482,465.62 C482,473.332 482,496.924 482,506.388 " fill="none" id="pFE5_I-to-MD_API_I" style="stroke:#181818;stroke-width:0.4000000000000001;"/><path d="M485.3829,509.1567 A3.6,3.6 0 0 0 478.6171 509.1567" fill="none" style="stroke:#181818;stroke-width:0.6000000000000001;"/></g><!--link p4_I to pMD1_I--><g id="link_p4_I_pMD1_I"><path d="M712.984,282.524 C713.48,288.408 714.8,305.428 714.8,319.6 C714.8,319.6 714.8,319.6 714.8,514.4 C714.8,526.656 713.52,532.4 703.6,539.6 C681.236,555.828 586.856,554.1 570.44,553.672 " fill="none" id="p4_I-pMD1_I" style="stroke:#181818;stroke-width:0.4000000000000001;"/></g><!--link p5_I to pMD2_I--><g id="link_p5_I_pMD2_I"><path d="M642.856,281.932 C650.02,286.612 670.4,301.516 670.4,319.6 C670.4,319.6 670.4,319.6 670.4,514.4 C670.4,526.152 671.74,532.468 662.4,539.6 C650.308,548.832 538.296,536.816 525.6,545.2 C523.444,546.624 522.42,549.548 521.956,551.544 " fill="none" id="p5_I-pMD2_I" style="stroke:#181818;stroke-width:0.4000000000000001;"/></g><!--link p1_I to pMD3_I--><g id="link_p1_I_pMD3_I"><path d="M419.016,397.3 C419.844,405.6 422.8,436.936 422.8,462.8 C422.8,462.8 422.8,462.8 422.8,568.8 C422.8,604.724 482.448,616.952 495.496,619.2 " fill="none" id="p1_I-pMD3_I" style="stroke:#181818;stroke-width:0.4000000000000001;"/></g><!--link MD_API_I to pMD4_I--><g id="link_MD_API_I_pMD4_I"><path d="M482,517.608 C482,525.36 482,544.956 482,551.464 " fill="none" id="MD_API_I-pMD4_I" style="stroke:#181818;stroke-width:0.4000000000000001;"/></g><!--reverse link Planning_API_I to pMD5_I--><g id="link_Planning_API_I_pMD5_I"><path d="M557.3565,469.4861 C552.4485,473.9221 546.704,479.7 541.2,488.4 C526.772,511.208 517.58,543.228 515.336,551.556 " fill="none" id="Planning_API_I-backto-pMD5_I" style="stroke:#181818;stroke-width:0.4000000000000001;"/><path d="M557.1422,465.1199 A3.6,3.6 0 0 0 561.6789 470.1393" fill="none" style="stroke:#181818;stroke-width:0.6000000000000001;"/></g><!--link p7_I to pMD6_I--><g id="link_p7_I_pMD6_I"><path d="M705.448,282.508 C703.96,288.352 700,305.28 700,319.6 C700,319.6 700,319.6 700,514.4 C700,526.656 698.924,532.692 688.8,539.6 C666.092,555.1 588.112,530 565.2,545.2 C563.048,546.628 562.024,549.552 561.556,551.544 " fill="none" id="p7_I-pMD6_I" style="stroke:#181818;stroke-width:0.4000000000000001;"/></g><!--link p6_I to pMD7_I--><g id="link_p6_I_pMD7_I"><path d="M674.308,282.456 C677.28,288.172 685.2,304.796 685.2,319.6 C685.2,319.6 685.2,319.6 685.2,514.4 C685.2,528.48 678.46,533.044 666,539.6 C654.776,545.504 564.44,542.736 552,545.2 C543.98,546.788 535.012,550.576 530.812,552.472 " fill="none" id="p6_I-pMD7_I" style="stroke:#181818;stroke-width:0.4000000000000001;"/></g><!--link pp1_I to Planning_API_I--><g id="link_pp1_I_Planning_API_I"><path d="M569.264,397.332 C568.904,399.656 568.348,403.484 568,406.8 C565.912,426.768 564.596,450.86 564.16,459.512 " fill="none" id="pp1_I-Planning_API_I" style="stroke:#181818;stroke-width:0.4000000000000001;"/></g><!--link Host_F to Remote_F--><g id="link_Host_F_Remote_F"><path d="M199.9457,65.4784 C199.5622,65.5359 199.1468,65.5985 198.7006,65.6661 C197.8081,65.8014 196.7922,65.9569 195.6614,66.1321 C191.1383,66.8332 184.7771,67.8513 177.1221,69.1622 C161.8123,71.7842 141.3275,75.578 120.023,80.351 C77.414,89.897 31.526,103.36 17.2,119.2 C15.6705,120.891 14.4023,122.7866 13.3543,124.8109 C13.2233,125.064 13.0957,125.319 12.9715,125.5759 " fill="none" id="Host_F-Remote_F" style="stroke:#181818;stroke-width:0.4000000000000001;"/><text fill="#000000" font-family="sans-serif" font-size="5.2" lengthAdjust="spacing" textLength="13.2" x="33.6" y="114.0113">http/s</text></g><!--link UI to FE_I--><g id="link_UI_FE_I"><path d="M277.404,69.54 C321.768,77.508 406.132,95.448 423.6,119.2 C442.452,144.836 437.012,161.944 423.6,190.8 C415.464,208.304 403.08,204.248 390.4,218.8 C369.404,242.896 352,247.64 352,279.6 C352,279.6 352,279.6 352,368.4 C352,390.906 368.562,404.582 389.863,412.864 C400.5135,417.005 412.3488,419.7975 423.8909,421.671 C425.3336,421.9052 426.7718,422.125 428.2025,422.3313 C428.9179,422.4345 429.6314,422.5343 430.3427,422.6307 C430.6983,422.679 431.0534,422.7264 431.4078,422.7731 C431.5851,422.7964 431.7622,422.8195 431.9391,422.8424 " fill="none" id="UI-FE_I" style="stroke:#181818;stroke-width:0.4000000000000001;stroke-dasharray:7.0,7.0;"/><text fill="#000000" font-family="sans-serif" font-size="5.2" lengthAdjust="spacing" textLength="19.6" x="356.8" y="263.6113">manifest</text></g><!--link CM to MD_I--><g id="link_CM_MD_I"><path d="M309.6,174.808 C309.6,183.804 309.6,195.8 309.6,206.4 C309.6,206.4 309.6,206.4 309.6,554.4 C309.6,563.274 339.745,570.996 376.882,577.1415 C395.4505,580.2143 415.767,582.8929 434.9374,585.1243 C444.5226,586.24 453.8212,587.244 462.4716,588.1294 C464.6342,588.3508 466.7562,588.5648 468.8321,588.7713 C469.8701,588.8745 470.8965,588.9758 471.9107,589.0753 C472.4177,589.125 472.9218,589.1743 473.4226,589.2231 C473.673,589.2475 473.9227,589.2718 474.1715,589.2959 " fill="none" id="CM-MD_I" style="stroke:#181818;stroke-width:0.4000000000000001;stroke-dasharray:7.0,7.0;"/><text fill="#000000" font-family="sans-serif" font-size="5.2" lengthAdjust="spacing" textLength="19.6" x="310.4" y="370.2113">manifest</text></g><!--link TM to MD_I--><g id="link_TM_MD_I"><path d="M153.452,174.816 C159.9,183.292 166.4,194.728 166.4,206.4 C166.4,206.4 166.4,206.4 166.4,554.4 C166.4,570.452 225.714,579.795 295.339,585.2325 C330.1515,587.9513 367.5418,589.6936 401.3844,590.8101 C418.3057,591.3683 434.3401,591.77 448.7219,592.0591 C455.9128,592.2036 462.6906,592.32 468.9595,592.4136 C470.5268,592.437 472.0622,592.459 473.5643,592.4797 C473.9398,592.4849 474.3133,592.4899 474.6846,592.4949 " fill="none" id="TM-MD_I" style="stroke:#181818;stroke-width:0.4000000000000001;stroke-dasharray:7.0,7.0;"/><text fill="#000000" font-family="sans-serif" font-size="5.2" lengthAdjust="spacing" textLength="19.6" x="167.2" y="370.2113">manifest</text></g><!--link FM to MD_I--><g id="link_FM_MD_I"><path d="M66.216,174.852 C70.44,183.612 74.8,195.336 74.8,206.4 C74.8,206.4 74.8,206.4 74.8,554.4 C74.8,564.768 153.512,573.24 244.292,579.563 C289.682,582.7245 338.089,585.3488 381.1825,587.4041 C402.7293,588.4318 422.9476,589.3173 440.7963,590.0566 C449.7207,590.4262 458.0526,590.7593 465.6619,591.0554 C467.5642,591.1294 469.4214,591.2011 471.2314,591.2705 C472.1364,591.3052 473.0296,591.3393 473.9107,591.3728 " fill="none" id="FM-MD_I" style="stroke:#181818;stroke-width:0.4000000000000001;stroke-dasharray:7.0,7.0;"/><text fill="#000000" font-family="sans-serif" font-size="5.2" lengthAdjust="spacing" textLength="19.6" x="75.6" y="370.2113">manifest</text></g><!--link UM to MD_I--><g id="link_UM_MD_I"><path d="M231.868,174.908 C236.676,183.6 241.6,195.224 241.6,206.4 C241.6,206.4 241.6,206.4 241.6,554.4 C241.6,566.654 285.376,575.254 337.83,581.1605 C364.057,584.1138 392.4535,586.3936 418.6323,588.1202 C431.7216,588.9835 444.2566,589.7084 455.6887,590.3101 C461.4047,590.6109 466.845,590.8809 471.9411,591.1219 C472.5781,591.152 473.2098,591.1817 473.8359,591.2109 C474.1489,591.2255 474.4606,591.24 474.7709,591.2544 " fill="none" id="UM-MD_I" style="stroke:#181818;stroke-width:0.4000000000000001;stroke-dasharray:7.0,7.0;"/><text fill="#000000" font-family="sans-serif" font-size="5.2" lengthAdjust="spacing" textLength="19.6" x="242.4" y="370.2113">manifest</text></g><!--link Planning to Planning_I--><g id="link_Planning_Planning_I"><path d="M390.232,174.804 C392.26,212.1 399.992,313.408 424.8,333.2 C429.492,336.944 527.168,334.324 532.8,336.4 C543.504,340.348 553.484,348.52 560.644,355.512 " fill="none" id="Planning-Planning_I" style="stroke:#181818;stroke-width:0.4000000000000001;stroke-dasharray:7.0,7.0;"/><text fill="#000000" font-family="sans-serif" font-size="5.2" lengthAdjust="spacing" textLength="19.6" x="400.4" y="263.6113">manifest</text></g><!--link RobDroneGo_I to RobDroneGo_L--><!--SRC=[ZLPRRzem57xthx2o5ugKRPGMsWfHRT1iI8jKjUIfgf1934HDx2Wncwgg_ts-v6Od90GUudE-xzZdufDp20CC_J3r8mmEuXt72Nk7COwtECq0oDv2ag0KnJ11GH2IFHo1kZGa3ASxv6Fu0I1_jiX_swVqI885ZMWAltpV8RJRWSywoQTnGWach9yarDKU2tVput6rMK6KGMiuNA0uEMOmHWJjSIpiSUrmQ1cijSvQe-ojb-Ff72_3QI_7qJbEX35h8Pa-IITSqoctudbjFd4dNDsb7ePmmTKTwc581rp3dmO7LDbyUQBRPShVVz7DwXNEPgLgFf_DilUCuNYmkBgOpwN92csfEaXeokYHGOl_E20PyRsBMYZqfVAoIpdkKbvrAQ-xb9CkvRHBUTEblAqfpV9uZ10X_DvffLK8s-lGNMfWTwbLNYrT7DXCaqy9Go71QIrJBkAfI-4ICGG7xl8YprV34NTffgm5Sda2Ki-yknpt6xhgXrptGoRza7fc9UQp4KhduSnGEhpYsGC9Z13MdNSUJXqx93NGvJcWqJcWyJaWCzey1eqebCLwnkqli1s1Q3G0lYV_LvM-2oEi38kAp-kz4fPrBmtPHtjWC83i8bnHTM4WUuSG5UqFo8OXGNc31x9BI4mfcUIITIcPvXAlbDmK6DMyWRpu4g9wCp-eofYGYQE1FCroFLRhudZ26iZp8jUtQYsF5d1NYpR0hQfxoL6sx7uWluLASAq4ur8mKeB2S6adlqy2D33w4iWlaZ8mLO9fAPZ8KwWis2QrDXWG6k0J8q4KxWzi6ntnYL72uTVgcRr7MAixkALH082m2ws8-YWwq8pTtT_B0llDtpUE74Ag8hP-flGVpuUbLx30__mm2jvRDK6Mjn8D-LESK-xxX6FACDz7VlFa0ZxZzA_OmZIuS5iCDYO2os0vRIppSssIocz8arfUJOEoRjl7c3rCZjV6CQOFIyGAvDdWjLk6x0uU64k-yJaqRx3syQlDAuZ7_KvCLk4EPumhrOSiL_8OrfIwRjsXSpfqdgwhzxaSKOPJEvW-4Dd12v-n0qnUxUBHPgO_hnhxFm00]--></g></svg>