<?xml version="1.0" encoding="us-ascii" standalone="no"?><svg xmlns="http://www.w3.org/2000/svg" xmlns:xlink="http://www.w3.org/1999/xlink" contentStyleType="text/css" height="409px" preserveAspectRatio="none" style="width:662px;height:409px;background:#FFFFFF;" version="1.1" viewBox="0 0 662 409" width="662px" zoomAndPan="magnify"><defs/><g><line style="stroke:#181818;stroke-width:0.5;stroke-dasharray:5.0,5.0;" x1="62" x2="62" y1="83.6211" y2="325.9492"/><line style="stroke:#181818;stroke-width:0.5;stroke-dasharray:5.0,5.0;" x1="344" x2="344" y1="83.6211" y2="325.9492"/><line style="stroke:#181818;stroke-width:0.5;stroke-dasharray:5.0,5.0;" x1="626" x2="626" y1="83.6211" y2="325.9492"/><text fill="#000000" font-family="sans-serif" font-size="14" lengthAdjust="spacing" textLength="108" x="5" y="80.1074">CampusManager</text><ellipse cx="62" cy="13.5" fill="#E2E2F0" rx="8" ry="8" style="stroke:#181818;stroke-width:0.5;"/><path d="M62,21.5 L62,48.5 M49,29.5 L75,29.5 M62,48.5 L49,63.5 M62,48.5 L75,63.5 " fill="none" style="stroke:#181818;stroke-width:0.5;"/><text fill="#000000" font-family="sans-serif" font-size="14" lengthAdjust="spacing" textLength="108" x="5" y="340.0566">CampusManager</text><ellipse cx="62" cy="352.0703" fill="#E2E2F0" rx="8" ry="8" style="stroke:#181818;stroke-width:0.5;"/><path d="M62,360.0703 L62,387.0703 M49,368.0703 L75,368.0703 M62,387.0703 L49,402.0703 M62,387.0703 L75,402.0703 " fill="none" style="stroke:#181818;stroke-width:0.5;"/><rect fill="#E2E2F0" height="32.6211" rx="2.5" ry="2.5" style="stroke:#181818;stroke-width:0.5;" width="78" x="305" y="50"/><text fill="#000000" font-family="sans-serif" font-size="14" lengthAdjust="spacing" textLength="64" x="312" y="72.1074">CampusUI</text><rect fill="#E2E2F0" height="32.6211" rx="2.5" ry="2.5" style="stroke:#181818;stroke-width:0.5;" width="78" x="305" y="324.9492"/><text fill="#000000" font-family="sans-serif" font-size="14" lengthAdjust="spacing" textLength="64" x="312" y="347.0566">CampusUI</text><rect fill="#E2E2F0" height="32.6211" rx="2.5" ry="2.5" style="stroke:#181818;stroke-width:0.5;" width="60" x="596" y="50"/><text fill="#000000" font-family="sans-serif" font-size="14" lengthAdjust="spacing" textLength="46" x="603" y="72.1074">System</text><rect fill="#E2E2F0" height="32.6211" rx="2.5" ry="2.5" style="stroke:#181818;stroke-width:0.5;" width="60" x="596" y="324.9492"/><text fill="#000000" font-family="sans-serif" font-size="14" lengthAdjust="spacing" textLength="46" x="603" y="347.0566">System</text><polygon fill="#181818" points="73,112.9121,63,116.9121,73,120.9121,69,116.9121" style="stroke:#181818;stroke-width:1.0;"/><line style="stroke:#181818;stroke-width:1.0;" x1="67" x2="343" y1="116.9121" y2="116.9121"/><text fill="#000000" font-family="sans-serif" font-size="13" font-weight="bold" lengthAdjust="spacing" textLength="7" x="79" y="111.6494">1</text><text fill="#000000" font-family="sans-serif" font-size="13" lengthAdjust="spacing" textLength="164" x="90" y="111.6494">1: presents graphic interface</text><polygon fill="#181818" points="355,144.2031,345,148.2031,355,152.2031,351,148.2031" style="stroke:#181818;stroke-width:1.0;"/><line style="stroke:#181818;stroke-width:1.0;" x1="349" x2="625" y1="148.2031" y2="148.2031"/><text fill="#000000" font-family="sans-serif" font-size="13" font-weight="bold" lengthAdjust="spacing" textLength="7" x="361" y="142.9404">2</text><text fill="#000000" font-family="sans-serif" font-size="13" lengthAdjust="spacing" textLength="103" x="372" y="142.9404">1: waits a request</text><polygon fill="#181818" points="332,192.7852,342,196.7852,332,200.7852,336,196.7852" style="stroke:#181818;stroke-width:1.0;"/><line style="stroke:#181818;stroke-width:1.0;" x1="62" x2="338" y1="196.7852" y2="196.7852"/><text fill="#000000" font-family="sans-serif" font-size="13" font-weight="bold" lengthAdjust="spacing" textLength="7" x="69" y="182.877">3</text><text fill="#000000" font-family="sans-serif" font-size="13" lengthAdjust="spacing" textLength="247" x="80" y="174.2314">2: sends request (old number,new number,</text><text fill="#000000" font-family="sans-serif" font-size="13" lengthAdjust="spacing" textLength="161" x="84" y="191.5225">description,code of building)</text><polygon fill="#181818" points="614,241.3672,624,245.3672,614,249.3672,618,245.3672" style="stroke:#181818;stroke-width:1.0;"/><line style="stroke:#181818;stroke-width:1.0;" x1="344" x2="620" y1="245.3672" y2="245.3672"/><text fill="#000000" font-family="sans-serif" font-size="13" font-weight="bold" lengthAdjust="spacing" textLength="7" x="351" y="231.459">4</text><text fill="#000000" font-family="sans-serif" font-size="13" lengthAdjust="spacing" textLength="247" x="362" y="222.8135">2: sends request (old number,new number,</text><text fill="#000000" font-family="sans-serif" font-size="13" lengthAdjust="spacing" textLength="161" x="366" y="240.1045">description,code of building)</text><polygon fill="#181818" points="355,272.6582,345,276.6582,355,280.6582,351,276.6582" style="stroke:#181818;stroke-width:1.0;"/><line style="stroke:#181818;stroke-width:1.0;" x1="349" x2="625" y1="276.6582" y2="276.6582"/><text fill="#000000" font-family="sans-serif" font-size="13" font-weight="bold" lengthAdjust="spacing" textLength="7" x="361" y="271.3955">5</text><text fill="#000000" font-family="sans-serif" font-size="13" lengthAdjust="spacing" textLength="216" x="372" y="271.3955">3: responds with a success message</text><polygon fill="#181818" points="73,303.9492,63,307.9492,73,311.9492,69,307.9492" style="stroke:#181818;stroke-width:1.0;"/><line style="stroke:#181818;stroke-width:1.0;" x1="67" x2="343" y1="307.9492" y2="307.9492"/><text fill="#000000" font-family="sans-serif" font-size="13" font-weight="bold" lengthAdjust="spacing" textLength="7" x="79" y="302.6865">6</text><text fill="#000000" font-family="sans-serif" font-size="13" lengthAdjust="spacing" textLength="162" x="90" y="302.6865">3: shows success message</text><!--SRC=[hP0zJyGm38Rt_0flW7H71MmPM6v0Dp1Ljx7u4byRgVaWTbJnxt4BHPnOMI9Bp-Ctjcz6aSAswyg4ILgSxbsE7TDxe-HexmCE5QCns2Id5izKjNQIAnmmbiQlc72W2iZmSZ05gmGNYaPzyzDnHQVZ5Ui_M2Wkf3T68UoVjHqiF5WebPYICEZ7PGmEGXAg5tHa-jLJVHLd36eXr6LO5gC1F_ZHWePutY3Svid3rmAxHFDMlYNmnAw68Y6ddSkU85_WtCBaGnhkjk7w_ypyjSQJrJGkUOcTWuow3ZVdY1cYFdhQg_EepcEU-O_q2G00]--></g></svg>