<?xml version="1.0" encoding="us-ascii" standalone="no"?><svg xmlns="http://www.w3.org/2000/svg" xmlns:xlink="http://www.w3.org/1999/xlink" contentStyleType="text/css" height="588px" preserveAspectRatio="none" style="width:463px;height:588px;background:#FFFFFF;" version="1.1" viewBox="0 0 463 588" width="463px" zoomAndPan="magnify"><defs/><g><!--cluster L--><g id="cluster_L"><polygon fill="#ADD8E6" points="16,16,26,6,256,6,256,225,246,235,16,235,16,16" style="stroke:#181818;stroke-width:1.0;"/><line style="stroke:#181818;stroke-width:1.0;" x1="246" x2="256" y1="16" y2="6"/><line style="stroke:#181818;stroke-width:1.0;" x1="16" x2="246" y1="16" y2="16"/><line style="stroke:#181818;stroke-width:1.0;" x1="246" x2="246" y1="16" y2="235"/><text fill="#000000" font-family="sans-serif" font-size="14" font-weight="bold" lengthAdjust="spacing" textLength="86" x="89" y="34.1074">localhost:??</text></g><!--cluster B--><g id="cluster_B"><rect fill="#ADD8E6" height="139" rx="2.5" ry="2.5" style="stroke:#181818;stroke-width:1.0;" width="168" x="56" y="64"/><rect fill="#ADD8E6" height="10" style="stroke:#181818;stroke-width:1.0;" width="15" x="204" y="69"/><rect fill="#ADD8E6" height="2" style="stroke:#181818;stroke-width:1.0;" width="4" x="202" y="71"/><rect fill="#ADD8E6" height="2" style="stroke:#181818;stroke-width:1.0;" width="4" x="202" y="75"/><text fill="#000000" font-family="sans-serif" font-size="14" font-weight="bold" lengthAdjust="spacing" textLength="95" x="92.5" y="92.1074">&#171;component&#187;</text><text fill="#000000" font-family="sans-serif" font-size="14" font-weight="bold" lengthAdjust="spacing" textLength="59" x="110.5" y="110.7285">Browser</text></g><!--cluster S--><g id="cluster_S"><polygon fill="#ADD8E6" points="16,312,26,302,446,302,446,561,436,571,16,571,16,312" style="stroke:#181818;stroke-width:1.0;"/><line style="stroke:#181818;stroke-width:1.0;" x1="436" x2="446" y1="312" y2="302"/><line style="stroke:#181818;stroke-width:1.0;" x1="16" x2="436" y1="312" y2="312"/><line style="stroke:#181818;stroke-width:1.0;" x1="436" x2="436" y1="312" y2="571"/><text fill="#000000" font-family="sans-serif" font-size="14" font-weight="bold" lengthAdjust="spacing" textLength="47" x="203.5" y="330.1074">server</text></g><!--entity UI--><g id="elem_UI"><rect fill="#ADD8E6" height="67.2422" rx="2.5" ry="2.5" style="stroke:#181818;stroke-width:0.5;" width="135" x="72.5" y="120"/><rect fill="#ADD8E6" height="10" style="stroke:#181818;stroke-width:0.5;" width="15" x="187.5" y="125"/><rect fill="#ADD8E6" height="2" style="stroke:#181818;stroke-width:0.5;" width="4" x="185.5" y="127"/><rect fill="#ADD8E6" height="2" style="stroke:#181818;stroke-width:0.5;" width="4" x="185.5" y="131"/><text fill="#000000" font-family="sans-serif" font-size="14" font-weight="bold" lengthAdjust="spacing" textLength="95" x="87.5" y="155.1074">&#171;component&#187;</text><text fill="#000000" font-family="sans-serif" font-size="14" font-weight="bold" lengthAdjust="spacing" textLength="14" x="128" y="173.7285">UI</text></g><!--entity CM--><g id="elem_CM"><rect fill="#ADD8E6" height="67.2422" rx="2.5" ry="2.5" style="stroke:#181818;stroke-width:0.5;" width="191" x="59.5" y="352"/><rect fill="#ADD8E6" height="10" style="stroke:#181818;stroke-width:0.5;" width="15" x="230.5" y="357"/><rect fill="#ADD8E6" height="2" style="stroke:#181818;stroke-width:0.5;" width="4" x="228.5" y="359"/><rect fill="#ADD8E6" height="2" style="stroke:#181818;stroke-width:0.5;" width="4" x="228.5" y="363"/><text fill="#000000" font-family="sans-serif" font-size="14" font-weight="bold" lengthAdjust="spacing" textLength="95" x="102.5" y="387.1074">&#171;component&#187;</text><text fill="#000000" font-family="sans-serif" font-size="14" font-weight="bold" lengthAdjust="spacing" textLength="151" x="74.5" y="405.7285">Campus Management</text></g><!--entity P--><g id="elem_P"><rect fill="#ADD8E6" height="67.2422" rx="2.5" ry="2.5" style="stroke:#181818;stroke-width:0.5;" width="135" x="285.5" y="352"/><rect fill="#ADD8E6" height="10" style="stroke:#181818;stroke-width:0.5;" width="15" x="400.5" y="357"/><rect fill="#ADD8E6" height="2" style="stroke:#181818;stroke-width:0.5;" width="4" x="398.5" y="359"/><rect fill="#ADD8E6" height="2" style="stroke:#181818;stroke-width:0.5;" width="4" x="398.5" y="363"/><text fill="#000000" font-family="sans-serif" font-size="14" font-weight="bold" lengthAdjust="spacing" textLength="95" x="300.5" y="387.1074">&#171;component&#187;</text><text fill="#000000" font-family="sans-serif" font-size="14" font-weight="bold" lengthAdjust="spacing" textLength="61" x="317.5" y="405.7285">Planning</text></g><!--entity FM--><g id="elem_FM"><rect fill="#ADD8E6" height="67.2422" rx="2.5" ry="2.5" style="stroke:#181818;stroke-width:0.5;" width="171" x="48.5" y="480"/><rect fill="#ADD8E6" height="10" style="stroke:#181818;stroke-width:0.5;" width="15" x="199.5" y="485"/><rect fill="#ADD8E6" height="2" style="stroke:#181818;stroke-width:0.5;" width="4" x="197.5" y="487"/><rect fill="#ADD8E6" height="2" style="stroke:#181818;stroke-width:0.5;" width="4" x="197.5" y="491"/><text fill="#000000" font-family="sans-serif" font-size="14" font-weight="bold" lengthAdjust="spacing" textLength="95" x="81.5" y="515.1074">&#171;component&#187;</text><text fill="#000000" font-family="sans-serif" font-size="14" font-weight="bold" lengthAdjust="spacing" textLength="131" x="63.5" y="533.7285">Fleet Management</text></g><!--entity TM--><g id="elem_TM"><rect fill="#ADD8E6" height="67.2422" rx="2.5" ry="2.5" style="stroke:#181818;stroke-width:0.5;" width="167" x="254.5" y="480"/><rect fill="#ADD8E6" height="10" style="stroke:#181818;stroke-width:0.5;" width="15" x="401.5" y="485"/><rect fill="#ADD8E6" height="2" style="stroke:#181818;stroke-width:0.5;" width="4" x="399.5" y="487"/><rect fill="#ADD8E6" height="2" style="stroke:#181818;stroke-width:0.5;" width="4" x="399.5" y="491"/><text fill="#000000" font-family="sans-serif" font-size="14" font-weight="bold" lengthAdjust="spacing" textLength="95" x="285.5" y="515.1074">&#171;component&#187;</text><text fill="#000000" font-family="sans-serif" font-size="14" font-weight="bold" lengthAdjust="spacing" textLength="127" x="269.5" y="533.7285">Task Management</text></g><!--link L to S--><g id="link_L_S"><path d="M24,236.0266 C24,236.8635 24,237.703 24,238.545 C24,241.9126 24,245.3186 24,248.75 C24,255.6129 24,262.5778 24,269.5425 C24,276.5072 24,283.4717 24,290.3338 C24,293.7649 24,297.1703 24,300.5374 C24,300.9583 24,301.3786 24,301.7982 " fill="none" id="L-S" style="stroke:#181818;stroke-width:1.0;"/><text fill="#000000" font-family="sans-serif" font-size="13" lengthAdjust="spacing" textLength="33" x="25" y="274.0283">http/s</text></g><!--SRC=[dP9HQyCW58NV_HKNzx2dBE-XjD10eD128UqFk8bYGjGhQZR6w7-VwI1Rix272O9SpldE4NtkOdIXo7EdqSRHw9UMJ9ws8ojjp4IFogDXB0ozTPYEO4d83mPfDTWEojDeHKcQF3pfNdMnqQDajv-E6VTFMqKsrl5Toyrcdcstq90MZ4rrW6jgKNSKOh7RSS00HvZ2PZdmlQUt83s7HqYIxhzgVMklXzyYVZtm9BjD5U-HzNsQYAy9kYIKfnL2YSQD0KveKKcJvdpXukVq2BQtQgNaUQ6jrX8gBMNy8-2oPhfW61uywOP7o4G6TG7JzyW3O-mJ]--></g></svg>