<?xml version="1.0" encoding="us-ascii" standalone="no"?><svg xmlns="http://www.w3.org/2000/svg" xmlns:xlink="http://www.w3.org/1999/xlink" contentStyleType="text/css" height="400px" preserveAspectRatio="none" style="width:400px;height:400px;background:#FFFFFF;" version="1.1" viewBox="0 0 400 400" width="400px" zoomAndPan="magnify"><defs/><g><rect fill="#FFFFFF" height="214.7461" style="stroke:#181818;stroke-width:1.0;" width="10" x="69.5" y="93.6211"/><rect fill="#FFFFFF" height="191.4551" style="stroke:#181818;stroke-width:1.0;" width="10" x="263.5" y="116.9121"/><line style="stroke:#181818;stroke-width:0.5;stroke-dasharray:5.0,5.0;" x1="74" x2="74" y1="83.6211" y2="317.3672"/><line style="stroke:#181818;stroke-width:0.5;stroke-dasharray:5.0,5.0;" x1="268.5" x2="268.5" y1="83.6211" y2="317.3672"/><text fill="#000000" font-family="sans-serif" font-size="14" lengthAdjust="spacing" textLength="133" x="5" y="80.1074">Assignment Manager</text><ellipse cx="74.5" cy="13.5" fill="#E2E2F0" rx="8" ry="8" style="stroke:#181818;stroke-width:0.5;"/><path d="M74.5,21.5 L74.5,48.5 M61.5,29.5 L87.5,29.5 M74.5,48.5 L61.5,63.5 M74.5,48.5 L87.5,63.5 " fill="none" style="stroke:#181818;stroke-width:0.5;"/><text fill="#000000" font-family="sans-serif" font-size="14" lengthAdjust="spacing" textLength="133" x="5" y="331.4746">Assignment Manager</text><ellipse cx="74.5" cy="343.4883" fill="#E2E2F0" rx="8" ry="8" style="stroke:#181818;stroke-width:0.5;"/><path d="M74.5,351.4883 L74.5,378.4883 M61.5,359.4883 L87.5,359.4883 M74.5,378.4883 L61.5,393.4883 M74.5,378.4883 L87.5,393.4883 " fill="none" style="stroke:#181818;stroke-width:0.5;"/><rect fill="#E2E2F0" height="32.6211" rx="2.5" ry="2.5" style="stroke:#181818;stroke-width:0.5;" width="60" x="238.5" y="50"/><text fill="#000000" font-family="sans-serif" font-size="14" lengthAdjust="spacing" textLength="46" x="245.5" y="72.1074">System</text><rect fill="#E2E2F0" height="32.6211" rx="2.5" ry="2.5" style="stroke:#181818;stroke-width:0.5;" width="60" x="238.5" y="316.3672"/><text fill="#000000" font-family="sans-serif" font-size="14" lengthAdjust="spacing" textLength="46" x="245.5" y="338.4746">System</text><rect fill="#FFFFFF" height="214.7461" style="stroke:#181818;stroke-width:1.0;" width="10" x="69.5" y="93.6211"/><rect fill="#FFFFFF" height="191.4551" style="stroke:#181818;stroke-width:1.0;" width="10" x="263.5" y="116.9121"/><polygon fill="#181818" points="251.5,112.9121,261.5,116.9121,251.5,120.9121,255.5,116.9121" style="stroke:#181818;stroke-width:1.0;"/><line style="stroke:#181818;stroke-width:1.0;" x1="79.5" x2="257.5" y1="116.9121" y2="116.9121"/><text fill="#000000" font-family="sans-serif" font-size="13" lengthAdjust="spacing" textLength="165" x="86.5" y="111.6494">wants to list all assignments</text><line style="stroke:#181818;stroke-width:1.0;" x1="273.5" x2="315.5" y1="148.2031" y2="148.2031"/><line style="stroke:#181818;stroke-width:1.0;" x1="315.5" x2="315.5" y1="148.2031" y2="161.2031"/><line style="stroke:#181818;stroke-width:1.0;" x1="274.5" x2="315.5" y1="161.2031" y2="161.2031"/><polygon fill="#181818" points="284.5,157.2031,274.5,161.2031,284.5,165.2031,280.5,161.2031" style="stroke:#181818;stroke-width:1.0;"/><text fill="#000000" font-family="sans-serif" font-size="13" lengthAdjust="spacing" textLength="113" x="280.5" y="142.9404">get all assignments</text><polygon fill="#181818" points="90.5,188.4941,80.5,192.4941,90.5,196.4941,86.5,192.4941" style="stroke:#181818;stroke-width:1.0;"/><line style="stroke:#181818;stroke-width:1.0;" x1="84.5" x2="262.5" y1="192.4941" y2="192.4941"/><text fill="#000000" font-family="sans-serif" font-size="13" lengthAdjust="spacing" textLength="125" x="96.5" y="187.2314">show all assignments</text><polygon fill="#181818" points="251.5,219.7852,261.5,223.7852,251.5,227.7852,255.5,223.7852" style="stroke:#181818;stroke-width:1.0;"/><line style="stroke:#181818;stroke-width:1.0;" x1="79.5" x2="257.5" y1="223.7852" y2="223.7852"/><text fill="#000000" font-family="sans-serif" font-size="13" lengthAdjust="spacing" textLength="153" x="86.5" y="218.5225">wants to sort assignments</text><line style="stroke:#181818;stroke-width:1.0;" x1="273.5" x2="315.5" y1="255.0762" y2="255.0762"/><line style="stroke:#181818;stroke-width:1.0;" x1="315.5" x2="315.5" y1="255.0762" y2="268.0762"/><line style="stroke:#181818;stroke-width:1.0;" x1="274.5" x2="315.5" y1="268.0762" y2="268.0762"/><polygon fill="#181818" points="284.5,264.0762,274.5,268.0762,284.5,272.0762,280.5,268.0762" style="stroke:#181818;stroke-width:1.0;"/><text fill="#000000" font-family="sans-serif" font-size="13" lengthAdjust="spacing" textLength="100" x="280.5" y="249.8135">sort assignments</text><polygon fill="#181818" points="90.5,295.3672,80.5,299.3672,90.5,303.3672,86.5,299.3672" style="stroke:#181818;stroke-width:1.0;"/><line style="stroke:#181818;stroke-width:1.0;" x1="84.5" x2="262.5" y1="299.3672" y2="299.3672"/><text fill="#000000" font-family="sans-serif" font-size="13" lengthAdjust="spacing" textLength="148" x="96.5" y="294.1045">show sorted assignments</text><!--SRC=[VOvB2iCm34JtFiMGVI-GHS47yAed4Avm3OuTBD7GszUX-RI4TAN5l7aZybegEYiIGnuuAnnb2bmxaC0wCrBLwED8BRgzH7amXhp69odFkNMuN9UanzGmWHQaA0fAgLbMi-ozHVGvt_t0nzPEMTT37cKw86TVIAbwubhPFyWsDpDy_w7U]--></g></svg>