<?xml version="1.0" encoding="us-ascii" standalone="no"?><svg xmlns="http://www.w3.org/2000/svg" xmlns:xlink="http://www.w3.org/1999/xlink" contentStyleType="text/css" height="448px" preserveAspectRatio="none" style="width:537px;height:448px;background:#FFFFFF;" version="1.1" viewBox="0 0 537 448" width="537px" zoomAndPan="magnify"><defs/><g><rect fill="#FFFFFF" height="230.4551" style="stroke:#181818;stroke-width:1.0;" width="10" x="226" y="116.9121"/><rect fill="#FFFFFF" height="142.873" style="stroke:#181818;stroke-width:1.0;" width="10" x="385" y="148.2031"/><line style="stroke:#181818;stroke-width:0.5;stroke-dasharray:5.0,5.0;" x1="52" x2="52" y1="83.6211" y2="365.3672"/><line style="stroke:#181818;stroke-width:0.5;stroke-dasharray:5.0,5.0;" x1="231" x2="231" y1="83.6211" y2="365.3672"/><line style="stroke:#181818;stroke-width:0.5;stroke-dasharray:5.0,5.0;" x1="390" x2="390" y1="83.6211" y2="365.3672"/><text fill="#000000" font-family="sans-serif" font-size="14" lengthAdjust="spacing" textLength="88" x="5" y="80.1074">FleetManager</text><ellipse cx="52" cy="13.5" fill="#E2E2F0" rx="8" ry="8" style="stroke:#181818;stroke-width:0.5;"/><path d="M52,21.5 L52,48.5 M39,29.5 L65,29.5 M52,48.5 L39,63.5 M52,48.5 L65,63.5 " fill="none" style="stroke:#181818;stroke-width:0.5;"/><text fill="#000000" font-family="sans-serif" font-size="14" lengthAdjust="spacing" textLength="88" x="5" y="379.4746">FleetManager</text><ellipse cx="52" cy="391.4883" fill="#E2E2F0" rx="8" ry="8" style="stroke:#181818;stroke-width:0.5;"/><path d="M52,399.4883 L52,426.4883 M39,407.4883 L65,407.4883 M52,426.4883 L39,441.4883 M52,426.4883 L65,441.4883 " fill="none" style="stroke:#181818;stroke-width:0.5;"/><rect fill="#E2E2F0" height="32.6211" rx="2.5" ry="2.5" style="stroke:#181818;stroke-width:0.5;" width="26" x="218" y="50"/><text fill="#000000" font-family="sans-serif" font-size="14" lengthAdjust="spacing" textLength="12" x="225" y="72.1074">UI</text><rect fill="#E2E2F0" height="32.6211" rx="2.5" ry="2.5" style="stroke:#181818;stroke-width:0.5;" width="26" x="218" y="364.3672"/><text fill="#000000" font-family="sans-serif" font-size="14" lengthAdjust="spacing" textLength="12" x="225" y="386.4746">UI</text><rect fill="#E2E2F0" height="32.6211" rx="2.5" ry="2.5" style="stroke:#181818;stroke-width:0.5;" width="52" x="364" y="50"/><text fill="#000000" font-family="sans-serif" font-size="14" lengthAdjust="spacing" textLength="38" x="371" y="72.1074">Route</text><rect fill="#E2E2F0" height="32.6211" rx="2.5" ry="2.5" style="stroke:#181818;stroke-width:0.5;" width="52" x="364" y="364.3672"/><text fill="#000000" font-family="sans-serif" font-size="14" lengthAdjust="spacing" textLength="38" x="371" y="386.4746">Route</text><rect fill="#FFFFFF" height="230.4551" style="stroke:#181818;stroke-width:1.0;" width="10" x="226" y="116.9121"/><rect fill="#FFFFFF" height="142.873" style="stroke:#181818;stroke-width:1.0;" width="10" x="385" y="148.2031"/><polygon fill="#181818" points="214,112.9121,224,116.9121,214,120.9121,218,116.9121" style="stroke:#181818;stroke-width:1.0;"/><line style="stroke:#181818;stroke-width:1.0;" x1="52" x2="220" y1="116.9121" y2="116.9121"/><text fill="#000000" font-family="sans-serif" font-size="13" font-weight="bold" lengthAdjust="spacing" textLength="7" x="59" y="111.6494">1</text><text fill="#000000" font-family="sans-serif" font-size="13" lengthAdjust="spacing" textLength="144" x="70" y="111.6494">request create robotType</text><polygon fill="#181818" points="373,144.2031,383,148.2031,373,152.2031,377,148.2031" style="stroke:#181818;stroke-width:1.0;"/><line style="stroke:#181818;stroke-width:1.0;" x1="236" x2="379" y1="148.2031" y2="148.2031"/><text fill="#000000" font-family="sans-serif" font-size="13" font-weight="bold" lengthAdjust="spacing" textLength="7" x="243" y="142.9404">2</text><text fill="#000000" font-family="sans-serif" font-size="13" lengthAdjust="spacing" textLength="119" x="254" y="142.9404">post('/api/robotType')</text><line style="stroke:#181818;stroke-width:1.0;" x1="395" x2="437" y1="221.7852" y2="221.7852"/><line style="stroke:#181818;stroke-width:1.0;" x1="437" x2="437" y1="221.7852" y2="234.7852"/><line style="stroke:#181818;stroke-width:1.0;" x1="396" x2="437" y1="234.7852" y2="234.7852"/><polygon fill="#181818" points="406,230.7852,396,234.7852,406,238.7852,402,234.7852" style="stroke:#181818;stroke-width:1.0;"/><text fill="#000000" font-family="sans-serif" font-size="13" font-weight="bold" lengthAdjust="spacing" textLength="7" x="402" y="207.877">3</text><text fill="#000000" font-family="sans-serif" font-size="13" lengthAdjust="spacing" textLength="105" x="413" y="199.2314">creates robot type</text><text fill="#000000" font-family="sans-serif" font-size="13" lengthAdjust="spacing" textLength="113" x="417" y="216.5225">saves and returns it</text><polygon fill="#181818" points="247,287.0762,237,291.0762,247,295.0762,243,291.0762" style="stroke:#181818;stroke-width:1.0;"/><line style="stroke:#181818;stroke-width:1.0;" x1="241" x2="389" y1="291.0762" y2="291.0762"/><text fill="#000000" font-family="sans-serif" font-size="13" font-weight="bold" lengthAdjust="spacing" textLength="7" x="253" y="285.8135">4</text><text fill="#000000" font-family="sans-serif" font-size="13" lengthAdjust="spacing" textLength="93" x="264" y="285.8135">response status</text><polygon fill="#181818" points="63,343.3672,53,347.3672,63,351.3672,59,347.3672" style="stroke:#181818;stroke-width:1.0;"/><line style="stroke:#181818;stroke-width:1.0;" x1="57" x2="230" y1="347.3672" y2="347.3672"/><text fill="#000000" font-family="sans-serif" font-size="13" font-weight="bold" lengthAdjust="spacing" textLength="7" x="69" y="342.1045">5</text><text fill="#000000" font-family="sans-serif" font-size="13" lengthAdjust="spacing" textLength="106" x="80" y="342.1045">operation success</text><!--SRC=[NOwnRiCm34HtVGKtfqEgFKF70Xcw2FMMXP69L80jgIGLe80_lbJSDaWtuVZqxeOFrIe7x-kCMTioFyUoUA7FHZdIVafuOLoSmwObj-LCRE-eXU5r9j8tp7WX1XGONKNM55Cr4Op7MtPy24DfIj0FmRaHzYyTEm3tDb68J6XtBkUYxr-LUb6wziWyHXeV3Az5T3TuhCd_eSEJkzF1hUlgmY-_QMNpWXeDfmo2LyimJrQlZRD0qlk_drrIInO2KTGcRg9_5TkcqT1IYL5JCM-BaUG1jlNV]--></g></svg>