<?xml version="1.0" encoding="us-ascii" standalone="no"?><svg xmlns="http://www.w3.org/2000/svg" xmlns:xlink="http://www.w3.org/1999/xlink" contentStyleType="text/css" height="448px" preserveAspectRatio="none" style="width:603px;height:448px;background:#FFFFFF;" version="1.1" viewBox="0 0 603 448" width="603px" zoomAndPan="magnify"><defs/><g><rect fill="#FFFFFF" height="239.4551" style="stroke:#181818;stroke-width:1.0;" width="10" x="285" y="116.9121"/><rect fill="#FFFFFF" height="142.873" style="stroke:#181818;stroke-width:1.0;" width="10" x="447" y="148.2031"/><line style="stroke:#181818;stroke-width:0.5;stroke-dasharray:5.0,5.0;" x1="62" x2="62" y1="83.6211" y2="365.3672"/><line style="stroke:#181818;stroke-width:0.5;stroke-dasharray:5.0,5.0;" x1="290" x2="290" y1="83.6211" y2="365.3672"/><line style="stroke:#181818;stroke-width:0.5;stroke-dasharray:5.0,5.0;" x1="451.5" x2="451.5" y1="83.6211" y2="365.3672"/><text fill="#000000" font-family="sans-serif" font-size="14" lengthAdjust="spacing" textLength="108" x="5" y="80.1074">CampusManager</text><ellipse cx="62" cy="13.5" fill="#E2E2F0" rx="8" ry="8" style="stroke:#181818;stroke-width:0.5;"/><path d="M62,21.5 L62,48.5 M49,29.5 L75,29.5 M62,48.5 L49,63.5 M62,48.5 L75,63.5 " fill="none" style="stroke:#181818;stroke-width:0.5;"/><text fill="#000000" font-family="sans-serif" font-size="14" lengthAdjust="spacing" textLength="108" x="5" y="379.4746">CampusManager</text><ellipse cx="62" cy="391.4883" fill="#E2E2F0" rx="8" ry="8" style="stroke:#181818;stroke-width:0.5;"/><path d="M62,399.4883 L62,426.4883 M49,407.4883 L75,407.4883 M62,426.4883 L49,441.4883 M62,426.4883 L75,441.4883 " fill="none" style="stroke:#181818;stroke-width:0.5;"/><rect fill="#E2E2F0" height="32.6211" rx="2.5" ry="2.5" style="stroke:#181818;stroke-width:0.5;" width="26" x="277" y="50"/><text fill="#000000" font-family="sans-serif" font-size="14" lengthAdjust="spacing" textLength="12" x="284" y="72.1074">UI</text><rect fill="#E2E2F0" height="32.6211" rx="2.5" ry="2.5" style="stroke:#181818;stroke-width:0.5;" width="26" x="277" y="364.3672"/><text fill="#000000" font-family="sans-serif" font-size="14" lengthAdjust="spacing" textLength="12" x="284" y="386.4746">UI</text><rect fill="#E2E2F0" height="32.6211" rx="2.5" ry="2.5" style="stroke:#181818;stroke-width:0.5;" width="35" x="434.5" y="50"/><text fill="#000000" font-family="sans-serif" font-size="14" lengthAdjust="spacing" textLength="21" x="441.5" y="72.1074">MD</text><rect fill="#E2E2F0" height="32.6211" rx="2.5" ry="2.5" style="stroke:#181818;stroke-width:0.5;" width="35" x="434.5" y="364.3672"/><text fill="#000000" font-family="sans-serif" font-size="14" lengthAdjust="spacing" textLength="21" x="441.5" y="386.4746">MD</text><rect fill="#FFFFFF" height="239.4551" style="stroke:#181818;stroke-width:1.0;" width="10" x="285" y="116.9121"/><rect fill="#FFFFFF" height="142.873" style="stroke:#181818;stroke-width:1.0;" width="10" x="447" y="148.2031"/><polygon fill="#181818" points="273,112.9121,283,116.9121,273,120.9121,277,116.9121" style="stroke:#181818;stroke-width:1.0;"/><line style="stroke:#181818;stroke-width:1.0;" x1="62" x2="279" y1="116.9121" y2="116.9121"/><text fill="#000000" font-family="sans-serif" font-size="13" font-weight="bold" lengthAdjust="spacing" textLength="7" x="69" y="111.6494">1</text><text fill="#000000" font-family="sans-serif" font-size="13" lengthAdjust="spacing" textLength="193" x="80" y="111.6494">requests list floors with passages</text><polygon fill="#181818" points="435,144.2031,445,148.2031,435,152.2031,439,148.2031" style="stroke:#181818;stroke-width:1.0;"/><line style="stroke:#181818;stroke-width:1.0;" x1="295" x2="441" y1="148.2031" y2="148.2031"/><text fill="#000000" font-family="sans-serif" font-size="13" font-weight="bold" lengthAdjust="spacing" textLength="7" x="302" y="142.9404">2</text><text fill="#000000" font-family="sans-serif" font-size="13" lengthAdjust="spacing" textLength="122" x="313" y="142.9404">patch('/api/floor/map')</text><line style="stroke:#181818;stroke-width:1.0;" x1="457" x2="499" y1="221.7852" y2="221.7852"/><line style="stroke:#181818;stroke-width:1.0;" x1="499" x2="499" y1="221.7852" y2="234.7852"/><line style="stroke:#181818;stroke-width:1.0;" x1="458" x2="499" y1="234.7852" y2="234.7852"/><polygon fill="#181818" points="468,230.7852,458,234.7852,468,238.7852,464,234.7852" style="stroke:#181818;stroke-width:1.0;"/><text fill="#000000" font-family="sans-serif" font-size="13" font-weight="bold" lengthAdjust="spacing" textLength="7" x="464" y="207.877">3</text><text fill="#000000" font-family="sans-serif" font-size="13" lengthAdjust="spacing" textLength="57" x="475" y="199.2314">edits map</text><text fill="#000000" font-family="sans-serif" font-size="13" lengthAdjust="spacing" textLength="117" x="479" y="216.5225">saves and returns it.</text><polygon fill="#181818" points="306,287.0762,296,291.0762,306,295.0762,302,291.0762" style="stroke:#181818;stroke-width:1.0;"/><line style="stroke:#181818;stroke-width:1.0;" x1="300" x2="451" y1="291.0762" y2="291.0762"/><text fill="#000000" font-family="sans-serif" font-size="13" font-weight="bold" lengthAdjust="spacing" textLength="7" x="312" y="285.8135">4</text><text fill="#000000" font-family="sans-serif" font-size="13" lengthAdjust="spacing" textLength="93" x="323" y="285.8135">response status</text><polygon fill="#181818" points="73,343.3672,63,347.3672,73,351.3672,69,347.3672" style="stroke:#181818;stroke-width:1.0;"/><line style="stroke:#181818;stroke-width:1.0;" x1="67" x2="284" y1="347.3672" y2="347.3672"/><text fill="#000000" font-family="sans-serif" font-size="13" font-weight="bold" lengthAdjust="spacing" textLength="7" x="79" y="342.1045">5</text><text fill="#000000" font-family="sans-serif" font-size="13" lengthAdjust="spacing" textLength="106" x="90" y="342.1045">operation success</text><!--SRC=[NOwxRiCm34LtVGKtjqEYFKEMTicGnO2tBgpCnW8iYHMfTF77btOIzB4H5_SStcvIPJbuppDcRMdUXvAyq6UZ76WtHhnKJCvXqv9RUgTgTz1IuGKJDpbZnWjLG871CLQD8RAPO3XjsUbFU7w5DUsT6s1tN3i7gEilKO4vYiB7N4eL-8ew0QE8oMNx6A-ejFeCChGtab73zDHvvEWtpYVaxlbNlNVBihZ-0T0OxO-Lu2s3u9K4C8-sG5lD0b7tF_txDk6IXK0KjOaRwP_wDcQmQc6ggB6Ok8L0Ogk_0G00]--></g></svg>