<?xml version="1.0" encoding="us-ascii" standalone="no"?><svg xmlns="http://www.w3.org/2000/svg" xmlns:xlink="http://www.w3.org/1999/xlink" contentStyleType="text/css" height="588px" preserveAspectRatio="none" style="width:687px;height:588px;background:#FFFFFF;" version="1.1" viewBox="0 0 687 588" width="687px" zoomAndPan="magnify"><defs/><g><rect fill="#FFFFFF" height="402.832" style="stroke:#181818;stroke-width:1.0;" width="10" x="22.5" y="93.6211"/><rect fill="#FFFFFF" height="31.291" style="stroke:#181818;stroke-width:1.0;" width="10" x="215.5" y="116.9121"/><rect fill="#FFFFFF" height="307.959" style="stroke:#181818;stroke-width:1.0;" width="10" x="215.5" y="179.4941"/><rect fill="#FFFFFF" height="253.377" style="stroke:#181818;stroke-width:1.0;" width="10" x="498.5" y="210.7852"/><rect fill="none" height="187.0859" style="stroke:#000000;stroke-width:1.5;" width="506.5" x="174" y="270.0762"/><line style="stroke:#181818;stroke-width:0.5;stroke-dasharray:5.0,5.0;" x1="27" x2="27" y1="83.6211" y2="505.4531"/><line style="stroke:#181818;stroke-width:0.5;stroke-dasharray:5.0,5.0;" x1="220" x2="220" y1="83.6211" y2="505.4531"/><line style="stroke:#181818;stroke-width:0.5;stroke-dasharray:5.0,5.0;" x1="503" x2="503" y1="83.6211" y2="505.4531"/><text fill="#000000" font-family="sans-serif" font-size="14" lengthAdjust="spacing" textLength="39" x="5" y="80.1074">Admin</text><ellipse cx="27.5" cy="13.5" fill="#E2E2F0" rx="8" ry="8" style="stroke:#181818;stroke-width:0.5;"/><path d="M27.5,21.5 L27.5,48.5 M14.5,29.5 L40.5,29.5 M27.5,48.5 L14.5,63.5 M27.5,48.5 L40.5,63.5 " fill="none" style="stroke:#181818;stroke-width:0.5;"/><text fill="#000000" font-family="sans-serif" font-size="14" lengthAdjust="spacing" textLength="39" x="5" y="519.5605">Admin</text><ellipse cx="27.5" cy="531.5742" fill="#E2E2F0" rx="8" ry="8" style="stroke:#181818;stroke-width:0.5;"/><path d="M27.5,539.5742 L27.5,566.5742 M14.5,547.5742 L40.5,547.5742 M27.5,566.5742 L14.5,581.5742 M27.5,566.5742 L40.5,581.5742 " fill="none" style="stroke:#181818;stroke-width:0.5;"/><rect fill="#E2E2F0" height="32.6211" rx="2.5" ry="2.5" style="stroke:#181818;stroke-width:0.5;" width="73" x="184" y="50"/><text fill="#000000" font-family="sans-serif" font-size="14" lengthAdjust="spacing" textLength="59" x="191" y="72.1074">FrontEnd</text><rect fill="#E2E2F0" height="32.6211" rx="2.5" ry="2.5" style="stroke:#181818;stroke-width:0.5;" width="73" x="184" y="504.4531"/><text fill="#000000" font-family="sans-serif" font-size="14" lengthAdjust="spacing" textLength="59" x="191" y="526.5605">FrontEnd</text><rect fill="#E2E2F0" height="32.6211" rx="2.5" ry="2.5" style="stroke:#181818;stroke-width:0.5;" width="35" x="486" y="50"/><text fill="#000000" font-family="sans-serif" font-size="14" lengthAdjust="spacing" textLength="21" x="493" y="72.1074">MD</text><rect fill="#E2E2F0" height="32.6211" rx="2.5" ry="2.5" style="stroke:#181818;stroke-width:0.5;" width="35" x="486" y="504.4531"/><text fill="#000000" font-family="sans-serif" font-size="14" lengthAdjust="spacing" textLength="21" x="493" y="526.5605">MD</text><rect fill="#FFFFFF" height="402.832" style="stroke:#181818;stroke-width:1.0;" width="10" x="22.5" y="93.6211"/><rect fill="#FFFFFF" height="31.291" style="stroke:#181818;stroke-width:1.0;" width="10" x="215.5" y="116.9121"/><rect fill="#FFFFFF" height="307.959" style="stroke:#181818;stroke-width:1.0;" width="10" x="215.5" y="179.4941"/><rect fill="#FFFFFF" height="253.377" style="stroke:#181818;stroke-width:1.0;" width="10" x="498.5" y="210.7852"/><polygon fill="#181818" points="203.5,112.9121,213.5,116.9121,203.5,120.9121,207.5,116.9121" style="stroke:#181818;stroke-width:1.0;"/><line style="stroke:#181818;stroke-width:1.0;" x1="32.5" x2="209.5" y1="116.9121" y2="116.9121"/><text fill="#000000" font-family="sans-serif" font-size="13" lengthAdjust="spacing" textLength="164" x="39.5" y="111.6494">requests to adds a new user</text><polygon fill="#181818" points="43.5,144.2031,33.5,148.2031,43.5,152.2031,39.5,148.2031" style="stroke:#181818;stroke-width:1.0;"/><line style="stroke:#181818;stroke-width:1.0;" x1="37.5" x2="219.5" y1="148.2031" y2="148.2031"/><text fill="#000000" font-family="sans-serif" font-size="13" lengthAdjust="spacing" textLength="153" x="49.5" y="142.9404">requests data for new user</text><polygon fill="#181818" points="203.5,175.4941,213.5,179.4941,203.5,183.4941,207.5,179.4941" style="stroke:#181818;stroke-width:1.0;"/><line style="stroke:#181818;stroke-width:1.0;" x1="32.5" x2="209.5" y1="179.4941" y2="179.4941"/><text fill="#000000" font-family="sans-serif" font-size="13" lengthAdjust="spacing" textLength="138" x="39.5" y="174.2314">sends data for new user</text><polygon fill="#181818" points="486.5,206.7852,496.5,210.7852,486.5,214.7852,490.5,210.7852" style="stroke:#181818;stroke-width:1.0;"/><line style="stroke:#181818;stroke-width:1.0;" x1="225.5" x2="492.5" y1="210.7852" y2="210.7852"/><text fill="#000000" font-family="sans-serif" font-size="13" lengthAdjust="spacing" textLength="254" x="232.5" y="205.5225">sends data for new user and token of Admin</text><line style="stroke:#181818;stroke-width:1.0;" x1="508.5" x2="550.5" y1="242.0762" y2="242.0762"/><line style="stroke:#181818;stroke-width:1.0;" x1="550.5" x2="550.5" y1="242.0762" y2="255.0762"/><line style="stroke:#181818;stroke-width:1.0;" x1="509.5" x2="550.5" y1="255.0762" y2="255.0762"/><polygon fill="#181818" points="519.5,251.0762,509.5,255.0762,519.5,259.0762,515.5,255.0762" style="stroke:#181818;stroke-width:1.0;"/><text fill="#000000" font-family="sans-serif" font-size="13" lengthAdjust="spacing" textLength="133" x="515.5" y="236.8135">checks token of Admin</text><path d="M174,270.0762 L235,270.0762 L235,279.3672 L225,289.3672 L174,289.3672 L174,270.0762 " fill="#EEEEEE" style="stroke:#000000;stroke-width:1.5;"/><rect fill="none" height="187.0859" style="stroke:#000000;stroke-width:1.5;" width="506.5" x="174" y="270.0762"/><text fill="#000000" font-family="sans-serif" font-size="13" font-weight="bold" lengthAdjust="spacing" textLength="16" x="189" y="285.1045">alt</text><text fill="#000000" font-family="sans-serif" font-size="11" font-weight="bold" lengthAdjust="spacing" textLength="81" x="250" y="283.9463">[token is valid]</text><line style="stroke:#181818;stroke-width:1.0;" x1="508.5" x2="550.5" y1="312.6582" y2="312.6582"/><line style="stroke:#181818;stroke-width:1.0;" x1="550.5" x2="550.5" y1="312.6582" y2="325.6582"/><line style="stroke:#181818;stroke-width:1.0;" x1="509.5" x2="550.5" y1="325.6582" y2="325.6582"/><polygon fill="#181818" points="519.5,321.6582,509.5,325.6582,519.5,329.6582,515.5,325.6582" style="stroke:#181818;stroke-width:1.0;"/><text fill="#000000" font-family="sans-serif" font-size="13" lengthAdjust="spacing" textLength="153" x="515.5" y="307.3955">validates data for new user</text><line style="stroke:#181818;stroke-width:1.0;" x1="508.5" x2="550.5" y1="356.9492" y2="356.9492"/><line style="stroke:#181818;stroke-width:1.0;" x1="550.5" x2="550.5" y1="356.9492" y2="369.9492"/><line style="stroke:#181818;stroke-width:1.0;" x1="509.5" x2="550.5" y1="369.9492" y2="369.9492"/><polygon fill="#181818" points="519.5,365.9492,509.5,369.9492,519.5,373.9492,515.5,369.9492" style="stroke:#181818;stroke-width:1.0;"/><text fill="#000000" font-family="sans-serif" font-size="13" lengthAdjust="spacing" textLength="84" x="515.5" y="351.6865">adds new user</text><polygon fill="#181818" points="236.5,397.2402,226.5,401.2402,236.5,405.2402,232.5,401.2402" style="stroke:#181818;stroke-width:1.0;"/><line style="stroke:#181818;stroke-width:1.0;" x1="230.5" x2="497.5" y1="401.2402" y2="401.2402"/><text fill="#000000" font-family="sans-serif" font-size="13" lengthAdjust="spacing" textLength="159" x="242.5" y="395.9775">sends message of success</text><line style="stroke:#000000;stroke-width:1.0;stroke-dasharray:2.0,2.0;" x1="174" x2="680.5" y1="410.2402" y2="410.2402"/><text fill="#000000" font-family="sans-serif" font-size="11" font-weight="bold" lengthAdjust="spacing" textLength="91" x="179" y="422.1104">[token is invalid]</text><polygon fill="#181818" points="236.5,445.1621,226.5,449.1621,236.5,453.1621,232.5,449.1621" style="stroke:#181818;stroke-width:1.0;"/><line style="stroke:#181818;stroke-width:1.0;" x1="230.5" x2="497.5" y1="449.1621" y2="449.1621"/><text fill="#000000" font-family="sans-serif" font-size="13" lengthAdjust="spacing" textLength="136" x="242.5" y="443.8994">sends message of error</text><polygon fill="#181818" points="43.5,483.4531,33.5,487.4531,43.5,491.4531,39.5,487.4531" style="stroke:#181818;stroke-width:1.0;"/><line style="stroke:#181818;stroke-width:1.0;" x1="37.5" x2="219.5" y1="487.4531" y2="487.4531"/><text fill="#000000" font-family="sans-serif" font-size="13" lengthAdjust="spacing" textLength="87" x="49.5" y="482.1904">show message</text><!--SRC=[TP713S8m34Nldi8Bi00792JWnX1MOY2YJKhimlgub49QGa-fxVVplqDEKyQjRqD4al40q57Mu497KV6GKzHzz4Fxi9-rZhkXUDm1aDDm9-MtmAYtsXY0QynywrbKK1EIzuA4aH_O2-U2D6sRDcQ42yoJ4fxCveVoN6ABwuIZhq6Lgop0ttaaowpfoX7JQLhCHy926pn9k0kxg_nED_gk1S4xDS43sbU0hwBfrVmkHb-RgpIBp2sBq9a71z8xPt_0ZV3NGuXB5tMQSquPh0hbgYtp_8NaaXuJ1lD7UG80]--></g></svg>