<?xml version="1.0" encoding="us-ascii" standalone="no"?><svg xmlns="http://www.w3.org/2000/svg" xmlns:xlink="http://www.w3.org/1999/xlink" contentStyleType="text/css" height="1479px" preserveAspectRatio="none" style="width:620px;height:1479px;background:#FFFFFF;" version="1.1" viewBox="0 0 620 1479" width="620px" zoomAndPan="magnify"><defs/><g><!--cluster UI_I--><g id="cluster_UI_I"><rect fill="#80F0FF" height="1362" rx="2.5" ry="2.5" style="stroke:#181818;stroke-width:1.0;" width="577" x="7" y="111"/><rect fill="#80F0FF" height="10" style="stroke:#181818;stroke-width:1.0;" width="15" x="564" y="116"/><rect fill="#80F0FF" height="2" style="stroke:#181818;stroke-width:1.0;" width="4" x="562" y="118"/><rect fill="#80F0FF" height="2" style="stroke:#181818;stroke-width:1.0;" width="4" x="562" y="122"/><text fill="#000000" font-family="sans-serif" font-size="14" font-style="italic" lengthAdjust="spacing" textLength="86" x="252.5" y="139.1074">&#171;component&#187;</text><text fill="#000000" font-family="sans-serif" font-size="14" font-style="italic" lengthAdjust="spacing" textLength="103" x="244" y="157.7285">&#171;container(C4)&#187;</text><text fill="#000000" font-family="sans-serif" font-size="14" font-weight="bold" lengthAdjust="spacing" textLength="93" x="249" y="176.3496">Frontend (UI)</text></g><!--cluster Angular_I--><g id="cluster_Angular_I"><path d="M41.5,664 L181.5,664 A3.75,3.75 0 0 1 184,666.5 L191,688.6211 L288.5,688.6211 A2.5,2.5 0 0 1 291,691.1211 L291,1107.5 A2.5,2.5 0 0 1 288.5,1110 L41.5,1110 A2.5,2.5 0 0 1 39,1107.5 L39,666.5 A2.5,2.5 0 0 1 41.5,664 " fill="#80F0FF" style="stroke:#000000;stroke-width:1.5;"/><line style="stroke:#000000;stroke-width:1.5;" x1="39" x2="191" y1="688.6211" y2="688.6211"/><text fill="#000000" font-family="sans-serif" font-size="14" font-weight="bold" lengthAdjust="spacing" textLength="139" x="43" y="681.1074">Angular Component</text></g><!--cluster HTML_I--><g id="cluster_HTML_I"><rect fill="#80F0FF" height="130" rx="2.5" ry="2.5" style="stroke:#181818;stroke-width:1.0;" width="155" x="71" y="731"/><rect fill="#80F0FF" height="10" style="stroke:#181818;stroke-width:1.0;" width="15" x="206" y="736"/><rect fill="#80F0FF" height="2" style="stroke:#181818;stroke-width:1.0;" width="4" x="204" y="738"/><rect fill="#80F0FF" height="2" style="stroke:#181818;stroke-width:1.0;" width="4" x="204" y="742"/><text fill="#000000" font-family="sans-serif" font-size="14" font-style="italic" lengthAdjust="spacing" textLength="86" x="105.5" y="759.1074">&#171;component&#187;</text><text fill="#000000" font-family="sans-serif" font-size="14" font-weight="bold" lengthAdjust="spacing" textLength="116" x="90.5" y="777.7285">HTML + CSS + JS</text></g><!--cluster Driver_I--><g id="cluster_Driver_I"><rect fill="#80F0FF" height="153" rx="2.5" ry="2.5" style="stroke:#181818;stroke-width:1.0;" width="143" x="387" y="389"/><rect fill="#80F0FF" height="10" style="stroke:#181818;stroke-width:1.0;" width="15" x="510" y="394"/><rect fill="#80F0FF" height="2" style="stroke:#181818;stroke-width:1.0;" width="4" x="508" y="396"/><rect fill="#80F0FF" height="2" style="stroke:#181818;stroke-width:1.0;" width="4" x="508" y="400"/><text fill="#000000" font-family="sans-serif" font-size="14" font-style="italic" lengthAdjust="spacing" textLength="86" x="415.5" y="417.1074">&#171;component&#187;</text><text fill="#000000" font-family="sans-serif" font-size="14" font-weight="bold" lengthAdjust="spacing" textLength="83" x="417" y="435.7285">HTTP Driver</text></g><text fill="#000000" font-family="sans-serif" font-size="14" lengthAdjust="spacing" textLength="4" x="206" y="89.4863">&#160;</text><rect fill="#F1F1F1" height="12" style="stroke:#181818;stroke-width:1.5;" width="12" x="202" y="105"/><text fill="#000000" font-family="sans-serif" font-size="14" lengthAdjust="spacing" textLength="4" x="159" y="89.4863">&#160;</text><rect fill="#F1F1F1" height="12" style="stroke:#181818;stroke-width:1.5;" width="12" x="155" y="105"/><text fill="#000000" font-family="sans-serif" font-size="14" lengthAdjust="spacing" textLength="4" x="436" y="89.4863">&#160;</text><rect fill="#F1F1F1" height="12" style="stroke:#181818;stroke-width:1.5;" width="12" x="432" y="105"/><text fill="#000000" font-family="sans-serif" font-size="14" lengthAdjust="spacing" textLength="4" x="387" y="89.4863">&#160;</text><rect fill="#F1F1F1" height="12" style="stroke:#181818;stroke-width:1.5;" width="12" x="383" y="105"/><!--entity Observer_I--><g id="elem_Observer_I"><ellipse cx="324" cy="1052.5" fill="#F1F1F1" rx="8" ry="8" style="stroke:#181818;stroke-width:0.5;"/><text fill="#000000" font-family="sans-serif" font-size="14" font-weight="bold" lengthAdjust="spacing" textLength="93" x="277.5" y="1084.6074">Observer API</text></g><!--entity Service_I--><g id="elem_Service_I"><rect fill="#80F0FF" height="67.2422" rx="2.5" ry="2.5" style="stroke:#181818;stroke-width:0.5;" width="126" x="142" y="1268"/><rect fill="#80F0FF" height="10" style="stroke:#181818;stroke-width:0.5;" width="15" x="248" y="1273"/><rect fill="#80F0FF" height="2" style="stroke:#181818;stroke-width:0.5;" width="4" x="246" y="1275"/><rect fill="#80F0FF" height="2" style="stroke:#181818;stroke-width:0.5;" width="4" x="246" y="1279"/><text fill="#000000" font-family="sans-serif" font-size="14" font-style="italic" lengthAdjust="spacing" textLength="86" x="157" y="1303.1074">&#171;component&#187;</text><text fill="#000000" font-family="sans-serif" font-size="14" font-weight="bold" lengthAdjust="spacing" textLength="54" x="173" y="1321.7285">Service</text></g><!--entity S_API_I--><g id="elem_S_API_I"><ellipse cx="312" cy="1301.5" fill="#F1F1F1" rx="8" ry="8" style="stroke:#181818;stroke-width:0.5;"/><text fill="#000000" font-family="sans-serif" font-size="14" font-weight="bold" lengthAdjust="spacing" textLength="80" x="272" y="1333.6074">Service API</text></g><!--entity Model_I--><g id="elem_Model_I"><rect fill="#80F0FF" height="67.2422" rx="2.5" ry="2.5" style="stroke:#181818;stroke-width:0.5;" width="126" x="368" y="1019"/><rect fill="#80F0FF" height="10" style="stroke:#181818;stroke-width:0.5;" width="15" x="474" y="1024"/><rect fill="#80F0FF" height="2" style="stroke:#181818;stroke-width:0.5;" width="4" x="472" y="1026"/><rect fill="#80F0FF" height="2" style="stroke:#181818;stroke-width:0.5;" width="4" x="472" y="1030"/><text fill="#000000" font-family="sans-serif" font-size="14" font-style="italic" lengthAdjust="spacing" textLength="86" x="383" y="1054.1074">&#171;component&#187;</text><text fill="#000000" font-family="sans-serif" font-size="14" font-weight="bold" lengthAdjust="spacing" textLength="44" x="404" y="1072.7285">Model</text></g><!--entity M_API_I--><g id="elem_M_API_I"><ellipse cx="400" cy="1426" fill="#F1F1F1" rx="8" ry="8" style="stroke:#181818;stroke-width:0.5;"/><text fill="#000000" font-family="sans-serif" font-size="14" font-weight="bold" lengthAdjust="spacing" textLength="70" x="365" y="1458.1074">Model API</text></g><!--entity D_API_I--><g id="elem_D_API_I"><ellipse cx="559" cy="1301.5" fill="#F1F1F1" rx="8" ry="8" style="stroke:#181818;stroke-width:0.5;"/><text fill="#000000" font-family="sans-serif" font-size="14" font-weight="bold" lengthAdjust="spacing" textLength="109" x="504.5" y="1333.6074">HTTP Driver API</text></g><!--entity Component_I--><g id="elem_Component_I"><rect fill="#80F0FF" height="67.2422" rx="2.5" ry="2.5" style="stroke:#181818;stroke-width:0.5;" width="126" x="133" y="1019"/><rect fill="#80F0FF" height="10" style="stroke:#181818;stroke-width:0.5;" width="15" x="239" y="1024"/><rect fill="#80F0FF" height="2" style="stroke:#181818;stroke-width:0.5;" width="4" x="237" y="1026"/><rect fill="#80F0FF" height="2" style="stroke:#181818;stroke-width:0.5;" width="4" x="237" y="1030"/><text fill="#000000" font-family="sans-serif" font-size="14" font-style="italic" lengthAdjust="spacing" textLength="86" x="148" y="1054.1074">&#171;component&#187;</text><text fill="#000000" font-family="sans-serif" font-size="14" font-weight="bold" lengthAdjust="spacing" textLength="81" x="150.5" y="1072.7285">Component</text></g><!--entity C_API_I--><g id="elem_C_API_I"><ellipse cx="197" cy="928" fill="#F1F1F1" rx="8" ry="8" style="stroke:#181818;stroke-width:0.5;"/><text fill="#000000" font-family="sans-serif" font-size="14" font-weight="bold" lengthAdjust="spacing" textLength="107" x="143.5" y="960.1074">Component API</text></g><text fill="#000000" font-family="sans-serif" font-size="14" lengthAdjust="spacing" textLength="4" x="206" y="709.4863">&#160;</text><rect fill="#F1F1F1" height="12" style="stroke:#181818;stroke-width:1.5;" width="12" x="202" y="725"/><text fill="#000000" font-family="sans-serif" font-size="14" lengthAdjust="spacing" textLength="4" x="159" y="709.4863">&#160;</text><rect fill="#F1F1F1" height="12" style="stroke:#181818;stroke-width:1.5;" width="12" x="155" y="725"/><text fill="#000000" font-family="sans-serif" font-size="14" lengthAdjust="spacing" textLength="4" x="450" y="367.4863">&#160;</text><rect fill="#F1F1F1" height="12" style="stroke:#181818;stroke-width:1.5;" width="12" x="446" y="383"/><text fill="#000000" font-family="sans-serif" font-size="14" lengthAdjust="spacing" textLength="4" x="403" y="367.4863">&#160;</text><rect fill="#F1F1F1" height="12" style="stroke:#181818;stroke-width:1.5;" width="12" x="399" y="383"/><!--entity Cam_UI_I--><g id="elem_Cam_UI_I"><ellipse cx="261" cy="14" fill="#F1F1F1" rx="8" ry="8" style="stroke:#181818;stroke-width:0.5;"/><text fill="#000000" font-family="sans-serif" font-size="14" font-weight="bold" lengthAdjust="spacing" textLength="74" x="224" y="46.1074">UI Campus</text></g><!--entity F_UI_I--><g id="elem_F_UI_I"><ellipse cx="146" cy="14" fill="#F1F1F1" rx="8" ry="8" style="stroke:#181818;stroke-width:0.5;"/><text fill="#000000" font-family="sans-serif" font-size="14" font-weight="bold" lengthAdjust="spacing" textLength="54" x="119" y="46.1074">UI Fleet</text></g><!--entity Cam_API_I--><g id="elem_Cam_API_I"><ellipse cx="504" cy="14" fill="#F1F1F1" rx="8" ry="8" style="stroke:#181818;stroke-width:0.5;"/><text fill="#000000" font-family="sans-serif" font-size="14" font-weight="bold" lengthAdjust="spacing" textLength="82" x="463" y="46.1074">API Campus</text></g><!--entity F_API_I--><g id="elem_F_API_I"><ellipse cx="381" cy="14" fill="#F1F1F1" rx="8" ry="8" style="stroke:#181818;stroke-width:0.5;"/><text fill="#000000" font-family="sans-serif" font-size="14" font-weight="bold" lengthAdjust="spacing" textLength="62" x="350" y="46.1074">API Fleet</text></g><!--link pH1_I to p1_I--><g id="link_pH1_I_p1_I"><path d="M208,724.78 C208,705.47 208,636.15 208,579 C208,238 208,238 208,238 C208,191.19 208,134.59 208,117.28 " fill="none" id="pH1_I-p1_I" style="stroke:#181818;stroke-width:1.0;"/></g><!--link pH2_I to p2_I--><g id="link_pH2_I_p2_I"><path d="M161,724.78 C161,705.47 161,636.15 161,579 C161,238 161,238 161,238 C161,191.19 161,134.59 161,117.28 " fill="none" id="pH2_I-p2_I" style="stroke:#181818;stroke-width:1.0;"/></g><!--link HTML_I to C_API_I--><g id="link_HTML_I_C_API_I"><path d="M175.3154,861.3447 C175.3936,861.5813 175.4719,861.8182 175.5502,862.0554 C175.707,862.5298 175.864,863.0053 176.0214,863.4818 C176.651,865.3875 177.2856,867.3084 177.922,869.2348 C179.1948,873.0876 180.4747,876.9622 181.7363,880.7813 C186.7825,896.0575 188.3961,900.9504 191.2211,909.4954 " fill="none" id="HTML_I-to-C_API_I" style="stroke:#181818;stroke-width:1.0;"/><path d="M201.4236,913.4127 A9,9 0 0 0 185.364 918.7221" fill="none" style="stroke:#181818;stroke-width:1.5;"/></g><!--link C_API_I to Component_I--><g id="link_C_API_I_Component_I"><path d="M196.93,937.04 C196.8,953.33 196.49,991.03 196.27,1018.73 " fill="none" id="C_API_I-Component_I" style="stroke:#181818;stroke-width:1.0;"/></g><!--link p3_I to pD1_I--><g id="link_p3_I_pD1_I"><path d="M438.27,117.27 C440.03,152 449.96,347.78 451.73,382.68 " fill="none" id="p3_I-pD1_I" style="stroke:#181818;stroke-width:1.0;"/></g><!--link p4_I to pD2_I--><g id="link_p4_I_pD2_I"><path d="M389.31,117.27 C391.32,152 402.67,347.78 404.69,382.68 " fill="none" id="p4_I-pD2_I" style="stroke:#181818;stroke-width:1.0;"/></g><!--link Service_I to S_API_I--><g id="link_Service_I_S_API_I"><path d="M268.11,1301.5 C279.66,1301.5 291.2,1301.5 302.74,1301.5 " fill="none" id="Service_I-S_API_I" style="stroke:#181818;stroke-width:1.0;"/></g><!--link Model_I to M_API_I--><g id="link_Model_I_M_API_I"><path d="M428.28,1086.14 C421.52,1167.06 404.3,1373.49 400.68,1416.91 " fill="none" id="Model_I-M_API_I" style="stroke:#181818;stroke-width:1.0;"/></g><!--link Driver_I to D_API_I--><g id="link_Driver_I_D_API_I"><path d="M514.1796,542.0055 C514.4689,542.2723 514.758,542.5401 515.047,542.8089 C516.203,543.8843 517.3567,544.9764 518.5061,546.0847 C520.8048,548.3014 523.0864,550.5831 525.335,552.9271 C529.832,557.6149 534.1969,562.5516 538.3025,567.7138 C554.725,588.3625 567,612.62 567,639 C567,639 567,639 567,1147 C567,1202.51 561.72,1269.15 559.74,1292.19 " fill="none" id="Driver_I-D_API_I" style="stroke:#181818;stroke-width:1.0;"/></g><!--link Component_I to Observer_I--><g id="link_Component_I_Observer_I"><path d="M259,1052.5 C277.62,1052.5 286.24,1052.5 304.86,1052.5 " fill="none" id="Component_I-to-Observer_I" style="stroke:#181818;stroke-width:1.0;"/><path d="M311.7818,1044.0428 A9,9 0 0 0 311.7818 1060.9572" fill="none" style="stroke:#181818;stroke-width:1.5;"/></g><!--link Observer_I to Model_I--><g id="link_Observer_I_Model_I"><path d="M333.2,1052.5 C344.78,1052.5 356.37,1052.5 367.96,1052.5 " fill="none" id="Observer_I-Model_I" style="stroke:#181818;stroke-width:1.0;"/></g><!--link Component_I to S_API_I--><g id="link_Component_I_S_API_I"><path d="M211.28,1086.04 C238.35,1143.68 289.0293,1251.5884 303.9393,1283.3384 " fill="none" id="Component_I-to-S_API_I" style="stroke:#181818;stroke-width:1.0;"/><path d="M314.5367,1286.0088 A9,9 0 0 0 299.2264 1293.1987" fill="none" style="stroke:#181818;stroke-width:1.5;"/></g><!--link Component_I to M_API_I--><g id="link_Component_I_M_API_I"><path d="M221.15,1086.28 C251.76,1127.2 303.71,1200.09 339,1268 C367.32,1322.49 387.2644,1383.6768 394.5844,1407.3368 " fill="none" id="Component_I-to-M_API_I" style="stroke:#181818;stroke-width:1.0;"/><path d="M404.7096,1411.4497 A9,9 0 0 0 388.5508 1416.449" fill="none" style="stroke:#181818;stroke-width:1.5;"/></g><!--link Service_I to D_API_I--><g id="link_Service_I_D_API_I"><path d="M245.51,1267.92 C262.37,1256.02 282.81,1244.09 303.5,1238 C389.62,1212.65 424.1,1200.14 505.5,1238 C529.81,1249.31 542.4449,1268.8182 550.0449,1283.5082 " fill="none" id="Service_I-to-D_API_I" style="stroke:#181818;stroke-width:1.0;"/><path d="M560.7371,1285.7699 A9,9 0 0 0 545.7141 1293.5422" fill="none" style="stroke:#181818;stroke-width:1.5;"/></g><!--link Service_I to M_API_I--><g id="link_Service_I_M_API_I"><path d="M256.74,1335.01 C303.01,1364.07 358.5729,1398.9695 382.2529,1413.8495 " fill="none" id="Service_I-to-M_API_I" style="stroke:#181818;stroke-width:1.0;"/><path d="M392.6134,1410.3714 A9,9 0 0 0 383.614 1424.6931" fill="none" style="stroke:#181818;stroke-width:1.5;"/></g><!--link Driver_I to M_API_I--><g id="link_Driver_I_M_API_I"><path d="M492.2985,542.2467 C492.398,542.3853 492.4976,542.5243 492.5971,542.6634 C492.9954,543.2201 493.3936,543.7807 493.7916,544.3452 C494.5876,545.4742 495.3828,546.6188 496.1758,547.7783 C497.7619,550.0973 499.3391,552.476 500.896,554.9091 C504.0098,559.7752 507.0422,564.8591 509.9013,570.1188 C521.3375,591.1575 530,615.01 530,639 C530,639 530,639 530,929 C530,1016.92 531.6,1040.29 512,1126 C484.57,1245.96 424.8428,1373.717 408.3028,1407.927 " fill="none" id="Driver_I-to-M_API_I" style="stroke:#181818;stroke-width:1.0;"/><path d="M412.9039,1417.84 A9,9 0 0 0 397.6759 1410.4775" fill="none" style="stroke:#181818;stroke-width:1.5;"/></g><!--link Cam_UI_I to p1_I--><g id="link_Cam_UI_I_p1_I"><path d="M256.48,23.1 C245.87,42.12 219.58,89.23 210.86,104.87 " fill="none" id="Cam_UI_I-p1_I" style="stroke:#181818;stroke-width:1.0;"/></g><!--link F_UI_I to p2_I--><g id="link_F_UI_I_p2_I"><path d="M147.28,23.1 C150.28,42.12 157.72,89.23 160.19,104.87 " fill="none" id="F_UI_I-p2_I" style="stroke:#181818;stroke-width:1.0;"/></g><!--reverse link Cam_API_I to p3_I--><g id="link_Cam_API_I_p3_I"><path d="M492.6656,31.3134 C479.4556,50.3334 452.43,89.23 441.57,104.87 " fill="none" id="Cam_API_I-backto-p3_I" style="stroke:#181818;stroke-width:1.0;"/><path d="M489.6678,20.8038 A9,9 0 0 0 503.5603 30.4526" fill="none" style="stroke:#181818;stroke-width:1.5;"/></g><!--reverse link F_API_I to p4_I--><g id="link_F_API_I_p4_I"><path d="M382.5183,33.0648 C384.1183,52.0848 387.25,89.23 388.57,104.87 " fill="none" id="F_API_I-backto-p4_I" style="stroke:#181818;stroke-width:1.0;"/><path d="M373.5106,26.8763 A9,9 0 0 0 390.3655 25.4584" fill="none" style="stroke:#181818;stroke-width:1.5;"/></g><!--link Component_I to Service_I--><!--link Driver_I to Model_I--><!--link HTML_I to Component_I--><!--link Driver_I to Angular_I--><!--SRC=[XLLTRvim57tdLrZiOJIJbvRcePggI1KHAjEYLQ9vcgR83IP19GOPs1wg_lVPuAyBf2DA5CuvFhxd-ePyFhLjtNnRBkkIiBOxbryFrNaftdN5A6jnLf0Z9sVFQruBLXFn5ULLcL6EtZmahXToU3togcDPL9KLHv_khlFhFFVUFNU9yVl_AaaNhAKy9mUA8dBUxv9zWaY3_CLYbqYaxfh5mXyfuv4kBYbjfp9f-F1abUBx1vPZfJ7rRA9-s_jx0wpNyeQrf62K1z7gQhsM1Z4N66KP2dR9bVys1AqhtY9Vl8IYljadKp2S0s_dm9K01rTrG0_is9M4gm3g3aMwJdyu2ddPC8_Fsn_ZE2g_fD0N5AMf-FoUYYvOWqanZphCF2jJGLekGDWsmHBXG8GEyJvJkSbreNp3wtCUpGKuQoD60ktFMwzG3S9PzPVXG2ypj5i5xceC19Ff_ldIKFw7ShEl1lIsC68gkE90BmHKx7ICKn1DoUPts5OPBI_uzzpKVGlSUz6yzuONGzJvuNf-KWemM61iDkvmG0OCL2yKxSVsbpB0eOPNvaHWc0q8unG5vi2U0-POjxTdTFymrdtfOHDTwjKUWnMO5ou6oeu4D2o5fSDD5wk1TAi1lE2sxiuWH62g6b7ZLJR9cAblpCYhP_O0XngE7V1MWO5z7W_4oX2nDX-NzEjKP1bbluLAzCJ921i6PRfkp_qDQmalZgTspiocrT9Coio3LVnV_GC0]--></g></svg>