<?xml version="1.0" encoding="us-ascii" standalone="no"?><svg xmlns="http://www.w3.org/2000/svg" xmlns:xlink="http://www.w3.org/1999/xlink" contentStyleType="text/css" height="465px" preserveAspectRatio="none" style="width:719px;height:465px;background:#FFFFFF;" version="1.1" viewBox="0 0 719 465" width="719px" zoomAndPan="magnify"><defs/><g><rect fill="#FFFFFF" height="247.7461" style="stroke:#181818;stroke-width:1.0;" width="10" x="305.5" y="116.9121"/><rect fill="#FFFFFF" height="160.1641" style="stroke:#181818;stroke-width:1.0;" width="10" x="443.5" y="148.2031"/><line style="stroke:#181818;stroke-width:0.5;stroke-dasharray:5.0,5.0;" x1="22" x2="22" y1="83.6211" y2="382.6582"/><line style="stroke:#181818;stroke-width:0.5;stroke-dasharray:5.0,5.0;" x1="310.5" x2="310.5" y1="83.6211" y2="382.6582"/><line style="stroke:#181818;stroke-width:0.5;stroke-dasharray:5.0,5.0;" x1="448.5" x2="448.5" y1="83.6211" y2="382.6582"/><text fill="#000000" font-family="sans-serif" font-size="14" lengthAdjust="spacing" textLength="29" x="5" y="80.1074">User</text><ellipse cx="22.5" cy="13.5" fill="#E2E2F0" rx="8" ry="8" style="stroke:#181818;stroke-width:0.5;"/><path d="M22.5,21.5 L22.5,48.5 M9.5,29.5 L35.5,29.5 M22.5,48.5 L9.5,63.5 M22.5,48.5 L35.5,63.5 " fill="none" style="stroke:#181818;stroke-width:0.5;"/><text fill="#000000" font-family="sans-serif" font-size="14" lengthAdjust="spacing" textLength="29" x="5" y="396.7656">User</text><ellipse cx="22.5" cy="408.7793" fill="#E2E2F0" rx="8" ry="8" style="stroke:#181818;stroke-width:0.5;"/><path d="M22.5,416.7793 L22.5,443.7793 M9.5,424.7793 L35.5,424.7793 M22.5,443.7793 L9.5,458.7793 M22.5,443.7793 L35.5,458.7793 " fill="none" style="stroke:#181818;stroke-width:0.5;"/><rect fill="#E2E2F0" height="32.6211" rx="2.5" ry="2.5" style="stroke:#181818;stroke-width:0.5;" width="26" x="297.5" y="50"/><text fill="#000000" font-family="sans-serif" font-size="14" lengthAdjust="spacing" textLength="12" x="304.5" y="72.1074">UI</text><rect fill="#E2E2F0" height="32.6211" rx="2.5" ry="2.5" style="stroke:#181818;stroke-width:0.5;" width="26" x="297.5" y="381.6582"/><text fill="#000000" font-family="sans-serif" font-size="14" lengthAdjust="spacing" textLength="12" x="304.5" y="403.7656">UI</text><rect fill="#E2E2F0" height="32.6211" rx="2.5" ry="2.5" style="stroke:#181818;stroke-width:0.5;" width="52" x="422.5" y="50"/><text fill="#000000" font-family="sans-serif" font-size="14" lengthAdjust="spacing" textLength="38" x="429.5" y="72.1074">Route</text><rect fill="#E2E2F0" height="32.6211" rx="2.5" ry="2.5" style="stroke:#181818;stroke-width:0.5;" width="52" x="422.5" y="381.6582"/><text fill="#000000" font-family="sans-serif" font-size="14" lengthAdjust="spacing" textLength="38" x="429.5" y="403.7656">Route</text><rect fill="#FFFFFF" height="247.7461" style="stroke:#181818;stroke-width:1.0;" width="10" x="305.5" y="116.9121"/><rect fill="#FFFFFF" height="160.1641" style="stroke:#181818;stroke-width:1.0;" width="10" x="443.5" y="148.2031"/><polygon fill="#181818" points="293.5,112.9121,303.5,116.9121,293.5,120.9121,297.5,116.9121" style="stroke:#181818;stroke-width:1.0;"/><line style="stroke:#181818;stroke-width:1.0;" x1="22.5" x2="299.5" y1="116.9121" y2="116.9121"/><text fill="#000000" font-family="sans-serif" font-size="13" font-weight="bold" lengthAdjust="spacing" textLength="7" x="29.5" y="111.6494">1</text><text fill="#000000" font-family="sans-serif" font-size="13" lengthAdjust="spacing" textLength="253" x="40.5" y="111.6494">request list building with min and max floors</text><polygon fill="#181818" points="431.5,144.2031,441.5,148.2031,431.5,152.2031,435.5,148.2031" style="stroke:#181818;stroke-width:1.0;"/><line style="stroke:#181818;stroke-width:1.0;" x1="315.5" x2="437.5" y1="148.2031" y2="148.2031"/><text fill="#000000" font-family="sans-serif" font-size="13" font-weight="bold" lengthAdjust="spacing" textLength="7" x="322.5" y="142.9404">2</text><text fill="#000000" font-family="sans-serif" font-size="13" lengthAdjust="spacing" textLength="86" x="333.5" y="142.9404">get('/api/floors')</text><line style="stroke:#181818;stroke-width:1.0;" x1="453.5" x2="495.5" y1="239.0762" y2="239.0762"/><line style="stroke:#181818;stroke-width:1.0;" x1="495.5" x2="495.5" y1="239.0762" y2="252.0762"/><line style="stroke:#181818;stroke-width:1.0;" x1="454.5" x2="495.5" y1="252.0762" y2="252.0762"/><polygon fill="#181818" points="464.5,248.0762,454.5,252.0762,464.5,256.0762,460.5,252.0762" style="stroke:#181818;stroke-width:1.0;"/><text fill="#000000" font-family="sans-serif" font-size="13" font-weight="bold" lengthAdjust="spacing" textLength="7" x="460.5" y="216.5225">3</text><text fill="#000000" font-family="sans-serif" font-size="13" lengthAdjust="spacing" textLength="99" x="471.5" y="199.2314">finds all buildings</text><text fill="#000000" font-family="sans-serif" font-size="13" lengthAdjust="spacing" textLength="233" x="475.5" y="216.5225">with floors between the min and the max</text><text fill="#000000" font-family="sans-serif" font-size="13" lengthAdjust="spacing" textLength="98" x="475.5" y="233.8135">and returns them</text><polygon fill="#181818" points="326.5,304.3672,316.5,308.3672,326.5,312.3672,322.5,308.3672" style="stroke:#181818;stroke-width:1.0;"/><line style="stroke:#181818;stroke-width:1.0;" x1="320.5" x2="447.5" y1="308.3672" y2="308.3672"/><text fill="#000000" font-family="sans-serif" font-size="13" font-weight="bold" lengthAdjust="spacing" textLength="7" x="332.5" y="303.1045">4</text><text fill="#000000" font-family="sans-serif" font-size="13" lengthAdjust="spacing" textLength="93" x="343.5" y="303.1045">response status</text><polygon fill="#181818" points="33.5,360.6582,23.5,364.6582,33.5,368.6582,29.5,364.6582" style="stroke:#181818;stroke-width:1.0;"/><line style="stroke:#181818;stroke-width:1.0;" x1="27.5" x2="309.5" y1="364.6582" y2="364.6582"/><text fill="#000000" font-family="sans-serif" font-size="13" font-weight="bold" lengthAdjust="spacing" textLength="7" x="39.5" y="359.3955">5</text><text fill="#000000" font-family="sans-serif" font-size="13" lengthAdjust="spacing" textLength="106" x="50.5" y="359.3955">operation success</text><!--SRC=[NO-nRiCm34HtVGKtjqFgFKFth0QyPQ5jnYOWKQf89HtyyPNZDa6w21JvU7Ti5hEanxPD7iLAy1zZ3AtILo4PwJ0npXc3SrWiIWa3vLgF5ZFqIXbGeNS9i_78gGf0VxhtJY_DBXOZs0QTSpqSFZVi27bpKGFFzHaA-ubbXXlR0e45K2O8-0qN7sFMpPMlM7MgU5sl8btLcCdUcXOJjplMlBidsRbrNLttnrvO9WNq_c6cS9RTSD-6WUn6960BFJBSwvhZl7ypMScYMpiyzNyFqXH52TJGYhg9_aNPS_SLZOao6aS1BUD8-WBN2ty0]--></g></svg>