<?xml version="1.0" encoding="us-ascii" standalone="no"?><svg xmlns="http://www.w3.org/2000/svg" xmlns:xlink="http://www.w3.org/1999/xlink" contentStyleType="text/css" height="897px" preserveAspectRatio="none" style="width:1037px;height:897px;background:#FFFFFF;" version="1.1" viewBox="0 0 1037 897" width="1037px" zoomAndPan="magnify"><defs/><g><rect fill="#FFFFFF" height="802.6152" style="stroke:#181818;stroke-width:1.0;" width="10" x="28" y="48.6211"/><rect fill="#FFFFFF" height="779.3242" style="stroke:#181818;stroke-width:1.0;" width="10" x="247" y="71.9121"/><rect fill="#FFFFFF" height="700.7422" style="stroke:#181818;stroke-width:1.0;" width="10" x="360" y="103.2031"/><rect fill="#FFFFFF" height="156.4551" style="stroke:#181818;stroke-width:1.0;" width="10" x="503" y="134.4941"/><rect fill="#FFFFFF" height="93.873" style="stroke:#181818;stroke-width:1.0;" width="10" x="611" y="165.7852"/><rect fill="#FFFFFF" height="93.873" style="stroke:#181818;stroke-width:1.0;" width="10" x="611" y="547.9082"/><rect fill="#FFFFFF" height="30" style="stroke:#181818;stroke-width:1.0;" width="10" x="611" y="711.3633"/><rect fill="#FFFFFF" height="31.291" style="stroke:#181818;stroke-width:1.0;" width="10" x="719" y="197.0762"/><rect fill="#FFFFFF" height="450.4141" style="stroke:#181818;stroke-width:1.0;" width="10" x="781.5" y="322.2402"/><rect fill="#FFFFFF" height="31.291" style="stroke:#181818;stroke-width:1.0;" width="10" x="853" y="579.1992"/><rect fill="#FFFFFF" height="326.541" style="stroke:#181818;stroke-width:1.0;" width="10" x="964.5" y="353.5313"/><rect fill="none" height="474.7051" style="stroke:#000000;stroke-width:1.5;" width="1020.5" x="10" y="368.5313"/><rect fill="none" height="144.4551" style="stroke:#000000;stroke-width:1.5;" width="445.5" x="575" y="505.3262"/><line style="stroke:#181818;stroke-width:0.5;stroke-dasharray:5.0,5.0;" x1="33" x2="33" y1="38.6211" y2="860.2363"/><line style="stroke:#181818;stroke-width:0.5;stroke-dasharray:5.0,5.0;" x1="252" x2="252" y1="38.6211" y2="860.2363"/><line style="stroke:#181818;stroke-width:0.5;stroke-dasharray:5.0,5.0;" x1="365" x2="365" y1="38.6211" y2="860.2363"/><line style="stroke:#181818;stroke-width:0.5;stroke-dasharray:5.0,5.0;" x1="508" x2="508" y1="38.6211" y2="860.2363"/><line style="stroke:#181818;stroke-width:0.5;stroke-dasharray:5.0,5.0;" x1="616" x2="616" y1="38.6211" y2="860.2363"/><line style="stroke:#181818;stroke-width:0.5;stroke-dasharray:5.0,5.0;" x1="724" x2="724" y1="38.6211" y2="860.2363"/><line style="stroke:#181818;stroke-width:0.5;stroke-dasharray:5.0,5.0;" x1="786" x2="786" y1="38.6211" y2="860.2363"/><line style="stroke:#181818;stroke-width:0.5;stroke-dasharray:5.0,5.0;" x1="858" x2="858" y1="38.6211" y2="860.2363"/><line style="stroke:#181818;stroke-width:0.5;stroke-dasharray:5.0,5.0;" x1="969.5" x2="969.5" y1="38.6211" y2="860.2363"/><rect fill="#E2E2F0" height="32.6211" rx="2.5" ry="2.5" style="stroke:#181818;stroke-width:0.5;" width="26" x="20" y="5"/><text fill="#000000" font-family="sans-serif" font-size="14" lengthAdjust="spacing" textLength="12" x="27" y="27.1074">UI</text><rect fill="#E2E2F0" height="32.6211" rx="2.5" ry="2.5" style="stroke:#181818;stroke-width:0.5;" width="26" x="20" y="859.2363"/><text fill="#000000" font-family="sans-serif" font-size="14" lengthAdjust="spacing" textLength="12" x="27" y="881.3438">UI</text><rect fill="#E2E2F0" height="32.6211" rx="2.5" ry="2.5" style="stroke:#181818;stroke-width:0.5;" width="52" x="226" y="5"/><text fill="#000000" font-family="sans-serif" font-size="14" lengthAdjust="spacing" textLength="38" x="233" y="27.1074">Route</text><rect fill="#E2E2F0" height="32.6211" rx="2.5" ry="2.5" style="stroke:#181818;stroke-width:0.5;" width="52" x="226" y="859.2363"/><text fill="#000000" font-family="sans-serif" font-size="14" lengthAdjust="spacing" textLength="38" x="233" y="881.3438">Route</text><rect fill="#E2E2F0" height="32.6211" rx="2.5" ry="2.5" style="stroke:#181818;stroke-width:0.5;" width="76" x="327" y="5"/><text fill="#000000" font-family="sans-serif" font-size="14" lengthAdjust="spacing" textLength="62" x="334" y="27.1074">Controller</text><rect fill="#E2E2F0" height="32.6211" rx="2.5" ry="2.5" style="stroke:#181818;stroke-width:0.5;" width="76" x="327" y="859.2363"/><text fill="#000000" font-family="sans-serif" font-size="14" lengthAdjust="spacing" textLength="62" x="334" y="881.3438">Controller</text><rect fill="#E2E2F0" height="32.6211" rx="2.5" ry="2.5" style="stroke:#181818;stroke-width:0.5;" width="98" x="459" y="5"/><text fill="#000000" font-family="sans-serif" font-size="14" lengthAdjust="spacing" textLength="84" x="466" y="27.1074">CreatingDTO</text><rect fill="#E2E2F0" height="32.6211" rx="2.5" ry="2.5" style="stroke:#181818;stroke-width:0.5;" width="98" x="459" y="859.2363"/><text fill="#000000" font-family="sans-serif" font-size="14" lengthAdjust="spacing" textLength="84" x="466" y="881.3438">CreatingDTO</text><rect fill="#E2E2F0" height="32.6211" rx="2.5" ry="2.5" style="stroke:#181818;stroke-width:0.5;" width="62" x="585" y="5"/><text fill="#000000" font-family="sans-serif" font-size="14" lengthAdjust="spacing" textLength="48" x="592" y="27.1074">Mapper</text><rect fill="#E2E2F0" height="32.6211" rx="2.5" ry="2.5" style="stroke:#181818;stroke-width:0.5;" width="62" x="585" y="859.2363"/><text fill="#000000" font-family="sans-serif" font-size="14" lengthAdjust="spacing" textLength="48" x="592" y="881.3438">Mapper</text><rect fill="#E2E2F0" height="32.6211" rx="2.5" ry="2.5" style="stroke:#181818;stroke-width:0.5;" width="44" x="702" y="5"/><text fill="#000000" font-family="sans-serif" font-size="14" lengthAdjust="spacing" textLength="30" x="709" y="27.1074">DTO</text><rect fill="#E2E2F0" height="32.6211" rx="2.5" ry="2.5" style="stroke:#181818;stroke-width:0.5;" width="44" x="702" y="859.2363"/><text fill="#000000" font-family="sans-serif" font-size="14" lengthAdjust="spacing" textLength="30" x="709" y="881.3438">DTO</text><rect fill="#E2E2F0" height="32.6211" rx="2.5" ry="2.5" style="stroke:#181818;stroke-width:0.5;" width="61" x="756" y="5"/><text fill="#000000" font-family="sans-serif" font-size="14" lengthAdjust="spacing" textLength="47" x="763" y="27.1074">Service</text><rect fill="#E2E2F0" height="32.6211" rx="2.5" ry="2.5" style="stroke:#181818;stroke-width:0.5;" width="61" x="756" y="859.2363"/><text fill="#000000" font-family="sans-serif" font-size="14" lengthAdjust="spacing" textLength="47" x="763" y="881.3438">Service</text><rect fill="#E2E2F0" height="32.6211" rx="2.5" ry="2.5" style="stroke:#181818;stroke-width:0.5;" width="62" x="827" y="5"/><text fill="#000000" font-family="sans-serif" font-size="14" lengthAdjust="spacing" textLength="48" x="834" y="27.1074">Domain</text><rect fill="#E2E2F0" height="32.6211" rx="2.5" ry="2.5" style="stroke:#181818;stroke-width:0.5;" width="62" x="827" y="859.2363"/><text fill="#000000" font-family="sans-serif" font-size="14" lengthAdjust="spacing" textLength="48" x="834" y="881.3438">Domain</text><rect fill="#E2E2F0" height="32.6211" rx="2.5" ry="2.5" style="stroke:#181818;stroke-width:0.5;" width="82" x="928.5" y="5"/><text fill="#000000" font-family="sans-serif" font-size="14" lengthAdjust="spacing" textLength="68" x="935.5" y="27.1074">Repository</text><rect fill="#E2E2F0" height="32.6211" rx="2.5" ry="2.5" style="stroke:#181818;stroke-width:0.5;" width="82" x="928.5" y="859.2363"/><text fill="#000000" font-family="sans-serif" font-size="14" lengthAdjust="spacing" textLength="68" x="935.5" y="881.3438">Repository</text><rect fill="#FFFFFF" height="802.6152" style="stroke:#181818;stroke-width:1.0;" width="10" x="28" y="48.6211"/><rect fill="#FFFFFF" height="779.3242" style="stroke:#181818;stroke-width:1.0;" width="10" x="247" y="71.9121"/><rect fill="#FFFFFF" height="700.7422" style="stroke:#181818;stroke-width:1.0;" width="10" x="360" y="103.2031"/><rect fill="#FFFFFF" height="156.4551" style="stroke:#181818;stroke-width:1.0;" width="10" x="503" y="134.4941"/><rect fill="#FFFFFF" height="93.873" style="stroke:#181818;stroke-width:1.0;" width="10" x="611" y="165.7852"/><rect fill="#FFFFFF" height="93.873" style="stroke:#181818;stroke-width:1.0;" width="10" x="611" y="547.9082"/><rect fill="#FFFFFF" height="30" style="stroke:#181818;stroke-width:1.0;" width="10" x="611" y="711.3633"/><rect fill="#FFFFFF" height="31.291" style="stroke:#181818;stroke-width:1.0;" width="10" x="719" y="197.0762"/><rect fill="#FFFFFF" height="450.4141" style="stroke:#181818;stroke-width:1.0;" width="10" x="781.5" y="322.2402"/><rect fill="#FFFFFF" height="31.291" style="stroke:#181818;stroke-width:1.0;" width="10" x="853" y="579.1992"/><rect fill="#FFFFFF" height="326.541" style="stroke:#181818;stroke-width:1.0;" width="10" x="964.5" y="353.5313"/><polygon fill="#181818" points="235,67.9121,245,71.9121,235,75.9121,239,71.9121" style="stroke:#181818;stroke-width:1.0;"/><line style="stroke:#181818;stroke-width:1.0;" x1="38" x2="241" y1="71.9121" y2="71.9121"/><text fill="#000000" font-family="sans-serif" font-size="13" font-weight="bold" lengthAdjust="spacing" textLength="7" x="45" y="66.6494">1</text><text fill="#000000" font-family="sans-serif" font-size="13" lengthAdjust="spacing" textLength="179" x="56" y="66.6494">get('/api/elevador/listByBuilding)</text><polygon fill="#181818" points="348,99.2031,358,103.2031,348,107.2031,352,103.2031" style="stroke:#181818;stroke-width:1.0;"/><line style="stroke:#181818;stroke-width:1.0;" x1="257" x2="354" y1="103.2031" y2="103.2031"/><text fill="#000000" font-family="sans-serif" font-size="13" font-weight="bold" lengthAdjust="spacing" textLength="7" x="264" y="97.9404">2</text><text fill="#000000" font-family="sans-serif" font-size="13" lengthAdjust="spacing" textLength="18" x="275" y="97.9404">get</text><polygon fill="#181818" points="491,130.4941,501,134.4941,491,138.4941,495,134.4941" style="stroke:#181818;stroke-width:1.0;"/><line style="stroke:#181818;stroke-width:1.0;" x1="370" x2="497" y1="134.4941" y2="134.4941"/><text fill="#000000" font-family="sans-serif" font-size="13" font-weight="bold" lengthAdjust="spacing" textLength="7" x="377" y="129.2314">3</text><text fill="#000000" font-family="sans-serif" font-size="13" lengthAdjust="spacing" textLength="103" x="388" y="129.2314">receives body info</text><polygon fill="#181818" points="599,161.7852,609,165.7852,599,169.7852,603,165.7852" style="stroke:#181818;stroke-width:1.0;"/><line style="stroke:#181818;stroke-width:1.0;" x1="513" x2="605" y1="165.7852" y2="165.7852"/><text fill="#000000" font-family="sans-serif" font-size="13" font-weight="bold" lengthAdjust="spacing" textLength="7" x="520" y="160.5225">4</text><text fill="#000000" font-family="sans-serif" font-size="13" lengthAdjust="spacing" textLength="40" x="531" y="160.5225">ToDTO</text><polygon fill="#181818" points="707,193.0762,717,197.0762,707,201.0762,711,197.0762" style="stroke:#181818;stroke-width:1.0;"/><line style="stroke:#181818;stroke-width:1.0;" x1="621" x2="713" y1="197.0762" y2="197.0762"/><text fill="#000000" font-family="sans-serif" font-size="13" font-weight="bold" lengthAdjust="spacing" textLength="7" x="628" y="191.8135">5</text><text fill="#000000" font-family="sans-serif" font-size="13" lengthAdjust="spacing" textLength="53" x="639" y="191.8135">new DTO</text><polygon fill="#181818" points="632,224.3672,622,228.3672,632,232.3672,628,228.3672" style="stroke:#181818;stroke-width:1.0;"/><line style="stroke:#181818;stroke-width:1.0;" x1="626" x2="723" y1="228.3672" y2="228.3672"/><text fill="#000000" font-family="sans-serif" font-size="13" font-weight="bold" lengthAdjust="spacing" textLength="7" x="638" y="223.1045">6</text><text fill="#000000" font-family="sans-serif" font-size="13" lengthAdjust="spacing" textLength="63" x="649" y="223.1045">return DTO</text><polygon fill="#181818" points="524,255.6582,514,259.6582,524,263.6582,520,259.6582" style="stroke:#181818;stroke-width:1.0;"/><line style="stroke:#181818;stroke-width:1.0;" x1="518" x2="615" y1="259.6582" y2="259.6582"/><text fill="#000000" font-family="sans-serif" font-size="13" font-weight="bold" lengthAdjust="spacing" textLength="7" x="530" y="254.3955">7</text><text fill="#000000" font-family="sans-serif" font-size="13" lengthAdjust="spacing" textLength="63" x="541" y="254.3955">return DTO</text><polygon fill="#181818" points="381,286.9492,371,290.9492,381,294.9492,377,290.9492" style="stroke:#181818;stroke-width:1.0;"/><line style="stroke:#181818;stroke-width:1.0;" x1="375" x2="507" y1="290.9492" y2="290.9492"/><text fill="#000000" font-family="sans-serif" font-size="13" font-weight="bold" lengthAdjust="spacing" textLength="7" x="387" y="285.6865">8</text><text fill="#000000" font-family="sans-serif" font-size="13" lengthAdjust="spacing" textLength="63" x="398" y="285.6865">return DTO</text><polygon fill="#181818" points="769.5,318.2402,779.5,322.2402,769.5,326.2402,773.5,322.2402" style="stroke:#181818;stroke-width:1.0;"/><line style="stroke:#181818;stroke-width:1.0;" x1="370" x2="775.5" y1="322.2402" y2="322.2402"/><text fill="#000000" font-family="sans-serif" font-size="13" font-weight="bold" lengthAdjust="spacing" textLength="7" x="377" y="316.9775">9</text><text fill="#000000" font-family="sans-serif" font-size="13" lengthAdjust="spacing" textLength="128" x="388" y="316.9775">function call to service</text><polygon fill="#181818" points="952.5,349.5313,962.5,353.5313,952.5,357.5313,956.5,353.5313" style="stroke:#181818;stroke-width:1.0;"/><line style="stroke:#181818;stroke-width:1.0;" x1="791.5" x2="958.5" y1="353.5313" y2="353.5313"/><text fill="#000000" font-family="sans-serif" font-size="13" font-weight="bold" lengthAdjust="spacing" textLength="14" x="798.5" y="348.2686">10</text><text fill="#000000" font-family="sans-serif" font-size="13" lengthAdjust="spacing" textLength="136" x="816.5" y="348.2686">findByBuildingId(building)</text><path d="M10,368.5313 L71,368.5313 L71,377.8223 L61,387.8223 L10,387.8223 L10,368.5313 " fill="#EEEEEE" style="stroke:#000000;stroke-width:1.5;"/><rect fill="none" height="474.7051" style="stroke:#000000;stroke-width:1.5;" width="1020.5" x="10" y="368.5313"/><text fill="#000000" font-family="sans-serif" font-size="13" font-weight="bold" lengthAdjust="spacing" textLength="16" x="25" y="383.5596">alt</text><text fill="#000000" font-family="sans-serif" font-size="11" font-weight="bold" lengthAdjust="spacing" textLength="130" x="86" y="382.4014">[building does not exist]</text><polygon fill="#181818" points="802.5,407.1133,792.5,411.1133,802.5,415.1133,798.5,411.1133" style="stroke:#181818;stroke-width:1.0;"/><line style="stroke:#181818;stroke-width:1.0;" x1="796.5" x2="963.5" y1="411.1133" y2="411.1133"/><text fill="#000000" font-family="sans-serif" font-size="13" font-weight="bold" lengthAdjust="spacing" textLength="14" x="808.5" y="405.8506">11</text><text fill="#000000" font-family="sans-serif" font-size="13" lengthAdjust="spacing" textLength="57" x="826.5" y="405.8506">return null</text><polygon fill="#181818" points="268,438.4043,258,442.4043,268,446.4043,264,442.4043" style="stroke:#181818;stroke-width:1.0;"/><line style="stroke:#181818;stroke-width:1.0;" x1="262" x2="359" y1="442.4043" y2="442.4043"/><text fill="#000000" font-family="sans-serif" font-size="13" font-weight="bold" lengthAdjust="spacing" textLength="14" x="274" y="437.1416">12</text><text fill="#000000" font-family="sans-serif" font-size="13" lengthAdjust="spacing" textLength="61" x="292" y="437.1416">status 404</text><polygon fill="#181818" points="49,469.6953,39,473.6953,49,477.6953,45,473.6953" style="stroke:#181818;stroke-width:1.0;"/><line style="stroke:#181818;stroke-width:1.0;" x1="43" x2="246" y1="473.6953" y2="473.6953"/><text fill="#000000" font-family="sans-serif" font-size="13" font-weight="bold" lengthAdjust="spacing" textLength="14" x="55" y="468.4326">13</text><text fill="#000000" font-family="sans-serif" font-size="13" lengthAdjust="spacing" textLength="83" x="73" y="468.4326">error message</text><line style="stroke:#000000;stroke-width:1.0;stroke-dasharray:2.0,2.0;" x1="10" x2="1030.5" y1="482.6953" y2="482.6953"/><text fill="#000000" font-family="sans-serif" font-size="11" font-weight="bold" lengthAdjust="spacing" textLength="83" x="15" y="494.5654">[building != null]</text><path d="M575,505.3262 L648,505.3262 L648,514.6172 L638,524.6172 L575,524.6172 L575,505.3262 " fill="#EEEEEE" style="stroke:#000000;stroke-width:1.5;"/><rect fill="none" height="144.4551" style="stroke:#000000;stroke-width:1.5;" width="445.5" x="575" y="505.3262"/><text fill="#000000" font-family="sans-serif" font-size="13" font-weight="bold" lengthAdjust="spacing" textLength="28" x="590" y="520.3545">loop</text><text fill="#000000" font-family="sans-serif" font-size="11" font-weight="bold" lengthAdjust="spacing" textLength="141" x="663" y="519.1963">[each elevador in building]</text><polygon fill="#181818" points="632,543.9082,622,547.9082,632,551.9082,628,547.9082" style="stroke:#181818;stroke-width:1.0;"/><line style="stroke:#181818;stroke-width:1.0;" x1="626" x2="963.5" y1="547.9082" y2="547.9082"/><text fill="#000000" font-family="sans-serif" font-size="13" font-weight="bold" lengthAdjust="spacing" textLength="14" x="638" y="542.6455">14</text><text fill="#000000" font-family="sans-serif" font-size="13" lengthAdjust="spacing" textLength="55" x="656" y="542.6455">toDomain</text><polygon fill="#181818" points="841,575.1992,851,579.1992,841,583.1992,845,579.1992" style="stroke:#181818;stroke-width:1.0;"/><line style="stroke:#181818;stroke-width:1.0;" x1="621" x2="847" y1="579.1992" y2="579.1992"/><text fill="#000000" font-family="sans-serif" font-size="13" font-weight="bold" lengthAdjust="spacing" textLength="14" x="628" y="573.9365">15</text><text fill="#000000" font-family="sans-serif" font-size="13" lengthAdjust="spacing" textLength="44" x="646" y="573.9365">create()</text><polygon fill="#181818" points="632,606.4902,622,610.4902,632,614.4902,628,610.4902" style="stroke:#181818;stroke-width:1.0;"/><line style="stroke:#181818;stroke-width:1.0;" x1="626" x2="857" y1="610.4902" y2="610.4902"/><text fill="#000000" font-family="sans-serif" font-size="13" font-weight="bold" lengthAdjust="spacing" textLength="14" x="638" y="605.2275">16</text><text fill="#000000" font-family="sans-serif" font-size="13" lengthAdjust="spacing" textLength="75" x="656" y="605.2275">return Object</text><polygon fill="#181818" points="952.5,637.7813,962.5,641.7813,952.5,645.7813,956.5,641.7813" style="stroke:#181818;stroke-width:1.0;"/><line style="stroke:#181818;stroke-width:1.0;" x1="616" x2="958.5" y1="641.7813" y2="641.7813"/><text fill="#000000" font-family="sans-serif" font-size="13" font-weight="bold" lengthAdjust="spacing" textLength="14" x="623" y="636.5186">17</text><text fill="#000000" font-family="sans-serif" font-size="13" lengthAdjust="spacing" textLength="75" x="641" y="636.5186">return Object</text><polygon fill="#181818" points="802.5,676.0723,792.5,680.0723,802.5,684.0723,798.5,680.0723" style="stroke:#181818;stroke-width:1.0;"/><line style="stroke:#181818;stroke-width:1.0;" x1="796.5" x2="968.5" y1="680.0723" y2="680.0723"/><text fill="#000000" font-family="sans-serif" font-size="13" font-weight="bold" lengthAdjust="spacing" textLength="14" x="808.5" y="674.8096">18</text><text fill="#000000" font-family="sans-serif" font-size="13" lengthAdjust="spacing" textLength="117" x="826.5" y="674.8096">return list of Objects</text><polygon fill="#181818" points="632,707.3633,622,711.3633,632,715.3633,628,711.3633" style="stroke:#181818;stroke-width:1.0;"/><line style="stroke:#181818;stroke-width:1.0;" x1="626" x2="780.5" y1="711.3633" y2="711.3633"/><text fill="#000000" font-family="sans-serif" font-size="13" font-weight="bold" lengthAdjust="spacing" textLength="14" x="638" y="706.1006">19</text><text fill="#000000" font-family="sans-serif" font-size="13" lengthAdjust="spacing" textLength="62" x="656" y="706.1006">toDTO(list)</text><polygon fill="#181818" points="381,768.6543,371,772.6543,381,776.6543,377,772.6543" style="stroke:#181818;stroke-width:1.0;"/><line style="stroke:#181818;stroke-width:1.0;" x1="375" x2="785.5" y1="772.6543" y2="772.6543"/><text fill="#000000" font-family="sans-serif" font-size="13" font-weight="bold" lengthAdjust="spacing" textLength="14" x="387" y="767.3916">20</text><text fill="#000000" font-family="sans-serif" font-size="13" lengthAdjust="spacing" textLength="98" x="405" y="767.3916">return list of DTO</text><polygon fill="#181818" points="268,799.9453,258,803.9453,268,807.9453,264,803.9453" style="stroke:#181818;stroke-width:1.0;"/><line style="stroke:#181818;stroke-width:1.0;" x1="262" x2="364" y1="803.9453" y2="803.9453"/><text fill="#000000" font-family="sans-serif" font-size="13" font-weight="bold" lengthAdjust="spacing" textLength="14" x="274" y="798.6826">21</text><text fill="#000000" font-family="sans-serif" font-size="13" lengthAdjust="spacing" textLength="61" x="292" y="798.6826">status 201</text><polygon fill="#181818" points="49,831.2363,39,835.2363,49,839.2363,45,835.2363" style="stroke:#181818;stroke-width:1.0;"/><line style="stroke:#181818;stroke-width:1.0;" x1="43" x2="246" y1="835.2363" y2="835.2363"/><text fill="#000000" font-family="sans-serif" font-size="13" font-weight="bold" lengthAdjust="spacing" textLength="14" x="55" y="829.9736">22</text><text fill="#000000" font-family="sans-serif" font-size="13" lengthAdjust="spacing" textLength="106" x="73" y="829.9736">success message</text><!--SRC=[TLFBRjim4BppApQdE8TKQP6JWVHG9OSS10EIym4qjNPOK5o53xV- -ombsHOTvo91EpFxcjNjUmYzNnP5RwGDiJC_57M5nu-8Lk5zg-NEoKu86GFPs6tG2T5B5xJIFGlWxHMavsSMh2a6X0JKMRma6nmPWovXPOuvb47RtVDwDO3ypl1AzlsegxBunB-aD-ZsMc62cfnFdTHsaEGzOqzU1tA7eM_-4Zor2delUHOUKF2ezx-XXYNiC2nk2zdh0WtkPKkkCDg7FuUNLcyv8TtDfBKGTHAMet26b4AK0v9cM893XNgF7ZRK7a3RBSsvQK0nC5bHCNrDG-Z4g8Ie4ZOci_WFSdpuckaTXkZi66unfrLPMrTvrRcRydlMr7PYDSpQHii8ML3I60W4VhHfrcOZH3FicHr82ctRyrvVsmLUMt5oIve0Hn1QuZrQuiX_DeQT7D9DNKozscZCr5iorGSPeeV7XyVHBxPx2UWSEUZGUxdZBj5uF1UvUPfo6A8UUEXtEDu3stVYdOkdjGSQBr1SiuvnbVu3NCp7UsRVBbnRRVwY2hbnOieoRUvx9fT3sqBg-kfYqYq3RIUfpxJZZz7Cfbcl5abmby-Jb_kQ83-ROyNBysc- -lFhuMT-OM9cbuzAiLSdmzAOV1VY4m00]--></g></svg>