<?xml version="1.0" encoding="us-ascii" standalone="no"?><svg xmlns="http://www.w3.org/2000/svg" xmlns:xlink="http://www.w3.org/1999/xlink" contentStyleType="text/css" height="1275px" preserveAspectRatio="none" style="width:1214px;height:1275px;background:#FFFFFF;" version="1.1" viewBox="0 0 1214 1275" width="1214px" zoomAndPan="magnify"><defs/><g><rect fill="#FFFFFF" height="1089.6035" style="stroke:#181818;stroke-width:1.0;" width="10" x="17.5" y="93.6211"/><rect fill="#FFFFFF" height="513.6563" style="stroke:#181818;stroke-width:1.0;" width="10" x="221.5" y="116.9121"/><rect fill="#FFFFFF" height="521.3652" style="stroke:#181818;stroke-width:1.0;" width="10" x="221.5" y="661.8594"/><rect fill="#FFFFFF" height="451.0742" style="stroke:#181818;stroke-width:1.0;" width="10" x="392.5" y="148.2031"/><rect fill="#FFFFFF" height="449.7832" style="stroke:#181818;stroke-width:1.0;" width="10" x="392.5" y="693.1504"/><rect fill="#FFFFFF" height="325.9102" style="stroke:#181818;stroke-width:1.0;" width="10" x="560.5" y="242.0762"/><rect fill="#FFFFFF" height="387.2012" style="stroke:#181818;stroke-width:1.0;" width="10" x="560.5" y="724.4414"/><rect fill="#FFFFFF" height="31.291" style="stroke:#181818;stroke-width:1.0;" width="10" x="675.5" y="179.4941"/><rect fill="#FFFFFF" height="263.3281" style="stroke:#181818;stroke-width:1.0;" width="10" x="783" y="273.3672"/><rect fill="#FFFFFF" height="324.6191" style="stroke:#181818;stroke-width:1.0;" width="10" x="783" y="755.7324"/><rect fill="#FFFFFF" height="200.7461" style="stroke:#181818;stroke-width:1.0;" width="10" x="921" y="304.6582"/><rect fill="#FFFFFF" height="262.0371" style="stroke:#181818;stroke-width:1.0;" width="10" x="921" y="787.0234"/><rect fill="#FFFFFF" height="93.873" style="stroke:#181818;stroke-width:1.0;" width="10" x="1086" y="380.2402"/><rect fill="#FFFFFF" height="93.873" style="stroke:#181818;stroke-width:1.0;" width="10" x="1086" y="862.6055"/><rect fill="#FFFFFF" height="31.291" style="stroke:#181818;stroke-width:1.0;" width="10" x="1182" y="411.5313"/><rect fill="#FFFFFF" height="31.291" style="stroke:#181818;stroke-width:1.0;" width="10" x="1182" y="893.8965"/><rect fill="#FFFFFF" height="30" style="stroke:#181818;stroke-width:1.0;" width="10" x="1182" y="987.7695"/><line style="stroke:#181818;stroke-width:0.5;stroke-dasharray:5.0,5.0;" x1="22" x2="22" y1="83.6211" y2="1192.2246"/><line style="stroke:#181818;stroke-width:0.5;stroke-dasharray:5.0,5.0;" x1="226" x2="226" y1="83.6211" y2="1192.2246"/><line style="stroke:#181818;stroke-width:0.5;stroke-dasharray:5.0,5.0;" x1="397" x2="397" y1="83.6211" y2="1192.2246"/><line style="stroke:#181818;stroke-width:0.5;stroke-dasharray:5.0,5.0;" x1="565.5" x2="565.5" y1="83.6211" y2="1192.2246"/><line style="stroke:#181818;stroke-width:0.5;stroke-dasharray:5.0,5.0;" x1="680.5" x2="680.5" y1="83.6211" y2="1192.2246"/><line style="stroke:#181818;stroke-width:0.5;stroke-dasharray:5.0,5.0;" x1="787.5" x2="787.5" y1="83.6211" y2="1192.2246"/><line style="stroke:#181818;stroke-width:0.5;stroke-dasharray:5.0,5.0;" x1="926" x2="926" y1="83.6211" y2="1192.2246"/><line style="stroke:#181818;stroke-width:0.5;stroke-dasharray:5.0,5.0;" x1="1090.5" x2="1090.5" y1="83.6211" y2="1192.2246"/><line style="stroke:#181818;stroke-width:0.5;stroke-dasharray:5.0,5.0;" x1="1186.5" x2="1186.5" y1="83.6211" y2="1192.2246"/><text fill="#000000" font-family="sans-serif" font-size="14" lengthAdjust="spacing" textLength="29" x="5" y="80.1074">User</text><ellipse cx="22.5" cy="13.5" fill="#E2E2F0" rx="8" ry="8" style="stroke:#181818;stroke-width:0.5;"/><path d="M22.5,21.5 L22.5,48.5 M9.5,29.5 L35.5,29.5 M22.5,48.5 L9.5,63.5 M22.5,48.5 L35.5,63.5 " fill="none" style="stroke:#181818;stroke-width:0.5;"/><text fill="#000000" font-family="sans-serif" font-size="14" lengthAdjust="spacing" textLength="29" x="5" y="1206.332">User</text><ellipse cx="22.5" cy="1218.3457" fill="#E2E2F0" rx="8" ry="8" style="stroke:#181818;stroke-width:0.5;"/><path d="M22.5,1226.3457 L22.5,1253.3457 M9.5,1234.3457 L35.5,1234.3457 M22.5,1253.3457 L9.5,1268.3457 M22.5,1253.3457 L35.5,1268.3457 " fill="none" style="stroke:#181818;stroke-width:0.5;"/><rect fill="#E2E2F0" height="32.6211" rx="2.5" ry="2.5" style="stroke:#181818;stroke-width:0.5;" width="43" x="205" y="50"/><text fill="#000000" font-family="sans-serif" font-size="14" lengthAdjust="spacing" textLength="29" x="212" y="72.1074">View</text><rect fill="#E2E2F0" height="32.6211" rx="2.5" ry="2.5" style="stroke:#181818;stroke-width:0.5;" width="43" x="205" y="1191.2246"/><text fill="#000000" font-family="sans-serif" font-size="14" lengthAdjust="spacing" textLength="29" x="212" y="1213.332">View</text><rect fill="#E2E2F0" height="32.6211" rx="2.5" ry="2.5" style="stroke:#181818;stroke-width:0.5;" width="87" x="354" y="50"/><text fill="#000000" font-family="sans-serif" font-size="14" lengthAdjust="spacing" textLength="73" x="361" y="72.1074">Component</text><rect fill="#E2E2F0" height="32.6211" rx="2.5" ry="2.5" style="stroke:#181818;stroke-width:0.5;" width="87" x="354" y="1191.2246"/><text fill="#000000" font-family="sans-serif" font-size="14" lengthAdjust="spacing" textLength="73" x="361" y="1213.332">Component</text><rect fill="#E2E2F0" height="32.6211" rx="2.5" ry="2.5" style="stroke:#181818;stroke-width:0.5;" width="120" x="505.5" y="50"/><text fill="#000000" font-family="sans-serif" font-size="14" lengthAdjust="spacing" textLength="106" x="512.5" y="72.1074">FrontEndService</text><rect fill="#E2E2F0" height="32.6211" rx="2.5" ry="2.5" style="stroke:#181818;stroke-width:0.5;" width="120" x="505.5" y="1191.2246"/><text fill="#000000" font-family="sans-serif" font-size="14" lengthAdjust="spacing" textLength="106" x="512.5" y="1213.332">FrontEndService</text><rect fill="#E2E2F0" height="32.6211" rx="2.5" ry="2.5" style="stroke:#181818;stroke-width:0.5;" width="90" x="635.5" y="50"/><text fill="#000000" font-family="sans-serif" font-size="14" lengthAdjust="spacing" textLength="76" x="642.5" y="72.1074">AuthService</text><rect fill="#E2E2F0" height="32.6211" rx="2.5" ry="2.5" style="stroke:#181818;stroke-width:0.5;" width="90" x="635.5" y="1191.2246"/><text fill="#000000" font-family="sans-serif" font-size="14" lengthAdjust="spacing" textLength="76" x="642.5" y="1213.332">AuthService</text><rect fill="#E2E2F0" height="32.6211" rx="2.5" ry="2.5" style="stroke:#181818;stroke-width:0.5;" width="105" x="735.5" y="50"/><text fill="#000000" font-family="sans-serif" font-size="14" lengthAdjust="spacing" textLength="91" x="742.5" y="72.1074">UserController</text><rect fill="#E2E2F0" height="32.6211" rx="2.5" ry="2.5" style="stroke:#181818;stroke-width:0.5;" width="105" x="735.5" y="1191.2246"/><text fill="#000000" font-family="sans-serif" font-size="14" lengthAdjust="spacing" textLength="91" x="742.5" y="1213.332">UserController</text><rect fill="#E2E2F0" height="32.6211" rx="2.5" ry="2.5" style="stroke:#181818;stroke-width:0.5;" width="90" x="881" y="50"/><text fill="#000000" font-family="sans-serif" font-size="14" lengthAdjust="spacing" textLength="76" x="888" y="72.1074">UserService</text><rect fill="#E2E2F0" height="32.6211" rx="2.5" ry="2.5" style="stroke:#181818;stroke-width:0.5;" width="90" x="881" y="1191.2246"/><text fill="#000000" font-family="sans-serif" font-size="14" lengthAdjust="spacing" textLength="76" x="888" y="1213.332">UserService</text><rect fill="#E2E2F0" height="32.6211" rx="2.5" ry="2.5" style="stroke:#181818;stroke-width:0.5;" width="111" x="1035.5" y="50"/><text fill="#000000" font-family="sans-serif" font-size="14" lengthAdjust="spacing" textLength="97" x="1042.5" y="72.1074">UserRepository</text><rect fill="#E2E2F0" height="32.6211" rx="2.5" ry="2.5" style="stroke:#181818;stroke-width:0.5;" width="111" x="1035.5" y="1191.2246"/><text fill="#000000" font-family="sans-serif" font-size="14" lengthAdjust="spacing" textLength="97" x="1042.5" y="1213.332">UserRepository</text><rect fill="#E2E2F0" height="32.6211" rx="2.5" ry="2.5" style="stroke:#181818;stroke-width:0.5;" width="43" x="1165.5" y="50"/><text fill="#000000" font-family="sans-serif" font-size="14" lengthAdjust="spacing" textLength="29" x="1172.5" y="72.1074">User</text><rect fill="#E2E2F0" height="32.6211" rx="2.5" ry="2.5" style="stroke:#181818;stroke-width:0.5;" width="43" x="1165.5" y="1191.2246"/><text fill="#000000" font-family="sans-serif" font-size="14" lengthAdjust="spacing" textLength="29" x="1172.5" y="1213.332">User</text><rect fill="#FFFFFF" height="1089.6035" style="stroke:#181818;stroke-width:1.0;" width="10" x="17.5" y="93.6211"/><rect fill="#FFFFFF" height="513.6563" style="stroke:#181818;stroke-width:1.0;" width="10" x="221.5" y="116.9121"/><rect fill="#FFFFFF" height="521.3652" style="stroke:#181818;stroke-width:1.0;" width="10" x="221.5" y="661.8594"/><rect fill="#FFFFFF" height="451.0742" style="stroke:#181818;stroke-width:1.0;" width="10" x="392.5" y="148.2031"/><rect fill="#FFFFFF" height="449.7832" style="stroke:#181818;stroke-width:1.0;" width="10" x="392.5" y="693.1504"/><rect fill="#FFFFFF" height="325.9102" style="stroke:#181818;stroke-width:1.0;" width="10" x="560.5" y="242.0762"/><rect fill="#FFFFFF" height="387.2012" style="stroke:#181818;stroke-width:1.0;" width="10" x="560.5" y="724.4414"/><rect fill="#FFFFFF" height="31.291" style="stroke:#181818;stroke-width:1.0;" width="10" x="675.5" y="179.4941"/><rect fill="#FFFFFF" height="263.3281" style="stroke:#181818;stroke-width:1.0;" width="10" x="783" y="273.3672"/><rect fill="#FFFFFF" height="324.6191" style="stroke:#181818;stroke-width:1.0;" width="10" x="783" y="755.7324"/><rect fill="#FFFFFF" height="200.7461" style="stroke:#181818;stroke-width:1.0;" width="10" x="921" y="304.6582"/><rect fill="#FFFFFF" height="262.0371" style="stroke:#181818;stroke-width:1.0;" width="10" x="921" y="787.0234"/><rect fill="#FFFFFF" height="93.873" style="stroke:#181818;stroke-width:1.0;" width="10" x="1086" y="380.2402"/><rect fill="#FFFFFF" height="93.873" style="stroke:#181818;stroke-width:1.0;" width="10" x="1086" y="862.6055"/><rect fill="#FFFFFF" height="31.291" style="stroke:#181818;stroke-width:1.0;" width="10" x="1182" y="411.5313"/><rect fill="#FFFFFF" height="31.291" style="stroke:#181818;stroke-width:1.0;" width="10" x="1182" y="893.8965"/><rect fill="#FFFFFF" height="30" style="stroke:#181818;stroke-width:1.0;" width="10" x="1182" y="987.7695"/><polygon fill="#181818" points="209.5,112.9121,219.5,116.9121,209.5,120.9121,213.5,116.9121" style="stroke:#181818;stroke-width:1.0;"/><line style="stroke:#181818;stroke-width:1.0;" x1="27.5" x2="215.5" y1="116.9121" y2="116.9121"/><text fill="#000000" font-family="sans-serif" font-size="13" lengthAdjust="spacing" textLength="175" x="34.5" y="111.6494">requests to update their profile</text><polygon fill="#181818" points="380.5,144.2031,390.5,148.2031,380.5,152.2031,384.5,148.2031" style="stroke:#181818;stroke-width:1.0;"/><line style="stroke:#181818;stroke-width:1.0;" x1="231.5" x2="386.5" y1="148.2031" y2="148.2031"/><text fill="#000000" font-family="sans-serif" font-size="13" lengthAdjust="spacing" textLength="76" x="238.5" y="142.9404">get user data</text><polygon fill="#181818" points="663.5,175.4941,673.5,179.4941,663.5,183.4941,667.5,179.4941" style="stroke:#181818;stroke-width:1.0;"/><line style="stroke:#181818;stroke-width:1.0;" x1="402.5" x2="669.5" y1="179.4941" y2="179.4941"/><text fill="#000000" font-family="sans-serif" font-size="13" lengthAdjust="spacing" textLength="54" x="409.5" y="174.2314">get token</text><polygon fill="#181818" points="413.5,206.7852,403.5,210.7852,413.5,214.7852,409.5,210.7852" style="stroke:#181818;stroke-width:1.0;"/><line style="stroke:#181818;stroke-width:1.0;" x1="407.5" x2="679.5" y1="210.7852" y2="210.7852"/><text fill="#000000" font-family="sans-serif" font-size="13" lengthAdjust="spacing" textLength="32" x="419.5" y="205.5225">token</text><polygon fill="#181818" points="548.5,238.0762,558.5,242.0762,548.5,246.0762,552.5,242.0762" style="stroke:#181818;stroke-width:1.0;"/><line style="stroke:#181818;stroke-width:1.0;" x1="402.5" x2="554.5" y1="242.0762" y2="242.0762"/><text fill="#000000" font-family="sans-serif" font-size="13" lengthAdjust="spacing" textLength="85" x="409.5" y="236.8135">getUser(token)</text><polygon fill="#181818" points="771,269.3672,781,273.3672,771,277.3672,775,273.3672" style="stroke:#181818;stroke-width:1.0;"/><line style="stroke:#181818;stroke-width:1.0;" x1="570.5" x2="777" y1="273.3672" y2="273.3672"/><text fill="#000000" font-family="sans-serif" font-size="13" lengthAdjust="spacing" textLength="85" x="577.5" y="268.1045">getUser(token)</text><polygon fill="#181818" points="909,300.6582,919,304.6582,909,308.6582,913,304.6582" style="stroke:#181818;stroke-width:1.0;"/><line style="stroke:#181818;stroke-width:1.0;" x1="793" x2="915" y1="304.6582" y2="304.6582"/><text fill="#000000" font-family="sans-serif" font-size="13" lengthAdjust="spacing" textLength="109" x="800" y="299.3955">getByToken(token)</text><line style="stroke:#181818;stroke-width:1.0;" x1="931" x2="973" y1="335.9492" y2="335.9492"/><line style="stroke:#181818;stroke-width:1.0;" x1="973" x2="973" y1="335.9492" y2="348.9492"/><line style="stroke:#181818;stroke-width:1.0;" x1="932" x2="973" y1="348.9492" y2="348.9492"/><polygon fill="#181818" points="942,344.9492,932,348.9492,942,352.9492,938,348.9492" style="stroke:#181818;stroke-width:1.0;"/><text fill="#000000" font-family="sans-serif" font-size="13" lengthAdjust="spacing" textLength="141" x="938" y="330.6865">decodeJWTEmail(token)</text><polygon fill="#181818" points="1074,376.2402,1084,380.2402,1074,384.2402,1078,380.2402" style="stroke:#181818;stroke-width:1.0;"/><line style="stroke:#181818;stroke-width:1.0;" x1="931" x2="1080" y1="380.2402" y2="380.2402"/><text fill="#000000" font-family="sans-serif" font-size="13" lengthAdjust="spacing" textLength="106" x="938" y="374.9775">getByEmail(email)</text><polygon fill="#181818" points="1170,407.5313,1180,411.5313,1170,415.5313,1174,411.5313" style="stroke:#181818;stroke-width:1.0;"/><line style="stroke:#181818;stroke-width:1.0;" x1="1096" x2="1176" y1="411.5313" y2="411.5313"/><text fill="#000000" font-family="sans-serif" font-size="13" lengthAdjust="spacing" textLength="67" x="1103" y="406.2686">query email</text><polygon fill="#181818" points="1107,438.8223,1097,442.8223,1107,446.8223,1103,442.8223" style="stroke:#181818;stroke-width:1.0;"/><line style="stroke:#181818;stroke-width:1.0;" x1="1101" x2="1186" y1="442.8223" y2="442.8223"/><text fill="#000000" font-family="sans-serif" font-size="13" lengthAdjust="spacing" textLength="25" x="1113" y="437.5596">user</text><polygon fill="#181818" points="942,470.1133,932,474.1133,942,478.1133,938,474.1133" style="stroke:#181818;stroke-width:1.0;"/><line style="stroke:#181818;stroke-width:1.0;" x1="936" x2="1090" y1="474.1133" y2="474.1133"/><text fill="#000000" font-family="sans-serif" font-size="13" lengthAdjust="spacing" textLength="25" x="948" y="468.8506">user</text><polygon fill="#181818" points="804,501.4043,794,505.4043,804,509.4043,800,505.4043" style="stroke:#181818;stroke-width:1.0;"/><line style="stroke:#181818;stroke-width:1.0;" x1="798" x2="925" y1="505.4043" y2="505.4043"/><text fill="#000000" font-family="sans-serif" font-size="13" lengthAdjust="spacing" textLength="43" x="810" y="500.1416">userdto</text><polygon fill="#181818" points="581.5,532.6953,571.5,536.6953,581.5,540.6953,577.5,536.6953" style="stroke:#181818;stroke-width:1.0;"/><line style="stroke:#181818;stroke-width:1.0;" x1="575.5" x2="787" y1="536.6953" y2="536.6953"/><text fill="#000000" font-family="sans-serif" font-size="13" lengthAdjust="spacing" textLength="43" x="587.5" y="531.4326">userdto</text><polygon fill="#181818" points="413.5,563.9863,403.5,567.9863,413.5,571.9863,409.5,567.9863" style="stroke:#181818;stroke-width:1.0;"/><line style="stroke:#181818;stroke-width:1.0;" x1="407.5" x2="564.5" y1="567.9863" y2="567.9863"/><text fill="#000000" font-family="sans-serif" font-size="13" lengthAdjust="spacing" textLength="25" x="419.5" y="562.7236">user</text><polygon fill="#181818" points="242.5,595.2773,232.5,599.2773,242.5,603.2773,238.5,599.2773" style="stroke:#181818;stroke-width:1.0;"/><line style="stroke:#181818;stroke-width:1.0;" x1="236.5" x2="396.5" y1="599.2773" y2="599.2773"/><text fill="#000000" font-family="sans-serif" font-size="13" lengthAdjust="spacing" textLength="137" x="248.5" y="594.0146">display user information</text><polygon fill="#181818" points="38.5,626.5684,28.5,630.5684,38.5,634.5684,34.5,630.5684" style="stroke:#181818;stroke-width:1.0;"/><line style="stroke:#181818;stroke-width:1.0;" x1="32.5" x2="225.5" y1="630.5684" y2="630.5684"/><text fill="#000000" font-family="sans-serif" font-size="13" lengthAdjust="spacing" textLength="133" x="44.5" y="625.3057">shows user information</text><polygon fill="#181818" points="209.5,657.8594,219.5,661.8594,209.5,665.8594,213.5,661.8594" style="stroke:#181818;stroke-width:1.0;"/><line style="stroke:#181818;stroke-width:1.0;" x1="27.5" x2="215.5" y1="661.8594" y2="661.8594"/><text fill="#000000" font-family="sans-serif" font-size="13" lengthAdjust="spacing" textLength="75" x="34.5" y="656.5967">updated data</text><polygon fill="#181818" points="380.5,689.1504,390.5,693.1504,380.5,697.1504,384.5,693.1504" style="stroke:#181818;stroke-width:1.0;"/><line style="stroke:#181818;stroke-width:1.0;" x1="231.5" x2="386.5" y1="693.1504" y2="693.1504"/><text fill="#000000" font-family="sans-serif" font-size="13" lengthAdjust="spacing" textLength="76" x="238.5" y="687.8877">get user data</text><polygon fill="#181818" points="548.5,720.4414,558.5,724.4414,548.5,728.4414,552.5,724.4414" style="stroke:#181818;stroke-width:1.0;"/><line style="stroke:#181818;stroke-width:1.0;" x1="402.5" x2="554.5" y1="724.4414" y2="724.4414"/><text fill="#000000" font-family="sans-serif" font-size="13" lengthAdjust="spacing" textLength="139" x="409.5" y="719.1787">updateUser(token, data)</text><polygon fill="#181818" points="771,751.7324,781,755.7324,771,759.7324,775,755.7324" style="stroke:#181818;stroke-width:1.0;"/><line style="stroke:#181818;stroke-width:1.0;" x1="570.5" x2="777" y1="755.7324" y2="755.7324"/><text fill="#000000" font-family="sans-serif" font-size="13" lengthAdjust="spacing" textLength="139" x="577.5" y="750.4697">updateUser(token, data)</text><polygon fill="#181818" points="909,783.0234,919,787.0234,909,791.0234,913,787.0234" style="stroke:#181818;stroke-width:1.0;"/><line style="stroke:#181818;stroke-width:1.0;" x1="793" x2="915" y1="787.0234" y2="787.0234"/><text fill="#000000" font-family="sans-serif" font-size="13" lengthAdjust="spacing" textLength="109" x="800" y="781.7607">getByToken(token)</text><line style="stroke:#181818;stroke-width:1.0;" x1="931" x2="973" y1="818.3145" y2="818.3145"/><line style="stroke:#181818;stroke-width:1.0;" x1="973" x2="973" y1="818.3145" y2="831.3145"/><line style="stroke:#181818;stroke-width:1.0;" x1="932" x2="973" y1="831.3145" y2="831.3145"/><polygon fill="#181818" points="942,827.3145,932,831.3145,942,835.3145,938,831.3145" style="stroke:#181818;stroke-width:1.0;"/><text fill="#000000" font-family="sans-serif" font-size="13" lengthAdjust="spacing" textLength="141" x="938" y="813.0518">decodeJWTEmail(token)</text><polygon fill="#181818" points="1074,858.6055,1084,862.6055,1074,866.6055,1078,862.6055" style="stroke:#181818;stroke-width:1.0;"/><line style="stroke:#181818;stroke-width:1.0;" x1="931" x2="1080" y1="862.6055" y2="862.6055"/><text fill="#000000" font-family="sans-serif" font-size="13" lengthAdjust="spacing" textLength="106" x="938" y="857.3428">getByEmail(email)</text><polygon fill="#181818" points="1170,889.8965,1180,893.8965,1170,897.8965,1174,893.8965" style="stroke:#181818;stroke-width:1.0;"/><line style="stroke:#181818;stroke-width:1.0;" x1="1096" x2="1176" y1="893.8965" y2="893.8965"/><text fill="#000000" font-family="sans-serif" font-size="13" lengthAdjust="spacing" textLength="67" x="1103" y="888.6338">query email</text><polygon fill="#181818" points="1107,921.1875,1097,925.1875,1107,929.1875,1103,925.1875" style="stroke:#181818;stroke-width:1.0;"/><line style="stroke:#181818;stroke-width:1.0;" x1="1101" x2="1186" y1="925.1875" y2="925.1875"/><text fill="#000000" font-family="sans-serif" font-size="13" lengthAdjust="spacing" textLength="25" x="1113" y="919.9248">user</text><polygon fill="#181818" points="942,952.4785,932,956.4785,942,960.4785,938,956.4785" style="stroke:#181818;stroke-width:1.0;"/><line style="stroke:#181818;stroke-width:1.0;" x1="936" x2="1090" y1="956.4785" y2="956.4785"/><text fill="#000000" font-family="sans-serif" font-size="13" lengthAdjust="spacing" textLength="25" x="948" y="951.2158">user</text><polygon fill="#181818" points="1170,983.7695,1180,987.7695,1170,991.7695,1174,987.7695" style="stroke:#181818;stroke-width:1.0;"/><line style="stroke:#181818;stroke-width:1.0;" x1="931" x2="1176" y1="987.7695" y2="987.7695"/><text fill="#000000" font-family="sans-serif" font-size="13" lengthAdjust="spacing" textLength="100" x="938" y="982.5068">change user data</text><polygon fill="#181818" points="804,1045.0605,794,1049.0605,804,1053.0605,800,1049.0605" style="stroke:#181818;stroke-width:1.0;"/><line style="stroke:#181818;stroke-width:1.0;" x1="798" x2="925" y1="1049.0605" y2="1049.0605"/><text fill="#000000" font-family="sans-serif" font-size="13" lengthAdjust="spacing" textLength="43" x="810" y="1043.7979">userdto</text><polygon fill="#181818" points="581.5,1076.3516,571.5,1080.3516,581.5,1084.3516,577.5,1080.3516" style="stroke:#181818;stroke-width:1.0;"/><line style="stroke:#181818;stroke-width:1.0;" x1="575.5" x2="787" y1="1080.3516" y2="1080.3516"/><text fill="#000000" font-family="sans-serif" font-size="13" lengthAdjust="spacing" textLength="43" x="587.5" y="1075.0889">userdto</text><polygon fill="#181818" points="413.5,1107.6426,403.5,1111.6426,413.5,1115.6426,409.5,1111.6426" style="stroke:#181818;stroke-width:1.0;"/><line style="stroke:#181818;stroke-width:1.0;" x1="407.5" x2="564.5" y1="1111.6426" y2="1111.6426"/><text fill="#000000" font-family="sans-serif" font-size="13" lengthAdjust="spacing" textLength="106" x="419.5" y="1106.3799">success message</text><polygon fill="#181818" points="242.5,1138.9336,232.5,1142.9336,242.5,1146.9336,238.5,1142.9336" style="stroke:#181818;stroke-width:1.0;"/><line style="stroke:#181818;stroke-width:1.0;" x1="236.5" x2="396.5" y1="1142.9336" y2="1142.9336"/><text fill="#000000" font-family="sans-serif" font-size="13" lengthAdjust="spacing" textLength="106" x="248.5" y="1137.6709">success message</text><polygon fill="#181818" points="38.5,1170.2246,28.5,1174.2246,38.5,1178.2246,34.5,1174.2246" style="stroke:#181818;stroke-width:1.0;"/><line style="stroke:#181818;stroke-width:1.0;" x1="32.5" x2="220.5" y1="1174.2246" y2="1174.2246"/><text fill="#000000" font-family="sans-serif" font-size="13" lengthAdjust="spacing" textLength="151" x="44.5" y="1168.9619">display success message</text><!--SRC=[tPB1ReCm44JlV8MFhTJ-G0wLKYivz0XnUxRiJR0ADhLDelnzrmQ22OYgKa-z8CIy6RFhuS8RIvW3cpNSUYLKmxKdxmekam_Kr8tHW6_S4JgHzjPelzEo07jM0WAmtnKJPDlwCf6tKpMSJZ73cge26m16Pq1YPtDx3ern2aUvHY2V0V5pbd7XrPbxw2QEmlDBd9PiY8Ml5fntn1lIDZ9WlWHbIMFDKLKmkkDweWlT5AqdyAGDQUZY8qSp6eXjqIFUV88UPTm3Idr4fqb8rUZ6PNRsyBiF4NiSCyAg0u4WeoiShfJ5EDQdlLuF0Pc3HSQA6oX160bl7uTTpLKrm3sG3qcT2E6P9kKP8W543bUBbnEHXCZOBIYiBnsV3UPYISo7Vw2zAhsP04K_RhUz9O8EUwCB1uIrqgGRKhccujVkafK-6bjphypamkYj4h5O6-9ASt6hbbYaknfsrPDtLVfbvVgnOzJOXwS8hxJdHyD_hT66Y9Bh4oojb4tp_g9vQVLSAmGuHsfyy1EijN05dPLlQEozvni0]--></g></svg>