<?xml version="1.0" encoding="us-ascii" standalone="no"?><svg xmlns="http://www.w3.org/2000/svg" xmlns:xlink="http://www.w3.org/1999/xlink" contentStyleType="text/css" height="551px" preserveAspectRatio="none" style="width:702px;height:551px;background:#FFFFFF;" version="1.1" viewBox="0 0 702 551" width="702px" zoomAndPan="magnify"><defs/><g><rect fill="#FFFFFF" height="365.9102" style="stroke:#181818;stroke-width:1.0;" width="10" x="69.5" y="93.6211"/><rect fill="#FFFFFF" height="342.6191" style="stroke:#181818;stroke-width:1.0;" width="10" x="260.5" y="116.9121"/><rect fill="#FFFFFF" height="119.873" style="stroke:#181818;stroke-width:1.0;" width="10" x="438.5" y="192.4941"/><line style="stroke:#181818;stroke-width:0.5;stroke-dasharray:5.0,5.0;" x1="74" x2="74" y1="83.6211" y2="468.5313"/><line style="stroke:#181818;stroke-width:0.5;stroke-dasharray:5.0,5.0;" x1="265" x2="265" y1="83.6211" y2="468.5313"/><line style="stroke:#181818;stroke-width:0.5;stroke-dasharray:5.0,5.0;" x1="443" x2="443" y1="83.6211" y2="468.5313"/><line style="stroke:#181818;stroke-width:0.5;stroke-dasharray:5.0,5.0;" x1="674" x2="674" y1="83.6211" y2="468.5313"/><text fill="#000000" font-family="sans-serif" font-size="14" lengthAdjust="spacing" textLength="133" x="5" y="80.1074">Assignment Manager</text><ellipse cx="74.5" cy="13.5" fill="#E2E2F0" rx="8" ry="8" style="stroke:#181818;stroke-width:0.5;"/><path d="M74.5,21.5 L74.5,48.5 M61.5,29.5 L87.5,29.5 M74.5,48.5 L61.5,63.5 M74.5,48.5 L87.5,63.5 " fill="none" style="stroke:#181818;stroke-width:0.5;"/><text fill="#000000" font-family="sans-serif" font-size="14" lengthAdjust="spacing" textLength="133" x="5" y="482.6387">Assignment Manager</text><ellipse cx="74.5" cy="494.6523" fill="#E2E2F0" rx="8" ry="8" style="stroke:#181818;stroke-width:0.5;"/><path d="M74.5,502.6523 L74.5,529.6523 M61.5,510.6523 L87.5,510.6523 M74.5,529.6523 L61.5,544.6523 M74.5,529.6523 L87.5,544.6523 " fill="none" style="stroke:#181818;stroke-width:0.5;"/><rect fill="#E2E2F0" height="32.6211" rx="2.5" ry="2.5" style="stroke:#181818;stroke-width:0.5;" width="73" x="229" y="50"/><text fill="#000000" font-family="sans-serif" font-size="14" lengthAdjust="spacing" textLength="59" x="236" y="72.1074">FrontEnd</text><rect fill="#E2E2F0" height="32.6211" rx="2.5" ry="2.5" style="stroke:#181818;stroke-width:0.5;" width="73" x="229" y="467.5313"/><text fill="#000000" font-family="sans-serif" font-size="14" lengthAdjust="spacing" textLength="59" x="236" y="489.6387">FrontEnd</text><rect fill="#E2E2F0" height="32.6211" rx="2.5" ry="2.5" style="stroke:#181818;stroke-width:0.5;" width="35" x="426" y="50"/><text fill="#000000" font-family="sans-serif" font-size="14" lengthAdjust="spacing" textLength="21" x="433" y="72.1074">MD</text><rect fill="#E2E2F0" height="32.6211" rx="2.5" ry="2.5" style="stroke:#181818;stroke-width:0.5;" width="35" x="426" y="467.5313"/><text fill="#000000" font-family="sans-serif" font-size="14" lengthAdjust="spacing" textLength="21" x="433" y="489.6387">MD</text><rect fill="#E2E2F0" height="32.6211" rx="2.5" ry="2.5" style="stroke:#181818;stroke-width:0.5;" width="43" x="653" y="50"/><text fill="#000000" font-family="sans-serif" font-size="14" lengthAdjust="spacing" textLength="29" x="660" y="72.1074">User</text><rect fill="#E2E2F0" height="32.6211" rx="2.5" ry="2.5" style="stroke:#181818;stroke-width:0.5;" width="43" x="653" y="467.5313"/><text fill="#000000" font-family="sans-serif" font-size="14" lengthAdjust="spacing" textLength="29" x="660" y="489.6387">User</text><rect fill="#FFFFFF" height="365.9102" style="stroke:#181818;stroke-width:1.0;" width="10" x="69.5" y="93.6211"/><rect fill="#FFFFFF" height="342.6191" style="stroke:#181818;stroke-width:1.0;" width="10" x="260.5" y="116.9121"/><rect fill="#FFFFFF" height="119.873" style="stroke:#181818;stroke-width:1.0;" width="10" x="438.5" y="192.4941"/><polygon fill="#181818" points="248.5,112.9121,258.5,116.9121,248.5,120.9121,252.5,116.9121" style="stroke:#181818;stroke-width:1.0;"/><line style="stroke:#181818;stroke-width:1.0;" x1="79.5" x2="254.5" y1="116.9121" y2="116.9121"/><text fill="#000000" font-family="sans-serif" font-size="13" lengthAdjust="spacing" textLength="162" x="86.5" y="111.6494">want to see all assignments</text><line style="stroke:#181818;stroke-width:1.0;" x1="270.5" x2="312.5" y1="148.2031" y2="148.2031"/><line style="stroke:#181818;stroke-width:1.0;" x1="312.5" x2="312.5" y1="148.2031" y2="161.2031"/><line style="stroke:#181818;stroke-width:1.0;" x1="271.5" x2="312.5" y1="161.2031" y2="161.2031"/><polygon fill="#181818" points="281.5,157.2031,271.5,161.2031,281.5,165.2031,277.5,161.2031" style="stroke:#181818;stroke-width:1.0;"/><text fill="#000000" font-family="sans-serif" font-size="13" lengthAdjust="spacing" textLength="109" x="277.5" y="142.9404">token = getToken()</text><polygon fill="#181818" points="426.5,188.4941,436.5,192.4941,426.5,196.4941,430.5,192.4941" style="stroke:#181818;stroke-width:1.0;"/><line style="stroke:#181818;stroke-width:1.0;" x1="270.5" x2="432.5" y1="192.4941" y2="192.4941"/><text fill="#000000" font-family="sans-serif" font-size="13" lengthAdjust="spacing" textLength="149" x="277.5" y="187.2314">getAllAssignments(token)</text><line style="stroke:#181818;stroke-width:1.0;" x1="448.5" x2="490.5" y1="223.7852" y2="223.7852"/><line style="stroke:#181818;stroke-width:1.0;" x1="490.5" x2="490.5" y1="223.7852" y2="236.7852"/><line style="stroke:#181818;stroke-width:1.0;" x1="449.5" x2="490.5" y1="236.7852" y2="236.7852"/><polygon fill="#181818" points="459.5,232.7852,449.5,236.7852,459.5,240.7852,455.5,236.7852" style="stroke:#181818;stroke-width:1.0;"/><text fill="#000000" font-family="sans-serif" font-size="13" lengthAdjust="spacing" textLength="79" x="455.5" y="218.5225">validate token</text><line style="stroke:#181818;stroke-width:1.0;" x1="448.5" x2="490.5" y1="268.0762" y2="268.0762"/><line style="stroke:#181818;stroke-width:1.0;" x1="490.5" x2="490.5" y1="268.0762" y2="281.0762"/><line style="stroke:#181818;stroke-width:1.0;" x1="449.5" x2="490.5" y1="281.0762" y2="281.0762"/><polygon fill="#181818" points="459.5,277.0762,449.5,281.0762,459.5,285.0762,455.5,281.0762" style="stroke:#181818;stroke-width:1.0;"/><text fill="#000000" font-family="sans-serif" font-size="13" lengthAdjust="spacing" textLength="207" x="455.5" y="262.8135">assignments = getAllAssignments()</text><polygon fill="#181818" points="281.5,308.3672,271.5,312.3672,281.5,316.3672,277.5,312.3672" style="stroke:#181818;stroke-width:1.0;"/><line style="stroke:#181818;stroke-width:1.0;" x1="275.5" x2="442.5" y1="312.3672" y2="312.3672"/><text fill="#000000" font-family="sans-serif" font-size="13" lengthAdjust="spacing" textLength="74" x="287.5" y="307.1045">assignments</text><polygon fill="#181818" points="662.5,339.6582,672.5,343.6582,662.5,347.6582,666.5,343.6582" style="stroke:#181818;stroke-width:1.0;"/><line style="stroke:#181818;stroke-width:1.0;" x1="270.5" x2="668.5" y1="343.6582" y2="343.6582"/><text fill="#000000" font-family="sans-serif" font-size="13" lengthAdjust="spacing" textLength="136" x="277.5" y="338.3955">display all assignments</text><polygon fill="#181818" points="281.5,370.9492,271.5,374.9492,281.5,378.9492,277.5,374.9492" style="stroke:#181818;stroke-width:1.0;"/><line style="stroke:#181818;stroke-width:1.0;" x1="275.5" x2="673.5" y1="374.9492" y2="374.9492"/><text fill="#000000" font-family="sans-serif" font-size="13" lengthAdjust="spacing" textLength="219" x="287.5" y="369.6865">sort assignments by {type, status, ...}</text><line style="stroke:#181818;stroke-width:1.0;" x1="270.5" x2="312.5" y1="406.2402" y2="406.2402"/><line style="stroke:#181818;stroke-width:1.0;" x1="312.5" x2="312.5" y1="406.2402" y2="419.2402"/><line style="stroke:#181818;stroke-width:1.0;" x1="271.5" x2="312.5" y1="419.2402" y2="419.2402"/><polygon fill="#181818" points="281.5,415.2402,271.5,419.2402,281.5,423.2402,277.5,419.2402" style="stroke:#181818;stroke-width:1.0;"/><text fill="#000000" font-family="sans-serif" font-size="13" lengthAdjust="spacing" textLength="100" x="277.5" y="400.9775">sort assignments</text><polygon fill="#181818" points="662.5,446.5313,672.5,450.5313,662.5,454.5313,666.5,450.5313" style="stroke:#181818;stroke-width:1.0;"/><line style="stroke:#181818;stroke-width:1.0;" x1="270.5" x2="668.5" y1="450.5313" y2="450.5313"/><text fill="#000000" font-family="sans-serif" font-size="13" lengthAdjust="spacing" textLength="148" x="277.5" y="445.2686">show sorted assignments</text><!--SRC=[PP3FQeGm4CRlFiMmfnMsFe3GWg3USciVO6e66vecafdk8gNltiHLZDkRpFVx_aGSn0SuDSncT5_a11Gw72cS01aQLKmOn0ncmYZrmJlfd4vItnqarQQZQei21p5N54hcHi7JIqHhk2L8F30HeBKHtWfvTyJCljiSuZ_9mJEC9A_fyrokechhT6oitLVpUS7BFIjEYPjM_8hMw7HTg4p8Pjoh7bBBbKs3yicQygBxhZUcK8CsF5cS_psoIF8MnJx8eVjzXX-P9xe02yetNw2ggjyY-nsFbaCfV_ZRGf0-C7y0]--></g></svg>