<?xml version="1.0" encoding="us-ascii" standalone="no"?><svg xmlns="http://www.w3.org/2000/svg" xmlns:xlink="http://www.w3.org/1999/xlink" contentStyleType="text/css" height="268.8px" preserveAspectRatio="none" style="width:299px;height:268px;background:#FFFFFF;" version="1.1" viewBox="0 0 299 268" width="299.4px" zoomAndPan="magnify"><defs/><g><rect fill="#FFFFFF" height="138.273" style="stroke:#181818;stroke-width:0.6;" width="6" x="98.7" y="70.1473"/><rect fill="#FFFFFF" height="85.7238" style="stroke:#181818;stroke-width:0.6;" width="6" x="182.1" y="88.9219"/><line style="stroke:#181818;stroke-width:0.3;stroke-dasharray:5.0,5.0;" x1="13.2" x2="13.2" y1="50.1727" y2="219.2203"/><line style="stroke:#181818;stroke-width:0.3;stroke-dasharray:5.0,5.0;" x1="101.7" x2="101.7" y1="50.1727" y2="219.2203"/><line style="stroke:#181818;stroke-width:0.3;stroke-dasharray:5.0,5.0;" x1="185.1" x2="185.1" y1="50.1727" y2="219.2203"/><text fill="#000000" font-family="sans-serif" font-size="8.4" lengthAdjust="spacing" textLength="17.4" x="3" y="48.0645">User</text><ellipse cx="13.5" cy="8.1" fill="#E2E2F0" rx="4.8" ry="4.8" style="stroke:#181818;stroke-width:0.3;"/><path d="M13.5,12.9 L13.5,29.1 M5.7,17.7 L21.3,17.7 M13.5,29.1 L5.7,38.1 M13.5,29.1 L21.3,38.1 " fill="none" style="stroke:#181818;stroke-width:0.3;"/><text fill="#000000" font-family="sans-serif" font-size="8.4" lengthAdjust="spacing" textLength="17.4" x="3" y="227.6848">User</text><ellipse cx="13.5" cy="234.893" fill="#E2E2F0" rx="4.8" ry="4.8" style="stroke:#181818;stroke-width:0.3;"/><path d="M13.5,239.693 L13.5,255.893 M5.7,244.493 L21.3,244.493 M13.5,255.893 L5.7,264.893 M13.5,255.893 L21.3,264.893 " fill="none" style="stroke:#181818;stroke-width:0.3;"/><rect fill="#E2E2F0" height="19.5727" rx="1.5" ry="1.5" style="stroke:#181818;stroke-width:0.3;" width="15.6" x="93.9" y="30"/><text fill="#000000" font-family="sans-serif" font-size="8.4" lengthAdjust="spacing" textLength="7.2" x="98.1" y="43.2645">UI</text><rect fill="#E2E2F0" height="19.5727" rx="1.5" ry="1.5" style="stroke:#181818;stroke-width:0.3;" width="15.6" x="93.9" y="218.6203"/><text fill="#000000" font-family="sans-serif" font-size="8.4" lengthAdjust="spacing" textLength="7.2" x="98.1" y="231.8848">UI</text><rect fill="#E2E2F0" height="19.5727" rx="1.5" ry="1.5" style="stroke:#181818;stroke-width:0.3;" width="31.2" x="169.5" y="30"/><text fill="#000000" font-family="sans-serif" font-size="8.4" lengthAdjust="spacing" textLength="22.8" x="173.7" y="43.2645">Route</text><rect fill="#E2E2F0" height="19.5727" rx="1.5" ry="1.5" style="stroke:#181818;stroke-width:0.3;" width="31.2" x="169.5" y="218.6203"/><text fill="#000000" font-family="sans-serif" font-size="8.4" lengthAdjust="spacing" textLength="22.8" x="173.7" y="231.8848">Route</text><rect fill="#FFFFFF" height="138.273" style="stroke:#181818;stroke-width:0.6;" width="6" x="98.7" y="70.1473"/><rect fill="#FFFFFF" height="85.7238" style="stroke:#181818;stroke-width:0.6;" width="6" x="182.1" y="88.9219"/><polygon fill="#181818" points="91.5,67.7473,97.5,70.1473,91.5,72.5473,93.9,70.1473" style="stroke:#181818;stroke-width:0.6;"/><line style="stroke:#181818;stroke-width:0.6;" x1="13.5" x2="95.1" y1="70.1473" y2="70.1473"/><text fill="#000000" font-family="sans-serif" font-size="7.8" font-weight="bold" lengthAdjust="spacing" textLength="4.2" x="17.7" y="66.9896">1</text><text fill="#000000" font-family="sans-serif" font-size="7.8" lengthAdjust="spacing" textLength="67.2" x="24.3" y="66.9896">request list building</text><polygon fill="#181818" points="174.9,86.5219,180.9,88.9219,174.9,91.3219,177.3,88.9219" style="stroke:#181818;stroke-width:0.6;"/><line style="stroke:#181818;stroke-width:0.6;" x1="104.7" x2="178.5" y1="88.9219" y2="88.9219"/><text fill="#000000" font-family="sans-serif" font-size="7.8" font-weight="bold" lengthAdjust="spacing" textLength="4.2" x="108.9" y="85.7643">2</text><text fill="#000000" font-family="sans-serif" font-size="7.8" lengthAdjust="spacing" textLength="59.4" x="115.5" y="85.7643">get('/api/building')</text><line style="stroke:#181818;stroke-width:0.6;" x1="188.1" x2="213.3" y1="133.0711" y2="133.0711"/><line style="stroke:#181818;stroke-width:0.6;" x1="213.3" x2="213.3" y1="133.0711" y2="140.8711"/><line style="stroke:#181818;stroke-width:0.6;" x1="188.7" x2="213.3" y1="140.8711" y2="140.8711"/><polygon fill="#181818" points="194.7,138.4711,188.7,140.8711,194.7,143.2711,192.3,140.8711" style="stroke:#181818;stroke-width:0.6;"/><text fill="#000000" font-family="sans-serif" font-size="7.8" font-weight="bold" lengthAdjust="spacing" textLength="4.2" x="192.3" y="124.7262">3</text><text fill="#000000" font-family="sans-serif" font-size="7.8" lengthAdjust="spacing" textLength="26.4" x="198.9" y="119.5389">finds all</text><text fill="#000000" font-family="sans-serif" font-size="7.8" lengthAdjust="spacing" textLength="94.2" x="201.3" y="129.9135">buildings and returns them.</text><polygon fill="#181818" points="111.3,172.2457,105.3,174.6457,111.3,177.0457,108.9,174.6457" style="stroke:#181818;stroke-width:0.6;"/><line style="stroke:#181818;stroke-width:0.6;" x1="107.7" x2="184.5" y1="174.6457" y2="174.6457"/><text fill="#000000" font-family="sans-serif" font-size="7.8" font-weight="bold" lengthAdjust="spacing" textLength="4.2" x="114.9" y="171.4881">4</text><text fill="#000000" font-family="sans-serif" font-size="7.8" lengthAdjust="spacing" textLength="55.8" x="121.5" y="171.4881">response status</text><polygon fill="#181818" points="20.1,206.0203,14.1,208.4203,20.1,210.8203,17.7,208.4203" style="stroke:#181818;stroke-width:0.6;"/><line style="stroke:#181818;stroke-width:0.6;" x1="16.5" x2="101.1" y1="208.4203" y2="208.4203"/><text fill="#000000" font-family="sans-serif" font-size="7.8" font-weight="bold" lengthAdjust="spacing" textLength="4.2" x="23.7" y="205.2627">5</text><text fill="#000000" font-family="sans-serif" font-size="7.8" lengthAdjust="spacing" textLength="63.6" x="30.3" y="205.2627">operation success</text><!--SRC=[NOwzKWCn38HxFuMwWo9ndu8-hMVSqIYsk7Z6VrXogdjuT438X4QZMNtQtUKgqlbaRSzOPPPy3ArOfiz9DT0X9bm75cDmIgkpN6Ze7gGDy4m3aC6RZaDII5qDm9-_jVEJwDeKWltWZF5mUDkn4umzXGLoqd6PASTKrzqztL1vDL5COQViIlAoMEp9ti7brJnOPxPjC-vEVwGQ6J1dUAz_pYhKgA4oHsMGAvNZu-kt4FTMcO05PRA9z2_WfuzNj7KQAAbLu1a2yHEipRy0]--></g></svg>