<?xml version="1.0" encoding="us-ascii" standalone="no"?><svg xmlns="http://www.w3.org/2000/svg" xmlns:xlink="http://www.w3.org/1999/xlink" contentStyleType="text/css" height="1374px" preserveAspectRatio="none" style="width:806px;height:1374px;background:#FFFFFF;" version="1.1" viewBox="0 0 806 1374" width="806px" zoomAndPan="magnify"><defs/><g><!--cluster UI--><g id="cluster_UI"><rect fill="#0FAAFF" height="1255" rx="2.5" ry="2.5" style="stroke:#181818;stroke-width:1.0;" width="793" x="7" y="113"/><rect fill="#0FAAFF" height="10" style="stroke:#181818;stroke-width:1.0;" width="15" x="780" y="118"/><rect fill="#0FAAFF" height="2" style="stroke:#181818;stroke-width:1.0;" width="4" x="778" y="120"/><rect fill="#0FAAFF" height="2" style="stroke:#181818;stroke-width:1.0;" width="4" x="778" y="124"/><text fill="#000000" font-family="sans-serif" font-size="14" font-style="italic" lengthAdjust="spacing" textLength="86" x="360.5" y="142.1074">&#171;component&#187;</text><text fill="#000000" font-family="sans-serif" font-size="14" font-style="italic" lengthAdjust="spacing" textLength="97" x="355" y="160.7285">&#171;C4 container&#187;</text><text fill="#000000" font-family="sans-serif" font-size="14" font-weight="bold" lengthAdjust="spacing" textLength="93" x="357" y="181.3496">FrontEnd (UI)</text></g><!--cluster View--><g id="cluster_View"><rect fill="#0FAAFF" height="159" rx="2.5" ry="2.5" style="stroke:#181818;stroke-width:1.0;" width="98" x="298.5" y="332"/><rect fill="#0FAAFF" height="10" style="stroke:#181818;stroke-width:1.0;" width="15" x="376.5" y="337"/><rect fill="#0FAAFF" height="2" style="stroke:#181818;stroke-width:1.0;" width="4" x="374.5" y="339"/><rect fill="#0FAAFF" height="2" style="stroke:#181818;stroke-width:1.0;" width="4" x="374.5" y="343"/><text fill="#000000" font-family="sans-serif" font-size="14" font-style="italic" lengthAdjust="spacing" textLength="86" x="304.5" y="361.1074">&#171;component&#187;</text><text fill="#000000" font-family="sans-serif" font-size="14" font-weight="bold" lengthAdjust="spacing" textLength="33" x="331" y="381.7285">View</text></g><!--cluster HTTPDriver--><g id="cluster_HTTPDriver"><rect fill="#0FAAFF" height="193.5" rx="2.5" ry="2.5" style="stroke:#181818;stroke-width:1.0;" width="149" x="627" y="874"/><rect fill="#0FAAFF" height="10" style="stroke:#181818;stroke-width:1.0;" width="15" x="756" y="879"/><rect fill="#0FAAFF" height="2" style="stroke:#181818;stroke-width:1.0;" width="4" x="754" y="881"/><rect fill="#0FAAFF" height="2" style="stroke:#181818;stroke-width:1.0;" width="4" x="754" y="885"/><text fill="#000000" font-family="sans-serif" font-size="14" font-style="italic" lengthAdjust="spacing" textLength="86" x="658.5" y="903.1074">&#171;component&#187;</text><text fill="#000000" font-family="sans-serif" font-size="14" font-weight="bold" lengthAdjust="spacing" textLength="83" x="660" y="923.7285">HTTP Driver</text></g><text fill="#000000" font-family="sans-serif" font-size="14" lengthAdjust="spacing" textLength="4" x="322" y="90.4863">&#160;</text><rect fill="#0FAAFF" height="12" style="stroke:#181818;stroke-width:1.5;" width="12" x="318" y="107"/><text fill="#000000" font-family="sans-serif" font-size="14" lengthAdjust="spacing" textLength="4" x="404" y="90.4863">&#160;</text><rect fill="#0FAAFF" height="12" style="stroke:#181818;stroke-width:1.5;" width="12" x="400" y="107"/><text fill="#000000" font-family="sans-serif" font-size="14" lengthAdjust="spacing" textLength="4" x="609" y="90.4863">&#160;</text><rect fill="#0FAAFF" height="12" style="stroke:#181818;stroke-width:1.5;" width="12" x="605" y="107"/><text fill="#000000" font-family="sans-serif" font-size="14" lengthAdjust="spacing" textLength="4" x="669" y="90.4863">&#160;</text><rect fill="#0FAAFF" height="12" style="stroke:#181818;stroke-width:1.5;" width="12" x="665" y="107"/><!--entity ViewModel--><g id="elem_ViewModel"><rect fill="#0FAAFF" height="71.2422" rx="2.5" ry="2.5" style="stroke:#181818;stroke-width:0.5;" width="128" x="159" y="691"/><rect fill="#0FAAFF" height="10" style="stroke:#181818;stroke-width:0.5;" width="15" x="267" y="696"/><rect fill="#0FAAFF" height="2" style="stroke:#181818;stroke-width:0.5;" width="4" x="265" y="698"/><rect fill="#0FAAFF" height="2" style="stroke:#181818;stroke-width:0.5;" width="4" x="265" y="702"/><text fill="#000000" font-family="sans-serif" font-size="14" font-style="italic" lengthAdjust="spacing" textLength="86" x="175" y="727.1074">&#171;component&#187;</text><text fill="#000000" font-family="sans-serif" font-size="14" font-weight="bold" lengthAdjust="spacing" textLength="81" x="177.5" y="747.7285">View Model</text></g><!--entity Controller--><g id="elem_Controller"><rect fill="#0FAAFF" height="71.2422" rx="2.5" ry="2.5" style="stroke:#181818;stroke-width:0.5;" width="128" x="322" y="691"/><rect fill="#0FAAFF" height="10" style="stroke:#181818;stroke-width:0.5;" width="15" x="430" y="696"/><rect fill="#0FAAFF" height="2" style="stroke:#181818;stroke-width:0.5;" width="4" x="428" y="698"/><rect fill="#0FAAFF" height="2" style="stroke:#181818;stroke-width:0.5;" width="4" x="428" y="702"/><text fill="#000000" font-family="sans-serif" font-size="14" font-style="italic" lengthAdjust="spacing" textLength="86" x="338" y="727.1074">&#171;component&#187;</text><text fill="#000000" font-family="sans-serif" font-size="14" font-weight="bold" lengthAdjust="spacing" textLength="71" x="345.5" y="747.7285">Controller</text></g><!--entity Service--><g id="elem_Service"><rect fill="#0FAAFF" height="71.2422" rx="2.5" ry="2.5" style="stroke:#181818;stroke-width:0.5;" width="128" x="186" y="986"/><rect fill="#0FAAFF" height="10" style="stroke:#181818;stroke-width:0.5;" width="15" x="294" y="991"/><rect fill="#0FAAFF" height="2" style="stroke:#181818;stroke-width:0.5;" width="4" x="292" y="993"/><rect fill="#0FAAFF" height="2" style="stroke:#181818;stroke-width:0.5;" width="4" x="292" y="997"/><text fill="#000000" font-family="sans-serif" font-size="14" font-style="italic" lengthAdjust="spacing" textLength="86" x="202" y="1022.1074">&#171;component&#187;</text><text fill="#000000" font-family="sans-serif" font-size="14" font-weight="bold" lengthAdjust="spacing" textLength="54" x="218" y="1042.7285">Service</text></g><!--entity Model--><g id="elem_Model"><rect fill="#0FAAFF" height="71.2422" rx="2.5" ry="2.5" style="stroke:#181818;stroke-width:0.5;" width="128" x="23" y="986"/><rect fill="#0FAAFF" height="10" style="stroke:#181818;stroke-width:0.5;" width="15" x="131" y="991"/><rect fill="#0FAAFF" height="2" style="stroke:#181818;stroke-width:0.5;" width="4" x="129" y="993"/><rect fill="#0FAAFF" height="2" style="stroke:#181818;stroke-width:0.5;" width="4" x="129" y="997"/><text fill="#000000" font-family="sans-serif" font-size="14" font-style="italic" lengthAdjust="spacing" textLength="86" x="39" y="1022.1074">&#171;component&#187;</text><text fill="#000000" font-family="sans-serif" font-size="14" font-weight="bold" lengthAdjust="spacing" textLength="44" x="60" y="1042.7285">Model</text></g><!--entity Repository--><g id="elem_Repository"><rect fill="#0FAAFF" height="71.2422" rx="2.5" ry="2.5" style="stroke:#181818;stroke-width:0.5;" width="138" x="273" y="1281"/><rect fill="#0FAAFF" height="10" style="stroke:#181818;stroke-width:0.5;" width="15" x="391" y="1286"/><rect fill="#0FAAFF" height="2" style="stroke:#181818;stroke-width:0.5;" width="4" x="389" y="1288"/><rect fill="#0FAAFF" height="2" style="stroke:#181818;stroke-width:0.5;" width="4" x="389" y="1292"/><text fill="#000000" font-family="sans-serif" font-size="14" font-style="italic" lengthAdjust="spacing" textLength="86" x="294" y="1317.1074">&#171;component&#187;</text><text fill="#000000" font-family="sans-serif" font-size="14" font-weight="bold" lengthAdjust="spacing" textLength="96" x="289" y="1337.7285">Repo/Adapter</text></g><!--entity DTO--><g id="elem_DTO"><rect fill="#0FAAFF" height="71.2422" rx="2.5" ry="2.5" style="stroke:#181818;stroke-width:0.5;" width="188" x="596" y="1133.5"/><rect fill="#0FAAFF" height="10" style="stroke:#181818;stroke-width:0.5;" width="15" x="764" y="1138.5"/><rect fill="#0FAAFF" height="2" style="stroke:#181818;stroke-width:0.5;" width="4" x="762" y="1140.5"/><rect fill="#0FAAFF" height="2" style="stroke:#181818;stroke-width:0.5;" width="4" x="762" y="1144.5"/><text fill="#000000" font-family="sans-serif" font-size="14" font-style="italic" lengthAdjust="spacing" textLength="86" x="642" y="1169.6074">&#171;component&#187;</text><text fill="#000000" font-family="sans-serif" font-size="14" font-weight="bold" lengthAdjust="spacing" textLength="146" x="612" y="1190.2285">DTO Exterior-Interior</text></g><!--entity DTO1--><g id="elem_DTO1"><rect fill="#0FAAFF" height="71.2422" rx="2.5" ry="2.5" style="stroke:#181818;stroke-width:0.5;" width="205" x="349.5" y="986"/><rect fill="#0FAAFF" height="10" style="stroke:#181818;stroke-width:0.5;" width="15" x="534.5" y="991"/><rect fill="#0FAAFF" height="2" style="stroke:#181818;stroke-width:0.5;" width="4" x="532.5" y="993"/><rect fill="#0FAAFF" height="2" style="stroke:#181818;stroke-width:0.5;" width="4" x="532.5" y="997"/><text fill="#000000" font-family="sans-serif" font-size="14" font-style="italic" lengthAdjust="spacing" textLength="86" x="404" y="1022.1074">&#171;component&#187;</text><text fill="#000000" font-family="sans-serif" font-size="14" font-weight="bold" lengthAdjust="spacing" textLength="163" x="365.5" y="1042.7285">DTO Service-Controller</text></g><!--entity C_API--><g id="elem_C_API"><ellipse cx="442" cy="579" fill="#0FAAFF" rx="8" ry="8" style="stroke:#181818;stroke-width:0.5;"/><text fill="#000000" font-family="sans-serif" font-size="14" font-weight="bold" lengthAdjust="spacing" textLength="71" x="404.5" y="612.1074">Controller</text><text fill="#000000" font-family="sans-serif" font-size="14" lengthAdjust="spacing" textLength="4" x="475.5" y="612.1074">&#160;</text><text fill="#000000" font-family="sans-serif" font-size="14" lengthAdjust="spacing" textLength="4" x="404.5" y="630.7285">&#160;</text><text fill="#000000" font-family="sans-serif" font-size="14" font-weight="bold" lengthAdjust="spacing" textLength="22" x="408.5" y="630.7285">API</text></g><!--entity VM_API--><g id="elem_VM_API"><ellipse cx="310" cy="579" fill="#0FAAFF" rx="8" ry="8" style="stroke:#181818;stroke-width:0.5;"/><text fill="#000000" font-family="sans-serif" font-size="14" font-weight="bold" lengthAdjust="spacing" textLength="81" x="267.5" y="612.1074">View Model</text><text fill="#000000" font-family="sans-serif" font-size="14" lengthAdjust="spacing" textLength="4" x="348.5" y="612.1074">&#160;</text><text fill="#000000" font-family="sans-serif" font-size="14" lengthAdjust="spacing" textLength="4" x="267.5" y="630.7285">&#160;</text><text fill="#000000" font-family="sans-serif" font-size="14" font-weight="bold" lengthAdjust="spacing" textLength="22" x="271.5" y="630.7285">API</text></g><!--entity Ob_API--><g id="elem_Ob_API"><ellipse cx="231" cy="445" fill="#0FAAFF" rx="8" ry="8" style="stroke:#181818;stroke-width:0.5;"/><text fill="#000000" font-family="sans-serif" font-size="14" font-weight="bold" lengthAdjust="spacing" textLength="67" x="195.5" y="478.1074">Observer</text><text fill="#000000" font-family="sans-serif" font-size="14" lengthAdjust="spacing" textLength="4" x="262.5" y="478.1074">&#160;</text><text fill="#000000" font-family="sans-serif" font-size="14" lengthAdjust="spacing" textLength="4" x="195.5" y="496.7285">&#160;</text><text fill="#000000" font-family="sans-serif" font-size="14" font-weight="bold" lengthAdjust="spacing" textLength="22" x="199.5" y="496.7285">API</text></g><!--entity S_API--><g id="elem_S_API"><ellipse cx="265" cy="874" fill="#0FAAFF" rx="8" ry="8" style="stroke:#181818;stroke-width:0.5;"/><text fill="#000000" font-family="sans-serif" font-size="14" font-weight="bold" lengthAdjust="spacing" textLength="54" x="236" y="907.1074">Service</text><text fill="#000000" font-family="sans-serif" font-size="14" lengthAdjust="spacing" textLength="4" x="290" y="907.1074">&#160;</text><text fill="#000000" font-family="sans-serif" font-size="14" lengthAdjust="spacing" textLength="4" x="236" y="925.7285">&#160;</text><text fill="#000000" font-family="sans-serif" font-size="14" font-weight="bold" lengthAdjust="spacing" textLength="22" x="240" y="925.7285">API</text></g><!--entity R_API--><g id="elem_R_API"><ellipse cx="599" cy="1021.5" fill="#0FAAFF" rx="8" ry="8" style="stroke:#181818;stroke-width:0.5;"/><text fill="#000000" font-family="sans-serif" font-size="14" font-weight="bold" lengthAdjust="spacing" textLength="37" x="578.5" y="1054.6074">Repo</text><text fill="#000000" font-family="sans-serif" font-size="14" lengthAdjust="spacing" textLength="4" x="615.5" y="1054.6074">&#160;</text><text fill="#000000" font-family="sans-serif" font-size="14" lengthAdjust="spacing" textLength="4" x="578.5" y="1073.2285">&#160;</text><text fill="#000000" font-family="sans-serif" font-size="14" font-weight="bold" lengthAdjust="spacing" textLength="22" x="582.5" y="1073.2285">API</text></g><!--entity HTTP_API--><g id="elem_HTTP_API"><ellipse cx="455" cy="1169" fill="#0FAAFF" rx="8" ry="8" style="stroke:#181818;stroke-width:0.5;"/><text fill="#000000" font-family="sans-serif" font-size="14" font-weight="bold" lengthAdjust="spacing" textLength="83" x="411.5" y="1202.1074">HTTP Driver</text><text fill="#000000" font-family="sans-serif" font-size="14" lengthAdjust="spacing" textLength="4" x="494.5" y="1202.1074">&#160;</text><text fill="#000000" font-family="sans-serif" font-size="14" lengthAdjust="spacing" textLength="4" x="411.5" y="1220.7285">&#160;</text><text fill="#000000" font-family="sans-serif" font-size="14" font-weight="bold" lengthAdjust="spacing" textLength="22" x="415.5" y="1220.7285">API</text></g><!--entity DTO_API--><g id="elem_DTO_API"><ellipse cx="552" cy="1169" fill="#0FAAFF" rx="8" ry="8" style="stroke:#181818;stroke-width:0.5;"/><text fill="#000000" font-family="sans-serif" font-size="14" font-weight="bold" lengthAdjust="spacing" textLength="29" x="535.5" y="1202.1074">DTO</text><text fill="#000000" font-family="sans-serif" font-size="14" lengthAdjust="spacing" textLength="4" x="564.5" y="1202.1074">&#160;</text><text fill="#000000" font-family="sans-serif" font-size="14" lengthAdjust="spacing" textLength="4" x="535.5" y="1220.7285">&#160;</text><text fill="#000000" font-family="sans-serif" font-size="14" font-weight="bold" lengthAdjust="spacing" textLength="22" x="539.5" y="1220.7285">API</text></g><!--entity Model_API--><g id="elem_Model_API"><ellipse cx="250" cy="1169" fill="#0FAAFF" rx="8" ry="8" style="stroke:#181818;stroke-width:0.5;"/><text fill="#000000" font-family="sans-serif" font-size="14" font-weight="bold" lengthAdjust="spacing" textLength="44" x="226" y="1202.1074">Model</text><text fill="#000000" font-family="sans-serif" font-size="14" lengthAdjust="spacing" textLength="4" x="270" y="1202.1074">&#160;</text><text fill="#000000" font-family="sans-serif" font-size="14" lengthAdjust="spacing" textLength="4" x="226" y="1220.7285">&#160;</text><text fill="#000000" font-family="sans-serif" font-size="14" font-weight="bold" lengthAdjust="spacing" textLength="22" x="230" y="1220.7285">API</text></g><!--entity DTO2_API--><g id="elem_DTO2_API"><ellipse cx="386" cy="874" fill="#0FAAFF" rx="8" ry="8" style="stroke:#181818;stroke-width:0.5;"/><text fill="#000000" font-family="sans-serif" font-size="14" font-weight="bold" lengthAdjust="spacing" textLength="37" x="365.5" y="907.1074">DTO2</text><text fill="#000000" font-family="sans-serif" font-size="14" lengthAdjust="spacing" textLength="4" x="402.5" y="907.1074">&#160;</text><text fill="#000000" font-family="sans-serif" font-size="14" lengthAdjust="spacing" textLength="4" x="365.5" y="925.7285">&#160;</text><text fill="#000000" font-family="sans-serif" font-size="14" font-weight="bold" lengthAdjust="spacing" textLength="22" x="369.5" y="925.7285">API</text></g><text fill="#000000" font-family="sans-serif" font-size="14" lengthAdjust="spacing" textLength="4" x="322" y="309.4863">&#160;</text><rect fill="#0FAAFF" height="12" style="stroke:#181818;stroke-width:1.5;" width="12" x="318" y="326"/><text fill="#000000" font-family="sans-serif" font-size="14" lengthAdjust="spacing" textLength="4" x="369" y="309.4863">&#160;</text><rect fill="#0FAAFF" height="12" style="stroke:#181818;stroke-width:1.5;" width="12" x="365" y="326"/><text fill="#000000" font-family="sans-serif" font-size="14" lengthAdjust="spacing" textLength="4" x="643" y="851.4863">&#160;</text><rect fill="#0FAAFF" height="12" style="stroke:#181818;stroke-width:1.5;" width="12" x="639" y="868"/><text fill="#000000" font-family="sans-serif" font-size="14" lengthAdjust="spacing" textLength="4" x="694" y="851.4863">&#160;</text><rect fill="#0FAAFF" height="12" style="stroke:#181818;stroke-width:1.5;" width="12" x="690" y="868"/><!--entity UI_Campus--><g id="elem_UI_Campus"><ellipse cx="307" cy="14" fill="#0FAAFF" rx="8" ry="8" style="stroke:#181818;stroke-width:0.5;"/><text fill="#000000" font-family="sans-serif" font-size="14" font-weight="bold" lengthAdjust="spacing" textLength="74" x="270" y="47.1074">UI Campus</text></g><!--entity UI_Fleet--><g id="elem_UI_Fleet"><ellipse cx="424" cy="14" fill="#0FAAFF" rx="8" ry="8" style="stroke:#181818;stroke-width:0.5;"/><text fill="#000000" font-family="sans-serif" font-size="14" font-weight="bold" lengthAdjust="spacing" textLength="54" x="397" y="47.1074">UI Fleet</text></g><!--entity API_Fleet--><g id="elem_API_Fleet"><ellipse cx="579" cy="14" fill="#0FAAFF" rx="8" ry="8" style="stroke:#181818;stroke-width:0.5;"/><text fill="#000000" font-family="sans-serif" font-size="14" font-weight="bold" lengthAdjust="spacing" textLength="62" x="548" y="47.1074">API Fleet</text></g><!--entity API_Campus--><g id="elem_API_Campus"><ellipse cx="704" cy="14" fill="#0FAAFF" rx="8" ry="8" style="stroke:#181818;stroke-width:0.5;"/><text fill="#000000" font-family="sans-serif" font-size="14" font-weight="bold" lengthAdjust="spacing" textLength="82" x="663" y="47.1074">API Campus</text></g><!--link UI_Campus to p1--><g id="link_UI_Campus_p1"><path d="M308.45,23.27 C311.85,42.7 320.28,90.8 323.08,106.76 " fill="none" id="UI_Campus-p1" style="stroke:#181818;stroke-width:1.0;"/></g><!--link UI_Fleet to p2--><g id="link_UI_Fleet_p2"><path d="M422.47,23.27 C418.86,42.7 409.93,90.8 406.97,106.76 " fill="none" id="UI_Fleet-p2" style="stroke:#181818;stroke-width:1.0;"/></g><!--link p1 to p5--><g id="link_p1_p5"><path d="M324,119.36 C324,149.39 324,296.29 324,325.82 " fill="none" id="p1-p5" style="stroke:#181818;stroke-width:1.0;"/></g><!--link p2 to p6--><g id="link_p2_p6"><path d="M405.13,119.36 C400.29,149.39 376.6,296.29 371.83,325.82 " fill="none" id="p2-p6" style="stroke:#181818;stroke-width:1.0;"/></g><!--link View to Ob_API--><g id="link_View_Ob_API"><path d="M287.85,445 C272.02,445 256.19,445 240.37,445 " fill="none" id="View-Ob_API" style="stroke:#181818;stroke-width:1.0;"/></g><!--reverse link Ob_API to ViewModel--><g id="link_Ob_API_ViewModel"><path d="M230.484,464.0559 C229.494,498.6559 225.86,625.7 223.99,690.8 " fill="none" id="Ob_API-backto-ViewModel" style="stroke:#181818;stroke-width:1.0;"/><path d="M222.2282,456.895 A9,9 0 0 0 239.1357 457.3788" fill="none" style="stroke:#181818;stroke-width:1.5;"/></g><!--link View to C_API--><g id="link_View_C_API"><path d="M374.9152,491.1848 C375.3674,491.77 375.8214,492.3575 376.2772,492.9473 C383.5694,502.3841 391.3013,512.3894 398.8025,522.0963 C413.805,541.51 421.7714,551.8165 429.5664,561.9065 " fill="none" id="View-to-C_API" style="stroke:#181818;stroke-width:1.0;"/><path d="M440.4908,562.2137 A9,9 0 0 0 427.1055 572.5545" fill="none" style="stroke:#181818;stroke-width:1.5;"/></g><!--link View to VM_API--><g id="link_View_VM_API"><path d="M329.7304,491.1848 C329.5974,491.77 329.4639,492.3575 329.3298,492.9473 C327.1853,502.3841 324.9119,512.3894 322.7062,522.0963 C318.295,541.51 316.3729,549.9791 314.0779,560.0691 " fill="none" id="View-to-VM_API" style="stroke:#181818;stroke-width:1.0;"/><path d="M320.7893,568.6942 A9,9 0 0 0 304.2961 564.9428" fill="none" style="stroke:#181818;stroke-width:1.5;"/></g><!--link C_API to Controller--><g id="link_C_API_Controller"><path d="M438.83,588.24 C431.38,607.6 412.4,656.9 399.35,690.82 " fill="none" id="C_API-Controller" style="stroke:#181818;stroke-width:1.0;"/></g><!--link VM_API to Controller--><g id="link_VM_API_Controller"><path d="M314.3,588.24 C324.41,607.6 350.17,656.9 367.89,690.82 " fill="none" id="VM_API-Controller" style="stroke:#181818;stroke-width:1.0;"/></g><!--reverse link VM_API to ViewModel--><g id="link_VM_API_ViewModel"><path d="M299.94,596.8239 C288.37,616.1839 264.02,656.9 243.74,690.82 " fill="none" id="VM_API-backto-ViewModel" style="stroke:#181818;stroke-width:1.0;"/><path d="M296.2313,586.5438 A9,9 0 0 0 310.7505 595.2208" fill="none" style="stroke:#181818;stroke-width:1.5;"/></g><!--link Controller to S_API--><g id="link_Controller_S_API"><path d="M357.02,762.35 C328.77,796.32 294.2028,837.8803 278.1828,857.1503 " fill="none" id="Controller-to-S_API" style="stroke:#181818;stroke-width:1.0;"/><path d="M280.2612,867.8795 A9,9 0 0 0 267.2544 857.0664" fill="none" style="stroke:#181818;stroke-width:1.5;"/></g><!--link Controller to DTO2_API--><g id="link_Controller_DTO2_API"><path d="M386,762.35 C386,796.32 386,835.57 386,854.84 " fill="none" id="Controller-to-DTO2_API" style="stroke:#181818;stroke-width:1.0;"/><path d="M394.4572,861.7618 A9,9 0 0 0 377.5428 861.7618" fill="none" style="stroke:#181818;stroke-width:1.5;"/></g><!--link S_API to Service--><g id="link_S_API_Service"><path d="M264.15,883.24 C262.15,902.6 257.07,951.9 253.58,985.82 " fill="none" id="S_API-Service" style="stroke:#181818;stroke-width:1.0;"/></g><!--link DTO2_API to Service--><g id="link_DTO2_API_Service"><path d="M378.3,883.24 C360.2,902.6 314.12,951.9 282.42,985.82 " fill="none" id="DTO2_API-Service" style="stroke:#181818;stroke-width:1.0;"/></g><!--reverse link DTO2_API to DTO1--><g id="link_DTO2_API_DTO1"><path d="M393.8702,892.3472 C402.6502,911.7072 420.88,951.9 436.27,985.82 " fill="none" id="DTO2_API-backto-DTO1" style="stroke:#181818;stroke-width:1.0;"/><path d="M383.3092,889.5364 A9,9 0 0 0 398.7135 882.5503" fill="none" style="stroke:#181818;stroke-width:1.5;"/></g><!--reverse link API_Fleet to p3--><g id="link_API_Fleet_p3"><path d="M584.8629,32.7666 C591.2729,52.1966 604.01,90.8 609.27,106.76 " fill="none" id="API_Fleet-backto-p3" style="stroke:#181818;stroke-width:1.0;"/><path d="M574.6629,28.8428 A9,9 0 0 0 590.7258 23.5436" fill="none" style="stroke:#181818;stroke-width:1.5;"/></g><!--reverse link API_Campus to p4--><g id="link_API_Campus_p4"><path d="M697.9693,32.7372 C691.3593,52.1672 678.21,90.8 672.78,106.76 " fill="none" id="API_Campus-backto-p4" style="stroke:#181818;stroke-width:1.0;"/><path d="M692.192,23.4604 A9,9 0 0 0 708.2052 28.908" fill="none" style="stroke:#181818;stroke-width:1.5;"/></g><!--link p3 to p7--><g id="link_p3_p7"><path d="M611.79,119.27 C614.31,136.53 622,193.01 622,240 C622,240 622,240 622,580 C622,696.85 640.4,839.1 644.29,867.81 " fill="none" id="p3-p7" style="stroke:#181818;stroke-width:1.0;"/></g><!--link p4 to p8--><g id="link_p4_p8"><path d="M672.8,119.21 C678.53,136.29 696,192.27 696,240 C696,240 696,240 696,580 C696,696.49 696,839.03 696,867.8 " fill="none" id="p4-p8" style="stroke:#181818;stroke-width:1.0;"/></g><!--link HTTPDriver to HTTP_API--><g id="link_HTTPDriver_HTTP_API"><path d="M655.5009,1067.5646 C655.4481,1067.605 655.3952,1067.6454 655.3423,1067.6857 C655.2366,1067.7664 655.1308,1067.8469 655.0248,1067.9273 C654.813,1068.0881 654.6009,1068.2483 654.3884,1068.4078 C650.9894,1070.9606 647.5125,1073.355 644,1075.5 C596.55,1104.46 575.3,1091.3 526,1117 C502.04,1129.49 477.08,1149.27 464.09,1160.16 " fill="none" id="HTTPDriver-HTTP_API" style="stroke:#181818;stroke-width:1.0;"/></g><!--reverse link HTTP_API to Repository--><g id="link_HTTP_API_Repository"><path d="M442.4677,1186.139 C427.4377,1205.499 395.28,1246.9 368.93,1280.82 " fill="none" id="HTTP_API-backto-Repository" style="stroke:#181818;stroke-width:1.0;"/><path d="M440.032,1175.4852 A9,9 0 0 0 453.3927 1185.8577" fill="none" style="stroke:#181818;stroke-width:1.5;"/></g><!--link HTTPDriver to DTO_API--><g id="link_HTTPDriver_DTO_API"><path d="M653.6611,1067.5952 C653.5637,1067.6782 653.4663,1067.7612 653.3689,1067.8441 C650.2513,1070.4963 647.1125,1073.07 644,1075.5 C616.99,1096.6 602.23,1091.8 579,1117 C567.05,1129.96 562.2621,1139.8396 558.2521,1150.5996 " fill="none" id="HTTPDriver-to-DTO_API" style="stroke:#181818;stroke-width:1.0;"/><path d="M563.7597,1160.039 A9,9 0 0 0 547.9102 1154.1322" fill="none" style="stroke:#181818;stroke-width:1.5;"/></g><!--link DTO_API to DTO--><g id="link_DTO_API_DTO"><path d="M561.16,1169 C572.74,1169 584.31,1169 595.89,1169 " fill="none" id="DTO_API-DTO" style="stroke:#181818;stroke-width:1.0;"/></g><!--link R_API to Repository--><g id="link_R_API_Repository"><path d="M597.16,1030.73 C594.07,1042.53 586.69,1064.11 572,1075.5 C505.07,1127.4 445.85,1057.07 386,1117 C342.6,1160.46 337.87,1236.54 339.29,1280.83 " fill="none" id="R_API-Repository" style="stroke:#181818;stroke-width:1.0;"/></g><!--link Service to R_API--><g id="link_Service_R_API"><path d="M291.21,985.86 C308.11,973.48 328.6,961.11 349.5,954.75 C436.66,928.22 474.17,911.76 554.5,954.75 C577.59,967.11 587.4195,987.8845 592.7995,1003.0645 " fill="none" id="Service-to-R_API" style="stroke:#181818;stroke-width:1.0;"/><path d="M603.0831,1006.7635 A9,9 0 0 0 587.1403 1012.4138" fill="none" style="stroke:#181818;stroke-width:1.5;"/></g><!--link Repository to Service--><g id="link_Repository_Service"><path d="M337.97,1280.95 C332.57,1240.68 321.23,1172.55 301,1117 C293.47,1096.33 285.0714,1079.8238 274.9414,1062.4438 " fill="none" id="Repository-to-Service" style="stroke:#181818;stroke-width:1.0;stroke-dasharray:7.0,7.0;"/><polygon fill="#181818" points="271.92,1057.26,272.9962,1067.0499,274.4378,1061.5798,279.9079,1063.0214,271.92,1057.26" style="stroke:#181818;stroke-width:1.0;"/></g><!--link Service to Model_API--><g id="link_Service_Model_API"><path d="M250,1057.35 C250,1091.32 250,1130.57 250,1149.84 " fill="none" id="Service-to-Model_API" style="stroke:#181818;stroke-width:1.0;"/><path d="M258.4572,1156.7618 A9,9 0 0 0 241.5428 1156.7618" fill="none" style="stroke:#181818;stroke-width:1.5;"/></g><!--link Model to Model_API--><g id="link_Model_Model_API"><path d="M126.04,1057.35 C164.09,1091.32 219.27,1140.57 240.86,1159.84 " fill="none" id="Model-Model_API" style="stroke:#181818;stroke-width:1.0;"/></g><!--reverse link Model_API to Repository--><g id="link_Model_API_Repository"><path d="M260.5539,1186.6924 C272.7939,1206.0524 298.62,1246.9 320.07,1280.82 " fill="none" id="Model_API-backto-Repository" style="stroke:#181818;stroke-width:1.0;"/><path d="M249.7065,1185.3612 A9,9 0 0 0 264.0033 1176.3224" fill="none" style="stroke:#181818;stroke-width:1.5;"/></g><!--SRC=[bLLBJ-Cm4BxFhx2obxPIs6qfZmEgX0feUq15VN1Q2QMDsreaTkG4M8JuxpkE4zj94y8w5y_ZcndFAmSMKh9bSXjHEAWxZPFidSGqtb2P0gJFZ2U136AI1678-9uCmUKodb6v2xQKV031imcsptifNdWu5P6GvCUlNH3iTl3fWhOYJWIdFEi6MVlhsTCqY9ENb0GfyGQ3zOneUZ3mgcft4QMPrSh9gjBrGrKBwJQrYa-bPvs2VGUwkReov6I2r7ICx-HPm3YLoD06xYIoRdb8UkjP7srW0X8XCv8CSmNyohThzgYPVThC7jVPUNRLiP4-ClfMYrM7fWGOqOV1gAFjdjNj7gkSjwbyDiJmUxLwk97ibSh6I9IOQ7az8EtiuejujCRb_uIZNdulGXgrveNaObNpO_GKAof55BKynegRuKigNndsMXEsa3K3soF-8jW5JKJACY7V6v5A_FCw39AiBToRrRmHgVYtVn76XFHdN5zQJGnRRHHFzgjfCrRiR4wVr30UvvZyuIGVLDUvXJtUEpYtj1su-SR1pJSfXlaDRqi7P8hPWLau65MFJe0Q5mTJcPuEA6RSGIBLYSYpvM2-bpsqFAew6jKmODUx7_gu3y4iyfmU0Qv87ozdW4jHNSx1K_NpY2_P_f3vHOcWg5GVTJmpsPvH3iKRztkwVUfCtHoWMqipdV66edTQ1SgbyGZENYZjBxNvOq6P7rYw7egE0PEzDdw_4AZ90dNi_wqK9QVW_CqCTmpuBr7Pl03yUwZB9JZRkL0hEmnCgvK6FBjGl6DWhsmmA1kjh1NIu6A97z4TylFcXqNX8-TvnNEzAk3aP4AigDoYfL_Jfg3NP15kZTt-53oVy0y0]--></g></svg>