<?xml version="1.0" encoding="us-ascii" standalone="no"?><svg xmlns="http://www.w3.org/2000/svg" xmlns:xlink="http://www.w3.org/1999/xlink" contentStyleType="text/css" height="481px" preserveAspectRatio="none" style="width:358px;height:481px;background:#FFFFFF;" version="1.1" viewBox="0 0 358 481" width="358px" zoomAndPan="magnify"><defs/><g><rect fill="#FFFFFF" height="295.6191" style="stroke:#181818;stroke-width:1.0;" width="10" x="17.5" y="93.6211"/><rect fill="#FFFFFF" height="31.291" style="stroke:#181818;stroke-width:1.0;" width="10" x="198.5" y="116.9121"/><rect fill="#FFFFFF" height="31.291" style="stroke:#181818;stroke-width:1.0;" width="10" x="198.5" y="179.4941"/><rect fill="#FFFFFF" height="138.1641" style="stroke:#181818;stroke-width:1.0;" width="10" x="198.5" y="242.0762"/><rect fill="#FFFFFF" height="31.291" style="stroke:#181818;stroke-width:1.0;" width="10" x="329.5" y="317.6582"/><line style="stroke:#181818;stroke-width:0.5;stroke-dasharray:5.0,5.0;" x1="22" x2="22" y1="83.6211" y2="398.2402"/><line style="stroke:#181818;stroke-width:0.5;stroke-dasharray:5.0,5.0;" x1="203" x2="203" y1="83.6211" y2="398.2402"/><line style="stroke:#181818;stroke-width:0.5;stroke-dasharray:5.0,5.0;" x1="334" x2="334" y1="83.6211" y2="398.2402"/><text fill="#000000" font-family="sans-serif" font-size="14" lengthAdjust="spacing" textLength="29" x="5" y="80.1074">User</text><ellipse cx="22.5" cy="13.5" fill="#E2E2F0" rx="8" ry="8" style="stroke:#181818;stroke-width:0.5;"/><path d="M22.5,21.5 L22.5,48.5 M9.5,29.5 L35.5,29.5 M22.5,48.5 L9.5,63.5 M22.5,48.5 L35.5,63.5 " fill="none" style="stroke:#181818;stroke-width:0.5;"/><text fill="#000000" font-family="sans-serif" font-size="14" lengthAdjust="spacing" textLength="29" x="5" y="412.3477">User</text><ellipse cx="22.5" cy="424.3613" fill="#E2E2F0" rx="8" ry="8" style="stroke:#181818;stroke-width:0.5;"/><path d="M22.5,432.3613 L22.5,459.3613 M9.5,440.3613 L35.5,440.3613 M22.5,459.3613 L9.5,474.3613 M22.5,459.3613 L35.5,474.3613 " fill="none" style="stroke:#181818;stroke-width:0.5;"/><rect fill="#E2E2F0" height="32.6211" rx="2.5" ry="2.5" style="stroke:#181818;stroke-width:0.5;" width="73" x="167" y="50"/><text fill="#000000" font-family="sans-serif" font-size="14" lengthAdjust="spacing" textLength="59" x="174" y="72.1074">FrontEnd</text><rect fill="#E2E2F0" height="32.6211" rx="2.5" ry="2.5" style="stroke:#181818;stroke-width:0.5;" width="73" x="167" y="397.2402"/><text fill="#000000" font-family="sans-serif" font-size="14" lengthAdjust="spacing" textLength="59" x="174" y="419.3477">FrontEnd</text><rect fill="#E2E2F0" height="32.6211" rx="2.5" ry="2.5" style="stroke:#181818;stroke-width:0.5;" width="35" x="317" y="50"/><text fill="#000000" font-family="sans-serif" font-size="14" lengthAdjust="spacing" textLength="21" x="324" y="72.1074">MD</text><rect fill="#E2E2F0" height="32.6211" rx="2.5" ry="2.5" style="stroke:#181818;stroke-width:0.5;" width="35" x="317" y="397.2402"/><text fill="#000000" font-family="sans-serif" font-size="14" lengthAdjust="spacing" textLength="21" x="324" y="419.3477">MD</text><rect fill="#FFFFFF" height="295.6191" style="stroke:#181818;stroke-width:1.0;" width="10" x="17.5" y="93.6211"/><rect fill="#FFFFFF" height="31.291" style="stroke:#181818;stroke-width:1.0;" width="10" x="198.5" y="116.9121"/><rect fill="#FFFFFF" height="31.291" style="stroke:#181818;stroke-width:1.0;" width="10" x="198.5" y="179.4941"/><rect fill="#FFFFFF" height="138.1641" style="stroke:#181818;stroke-width:1.0;" width="10" x="198.5" y="242.0762"/><rect fill="#FFFFFF" height="31.291" style="stroke:#181818;stroke-width:1.0;" width="10" x="329.5" y="317.6582"/><polygon fill="#181818" points="186.5,112.9121,196.5,116.9121,186.5,120.9121,190.5,116.9121" style="stroke:#181818;stroke-width:1.0;"/><line style="stroke:#181818;stroke-width:1.0;" x1="27.5" x2="192.5" y1="116.9121" y2="116.9121"/><text fill="#000000" font-family="sans-serif" font-size="13" lengthAdjust="spacing" textLength="112" x="34.5" y="111.6494">requests to register</text><polygon fill="#181818" points="38.5,144.2031,28.5,148.2031,38.5,152.2031,34.5,148.2031" style="stroke:#181818;stroke-width:1.0;"/><line style="stroke:#181818;stroke-width:1.0;" x1="32.5" x2="202.5" y1="148.2031" y2="148.2031"/><text fill="#000000" font-family="sans-serif" font-size="13" lengthAdjust="spacing" textLength="127" x="44.5" y="142.9404">show registration form</text><polygon fill="#181818" points="186.5,175.4941,196.5,179.4941,186.5,183.4941,190.5,179.4941" style="stroke:#181818;stroke-width:1.0;"/><line style="stroke:#181818;stroke-width:1.0;" x1="27.5" x2="192.5" y1="179.4941" y2="179.4941"/><text fill="#000000" font-family="sans-serif" font-size="13" lengthAdjust="spacing" textLength="130" x="34.5" y="174.2314">fills in registration form</text><polygon fill="#181818" points="38.5,206.7852,28.5,210.7852,38.5,214.7852,34.5,210.7852" style="stroke:#181818;stroke-width:1.0;"/><line style="stroke:#181818;stroke-width:1.0;" x1="32.5" x2="202.5" y1="210.7852" y2="210.7852"/><text fill="#000000" font-family="sans-serif" font-size="13" lengthAdjust="spacing" textLength="116" x="44.5" y="205.5225">shows consent form</text><polygon fill="#181818" points="186.5,238.0762,196.5,242.0762,186.5,246.0762,190.5,242.0762" style="stroke:#181818;stroke-width:1.0;"/><line style="stroke:#181818;stroke-width:1.0;" x1="27.5" x2="192.5" y1="242.0762" y2="242.0762"/><text fill="#000000" font-family="sans-serif" font-size="13" lengthAdjust="spacing" textLength="96" x="34.5" y="236.8135">accepts consent</text><line style="stroke:#181818;stroke-width:1.0;" x1="208.5" x2="250.5" y1="273.3672" y2="273.3672"/><line style="stroke:#181818;stroke-width:1.0;" x1="250.5" x2="250.5" y1="273.3672" y2="286.3672"/><line style="stroke:#181818;stroke-width:1.0;" x1="209.5" x2="250.5" y1="286.3672" y2="286.3672"/><polygon fill="#181818" points="219.5,282.3672,209.5,286.3672,219.5,290.3672,215.5,286.3672" style="stroke:#181818;stroke-width:1.0;"/><text fill="#000000" font-family="sans-serif" font-size="13" lengthAdjust="spacing" textLength="72" x="215.5" y="268.1045">validate form</text><polygon fill="#181818" points="317.5,313.6582,327.5,317.6582,317.5,321.6582,321.5,317.6582" style="stroke:#181818;stroke-width:1.0;"/><line style="stroke:#181818;stroke-width:1.0;" x1="208.5" x2="323.5" y1="317.6582" y2="317.6582"/><text fill="#000000" font-family="sans-serif" font-size="13" lengthAdjust="spacing" textLength="76" x="215.5" y="312.3955">post(register)</text><polygon fill="#181818" points="219.5,344.9492,209.5,348.9492,219.5,352.9492,215.5,348.9492" style="stroke:#181818;stroke-width:1.0;"/><line style="stroke:#181818;stroke-width:1.0;" x1="213.5" x2="333.5" y1="348.9492" y2="348.9492"/><text fill="#000000" font-family="sans-serif" font-size="13" lengthAdjust="spacing" textLength="97" x="225.5" y="343.6865">resolve(success)</text><polygon fill="#181818" points="38.5,376.2402,28.5,380.2402,38.5,384.2402,34.5,380.2402" style="stroke:#181818;stroke-width:1.0;"/><line style="stroke:#181818;stroke-width:1.0;" x1="32.5" x2="202.5" y1="380.2402" y2="380.2402"/><text fill="#000000" font-family="sans-serif" font-size="13" lengthAdjust="spacing" textLength="147" x="44.5" y="374.9775">shows success message</text><!--SRC=[XP0x4i8m34Hxdq8bARX02geaNKeEe744U2QnWYN2zP7vXF0PQ3GU-Urg9VJA2RP2oOsODFWmObHe4aUjOmSeqDGlNssLcstb77eD4ohTvBd0UcDu2OcE9n8LKBRtFeWQCEDcsDGPpP8IvC3dEvLG0qVOSHfSHql1qdqN-buWn2-YNpC4F4SXM-6FFtfFeywu- -AQiGdxqENkrUxMRwiIHXPTFROkdc8xcTrklf1mFz5AJZPCf5Z6CV0p-ns4mGhkwIs-km00]--></g></svg>