<?xml version="1.0" encoding="us-ascii" standalone="no"?><svg xmlns="http://www.w3.org/2000/svg" xmlns:xlink="http://www.w3.org/1999/xlink" contentStyleType="text/css" height="734.8px" preserveAspectRatio="none" style="width:957px;height:734px;background:#FFFFFF;" version="1.1" viewBox="0 0 957 734" width="957.6px" zoomAndPan="magnify"><defs/><g><!--cluster RobDroneGo_L--><g id="cluster_RobDroneGo_L"><rect fill="#0FAAFF" height="223.6" rx="1" ry="1" style="stroke:#181818;stroke-width:0.4000000000000001;" width="387.2" x="199.6" y="509"/><rect fill="#0FAAFF" height="4" style="stroke:#181818;stroke-width:0.4000000000000001;" width="6" x="578.8" y="511"/><rect fill="#0FAAFF" height="0.8" style="stroke:#181818;stroke-width:0.4000000000000001;" width="1.6" x="578" y="511.8"/><rect fill="#0FAAFF" height="0.8" style="stroke:#181818;stroke-width:0.4000000000000001;" width="1.6" x="578" y="513.4"/><text fill="#000000" font-family="sans-serif" font-size="5.6" font-style="italic" lengthAdjust="spacing" textLength="34.4" x="376" y="520.643">&#171;component&#187;</text><text fill="#000000" font-family="sans-serif" font-size="5.6" font-style="italic" lengthAdjust="spacing" textLength="35.2" x="375.6" y="528.0914">&#171;system(C4)&#187;</text><text fill="#000000" font-family="sans-serif" font-size="5.6" font-weight="bold" lengthAdjust="spacing" textLength="36.4" x="375" y="536.3398">RobDroneGo</text></g><!--cluster CM_L--><g id="cluster_CM_L"><rect fill="#0FAAFF" height="84" rx="1" ry="1" style="stroke:#181818;stroke-width:0.4000000000000001;" width="66.4" x="504" y="548.2"/><rect fill="#0FAAFF" height="4" style="stroke:#181818;stroke-width:0.4000000000000001;" width="6" x="562.4" y="550.2"/><rect fill="#0FAAFF" height="0.8" style="stroke:#181818;stroke-width:0.4000000000000001;" width="1.6" x="561.6" y="551"/><rect fill="#0FAAFF" height="0.8" style="stroke:#181818;stroke-width:0.4000000000000001;" width="1.6" x="561.6" y="552.6"/><text fill="#000000" font-family="sans-serif" font-size="5.6" font-style="italic" lengthAdjust="spacing" textLength="34.4" x="520" y="559.843">&#171;component&#187;</text><text fill="#000000" font-family="sans-serif" font-size="5.6" font-weight="bold" lengthAdjust="spacing" textLength="60.4" x="507" y="568.0914">Campus Management</text></g><!--cluster FM_L--><g id="cluster_FM_L"><rect fill="#0FAAFF" height="84" rx="1" ry="1" style="stroke:#181818;stroke-width:0.4000000000000001;" width="57.2" x="341.8" y="548.2"/><rect fill="#0FAAFF" height="4" style="stroke:#181818;stroke-width:0.4000000000000001;" width="6" x="391" y="550.2"/><rect fill="#0FAAFF" height="0.8" style="stroke:#181818;stroke-width:0.4000000000000001;" width="1.6" x="390.2" y="551"/><rect fill="#0FAAFF" height="0.8" style="stroke:#181818;stroke-width:0.4000000000000001;" width="1.6" x="390.2" y="552.6"/><text fill="#000000" font-family="sans-serif" font-size="5.6" font-style="italic" lengthAdjust="spacing" textLength="34.4" x="353.2" y="559.843">&#171;component&#187;</text><text fill="#000000" font-family="sans-serif" font-size="5.6" font-weight="bold" lengthAdjust="spacing" textLength="52.4" x="344.2" y="568.0914">Fleet Management</text></g><!--cluster TM_L--><g id="cluster_TM_L"><rect fill="#0FAAFF" height="84" rx="1" ry="1" style="stroke:#181818;stroke-width:0.4000000000000001;" width="55.6" x="280.2" y="548.2"/><rect fill="#0FAAFF" height="4" style="stroke:#181818;stroke-width:0.4000000000000001;" width="6" x="327.8" y="550.2"/><rect fill="#0FAAFF" height="0.8" style="stroke:#181818;stroke-width:0.4000000000000001;" width="1.6" x="327" y="551"/><rect fill="#0FAAFF" height="0.8" style="stroke:#181818;stroke-width:0.4000000000000001;" width="1.6" x="327" y="552.6"/><text fill="#000000" font-family="sans-serif" font-size="5.6" font-style="italic" lengthAdjust="spacing" textLength="34.4" x="290.8" y="559.843">&#171;component&#187;</text><text fill="#000000" font-family="sans-serif" font-size="5.6" font-weight="bold" lengthAdjust="spacing" textLength="50.8" x="282.6" y="568.0914">Task Management</text></g><!--cluster UM_L--><g id="cluster_UM_L"><rect fill="#0FAAFF" height="65.2" rx="1" ry="1" style="stroke:#181818;stroke-width:0.4000000000000001;" width="56" x="409.2" y="548.2"/><rect fill="#0FAAFF" height="4" style="stroke:#181818;stroke-width:0.4000000000000001;" width="6" x="457.2" y="550.2"/><rect fill="#0FAAFF" height="0.8" style="stroke:#181818;stroke-width:0.4000000000000001;" width="1.6" x="456.4" y="551"/><rect fill="#0FAAFF" height="0.8" style="stroke:#181818;stroke-width:0.4000000000000001;" width="1.6" x="456.4" y="552.6"/><text fill="#000000" font-family="sans-serif" font-size="5.6" font-style="italic" lengthAdjust="spacing" textLength="34.4" x="420" y="559.843">&#171;component&#187;</text><text fill="#000000" font-family="sans-serif" font-size="5.6" font-weight="bold" lengthAdjust="spacing" textLength="51.2" x="411.6" y="568.0914">User Management</text></g><!--cluster Planning_L--><g id="cluster_Planning_L"><rect fill="#0FAAFF" height="50.8" rx="1" ry="1" style="stroke:#181818;stroke-width:0.4000000000000001;" width="66" x="329.6" y="672.2"/><rect fill="#0FAAFF" height="4" style="stroke:#181818;stroke-width:0.4000000000000001;" width="6" x="387.6" y="674.2"/><rect fill="#0FAAFF" height="0.8" style="stroke:#181818;stroke-width:0.4000000000000001;" width="1.6" x="386.8" y="675"/><rect fill="#0FAAFF" height="0.8" style="stroke:#181818;stroke-width:0.4000000000000001;" width="1.6" x="386.8" y="676.6"/><text fill="#000000" font-family="sans-serif" font-size="5.6" font-style="italic" lengthAdjust="spacing" textLength="34.4" x="345.4" y="683.843">&#171;component&#187;</text><text fill="#000000" font-family="sans-serif" font-size="5.6" font-weight="bold" lengthAdjust="spacing" textLength="24.4" x="350.4" y="692.0914">Planning</text></g><!--cluster RobDroneGo_I--><g id="cluster_RobDroneGo_I"><rect fill="#0FAAFF" height="350.6" rx="1" ry="1" style="stroke:#181818;stroke-width:0.4000000000000001;" width="208" x="539.2" y="45.6"/><rect fill="#0FAAFF" height="4" style="stroke:#181818;stroke-width:0.4000000000000001;" width="6" x="739.2" y="47.6"/><rect fill="#0FAAFF" height="0.8" style="stroke:#181818;stroke-width:0.4000000000000001;" width="1.6" x="738.4" y="48.4"/><rect fill="#0FAAFF" height="0.8" style="stroke:#181818;stroke-width:0.4000000000000001;" width="1.6" x="738.4" y="50"/><text fill="#000000" font-family="sans-serif" font-size="5.6" font-style="italic" lengthAdjust="spacing" textLength="34.4" x="626" y="57.243">&#171;component&#187;</text><text fill="#000000" font-family="sans-serif" font-size="5.6" font-style="italic" lengthAdjust="spacing" textLength="35.2" x="625.6" y="64.6914">&#171;system(C4)&#187;</text><text fill="#000000" font-family="sans-serif" font-size="5.6" font-weight="bold" lengthAdjust="spacing" textLength="36.4" x="625" y="72.9398">RobDroneGo</text></g><!--cluster MD_I--><g id="cluster_MD_I"><rect fill="#0FAAFF" height="67.8" rx="1" ry="1" style="stroke:#181818;stroke-width:0.4000000000000001;" width="164.4" x="565.2" y="310"/><rect fill="#0FAAFF" height="4" style="stroke:#181818;stroke-width:0.4000000000000001;" width="6" x="721.6" y="312"/><rect fill="#0FAAFF" height="0.8" style="stroke:#181818;stroke-width:0.4000000000000001;" width="1.6" x="720.8" y="312.8"/><rect fill="#0FAAFF" height="0.8" style="stroke:#181818;stroke-width:0.4000000000000001;" width="1.6" x="720.8" y="314.4"/><text fill="#000000" font-family="sans-serif" font-size="5.6" font-style="italic" lengthAdjust="spacing" textLength="34.4" x="630.2" y="321.643">&#171;component&#187;</text><text fill="#000000" font-family="sans-serif" font-size="5.6" font-style="italic" lengthAdjust="spacing" textLength="41.2" x="626.8" y="329.0914">&#171;container(C4)&#187;</text><text fill="#000000" font-family="sans-serif" font-size="5.6" font-weight="bold" lengthAdjust="spacing" textLength="48.4" x="623.2" y="337.3398">Master Data (MD)</text></g><!--cluster FE_I--><g id="cluster_FE_I"><rect fill="#0FAAFF" height="92" rx="1" ry="1" style="stroke:#181818;stroke-width:0.4000000000000001;" width="57.6" x="552.8" y="127.2"/><rect fill="#0FAAFF" height="4" style="stroke:#181818;stroke-width:0.4000000000000001;" width="6" x="602.4" y="129.2"/><rect fill="#0FAAFF" height="0.8" style="stroke:#181818;stroke-width:0.4000000000000001;" width="1.6" x="601.6" y="130"/><rect fill="#0FAAFF" height="0.8" style="stroke:#181818;stroke-width:0.4000000000000001;" width="1.6" x="601.6" y="131.6"/><text fill="#000000" font-family="sans-serif" font-size="5.6" font-style="italic" lengthAdjust="spacing" textLength="34.4" x="564.4" y="138.843">&#171;component&#187;</text><text fill="#000000" font-family="sans-serif" font-size="5.6" font-style="italic" lengthAdjust="spacing" textLength="41.2" x="561" y="146.2914">&#171;container(C4)&#187;</text><text fill="#000000" font-family="sans-serif" font-size="5.6" font-weight="bold" lengthAdjust="spacing" textLength="26" x="568.6" y="154.5398">FrontEnd</text></g><!--cluster Planning_I--><g id="cluster_Planning_I"><rect fill="#0FAAFF" height="45.6" rx="1" ry="1" style="stroke:#181818;stroke-width:0.4000000000000001;" width="40" x="647.15" y="108.4"/><rect fill="#0FAAFF" height="4" style="stroke:#181818;stroke-width:0.4000000000000001;" width="6" x="679.15" y="110.4"/><rect fill="#0FAAFF" height="0.8" style="stroke:#181818;stroke-width:0.4000000000000001;" width="1.6" x="678.35" y="111.2"/><rect fill="#0FAAFF" height="0.8" style="stroke:#181818;stroke-width:0.4000000000000001;" width="1.6" x="678.35" y="112.8"/><text fill="#000000" font-family="sans-serif" font-size="5.6" font-style="italic" lengthAdjust="spacing" textLength="34.4" x="649.95" y="120.043">&#171;component&#187;</text><text fill="#000000" font-family="sans-serif" font-size="5.6" font-style="italic" lengthAdjust="spacing" textLength="35.2" x="649.55" y="127.4914">&#171;system(C4)&#187;</text><text fill="#000000" font-family="sans-serif" font-size="5.6" font-weight="bold" lengthAdjust="spacing" textLength="24.4" x="654.95" y="135.7398">Planning</text></g><text fill="#000000" font-family="sans-serif" font-size="5.6" lengthAdjust="spacing" textLength="1.6" x="198.8" y="565.9945">&#160;</text><rect fill="#0FAAFF" height="4.8" style="stroke:#181818;stroke-width:0.6000000000000001;" width="4.8" x="197.2" y="572.6"/><text fill="#000000" font-family="sans-serif" font-size="5.6" lengthAdjust="spacing" textLength="1.6" x="562.4" y="499.9945">&#160;</text><rect fill="#0FAAFF" height="4.8" style="stroke:#181818;stroke-width:0.6000000000000001;" width="4.8" x="560.8" y="506.6"/><text fill="#000000" font-family="sans-serif" font-size="5.6" lengthAdjust="spacing" textLength="1.6" x="529.6" y="499.9945">&#160;</text><rect fill="#0FAAFF" height="4.8" style="stroke:#181818;stroke-width:0.6000000000000001;" width="4.8" x="528" y="506.6"/><text fill="#000000" font-family="sans-serif" font-size="5.6" lengthAdjust="spacing" textLength="1.6" x="323.6" y="499.9945">&#160;</text><rect fill="#0FAAFF" height="4.8" style="stroke:#181818;stroke-width:0.6000000000000001;" width="4.8" x="322" y="506.6"/><text fill="#000000" font-family="sans-serif" font-size="5.6" lengthAdjust="spacing" textLength="1.6" x="290.8" y="499.9945">&#160;</text><rect fill="#0FAAFF" height="4.8" style="stroke:#181818;stroke-width:0.6000000000000001;" width="4.8" x="289.2" y="506.6"/><text fill="#000000" font-family="sans-serif" font-size="5.6" lengthAdjust="spacing" textLength="1.6" x="385.6" y="499.9945">&#160;</text><rect fill="#0FAAFF" height="4.8" style="stroke:#181818;stroke-width:0.6000000000000001;" width="4.8" x="384" y="506.6"/><text fill="#000000" font-family="sans-serif" font-size="5.6" lengthAdjust="spacing" textLength="1.6" x="352.8" y="499.9945">&#160;</text><rect fill="#0FAAFF" height="4.8" style="stroke:#181818;stroke-width:0.6000000000000001;" width="4.8" x="351.2" y="506.6"/><text fill="#000000" font-family="sans-serif" font-size="5.6" lengthAdjust="spacing" textLength="1.6" x="396.4" y="499.9945">&#160;</text><rect fill="#0FAAFF" height="4.8" style="stroke:#181818;stroke-width:0.6000000000000001;" width="4.8" x="394.8" y="506.6"/><text fill="#000000" font-family="sans-serif" font-size="5.6" lengthAdjust="spacing" textLength="1.6" x="342.4" y="499.9945">&#160;</text><rect fill="#0FAAFF" height="4.8" style="stroke:#181818;stroke-width:0.6000000000000001;" width="4.8" x="340.8" y="506.6"/><text fill="#000000" font-family="sans-serif" font-size="5.6" lengthAdjust="spacing" textLength="1.6" x="562.4" y="539.1945">&#160;</text><rect fill="#0FAAFF" height="4.8" style="stroke:#181818;stroke-width:0.6000000000000001;" width="4.8" x="560.8" y="545.8"/><text fill="#000000" font-family="sans-serif" font-size="5.6" lengthAdjust="spacing" textLength="1.6" x="529.6" y="539.1945">&#160;</text><rect fill="#0FAAFF" height="4.8" style="stroke:#181818;stroke-width:0.6000000000000001;" width="4.8" x="528" y="545.8"/><text fill="#000000" font-family="sans-serif" font-size="5.6" lengthAdjust="spacing" textLength="1.6" x="510.4" y="641.043">&#160;</text><rect fill="#0FAAFF" height="4.8" style="stroke:#181818;stroke-width:0.6000000000000001;" width="4.8" x="508.8" y="629.8"/><text fill="#000000" font-family="sans-serif" font-size="5.6" lengthAdjust="spacing" textLength="1.6" x="386" y="539.1945">&#160;</text><rect fill="#0FAAFF" height="4.8" style="stroke:#181818;stroke-width:0.6000000000000001;" width="4.8" x="384.4" y="545.8"/><text fill="#000000" font-family="sans-serif" font-size="5.6" lengthAdjust="spacing" textLength="1.6" x="353.2" y="539.1945">&#160;</text><rect fill="#0FAAFF" height="4.8" style="stroke:#181818;stroke-width:0.6000000000000001;" width="4.8" x="351.6" y="545.8"/><text fill="#000000" font-family="sans-serif" font-size="5.6" lengthAdjust="spacing" textLength="1.6" x="368.8" y="641.043">&#160;</text><rect fill="#0FAAFF" height="4.8" style="stroke:#181818;stroke-width:0.6000000000000001;" width="4.8" x="367.2" y="629.8"/><text fill="#000000" font-family="sans-serif" font-size="5.6" lengthAdjust="spacing" textLength="1.6" x="323.6" y="539.1945">&#160;</text><rect fill="#0FAAFF" height="4.8" style="stroke:#181818;stroke-width:0.6000000000000001;" width="4.8" x="322" y="545.8"/><text fill="#000000" font-family="sans-serif" font-size="5.6" lengthAdjust="spacing" textLength="1.6" x="290.8" y="539.1945">&#160;</text><rect fill="#0FAAFF" height="4.8" style="stroke:#181818;stroke-width:0.6000000000000001;" width="4.8" x="289.2" y="545.8"/><text fill="#000000" font-family="sans-serif" font-size="5.6" lengthAdjust="spacing" textLength="1.6" x="308.4" y="641.043">&#160;</text><rect fill="#0FAAFF" height="4.8" style="stroke:#181818;stroke-width:0.6000000000000001;" width="4.8" x="306.8" y="629.8"/><text fill="#000000" font-family="sans-serif" font-size="5.6" lengthAdjust="spacing" textLength="1.6" x="446.8" y="539.1945">&#160;</text><rect fill="#0FAAFF" height="4.8" style="stroke:#181818;stroke-width:0.6000000000000001;" width="4.8" x="445.2" y="545.8"/><text fill="#000000" font-family="sans-serif" font-size="5.6" lengthAdjust="spacing" textLength="1.6" x="414" y="539.1945">&#160;</text><rect fill="#0FAAFF" height="4.8" style="stroke:#181818;stroke-width:0.6000000000000001;" width="4.8" x="412.4" y="545.8"/><text fill="#000000" font-family="sans-serif" font-size="5.6" lengthAdjust="spacing" textLength="1.6" x="387.6" y="663.1945">&#160;</text><rect fill="#0FAAFF" height="4.8" style="stroke:#181818;stroke-width:0.6000000000000001;" width="4.8" x="386" y="669.8"/><text fill="#000000" font-family="sans-serif" font-size="5.6" lengthAdjust="spacing" textLength="1.6" x="336" y="663.1945">&#160;</text><rect fill="#0FAAFF" height="4.8" style="stroke:#181818;stroke-width:0.6000000000000001;" width="4.8" x="334.4" y="669.8"/><text fill="#000000" font-family="sans-serif" font-size="5.6" lengthAdjust="spacing" textLength="1.6" x="368.8" y="663.1945">&#160;</text><rect fill="#0FAAFF" height="4.8" style="stroke:#181818;stroke-width:0.6000000000000001;" width="4.8" x="367.2" y="669.8"/><text fill="#000000" font-family="sans-serif" font-size="5.6" lengthAdjust="spacing" textLength="1.6" x="538.4" y="144.9945">&#160;</text><rect fill="#0FAAFF" height="4.8" style="stroke:#181818;stroke-width:0.6000000000000001;" width="4.8" x="536.8" y="151.6"/><text fill="#000000" font-family="sans-serif" font-size="5.6" lengthAdjust="spacing" textLength="1.6" x="607.2" y="36.5945">&#160;</text><rect fill="#0FAAFF" height="4.8" style="stroke:#181818;stroke-width:0.6000000000000001;" width="4.8" x="605.6" y="43.2"/><text fill="#000000" font-family="sans-serif" font-size="5.6" lengthAdjust="spacing" textLength="1.6" x="569.6" y="36.5945">&#160;</text><rect fill="#0FAAFF" height="4.8" style="stroke:#181818;stroke-width:0.6000000000000001;" width="4.8" x="568" y="43.2"/><text fill="#000000" font-family="sans-serif" font-size="5.6" lengthAdjust="spacing" textLength="1.6" x="739.2" y="36.5945">&#160;</text><rect fill="#0FAAFF" height="4.8" style="stroke:#181818;stroke-width:0.6000000000000001;" width="4.8" x="737.6" y="43.2"/><text fill="#000000" font-family="sans-serif" font-size="5.6" lengthAdjust="spacing" textLength="1.6" x="706.4" y="36.5945">&#160;</text><rect fill="#0FAAFF" height="4.8" style="stroke:#181818;stroke-width:0.6000000000000001;" width="4.8" x="704.8" y="43.2"/><text fill="#000000" font-family="sans-serif" font-size="5.6" lengthAdjust="spacing" textLength="1.6" x="673.6" y="36.5945">&#160;</text><rect fill="#0FAAFF" height="4.8" style="stroke:#181818;stroke-width:0.6000000000000001;" width="4.8" x="672" y="43.2"/><text fill="#000000" font-family="sans-serif" font-size="5.6" lengthAdjust="spacing" textLength="1.6" x="640.8" y="36.5945">&#160;</text><rect fill="#0FAAFF" height="4.8" style="stroke:#181818;stroke-width:0.6000000000000001;" width="4.8" x="639.2" y="43.2"/><text fill="#000000" font-family="sans-serif" font-size="5.6" lengthAdjust="spacing" textLength="1.6" x="550.8" y="36.5945">&#160;</text><rect fill="#0FAAFF" height="4.8" style="stroke:#181818;stroke-width:0.6000000000000001;" width="4.8" x="549.2" y="43.2"/><text fill="#000000" font-family="sans-serif" font-size="5.6" lengthAdjust="spacing" textLength="1.6" x="588.4" y="36.5945">&#160;</text><rect fill="#0FAAFF" height="4.8" style="stroke:#181818;stroke-width:0.6000000000000001;" width="4.8" x="586.8" y="43.2"/><!--entity Planning_API_I--><g id="elem_Planning_API_I"><ellipse cx="650.8" cy="219.2" fill="#0FAAFF" rx="3.2" ry="3.2" style="stroke:#181818;stroke-width:0.20000000000000004;"/><text fill="#000000" font-family="sans-serif" font-size="5.6" font-weight="bold" lengthAdjust="spacing" textLength="34.8" x="633.4" y="232.443">Planning API</text></g><!--entity MD_API_I--><g id="elem_MD_API_I"><ellipse cx="575.6" cy="270" fill="#0FAAFF" rx="3.2" ry="3.2" style="stroke:#181818;stroke-width:0.20000000000000004;"/><text fill="#000000" font-family="sans-serif" font-size="5.6" font-weight="bold" lengthAdjust="spacing" textLength="19.6" x="565.8" y="283.243">MD API</text></g><text fill="#000000" font-family="sans-serif" font-size="5.6" lengthAdjust="spacing" textLength="1.6" x="721.6" y="300.9945">&#160;</text><rect fill="#0FAAFF" height="4.8" style="stroke:#181818;stroke-width:0.6000000000000001;" width="4.8" x="720" y="307.6"/><text fill="#000000" font-family="sans-serif" font-size="5.6" lengthAdjust="spacing" textLength="1.6" x="688.8" y="300.9945">&#160;</text><rect fill="#0FAAFF" height="4.8" style="stroke:#181818;stroke-width:0.6000000000000001;" width="4.8" x="687.2" y="307.6"/><text fill="#000000" font-family="sans-serif" font-size="5.6" lengthAdjust="spacing" textLength="1.6" x="682" y="386.643">&#160;</text><rect fill="#0FAAFF" height="4.8" style="stroke:#181818;stroke-width:0.6000000000000001;" width="4.8" x="680.4" y="375.4"/><text fill="#000000" font-family="sans-serif" font-size="5.6" lengthAdjust="spacing" textLength="1.6" x="571.6" y="300.9945">&#160;</text><rect fill="#0FAAFF" height="4.8" style="stroke:#181818;stroke-width:0.6000000000000001;" width="4.8" x="570" y="307.6"/><text fill="#000000" font-family="sans-serif" font-size="5.6" lengthAdjust="spacing" textLength="1.6" x="604.4" y="300.9945">&#160;</text><rect fill="#0FAAFF" height="4.8" style="stroke:#181818;stroke-width:0.6000000000000001;" width="4.8" x="602.8" y="307.6"/><text fill="#000000" font-family="sans-serif" font-size="5.6" lengthAdjust="spacing" textLength="1.6" x="637.2" y="300.9945">&#160;</text><rect fill="#0FAAFF" height="4.8" style="stroke:#181818;stroke-width:0.6000000000000001;" width="4.8" x="635.6" y="307.6"/><text fill="#000000" font-family="sans-serif" font-size="5.6" lengthAdjust="spacing" textLength="1.6" x="670" y="300.9945">&#160;</text><rect fill="#0FAAFF" height="4.8" style="stroke:#181818;stroke-width:0.6000000000000001;" width="4.8" x="668.4" y="307.6"/><text fill="#000000" font-family="sans-serif" font-size="5.6" lengthAdjust="spacing" textLength="1.6" x="579.6" y="228.043">&#160;</text><rect fill="#0FAAFF" height="4.8" style="stroke:#181818;stroke-width:0.6000000000000001;" width="4.8" x="578" y="216.8"/><text fill="#000000" font-family="sans-serif" font-size="5.6" lengthAdjust="spacing" textLength="1.6" x="569.6" y="118.1945">&#160;</text><rect fill="#0FAAFF" height="4.8" style="stroke:#181818;stroke-width:0.6000000000000001;" width="4.8" x="568" y="124.8"/><text fill="#000000" font-family="sans-serif" font-size="5.6" lengthAdjust="spacing" textLength="1.6" x="602.4" y="118.1945">&#160;</text><rect fill="#0FAAFF" height="4.8" style="stroke:#181818;stroke-width:0.6000000000000001;" width="4.8" x="600.8" y="124.8"/><text fill="#000000" font-family="sans-serif" font-size="5.6" lengthAdjust="spacing" textLength="1.6" x="559.2" y="118.1945">&#160;</text><rect fill="#0FAAFF" height="4.8" style="stroke:#181818;stroke-width:0.6000000000000001;" width="4.8" x="557.6" y="124.8"/><text fill="#000000" font-family="sans-serif" font-size="5.6" lengthAdjust="spacing" textLength="1.6" x="592" y="118.1945">&#160;</text><rect fill="#0FAAFF" height="4.8" style="stroke:#181818;stroke-width:0.6000000000000001;" width="4.8" x="590.4" y="124.8"/><text fill="#000000" font-family="sans-serif" font-size="5.6" lengthAdjust="spacing" textLength="1.6" x="654" y="162.843">&#160;</text><rect fill="#0FAAFF" height="4.8" style="stroke:#181818;stroke-width:0.6000000000000001;" width="4.8" x="652.4" y="151.6"/><!--entity filesystem_API_L--><g id="elem_filesystem_API_L"><ellipse cx="164.8" cy="632.2" fill="#0FAAFF" rx="3.2" ry="3.2" style="stroke:#181818;stroke-width:0.20000000000000004;"/><text fill="#000000" font-family="sans-serif" font-size="5.6" font-weight="bold" lengthAdjust="spacing" textLength="38.8" x="145.4" y="645.443">filesystem API</text></g><!--entity CM_API_L--><g id="elem_CM_API_L"><ellipse cx="530.4" cy="469" fill="#0FAAFF" rx="3.2" ry="3.2" style="stroke:#181818;stroke-width:0.20000000000000004;"/><text fill="#000000" font-family="sans-serif" font-size="5.6" font-weight="bold" lengthAdjust="spacing" textLength="70.4" x="495.2" y="482.243">Campus management API</text></g><!--entity FM_API_L--><g id="elem_FM_API_L"><ellipse cx="316.4" cy="469" fill="#0FAAFF" rx="3.2" ry="3.2" style="stroke:#181818;stroke-width:0.20000000000000004;"/><text fill="#000000" font-family="sans-serif" font-size="5.6" font-weight="bold" lengthAdjust="spacing" textLength="62.4" x="285.2" y="482.243">Fleet management API</text></g><!--entity Task_API_L--><g id="elem_Task_API_L"><ellipse cx="111.2" cy="469" fill="#0FAAFF" rx="3.2" ry="3.2" style="stroke:#181818;stroke-width:0.20000000000000004;"/><text fill="#000000" font-family="sans-serif" font-size="5.6" font-weight="bold" lengthAdjust="spacing" textLength="60.8" x="80.8" y="482.243">Task management API</text></g><!--entity UM_API_L--><g id="elem_UM_API_L"><ellipse cx="455.6" cy="469" fill="#0FAAFF" rx="3.2" ry="3.2" style="stroke:#181818;stroke-width:0.20000000000000004;"/><text fill="#000000" font-family="sans-serif" font-size="5.6" font-weight="bold" lengthAdjust="spacing" textLength="61.2" x="425" y="482.243">User management API</text></g><!--entity CampusM_L--><g id="elem_CampusM_L"><ellipse cx="608.4" cy="469" fill="#0FAAFF" rx="3.2" ry="3.2" style="stroke:#181818;stroke-width:0.20000000000000004;"/><text fill="#000000" font-family="sans-serif" font-size="5.6" font-weight="bold" lengthAdjust="spacing" textLength="67.6" x="574.6" y="482.243">Campus Management UI</text></g><!--entity TaskM_L--><g id="elem_TaskM_L"><ellipse cx="179.6" cy="469" fill="#0FAAFF" rx="3.2" ry="3.2" style="stroke:#181818;stroke-width:0.20000000000000004;"/><text fill="#000000" font-family="sans-serif" font-size="5.6" font-weight="bold" lengthAdjust="spacing" textLength="58" x="150.6" y="482.243">Task Management UI</text></g><!--entity FleetM_L--><g id="elem_FleetM_L"><ellipse cx="386.4" cy="469" fill="#0FAAFF" rx="3.2" ry="3.2" style="stroke:#181818;stroke-width:0.20000000000000004;"/><text fill="#000000" font-family="sans-serif" font-size="5.6" font-weight="bold" lengthAdjust="spacing" textLength="59.6" x="356.6" y="482.243">Fleet Management UI</text></g><!--entity UserM_L--><g id="elem_UserM_L"><ellipse cx="246.8" cy="469" fill="#0FAAFF" rx="3.2" ry="3.2" style="stroke:#181818;stroke-width:0.20000000000000004;"/><text fill="#000000" font-family="sans-serif" font-size="5.6" font-weight="bold" lengthAdjust="spacing" textLength="58.4" x="217.6" y="482.243">User Management UI</text></g><!--entity CM_API_I--><g id="elem_CM_API_I"><ellipse cx="919.6" cy="5.6" fill="#0FAAFF" rx="3.2" ry="3.2" style="stroke:#181818;stroke-width:0.20000000000000004;"/><text fill="#000000" font-family="sans-serif" font-size="5.6" font-weight="bold" lengthAdjust="spacing" textLength="70.4" x="884.4" y="18.843">Campus management API</text></g><!--entity TM_API_I--><g id="elem_TM_API_I"><ellipse cx="749.2" cy="5.6" fill="#0FAAFF" rx="3.2" ry="3.2" style="stroke:#181818;stroke-width:0.20000000000000004;"/><text fill="#000000" font-family="sans-serif" font-size="5.6" font-weight="bold" lengthAdjust="spacing" textLength="60.8" x="718.8" y="18.843">Task management API</text></g><!--entity UM_API_I--><g id="elem_UM_API_I"><ellipse cx="667.2" cy="5.6" fill="#0FAAFF" rx="3.2" ry="3.2" style="stroke:#181818;stroke-width:0.20000000000000004;"/><text fill="#000000" font-family="sans-serif" font-size="5.6" font-weight="bold" lengthAdjust="spacing" textLength="61.2" x="636.6" y="18.843">User management API</text></g><!--entity FM_API_I--><g id="elem_FM_API_I"><ellipse cx="832" cy="5.6" fill="#0FAAFF" rx="3.2" ry="3.2" style="stroke:#181818;stroke-width:0.20000000000000004;"/><text fill="#000000" font-family="sans-serif" font-size="5.6" font-weight="bold" lengthAdjust="spacing" textLength="62.4" x="800.8" y="18.843">Fleet management API</text></g><!--entity CampusM_I--><g id="elem_CampusM_I"><ellipse cx="582" cy="5.6" fill="#0FAAFF" rx="3.2" ry="3.2" style="stroke:#181818;stroke-width:0.20000000000000004;"/><text fill="#000000" font-family="sans-serif" font-size="5.6" font-weight="bold" lengthAdjust="spacing" textLength="67.6" x="548.2" y="18.843">Campus Management UI</text></g><!--entity TaskM_I--><g id="elem_TaskM_I"><ellipse cx="338.4" cy="5.6" fill="#0FAAFF" rx="3.2" ry="3.2" style="stroke:#181818;stroke-width:0.20000000000000004;"/><text fill="#000000" font-family="sans-serif" font-size="5.6" font-weight="bold" lengthAdjust="spacing" textLength="58" x="309.4" y="18.843">Task Management UI</text></g><!--entity UserM_I--><g id="elem_UserM_I"><ellipse cx="498" cy="5.6" fill="#0FAAFF" rx="3.2" ry="3.2" style="stroke:#181818;stroke-width:0.20000000000000004;"/><text fill="#000000" font-family="sans-serif" font-size="5.6" font-weight="bold" lengthAdjust="spacing" textLength="58.4" x="468.8" y="18.843">User Management UI</text></g><!--entity FleetM_I--><g id="elem_FleetM_I"><ellipse cx="418" cy="5.6" fill="#0FAAFF" rx="3.2" ry="3.2" style="stroke:#181818;stroke-width:0.20000000000000004;"/><text fill="#000000" font-family="sans-serif" font-size="5.6" font-weight="bold" lengthAdjust="spacing" textLength="59.6" x="388.2" y="18.843">Fleet Management UI</text></g><!--entity filesystem_API--><g id="elem_filesystem_API"><ellipse cx="504.4" cy="85.6" fill="#0FAAFF" rx="3.2" ry="3.2" style="stroke:#181818;stroke-width:0.20000000000000004;"/><text fill="#000000" font-family="sans-serif" font-size="5.6" font-weight="bold" lengthAdjust="spacing" textLength="38.8" x="485" y="98.843">filesystem API</text></g><!--link p1_L to filesystem_API_L--><g id="link_p1_L_filesystem_API_L"><path d="M198.36,577.408 C193.18,585.808 175.3078,614.7675 168.8958,625.1635 " fill="none" id="p1_L-to-filesystem_API_L" style="stroke:#181818;stroke-width:0.4000000000000001;"/><path d="M170.3216,629.2959 A3.6,3.6 0 0 0 164.5631 625.7442" fill="none" style="stroke:#181818;stroke-width:0.6000000000000001;"/></g><!--link CampusM_L to p2_L--><g id="link_CampusM_L_p2_L"><path d="M604.7,472.608 C595.72,480.396 572.952,500.14 565.56,506.556 " fill="none" id="CampusM_L-p2_L" style="stroke:#181818;stroke-width:0.4000000000000001;"/></g><!--link CM_API_L to p3_L--><g id="link_CM_API_L_p3_L"><path d="M530.4,472.608 C530.4,480.36 530.4,499.956 530.4,506.464 " fill="none" id="CM_API_L-p3_L" style="stroke:#181818;stroke-width:0.4000000000000001;"/></g><!--link TaskM_L to p4_L--><g id="link_TaskM_L_p4_L"><path d="M183.308,471.016 C189.488,473.66 202.332,478.936 213.6,482.2 C251.612,493.204 262.692,489.54 300.8,500.2 C308.672,502.404 317.712,505.9 321.956,507.604 " fill="none" id="TaskM_L-p4_L" style="stroke:#181818;stroke-width:0.4000000000000001;"/></g><!--link Task_API_L to p5_L--><g id="link_Task_API_L_p5_L"><path d="M114.876,470.952 C121.268,473.592 134.876,478.992 146.8,482.2 C203.556,497.464 275.208,506.612 289.18,508.312 " fill="none" id="Task_API_L-p5_L" style="stroke:#181818;stroke-width:0.4000000000000001;"/></g><!--link FleetM_L to p6_L--><g id="link_FleetM_L_p6_L"><path d="M386.4,472.608 C386.4,480.36 386.4,499.956 386.4,506.464 " fill="none" id="FleetM_L-p6_L" style="stroke:#181818;stroke-width:0.4000000000000001;"/></g><!--link FM_API_L to p7_L--><g id="link_FM_API_L_p7_L"><path d="M320.016,472.008 C326.604,476.908 340.708,488.1 349.6,500.2 C351.052,502.18 352.192,504.768 352.876,506.548 " fill="none" id="FM_API_L-p7_L" style="stroke:#181818;stroke-width:0.4000000000000001;"/></g><!--link pMD1_L to p2_L--><g id="link_pMD1_L_p2_L"><path d="M563.2,545.724 C563.2,539.044 563.2,518.132 563.2,511.464 " fill="none" id="pMD1_L-p2_L" style="stroke:#181818;stroke-width:0.4000000000000001;"/></g><!--link pMD2_L to p3_L--><g id="link_pMD2_L_p3_L"><path d="M530.4,545.724 C530.4,539.044 530.4,518.132 530.4,511.464 " fill="none" id="pMD2_L-p3_L" style="stroke:#181818;stroke-width:0.4000000000000001;"/></g><!--link pTM1_L to p4_L--><g id="link_pTM1_L_p4_L"><path d="M324.4,545.724 C324.4,539.044 324.4,518.132 324.4,511.464 " fill="none" id="pTM1_L-p4_L" style="stroke:#181818;stroke-width:0.4000000000000001;"/></g><!--link pTM2_L to p5_L--><g id="link_pTM2_L_p5_L"><path d="M291.6,545.724 C291.6,539.044 291.6,518.132 291.6,511.464 " fill="none" id="pTM2_L-p5_L" style="stroke:#181818;stroke-width:0.4000000000000001;"/></g><!--link pFM1_L to p6_L--><g id="link_pFM1_L_p6_L"><path d="M386.78,545.724 C386.708,539.044 386.492,518.132 386.42,511.464 " fill="none" id="pFM1_L-p6_L" style="stroke:#181818;stroke-width:0.4000000000000001;"/></g><!--link pFM2_L to p7_L--><g id="link_pFM2_L_p7_L"><path d="M353.98,545.724 C353.908,539.044 353.692,518.132 353.62,511.464 " fill="none" id="pFM2_L-p7_L" style="stroke:#181818;stroke-width:0.4000000000000001;"/></g><!--link pUM1_L to p8_L--><g id="link_pUM1_L_p8_L"><path d="M445.184,545.836 C440.992,542.44 432.08,535.268 424.4,529.4 C415.364,522.496 404.404,514.572 399.624,511.136 " fill="none" id="pUM1_L-p8_L" style="stroke:#181818;stroke-width:0.4000000000000001;"/></g><!--link pUM2_L to p9_L--><g id="link_pUM2_L_p9_L"><path d="M414.78,545.768 C414.632,542.004 413.764,533.904 409.2,529.4 C388.78,509.24 373.92,521.86 347.2,511.4 C346.68,511.196 346.136,510.948 345.62,510.7 " fill="none" id="pUM2_L-p9_L" style="stroke:#181818;stroke-width:0.4000000000000001;"/></g><!--link pMD3_L to pp1_L--><g id="link_pMD3_L_pp1_L"><path d="M508.748,633.384 C493.064,638.388 406.968,665.872 390.96,670.984 " fill="none" id="pMD3_L-pp1_L" style="stroke:#181818;stroke-width:0.4000000000000001;"/></g><!--link pTM3_L to pp2_L--><g id="link_pTM3_L_pp2_L"><path d="M310.684,634.708 C315.476,641.512 330.508,662.86 335.308,669.684 " fill="none" id="pTM3_L-pp2_L" style="stroke:#181818;stroke-width:0.4000000000000001;"/></g><!--link pFM3_L to pp3_L--><g id="link_pFM3_L_pp3_L"><path d="M369.6,634.708 C369.6,641.512 369.6,662.86 369.6,669.684 " fill="none" id="pFM3_L-pp3_L" style="stroke:#181818;stroke-width:0.4000000000000001;"/></g><!--link UM_API_L to p8_L--><g id="link_UM_API_L_p8_L"><path d="M451.948,471.852 C441.008,479.192 408.72,500.868 399.616,506.98 " fill="none" id="UM_API_L-p8_L" style="stroke:#181818;stroke-width:0.4000000000000001;"/></g><!--link UserM_L to p9_L--><g id="link_UserM_L_p9_L"><path d="M250.404,470.776 C256.656,473.152 269.92,478.164 281.2,482.2 C304.384,490.496 312.288,487.86 333.6,500.2 C336.588,501.932 339.5,504.672 341.32,506.548 " fill="none" id="UserM_L-p9_L" style="stroke:#181818;stroke-width:0.4000000000000001;"/></g><!--reverse link filesystem_API to p1_I--><g id="link_filesystem_API_p1_I"><path d="M507.9104,92.8166 C514.0184,104.6846 533.144,141.836 538.128,151.52 " fill="none" id="filesystem_API-backto-p1_I" style="stroke:#181818;stroke-width:0.4000000000000001;"/><path d="M503.6355,91.9028 A3.6,3.6 0 0 0 509.6514 88.8067" fill="none" style="stroke:#181818;stroke-width:0.6000000000000001;"/></g><!--link CampusM_I to p2_I--><g id="link_CampusM_I_p2_I"><path d="M584.128,9.208 C589.268,16.96 602.268,36.556 606.584,43.064 " fill="none" id="CampusM_I-p2_I" style="stroke:#181818;stroke-width:0.4000000000000001;"/></g><!--link FleetM_I to p3_I--><g id="link_FleetM_I_p3_I"><path d="M421.628,7.332 C428.648,9.864 444.608,15.424 458.4,18.8 C503.452,29.828 519.568,16.348 561.2,36.8 C564.304,38.324 567.124,41.224 568.8,43.184 " fill="none" id="FleetM_I-p3_I" style="stroke:#181818;stroke-width:0.4000000000000001;"/></g><!--link CM_API_I to p4_I--><g id="link_CM_API_I_p4_I"><path d="M915.96,7.128 C908.268,9.488 889.756,15.044 874,18.8 C821.412,31.34 756.208,42.484 742.572,44.772 " fill="none" id="CM_API_I-p4_I" style="stroke:#181818;stroke-width:0.4000000000000001;"/></g><!--link FM_API_I to p5_I--><g id="link_FM_API_I_p5_I"><path d="M828.328,7.136 C821.084,9.38 804.424,14.524 790.4,18.8 C763.932,26.868 757.088,28.16 730.8,36.8 C723.032,39.352 713.948,42.688 709.668,44.276 " fill="none" id="FM_API_I-p5_I" style="stroke:#181818;stroke-width:0.4000000000000001;"/></g><!--link TM_API_I to p6_I--><g id="link_TM_API_I_p6_I"><path d="M745.592,7.892 C732.52,14.744 687.816,38.168 676.848,43.92 " fill="none" id="TM_API_I-p6_I" style="stroke:#181818;stroke-width:0.4000000000000001;"/></g><!--link UM_API_I to p7_I--><g id="link_UM_API_I_p7_I"><path d="M665.104,9.208 C660.04,16.96 647.244,36.556 642.996,43.064 " fill="none" id="UM_API_I-p7_I" style="stroke:#181818;stroke-width:0.4000000000000001;"/></g><!--link TaskM_I to p8_I--><g id="link_TaskM_I_p8_I"><path d="M342.056,7.404 C348.976,10.008 364.5,15.612 378,18.8 C446.836,35.048 533.484,43.528 549.124,44.976 " fill="none" id="TaskM_I-p8_I" style="stroke:#181818;stroke-width:0.4000000000000001;"/></g><!--link UserM_I to p9_I--><g id="link_UserM_I_p9_I"><path d="M501.752,7.2 C515.884,11.744 565.8,28.1 580,36.8 C582.876,38.564 585.664,41.296 587.404,43.164 " fill="none" id="UserM_I-p9_I" style="stroke:#181818;stroke-width:0.4000000000000001;"/></g><!--link p2_I to pFE1_I--><g id="link_p2_I_pFE1_I"><path d="M607.872,48.16 C607.188,59.656 603.988,113.512 603.324,124.744 " fill="none" id="p2_I-pFE1_I" style="stroke:#181818;stroke-width:0.4000000000000001;"/></g><!--link p3_I to pFE2_I--><g id="link_p3_I_pFE2_I"><path d="M570.4,48.16 C570.4,59.656 570.4,113.512 570.4,124.744 " fill="none" id="p3_I-pFE2_I" style="stroke:#181818;stroke-width:0.4000000000000001;"/></g><!--link p8_I to pFE3_I--><g id="link_p8_I_pFE3_I"><path d="M551.824,48.16 C553.02,59.656 558.62,113.512 559.788,124.744 " fill="none" id="p8_I-pFE3_I" style="stroke:#181818;stroke-width:0.4000000000000001;"/></g><!--link p9_I to pFE4_I--><g id="link_p9_I_pFE4_I"><path d="M589.296,48.16 C589.808,59.656 592.208,113.512 592.708,124.744 " fill="none" id="p9_I-pFE4_I" style="stroke:#181818;stroke-width:0.4000000000000001;"/></g><!--link pFE5_I to MD_API_I--><g id="link_pFE5_I_MD_API_I"><path d="M580.204,221.62 C579.464,229.332 577.198,252.9423 576.29,262.4063 " fill="none" id="pFE5_I-to-MD_API_I" style="stroke:#181818;stroke-width:0.4000000000000001;"/><path d="M579.393,265.4854 A3.6,3.6 0 0 0 572.6582 264.8393" fill="none" style="stroke:#181818;stroke-width:0.6000000000000001;"/></g><!--link p4_I to pMD1_I--><g id="link_p4_I_pMD1_I"><path d="M740.184,48.124 C740.68,54.008 742,71.028 742,85.2 C742,85.2 742,85.2 742,270.4 C742,286.076 729.308,301.904 724.352,307.492 " fill="none" id="p4_I-pMD1_I" style="stroke:#181818;stroke-width:0.4000000000000001;"/></g><!--link p5_I to pMD2_I--><g id="link_p5_I_pMD2_I"><path d="M708.816,48.08 C714.192,55.132 731.428,79 737.2,102 C741.616,119.588 739.504,124.812 737.2,142.8 C734.96,160.292 727.2,163.564 727.2,181.2 C727.2,181.2 727.2,181.2 727.2,270.4 C727.2,290.768 700.432,304.672 692.068,308.52 " fill="none" id="p5_I-pMD2_I" style="stroke:#181818;stroke-width:0.4000000000000001;"/></g><!--link p1_I to pMD3_I--><g id="link_p1_I_pMD3_I"><path d="M539.416,156.4 C540.244,164.308 543.2,194.156 543.2,218.8 C543.2,218.8 543.2,218.8 543.2,324.8 C543.2,355.36 661.84,374.276 680.376,377.048 " fill="none" id="p1_I-pMD3_I" style="stroke:#181818;stroke-width:0.4000000000000001;"/></g><!--link MD_API_I to pMD4_I--><g id="link_MD_API_I_pMD4_I"><path d="M575.34,273.608 C574.704,281.36 573.104,300.956 572.576,307.464 " fill="none" id="MD_API_I-pMD4_I" style="stroke:#181818;stroke-width:0.4000000000000001;"/></g><!--reverse link Planning_API_I to pMD5_I--><g id="link_Planning_API_I_pMD5_I"><path d="M644.6194,225.6842 C640.1354,230.1802 635.004,235.872 630,244.4 C616.452,267.484 607.812,299.304 605.704,307.572 " fill="none" id="Planning_API_I-backto-pMD5_I" style="stroke:#181818;stroke-width:0.4000000000000001;"/><path d="M644.1793,221.3349 A3.6,3.6 0 0 0 648.9698 226.1127" fill="none" style="stroke:#181818;stroke-width:0.6000000000000001;"/></g><!--link p7_I to pMD6_I--><g id="link_p7_I_pMD6_I"><path d="M643.432,48.08 C650.724,56.208 678.768,86.008 708.8,98.8 C713.508,100.804 728.244,98.14 731.6,102 C734.576,105.42 734.164,139.06 731.6,142.8 C725.456,151.756 716.456,143.896 708.8,151.6 C698.888,161.58 697.6,167.136 697.6,181.2 C697.6,181.2 697.6,181.2 697.6,270.4 C697.6,281.636 703.204,287.328 695.6,295.6 C690.416,301.236 669.016,299.288 661.6,301.2 C653.684,303.244 644.668,306.816 640.436,308.568 " fill="none" id="p7_I-pMD6_I" style="stroke:#181818;stroke-width:0.4000000000000001;"/></g><!--link p6_I to pMD7_I--><g id="link_p6_I_pMD7_I"><path d="M675.724,48.084 C680.852,55.984 700.268,84.356 723.6,98.8 C727.856,101.436 731.404,97.988 734.4,102 C739.824,109.264 738.292,134.612 734.4,142.8 C731.744,148.392 727.22,146.576 723.6,151.6 C715.376,163.012 712.4,167.136 712.4,181.2 C712.4,181.2 712.4,181.2 712.4,270.4 C712.4,283.044 708.96,287.564 699.2,295.6 C692.468,301.144 688.032,296.988 680.4,301.2 C677.376,302.868 674.472,305.624 672.664,307.52 " fill="none" id="p6_I-pMD7_I" style="stroke:#181818;stroke-width:0.4000000000000001;"/></g><!--link pp1_I to Planning_API_I--><g id="link_pp1_I_Planning_API_I"><path d="M654.452,156.464 C654.176,158.16 653.808,160.628 653.6,162.8 C651.68,182.76 651.036,206.86 650.86,215.512 " fill="none" id="pp1_I-Planning_API_I" style="stroke:#181818;stroke-width:0.4000000000000001;"/></g><!--link MD_I to CM_L--><g id="link_MD_I_CM_L"><path d="M728.5557,377.8498 C728.6011,377.9417 728.6467,378.0347 728.6925,378.1287 C728.7842,378.3168 728.8767,378.5092 728.97,378.7059 C729.3432,379.4926 729.7295,380.3473 730.1275,381.265 C731.7194,384.9355 733.4988,389.6126 735.3796,394.9694 C739.1413,405.683 743.3085,419.1155 747.193,432.652 C754.962,459.725 761.6,487.214 761.6,494.2 C761.6,494.2 761.6,494.2 761.6,548.6 C761.6,568.528 728.321,580.417 687.015,587.4985 C666.362,591.0393 643.7023,593.3781 622.1923,594.9191 C611.4373,595.6895 600.9697,596.2605 591.1841,596.6825 C586.2913,596.8935 581.5691,597.0673 577.0666,597.2101 C576.5038,597.2279 575.9444,597.2453 575.3886,597.2622 C575.1107,597.2706 574.8336,597.279 574.5575,597.2872 " fill="none" id="MD_I-CM_L" style="stroke:#181818;stroke-width:0.4000000000000001;stroke-dasharray:7.0,7.0;"/><text fill="#000000" font-family="sans-serif" font-size="5.2" lengthAdjust="spacing" textLength="19.6" x="760.4" y="471.2113">manifest</text></g><!--link FE_I to CM_L--><g id="link_FE_I_CM_L"><path d="M612.684,183.496 C649.56,186.164 717.504,192.752 737.6,206 C774.124,230.076 834.4,333.656 834.4,377.4 C834.4,377.4 834.4,377.4 834.4,548.6 C834.4,562.158 786.67,572.696 729.035,580.479 C700.2175,584.3705 668.9238,587.5733 639.8819,590.1204 C625.3609,591.3939 611.403,592.5036 598.599,593.4535 C592.197,593.9284 586.0835,594.3634 580.3324,594.759 C578.8946,594.8579 577.4795,594.9543 576.0881,595.0483 C575.3925,595.0953 574.7028,595.1417 574.0191,595.1874 " fill="none" id="FE_I-CM_L" style="stroke:#181818;stroke-width:0.4000000000000001;stroke-dasharray:7.0,7.0;"/><text fill="#000000" font-family="sans-serif" font-size="5.2" lengthAdjust="spacing" textLength="19.6" x="835.2" y="409.0113">manifest</text></g><!--link MD_I to pTM1_L--><g id="link_MD_I_pTM1_L"><path d="M658.1289,377.9801 C657.709,378.6799 657.2871,379.3888 656.8638,380.1064 C656.0171,381.5417 655.1648,383.0119 654.3112,384.5134 C652.604,387.5164 650.8919,390.6448 649.2105,393.87 C642.485,406.771 636.252,421.222 632.8,435.4 C631.916,439.028 631.288,440.384 632.8,443.8 C636.008,451.052 642.792,448.548 646,455.8 C650.748,466.532 651.272,471.716 646,482.2 C632.072,509.9 619.328,513.748 590,523.8 C576.332,528.484 341.516,520.676 330,529.4 C324.836,533.312 324.284,541.86 324.316,545.772 " fill="none" id="MD_I-pTM1_L" style="stroke:#181818;stroke-width:0.4000000000000001;stroke-dasharray:7.0,7.0;"/><text fill="#000000" font-family="sans-serif" font-size="5.2" lengthAdjust="spacing" textLength="19.6" x="633.6" y="441.8113">manifest</text></g><!--link FE_I to pTM2_L--><g id="link_FE_I_pTM2_L"><path d="M552.5559,182.0157 C552.092,182.0167 551.6241,182.0178 551.1524,182.0189 C550.209,182.0211 549.2501,182.0235 548.276,182.0261 C546.3278,182.0311 544.319,182.0369 542.2517,182.0433 C533.9826,182.0691 524.7793,182.1063 514.7896,182.1595 C494.8101,182.2659 471.6852,182.4361 446.5984,182.7058 C396.4249,183.245 338.4038,184.182 282.0035,185.802 C169.203,189.042 62.886,195.014 38.8,206 C17.404,215.756 2.4,220.884 2.4,244.4 C2.4,244.4 2.4,244.4 2.4,509.4 C2.4,539.944 39.268,520.192 69.6,523.8 C81.632,525.232 278.264,521.676 287.6,529.4 C292.488,533.444 292.264,541.924 291.868,545.796 " fill="none" id="FE_I-pTM2_L" style="stroke:#181818;stroke-width:0.4000000000000001;stroke-dasharray:7.0,7.0;"/><text fill="#000000" font-family="sans-serif" font-size="5.2" lengthAdjust="spacing" textLength="19.6" x="3.2" y="380.0113">manifest</text></g><!--link MD_I to pFM1_L--><g id="link_MD_I_pFM1_L"><path d="M673.0379,377.809 C673.0246,377.9272 673.0113,378.0456 672.9981,378.1642 C672.9451,378.6385 672.8927,379.1156 672.841,379.5951 C672.7375,380.5543 672.6368,381.5234 672.5395,382.5005 C671.761,390.317 671.2,398.64 671.2,406.4 C671.2,406.4 671.2,406.4 671.2,509.4 C671.2,519.644 662.828,520.3 653.2,523.8 C627.38,533.188 431.376,518.868 406,529.4 C397.728,532.832 390.968,541.628 388.176,545.688 " fill="none" id="MD_I-pFM1_L" style="stroke:#181818;stroke-width:0.4000000000000001;stroke-dasharray:7.0,7.0;"/><text fill="#000000" font-family="sans-serif" font-size="5.2" lengthAdjust="spacing" textLength="19.6" x="672" y="441.8113">manifest</text></g><!--link FE_I to pFM2_L--><g id="link_FE_I_pFM2_L"><path d="M551.8533,182.3422 C550.9689,182.3521 550.0707,182.3622 549.1591,182.3726 C547.3357,182.3934 545.4584,182.4152 543.5292,182.4381 C535.8124,182.5296 527.2652,182.6381 518.0201,182.7659 C499.5301,183.0215 478.2488,183.3544 455.2369,183.7835 C409.2131,184.6418 356.2668,185.885 304.8825,187.665 C202.114,191.225 105.594,196.932 83.2,206 C59.268,215.692 39.6,218.58 39.6,244.4 C39.6,244.4 39.6,244.4 39.6,509.4 C39.6,542.096 302.848,517.24 333.2,529.4 C341.884,532.88 349.352,541.652 352.46,545.696 " fill="none" id="FE_I-pFM2_L" style="stroke:#181818;stroke-width:0.4000000000000001;stroke-dasharray:7.0,7.0;"/><text fill="#000000" font-family="sans-serif" font-size="5.2" lengthAdjust="spacing" textLength="19.6" x="40.4" y="380.0113">manifest</text></g><!--link MD_I to pUM1_L--><g id="link_MD_I_pUM1_L"><path d="M714.3883,377.8103 C714.4146,377.8529 714.4408,377.8954 714.4668,377.9379 C715.3,379.2962 716.0162,380.5778 716.6318,381.8154 C717.8631,384.2905 718.6923,386.5895 719.2505,388.974 C720.367,393.743 720.4,398.854 720.4,406.4 C720.4,406.4 720.4,406.4 720.4,509.4 C720.4,527.792 699.656,520.292 681.6,523.8 C638.388,532.192 526.244,518.492 483.6,529.4 C470,532.88 455.676,542.152 450.06,546.044 " fill="none" id="MD_I-pUM1_L" style="stroke:#181818;stroke-width:0.4000000000000001;stroke-dasharray:7.0,7.0;"/><text fill="#000000" font-family="sans-serif" font-size="5.2" lengthAdjust="spacing" textLength="19.6" x="721.2" y="441.8113">manifest</text></g><!--link FE_I to pUM2_L--><g id="link_FE_I_pUM2_L"><path d="M552.3211,182.6077 C551.8492,182.6176 551.3733,182.6276 550.8935,182.6377 C549.9339,182.658 548.9585,182.6789 547.9678,182.7004 C545.9862,182.7434 543.943,182.7888 541.8407,182.8368 C533.4315,183.0288 524.0767,183.2617 513.9397,183.5429 C493.6658,184.1053 470.2631,184.8613 445.0395,185.8708 C394.5923,187.8898 336.861,190.923 282.307,195.451 C173.199,204.507 76.8,219.542 76.8,244.4 C76.8,244.4 76.8,244.4 76.8,349.6 C76.8,408.532 43.016,433.912 76.8,482.2 C107.716,526.392 137.812,513.732 190.8,523.8 C202.724,526.064 399.54,522.048 409.2,529.4 C414.356,533.324 414.912,541.868 414.88,545.776 " fill="none" id="FE_I-pUM2_L" style="stroke:#181818;stroke-width:0.4000000000000001;stroke-dasharray:7.0,7.0;"/><text fill="#000000" font-family="sans-serif" font-size="5.2" lengthAdjust="spacing" textLength="19.6" x="76" y="380.0113">manifest</text></g><!--link RobDroneGo_I to RobDroneGo_L--><!--SRC=[hLTRQzim57xNhp3PInhmM2vDqX428uc7O8OoxATIYXehhMbymNOUokX_dww-o97aZYLvYCvDduxEEP_z6aVOESR5yOp1A_sFaxnwTnASFEEY1A1yYzCS5IXnSXH5SVhYJ45R6gSLBaxeY9q_m26VPtHyUocoInhjidDME5- -dH0wdS17s-cO9NcMuhIoEr5riySfFkFolQnmylJZ7ZxzSb3fZ2QJHkmGyMGoKlrsViT-XvByKZe9Ij4BJYWEuTRryhfUtXdZokeKeFAjuqO5Lg-mkrLOukAAJ-zOx1o-UYw_SGmr2FqkF8i7Excl9CBYGu_WTm_Kym1D8Jpypfxt1Vd_CtlwzUXiDhLgkzri-EMETukRxPP5RAn7l8JohAYoI-MCo9SOv5EojImZgQ-LCvDoRb8kJCfRat9fKgvCohL9UTTICcqhfQJgrLIovFNAHEIm5zpVgscyOZBJcBHlmz-hMVteeVKqQDLgqu7rV2jOpny2rlFjO0CDMAMRT5W3EzPW4DPW0DPGWrNfIHtMq8urx67z03qOzsUKfeH0heEHMXsAt0eYdrajhkIA_5Xerntts0KqyzLrsTG0DP5G0Ga7v32bwuLOjqp8I03rzAI29HMqWv3M9n1ufybTH5V9FO2e5xc7g0qP7uZIb-55cJV1mrgzfkgmLjynDJ__nHLj2dWccO2L5-29OmBM6yHdBGIIjm0RH4p2vpxGK33y70K7NQ_FS2aqS-bLgeSMgjVmB_m7_eMVu5-UKsZaqgkC3SsChU5V-5_u5vhu5vhu5vhu5vhu5vhu5vhu5vhu5vhujr6gvL5Fl7PfIU7rElJt7MD_twcyrdKHm_ur7REqGd6AYzPD-OXSNU7iKOMSiR-_CN4zj7Cz7CJrra0BkycjtMHfDsdVhEx1up0mbHwf-EgGHaeAEyyE1ntiE6qPpOOOJOSOpOSOgTccxAobvm7Tho7hTY9w0u1phUvLJlyYnm8HOb7f6R0fGXcddiA0pGugakCFi871ZCI01snAC9jQiXIIe9QiX2Ii9MjfmuStO8tVy1saB7mGKDc00-AQsNhErn8UZGR4lR3r7LypQ14vgXm3uic0MJ7oXq1q8HVSSi6y5aovG0QkuuX-eaPZPIu1qKWym8eBLhLWoL3mMt1LLm34IuPx-UeIjHXBtobrnYTSLggUzLfBBPziTExoKKVdxbdSFRDxQ74FZUv08KqtUdYDemYdZwxygE-rRU-_]--></g></svg>