<?xml version="1.0" encoding="us-ascii" standalone="no"?><svg xmlns="http://www.w3.org/2000/svg" xmlns:xlink="http://www.w3.org/1999/xlink" contentStyleType="text/css" height="713px" preserveAspectRatio="none" style="width:894px;height:713px;background:#FFFFFF;" version="1.1" viewBox="0 0 894 713" width="894px" zoomAndPan="magnify"><defs/><g><!--cluster RobDroneGo_I--><g id="cluster_RobDroneGo_I"><rect fill="#80F0FF" height="594" rx="2.5" ry="2.5" style="stroke:#181818;stroke-width:1.0;" width="576" x="154.5" y="113"/><rect fill="#80F0FF" height="10" style="stroke:#181818;stroke-width:1.0;" width="15" x="710.5" y="118"/><rect fill="#80F0FF" height="2" style="stroke:#181818;stroke-width:1.0;" width="4" x="708.5" y="120"/><rect fill="#80F0FF" height="2" style="stroke:#181818;stroke-width:1.0;" width="4" x="708.5" y="124"/><text fill="#000000" font-family="sans-serif" font-size="14" font-style="italic" lengthAdjust="spacing" textLength="86" x="399.5" y="142.1074">&#171;component&#187;</text><text fill="#000000" font-family="sans-serif" font-size="14" font-style="italic" lengthAdjust="spacing" textLength="88" x="398.5" y="160.7285">&#171;system(C4)&#187;</text><text fill="#000000" font-family="sans-serif" font-size="14" font-weight="bold" lengthAdjust="spacing" textLength="91" x="397" y="181.3496">RobDroneGo</text></g><!--cluster MD_I--><g id="cluster_MD_I"><rect fill="#80F0FF" height="219" rx="2.5" ry="2.5" style="stroke:#181818;stroke-width:1.0;" width="179" x="487.5" y="458"/><rect fill="#80F0FF" height="10" style="stroke:#181818;stroke-width:1.0;" width="15" x="646.5" y="463"/><rect fill="#80F0FF" height="2" style="stroke:#181818;stroke-width:1.0;" width="4" x="644.5" y="465"/><rect fill="#80F0FF" height="2" style="stroke:#181818;stroke-width:1.0;" width="4" x="644.5" y="469"/><text fill="#000000" font-family="sans-serif" font-size="14" font-style="italic" lengthAdjust="spacing" textLength="86" x="534" y="487.1074">&#171;component&#187;</text><text fill="#000000" font-family="sans-serif" font-size="14" font-style="italic" lengthAdjust="spacing" textLength="103" x="525.5" y="505.7285">&#171;container(C4)&#187;</text><text fill="#000000" font-family="sans-serif" font-size="14" font-weight="bold" lengthAdjust="spacing" textLength="121" x="516.5" y="526.3496">Master Data (MD)</text></g><!--cluster FE--><g id="cluster_FE"><rect fill="#80F0FF" height="169" rx="2.5" ry="2.5" style="stroke:#181818;stroke-width:1.0;" width="130" x="179.5" y="336"/><rect fill="#80F0FF" height="10" style="stroke:#181818;stroke-width:1.0;" width="15" x="289.5" y="341"/><rect fill="#80F0FF" height="2" style="stroke:#181818;stroke-width:1.0;" width="4" x="287.5" y="343"/><rect fill="#80F0FF" height="2" style="stroke:#181818;stroke-width:1.0;" width="4" x="287.5" y="347"/><text fill="#000000" font-family="sans-serif" font-size="14" font-style="italic" lengthAdjust="spacing" textLength="86" x="201.5" y="365.1074">&#171;component&#187;</text><text fill="#000000" font-family="sans-serif" font-size="14" font-style="italic" lengthAdjust="spacing" textLength="103" x="193" y="383.7285">&#171;container(C4)&#187;</text><text fill="#000000" font-family="sans-serif" font-size="14" font-weight="bold" lengthAdjust="spacing" textLength="93" x="198" y="404.3496">Frontend (UI)</text></g><!--cluster Planning--><g id="cluster_Planning"><rect fill="#80F0FF" height="171" rx="2.5" ry="2.5" style="stroke:#181818;stroke-width:1.0;" width="106" x="438.5" y="212"/><rect fill="#80F0FF" height="10" style="stroke:#181818;stroke-width:1.0;" width="15" x="524.5" y="217"/><rect fill="#80F0FF" height="2" style="stroke:#181818;stroke-width:1.0;" width="4" x="522.5" y="219"/><rect fill="#80F0FF" height="2" style="stroke:#181818;stroke-width:1.0;" width="4" x="522.5" y="223"/><text fill="#000000" font-family="sans-serif" font-size="14" font-style="italic" lengthAdjust="spacing" textLength="86" x="448.5" y="241.1074">&#171;component&#187;</text><text fill="#000000" font-family="sans-serif" font-size="14" font-style="italic" lengthAdjust="spacing" textLength="88" x="447.5" y="259.7285">&#171;system(C4)&#187;</text><text fill="#000000" font-family="sans-serif" font-size="14" font-weight="bold" lengthAdjust="spacing" textLength="61" x="461" y="280.3496">Planning</text></g><text fill="#000000" font-family="sans-serif" font-size="14" lengthAdjust="spacing" textLength="4" x="728.5" y="313.4863">&#160;</text><rect fill="#0FAAFF" height="12" style="stroke:#181818;stroke-width:1.5;" width="12" x="724.5" y="330"/><text fill="#000000" font-family="sans-serif" font-size="14" lengthAdjust="spacing" textLength="4" x="242.5" y="90.4863">&#160;</text><rect fill="#0FAAFF" height="12" style="stroke:#181818;stroke-width:1.5;" width="12" x="238.5" y="107"/><text fill="#000000" font-family="sans-serif" font-size="14" lengthAdjust="spacing" textLength="4" x="195.5" y="90.4863">&#160;</text><rect fill="#0FAAFF" height="12" style="stroke:#181818;stroke-width:1.5;" width="12" x="191.5" y="107"/><text fill="#000000" font-family="sans-serif" font-size="14" lengthAdjust="spacing" textLength="4" x="709.5" y="90.4863">&#160;</text><rect fill="#0FAAFF" height="12" style="stroke:#181818;stroke-width:1.5;" width="12" x="705.5" y="107"/><text fill="#000000" font-family="sans-serif" font-size="14" lengthAdjust="spacing" textLength="4" x="624.5" y="90.4863">&#160;</text><rect fill="#0FAAFF" height="12" style="stroke:#181818;stroke-width:1.5;" width="12" x="620.5" y="107"/><!--entity Planning_API_I--><g id="elem_Planning_API_I"><ellipse cx="387.5" cy="212" fill="#0FAAFF" rx="8" ry="8" style="stroke:#181818;stroke-width:0.5;"/><text fill="#000000" font-family="sans-serif" font-size="14" font-weight="bold" lengthAdjust="spacing" textLength="87" x="344" y="245.1074">Planning API</text></g><!--entity MD_API_I--><g id="elem_MD_API_I"><ellipse cx="341.5" cy="336" fill="#0FAAFF" rx="8" ry="8" style="stroke:#181818;stroke-width:0.5;"/><text fill="#000000" font-family="sans-serif" font-size="14" font-weight="bold" lengthAdjust="spacing" textLength="49" x="317" y="369.1074">MD API</text></g><text fill="#000000" font-family="sans-serif" font-size="14" lengthAdjust="spacing" textLength="4" x="646.5" y="435.4863">&#160;</text><rect fill="#0FAAFF" height="12" style="stroke:#181818;stroke-width:1.5;" width="12" x="642.5" y="452"/><text fill="#000000" font-family="sans-serif" font-size="14" lengthAdjust="spacing" textLength="4" x="599.5" y="435.4863">&#160;</text><rect fill="#0FAAFF" height="12" style="stroke:#181818;stroke-width:1.5;" width="12" x="595.5" y="452"/><text fill="#000000" font-family="sans-serif" font-size="14" lengthAdjust="spacing" textLength="4" x="610.5" y="699.1074">&#160;</text><rect fill="#0FAAFF" height="12" style="stroke:#181818;stroke-width:1.5;" width="12" x="606.5" y="671"/><text fill="#000000" font-family="sans-serif" font-size="14" lengthAdjust="spacing" textLength="4" x="503.5" y="435.4863">&#160;</text><rect fill="#0FAAFF" height="12" style="stroke:#181818;stroke-width:1.5;" width="12" x="499.5" y="452"/><text fill="#000000" font-family="sans-serif" font-size="14" lengthAdjust="spacing" textLength="4" x="550.5" y="435.4863">&#160;</text><rect fill="#0FAAFF" height="12" style="stroke:#181818;stroke-width:1.5;" width="12" x="546.5" y="452"/><text fill="#000000" font-family="sans-serif" font-size="14" lengthAdjust="spacing" textLength="4" x="242.5" y="313.4863">&#160;</text><rect fill="#0FAAFF" height="12" style="stroke:#181818;stroke-width:1.5;" width="12" x="238.5" y="330"/><text fill="#000000" font-family="sans-serif" font-size="14" lengthAdjust="spacing" textLength="4" x="195.5" y="313.4863">&#160;</text><rect fill="#0FAAFF" height="12" style="stroke:#181818;stroke-width:1.5;" width="12" x="191.5" y="330"/><text fill="#000000" font-family="sans-serif" font-size="14" lengthAdjust="spacing" textLength="4" x="289.5" y="313.4863">&#160;</text><rect fill="#0FAAFF" height="12" style="stroke:#181818;stroke-width:1.5;" width="12" x="285.5" y="330"/><text fill="#000000" font-family="sans-serif" font-size="14" lengthAdjust="spacing" textLength="4" x="454.5" y="189.4863">&#160;</text><rect fill="#0FAAFF" height="12" style="stroke:#181818;stroke-width:1.5;" width="12" x="450.5" y="206"/><!--entity CM_API_I--><g id="elem_CM_API_I"><ellipse cx="799.5" cy="14" fill="#0FAAFF" rx="8" ry="8" style="stroke:#181818;stroke-width:0.5;"/><text fill="#000000" font-family="sans-serif" font-size="14" font-weight="bold" lengthAdjust="spacing" textLength="176" x="711.5" y="47.1074">Campus management API</text></g><!--entity FM_API_I--><g id="elem_FM_API_I"><ellipse cx="580.5" cy="14" fill="#0FAAFF" rx="8" ry="8" style="stroke:#181818;stroke-width:0.5;"/><text fill="#000000" font-family="sans-serif" font-size="14" font-weight="bold" lengthAdjust="spacing" textLength="156" x="502.5" y="47.1074">Fleet management API</text></g><!--entity CampusM_I--><g id="elem_CampusM_I"><ellipse cx="291.5" cy="14" fill="#0FAAFF" rx="8" ry="8" style="stroke:#181818;stroke-width:0.5;"/><text fill="#000000" font-family="sans-serif" font-size="14" font-weight="bold" lengthAdjust="spacing" textLength="169" x="207" y="47.1074">UI Campus Management</text></g><!--entity FleetM_I--><g id="elem_FleetM_I"><ellipse cx="80.5" cy="14" fill="#0FAAFF" rx="8" ry="8" style="stroke:#181818;stroke-width:0.5;"/><text fill="#000000" font-family="sans-serif" font-size="14" font-weight="bold" lengthAdjust="spacing" textLength="149" x="6" y="47.1074">UI Fleet Management</text></g><!--entity filesystem_API--><g id="elem_filesystem_API"><ellipse cx="825.5" cy="212" fill="#0FAAFF" rx="8" ry="8" style="stroke:#181818;stroke-width:0.5;"/><text fill="#000000" font-family="sans-serif" font-size="14" lengthAdjust="spacing" textLength="91" x="780" y="245.1074">filesystem_API</text></g><!--reverse link filesystem_API to p1_I--><g id="link_filesystem_API_p1_I"><path d="M813.1264,228.8902 C795.0464,252.1102 749.08,311.14 734.39,330 " fill="none" id="filesystem_API-backto-p1_I" style="stroke:#181818;stroke-width:1.0;"/><path d="M810.7059,218.2329 A9,9 0 0 0 824.0518 228.6246" fill="none" style="stroke:#181818;stroke-width:1.5;"/></g><!--link CampusM_I to p2_I--><g id="link_CampusM_I_p2_I"><path d="M287.49,23.27 C278.08,42.7 254.77,90.8 247.04,106.76 " fill="none" id="CampusM_I-p2_I" style="stroke:#181818;stroke-width:1.0;"/></g><!--link FleetM_I to p3_I--><g id="link_FleetM_I_p3_I"><path d="M89.68,22.61 C112.63,41.64 172.03,90.88 191.34,106.89 " fill="none" id="FleetM_I-p3_I" style="stroke:#181818;stroke-width:1.0;"/></g><!--link CM_API_I to p4_I--><g id="link_CM_API_I_p4_I"><path d="M792,23.27 C774.37,42.7 730.73,90.8 716.25,106.76 " fill="none" id="CM_API_I-p4_I" style="stroke:#181818;stroke-width:1.0;"/></g><!--link FM_API_I to p5_I--><g id="link_FM_API_I_p5_I"><path d="M584.42,23.27 C593.63,42.7 616.45,90.8 624.01,106.76 " fill="none" id="FM_API_I-p5_I" style="stroke:#181818;stroke-width:1.0;"/></g><!--link p2_I to pFE1_I--><g id="link_p2_I_pFE1_I"><path d="M244.5,119.03 C244.5,148.59 244.5,299.36 244.5,329.68 " fill="none" id="p2_I-pFE1_I" style="stroke:#181818;stroke-width:1.0;"/></g><!--link p3_I to pFE2_I--><g id="link_p3_I_pFE2_I"><path d="M197.5,119.03 C197.5,148.59 197.5,299.36 197.5,329.68 " fill="none" id="p3_I-pFE2_I" style="stroke:#181818;stroke-width:1.0;"/></g><!--link pFE3_I to MD_API_I--><g id="link_pFE3_I_MD_API_I"><path d="M297.75,336 C309.26,336 310.76,336 322.27,336 " fill="none" id="pFE3_I-to-MD_API_I" style="stroke:#181818;stroke-width:1.0;"/><path d="M329.1918,327.5428 A9,9 0 0 0 329.1918 344.4572" fill="none" style="stroke:#181818;stroke-width:1.5;"/></g><!--link p4_I to pMD1_I--><g id="link_p4_I_pMD1_I"><path d="M710.76,119.01 C708.19,136.44 699.27,196.03 690.5,245 C675.68,327.73 654.64,427.99 649.61,451.77 " fill="none" id="p4_I-pMD1_I" style="stroke:#181818;stroke-width:1.0;"/></g><!--link p5_I to pMD2_I--><g id="link_p5_I_pMD2_I"><path d="M632.53,118.35 C644.1,127.12 669.14,148.22 678.5,173 C689.81,202.94 684.05,213.48 678.5,245 C663.3,331.39 615.75,428.91 604.1,451.94 " fill="none" id="p5_I-pMD2_I" style="stroke:#181818;stroke-width:1.0;"/></g><!--link p1_I to pMD3_I--><g id="link_p1_I_pMD3_I"><path d="M730.16,342.33 C728.11,371.75 715.59,516.62 662.5,619 C651.11,640.97 629.48,661.41 618.8,670.72 " fill="none" id="p1_I-pMD3_I" style="stroke:#181818;stroke-width:1.0;"/></g><!--link MD_API_I to pMD4_I--><g id="link_MD_API_I_pMD4_I"><path d="M346.55,345.26 C352.88,355.12 364.49,371.69 377.5,383 C418.77,418.86 479.97,446.28 499.37,454.47 " fill="none" id="MD_API_I-pMD4_I" style="stroke:#181818;stroke-width:1.0;"/></g><!--reverse link Planning_API_I to pMD5_I--><g id="link_Planning_API_I_pMD5_I"><path d="M383.4792,231.079 C377.7192,258.019 365.62,334.34 406.5,383 C443.14,426.61 484.35,384.27 529.5,419 C540.87,427.74 547.86,443.84 550.83,451.99 " fill="none" id="Planning_API_I-backto-pMD5_I" style="stroke:#181818;stroke-width:1.0;"/><path d="M376.6561,222.5419 A9,9 0 0 0 393.1967 226.0784" fill="none" style="stroke:#181818;stroke-width:1.5;"/></g><!--link pp1_I to Planning_API_I--><g id="link_pp1_I_Planning_API_I"><path d="M450.42,212 C432.5,212 414.58,212 396.66,212 " fill="none" id="pp1_I-Planning_API_I" style="stroke:#181818;stroke-width:1.0;"/></g><!--SRC=[ZLJBQiCm4BphAqHwSGE1l0ezX429u-A3e1HwAYKejfoQMfAHbKCf_VUk9Sknx3oQv63lpkokHhEfld9HKaKvJYGlfM12un-4uREdoTT1oQD8DxAG2jyzJhDfbg5VXAgMb0lDL4OJTeaqpIYrfCyyPJZ9LL8m-ynugRynPtpFLDKjMj8qpSK1pv2fUUgn8RkdbtWNOrhXqNYyeRmyLfXJGG-CrvD3TZmUzLYHpueAnlGPKh-NAKvQsblSX31fgMTwrSKzactdSz19w_TNkGyLF3_BNVo1LwisjLwlLjLtfHaFDilxzTgKFA57Ll1IAYsF6e_W2u1o1hsTw2xV9kVNaejhoUMrv4CdQRA-9Yy55GBkqxi55-nUcKyZeKSWeNTH7GK1E5GkaKBJN33L4OzGK5FXa6gA0nBUDn8EpaF2lefd8FCBaEvba71nkz3oDcGWyEz0X6ZxBmaYC8zc8iN1Mzm_VoxQbj7saW8UQ7vhz6ZR5m0c7ypkl73R_WvvwUO6zeTsy3FXoN4Iu2mlcArQcmkPZO34QTkHsOCwv5OP6VCRKFD7WepZ3SP5K2DP7QoBeaOTyxwmxwQmWY6Siu5bhGQeYTanr1ZB1XviOD46PZRWvcdhD1QfGK5ltQ27FVqW_WS0]--></g></svg>