<?xml version="1.0" encoding="us-ascii" standalone="no"?><svg xmlns="http://www.w3.org/2000/svg" xmlns:xlink="http://www.w3.org/1999/xlink" contentStyleType="text/css" height="908px" preserveAspectRatio="none" style="width:1124px;height:908px;background:#FFFFFF;" version="1.1" viewBox="0 0 1124 908" width="1124px" zoomAndPan="magnify"><defs/><g><rect fill="#FFFFFF" height="722.6934" style="stroke:#181818;stroke-width:1.0;" width="10" x="74" y="93.6211"/><rect fill="#FFFFFF" height="699.4023" style="stroke:#181818;stroke-width:1.0;" width="10" x="418" y="116.9121"/><rect fill="#FFFFFF" height="565.2383" style="stroke:#181818;stroke-width:1.0;" width="10" x="616" y="210.7852"/><rect fill="#FFFFFF" height="31.291" style="stroke:#181818;stroke-width:1.0;" width="10" x="796" y="242.0762"/><rect fill="#FFFFFF" height="31.291" style="stroke:#181818;stroke-width:1.0;" width="10" x="796" y="456.1133"/><rect fill="#FFFFFF" height="125.1641" style="stroke:#181818;stroke-width:1.0;" width="10" x="796" y="619.5684"/><rect fill="#FFFFFF" height="62.582" style="stroke:#181818;stroke-width:1.0;" width="10" x="949" y="650.8594"/><rect fill="none" height="175.7461" style="stroke:#000000;stroke-width:1.5;" width="831.5" x="10" y="350.9492"/><line style="stroke:#181818;stroke-width:0.5;stroke-dasharray:5.0,5.0;" x1="79" x2="79" y1="83.6211" y2="825.3145"/><line style="stroke:#181818;stroke-width:0.5;stroke-dasharray:5.0,5.0;" x1="422.5" x2="422.5" y1="83.6211" y2="825.3145"/><line style="stroke:#181818;stroke-width:0.5;stroke-dasharray:5.0,5.0;" x1="621" x2="621" y1="83.6211" y2="825.3145"/><line style="stroke:#181818;stroke-width:0.5;stroke-dasharray:5.0,5.0;" x1="800.5" x2="800.5" y1="83.6211" y2="825.3145"/><line style="stroke:#181818;stroke-width:0.5;stroke-dasharray:5.0,5.0;" x1="954" x2="954" y1="83.6211" y2="825.3145"/><text fill="#000000" font-family="sans-serif" font-size="14" lengthAdjust="spacing" textLength="112" x="20" y="80.1074">Campus Manager</text><ellipse cx="79" cy="13.5" fill="#E2E2F0" rx="8" ry="8" style="stroke:#181818;stroke-width:0.5;"/><path d="M79,21.5 L79,48.5 M66,29.5 L92,29.5 M79,48.5 L66,63.5 M79,48.5 L92,63.5 " fill="none" style="stroke:#181818;stroke-width:0.5;"/><text fill="#000000" font-family="sans-serif" font-size="14" lengthAdjust="spacing" textLength="112" x="20" y="839.4219">Campus Manager</text><ellipse cx="79" cy="851.4355" fill="#E2E2F0" rx="8" ry="8" style="stroke:#181818;stroke-width:0.5;"/><path d="M79,859.4355 L79,886.4355 M66,867.4355 L92,867.4355 M79,886.4355 L66,901.4355 M79,886.4355 L92,901.4355 " fill="none" style="stroke:#181818;stroke-width:0.5;"/><rect fill="#E2E2F0" height="32.6211" rx="2.5" ry="2.5" style="stroke:#181818;stroke-width:0.5;" width="43" x="401.5" y="50"/><text fill="#000000" font-family="sans-serif" font-size="14" lengthAdjust="spacing" textLength="29" x="408.5" y="72.1074">View</text><rect fill="#E2E2F0" height="32.6211" rx="2.5" ry="2.5" style="stroke:#181818;stroke-width:0.5;" width="43" x="401.5" y="824.3145"/><text fill="#000000" font-family="sans-serif" font-size="14" lengthAdjust="spacing" textLength="29" x="408.5" y="846.4219">View</text><rect fill="#E2E2F0" height="32.6211" rx="2.5" ry="2.5" style="stroke:#181818;stroke-width:0.5;" width="76" x="583" y="50"/><text fill="#000000" font-family="sans-serif" font-size="14" lengthAdjust="spacing" textLength="62" x="590" y="72.1074">Controller</text><rect fill="#E2E2F0" height="32.6211" rx="2.5" ry="2.5" style="stroke:#181818;stroke-width:0.5;" width="76" x="583" y="824.3145"/><text fill="#000000" font-family="sans-serif" font-size="14" lengthAdjust="spacing" textLength="62" x="590" y="846.4219">Controller</text><rect fill="#E2E2F0" height="32.6211" rx="2.5" ry="2.5" style="stroke:#181818;stroke-width:0.5;" width="61" x="770.5" y="50"/><text fill="#000000" font-family="sans-serif" font-size="14" lengthAdjust="spacing" textLength="47" x="777.5" y="72.1074">Service</text><rect fill="#E2E2F0" height="32.6211" rx="2.5" ry="2.5" style="stroke:#181818;stroke-width:0.5;" width="61" x="770.5" y="824.3145"/><text fill="#000000" font-family="sans-serif" font-size="14" lengthAdjust="spacing" textLength="47" x="777.5" y="846.4219">Service</text><rect fill="#E2E2F0" height="32.6211" rx="2.5" ry="2.5" style="stroke:#181818;stroke-width:0.5;" width="88" x="910" y="50"/><text fill="#000000" font-family="sans-serif" font-size="14" lengthAdjust="spacing" textLength="74" x="917" y="72.1074">HTTPDriver</text><rect fill="#E2E2F0" height="32.6211" rx="2.5" ry="2.5" style="stroke:#181818;stroke-width:0.5;" width="88" x="910" y="824.3145"/><text fill="#000000" font-family="sans-serif" font-size="14" lengthAdjust="spacing" textLength="74" x="917" y="846.4219">HTTPDriver</text><rect fill="#FFFFFF" height="722.6934" style="stroke:#181818;stroke-width:1.0;" width="10" x="74" y="93.6211"/><rect fill="#FFFFFF" height="699.4023" style="stroke:#181818;stroke-width:1.0;" width="10" x="418" y="116.9121"/><rect fill="#FFFFFF" height="565.2383" style="stroke:#181818;stroke-width:1.0;" width="10" x="616" y="210.7852"/><rect fill="#FFFFFF" height="31.291" style="stroke:#181818;stroke-width:1.0;" width="10" x="796" y="242.0762"/><rect fill="#FFFFFF" height="31.291" style="stroke:#181818;stroke-width:1.0;" width="10" x="796" y="456.1133"/><rect fill="#FFFFFF" height="125.1641" style="stroke:#181818;stroke-width:1.0;" width="10" x="796" y="619.5684"/><rect fill="#FFFFFF" height="62.582" style="stroke:#181818;stroke-width:1.0;" width="10" x="949" y="650.8594"/><polygon fill="#181818" points="406,112.9121,416,116.9121,406,120.9121,410,116.9121" style="stroke:#181818;stroke-width:1.0;"/><line style="stroke:#181818;stroke-width:1.0;" x1="84" x2="412" y1="116.9121" y2="116.9121"/><text fill="#000000" font-family="sans-serif" font-size="13" font-weight="bold" lengthAdjust="spacing" textLength="7" x="91" y="111.6494">1</text><text fill="#000000" font-family="sans-serif" font-size="13" lengthAdjust="spacing" textLength="179" x="102" y="111.6494">selects elevator creation option</text><polygon fill="#181818" points="95,144.2031,85,148.2031,95,152.2031,91,148.2031" style="stroke:#181818;stroke-width:1.0;"/><line style="stroke:#181818;stroke-width:1.0;" x1="89" x2="417" y1="148.2031" y2="148.2031"/><text fill="#000000" font-family="sans-serif" font-size="13" font-weight="bold" lengthAdjust="spacing" textLength="7" x="101" y="142.9404">2</text><text fill="#000000" font-family="sans-serif" font-size="13" lengthAdjust="spacing" textLength="171" x="112" y="142.9404">shows elevator creation menu</text><polygon fill="#181818" points="406,175.4941,416,179.4941,406,183.4941,410,179.4941" style="stroke:#181818;stroke-width:1.0;"/><line style="stroke:#181818;stroke-width:1.0;" x1="84" x2="412" y1="179.4941" y2="179.4941"/><text fill="#000000" font-family="sans-serif" font-size="13" font-weight="bold" lengthAdjust="spacing" textLength="7" x="91" y="174.2314">3</text><text fill="#000000" font-family="sans-serif" font-size="13" lengthAdjust="spacing" textLength="90" x="102" y="174.2314">selects building</text><polygon fill="#181818" points="604,206.7852,614,210.7852,604,214.7852,608,210.7852" style="stroke:#181818;stroke-width:1.0;"/><line style="stroke:#181818;stroke-width:1.0;" x1="428" x2="610" y1="210.7852" y2="210.7852"/><text fill="#000000" font-family="sans-serif" font-size="13" font-weight="bold" lengthAdjust="spacing" textLength="7" x="435" y="205.5225">4</text><text fill="#000000" font-family="sans-serif" font-size="13" lengthAdjust="spacing" textLength="119" x="446" y="205.5225">onSelectedBuilding()</text><polygon fill="#181818" points="784,238.0762,794,242.0762,784,246.0762,788,242.0762" style="stroke:#181818;stroke-width:1.0;"/><line style="stroke:#181818;stroke-width:1.0;" x1="626" x2="790" y1="242.0762" y2="242.0762"/><text fill="#000000" font-family="sans-serif" font-size="13" font-weight="bold" lengthAdjust="spacing" textLength="7" x="633" y="236.8135">5</text><text fill="#000000" font-family="sans-serif" font-size="13" lengthAdjust="spacing" textLength="130" x="644" y="236.8135">function call to Service</text><polygon fill="#181818" points="637,269.3672,627,273.3672,637,277.3672,633,273.3672" style="stroke:#181818;stroke-width:1.0;"/><line style="stroke:#181818;stroke-width:1.0;" x1="631" x2="800" y1="273.3672" y2="273.3672"/><text fill="#000000" font-family="sans-serif" font-size="13" font-weight="bold" lengthAdjust="spacing" textLength="7" x="643" y="268.1045">6</text><text fill="#000000" font-family="sans-serif" font-size="13" lengthAdjust="spacing" textLength="101" x="654" y="268.1045">return list of Floor</text><polygon fill="#181818" points="439,300.6582,429,304.6582,439,308.6582,435,304.6582" style="stroke:#181818;stroke-width:1.0;"/><line style="stroke:#181818;stroke-width:1.0;" x1="433" x2="615" y1="304.6582" y2="304.6582"/><text fill="#000000" font-family="sans-serif" font-size="13" font-weight="bold" lengthAdjust="spacing" textLength="7" x="445" y="299.3955">7</text><text fill="#000000" font-family="sans-serif" font-size="13" lengthAdjust="spacing" textLength="101" x="456" y="299.3955">return list of Floor</text><polygon fill="#181818" points="95,331.9492,85,335.9492,95,339.9492,91,335.9492" style="stroke:#181818;stroke-width:1.0;"/><line style="stroke:#181818;stroke-width:1.0;" x1="89" x2="417" y1="335.9492" y2="335.9492"/><text fill="#000000" font-family="sans-serif" font-size="13" font-weight="bold" lengthAdjust="spacing" textLength="7" x="101" y="330.6865">8</text><text fill="#000000" font-family="sans-serif" font-size="13" lengthAdjust="spacing" textLength="169" x="112" y="330.6865">updates list of available floors</text><path d="M10,350.9492 L83,350.9492 L83,360.2402 L73,370.2402 L10,370.2402 L10,350.9492 " fill="#EEEEEE" style="stroke:#000000;stroke-width:1.5;"/><rect fill="none" height="175.7461" style="stroke:#000000;stroke-width:1.5;" width="831.5" x="10" y="350.9492"/><text fill="#000000" font-family="sans-serif" font-size="13" font-weight="bold" lengthAdjust="spacing" textLength="28" x="25" y="365.9775">loop</text><text fill="#000000" font-family="sans-serif" font-size="11" font-weight="bold" lengthAdjust="spacing" textLength="166" x="98" y="364.8193">[everytime a floor is selected]</text><polygon fill="#181818" points="406,389.5313,416,393.5313,406,397.5313,410,393.5313" style="stroke:#181818;stroke-width:1.0;"/><line style="stroke:#181818;stroke-width:1.0;" x1="84" x2="412" y1="393.5313" y2="393.5313"/><text fill="#000000" font-family="sans-serif" font-size="13" font-weight="bold" lengthAdjust="spacing" textLength="7" x="91" y="388.2686">9</text><text fill="#000000" font-family="sans-serif" font-size="13" lengthAdjust="spacing" textLength="81" x="102" y="388.2686">selects a floor</text><polygon fill="#181818" points="604,420.8223,614,424.8223,604,428.8223,608,424.8223" style="stroke:#181818;stroke-width:1.0;"/><line style="stroke:#181818;stroke-width:1.0;" x1="428" x2="610" y1="424.8223" y2="424.8223"/><text fill="#000000" font-family="sans-serif" font-size="13" font-weight="bold" lengthAdjust="spacing" textLength="14" x="435" y="419.5596">10</text><text fill="#000000" font-family="sans-serif" font-size="13" lengthAdjust="spacing" textLength="134" x="453" y="419.5596">updateSelectedFloors()</text><polygon fill="#181818" points="784,452.1133,794,456.1133,784,460.1133,788,456.1133" style="stroke:#181818;stroke-width:1.0;"/><line style="stroke:#181818;stroke-width:1.0;" x1="626" x2="790" y1="456.1133" y2="456.1133"/><text fill="#000000" font-family="sans-serif" font-size="13" font-weight="bold" lengthAdjust="spacing" textLength="14" x="633" y="450.8506">11</text><text fill="#000000" font-family="sans-serif" font-size="13" lengthAdjust="spacing" textLength="130" x="651" y="450.8506">function call to Service</text><polygon fill="#181818" points="637,483.4043,627,487.4043,637,491.4043,633,487.4043" style="stroke:#181818;stroke-width:1.0;"/><line style="stroke:#181818;stroke-width:1.0;" x1="631" x2="800" y1="487.4043" y2="487.4043"/><text fill="#000000" font-family="sans-serif" font-size="13" font-weight="bold" lengthAdjust="spacing" textLength="14" x="643" y="482.1416">12</text><text fill="#000000" font-family="sans-serif" font-size="13" lengthAdjust="spacing" textLength="128" x="661" y="482.1416">return new list of Floor</text><polygon fill="#181818" points="439,514.6953,429,518.6953,439,522.6953,435,518.6953" style="stroke:#181818;stroke-width:1.0;"/><line style="stroke:#181818;stroke-width:1.0;" x1="433" x2="615" y1="518.6953" y2="518.6953"/><text fill="#000000" font-family="sans-serif" font-size="13" font-weight="bold" lengthAdjust="spacing" textLength="14" x="445" y="513.4326">13</text><text fill="#000000" font-family="sans-serif" font-size="13" lengthAdjust="spacing" textLength="128" x="463" y="513.4326">return new list of Floor</text><polygon fill="#181818" points="406,552.9863,416,556.9863,406,560.9863,410,556.9863" style="stroke:#181818;stroke-width:1.0;"/><line style="stroke:#181818;stroke-width:1.0;" x1="84" x2="412" y1="556.9863" y2="556.9863"/><text fill="#000000" font-family="sans-serif" font-size="13" font-weight="bold" lengthAdjust="spacing" textLength="14" x="91" y="551.7236">14</text><text fill="#000000" font-family="sans-serif" font-size="13" lengthAdjust="spacing" textLength="292" x="109" y="551.7236">inputs brand, model, serial number and description</text><polygon fill="#181818" points="604,584.2773,614,588.2773,604,592.2773,608,588.2773" style="stroke:#181818;stroke-width:1.0;"/><line style="stroke:#181818;stroke-width:1.0;" x1="428" x2="610" y1="588.2773" y2="588.2773"/><text fill="#000000" font-family="sans-serif" font-size="13" font-weight="bold" lengthAdjust="spacing" textLength="14" x="435" y="583.0146">15</text><text fill="#000000" font-family="sans-serif" font-size="13" lengthAdjust="spacing" textLength="146" x="453" y="583.0146">receives body information</text><polygon fill="#181818" points="784,615.5684,794,619.5684,784,623.5684,788,619.5684" style="stroke:#181818;stroke-width:1.0;"/><line style="stroke:#181818;stroke-width:1.0;" x1="626" x2="790" y1="619.5684" y2="619.5684"/><text fill="#000000" font-family="sans-serif" font-size="13" font-weight="bold" lengthAdjust="spacing" textLength="14" x="633" y="614.3057">16</text><text fill="#000000" font-family="sans-serif" font-size="13" lengthAdjust="spacing" textLength="130" x="651" y="614.3057">function call to Service</text><polygon fill="#181818" points="937,646.8594,947,650.8594,937,654.8594,941,650.8594" style="stroke:#181818;stroke-width:1.0;"/><line style="stroke:#181818;stroke-width:1.0;" x1="806" x2="943" y1="650.8594" y2="650.8594"/><text fill="#000000" font-family="sans-serif" font-size="13" font-weight="bold" lengthAdjust="spacing" textLength="14" x="813" y="645.5967">17</text><text fill="#000000" font-family="sans-serif" font-size="13" lengthAdjust="spacing" textLength="106" x="831" y="645.5967">post('/api/elevator')</text><polygon fill="#181818" points="1111,678.1504,1121,682.1504,1111,686.1504,1115,682.1504" style="stroke:#181818;stroke-width:1.0;"/><line style="stroke:#181818;stroke-width:1.0;" x1="959" x2="1117" y1="682.1504" y2="682.1504"/><text fill="#000000" font-family="sans-serif" font-size="13" font-weight="bold" lengthAdjust="spacing" textLength="14" x="966" y="676.8877">18</text><text fill="#000000" font-family="sans-serif" font-size="13" lengthAdjust="spacing" textLength="122" x="984" y="676.8877">sends request to API</text><polygon fill="#181818" points="817,709.4414,807,713.4414,817,717.4414,813,713.4414" style="stroke:#181818;stroke-width:1.0;"/><line style="stroke:#181818;stroke-width:1.0;" x1="811" x2="953" y1="713.4414" y2="713.4414"/><text fill="#000000" font-family="sans-serif" font-size="13" font-weight="bold" lengthAdjust="spacing" textLength="14" x="823" y="708.1787">19</text><text fill="#000000" font-family="sans-serif" font-size="13" lengthAdjust="spacing" textLength="61" x="841" y="708.1787">status 200</text><polygon fill="#181818" points="637,740.7324,627,744.7324,637,748.7324,633,744.7324" style="stroke:#181818;stroke-width:1.0;"/><line style="stroke:#181818;stroke-width:1.0;" x1="631" x2="800" y1="744.7324" y2="744.7324"/><text fill="#000000" font-family="sans-serif" font-size="13" font-weight="bold" lengthAdjust="spacing" textLength="14" x="643" y="739.4697">20</text><text fill="#000000" font-family="sans-serif" font-size="13" lengthAdjust="spacing" textLength="61" x="661" y="739.4697">status 200</text><polygon fill="#181818" points="439,772.0234,429,776.0234,439,780.0234,435,776.0234" style="stroke:#181818;stroke-width:1.0;"/><line style="stroke:#181818;stroke-width:1.0;" x1="433" x2="620" y1="776.0234" y2="776.0234"/><text fill="#000000" font-family="sans-serif" font-size="13" font-weight="bold" lengthAdjust="spacing" textLength="14" x="445" y="770.7607">21</text><text fill="#000000" font-family="sans-serif" font-size="13" lengthAdjust="spacing" textLength="61" x="463" y="770.7607">status 200</text><polygon fill="#181818" points="95,803.3145,85,807.3145,95,811.3145,91,807.3145" style="stroke:#181818;stroke-width:1.0;"/><line style="stroke:#181818;stroke-width:1.0;" x1="89" x2="417" y1="807.3145" y2="807.3145"/><text fill="#000000" font-family="sans-serif" font-size="13" font-weight="bold" lengthAdjust="spacing" textLength="14" x="101" y="802.0518">22</text><text fill="#000000" font-family="sans-serif" font-size="13" lengthAdjust="spacing" textLength="106" x="119" y="802.0518">success message</text><!--SRC=[fLHDRzim3BthLn2zf0FQkjWnXm6RXy8x52ZWmdT6Ob81-fe-KlJVZuhZLGRImzQBRUWzKe-Ff3SlEOUqxRfWqELYpPtqjalqkv2JTAiq7Y9Q8R1axuhTKUHlcNs4_X4mmLMFDfG4Z-ZmGF5A18nPInqu6qoQNg6ofjLnxrsEtXYA5UjNs4Zng2LLO5m1m_Fpqy-eZtFG84uoz14piH8XMCtjDvXW2v38aCm9-CKmAvMHC6llm8VwQY8d8QOQnz5RI2_-zLAK9LVQ2vRykwADqkwmv638k_44alfn1g-_j48vJQMEJDqN9q_f9He3sI-LD_HHY77972cNwC3ebC7luS5upvrGr9BxHU5bydkb9IWEINy9U4HjS6S8zfMQ13y347lzbhNbPipdeDEvU5AN33dJ6Z_cYnPFJZfITUIJBZWUgtzoua80EGMrpBOGxKAfZOter0rOhyZSS7LHeu5v-84HK9HarFCiJU_I9F5qShHNRvnfxwF5UTp-fzg1wS6dVBtfCEXkcSfDEqwy14FbrWuubLW2RoqNoOc_F_qwWoEZ6JElwDVx-vLFGsFi1vJMoWye_Mg5YfIK4gzCIlmx47y0]--></g></svg>