<?xml version="1.0" encoding="us-ascii" standalone="no"?><svg xmlns="http://www.w3.org/2000/svg" xmlns:xlink="http://www.w3.org/1999/xlink" contentStyleType="text/css" height="258.6px" preserveAspectRatio="none" style="width:345px;height:258px;background:#FFFFFF;" version="1.1" viewBox="0 0 345 258" width="345px" zoomAndPan="magnify"><defs/><g><rect fill="#FFFFFF" height="127.8984" style="stroke:#181818;stroke-width:0.6;" width="6" x="111.9" y="70.1473"/><rect fill="#FFFFFF" height="75.3492" style="stroke:#181818;stroke-width:0.6;" width="6" x="203.7" y="88.9219"/><line style="stroke:#181818;stroke-width:0.3;stroke-dasharray:5.0,5.0;" x1="13.2" x2="13.2" y1="50.1727" y2="208.8457"/><line style="stroke:#181818;stroke-width:0.3;stroke-dasharray:5.0,5.0;" x1="114.9" x2="114.9" y1="50.1727" y2="208.8457"/><line style="stroke:#181818;stroke-width:0.3;stroke-dasharray:5.0,5.0;" x1="206.7" x2="206.7" y1="50.1727" y2="208.8457"/><text fill="#000000" font-family="sans-serif" font-size="8.4" lengthAdjust="spacing" textLength="17.4" x="3" y="48.0645">User</text><ellipse cx="13.5" cy="8.1" fill="#E2E2F0" rx="4.8" ry="4.8" style="stroke:#181818;stroke-width:0.3;"/><path d="M13.5,12.9 L13.5,29.1 M5.7,17.7 L21.3,17.7 M13.5,29.1 L5.7,38.1 M13.5,29.1 L21.3,38.1 " fill="none" style="stroke:#181818;stroke-width:0.3;"/><text fill="#000000" font-family="sans-serif" font-size="8.4" lengthAdjust="spacing" textLength="17.4" x="3" y="217.3102">User</text><ellipse cx="13.5" cy="224.5184" fill="#E2E2F0" rx="4.8" ry="4.8" style="stroke:#181818;stroke-width:0.3;"/><path d="M13.5,229.3184 L13.5,245.5184 M5.7,234.1184 L21.3,234.1184 M13.5,245.5184 L5.7,254.5184 M13.5,245.5184 L21.3,254.5184 " fill="none" style="stroke:#181818;stroke-width:0.3;"/><rect fill="#E2E2F0" height="19.5727" rx="1.5" ry="1.5" style="stroke:#181818;stroke-width:0.3;" width="15.6" x="107.1" y="30"/><text fill="#000000" font-family="sans-serif" font-size="8.4" lengthAdjust="spacing" textLength="7.2" x="111.3" y="43.2645">UI</text><rect fill="#E2E2F0" height="19.5727" rx="1.5" ry="1.5" style="stroke:#181818;stroke-width:0.3;" width="15.6" x="107.1" y="208.2457"/><text fill="#000000" font-family="sans-serif" font-size="8.4" lengthAdjust="spacing" textLength="7.2" x="111.3" y="221.5102">UI</text><rect fill="#E2E2F0" height="19.5727" rx="1.5" ry="1.5" style="stroke:#181818;stroke-width:0.3;" width="31.2" x="191.1" y="30"/><text fill="#000000" font-family="sans-serif" font-size="8.4" lengthAdjust="spacing" textLength="22.8" x="195.3" y="43.2645">Route</text><rect fill="#E2E2F0" height="19.5727" rx="1.5" ry="1.5" style="stroke:#181818;stroke-width:0.3;" width="31.2" x="191.1" y="208.2457"/><text fill="#000000" font-family="sans-serif" font-size="8.4" lengthAdjust="spacing" textLength="22.8" x="195.3" y="221.5102">Route</text><rect fill="#FFFFFF" height="127.8984" style="stroke:#181818;stroke-width:0.6;" width="6" x="111.9" y="70.1473"/><rect fill="#FFFFFF" height="75.3492" style="stroke:#181818;stroke-width:0.6;" width="6" x="203.7" y="88.9219"/><polygon fill="#181818" points="104.7,67.7473,110.7,70.1473,104.7,72.5473,107.1,70.1473" style="stroke:#181818;stroke-width:0.6;"/><line style="stroke:#181818;stroke-width:0.6;" x1="13.5" x2="108.3" y1="70.1473" y2="70.1473"/><text fill="#000000" font-family="sans-serif" font-size="7.8" font-weight="bold" lengthAdjust="spacing" textLength="4.2" x="17.7" y="66.9896">1</text><text fill="#000000" font-family="sans-serif" font-size="7.8" lengthAdjust="spacing" textLength="80.4" x="24.3" y="66.9896">request update building</text><polygon fill="#181818" points="196.5,86.5219,202.5,88.9219,196.5,91.3219,198.9,88.9219" style="stroke:#181818;stroke-width:0.6;"/><line style="stroke:#181818;stroke-width:0.6;" x1="117.9" x2="200.1" y1="88.9219" y2="88.9219"/><text fill="#000000" font-family="sans-serif" font-size="7.8" font-weight="bold" lengthAdjust="spacing" textLength="4.2" x="122.1" y="85.7643">2</text><text fill="#000000" font-family="sans-serif" font-size="7.8" lengthAdjust="spacing" textLength="67.8" x="128.7" y="85.7643">patch('/api/building')</text><line style="stroke:#181818;stroke-width:0.6;" x1="209.7" x2="234.9" y1="122.6965" y2="122.6965"/><line style="stroke:#181818;stroke-width:0.6;" x1="234.9" x2="234.9" y1="122.6965" y2="130.4965"/><line style="stroke:#181818;stroke-width:0.6;" x1="210.3" x2="234.9" y1="130.4965" y2="130.4965"/><polygon fill="#181818" points="216.3,128.0965,210.3,130.4965,216.3,132.8965,213.9,130.4965" style="stroke:#181818;stroke-width:0.6;"/><text fill="#000000" font-family="sans-serif" font-size="7.8" font-weight="bold" lengthAdjust="spacing" textLength="4.2" x="213.9" y="119.5389">3</text><text fill="#000000" font-family="sans-serif" font-size="7.8" lengthAdjust="spacing" textLength="120.6" x="220.5" y="119.5389">edits building, saves and returns it.</text><polygon fill="#181818" points="124.5,161.8711,118.5,164.2711,124.5,166.6711,122.1,164.2711" style="stroke:#181818;stroke-width:0.6;"/><line style="stroke:#181818;stroke-width:0.6;" x1="120.9" x2="206.1" y1="164.2711" y2="164.2711"/><text fill="#000000" font-family="sans-serif" font-size="7.8" font-weight="bold" lengthAdjust="spacing" textLength="4.2" x="128.1" y="161.1135">4</text><text fill="#000000" font-family="sans-serif" font-size="7.8" lengthAdjust="spacing" textLength="55.8" x="134.7" y="161.1135">response status</text><polygon fill="#181818" points="20.1,195.6457,14.1,198.0457,20.1,200.4457,17.7,198.0457" style="stroke:#181818;stroke-width:0.6;"/><line style="stroke:#181818;stroke-width:0.6;" x1="16.5" x2="114.3" y1="198.0457" y2="198.0457"/><text fill="#000000" font-family="sans-serif" font-size="7.8" font-weight="bold" lengthAdjust="spacing" textLength="4.2" x="23.7" y="194.8881">5</text><text fill="#000000" font-family="sans-serif" font-size="7.8" lengthAdjust="spacing" textLength="63.6" x="30.3" y="194.8881">operation success</text><!--SRC=[NOwnRW8n38RtF8Mter8XEqDtraZt02Qn8D9TaiOsqpqyJWj5TBD-V_xyJrUHnaVlsu95T5qEiQwUwLkfHDgdZ9UEgtEeKekkP-esHwaTPgOEo32xXbropCq4C9z-ijDR6AeAmLW4vsROVmti27ryOG5j2Mr_rhoaN2x3dsyZCOs1XWUZ6qgyxYQFBVidEdsu5ntSjcqkF7bAMVXF-WcCDsB0akolQ2yCMGwlaqSZRhKm0GkAialqp_vRPpQqDkeekHPWZP7u3RRYTm00]--></g></svg>