<?xml version="1.0" encoding="us-ascii" standalone="no"?><svg xmlns="http://www.w3.org/2000/svg" xmlns:xlink="http://www.w3.org/1999/xlink" contentStyleType="text/css" height="400px" preserveAspectRatio="none" style="width:362px;height:400px;background:#FFFFFF;" version="1.1" viewBox="0 0 362 400" width="362px" zoomAndPan="magnify"><defs/><g><rect fill="#FFFFFF" height="214.7461" style="stroke:#181818;stroke-width:1.0;" width="10" x="48.5" y="93.6211"/><rect fill="#FFFFFF" height="31.291" style="stroke:#181818;stroke-width:1.0;" width="10" x="219.5" y="116.9121"/><rect fill="#FFFFFF" height="119.873" style="stroke:#181818;stroke-width:1.0;" width="10" x="219.5" y="179.4941"/><line style="stroke:#181818;stroke-width:0.5;stroke-dasharray:5.0,5.0;" x1="53" x2="53" y1="83.6211" y2="317.3672"/><line style="stroke:#181818;stroke-width:0.5;stroke-dasharray:5.0,5.0;" x1="224.5" x2="224.5" y1="83.6211" y2="317.3672"/><text fill="#000000" font-family="sans-serif" font-size="14" lengthAdjust="spacing" textLength="91" x="5" y="80.1074">Task Manager</text><ellipse cx="53.5" cy="13.5" fill="#E2E2F0" rx="8" ry="8" style="stroke:#181818;stroke-width:0.5;"/><path d="M53.5,21.5 L53.5,48.5 M40.5,29.5 L66.5,29.5 M53.5,48.5 L40.5,63.5 M53.5,48.5 L66.5,63.5 " fill="none" style="stroke:#181818;stroke-width:0.5;"/><text fill="#000000" font-family="sans-serif" font-size="14" lengthAdjust="spacing" textLength="91" x="5" y="331.4746">Task Manager</text><ellipse cx="53.5" cy="343.4883" fill="#E2E2F0" rx="8" ry="8" style="stroke:#181818;stroke-width:0.5;"/><path d="M53.5,351.4883 L53.5,378.4883 M40.5,359.4883 L66.5,359.4883 M53.5,378.4883 L40.5,393.4883 M53.5,378.4883 L66.5,393.4883 " fill="none" style="stroke:#181818;stroke-width:0.5;"/><rect fill="#E2E2F0" height="32.6211" rx="2.5" ry="2.5" style="stroke:#181818;stroke-width:0.5;" width="60" x="194.5" y="50"/><text fill="#000000" font-family="sans-serif" font-size="14" lengthAdjust="spacing" textLength="46" x="201.5" y="72.1074">System</text><rect fill="#E2E2F0" height="32.6211" rx="2.5" ry="2.5" style="stroke:#181818;stroke-width:0.5;" width="60" x="194.5" y="316.3672"/><text fill="#000000" font-family="sans-serif" font-size="14" lengthAdjust="spacing" textLength="46" x="201.5" y="338.4746">System</text><rect fill="#FFFFFF" height="214.7461" style="stroke:#181818;stroke-width:1.0;" width="10" x="48.5" y="93.6211"/><rect fill="#FFFFFF" height="31.291" style="stroke:#181818;stroke-width:1.0;" width="10" x="219.5" y="116.9121"/><rect fill="#FFFFFF" height="119.873" style="stroke:#181818;stroke-width:1.0;" width="10" x="219.5" y="179.4941"/><polygon fill="#181818" points="207.5,112.9121,217.5,116.9121,207.5,120.9121,211.5,116.9121" style="stroke:#181818;stroke-width:1.0;"/><line style="stroke:#181818;stroke-width:1.0;" x1="58.5" x2="213.5" y1="116.9121" y2="116.9121"/><text fill="#000000" font-family="sans-serif" font-size="13" lengthAdjust="spacing" textLength="139" x="65.5" y="111.6494">requests an assignment</text><polygon fill="#181818" points="69.5,144.2031,59.5,148.2031,69.5,152.2031,65.5,148.2031" style="stroke:#181818;stroke-width:1.0;"/><line style="stroke:#181818;stroke-width:1.0;" x1="63.5" x2="223.5" y1="148.2031" y2="148.2031"/><text fill="#000000" font-family="sans-serif" font-size="13" lengthAdjust="spacing" textLength="113" x="75.5" y="142.9404">shows request form</text><polygon fill="#181818" points="207.5,175.4941,217.5,179.4941,207.5,183.4941,211.5,179.4941" style="stroke:#181818;stroke-width:1.0;"/><line style="stroke:#181818;stroke-width:1.0;" x1="58.5" x2="213.5" y1="179.4941" y2="179.4941"/><text fill="#000000" font-family="sans-serif" font-size="13" lengthAdjust="spacing" textLength="109" x="65.5" y="174.2314">fills in request form</text><line style="stroke:#181818;stroke-width:1.0;" x1="229.5" x2="271.5" y1="210.7852" y2="210.7852"/><line style="stroke:#181818;stroke-width:1.0;" x1="271.5" x2="271.5" y1="210.7852" y2="223.7852"/><line style="stroke:#181818;stroke-width:1.0;" x1="230.5" x2="271.5" y1="223.7852" y2="223.7852"/><polygon fill="#181818" points="240.5,219.7852,230.5,223.7852,240.5,227.7852,236.5,223.7852" style="stroke:#181818;stroke-width:1.0;"/><text fill="#000000" font-family="sans-serif" font-size="13" lengthAdjust="spacing" textLength="119" x="236.5" y="205.5225">validate request form</text><line style="stroke:#181818;stroke-width:1.0;" x1="229.5" x2="271.5" y1="255.0762" y2="255.0762"/><line style="stroke:#181818;stroke-width:1.0;" x1="271.5" x2="271.5" y1="255.0762" y2="268.0762"/><line style="stroke:#181818;stroke-width:1.0;" x1="230.5" x2="271.5" y1="268.0762" y2="268.0762"/><polygon fill="#181818" points="240.5,264.0762,230.5,268.0762,240.5,272.0762,236.5,268.0762" style="stroke:#181818;stroke-width:1.0;"/><text fill="#000000" font-family="sans-serif" font-size="13" lengthAdjust="spacing" textLength="83" x="236.5" y="249.8135">create request</text><polygon fill="#181818" points="69.5,295.3672,59.5,299.3672,69.5,303.3672,65.5,299.3672" style="stroke:#181818;stroke-width:1.0;"/><line style="stroke:#181818;stroke-width:1.0;" x1="63.5" x2="223.5" y1="299.3672" y2="299.3672"/><text fill="#000000" font-family="sans-serif" font-size="13" lengthAdjust="spacing" textLength="137" x="75.5" y="294.1045">shows request success</text><!--SRC=[VSux3eCm30RWFQUms7i1Xjw0gLp02ePQpOF6Xggt9wYWDdrD7ln_lurMOuAs0HIeMfGBD1Xme5IP4PEovH63mkakIjuOjCepAcLXCZeSjqqDYQuJYGfWo5t2G_0Kz0csXiTOOTlK8ETuavr27vCt7RsJyaxFpWbmADNlCxkRqN6t9WhtcRE9Nb9__vN9MXBvyl82]--></g></svg>