<?xml version="1.0" encoding="us-ascii" standalone="no"?><svg xmlns="http://www.w3.org/2000/svg" xmlns:xlink="http://www.w3.org/1999/xlink" contentStyleType="text/css" height="409px" preserveAspectRatio="none" style="width:719px;height:409px;background:#FFFFFF;" version="1.1" viewBox="0 0 719 409" width="719px" zoomAndPan="magnify"><defs/><g><line style="stroke:#181818;stroke-width:0.5;stroke-dasharray:5.0,5.0;" x1="62" x2="62" y1="83.6211" y2="325.9492"/><line style="stroke:#181818;stroke-width:0.5;stroke-dasharray:5.0,5.0;" x1="352" x2="352" y1="83.6211" y2="325.9492"/><line style="stroke:#181818;stroke-width:0.5;stroke-dasharray:5.0,5.0;" x1="683" x2="683" y1="83.6211" y2="325.9492"/><text fill="#000000" font-family="sans-serif" font-size="14" lengthAdjust="spacing" textLength="108" x="5" y="80.1074">CampusManager</text><ellipse cx="62" cy="13.5" fill="#E2E2F0" rx="8" ry="8" style="stroke:#181818;stroke-width:0.5;"/><path d="M62,21.5 L62,48.5 M49,29.5 L75,29.5 M62,48.5 L49,63.5 M62,48.5 L75,63.5 " fill="none" style="stroke:#181818;stroke-width:0.5;"/><text fill="#000000" font-family="sans-serif" font-size="14" lengthAdjust="spacing" textLength="108" x="5" y="340.0566">CampusManager</text><ellipse cx="62" cy="352.0703" fill="#E2E2F0" rx="8" ry="8" style="stroke:#181818;stroke-width:0.5;"/><path d="M62,360.0703 L62,387.0703 M49,368.0703 L75,368.0703 M62,387.0703 L49,402.0703 M62,387.0703 L75,402.0703 " fill="none" style="stroke:#181818;stroke-width:0.5;"/><rect fill="#E2E2F0" height="32.6211" rx="2.5" ry="2.5" style="stroke:#181818;stroke-width:0.5;" width="78" x="313" y="50"/><text fill="#000000" font-family="sans-serif" font-size="14" lengthAdjust="spacing" textLength="64" x="320" y="72.1074">CampusUI</text><rect fill="#E2E2F0" height="32.6211" rx="2.5" ry="2.5" style="stroke:#181818;stroke-width:0.5;" width="78" x="313" y="324.9492"/><text fill="#000000" font-family="sans-serif" font-size="14" lengthAdjust="spacing" textLength="64" x="320" y="347.0566">CampusUI</text><rect fill="#E2E2F0" height="32.6211" rx="2.5" ry="2.5" style="stroke:#181818;stroke-width:0.5;" width="60" x="653" y="50"/><text fill="#000000" font-family="sans-serif" font-size="14" lengthAdjust="spacing" textLength="46" x="660" y="72.1074">System</text><rect fill="#E2E2F0" height="32.6211" rx="2.5" ry="2.5" style="stroke:#181818;stroke-width:0.5;" width="60" x="653" y="324.9492"/><text fill="#000000" font-family="sans-serif" font-size="14" lengthAdjust="spacing" textLength="46" x="660" y="347.0566">System</text><polygon fill="#181818" points="73,112.9121,63,116.9121,73,120.9121,69,116.9121" style="stroke:#181818;stroke-width:1.0;"/><line style="stroke:#181818;stroke-width:1.0;" x1="67" x2="351" y1="116.9121" y2="116.9121"/><text fill="#000000" font-family="sans-serif" font-size="13" font-weight="bold" lengthAdjust="spacing" textLength="7" x="79" y="111.6494">1</text><text fill="#000000" font-family="sans-serif" font-size="13" lengthAdjust="spacing" textLength="164" x="90" y="111.6494">1: presents graphic interface</text><polygon fill="#181818" points="363,144.2031,353,148.2031,363,152.2031,359,148.2031" style="stroke:#181818;stroke-width:1.0;"/><line style="stroke:#181818;stroke-width:1.0;" x1="357" x2="682" y1="148.2031" y2="148.2031"/><text fill="#000000" font-family="sans-serif" font-size="13" font-weight="bold" lengthAdjust="spacing" textLength="7" x="369" y="142.9404">2</text><text fill="#000000" font-family="sans-serif" font-size="13" lengthAdjust="spacing" textLength="103" x="380" y="142.9404">1: waits a request</text><polygon fill="#181818" points="340,192.7852,350,196.7852,340,200.7852,344,196.7852" style="stroke:#181818;stroke-width:1.0;"/><line style="stroke:#181818;stroke-width:1.0;" x1="62" x2="346" y1="196.7852" y2="196.7852"/><text fill="#000000" font-family="sans-serif" font-size="13" font-weight="bold" lengthAdjust="spacing" textLength="7" x="69" y="182.877">3</text><text fill="#000000" font-family="sans-serif" font-size="13" lengthAdjust="spacing" textLength="255" x="80" y="174.2314">2: fill form (floor, building, name, description,</text><text fill="#000000" font-family="sans-serif" font-size="13" lengthAdjust="spacing" textLength="165" x="84" y="191.5225">roomtype, dimensions, door)</text><polygon fill="#181818" points="671,241.3672,681,245.3672,671,249.3672,675,245.3672" style="stroke:#181818;stroke-width:1.0;"/><line style="stroke:#181818;stroke-width:1.0;" x1="352" x2="677" y1="245.3672" y2="245.3672"/><text fill="#000000" font-family="sans-serif" font-size="13" font-weight="bold" lengthAdjust="spacing" textLength="7" x="359" y="231.459">4</text><text fill="#000000" font-family="sans-serif" font-size="13" lengthAdjust="spacing" textLength="296" x="370" y="222.8135">2: sends request (floor, building, name, description,</text><text fill="#000000" font-family="sans-serif" font-size="13" lengthAdjust="spacing" textLength="165" x="374" y="240.1045">roomtype, dimensions, door)</text><polygon fill="#181818" points="363,272.6582,353,276.6582,363,280.6582,359,276.6582" style="stroke:#181818;stroke-width:1.0;"/><line style="stroke:#181818;stroke-width:1.0;" x1="357" x2="682" y1="276.6582" y2="276.6582"/><text fill="#000000" font-family="sans-serif" font-size="13" font-weight="bold" lengthAdjust="spacing" textLength="7" x="369" y="271.3955">5</text><text fill="#000000" font-family="sans-serif" font-size="13" lengthAdjust="spacing" textLength="216" x="380" y="271.3955">3: responds with a success message</text><polygon fill="#181818" points="73,303.9492,63,307.9492,73,311.9492,69,307.9492" style="stroke:#181818;stroke-width:1.0;"/><line style="stroke:#181818;stroke-width:1.0;" x1="67" x2="351" y1="307.9492" y2="307.9492"/><text fill="#000000" font-family="sans-serif" font-size="13" font-weight="bold" lengthAdjust="spacing" textLength="7" x="79" y="302.6865">6</text><text fill="#000000" font-family="sans-serif" font-size="13" lengthAdjust="spacing" textLength="162" x="90" y="302.6865">3: shows success message</text><!--SRC=[hP0_JyD03CNt-nJU02cb0hOCB1sg3anHDnRtuYIMSdyu-nJrs-CKYgXOMKxM_PxVitqtgMPfjziyOzGQvaUVmbReerBqjEaPnuB1EQoQOWqdAbPxJGLs67ALDumuKW4KsEzSngBiEPlLDpyUBkXuk67TMPJ2IZhd3CBcrTgXXQSMSY6Xg08Md2Vsm56f3EZ9THUToI_21TbK26KTLjIPmGz-Rc7WUOOXbG3tmvnIQU1KUUuvZWr43DH0J-8BP-KKc_S89QMWvxm23XJ5liLgQtsupjXzMTjylLnp_yF-rs8lhHbBJcl2mZhPWbAz9n48zjYnRmvcSfdI8dz4dm00]--></g></svg>