<?xml version="1.0" encoding="us-ascii" standalone="no"?><svg xmlns="http://www.w3.org/2000/svg" xmlns:xlink="http://www.w3.org/1999/xlink" contentStyleType="text/css" height="856px" preserveAspectRatio="none" style="width:1726px;height:856px;background:#FFFFFF;" version="1.1" viewBox="0 0 1726 856" width="1726px" zoomAndPan="magnify"><defs/><g><rect fill="#FFFFFF" height="671.1113" style="stroke:#181818;stroke-width:1.0;" width="10" x="48.5" y="93.6211"/><rect fill="#FFFFFF" height="31.291" style="stroke:#181818;stroke-width:1.0;" width="10" x="259.5" y="116.9121"/><rect fill="#FFFFFF" height="576.2383" style="stroke:#181818;stroke-width:1.0;" width="10" x="259.5" y="179.4941"/><rect fill="#FFFFFF" height="513.6563" style="stroke:#181818;stroke-width:1.0;" width="10" x="444.5" y="210.7852"/><rect fill="#FFFFFF" height="31.291" style="stroke:#181818;stroke-width:1.0;" width="10" x="651.5" y="242.0762"/><rect fill="#FFFFFF" height="388.4922" style="stroke:#181818;stroke-width:1.0;" width="10" x="651.5" y="304.6582"/><rect fill="#FFFFFF" height="325.9102" style="stroke:#181818;stroke-width:1.0;" width="10" x="888.5" y="335.9492"/><rect fill="#FFFFFF" height="200.7461" style="stroke:#181818;stroke-width:1.0;" width="10" x="1152.5" y="429.8223"/><rect fill="#FFFFFF" height="31.291" style="stroke:#181818;stroke-width:1.0;" width="10" x="1367.5" y="505.4043"/><rect fill="#FFFFFF" height="31.291" style="stroke:#181818;stroke-width:1.0;" width="10" x="1536.5" y="367.2402"/><line style="stroke:#181818;stroke-width:0.5;stroke-dasharray:5.0,5.0;" x1="53" x2="53" y1="83.6211" y2="773.7324"/><line style="stroke:#181818;stroke-width:0.5;stroke-dasharray:5.0,5.0;" x1="264" x2="264" y1="83.6211" y2="773.7324"/><line style="stroke:#181818;stroke-width:0.5;stroke-dasharray:5.0,5.0;" x1="449" x2="449" y1="83.6211" y2="773.7324"/><line style="stroke:#181818;stroke-width:0.5;stroke-dasharray:5.0,5.0;" x1="656.5" x2="656.5" y1="83.6211" y2="773.7324"/><line style="stroke:#181818;stroke-width:0.5;stroke-dasharray:5.0,5.0;" x1="893" x2="893" y1="83.6211" y2="773.7324"/><line style="stroke:#181818;stroke-width:0.5;stroke-dasharray:5.0,5.0;" x1="1157.5" x2="1157.5" y1="83.6211" y2="773.7324"/><line style="stroke:#181818;stroke-width:0.5;stroke-dasharray:5.0,5.0;" x1="1372" x2="1372" y1="83.6211" y2="773.7324"/><line style="stroke:#181818;stroke-width:0.5;stroke-dasharray:5.0,5.0;" x1="1541" x2="1541" y1="83.6211" y2="773.7324"/><line style="stroke:#181818;stroke-width:0.5;stroke-dasharray:5.0,5.0;" x1="1676" x2="1676" y1="83.6211" y2="773.7324"/><text fill="#000000" font-family="sans-serif" font-size="14" lengthAdjust="spacing" textLength="91" x="5" y="80.1074">Task Manager</text><ellipse cx="53.5" cy="13.5" fill="#E2E2F0" rx="8" ry="8" style="stroke:#181818;stroke-width:0.5;"/><path d="M53.5,21.5 L53.5,48.5 M40.5,29.5 L66.5,29.5 M53.5,48.5 L40.5,63.5 M53.5,48.5 L66.5,63.5 " fill="none" style="stroke:#181818;stroke-width:0.5;"/><text fill="#000000" font-family="sans-serif" font-size="14" lengthAdjust="spacing" textLength="91" x="5" y="787.8398">Task Manager</text><ellipse cx="53.5" cy="799.8535" fill="#E2E2F0" rx="8" ry="8" style="stroke:#181818;stroke-width:0.5;"/><path d="M53.5,807.8535 L53.5,834.8535 M40.5,815.8535 L66.5,815.8535 M53.5,834.8535 L40.5,849.8535 M53.5,834.8535 L66.5,849.8535 " fill="none" style="stroke:#181818;stroke-width:0.5;"/><rect fill="#E2E2F0" height="32.6211" rx="2.5" ry="2.5" style="stroke:#181818;stroke-width:0.5;" width="43" x="243" y="50"/><text fill="#000000" font-family="sans-serif" font-size="14" lengthAdjust="spacing" textLength="29" x="250" y="72.1074">View</text><rect fill="#E2E2F0" height="32.6211" rx="2.5" ry="2.5" style="stroke:#181818;stroke-width:0.5;" width="43" x="243" y="772.7324"/><text fill="#000000" font-family="sans-serif" font-size="14" lengthAdjust="spacing" textLength="29" x="250" y="794.8398">View</text><rect fill="#E2E2F0" height="32.6211" rx="2.5" ry="2.5" style="stroke:#181818;stroke-width:0.5;" width="87" x="406" y="50"/><text fill="#000000" font-family="sans-serif" font-size="14" lengthAdjust="spacing" textLength="73" x="413" y="72.1074">Component</text><rect fill="#E2E2F0" height="32.6211" rx="2.5" ry="2.5" style="stroke:#181818;stroke-width:0.5;" width="87" x="406" y="772.7324"/><text fill="#000000" font-family="sans-serif" font-size="14" lengthAdjust="spacing" textLength="73" x="413" y="794.8398">Component</text><rect fill="#E2E2F0" height="32.6211" rx="2.5" ry="2.5" style="stroke:#181818;stroke-width:0.5;" width="120" x="596.5" y="50"/><text fill="#000000" font-family="sans-serif" font-size="14" lengthAdjust="spacing" textLength="106" x="603.5" y="72.1074">FrontEndService</text><rect fill="#E2E2F0" height="32.6211" rx="2.5" ry="2.5" style="stroke:#181818;stroke-width:0.5;" width="120" x="596.5" y="772.7324"/><text fill="#000000" font-family="sans-serif" font-size="14" lengthAdjust="spacing" textLength="106" x="603.5" y="794.8398">FrontEndService</text><rect fill="#E2E2F0" height="32.6211" rx="2.5" ry="2.5" style="stroke:#181818;stroke-width:0.5;" width="149" x="819" y="50"/><text fill="#000000" font-family="sans-serif" font-size="14" lengthAdjust="spacing" textLength="135" x="826" y="72.1074">AssignmentController</text><rect fill="#E2E2F0" height="32.6211" rx="2.5" ry="2.5" style="stroke:#181818;stroke-width:0.5;" width="149" x="819" y="772.7324"/><text fill="#000000" font-family="sans-serif" font-size="14" lengthAdjust="spacing" textLength="135" x="826" y="794.8398">AssignmentController</text><rect fill="#E2E2F0" height="32.6211" rx="2.5" ry="2.5" style="stroke:#181818;stroke-width:0.5;" width="134" x="1090.5" y="50"/><text fill="#000000" font-family="sans-serif" font-size="14" lengthAdjust="spacing" textLength="120" x="1097.5" y="72.1074">AssignmentService</text><rect fill="#E2E2F0" height="32.6211" rx="2.5" ry="2.5" style="stroke:#181818;stroke-width:0.5;" width="134" x="1090.5" y="772.7324"/><text fill="#000000" font-family="sans-serif" font-size="14" lengthAdjust="spacing" textLength="120" x="1097.5" y="794.8398">AssignmentService</text><rect fill="#E2E2F0" height="32.6211" rx="2.5" ry="2.5" style="stroke:#181818;stroke-width:0.5;" width="155" x="1295" y="50"/><text fill="#000000" font-family="sans-serif" font-size="14" lengthAdjust="spacing" textLength="141" x="1302" y="72.1074">AssignmentRepository</text><rect fill="#E2E2F0" height="32.6211" rx="2.5" ry="2.5" style="stroke:#181818;stroke-width:0.5;" width="155" x="1295" y="772.7324"/><text fill="#000000" font-family="sans-serif" font-size="14" lengthAdjust="spacing" textLength="141" x="1302" y="794.8398">AssignmentRepository</text><rect fill="#E2E2F0" height="32.6211" rx="2.5" ry="2.5" style="stroke:#181818;stroke-width:0.5;" width="163" x="1460" y="50"/><text fill="#000000" font-family="sans-serif" font-size="14" lengthAdjust="spacing" textLength="149" x="1467" y="72.1074">CreatingAssignmentDto</text><rect fill="#E2E2F0" height="32.6211" rx="2.5" ry="2.5" style="stroke:#181818;stroke-width:0.5;" width="163" x="1460" y="772.7324"/><text fill="#000000" font-family="sans-serif" font-size="14" lengthAdjust="spacing" textLength="149" x="1467" y="794.8398">CreatingAssignmentDto</text><rect fill="#E2E2F0" height="32.6211" rx="2.5" ry="2.5" style="stroke:#181818;stroke-width:0.5;" width="87" x="1633" y="50"/><text fill="#000000" font-family="sans-serif" font-size="14" lengthAdjust="spacing" textLength="73" x="1640" y="72.1074">Assignment</text><rect fill="#E2E2F0" height="32.6211" rx="2.5" ry="2.5" style="stroke:#181818;stroke-width:0.5;" width="87" x="1633" y="772.7324"/><text fill="#000000" font-family="sans-serif" font-size="14" lengthAdjust="spacing" textLength="73" x="1640" y="794.8398">Assignment</text><rect fill="#FFFFFF" height="671.1113" style="stroke:#181818;stroke-width:1.0;" width="10" x="48.5" y="93.6211"/><rect fill="#FFFFFF" height="31.291" style="stroke:#181818;stroke-width:1.0;" width="10" x="259.5" y="116.9121"/><rect fill="#FFFFFF" height="576.2383" style="stroke:#181818;stroke-width:1.0;" width="10" x="259.5" y="179.4941"/><rect fill="#FFFFFF" height="513.6563" style="stroke:#181818;stroke-width:1.0;" width="10" x="444.5" y="210.7852"/><rect fill="#FFFFFF" height="31.291" style="stroke:#181818;stroke-width:1.0;" width="10" x="651.5" y="242.0762"/><rect fill="#FFFFFF" height="388.4922" style="stroke:#181818;stroke-width:1.0;" width="10" x="651.5" y="304.6582"/><rect fill="#FFFFFF" height="325.9102" style="stroke:#181818;stroke-width:1.0;" width="10" x="888.5" y="335.9492"/><rect fill="#FFFFFF" height="200.7461" style="stroke:#181818;stroke-width:1.0;" width="10" x="1152.5" y="429.8223"/><rect fill="#FFFFFF" height="31.291" style="stroke:#181818;stroke-width:1.0;" width="10" x="1367.5" y="505.4043"/><rect fill="#FFFFFF" height="31.291" style="stroke:#181818;stroke-width:1.0;" width="10" x="1536.5" y="367.2402"/><polygon fill="#181818" points="247.5,112.9121,257.5,116.9121,247.5,120.9121,251.5,116.9121" style="stroke:#181818;stroke-width:1.0;"/><line style="stroke:#181818;stroke-width:1.0;" x1="58.5" x2="253.5" y1="116.9121" y2="116.9121"/><text fill="#000000" font-family="sans-serif" font-size="13" lengthAdjust="spacing" textLength="178" x="65.5" y="111.6494">want to request an assignment</text><polygon fill="#181818" points="69.5,144.2031,59.5,148.2031,69.5,152.2031,65.5,148.2031" style="stroke:#181818;stroke-width:1.0;"/><line style="stroke:#181818;stroke-width:1.0;" x1="63.5" x2="263.5" y1="148.2031" y2="148.2031"/><text fill="#000000" font-family="sans-serif" font-size="13" lengthAdjust="spacing" textLength="177" x="75.5" y="142.9404">show assignment request form</text><polygon fill="#181818" points="247.5,175.4941,257.5,179.4941,247.5,183.4941,251.5,179.4941" style="stroke:#181818;stroke-width:1.0;"/><line style="stroke:#181818;stroke-width:1.0;" x1="58.5" x2="253.5" y1="179.4941" y2="179.4941"/><text fill="#000000" font-family="sans-serif" font-size="13" lengthAdjust="spacing" textLength="181" x="65.5" y="174.2314">data[startPoint, endPoint, type]</text><polygon fill="#181818" points="432.5,206.7852,442.5,210.7852,432.5,214.7852,436.5,210.7852" style="stroke:#181818;stroke-width:1.0;"/><line style="stroke:#181818;stroke-width:1.0;" x1="269.5" x2="438.5" y1="210.7852" y2="210.7852"/><text fill="#000000" font-family="sans-serif" font-size="13" lengthAdjust="spacing" textLength="25" x="276.5" y="205.5225">data</text><polygon fill="#181818" points="639.5,238.0762,649.5,242.0762,639.5,246.0762,643.5,242.0762" style="stroke:#181818;stroke-width:1.0;"/><line style="stroke:#181818;stroke-width:1.0;" x1="454.5" x2="645.5" y1="242.0762" y2="242.0762"/><text fill="#000000" font-family="sans-serif" font-size="13" lengthAdjust="spacing" textLength="61" x="461.5" y="236.8135">getToken()</text><polygon fill="#181818" points="465.5,269.3672,455.5,273.3672,465.5,277.3672,461.5,273.3672" style="stroke:#181818;stroke-width:1.0;"/><line style="stroke:#181818;stroke-width:1.0;" x1="459.5" x2="655.5" y1="273.3672" y2="273.3672"/><text fill="#000000" font-family="sans-serif" font-size="13" lengthAdjust="spacing" textLength="32" x="471.5" y="268.1045">token</text><polygon fill="#181818" points="639.5,300.6582,649.5,304.6582,639.5,308.6582,643.5,304.6582" style="stroke:#181818;stroke-width:1.0;"/><line style="stroke:#181818;stroke-width:1.0;" x1="454.5" x2="645.5" y1="304.6582" y2="304.6582"/><text fill="#000000" font-family="sans-serif" font-size="13" lengthAdjust="spacing" textLength="178" x="461.5" y="299.3955">createAssignment(data, token)</text><polygon fill="#181818" points="876.5,331.9492,886.5,335.9492,876.5,339.9492,880.5,335.9492" style="stroke:#181818;stroke-width:1.0;"/><line style="stroke:#181818;stroke-width:1.0;" x1="661.5" x2="882.5" y1="335.9492" y2="335.9492"/><text fill="#000000" font-family="sans-serif" font-size="13" lengthAdjust="spacing" textLength="141" x="668.5" y="330.6865">createAssignment(body)</text><polygon fill="#181818" points="1524.5,363.2402,1534.5,367.2402,1524.5,371.2402,1528.5,367.2402" style="stroke:#181818;stroke-width:1.0;"/><line style="stroke:#181818;stroke-width:1.0;" x1="898.5" x2="1530.5" y1="367.2402" y2="367.2402"/><text fill="#000000" font-family="sans-serif" font-size="13" lengthAdjust="spacing" textLength="54" x="905.5" y="361.9775">http body</text><polygon fill="#181818" points="909.5,394.5313,899.5,398.5313,909.5,402.5313,905.5,398.5313" style="stroke:#181818;stroke-width:1.0;"/><line style="stroke:#181818;stroke-width:1.0;" x1="903.5" x2="1540.5" y1="398.5313" y2="398.5313"/><text fill="#000000" font-family="sans-serif" font-size="13" lengthAdjust="spacing" textLength="18" x="915.5" y="393.2686">dto</text><polygon fill="#181818" points="1140.5,425.8223,1150.5,429.8223,1140.5,433.8223,1144.5,429.8223" style="stroke:#181818;stroke-width:1.0;"/><line style="stroke:#181818;stroke-width:1.0;" x1="898.5" x2="1146.5" y1="429.8223" y2="429.8223"/><text fill="#000000" font-family="sans-serif" font-size="13" lengthAdjust="spacing" textLength="116" x="905.5" y="424.5596">addAssignment(dto)</text><line style="stroke:#181818;stroke-width:1.0;" x1="1162.5" x2="1204.5" y1="461.1133" y2="461.1133"/><line style="stroke:#181818;stroke-width:1.0;" x1="1204.5" x2="1204.5" y1="461.1133" y2="474.1133"/><line style="stroke:#181818;stroke-width:1.0;" x1="1163.5" x2="1204.5" y1="474.1133" y2="474.1133"/><polygon fill="#181818" points="1173.5,470.1133,1163.5,474.1133,1173.5,478.1133,1169.5,474.1133" style="stroke:#181818;stroke-width:1.0;"/><text fill="#000000" font-family="sans-serif" font-size="13" lengthAdjust="spacing" textLength="191" x="1169.5" y="455.8506">decodeJwtTokenEmail(dto.token)</text><polygon fill="#181818" points="1355.5,501.4043,1365.5,505.4043,1355.5,509.4043,1359.5,505.4043" style="stroke:#181818;stroke-width:1.0;"/><line style="stroke:#181818;stroke-width:1.0;" x1="1162.5" x2="1361.5" y1="505.4043" y2="505.4043"/><text fill="#000000" font-family="sans-serif" font-size="13" lengthAdjust="spacing" textLength="102" x="1169.5" y="500.1416">getAssignments()</text><polygon fill="#181818" points="1173.5,532.6953,1163.5,536.6953,1173.5,540.6953,1169.5,536.6953" style="stroke:#181818;stroke-width:1.0;"/><line style="stroke:#181818;stroke-width:1.0;" x1="1167.5" x2="1371.5" y1="536.6953" y2="536.6953"/><text fill="#000000" font-family="sans-serif" font-size="13" lengthAdjust="spacing" textLength="74" x="1179.5" y="531.4326">assignments</text><polygon fill="#181818" points="1664.5,563.9863,1674.5,567.9863,1664.5,571.9863,1668.5,567.9863" style="stroke:#181818;stroke-width:1.0;"/><line style="stroke:#181818;stroke-width:1.0;" x1="1162.5" x2="1670.5" y1="567.9863" y2="567.9863"/><text fill="#000000" font-family="sans-serif" font-size="13" lengthAdjust="spacing" textLength="327" x="1169.5" y="562.7236">new Assignment(dto, type, email, assignments.count+1)</text><polygon fill="#181818" points="1360.5,595.2773,1370.5,599.2773,1360.5,603.2773,1364.5,599.2773" style="stroke:#181818;stroke-width:1.0;"/><line style="stroke:#181818;stroke-width:1.0;" x1="1162.5" x2="1366.5" y1="599.2773" y2="599.2773"/><text fill="#000000" font-family="sans-serif" font-size="13" lengthAdjust="spacing" textLength="137" x="1169.5" y="594.0146">AddAsync(Assignment)</text><polygon fill="#181818" points="909.5,626.5684,899.5,630.5684,909.5,634.5684,905.5,630.5684" style="stroke:#181818;stroke-width:1.0;"/><line style="stroke:#181818;stroke-width:1.0;" x1="903.5" x2="1156.5" y1="630.5684" y2="630.5684"/><text fill="#000000" font-family="sans-serif" font-size="13" lengthAdjust="spacing" textLength="230" x="915.5" y="625.3057">return new AssignmentDto(Assignment)</text><polygon fill="#181818" points="672.5,657.8594,662.5,661.8594,672.5,665.8594,668.5,661.8594" style="stroke:#181818;stroke-width:1.0;"/><line style="stroke:#181818;stroke-width:1.0;" x1="666.5" x2="892.5" y1="661.8594" y2="661.8594"/><text fill="#000000" font-family="sans-serif" font-size="13" lengthAdjust="spacing" textLength="203" x="678.5" y="656.5967">return AssignmentDto(Assignment)</text><polygon fill="#181818" points="465.5,689.1504,455.5,693.1504,465.5,697.1504,461.5,693.1504" style="stroke:#181818;stroke-width:1.0;"/><line style="stroke:#181818;stroke-width:1.0;" x1="459.5" x2="655.5" y1="693.1504" y2="693.1504"/><text fill="#000000" font-family="sans-serif" font-size="13" lengthAdjust="spacing" textLength="86" x="471.5" y="687.8877">return success</text><polygon fill="#181818" points="280.5,720.4414,270.5,724.4414,280.5,728.4414,276.5,724.4414" style="stroke:#181818;stroke-width:1.0;"/><line style="stroke:#181818;stroke-width:1.0;" x1="274.5" x2="448.5" y1="724.4414" y2="724.4414"/><text fill="#000000" font-family="sans-serif" font-size="13" lengthAdjust="spacing" textLength="151" x="286.5" y="719.1787">display success message</text><polygon fill="#181818" points="69.5,751.7324,59.5,755.7324,69.5,759.7324,65.5,755.7324" style="stroke:#181818;stroke-width:1.0;"/><line style="stroke:#181818;stroke-width:1.0;" x1="63.5" x2="263.5" y1="755.7324" y2="755.7324"/><text fill="#000000" font-family="sans-serif" font-size="13" lengthAdjust="spacing" textLength="140" x="75.5" y="750.4697">show success message</text><!--SRC=[ZPHDRzim38Rl-XL2JmcM5TZLXm62bXu612YSm9TX1qtYKg6nv4fC0__xKVw8vAmPTd3WYC_xaYPfAuq-yCEEgyWV3Yg-yfrowWZXWNKgeDMsKmvvO-6Ia6PnAdtRUGTqHo6v23q5xt3hp1x2kzMGWAVjVe686EtHjIINn0P_Ea58d91tiC9BtBEgeVFHqZFr0rOlwmsWqBfZnh-XJvn1VyTlS65CQRJl2e4wnQXPdx_ofkANX991WBSpH48TqRCmInhM9C5XL_7uuYy5SrN-zg5b1Wh9DObHg7v4fEAUlNMuuU3CT8Tz1p__oYD7JJwNJAPpQd_5Zu07_mfkjSxnD1Uw9YscS5bB2cS3dLe8kJ-hb6ipgZxs5F83rIzl-WAdaOiX1msYuY-87Kz41jA0w9hzXh-mY4u6WcfKnfG5ebyN0wJD4VkPDA2zWU-NiIdRLjbJuX-dnvd0UkXRjeohXM7DH7rDdQ6oG69ciuexUfMMzOsZfD6c0ZQboQFsPuUVlgnPKOn8pzSxlSekEKxT2O3du6xoqAOl-BAw_TozOSIJ_F-aaXMxCodZMMk8yNQ9nYrAAsrZTrBzpF6MVkYJK_Bovftv1zgmFm00]--></g></svg>