<?xml version="1.0" encoding="us-ascii" standalone="no"?><svg xmlns="http://www.w3.org/2000/svg" xmlns:xlink="http://www.w3.org/1999/xlink" contentStyleType="text/css" height="726px" preserveAspectRatio="none" style="width:469px;height:726px;background:#FFFFFF;" version="1.1" viewBox="0 0 469 726" width="469px" zoomAndPan="magnify"><defs/><g><!--cluster MD--><g id="cluster_MD"><path d="M8.5,6.0137 L32.5,6.0137 A3.75,3.75 0 0 1 35,8.5137 L42,30.6348 L459.5,30.6348 A2.5,2.5 0 0 1 462,33.1348 L462,716.5137 A2.5,2.5 0 0 1 459.5,719.0137 L8.5,719.0137 A2.5,2.5 0 0 1 6,716.5137 L6,8.5137 A2.5,2.5 0 0 1 8.5,6.0137 " fill="#80F0FF" style="stroke:#000000;stroke-width:1.5;"/><line style="stroke:#000000;stroke-width:1.5;" x1="6" x2="42" y1="30.6348" y2="30.6348"/><text fill="#000000" font-family="sans-serif" font-size="14" font-weight="bold" lengthAdjust="spacing" textLength="23" x="10" y="23.1211">MD</text></g><!--cluster Infraestrutura--><g id="cluster_Infraestrutura"><path d="M145.5,51.0137 L243.5,51.0137 A3.75,3.75 0 0 1 246,53.5137 L253,75.6348 L387.5,75.6348 A2.5,2.5 0 0 1 390,78.1348 L390,158.5137 A2.5,2.5 0 0 1 387.5,161.0137 L145.5,161.0137 A2.5,2.5 0 0 1 143,158.5137 L143,53.5137 A2.5,2.5 0 0 1 145.5,51.0137 " fill="#80F0FF" style="stroke:#000000;stroke-width:1.5;"/><line style="stroke:#000000;stroke-width:1.5;" x1="143" x2="253" y1="75.6348" y2="75.6348"/><text fill="#000000" font-family="sans-serif" font-size="14" font-weight="bold" lengthAdjust="spacing" textLength="97" x="147" y="68.1211">Infraestrutura</text></g><!--cluster InterfaceAdapters--><g id="cluster_InterfaceAdapters"><path d="M123.5,229.0137 L254.5,229.0137 A3.75,3.75 0 0 1 257,231.5137 L264,253.6348 L394.5,253.6348 A2.5,2.5 0 0 1 397,256.1348 L397,336.5137 A2.5,2.5 0 0 1 394.5,339.0137 L123.5,339.0137 A2.5,2.5 0 0 1 121,336.5137 L121,231.5137 A2.5,2.5 0 0 1 123.5,229.0137 " fill="#80F0FF" style="stroke:#000000;stroke-width:1.5;"/><line style="stroke:#000000;stroke-width:1.5;" x1="121" x2="264" y1="253.6348" y2="253.6348"/><text fill="#000000" font-family="sans-serif" font-size="14" font-weight="bold" lengthAdjust="spacing" textLength="130" x="125" y="246.1211">Interface Adapters</text></g><!--cluster ASUSC--><g id="cluster_ASUSC"><path d="M84.5,407.0137 L373.5,407.0137 A3.75,3.75 0 0 1 376,409.5137 L383,431.6348 L383.5,431.6348 A2.5,2.5 0 0 1 386,434.1348 L386,514.5137 A2.5,2.5 0 0 1 383.5,517.0137 L84.5,517.0137 A2.5,2.5 0 0 1 82,514.5137 L82,409.5137 A2.5,2.5 0 0 1 84.5,407.0137 " fill="#80F0FF" style="stroke:#000000;stroke-width:1.5;"/><line style="stroke:#000000;stroke-width:1.5;" x1="82" x2="383" y1="431.6348" y2="431.6348"/><text fill="#000000" font-family="sans-serif" font-size="14" font-weight="bold" lengthAdjust="spacing" textLength="288" x="86" y="424.1211">Application Services/Use Cases Services</text></g><!--cluster ECD--><g id="cluster_ECD"><path d="M32.5,585.0137 L180.5,585.0137 A3.75,3.75 0 0 1 183,587.5137 L190,609.6348 L435.5,609.6348 A2.5,2.5 0 0 1 438,612.1348 L438,692.5137 A2.5,2.5 0 0 1 435.5,695.0137 L32.5,695.0137 A2.5,2.5 0 0 1 30,692.5137 L30,587.5137 A2.5,2.5 0 0 1 32.5,585.0137 " fill="#80F0FF" style="stroke:#000000;stroke-width:1.5;"/><line style="stroke:#000000;stroke-width:1.5;" x1="30" x2="190" y1="609.6348" y2="609.6348"/><text fill="#000000" font-family="sans-serif" font-size="14" font-weight="bold" lengthAdjust="spacing" textLength="147" x="34" y="602.1211">Entities/Core/Domain</text></g><!--entity Routes--><g id="elem_Routes"><path d="M162,88.0137 L203,88.0137 A3.75,3.75 0 0 1 205.5,90.5137 L212.5,109.0137 L232,109.0137 A2.5,2.5 0 0 1 234.5,111.5137 L234.5,142.1348 A2.5,2.5 0 0 1 232,144.6348 L162,144.6348 A2.5,2.5 0 0 1 159.5,142.1348 L159.5,90.5137 A2.5,2.5 0 0 1 162,88.0137 " fill="#80F0FF" style="stroke:#181818;stroke-width:0.5;"/><line style="stroke:#181818;stroke-width:0.5;" x1="159.5" x2="212.5" y1="109.0137" y2="109.0137"/><text fill="#000000" font-family="sans-serif" font-size="14" lengthAdjust="spacing" textLength="45" x="169.5" y="131.1211">Routes</text></g><!--entity Persistence--><g id="elem_Persistence"><path d="M272.5,88.0137 L313.5,88.0137 A3.75,3.75 0 0 1 316,90.5137 L323,109.0137 L371.5,109.0137 A2.5,2.5 0 0 1 374,111.5137 L374,142.1348 A2.5,2.5 0 0 1 371.5,144.6348 L272.5,144.6348 A2.5,2.5 0 0 1 270,142.1348 L270,90.5137 A2.5,2.5 0 0 1 272.5,88.0137 " fill="#80F0FF" style="stroke:#181818;stroke-width:0.5;"/><line style="stroke:#181818;stroke-width:0.5;" x1="270" x2="323" y1="109.0137" y2="109.0137"/><text fill="#000000" font-family="sans-serif" font-size="14" lengthAdjust="spacing" textLength="74" x="280" y="131.1211">Persistence</text></g><!--entity Controllers--><g id="elem_Controllers"><path d="M140,266.0137 L181,266.0137 A3.75,3.75 0 0 1 183.5,268.5137 L190.5,287.0137 L234,287.0137 A2.5,2.5 0 0 1 236.5,289.5137 L236.5,320.1348 A2.5,2.5 0 0 1 234,322.6348 L140,322.6348 A2.5,2.5 0 0 1 137.5,320.1348 L137.5,268.5137 A2.5,2.5 0 0 1 140,266.0137 " fill="#80F0FF" style="stroke:#181818;stroke-width:0.5;"/><line style="stroke:#181818;stroke-width:0.5;" x1="137.5" x2="190.5" y1="287.0137" y2="287.0137"/><text fill="#000000" font-family="sans-serif" font-size="14" lengthAdjust="spacing" textLength="69" x="147.5" y="309.1211">Controllers</text></g><!--entity Repositories--><g id="elem_Repositories"><path d="M274,266.0137 L315,266.0137 A3.75,3.75 0 0 1 317.5,268.5137 L324.5,287.0137 L378,287.0137 A2.5,2.5 0 0 1 380.5,289.5137 L380.5,320.1348 A2.5,2.5 0 0 1 378,322.6348 L274,322.6348 A2.5,2.5 0 0 1 271.5,320.1348 L271.5,268.5137 A2.5,2.5 0 0 1 274,266.0137 " fill="#80F0FF" style="stroke:#181818;stroke-width:0.5;"/><line style="stroke:#181818;stroke-width:0.5;" x1="271.5" x2="324.5" y1="287.0137" y2="287.0137"/><text fill="#000000" font-family="sans-serif" font-size="14" lengthAdjust="spacing" textLength="79" x="281.5" y="309.1211">Repositories</text></g><!--entity AppServices--><g id="elem_AppServices"><path d="M192,444.0137 L233,444.0137 A3.75,3.75 0 0 1 235.5,446.5137 L242.5,465.0137 L296,465.0137 A2.5,2.5 0 0 1 298.5,467.5137 L298.5,498.1348 A2.5,2.5 0 0 1 296,500.6348 L192,500.6348 A2.5,2.5 0 0 1 189.5,498.1348 L189.5,446.5137 A2.5,2.5 0 0 1 192,444.0137 " fill="#80F0FF" style="stroke:#181818;stroke-width:0.5;"/><line style="stroke:#181818;stroke-width:0.5;" x1="189.5" x2="242.5" y1="465.0137" y2="465.0137"/><text fill="#000000" font-family="sans-serif" font-size="14" lengthAdjust="spacing" textLength="79" x="199.5" y="487.1211">AppServices</text></g><!--entity Aggregates--><g id="elem_Aggregates"><path d="M49,622.0137 L90,622.0137 A3.75,3.75 0 0 1 92.5,624.5137 L99.5,643.0137 L147,643.0137 A2.5,2.5 0 0 1 149.5,645.5137 L149.5,676.1348 A2.5,2.5 0 0 1 147,678.6348 L49,678.6348 A2.5,2.5 0 0 1 46.5,676.1348 L46.5,624.5137 A2.5,2.5 0 0 1 49,622.0137 " fill="#80F0FF" style="stroke:#181818;stroke-width:0.5;"/><line style="stroke:#181818;stroke-width:0.5;" x1="46.5" x2="99.5" y1="643.0137" y2="643.0137"/><text fill="#000000" font-family="sans-serif" font-size="14" lengthAdjust="spacing" textLength="73" x="56.5" y="665.1211">Aggregates</text></g><!--entity VO--><g id="elem_VO"><path d="M187.5,622.0137 L228.5,622.0137 A3.75,3.75 0 0 1 231,624.5137 L238,643.0137 L300.5,643.0137 A2.5,2.5 0 0 1 303,645.5137 L303,676.1348 A2.5,2.5 0 0 1 300.5,678.6348 L187.5,678.6348 A2.5,2.5 0 0 1 185,676.1348 L185,624.5137 A2.5,2.5 0 0 1 187.5,622.0137 " fill="#80F0FF" style="stroke:#181818;stroke-width:0.5;"/><line style="stroke:#181818;stroke-width:0.5;" x1="185" x2="238" y1="643.0137" y2="643.0137"/><text fill="#000000" font-family="sans-serif" font-size="14" lengthAdjust="spacing" textLength="88" x="195" y="665.1211">Value Objects</text></g><!--entity Services--><g id="elem_Services"><path d="M340.5,622.0137 L381.5,622.0137 A3.75,3.75 0 0 1 384,624.5137 L391,643.0137 L419.5,643.0137 A2.5,2.5 0 0 1 422,645.5137 L422,676.1348 A2.5,2.5 0 0 1 419.5,678.6348 L340.5,678.6348 A2.5,2.5 0 0 1 338,676.1348 L338,624.5137 A2.5,2.5 0 0 1 340.5,622.0137 " fill="#80F0FF" style="stroke:#181818;stroke-width:0.5;"/><line style="stroke:#181818;stroke-width:0.5;" x1="338" x2="391" y1="643.0137" y2="643.0137"/><text fill="#000000" font-family="sans-serif" font-size="14" lengthAdjust="spacing" textLength="54" x="348" y="665.1211">Services</text></g><!--link Routes to Controllers--><g id="link_Routes_Controllers"><path d="M195.42,145.4037 C193.54,178.3537 190.7905,247.8633 188.9205,280.7633 " fill="none" id="Routes-to-Controllers" style="stroke:#181818;stroke-width:1.0;stroke-dasharray:7.0,7.0;"/><polygon fill="#181818" points="188.58,286.7537,193.0843,277.9952,188.8637,281.7617,185.0972,277.5412,188.58,286.7537" style="stroke:#181818;stroke-width:1.0;"/></g><!--reverse link Persistence to Repositories--><g id="link_Persistence_Repositories"><path d="M322.7665,151.4021 C323.5165,184.3521 324.62,253.8537 325.37,286.7537 " fill="none" id="Persistence-backto-Repositories" style="stroke:#181818;stroke-width:1.0;stroke-dasharray:7.0,7.0;"/><polygon fill="#181818" points="322.63,145.4037,318.8358,154.4924,322.7438,150.4024,326.8338,154.3103,322.63,145.4037" style="stroke:#181818;stroke-width:1.0;"/></g><!--link Controllers to AppServices--><g id="link_Controllers_AppServices"><path d="M196.03,323.4037 C206.7,356.3537 222.5122,426.1453 233.1622,459.0453 " fill="none" id="Controllers-to-AppServices" style="stroke:#181818;stroke-width:1.0;stroke-dasharray:7.0,7.0;"/><polygon fill="#181818" points="235.01,464.7537,236.0438,454.9592,233.4701,459.9967,228.4327,457.423,235.01,464.7537" style="stroke:#181818;stroke-width:1.0;"/></g><!--link Repositories to AppServices--><g id="link_Repositories_AppServices"><path d="M313.01,323.4037 C297.65,356.3537 279.8624,415.5379 264.5324,448.4379 " fill="none" id="Repositories-to-AppServices" style="stroke:#181818;stroke-width:1.0;stroke-dasharray:7.0,7.0;"/><polygon fill="none" points="256.93,464.7537,269.971,450.9721,259.0939,445.9038,256.93,464.7537" style="stroke:#181818;stroke-width:1.0;"/></g><!--link AppServices to Aggregates--><g id="link_AppServices_Aggregates"><path d="M220.87,501.4037 C193.53,534.3537 152.1506,605.2356 124.8606,638.1356 " fill="none" id="AppServices-to-Aggregates" style="stroke:#181818;stroke-width:1.0;stroke-dasharray:7.0,7.0;"/><polygon fill="#181818" points="121.03,642.7537,129.8546,638.3803,124.2222,638.9053,123.6972,633.2728,121.03,642.7537" style="stroke:#181818;stroke-width:1.0;"/></g><!--link AppServices to Services--><g id="link_AppServices_Services"><path d="M265.55,501.4037 C291.02,534.3537 329.4616,584.1058 354.8816,617.0058 " fill="none" id="AppServices-to-Services" style="stroke:#181818;stroke-width:1.0;stroke-dasharray:7.0,7.0;"/><polygon fill="#181818" points="358.55,621.7537,356.2126,612.1862,355.493,617.7971,349.8821,617.0774,358.55,621.7537" style="stroke:#181818;stroke-width:1.0;"/></g><!--link AppServices to VO--><g id="link_AppServices_VO"><path d="M244,501.4037 C244,534.3537 244,603.8537 244,636.7537 " fill="none" id="AppServices-to-VO" style="stroke:#181818;stroke-width:1.0;stroke-dasharray:7.0,7.0;"/><polygon fill="#181818" points="244,642.7537,248,633.7537,244,637.7537,240,633.7537,244,642.7537" style="stroke:#181818;stroke-width:1.0;"/></g><!--SRC=[XPB1Ri8m38RlUOg87NQ2SfocQH9gEUmmCGt1tQHkbv76KU9k1yQxBog5bGPfaI8bzk_FZftx3sON7hFC6R3SDcQcgCdYTcJHyhJKK7jeX0XxRHt4ewp8bEZbGSYuTg3sjQVMbZaPylBkOLxDgqeSXUXrhyL1TDB-_c8h3nZOjznwE546xdTg6SFO-eO-wC1e5NQkupMHqLUWS562YySW8SZ9nIhFvacIB2VBdeo9pgGET1GqazTzDLSf5-lDEk_IB9mpMW5hidAD_aih3DaceCmXOBYOqjmnyEnC-SkywEXBovfZ1LbE7hE26j3s1ggkFTPmes_RLOVPWcbHhdQVg3XCng9H6QTfdUOWfoLzszdqEMdLO2BogLUbJHj4_Q76Bnz6dLK_gMnm7x2kdtvJypzbknBnn_u2]--></g></svg>