<?xml version="1.0" encoding="us-ascii" standalone="no"?><svg xmlns="http://www.w3.org/2000/svg" xmlns:xlink="http://www.w3.org/1999/xlink" contentStyleType="text/css" height="685px" preserveAspectRatio="none" style="width:1626px;height:685px;background:#FFFFFF;" version="1.1" viewBox="0 0 1626 685" width="1626px" zoomAndPan="magnify"><defs/><g><!--cluster RobDroneGo_L--><g id="cluster_RobDroneGo_L"><rect fill="#0FAAFF" height="566" rx="2.5" ry="2.5" style="stroke:#181818;stroke-width:1.0;" width="920" x="418" y="113"/><rect fill="#0FAAFF" height="10" style="stroke:#181818;stroke-width:1.0;" width="15" x="1318" y="118"/><rect fill="#0FAAFF" height="2" style="stroke:#181818;stroke-width:1.0;" width="4" x="1316" y="120"/><rect fill="#0FAAFF" height="2" style="stroke:#181818;stroke-width:1.0;" width="4" x="1316" y="124"/><text fill="#000000" font-family="sans-serif" font-size="14" font-style="italic" lengthAdjust="spacing" textLength="86" x="835" y="142.1074">&#171;component&#187;</text><text fill="#000000" font-family="sans-serif" font-size="14" font-style="italic" lengthAdjust="spacing" textLength="88" x="834" y="160.7285">&#171;system(C4)&#187;</text><text fill="#000000" font-family="sans-serif" font-size="14" font-weight="bold" lengthAdjust="spacing" textLength="91" x="832.5" y="181.3496">RobDroneGo</text></g><!--cluster MD_L--><g id="cluster_MD_L"><rect fill="#0FAAFF" height="228" rx="2.5" ry="2.5" style="stroke:#181818;stroke-width:1.0;" width="163" x="453" y="210"/><rect fill="#0FAAFF" height="10" style="stroke:#181818;stroke-width:1.0;" width="15" x="596" y="215"/><rect fill="#0FAAFF" height="2" style="stroke:#181818;stroke-width:1.0;" width="4" x="594" y="217"/><rect fill="#0FAAFF" height="2" style="stroke:#181818;stroke-width:1.0;" width="4" x="594" y="221"/><text fill="#000000" font-family="sans-serif" font-size="14" font-style="italic" lengthAdjust="spacing" textLength="86" x="491.5" y="239.1074">&#171;component&#187;</text><text fill="#000000" font-family="sans-serif" font-size="14" font-weight="bold" lengthAdjust="spacing" textLength="151" x="459" y="259.7285">Campus Management</text></g><!--cluster FM--><g id="cluster_FM"><rect fill="#0FAAFF" height="228" rx="2.5" ry="2.5" style="stroke:#181818;stroke-width:1.0;" width="143" x="861" y="210"/><rect fill="#0FAAFF" height="10" style="stroke:#181818;stroke-width:1.0;" width="15" x="984" y="215"/><rect fill="#0FAAFF" height="2" style="stroke:#181818;stroke-width:1.0;" width="4" x="982" y="217"/><rect fill="#0FAAFF" height="2" style="stroke:#181818;stroke-width:1.0;" width="4" x="982" y="221"/><text fill="#000000" font-family="sans-serif" font-size="14" font-style="italic" lengthAdjust="spacing" textLength="86" x="889.5" y="239.1074">&#171;component&#187;</text><text fill="#000000" font-family="sans-serif" font-size="14" font-weight="bold" lengthAdjust="spacing" textLength="131" x="867" y="259.7285">Fleet Management</text></g><!--cluster TM--><g id="cluster_TM"><rect fill="#0FAAFF" height="228" rx="2.5" ry="2.5" style="stroke:#181818;stroke-width:1.0;" width="154" x="668" y="210"/><rect fill="#0FAAFF" height="10" style="stroke:#181818;stroke-width:1.0;" width="15" x="802" y="215"/><rect fill="#0FAAFF" height="2" style="stroke:#181818;stroke-width:1.0;" width="4" x="800" y="217"/><rect fill="#0FAAFF" height="2" style="stroke:#181818;stroke-width:1.0;" width="4" x="800" y="221"/><text fill="#000000" font-family="sans-serif" font-size="14" font-style="italic" lengthAdjust="spacing" textLength="86" x="702" y="239.1074">&#171;component&#187;</text><text fill="#000000" font-family="sans-serif" font-size="14" font-weight="bold" lengthAdjust="spacing" textLength="127" x="681.5" y="259.7285">Task Management</text></g><!--cluster UM--><g id="cluster_UM"><rect fill="#0FAAFF" height="151" rx="2.5" ry="2.5" style="stroke:#181818;stroke-width:1.0;" width="163" x="1020" y="210"/><rect fill="#0FAAFF" height="10" style="stroke:#181818;stroke-width:1.0;" width="15" x="1163" y="215"/><rect fill="#0FAAFF" height="2" style="stroke:#181818;stroke-width:1.0;" width="4" x="1161" y="217"/><rect fill="#0FAAFF" height="2" style="stroke:#181818;stroke-width:1.0;" width="4" x="1161" y="221"/><text fill="#000000" font-family="sans-serif" font-size="14" font-style="italic" lengthAdjust="spacing" textLength="86" x="1058.5" y="239.1074">&#171;component&#187;</text><text fill="#000000" font-family="sans-serif" font-size="14" font-weight="bold" lengthAdjust="spacing" textLength="128" x="1037.5" y="259.7285">User Management</text></g><!--cluster Planning--><g id="cluster_Planning"><rect fill="#0FAAFF" height="126" rx="2.5" ry="2.5" style="stroke:#181818;stroke-width:1.0;" width="130" x="668" y="537"/><rect fill="#0FAAFF" height="10" style="stroke:#181818;stroke-width:1.0;" width="15" x="778" y="542"/><rect fill="#0FAAFF" height="2" style="stroke:#181818;stroke-width:1.0;" width="4" x="776" y="544"/><rect fill="#0FAAFF" height="2" style="stroke:#181818;stroke-width:1.0;" width="4" x="776" y="548"/><text fill="#000000" font-family="sans-serif" font-size="14" font-style="italic" lengthAdjust="spacing" textLength="86" x="690" y="566.1074">&#171;component&#187;</text><text fill="#000000" font-family="sans-serif" font-size="14" font-weight="bold" lengthAdjust="spacing" textLength="61" x="702.5" y="586.7285">Planning</text></g><text fill="#000000" font-family="sans-serif" font-size="14" lengthAdjust="spacing" textLength="4" x="1336" y="300.4863">&#160;</text><rect fill="#0FAAFF" height="12" style="stroke:#181818;stroke-width:1.5;" width="12" x="1332" y="317"/><text fill="#000000" font-family="sans-serif" font-size="14" lengthAdjust="spacing" textLength="4" x="536" y="90.4863">&#160;</text><rect fill="#0FAAFF" height="12" style="stroke:#181818;stroke-width:1.5;" width="12" x="532" y="107"/><text fill="#000000" font-family="sans-serif" font-size="14" lengthAdjust="spacing" textLength="4" x="489" y="90.4863">&#160;</text><rect fill="#0FAAFF" height="12" style="stroke:#181818;stroke-width:1.5;" width="12" x="485" y="107"/><text fill="#000000" font-family="sans-serif" font-size="14" lengthAdjust="spacing" textLength="4" x="731" y="90.4863">&#160;</text><rect fill="#0FAAFF" height="12" style="stroke:#181818;stroke-width:1.5;" width="12" x="727" y="107"/><text fill="#000000" font-family="sans-serif" font-size="14" lengthAdjust="spacing" textLength="4" x="684" y="90.4863">&#160;</text><rect fill="#0FAAFF" height="12" style="stroke:#181818;stroke-width:1.5;" width="12" x="680" y="107"/><text fill="#000000" font-family="sans-serif" font-size="14" lengthAdjust="spacing" textLength="4" x="981" y="90.4863">&#160;</text><rect fill="#0FAAFF" height="12" style="stroke:#181818;stroke-width:1.5;" width="12" x="977" y="107"/><text fill="#000000" font-family="sans-serif" font-size="14" lengthAdjust="spacing" textLength="4" x="934" y="90.4863">&#160;</text><rect fill="#0FAAFF" height="12" style="stroke:#181818;stroke-width:1.5;" width="12" x="930" y="107"/><text fill="#000000" font-family="sans-serif" font-size="14" lengthAdjust="spacing" textLength="4" x="1234" y="90.4863">&#160;</text><rect fill="#0FAAFF" height="12" style="stroke:#181818;stroke-width:1.5;" width="12" x="1230" y="107"/><text fill="#000000" font-family="sans-serif" font-size="14" lengthAdjust="spacing" textLength="4" x="1187" y="90.4863">&#160;</text><rect fill="#0FAAFF" height="12" style="stroke:#181818;stroke-width:1.5;" width="12" x="1183" y="107"/><text fill="#000000" font-family="sans-serif" font-size="14" lengthAdjust="spacing" textLength="4" x="536" y="187.4863">&#160;</text><rect fill="#0FAAFF" height="12" style="stroke:#181818;stroke-width:1.5;" width="12" x="532" y="204"/><text fill="#000000" font-family="sans-serif" font-size="14" lengthAdjust="spacing" textLength="4" x="489" y="187.4863">&#160;</text><rect fill="#0FAAFF" height="12" style="stroke:#181818;stroke-width:1.5;" width="12" x="485" y="204"/><text fill="#000000" font-family="sans-serif" font-size="14" lengthAdjust="spacing" textLength="4" x="576" y="460.1074">&#160;</text><rect fill="#0FAAFF" height="12" style="stroke:#181818;stroke-width:1.5;" width="12" x="572" y="432"/><text fill="#000000" font-family="sans-serif" font-size="14" lengthAdjust="spacing" textLength="4" x="981" y="187.4863">&#160;</text><rect fill="#0FAAFF" height="12" style="stroke:#181818;stroke-width:1.5;" width="12" x="977" y="204"/><text fill="#000000" font-family="sans-serif" font-size="14" lengthAdjust="spacing" textLength="4" x="934" y="187.4863">&#160;</text><rect fill="#0FAAFF" height="12" style="stroke:#181818;stroke-width:1.5;" width="12" x="930" y="204"/><text fill="#000000" font-family="sans-serif" font-size="14" lengthAdjust="spacing" textLength="4" x="880" y="460.1074">&#160;</text><rect fill="#0FAAFF" height="12" style="stroke:#181818;stroke-width:1.5;" width="12" x="876" y="432"/><text fill="#000000" font-family="sans-serif" font-size="14" lengthAdjust="spacing" textLength="4" x="731" y="187.4863">&#160;</text><rect fill="#0FAAFF" height="12" style="stroke:#181818;stroke-width:1.5;" width="12" x="727" y="204"/><text fill="#000000" font-family="sans-serif" font-size="14" lengthAdjust="spacing" textLength="4" x="684" y="187.4863">&#160;</text><rect fill="#0FAAFF" height="12" style="stroke:#181818;stroke-width:1.5;" width="12" x="680" y="204"/><text fill="#000000" font-family="sans-serif" font-size="14" lengthAdjust="spacing" textLength="4" x="731" y="460.1074">&#160;</text><rect fill="#0FAAFF" height="12" style="stroke:#181818;stroke-width:1.5;" width="12" x="727" y="432"/><text fill="#000000" font-family="sans-serif" font-size="14" lengthAdjust="spacing" textLength="4" x="1163" y="187.4863">&#160;</text><rect fill="#0FAAFF" height="12" style="stroke:#181818;stroke-width:1.5;" width="12" x="1159" y="204"/><text fill="#000000" font-family="sans-serif" font-size="14" lengthAdjust="spacing" textLength="4" x="1116" y="187.4863">&#160;</text><rect fill="#0FAAFF" height="12" style="stroke:#181818;stroke-width:1.5;" width="12" x="1112" y="204"/><text fill="#000000" font-family="sans-serif" font-size="14" lengthAdjust="spacing" textLength="4" x="684" y="514.4863">&#160;</text><rect fill="#0FAAFF" height="12" style="stroke:#181818;stroke-width:1.5;" width="12" x="680" y="531"/><text fill="#000000" font-family="sans-serif" font-size="14" lengthAdjust="spacing" textLength="4" x="731" y="514.4863">&#160;</text><rect fill="#0FAAFF" height="12" style="stroke:#181818;stroke-width:1.5;" width="12" x="727" y="531"/><text fill="#000000" font-family="sans-serif" font-size="14" lengthAdjust="spacing" textLength="4" x="778" y="514.4863">&#160;</text><rect fill="#0FAAFF" height="12" style="stroke:#181818;stroke-width:1.5;" width="12" x="774" y="531"/><!--entity filesystem_API_L--><g id="elem_filesystem_API_L"><ellipse cx="1417" cy="438" fill="#0FAAFF" rx="8" ry="8" style="stroke:#181818;stroke-width:0.5;"/><text fill="#000000" font-family="sans-serif" font-size="14" font-weight="bold" lengthAdjust="spacing" textLength="97" x="1368.5" y="471.1074">filesystem API</text></g><!--entity CM_API_L--><g id="elem_CM_API_L"><ellipse cx="94" cy="14" fill="#0FAAFF" rx="8" ry="8" style="stroke:#181818;stroke-width:0.5;"/><text fill="#000000" font-family="sans-serif" font-size="14" font-weight="bold" lengthAdjust="spacing" textLength="176" x="6" y="47.1074">Campus management API</text></g><!--entity FM_API_L--><g id="elem_FM_API_L"><ellipse cx="936" cy="14" fill="#0FAAFF" rx="8" ry="8" style="stroke:#181818;stroke-width:0.5;"/><text fill="#000000" font-family="sans-serif" font-size="14" font-weight="bold" lengthAdjust="spacing" textLength="156" x="858" y="47.1074">Fleet management API</text></g><!--entity Task_API_L--><g id="elem_Task_API_L"><ellipse cx="532" cy="14" fill="#0FAAFF" rx="8" ry="8" style="stroke:#181818;stroke-width:0.5;"/><text fill="#000000" font-family="sans-serif" font-size="14" font-weight="bold" lengthAdjust="spacing" textLength="152" x="456" y="47.1074">Task management API</text></g><!--entity UM_API_L--><g id="elem_UM_API_L"><ellipse cx="1543" cy="14" fill="#0FAAFF" rx="8" ry="8" style="stroke:#181818;stroke-width:0.5;"/><text fill="#000000" font-family="sans-serif" font-size="14" font-weight="bold" lengthAdjust="spacing" textLength="153" x="1466.5" y="47.1074">User management API</text></g><!--entity CampusM_L--><g id="elem_CampusM_L"><ellipse cx="319" cy="14" fill="#0FAAFF" rx="8" ry="8" style="stroke:#181818;stroke-width:0.5;"/><text fill="#000000" font-family="sans-serif" font-size="14" font-weight="bold" lengthAdjust="spacing" textLength="169" x="234.5" y="47.1074">Campus Management UI</text></g><!--entity TaskM_L--><g id="elem_TaskM_L"><ellipse cx="733" cy="14" fill="#0FAAFF" rx="8" ry="8" style="stroke:#181818;stroke-width:0.5;"/><text fill="#000000" font-family="sans-serif" font-size="14" font-weight="bold" lengthAdjust="spacing" textLength="145" x="660.5" y="47.1074">Task Management UI</text></g><!--entity FleetM_L--><g id="elem_FleetM_L"><ellipse cx="1141" cy="14" fill="#0FAAFF" rx="8" ry="8" style="stroke:#181818;stroke-width:0.5;"/><text fill="#000000" font-family="sans-serif" font-size="14" font-weight="bold" lengthAdjust="spacing" textLength="149" x="1066.5" y="47.1074">Fleet Management UI</text></g><!--entity UserM_L--><g id="elem_UserM_L"><ellipse cx="1341" cy="14" fill="#0FAAFF" rx="8" ry="8" style="stroke:#181818;stroke-width:0.5;"/><text fill="#000000" font-family="sans-serif" font-size="14" font-weight="bold" lengthAdjust="spacing" textLength="146" x="1268" y="47.1074">User Management UI</text></g><!--link p1_L to filesystem_API_L--><g id="link_p1_L_filesystem_API_L"><path d="M1341.6,329.15 C1354.16,347.11 1390.3484,398.8856 1405.6384,420.7456 " fill="none" id="p1_L-to-filesystem_API_L" style="stroke:#181818;stroke-width:1.0;"/><path d="M1416.5359,421.5703 A9,9 0 0 0 1402.6755 431.265" fill="none" style="stroke:#181818;stroke-width:1.5;"/></g><!--link CampusM_L to p2_L--><g id="link_CampusM_L_p2_L"><path d="M328.07,18.57 C356.1,29.67 443.69,64.9 514,99 C520.14,101.98 526.97,105.72 531.76,108.42 " fill="none" id="CampusM_L-p2_L" style="stroke:#181818;stroke-width:1.0;"/></g><!--link CM_API_L to p3_L--><g id="link_CM_API_L_p3_L"><path d="M103.12,17.72 C122.4,23.44 168.76,36.99 208,47 C318.4,75.15 454.43,104.26 484.8,110.69 " fill="none" id="CM_API_L-p3_L" style="stroke:#181818;stroke-width:1.0;"/></g><!--link TaskM_L to p4_L--><g id="link_TaskM_L_p4_L"><path d="M733,23.27 C733,42.7 733,90.8 733,106.76 " fill="none" id="TaskM_L-p4_L" style="stroke:#181818;stroke-width:1.0;"/></g><!--link Task_API_L to p5_L--><g id="link_Task_API_L_p5_L"><path d="M541.17,20.78 C569.66,38.72 656.14,93.19 679.9,108.16 " fill="none" id="Task_API_L-p5_L" style="stroke:#181818;stroke-width:1.0;"/></g><!--link FleetM_L to p6_L--><g id="link_FleetM_L_p6_L"><path d="M1131.59,20.78 C1102.36,38.72 1013.63,93.19 989.25,108.16 " fill="none" id="FleetM_L-p6_L" style="stroke:#181818;stroke-width:1.0;"/></g><!--link FM_API_L to p7_L--><g id="link_FM_API_L_p7_L"><path d="M936,23.27 C936,42.7 936,90.8 936,106.76 " fill="none" id="FM_API_L-p7_L" style="stroke:#181818;stroke-width:1.0;"/></g><!--link pMD1_L to p2_L--><g id="link_pMD1_L_p2_L"><path d="M538,203.87 C538,187.34 538,135.6 538,119.11 " fill="none" id="pMD1_L-p2_L" style="stroke:#181818;stroke-width:1.0;"/></g><!--link pMD2_L to p3_L--><g id="link_pMD2_L_p3_L"><path d="M491,203.87 C491,187.34 491,135.6 491,119.11 " fill="none" id="pMD2_L-p3_L" style="stroke:#181818;stroke-width:1.0;"/></g><!--link pTM1_L to p4_L--><g id="link_pTM1_L_p4_L"><path d="M733,203.87 C733,187.34 733,135.6 733,119.11 " fill="none" id="pTM1_L-p4_L" style="stroke:#181818;stroke-width:1.0;"/></g><!--link pTM2_L to p5_L--><g id="link_pTM2_L_p5_L"><path d="M686,203.87 C686,187.34 686,135.6 686,119.11 " fill="none" id="pTM2_L-p5_L" style="stroke:#181818;stroke-width:1.0;"/></g><!--link pFM1_L to p6_L--><g id="link_pFM1_L_p6_L"><path d="M983,203.87 C983,187.34 983,135.6 983,119.11 " fill="none" id="pFM1_L-p6_L" style="stroke:#181818;stroke-width:1.0;"/></g><!--link pFM2_L to p7_L--><g id="link_pFM2_L_p7_L"><path d="M936,203.87 C936,187.34 936,135.6 936,119.11 " fill="none" id="pFM2_L-p7_L" style="stroke:#181818;stroke-width:1.0;"/></g><!--link pUM1_L to p8_L--><g id="link_pUM1_L_p8_L"><path d="M1165.43,203.98 C1166.27,196.37 1168.63,181.66 1175,171 C1189.56,146.61 1217.58,126.15 1229.92,117.91 " fill="none" id="pUM1_L-p8_L" style="stroke:#181818;stroke-width:1.0;"/></g><!--link pUM2_L to p9_L--><g id="link_pUM2_L_p9_L"><path d="M1120.91,203.95 C1125.25,196.54 1133.77,182.38 1142,171 C1156.44,151.05 1175.66,128.96 1184.36,119.17 " fill="none" id="pUM2_L-p9_L" style="stroke:#181818;stroke-width:1.0;"/></g><!--link pMD3_L to pp1_L--><g id="link_pMD3_L_pp1_L"><path d="M583.81,444.22 C602.65,461.14 661.92,514.37 680.43,530.99 " fill="none" id="pMD3_L-pp1_L" style="stroke:#181818;stroke-width:1.0;"/></g><!--link pTM3_L to pp2_L--><g id="link_pTM3_L_pp2_L"><path d="M733,444.22 C733,461.06 733,513.88 733,530.76 " fill="none" id="pTM3_L-pp2_L" style="stroke:#181818;stroke-width:1.0;"/></g><!--link pFM3_L to pp3_L--><g id="link_pFM3_L_pp3_L"><path d="M876.52,444.22 C858.72,461.14 802.74,514.37 785.26,530.99 " fill="none" id="pFM3_L-pp3_L" style="stroke:#181818;stroke-width:1.0;"/></g><!--link UM_API_L to p8_L--><g id="link_UM_API_L_p8_L"><path d="M1533.81,17.9 C1487.52,32.53 1280.54,97.93 1242.14,110.06 " fill="none" id="UM_API_L-p8_L" style="stroke:#181818;stroke-width:1.0;"/></g><!--link UserM_L to p9_L--><g id="link_UserM_L_p9_L"><path d="M1331.95,20.78 C1303.83,38.72 1218.47,93.19 1195.02,108.16 " fill="none" id="UserM_L-p9_L" style="stroke:#181818;stroke-width:1.0;"/></g><!--SRC=[ZLLDQ-Cm4BtFhn3ffGqOjjbiDuKGA0bU2XMKnJujIr0SEJMnR2CxXrBotol9ahzj9Sd1dZTlz6OoC_g8ZXG54GzY2X_ocRAi-4ICiWFbEK1-ZfACSC9GHex7A3cXHsXQewIWF2G1HL-0nET0WlE9fvVak4tZbAEx7o4XOGZN9Yb8MPOcD2di90dNPuHHJFFFlA1i__B-kdz394Up-Rms8s6UpsTTtXQt_BU4PPSSCPAG4sLIXwQrMMwRvSQK5bQIH_9pYoODLfRVFihFAH_WzD9IUU1kNhWc-YCASLkUXQ4onvr2M3Wo1TnEgCU0kX7-_KqFEowU_wJxj_zelQwWpMQzBl_S- -toORDH4MllMTb2MSgBz5AWcVWAX-nH76tQoE0Lk9W2Vqw1oodmrnJuD0N-dW9NK-1p0rHeewHurokbAbwlJNGDUy7nhbl60PV5Y4lpty2xRbMlFRKk7jBQxRKngIwsIdNnBL9TR9Vg3KhjJDAOKi-krBj9gNU3KdzGQMSQnvJwTgL-J-aLUYBUOv8aukeOacAmCGsPLKAsi7eCr4dyL6Z7kU_TAb3lLSTHsmAg2qGQH3WmIrI-B_LxmqMi0gYsfZGyIKCpY1Xv8Q6SC7EAdYPp1kXUCMVelZ3nGJUz2QyRl0xkL_1Amdu5FokupF_YwF64ifBAe5eBoi8fWveAmLbfWxclG2qWPIdtFS0t]--></g></svg>