<?xml version="1.0" encoding="us-ascii" standalone="no"?><svg xmlns="http://www.w3.org/2000/svg" xmlns:xlink="http://www.w3.org/1999/xlink" contentStyleType="text/css" height="588px" preserveAspectRatio="none" style="width:588px;height:588px;background:#FFFFFF;" version="1.1" viewBox="0 0 588 588" width="588px" zoomAndPan="magnify"><defs/><g><rect fill="#FFFFFF" height="402.832" style="stroke:#181818;stroke-width:1.0;" width="10" x="17.5" y="93.6211"/><rect fill="#FFFFFF" height="31.291" style="stroke:#181818;stroke-width:1.0;" width="10" x="250.5" y="116.9121"/><rect fill="#FFFFFF" height="316.959" style="stroke:#181818;stroke-width:1.0;" width="10" x="250.5" y="179.4941"/><rect fill="#FFFFFF" height="209.0859" style="stroke:#181818;stroke-width:1.0;" width="10" x="444.5" y="255.0762"/><rect fill="none" height="142.7949" style="stroke:#000000;stroke-width:1.5;" width="372.5" x="209" y="314.3672"/><line style="stroke:#181818;stroke-width:0.5;stroke-dasharray:5.0,5.0;" x1="22" x2="22" y1="83.6211" y2="505.4531"/><line style="stroke:#181818;stroke-width:0.5;stroke-dasharray:5.0,5.0;" x1="255" x2="255" y1="83.6211" y2="505.4531"/><line style="stroke:#181818;stroke-width:0.5;stroke-dasharray:5.0,5.0;" x1="449" x2="449" y1="83.6211" y2="505.4531"/><text fill="#000000" font-family="sans-serif" font-size="14" lengthAdjust="spacing" textLength="29" x="5" y="80.1074">User</text><ellipse cx="22.5" cy="13.5" fill="#E2E2F0" rx="8" ry="8" style="stroke:#181818;stroke-width:0.5;"/><path d="M22.5,21.5 L22.5,48.5 M9.5,29.5 L35.5,29.5 M22.5,48.5 L9.5,63.5 M22.5,48.5 L35.5,63.5 " fill="none" style="stroke:#181818;stroke-width:0.5;"/><text fill="#000000" font-family="sans-serif" font-size="14" lengthAdjust="spacing" textLength="29" x="5" y="519.5605">User</text><ellipse cx="22.5" cy="531.5742" fill="#E2E2F0" rx="8" ry="8" style="stroke:#181818;stroke-width:0.5;"/><path d="M22.5,539.5742 L22.5,566.5742 M9.5,547.5742 L35.5,547.5742 M22.5,566.5742 L9.5,581.5742 M22.5,566.5742 L35.5,581.5742 " fill="none" style="stroke:#181818;stroke-width:0.5;"/><rect fill="#E2E2F0" height="32.6211" rx="2.5" ry="2.5" style="stroke:#181818;stroke-width:0.5;" width="73" x="219" y="50"/><text fill="#000000" font-family="sans-serif" font-size="14" lengthAdjust="spacing" textLength="59" x="226" y="72.1074">FrontEnd</text><rect fill="#E2E2F0" height="32.6211" rx="2.5" ry="2.5" style="stroke:#181818;stroke-width:0.5;" width="73" x="219" y="504.4531"/><text fill="#000000" font-family="sans-serif" font-size="14" lengthAdjust="spacing" textLength="59" x="226" y="526.5605">FrontEnd</text><rect fill="#E2E2F0" height="32.6211" rx="2.5" ry="2.5" style="stroke:#181818;stroke-width:0.5;" width="35" x="432" y="50"/><text fill="#000000" font-family="sans-serif" font-size="14" lengthAdjust="spacing" textLength="21" x="439" y="72.1074">MD</text><rect fill="#E2E2F0" height="32.6211" rx="2.5" ry="2.5" style="stroke:#181818;stroke-width:0.5;" width="35" x="432" y="504.4531"/><text fill="#000000" font-family="sans-serif" font-size="14" lengthAdjust="spacing" textLength="21" x="439" y="526.5605">MD</text><rect fill="#FFFFFF" height="402.832" style="stroke:#181818;stroke-width:1.0;" width="10" x="17.5" y="93.6211"/><rect fill="#FFFFFF" height="31.291" style="stroke:#181818;stroke-width:1.0;" width="10" x="250.5" y="116.9121"/><rect fill="#FFFFFF" height="316.959" style="stroke:#181818;stroke-width:1.0;" width="10" x="250.5" y="179.4941"/><rect fill="#FFFFFF" height="209.0859" style="stroke:#181818;stroke-width:1.0;" width="10" x="444.5" y="255.0762"/><polygon fill="#181818" points="238.5,112.9121,248.5,116.9121,238.5,120.9121,242.5,116.9121" style="stroke:#181818;stroke-width:1.0;"/><line style="stroke:#181818;stroke-width:1.0;" x1="27.5" x2="244.5" y1="116.9121" y2="116.9121"/><text fill="#000000" font-family="sans-serif" font-size="13" lengthAdjust="spacing" textLength="160" x="34.5" y="111.6494">want to delete their account</text><polygon fill="#181818" points="38.5,144.2031,28.5,148.2031,38.5,152.2031,34.5,148.2031" style="stroke:#181818;stroke-width:1.0;"/><line style="stroke:#181818;stroke-width:1.0;" x1="32.5" x2="254.5" y1="148.2031" y2="148.2031"/><text fill="#000000" font-family="sans-serif" font-size="13" lengthAdjust="spacing" textLength="199" x="44.5" y="142.9404">ask for confirmation with password</text><polygon fill="#181818" points="238.5,175.4941,248.5,179.4941,238.5,183.4941,242.5,179.4941" style="stroke:#181818;stroke-width:1.0;"/><line style="stroke:#181818;stroke-width:1.0;" x1="27.5" x2="244.5" y1="179.4941" y2="179.4941"/><text fill="#000000" font-family="sans-serif" font-size="13" lengthAdjust="spacing" textLength="55" x="34.5" y="174.2314">password</text><line style="stroke:#181818;stroke-width:1.0;" x1="260.5" x2="302.5" y1="210.7852" y2="210.7852"/><line style="stroke:#181818;stroke-width:1.0;" x1="302.5" x2="302.5" y1="210.7852" y2="223.7852"/><line style="stroke:#181818;stroke-width:1.0;" x1="261.5" x2="302.5" y1="223.7852" y2="223.7852"/><polygon fill="#181818" points="271.5,219.7852,261.5,223.7852,271.5,227.7852,267.5,223.7852" style="stroke:#181818;stroke-width:1.0;"/><text fill="#000000" font-family="sans-serif" font-size="13" lengthAdjust="spacing" textLength="109" x="267.5" y="205.5225">token = getToken()</text><polygon fill="#181818" points="432.5,251.0762,442.5,255.0762,432.5,259.0762,436.5,255.0762" style="stroke:#181818;stroke-width:1.0;"/><line style="stroke:#181818;stroke-width:1.0;" x1="260.5" x2="438.5" y1="255.0762" y2="255.0762"/><text fill="#000000" font-family="sans-serif" font-size="13" lengthAdjust="spacing" textLength="165" x="267.5" y="249.8135">deleteUser(token, password)</text><line style="stroke:#181818;stroke-width:1.0;" x1="454.5" x2="496.5" y1="286.3672" y2="286.3672"/><line style="stroke:#181818;stroke-width:1.0;" x1="496.5" x2="496.5" y1="286.3672" y2="299.3672"/><line style="stroke:#181818;stroke-width:1.0;" x1="455.5" x2="496.5" y1="299.3672" y2="299.3672"/><polygon fill="#181818" points="465.5,295.3672,455.5,299.3672,465.5,303.3672,461.5,299.3672" style="stroke:#181818;stroke-width:1.0;"/><text fill="#000000" font-family="sans-serif" font-size="13" lengthAdjust="spacing" textLength="94" x="461.5" y="281.1045">check password</text><path d="M209,314.3672 L270,314.3672 L270,323.6582 L260,333.6582 L209,333.6582 L209,314.3672 " fill="#EEEEEE" style="stroke:#000000;stroke-width:1.5;"/><rect fill="none" height="142.7949" style="stroke:#000000;stroke-width:1.5;" width="372.5" x="209" y="314.3672"/><text fill="#000000" font-family="sans-serif" font-size="13" font-weight="bold" lengthAdjust="spacing" textLength="16" x="224" y="329.3955">alt</text><text fill="#000000" font-family="sans-serif" font-size="11" font-weight="bold" lengthAdjust="spacing" textLength="107" x="285" y="328.2373">[password correct]</text><line style="stroke:#181818;stroke-width:1.0;" x1="454.5" x2="496.5" y1="356.9492" y2="356.9492"/><line style="stroke:#181818;stroke-width:1.0;" x1="496.5" x2="496.5" y1="356.9492" y2="369.9492"/><line style="stroke:#181818;stroke-width:1.0;" x1="455.5" x2="496.5" y1="369.9492" y2="369.9492"/><polygon fill="#181818" points="465.5,365.9492,455.5,369.9492,465.5,373.9492,461.5,369.9492" style="stroke:#181818;stroke-width:1.0;"/><text fill="#000000" font-family="sans-serif" font-size="13" lengthAdjust="spacing" textLength="108" x="461.5" y="351.6865">make user inactive</text><polygon fill="#181818" points="271.5,397.2402,261.5,401.2402,271.5,405.2402,267.5,401.2402" style="stroke:#181818;stroke-width:1.0;"/><line style="stroke:#181818;stroke-width:1.0;" x1="265.5" x2="443.5" y1="401.2402" y2="401.2402"/><text fill="#000000" font-family="sans-serif" font-size="13" lengthAdjust="spacing" textLength="106" x="277.5" y="395.9775">success message</text><line style="stroke:#000000;stroke-width:1.0;stroke-dasharray:2.0,2.0;" x1="209" x2="581.5" y1="410.2402" y2="410.2402"/><text fill="#000000" font-family="sans-serif" font-size="11" font-weight="bold" lengthAdjust="spacing" textLength="117" x="214" y="422.1104">[password incorrect]</text><polygon fill="#181818" points="271.5,445.1621,261.5,449.1621,271.5,453.1621,267.5,449.1621" style="stroke:#181818;stroke-width:1.0;"/><line style="stroke:#181818;stroke-width:1.0;" x1="265.5" x2="443.5" y1="449.1621" y2="449.1621"/><text fill="#000000" font-family="sans-serif" font-size="13" lengthAdjust="spacing" textLength="83" x="277.5" y="443.8994">error message</text><polygon fill="#181818" points="38.5,483.4531,28.5,487.4531,38.5,491.4531,34.5,487.4531" style="stroke:#181818;stroke-width:1.0;"/><line style="stroke:#181818;stroke-width:1.0;" x1="32.5" x2="249.5" y1="487.4531" y2="487.4531"/><text fill="#000000" font-family="sans-serif" font-size="13" lengthAdjust="spacing" textLength="87" x="44.5" y="482.1904">show message</text><!--SRC=[PP11ReGm34NtEOMNCr9x0QHs1UpOjGUmWcU8W0GvPhX-xIc2Z2QBA8d_V_unUaaClvdOBSWIV5Wm2hISeZIn1ypGDY-bhhR7hdOElOG72ltRROFFRvLNi9bG4lGqaTPbeC20tgSrocbJSDkOnQoLKaUuQHYVuYtmZ19IX2t800lcl2NkNK-bkUnuIDxfLfOqKeGlk9FysF5otOjTNUqfZNPvwZuEslN4wOVrvxl33-J7ekSanqNZCvCN1xfEnumZmMg1GtmogH1OmhnwJpd3h1lUoT6KwOI6-8ur5p7hn0vFV1cHHYxdcuUq7T8_]--></g></svg>