<?xml version="1.0" encoding="us-ascii" standalone="no"?><svg xmlns="http://www.w3.org/2000/svg" xmlns:xlink="http://www.w3.org/1999/xlink" contentStyleType="text/css" height="356px" preserveAspectRatio="none" style="width:363px;height:356px;background:#FFFFFF;" version="1.1" viewBox="0 0 363 356" width="363px" zoomAndPan="magnify"><defs/><g><rect fill="#FFFFFF" height="170.4551" style="stroke:#181818;stroke-width:1.0;" width="10" x="22.5" y="93.6211"/><rect fill="#FFFFFF" height="31.291" style="stroke:#181818;stroke-width:1.0;" width="10" x="225.5" y="116.9121"/><rect fill="#FFFFFF" height="75.582" style="stroke:#181818;stroke-width:1.0;" width="10" x="225.5" y="179.4941"/><line style="stroke:#181818;stroke-width:0.5;stroke-dasharray:5.0,5.0;" x1="27" x2="27" y1="83.6211" y2="273.0762"/><line style="stroke:#181818;stroke-width:0.5;stroke-dasharray:5.0,5.0;" x1="230.5" x2="230.5" y1="83.6211" y2="273.0762"/><text fill="#000000" font-family="sans-serif" font-size="14" lengthAdjust="spacing" textLength="39" x="5" y="80.1074">Admin</text><ellipse cx="27.5" cy="13.5" fill="#E2E2F0" rx="8" ry="8" style="stroke:#181818;stroke-width:0.5;"/><path d="M27.5,21.5 L27.5,48.5 M14.5,29.5 L40.5,29.5 M27.5,48.5 L14.5,63.5 M27.5,48.5 L40.5,63.5 " fill="none" style="stroke:#181818;stroke-width:0.5;"/><text fill="#000000" font-family="sans-serif" font-size="14" lengthAdjust="spacing" textLength="39" x="5" y="287.1836">Admin</text><ellipse cx="27.5" cy="299.1973" fill="#E2E2F0" rx="8" ry="8" style="stroke:#181818;stroke-width:0.5;"/><path d="M27.5,307.1973 L27.5,334.1973 M14.5,315.1973 L40.5,315.1973 M27.5,334.1973 L14.5,349.1973 M27.5,334.1973 L40.5,349.1973 " fill="none" style="stroke:#181818;stroke-width:0.5;"/><rect fill="#E2E2F0" height="32.6211" rx="2.5" ry="2.5" style="stroke:#181818;stroke-width:0.5;" width="60" x="200.5" y="50"/><text fill="#000000" font-family="sans-serif" font-size="14" lengthAdjust="spacing" textLength="46" x="207.5" y="72.1074">System</text><rect fill="#E2E2F0" height="32.6211" rx="2.5" ry="2.5" style="stroke:#181818;stroke-width:0.5;" width="60" x="200.5" y="272.0762"/><text fill="#000000" font-family="sans-serif" font-size="14" lengthAdjust="spacing" textLength="46" x="207.5" y="294.1836">System</text><rect fill="#FFFFFF" height="170.4551" style="stroke:#181818;stroke-width:1.0;" width="10" x="22.5" y="93.6211"/><rect fill="#FFFFFF" height="31.291" style="stroke:#181818;stroke-width:1.0;" width="10" x="225.5" y="116.9121"/><rect fill="#FFFFFF" height="75.582" style="stroke:#181818;stroke-width:1.0;" width="10" x="225.5" y="179.4941"/><polygon fill="#181818" points="213.5,112.9121,223.5,116.9121,213.5,120.9121,217.5,116.9121" style="stroke:#181818;stroke-width:1.0;"/><line style="stroke:#181818;stroke-width:1.0;" x1="32.5" x2="219.5" y1="116.9121" y2="116.9121"/><text fill="#000000" font-family="sans-serif" font-size="13" lengthAdjust="spacing" textLength="157" x="39.5" y="111.6494">requests to add a new user</text><polygon fill="#181818" points="43.5,144.2031,33.5,148.2031,43.5,152.2031,39.5,148.2031" style="stroke:#181818;stroke-width:1.0;"/><line style="stroke:#181818;stroke-width:1.0;" x1="37.5" x2="229.5" y1="148.2031" y2="148.2031"/><text fill="#000000" font-family="sans-serif" font-size="13" lengthAdjust="spacing" textLength="169" x="49.5" y="142.9404">requests to enter user details</text><polygon fill="#181818" points="213.5,175.4941,223.5,179.4941,213.5,183.4941,217.5,179.4941" style="stroke:#181818;stroke-width:1.0;"/><line style="stroke:#181818;stroke-width:1.0;" x1="32.5" x2="219.5" y1="179.4941" y2="179.4941"/><text fill="#000000" font-family="sans-serif" font-size="13" lengthAdjust="spacing" textLength="107" x="39.5" y="174.2314">enters user details</text><line style="stroke:#181818;stroke-width:1.0;" x1="235.5" x2="277.5" y1="210.7852" y2="210.7852"/><line style="stroke:#181818;stroke-width:1.0;" x1="277.5" x2="277.5" y1="210.7852" y2="223.7852"/><line style="stroke:#181818;stroke-width:1.0;" x1="236.5" x2="277.5" y1="223.7852" y2="223.7852"/><polygon fill="#181818" points="246.5,219.7852,236.5,223.7852,246.5,227.7852,242.5,223.7852" style="stroke:#181818;stroke-width:1.0;"/><text fill="#000000" font-family="sans-serif" font-size="13" lengthAdjust="spacing" textLength="114" x="242.5" y="205.5225">validate user details</text><polygon fill="#181818" points="43.5,251.0762,33.5,255.0762,43.5,259.0762,39.5,255.0762" style="stroke:#181818;stroke-width:1.0;"/><line style="stroke:#181818;stroke-width:1.0;" x1="37.5" x2="229.5" y1="255.0762" y2="255.0762"/><text fill="#000000" font-family="sans-serif" font-size="13" lengthAdjust="spacing" textLength="148" x="49.5" y="249.8135">user created successfully</text><!--SRC=[TOxH3S8m34J_CuKNO04-a9Y12IpRI97IjDXEKRUdJODGAFoTTFVk3ib7XIiFCGFQBaAOK3rId30xt1Pp6JPpLo4WUPpHfQLt-7Hf_XbK7aNC3Nm4P0Q4B4ye9lf1MrShN-7QqhEINRHomE8OamMMxuRZVCMiv_xllgaPK-GjqN67VzKbbJN9O8L8pEubfUN7jHS0]--></g></svg>