<?xml version="1.0" encoding="us-ascii" standalone="no"?><svg xmlns="http://www.w3.org/2000/svg" xmlns:xlink="http://www.w3.org/1999/xlink" contentStyleType="text/css" height="423px" preserveAspectRatio="none" style="width:498px;height:423px;background:#FFFFFF;" version="1.1" viewBox="0 0 498 423" width="498px" zoomAndPan="magnify"><defs/><g><rect fill="#FFFFFF" height="205.4551" style="stroke:#181818;stroke-width:1.0;" width="10" x="206" y="116.9121"/><rect fill="#FFFFFF" height="142.873" style="stroke:#181818;stroke-width:1.0;" width="10" x="344" y="148.2031"/><line style="stroke:#181818;stroke-width:0.5;stroke-dasharray:5.0,5.0;" x1="62" x2="62" y1="83.6211" y2="340.3672"/><line style="stroke:#181818;stroke-width:0.5;stroke-dasharray:5.0,5.0;" x1="211" x2="211" y1="83.6211" y2="340.3672"/><line style="stroke:#181818;stroke-width:0.5;stroke-dasharray:5.0,5.0;" x1="348.5" x2="348.5" y1="83.6211" y2="340.3672"/><text fill="#000000" font-family="sans-serif" font-size="14" lengthAdjust="spacing" textLength="108" x="5" y="80.1074">CampusManager</text><ellipse cx="62" cy="13.5" fill="#E2E2F0" rx="8" ry="8" style="stroke:#181818;stroke-width:0.5;"/><path d="M62,21.5 L62,48.5 M49,29.5 L75,29.5 M62,48.5 L49,63.5 M62,48.5 L75,63.5 " fill="none" style="stroke:#181818;stroke-width:0.5;"/><text fill="#000000" font-family="sans-serif" font-size="14" lengthAdjust="spacing" textLength="108" x="5" y="354.4746">CampusManager</text><ellipse cx="62" cy="366.4883" fill="#E2E2F0" rx="8" ry="8" style="stroke:#181818;stroke-width:0.5;"/><path d="M62,374.4883 L62,401.4883 M49,382.4883 L75,382.4883 M62,401.4883 L49,416.4883 M62,401.4883 L75,416.4883 " fill="none" style="stroke:#181818;stroke-width:0.5;"/><rect fill="#E2E2F0" height="32.6211" rx="2.5" ry="2.5" style="stroke:#181818;stroke-width:0.5;" width="26" x="198" y="50"/><text fill="#000000" font-family="sans-serif" font-size="14" lengthAdjust="spacing" textLength="12" x="205" y="72.1074">UI</text><rect fill="#E2E2F0" height="32.6211" rx="2.5" ry="2.5" style="stroke:#181818;stroke-width:0.5;" width="26" x="198" y="339.3672"/><text fill="#000000" font-family="sans-serif" font-size="14" lengthAdjust="spacing" textLength="12" x="205" y="361.4746">UI</text><rect fill="#E2E2F0" height="32.6211" rx="2.5" ry="2.5" style="stroke:#181818;stroke-width:0.5;" width="35" x="331.5" y="50"/><text fill="#000000" font-family="sans-serif" font-size="14" lengthAdjust="spacing" textLength="21" x="338.5" y="72.1074">MD</text><rect fill="#E2E2F0" height="32.6211" rx="2.5" ry="2.5" style="stroke:#181818;stroke-width:0.5;" width="35" x="331.5" y="339.3672"/><text fill="#000000" font-family="sans-serif" font-size="14" lengthAdjust="spacing" textLength="21" x="338.5" y="361.4746">MD</text><rect fill="#FFFFFF" height="205.4551" style="stroke:#181818;stroke-width:1.0;" width="10" x="206" y="116.9121"/><rect fill="#FFFFFF" height="142.873" style="stroke:#181818;stroke-width:1.0;" width="10" x="344" y="148.2031"/><polygon fill="#181818" points="194,112.9121,204,116.9121,194,120.9121,198,116.9121" style="stroke:#181818;stroke-width:1.0;"/><line style="stroke:#181818;stroke-width:1.0;" x1="62" x2="200" y1="116.9121" y2="116.9121"/><text fill="#000000" font-family="sans-serif" font-size="13" font-weight="bold" lengthAdjust="spacing" textLength="7" x="69" y="111.6494">1</text><text fill="#000000" font-family="sans-serif" font-size="13" lengthAdjust="spacing" textLength="114" x="80" y="111.6494">request update floor</text><polygon fill="#181818" points="332,144.2031,342,148.2031,332,152.2031,336,148.2031" style="stroke:#181818;stroke-width:1.0;"/><line style="stroke:#181818;stroke-width:1.0;" x1="216" x2="338" y1="148.2031" y2="148.2031"/><text fill="#000000" font-family="sans-serif" font-size="13" font-weight="bold" lengthAdjust="spacing" textLength="7" x="223" y="142.9404">2</text><text fill="#000000" font-family="sans-serif" font-size="13" lengthAdjust="spacing" textLength="93" x="234" y="142.9404">patch('/api/floor')</text><line style="stroke:#181818;stroke-width:1.0;" x1="354" x2="396" y1="221.7852" y2="221.7852"/><line style="stroke:#181818;stroke-width:1.0;" x1="396" x2="396" y1="221.7852" y2="234.7852"/><line style="stroke:#181818;stroke-width:1.0;" x1="355" x2="396" y1="234.7852" y2="234.7852"/><polygon fill="#181818" points="365,230.7852,355,234.7852,365,238.7852,361,234.7852" style="stroke:#181818;stroke-width:1.0;"/><text fill="#000000" font-family="sans-serif" font-size="13" font-weight="bold" lengthAdjust="spacing" textLength="7" x="361" y="207.877">3</text><text fill="#000000" font-family="sans-serif" font-size="13" lengthAdjust="spacing" textLength="115" x="372" y="199.2314">updates floor, saves</text><text fill="#000000" font-family="sans-serif" font-size="13" lengthAdjust="spacing" textLength="76" x="376" y="216.5225">and returns it</text><polygon fill="#181818" points="227,287.0762,217,291.0762,227,295.0762,223,291.0762" style="stroke:#181818;stroke-width:1.0;"/><line style="stroke:#181818;stroke-width:1.0;" x1="221" x2="348" y1="291.0762" y2="291.0762"/><text fill="#000000" font-family="sans-serif" font-size="13" font-weight="bold" lengthAdjust="spacing" textLength="7" x="233" y="285.8135">4</text><text fill="#000000" font-family="sans-serif" font-size="13" lengthAdjust="spacing" textLength="93" x="244" y="285.8135">response status</text><polygon fill="#181818" points="73,318.3672,63,322.3672,73,326.3672,69,322.3672" style="stroke:#181818;stroke-width:1.0;"/><line style="stroke:#181818;stroke-width:1.0;" x1="67" x2="210" y1="322.3672" y2="322.3672"/><text fill="#000000" font-family="sans-serif" font-size="13" font-weight="bold" lengthAdjust="spacing" textLength="7" x="79" y="317.1045">5</text><text fill="#000000" font-family="sans-serif" font-size="13" lengthAdjust="spacing" textLength="106" x="90" y="317.1045">operation success</text><!--SRC=[LOwnRiCm34HtVGKtjq1JxHcwj4k6B0QyTM5bDX5WIOn8PVB7bufRfDd4mzEx6ywgB7llUS6iBIsleIGlT6cK0-tcYAUAoJbiMd9BNrJj7RHKUCV4JOwOyKGLK61oZ5LZY6mcc0wtxF0G7Z-WfwDp4-pUEhE7shj4eV6CIl2zb59xHRpsqmH66JiQogZX_3HuvEXltF3ixkZerdLrun-y-MGJle3WrOxF39XdwzHMiq3K-v_VCS8b2u4eQXCtqp_zDcGoh31Lr5WoI0k1v06qoJy0]--></g></svg>