<?xml version="1.0" encoding="us-ascii" standalone="no"?><svg xmlns="http://www.w3.org/2000/svg" xmlns:xlink="http://www.w3.org/1999/xlink" contentStyleType="text/css" height="601.2px" preserveAspectRatio="none" style="width:878px;height:601px;background:#FFFFFF;" version="1.1" viewBox="0 0 878 601" width="878.4px" zoomAndPan="magnify"><defs/><g><!--cluster L--><g id="cluster_L"><polygon fill="#ADD8E6" points="61.2,14.4,70.2,5.4,277.2,5.4,277.2,202.5,268.2,211.5,61.2,211.5,61.2,14.4" style="stroke:#181818;stroke-width:0.9;"/><line style="stroke:#181818;stroke-width:0.9;" x1="268.2" x2="277.2" y1="14.4" y2="5.4"/><line style="stroke:#181818;stroke-width:0.9;" x1="61.2" x2="268.2" y1="14.4" y2="14.4"/><line style="stroke:#181818;stroke-width:0.9;" x1="268.2" x2="268.2" y1="14.4" y2="211.5"/><text fill="#000000" font-family="sans-serif" font-size="12.6" font-weight="bold" lengthAdjust="spacing" textLength="77.4" x="126.9" y="30.6967">localhost:??</text></g><!--cluster B--><g id="cluster_B"><rect fill="#ADD8E6" height="125.1" rx="2.25" ry="2.25" style="stroke:#181818;stroke-width:0.9;" width="151.2" x="97.2" y="57.6"/><rect fill="#ADD8E6" height="9" style="stroke:#181818;stroke-width:0.9;" width="13.5" x="230.4" y="62.1"/><rect fill="#ADD8E6" height="1.8" style="stroke:#181818;stroke-width:0.9;" width="3.6" x="228.6" y="63.9"/><rect fill="#ADD8E6" height="1.8" style="stroke:#181818;stroke-width:0.9;" width="3.6" x="228.6" y="67.5"/><text fill="#000000" font-family="sans-serif" font-size="12.6" font-weight="bold" lengthAdjust="spacing" textLength="85.5" x="130.05" y="82.8967">&#171;component&#187;</text><text fill="#000000" font-family="sans-serif" font-size="12.6" font-weight="bold" lengthAdjust="spacing" textLength="53.1" x="146.25" y="99.6557">Browser</text></g><!--cluster S--><g id="cluster_S"><polygon fill="#ADD8E6" points="14.4,336.6,23.4,327.6,432.9,327.6,432.9,576.9,423.9,585.9,14.4,585.9,14.4,336.6" style="stroke:#181818;stroke-width:0.9;"/><line style="stroke:#181818;stroke-width:0.9;" x1="423.9" x2="432.9" y1="336.6" y2="327.6"/><line style="stroke:#181818;stroke-width:0.9;" x1="14.4" x2="423.9" y1="336.6" y2="336.6"/><line style="stroke:#181818;stroke-width:0.9;" x1="423.9" x2="423.9" y1="336.6" y2="585.9"/><text fill="#000000" font-family="sans-serif" font-size="12.6" font-weight="bold" lengthAdjust="spacing" textLength="80.1" x="180" y="352.8967">Server Node</text></g><!--cluster D--><g id="cluster_D"><polygon fill="#ADD8E6" points="468.9,336.6,477.9,327.6,863.1,327.6,863.1,445.5,854.1,454.5,468.9,454.5,468.9,336.6" style="stroke:#181818;stroke-width:0.9;"/><line style="stroke:#181818;stroke-width:0.9;" x1="854.1" x2="863.1" y1="336.6" y2="327.6"/><line style="stroke:#181818;stroke-width:0.9;" x1="468.9" x2="854.1" y1="336.6" y2="336.6"/><line style="stroke:#181818;stroke-width:0.9;" x1="854.1" x2="854.1" y1="336.6" y2="454.5"/><text fill="#000000" font-family="sans-serif" font-size="12.6" font-weight="bold" lengthAdjust="spacing" textLength="89.1" x="617.85" y="352.8967">Server Dotnet</text></g><!--entity UI--><g id="elem_UI"><rect fill="#ADD8E6" height="60.518" rx="2.25" ry="2.25" style="stroke:#181818;stroke-width:0.45;" width="121.5" x="112.05" y="108"/><rect fill="#ADD8E6" height="9" style="stroke:#181818;stroke-width:0.45;" width="13.5" x="215.55" y="112.5"/><rect fill="#ADD8E6" height="1.8" style="stroke:#181818;stroke-width:0.45;" width="3.6" x="213.75" y="114.3"/><rect fill="#ADD8E6" height="1.8" style="stroke:#181818;stroke-width:0.45;" width="3.6" x="213.75" y="117.9"/><text fill="#000000" font-family="sans-serif" font-size="12.6" font-weight="bold" lengthAdjust="spacing" textLength="85.5" x="125.55" y="139.5967">&#171;component&#187;</text><text fill="#000000" font-family="sans-serif" font-size="12.6" font-weight="bold" lengthAdjust="spacing" textLength="12.6" x="162" y="156.3557">UI</text></g><!--entity CM--><g id="elem_CM"><rect fill="#ADD8E6" height="60.518" rx="2.25" ry="2.25" style="stroke:#181818;stroke-width:0.45;" width="171.9" x="53.55" y="372.6"/><rect fill="#ADD8E6" height="9" style="stroke:#181818;stroke-width:0.45;" width="13.5" x="207.45" y="377.1"/><rect fill="#ADD8E6" height="1.8" style="stroke:#181818;stroke-width:0.45;" width="3.6" x="205.65" y="378.9"/><rect fill="#ADD8E6" height="1.8" style="stroke:#181818;stroke-width:0.45;" width="3.6" x="205.65" y="382.5"/><text fill="#000000" font-family="sans-serif" font-size="12.6" font-weight="bold" lengthAdjust="spacing" textLength="85.5" x="92.25" y="404.1967">&#171;component&#187;</text><text fill="#000000" font-family="sans-serif" font-size="12.6" font-weight="bold" lengthAdjust="spacing" textLength="135.9" x="67.05" y="420.9557">Campus Management</text></g><!--entity FM--><g id="elem_FM"><rect fill="#ADD8E6" height="60.518" rx="2.25" ry="2.25" style="stroke:#181818;stroke-width:0.45;" width="153.9" x="256.95" y="372.6"/><rect fill="#ADD8E6" height="9" style="stroke:#181818;stroke-width:0.45;" width="13.5" x="392.85" y="377.1"/><rect fill="#ADD8E6" height="1.8" style="stroke:#181818;stroke-width:0.45;" width="3.6" x="391.05" y="378.9"/><rect fill="#ADD8E6" height="1.8" style="stroke:#181818;stroke-width:0.45;" width="3.6" x="391.05" y="382.5"/><text fill="#000000" font-family="sans-serif" font-size="12.6" font-weight="bold" lengthAdjust="spacing" textLength="85.5" x="286.65" y="404.1967">&#171;component&#187;</text><text fill="#000000" font-family="sans-serif" font-size="12.6" font-weight="bold" lengthAdjust="spacing" textLength="117.9" x="270.45" y="420.9557">Fleet Management</text></g><!--entity Planning--><g id="elem_Planning"><rect fill="#ADD8E6" height="60.518" rx="2.25" ry="2.25" style="stroke:#181818;stroke-width:0.45;" width="121.5" x="78.75" y="504"/><rect fill="#ADD8E6" height="9" style="stroke:#181818;stroke-width:0.45;" width="13.5" x="182.25" y="508.5"/><rect fill="#ADD8E6" height="1.8" style="stroke:#181818;stroke-width:0.45;" width="3.6" x="180.45" y="510.3"/><rect fill="#ADD8E6" height="1.8" style="stroke:#181818;stroke-width:0.45;" width="3.6" x="180.45" y="513.9"/><text fill="#000000" font-family="sans-serif" font-size="12.6" font-weight="bold" lengthAdjust="spacing" textLength="85.5" x="92.25" y="535.5967">&#171;component&#187;</text><text fill="#000000" font-family="sans-serif" font-size="12.6" font-weight="bold" lengthAdjust="spacing" textLength="54.9" x="107.55" y="552.3557">Planning</text></g><!--entity TM--><g id="elem_TM"><rect fill="#ADD8E6" height="60.518" rx="2.25" ry="2.25" style="stroke:#181818;stroke-width:0.45;" width="150.3" x="690.75" y="372.6"/><rect fill="#ADD8E6" height="9" style="stroke:#181818;stroke-width:0.45;" width="13.5" x="823.05" y="377.1"/><rect fill="#ADD8E6" height="1.8" style="stroke:#181818;stroke-width:0.45;" width="3.6" x="821.25" y="378.9"/><rect fill="#ADD8E6" height="1.8" style="stroke:#181818;stroke-width:0.45;" width="3.6" x="821.25" y="382.5"/><text fill="#000000" font-family="sans-serif" font-size="12.6" font-weight="bold" lengthAdjust="spacing" textLength="85.5" x="718.65" y="404.1967">&#171;component&#187;</text><text fill="#000000" font-family="sans-serif" font-size="12.6" font-weight="bold" lengthAdjust="spacing" textLength="114.3" x="704.25" y="420.9557">Task Management</text></g><!--entity UM--><g id="elem_UM"><rect fill="#ADD8E6" height="60.518" rx="2.25" ry="2.25" style="stroke:#181818;stroke-width:0.45;" width="151.2" x="507.6" y="372.6"/><rect fill="#ADD8E6" height="9" style="stroke:#181818;stroke-width:0.45;" width="13.5" x="640.8" y="377.1"/><rect fill="#ADD8E6" height="1.8" style="stroke:#181818;stroke-width:0.45;" width="3.6" x="639" y="378.9"/><rect fill="#ADD8E6" height="1.8" style="stroke:#181818;stroke-width:0.45;" width="3.6" x="639" y="382.5"/><text fill="#000000" font-family="sans-serif" font-size="12.6" font-weight="bold" lengthAdjust="spacing" textLength="85.5" x="535.95" y="404.1967">&#171;component&#187;</text><text fill="#000000" font-family="sans-serif" font-size="12.6" font-weight="bold" lengthAdjust="spacing" textLength="115.2" x="521.1" y="420.9557">User Management</text></g><!--link L to S--><g id="link_L_S"><path d="M61.0849,180.1345 C61.0174,180.5135 60.9495,180.8945 60.8813,181.2774 C56.5178,205.7839 50.7589,238.1243 45,270.4635 C42.1206,286.6331 39.2411,302.8025 36.5361,317.9921 C36.198,319.8909 35.8626,321.7743 35.5302,323.6404 C35.3641,324.5735 35.1987,325.5023 35.0341,326.4266 C34.9929,326.6576 34.9518,326.8884 34.9108,327.1189 " fill="none" id="L-S" style="stroke:#181818;stroke-width:0.9;"/><text fill="#000000" font-family="sans-serif" font-size="11.7" lengthAdjust="spacing" textLength="29.7" x="47.7" y="274.5255">http/s</text></g><!--link L to D--><g id="link_L_D"><path d="M85.8246,211.5644 C85.9061,211.6997 85.9879,211.8347 86.0702,211.9694 C86.2346,212.2389 86.4007,212.5073 86.5682,212.7746 C86.9033,213.3093 87.2446,213.8395 87.5922,214.365 C90.3729,218.5689 93.5561,222.4699 97.2,225.9 C207.198,329.445 306.063,220.959 425.7,313.2 C443.367,326.8215 455.8523,348.5092 463.977,367.0234 C464.9926,369.3376 465.9401,371.6023 466.821,373.7955 C467.2615,374.892 467.6853,375.9707 468.0927,377.0288 C468.2964,377.5578 468.496,378.0817 468.6915,378.6 C468.7404,378.7296 468.789,378.8589 468.8374,378.9878 " fill="none" id="L-D" style="stroke:#181818;stroke-width:0.9;"/><text fill="#000000" font-family="sans-serif" font-size="11.7" lengthAdjust="spacing" textLength="29.7" x="353.7" y="274.5255">http/s</text></g><!--SRC=[dP9VQuCm5CNVyoakwSEUdEzIMgX5ABHZOFq0KIygnbn9hXjZzBilTjJrZ_HXWK0uEUVaHvANchbtKHZsMXaUElrQK1VwsPD1mq7PgCggJWZNDgPNVWc6IlmMu4UkYhQoD9Wo9aqM5hgfQixrWE9qdPZg_XbBo73ANngNoqbRhI0dNGenue3KL2XTa-DelPQW7EnXF6ooWznO-dHe9ToMUElc5-lFc-qUJJBRIMyxZOZd8zEpcgBzG0jlNf7tDV5XfYPMNJyuE2YZAkoyBkzIoLmgqOZy9FJkNyyqffg9NhQacD2tr-XROeFy07-SmpWgrpwXoEOocR_qcuod47i8oY20D8Bn_uNk8cmduGS0]--></g></svg>