<?xml version="1.0" encoding="us-ascii" standalone="no"?><svg xmlns="http://www.w3.org/2000/svg" xmlns:xlink="http://www.w3.org/1999/xlink" contentStyleType="text/css" height="258.6px" preserveAspectRatio="none" style="width:353px;height:258px;background:#FFFFFF;" version="1.1" viewBox="0 0 353 258" width="353.4px" zoomAndPan="magnify"><defs/><g><rect fill="#FFFFFF" height="127.8984" style="stroke:#181818;stroke-width:0.6;" width="6" x="110.1" y="70.1473"/><rect fill="#FFFFFF" height="75.3492" style="stroke:#181818;stroke-width:0.6;" width="6" x="201.9" y="88.9219"/><line style="stroke:#181818;stroke-width:0.3;stroke-dasharray:5.0,5.0;" x1="13.2" x2="13.2" y1="50.1727" y2="208.8457"/><line style="stroke:#181818;stroke-width:0.3;stroke-dasharray:5.0,5.0;" x1="113.1" x2="113.1" y1="50.1727" y2="208.8457"/><line style="stroke:#181818;stroke-width:0.3;stroke-dasharray:5.0,5.0;" x1="204.9" x2="204.9" y1="50.1727" y2="208.8457"/><text fill="#000000" font-family="sans-serif" font-size="8.4" lengthAdjust="spacing" textLength="17.4" x="3" y="48.0645">User</text><ellipse cx="13.5" cy="8.1" fill="#E2E2F0" rx="4.8" ry="4.8" style="stroke:#181818;stroke-width:0.3;"/><path d="M13.5,12.9 L13.5,29.1 M5.7,17.7 L21.3,17.7 M13.5,29.1 L5.7,38.1 M13.5,29.1 L21.3,38.1 " fill="none" style="stroke:#181818;stroke-width:0.3;"/><text fill="#000000" font-family="sans-serif" font-size="8.4" lengthAdjust="spacing" textLength="17.4" x="3" y="217.3102">User</text><ellipse cx="13.5" cy="224.5184" fill="#E2E2F0" rx="4.8" ry="4.8" style="stroke:#181818;stroke-width:0.3;"/><path d="M13.5,229.3184 L13.5,245.5184 M5.7,234.1184 L21.3,234.1184 M13.5,245.5184 L5.7,254.5184 M13.5,245.5184 L21.3,254.5184 " fill="none" style="stroke:#181818;stroke-width:0.3;"/><rect fill="#E2E2F0" height="19.5727" rx="1.5" ry="1.5" style="stroke:#181818;stroke-width:0.3;" width="15.6" x="105.3" y="30"/><text fill="#000000" font-family="sans-serif" font-size="8.4" lengthAdjust="spacing" textLength="7.2" x="109.5" y="43.2645">UI</text><rect fill="#E2E2F0" height="19.5727" rx="1.5" ry="1.5" style="stroke:#181818;stroke-width:0.3;" width="15.6" x="105.3" y="208.2457"/><text fill="#000000" font-family="sans-serif" font-size="8.4" lengthAdjust="spacing" textLength="7.2" x="109.5" y="221.5102">UI</text><rect fill="#E2E2F0" height="19.5727" rx="1.5" ry="1.5" style="stroke:#181818;stroke-width:0.3;" width="31.2" x="189.3" y="30"/><text fill="#000000" font-family="sans-serif" font-size="8.4" lengthAdjust="spacing" textLength="22.8" x="193.5" y="43.2645">Route</text><rect fill="#E2E2F0" height="19.5727" rx="1.5" ry="1.5" style="stroke:#181818;stroke-width:0.3;" width="31.2" x="189.3" y="208.2457"/><text fill="#000000" font-family="sans-serif" font-size="8.4" lengthAdjust="spacing" textLength="22.8" x="193.5" y="221.5102">Route</text><rect fill="#FFFFFF" height="127.8984" style="stroke:#181818;stroke-width:0.6;" width="6" x="110.1" y="70.1473"/><rect fill="#FFFFFF" height="75.3492" style="stroke:#181818;stroke-width:0.6;" width="6" x="201.9" y="88.9219"/><polygon fill="#181818" points="102.9,67.7473,108.9,70.1473,102.9,72.5473,105.3,70.1473" style="stroke:#181818;stroke-width:0.6;"/><line style="stroke:#181818;stroke-width:0.6;" x1="13.5" x2="106.5" y1="70.1473" y2="70.1473"/><text fill="#000000" font-family="sans-serif" font-size="7.8" font-weight="bold" lengthAdjust="spacing" textLength="4.2" x="17.7" y="66.9896">1</text><text fill="#000000" font-family="sans-serif" font-size="7.8" lengthAdjust="spacing" textLength="78.6" x="24.3" y="66.9896">request create building</text><polygon fill="#181818" points="194.7,86.5219,200.7,88.9219,194.7,91.3219,197.1,88.9219" style="stroke:#181818;stroke-width:0.6;"/><line style="stroke:#181818;stroke-width:0.6;" x1="116.1" x2="198.3" y1="88.9219" y2="88.9219"/><text fill="#000000" font-family="sans-serif" font-size="7.8" font-weight="bold" lengthAdjust="spacing" textLength="4.2" x="120.3" y="85.7643">2</text><text fill="#000000" font-family="sans-serif" font-size="7.8" lengthAdjust="spacing" textLength="63.6" x="126.9" y="85.7643">post('/api/building')</text><line style="stroke:#181818;stroke-width:0.6;" x1="207.9" x2="233.1" y1="122.6965" y2="122.6965"/><line style="stroke:#181818;stroke-width:0.6;" x1="233.1" x2="233.1" y1="122.6965" y2="130.4965"/><line style="stroke:#181818;stroke-width:0.6;" x1="208.5" x2="233.1" y1="130.4965" y2="130.4965"/><polygon fill="#181818" points="214.5,128.0965,208.5,130.4965,214.5,132.8965,212.1,130.4965" style="stroke:#181818;stroke-width:0.6;"/><text fill="#000000" font-family="sans-serif" font-size="7.8" font-weight="bold" lengthAdjust="spacing" textLength="4.2" x="212.1" y="119.5389">3</text><text fill="#000000" font-family="sans-serif" font-size="7.8" lengthAdjust="spacing" textLength="130.8" x="218.7" y="119.5389">Crestes building, saves and returns it.</text><polygon fill="#181818" points="122.7,161.8711,116.7,164.2711,122.7,166.6711,120.3,164.2711" style="stroke:#181818;stroke-width:0.6;"/><line style="stroke:#181818;stroke-width:0.6;" x1="119.1" x2="204.3" y1="164.2711" y2="164.2711"/><text fill="#000000" font-family="sans-serif" font-size="7.8" font-weight="bold" lengthAdjust="spacing" textLength="4.2" x="126.3" y="161.1135">4</text><text fill="#000000" font-family="sans-serif" font-size="7.8" lengthAdjust="spacing" textLength="64.8" x="132.9" y="161.1135">status da resposta</text><polygon fill="#181818" points="20.1,195.6457,14.1,198.0457,20.1,200.4457,17.7,198.0457" style="stroke:#181818;stroke-width:0.6;"/><line style="stroke:#181818;stroke-width:0.6;" x1="16.5" x2="112.5" y1="198.0457" y2="198.0457"/><text fill="#000000" font-family="sans-serif" font-size="7.8" font-weight="bold" lengthAdjust="spacing" textLength="4.2" x="23.7" y="194.8881">5</text><text fill="#000000" font-family="sans-serif" font-size="7.8" lengthAdjust="spacing" textLength="63.6" x="30.3" y="194.8881">operation success</text><!--SRC=[NOuxRWCn34HxdOBT9a1izIxIf78hO0z0IuGZO5TIIChL7jwK0t-IZXm-pipqhThau7rRi6XVbtsignVwwLGYxLB6C-Fg77QjfQydOfkZLePPY045PjUGDSVSp03cuqqx_X53xKem3i6v6NQV0pi0ZnHHY4nezrFFIyhbFFppPIXcOw3XmUXMHTycZotxEpczkoSStBPjBjpnBpPhaeVh1mXURCUIB5Wx5u6i- -VJhP8eQXT8Q8oCH7I9_aNyLfgDheqODTS2qcCaaLVOoby1]--></g></svg>