<?xml version="1.0" encoding="us-ascii" standalone="no"?><svg xmlns="http://www.w3.org/2000/svg" xmlns:xlink="http://www.w3.org/1999/xlink" contentStyleType="text/css" height="844px" preserveAspectRatio="none" style="width:1034px;height:844px;background:#FFFFFF;" version="1.1" viewBox="0 0 1034 844" width="1034px" zoomAndPan="magnify"><defs/><g><rect fill="#FFFFFF" height="749.4023" style="stroke:#181818;stroke-width:1.0;" width="10" x="13" y="48.6211"/><rect fill="#FFFFFF" height="726.1113" style="stroke:#181818;stroke-width:1.0;" width="10" x="178" y="71.9121"/><rect fill="#FFFFFF" height="654.5293" style="stroke:#181818;stroke-width:1.0;" width="10" x="291" y="103.2031"/><rect fill="#FFFFFF" height="156.4551" style="stroke:#181818;stroke-width:1.0;" width="10" x="427" y="134.4941"/><rect fill="#FFFFFF" height="93.873" style="stroke:#181818;stroke-width:1.0;" width="10" x="535" y="165.7852"/><rect fill="#FFFFFF" height="93.873" style="stroke:#181818;stroke-width:1.0;" width="10" x="535" y="384.8223"/><rect fill="#FFFFFF" height="30" style="stroke:#181818;stroke-width:1.0;" width="10" x="535" y="633.8594"/><rect fill="#FFFFFF" height="31.291" style="stroke:#181818;stroke-width:1.0;" width="10" x="643" y="197.0762"/><rect fill="#FFFFFF" height="404.2012" style="stroke:#181818;stroke-width:1.0;" width="10" x="705.5" y="322.2402"/><rect fill="#FFFFFF" height="31.291" style="stroke:#181818;stroke-width:1.0;" width="10" x="900.5" y="416.1133"/><rect fill="#FFFFFF" height="30" style="stroke:#181818;stroke-width:1.0;" width="10" x="900.5" y="541.2773"/><rect fill="#FFFFFF" height="156.4551" style="stroke:#181818;stroke-width:1.0;" width="10" x="982.5" y="353.5313"/><rect fill="#FFFFFF" height="92.582" style="stroke:#181818;stroke-width:1.0;" width="10" x="982.5" y="602.5684"/><line style="stroke:#181818;stroke-width:0.5;stroke-dasharray:5.0,5.0;" x1="18" x2="18" y1="38.6211" y2="807.0234"/><line style="stroke:#181818;stroke-width:0.5;stroke-dasharray:5.0,5.0;" x1="183" x2="183" y1="38.6211" y2="807.0234"/><line style="stroke:#181818;stroke-width:0.5;stroke-dasharray:5.0,5.0;" x1="296" x2="296" y1="38.6211" y2="807.0234"/><line style="stroke:#181818;stroke-width:0.5;stroke-dasharray:5.0,5.0;" x1="432" x2="432" y1="38.6211" y2="807.0234"/><line style="stroke:#181818;stroke-width:0.5;stroke-dasharray:5.0,5.0;" x1="540" x2="540" y1="38.6211" y2="807.0234"/><line style="stroke:#181818;stroke-width:0.5;stroke-dasharray:5.0,5.0;" x1="648" x2="648" y1="38.6211" y2="807.0234"/><line style="stroke:#181818;stroke-width:0.5;stroke-dasharray:5.0,5.0;" x1="710" x2="710" y1="38.6211" y2="807.0234"/><line style="stroke:#181818;stroke-width:0.5;stroke-dasharray:5.0,5.0;" x1="905.5" x2="905.5" y1="38.6211" y2="807.0234"/><line style="stroke:#181818;stroke-width:0.5;stroke-dasharray:5.0,5.0;" x1="987.5" x2="987.5" y1="38.6211" y2="807.0234"/><rect fill="#E2E2F0" height="32.6211" rx="2.5" ry="2.5" style="stroke:#181818;stroke-width:0.5;" width="26" x="5" y="5"/><text fill="#000000" font-family="sans-serif" font-size="14" lengthAdjust="spacing" textLength="12" x="12" y="27.1074">UI</text><rect fill="#E2E2F0" height="32.6211" rx="2.5" ry="2.5" style="stroke:#181818;stroke-width:0.5;" width="26" x="5" y="806.0234"/><text fill="#000000" font-family="sans-serif" font-size="14" lengthAdjust="spacing" textLength="12" x="12" y="828.1309">UI</text><rect fill="#E2E2F0" height="32.6211" rx="2.5" ry="2.5" style="stroke:#181818;stroke-width:0.5;" width="52" x="157" y="5"/><text fill="#000000" font-family="sans-serif" font-size="14" lengthAdjust="spacing" textLength="38" x="164" y="27.1074">Route</text><rect fill="#E2E2F0" height="32.6211" rx="2.5" ry="2.5" style="stroke:#181818;stroke-width:0.5;" width="52" x="157" y="806.0234"/><text fill="#000000" font-family="sans-serif" font-size="14" lengthAdjust="spacing" textLength="38" x="164" y="828.1309">Route</text><rect fill="#E2E2F0" height="32.6211" rx="2.5" ry="2.5" style="stroke:#181818;stroke-width:0.5;" width="76" x="258" y="5"/><text fill="#000000" font-family="sans-serif" font-size="14" lengthAdjust="spacing" textLength="62" x="265" y="27.1074">Controller</text><rect fill="#E2E2F0" height="32.6211" rx="2.5" ry="2.5" style="stroke:#181818;stroke-width:0.5;" width="76" x="258" y="806.0234"/><text fill="#000000" font-family="sans-serif" font-size="14" lengthAdjust="spacing" textLength="62" x="265" y="828.1309">Controller</text><rect fill="#E2E2F0" height="32.6211" rx="2.5" ry="2.5" style="stroke:#181818;stroke-width:0.5;" width="98" x="383" y="5"/><text fill="#000000" font-family="sans-serif" font-size="14" lengthAdjust="spacing" textLength="84" x="390" y="27.1074">CreatingDTO</text><rect fill="#E2E2F0" height="32.6211" rx="2.5" ry="2.5" style="stroke:#181818;stroke-width:0.5;" width="98" x="383" y="806.0234"/><text fill="#000000" font-family="sans-serif" font-size="14" lengthAdjust="spacing" textLength="84" x="390" y="828.1309">CreatingDTO</text><rect fill="#E2E2F0" height="32.6211" rx="2.5" ry="2.5" style="stroke:#181818;stroke-width:0.5;" width="62" x="509" y="5"/><text fill="#000000" font-family="sans-serif" font-size="14" lengthAdjust="spacing" textLength="48" x="516" y="27.1074">Mapper</text><rect fill="#E2E2F0" height="32.6211" rx="2.5" ry="2.5" style="stroke:#181818;stroke-width:0.5;" width="62" x="509" y="806.0234"/><text fill="#000000" font-family="sans-serif" font-size="14" lengthAdjust="spacing" textLength="48" x="516" y="828.1309">Mapper</text><rect fill="#E2E2F0" height="32.6211" rx="2.5" ry="2.5" style="stroke:#181818;stroke-width:0.5;" width="44" x="626" y="5"/><text fill="#000000" font-family="sans-serif" font-size="14" lengthAdjust="spacing" textLength="30" x="633" y="27.1074">DTO</text><rect fill="#E2E2F0" height="32.6211" rx="2.5" ry="2.5" style="stroke:#181818;stroke-width:0.5;" width="44" x="626" y="806.0234"/><text fill="#000000" font-family="sans-serif" font-size="14" lengthAdjust="spacing" textLength="30" x="633" y="828.1309">DTO</text><rect fill="#E2E2F0" height="32.6211" rx="2.5" ry="2.5" style="stroke:#181818;stroke-width:0.5;" width="61" x="680" y="5"/><text fill="#000000" font-family="sans-serif" font-size="14" lengthAdjust="spacing" textLength="47" x="687" y="27.1074">Service</text><rect fill="#E2E2F0" height="32.6211" rx="2.5" ry="2.5" style="stroke:#181818;stroke-width:0.5;" width="61" x="680" y="806.0234"/><text fill="#000000" font-family="sans-serif" font-size="14" lengthAdjust="spacing" textLength="47" x="687" y="828.1309">Service</text><rect fill="#E2E2F0" height="32.6211" rx="2.5" ry="2.5" style="stroke:#181818;stroke-width:0.5;" width="62" x="874.5" y="5"/><text fill="#000000" font-family="sans-serif" font-size="14" lengthAdjust="spacing" textLength="48" x="881.5" y="27.1074">Domain</text><rect fill="#E2E2F0" height="32.6211" rx="2.5" ry="2.5" style="stroke:#181818;stroke-width:0.5;" width="62" x="874.5" y="806.0234"/><text fill="#000000" font-family="sans-serif" font-size="14" lengthAdjust="spacing" textLength="48" x="881.5" y="828.1309">Domain</text><rect fill="#E2E2F0" height="32.6211" rx="2.5" ry="2.5" style="stroke:#181818;stroke-width:0.5;" width="82" x="946.5" y="5"/><text fill="#000000" font-family="sans-serif" font-size="14" lengthAdjust="spacing" textLength="68" x="953.5" y="27.1074">Repository</text><rect fill="#E2E2F0" height="32.6211" rx="2.5" ry="2.5" style="stroke:#181818;stroke-width:0.5;" width="82" x="946.5" y="806.0234"/><text fill="#000000" font-family="sans-serif" font-size="14" lengthAdjust="spacing" textLength="68" x="953.5" y="828.1309">Repository</text><rect fill="#FFFFFF" height="749.4023" style="stroke:#181818;stroke-width:1.0;" width="10" x="13" y="48.6211"/><rect fill="#FFFFFF" height="726.1113" style="stroke:#181818;stroke-width:1.0;" width="10" x="178" y="71.9121"/><rect fill="#FFFFFF" height="654.5293" style="stroke:#181818;stroke-width:1.0;" width="10" x="291" y="103.2031"/><rect fill="#FFFFFF" height="156.4551" style="stroke:#181818;stroke-width:1.0;" width="10" x="427" y="134.4941"/><rect fill="#FFFFFF" height="93.873" style="stroke:#181818;stroke-width:1.0;" width="10" x="535" y="165.7852"/><rect fill="#FFFFFF" height="93.873" style="stroke:#181818;stroke-width:1.0;" width="10" x="535" y="384.8223"/><rect fill="#FFFFFF" height="30" style="stroke:#181818;stroke-width:1.0;" width="10" x="535" y="633.8594"/><rect fill="#FFFFFF" height="31.291" style="stroke:#181818;stroke-width:1.0;" width="10" x="643" y="197.0762"/><rect fill="#FFFFFF" height="404.2012" style="stroke:#181818;stroke-width:1.0;" width="10" x="705.5" y="322.2402"/><rect fill="#FFFFFF" height="31.291" style="stroke:#181818;stroke-width:1.0;" width="10" x="900.5" y="416.1133"/><rect fill="#FFFFFF" height="30" style="stroke:#181818;stroke-width:1.0;" width="10" x="900.5" y="541.2773"/><rect fill="#FFFFFF" height="156.4551" style="stroke:#181818;stroke-width:1.0;" width="10" x="982.5" y="353.5313"/><rect fill="#FFFFFF" height="92.582" style="stroke:#181818;stroke-width:1.0;" width="10" x="982.5" y="602.5684"/><polygon fill="#181818" points="166,67.9121,176,71.9121,166,75.9121,170,71.9121" style="stroke:#181818;stroke-width:1.0;"/><line style="stroke:#181818;stroke-width:1.0;" x1="23" x2="172" y1="71.9121" y2="71.9121"/><text fill="#000000" font-family="sans-serif" font-size="13" font-weight="bold" lengthAdjust="spacing" textLength="7" x="30" y="66.6494">1</text><text fill="#000000" font-family="sans-serif" font-size="13" lengthAdjust="spacing" textLength="125" x="41" y="66.6494">patch('/api/robo/inibir')</text><polygon fill="#181818" points="279,99.2031,289,103.2031,279,107.2031,283,103.2031" style="stroke:#181818;stroke-width:1.0;"/><line style="stroke:#181818;stroke-width:1.0;" x1="188" x2="285" y1="103.2031" y2="103.2031"/><text fill="#000000" font-family="sans-serif" font-size="13" font-weight="bold" lengthAdjust="spacing" textLength="7" x="195" y="97.9404">2</text><text fill="#000000" font-family="sans-serif" font-size="13" lengthAdjust="spacing" textLength="32" x="206" y="97.9404">patch</text><polygon fill="#181818" points="415,130.4941,425,134.4941,415,138.4941,419,134.4941" style="stroke:#181818;stroke-width:1.0;"/><line style="stroke:#181818;stroke-width:1.0;" x1="301" x2="421" y1="134.4941" y2="134.4941"/><text fill="#000000" font-family="sans-serif" font-size="13" font-weight="bold" lengthAdjust="spacing" textLength="7" x="308" y="129.2314">3</text><text fill="#000000" font-family="sans-serif" font-size="13" lengthAdjust="spacing" textLength="96" x="319" y="129.2314">recives body info</text><polygon fill="#181818" points="523,161.7852,533,165.7852,523,169.7852,527,165.7852" style="stroke:#181818;stroke-width:1.0;"/><line style="stroke:#181818;stroke-width:1.0;" x1="437" x2="529" y1="165.7852" y2="165.7852"/><text fill="#000000" font-family="sans-serif" font-size="13" font-weight="bold" lengthAdjust="spacing" textLength="7" x="444" y="160.5225">4</text><text fill="#000000" font-family="sans-serif" font-size="13" lengthAdjust="spacing" textLength="40" x="455" y="160.5225">ToDTO</text><polygon fill="#181818" points="631,193.0762,641,197.0762,631,201.0762,635,197.0762" style="stroke:#181818;stroke-width:1.0;"/><line style="stroke:#181818;stroke-width:1.0;" x1="545" x2="637" y1="197.0762" y2="197.0762"/><text fill="#000000" font-family="sans-serif" font-size="13" font-weight="bold" lengthAdjust="spacing" textLength="7" x="552" y="191.8135">5</text><text fill="#000000" font-family="sans-serif" font-size="13" lengthAdjust="spacing" textLength="53" x="563" y="191.8135">new DTO</text><polygon fill="#181818" points="556,224.3672,546,228.3672,556,232.3672,552,228.3672" style="stroke:#181818;stroke-width:1.0;"/><line style="stroke:#181818;stroke-width:1.0;" x1="550" x2="647" y1="228.3672" y2="228.3672"/><text fill="#000000" font-family="sans-serif" font-size="13" font-weight="bold" lengthAdjust="spacing" textLength="7" x="562" y="223.1045">6</text><text fill="#000000" font-family="sans-serif" font-size="13" lengthAdjust="spacing" textLength="63" x="573" y="223.1045">return DTO</text><polygon fill="#181818" points="448,255.6582,438,259.6582,448,263.6582,444,259.6582" style="stroke:#181818;stroke-width:1.0;"/><line style="stroke:#181818;stroke-width:1.0;" x1="442" x2="539" y1="259.6582" y2="259.6582"/><text fill="#000000" font-family="sans-serif" font-size="13" font-weight="bold" lengthAdjust="spacing" textLength="7" x="454" y="254.3955">7</text><text fill="#000000" font-family="sans-serif" font-size="13" lengthAdjust="spacing" textLength="63" x="465" y="254.3955">return DTO</text><polygon fill="#181818" points="312,286.9492,302,290.9492,312,294.9492,308,290.9492" style="stroke:#181818;stroke-width:1.0;"/><line style="stroke:#181818;stroke-width:1.0;" x1="306" x2="431" y1="290.9492" y2="290.9492"/><text fill="#000000" font-family="sans-serif" font-size="13" font-weight="bold" lengthAdjust="spacing" textLength="7" x="318" y="285.6865">8</text><text fill="#000000" font-family="sans-serif" font-size="13" lengthAdjust="spacing" textLength="63" x="329" y="285.6865">return DTO</text><polygon fill="#181818" points="693.5,318.2402,703.5,322.2402,693.5,326.2402,697.5,322.2402" style="stroke:#181818;stroke-width:1.0;"/><line style="stroke:#181818;stroke-width:1.0;" x1="301" x2="699.5" y1="322.2402" y2="322.2402"/><text fill="#000000" font-family="sans-serif" font-size="13" font-weight="bold" lengthAdjust="spacing" textLength="7" x="308" y="316.9775">9</text><text fill="#000000" font-family="sans-serif" font-size="13" lengthAdjust="spacing" textLength="162" x="319" y="316.9775">chamada do servi&#231;o de robo</text><polygon fill="#181818" points="970.5,349.5313,980.5,353.5313,970.5,357.5313,974.5,353.5313" style="stroke:#181818;stroke-width:1.0;"/><line style="stroke:#181818;stroke-width:1.0;" x1="715.5" x2="976.5" y1="353.5313" y2="353.5313"/><text fill="#000000" font-family="sans-serif" font-size="13" font-weight="bold" lengthAdjust="spacing" textLength="14" x="722.5" y="348.2686">10</text><text fill="#000000" font-family="sans-serif" font-size="13" lengthAdjust="spacing" textLength="47" x="740.5" y="348.2686">get robo</text><polygon fill="#181818" points="556,380.8223,546,384.8223,556,388.8223,552,384.8223" style="stroke:#181818;stroke-width:1.0;"/><line style="stroke:#181818;stroke-width:1.0;" x1="550" x2="981.5" y1="384.8223" y2="384.8223"/><text fill="#000000" font-family="sans-serif" font-size="13" font-weight="bold" lengthAdjust="spacing" textLength="14" x="562" y="379.5596">11</text><text fill="#000000" font-family="sans-serif" font-size="13" lengthAdjust="spacing" textLength="55" x="580" y="379.5596">toDomain</text><polygon fill="#181818" points="888.5,412.1133,898.5,416.1133,888.5,420.1133,892.5,416.1133" style="stroke:#181818;stroke-width:1.0;"/><line style="stroke:#181818;stroke-width:1.0;" x1="545" x2="894.5" y1="416.1133" y2="416.1133"/><text fill="#000000" font-family="sans-serif" font-size="13" font-weight="bold" lengthAdjust="spacing" textLength="14" x="552" y="410.8506">12</text><text fill="#000000" font-family="sans-serif" font-size="13" lengthAdjust="spacing" textLength="134" x="570" y="410.8506">cria objecto de dominio</text><polygon fill="#181818" points="556,443.4043,546,447.4043,556,451.4043,552,447.4043" style="stroke:#181818;stroke-width:1.0;"/><line style="stroke:#181818;stroke-width:1.0;" x1="550" x2="904.5" y1="447.4043" y2="447.4043"/><text fill="#000000" font-family="sans-serif" font-size="13" font-weight="bold" lengthAdjust="spacing" textLength="14" x="562" y="442.1416">13</text><text fill="#000000" font-family="sans-serif" font-size="13" lengthAdjust="spacing" textLength="79" x="580" y="442.1416">return objecto</text><polygon fill="#181818" points="970.5,474.6953,980.5,478.6953,970.5,482.6953,974.5,478.6953" style="stroke:#181818;stroke-width:1.0;"/><line style="stroke:#181818;stroke-width:1.0;" x1="540" x2="976.5" y1="478.6953" y2="478.6953"/><text fill="#000000" font-family="sans-serif" font-size="13" font-weight="bold" lengthAdjust="spacing" textLength="14" x="547" y="473.4326">14</text><text fill="#000000" font-family="sans-serif" font-size="13" lengthAdjust="spacing" textLength="79" x="565" y="473.4326">return objecto</text><polygon fill="#181818" points="726.5,505.9863,716.5,509.9863,726.5,513.9863,722.5,509.9863" style="stroke:#181818;stroke-width:1.0;"/><line style="stroke:#181818;stroke-width:1.0;" x1="720.5" x2="986.5" y1="509.9863" y2="509.9863"/><text fill="#000000" font-family="sans-serif" font-size="13" font-weight="bold" lengthAdjust="spacing" textLength="14" x="732.5" y="504.7236">15</text><text fill="#000000" font-family="sans-serif" font-size="13" lengthAdjust="spacing" textLength="79" x="750.5" y="504.7236">return objecto</text><polygon fill="#181818" points="888.5,537.2773,898.5,541.2773,888.5,545.2773,892.5,541.2773" style="stroke:#181818;stroke-width:1.0;"/><line style="stroke:#181818;stroke-width:1.0;" x1="715.5" x2="894.5" y1="541.2773" y2="541.2773"/><text fill="#000000" font-family="sans-serif" font-size="13" font-weight="bold" lengthAdjust="spacing" textLength="14" x="722.5" y="536.0146">16</text><text fill="#000000" font-family="sans-serif" font-size="13" lengthAdjust="spacing" textLength="148" x="740.5" y="536.0146">update status de ativa&#231;&#227;o</text><polygon fill="#181818" points="970.5,598.5684,980.5,602.5684,970.5,606.5684,974.5,602.5684" style="stroke:#181818;stroke-width:1.0;"/><line style="stroke:#181818;stroke-width:1.0;" x1="715.5" x2="976.5" y1="602.5684" y2="602.5684"/><text fill="#000000" font-family="sans-serif" font-size="13" font-weight="bold" lengthAdjust="spacing" textLength="14" x="722.5" y="597.3057">17</text><text fill="#000000" font-family="sans-serif" font-size="13" lengthAdjust="spacing" textLength="68" x="740.5" y="597.3057">update robo</text><polygon fill="#181818" points="556,629.8594,546,633.8594,556,637.8594,552,633.8594" style="stroke:#181818;stroke-width:1.0;"/><line style="stroke:#181818;stroke-width:1.0;" x1="550" x2="981.5" y1="633.8594" y2="633.8594"/><text fill="#000000" font-family="sans-serif" font-size="13" font-weight="bold" lengthAdjust="spacing" textLength="14" x="562" y="628.5967">18</text><text fill="#000000" font-family="sans-serif" font-size="13" lengthAdjust="spacing" textLength="37" x="580" y="628.5967">toDTO</text><polygon fill="#181818" points="726.5,691.1504,716.5,695.1504,726.5,699.1504,722.5,695.1504" style="stroke:#181818;stroke-width:1.0;"/><line style="stroke:#181818;stroke-width:1.0;" x1="720.5" x2="986.5" y1="695.1504" y2="695.1504"/><text fill="#000000" font-family="sans-serif" font-size="13" font-weight="bold" lengthAdjust="spacing" textLength="14" x="732.5" y="689.8877">19</text><text fill="#000000" font-family="sans-serif" font-size="13" lengthAdjust="spacing" textLength="63" x="750.5" y="689.8877">return DTO</text><polygon fill="#181818" points="312,722.4414,302,726.4414,312,730.4414,308,726.4414" style="stroke:#181818;stroke-width:1.0;"/><line style="stroke:#181818;stroke-width:1.0;" x1="306" x2="709.5" y1="726.4414" y2="726.4414"/><text fill="#000000" font-family="sans-serif" font-size="13" font-weight="bold" lengthAdjust="spacing" textLength="14" x="318" y="721.1787">20</text><text fill="#000000" font-family="sans-serif" font-size="13" lengthAdjust="spacing" textLength="55" x="336" y="721.1787">return dto</text><polygon fill="#181818" points="199,753.7324,189,757.7324,199,761.7324,195,757.7324" style="stroke:#181818;stroke-width:1.0;"/><line style="stroke:#181818;stroke-width:1.0;" x1="193" x2="295" y1="757.7324" y2="757.7324"/><text fill="#000000" font-family="sans-serif" font-size="13" font-weight="bold" lengthAdjust="spacing" textLength="14" x="205" y="752.4697">21</text><text fill="#000000" font-family="sans-serif" font-size="13" lengthAdjust="spacing" textLength="61" x="223" y="752.4697">status 201</text><polygon fill="#181818" points="34,785.0234,24,789.0234,34,793.0234,30,789.0234" style="stroke:#181818;stroke-width:1.0;"/><line style="stroke:#181818;stroke-width:1.0;" x1="28" x2="177" y1="789.0234" y2="789.0234"/><text fill="#000000" font-family="sans-serif" font-size="13" font-weight="bold" lengthAdjust="spacing" textLength="14" x="40" y="783.7607">22</text><text fill="#000000" font-family="sans-serif" font-size="13" lengthAdjust="spacing" textLength="106" x="58" y="783.7607">success message</text><!--SRC=[ZPE_SjmW4CPxdeBkdC9HdFAAD7BZGkCPuJp02ZPtP4uiuSzb_3mf_23tOW64SqBZE6dGQB_VmhUxi3k6OFs-w-m9J8ZpwQEakVFu8wAHUAiq71pCZ44CPE8yeMFCWWjQQfiI-DS73ZwjJN2a691dOMpYFPdWw7H2bxM-rHn2qEPm__HOnFHjz06iNVA69bxvBIxGdRN4B8cMfncqAIcjPxJaTI3tN7odFvQgba6V8TMI2cIfrDilVEHxRY78uysk0wixHnDrskX9kzs7LSR8s9Zv_fLVQJrZVT6o-JrtAFKPFPz8FNDjlj4QpOMn0gQ48T5FL49_Y86n8MlBNWP_ybOlVwjyXo4wiuGLjjZGk7gJ6wvk-hzJrNQcHABa4MPGm1LndmTpUI6kaEVUhPmAnaHfSMf-IZfWs1BBM8fUgmcq3FIjXkI3dGPEqtUKePoeQ4wpMczvdvgpQKtbs_RKJQktTyZXQb2yJoxLY5UlqQeSzG52zDaiPExoSldL-crTYQkfki7_z6npW_vfVplVQhsz16fJdwWt83-PMjNdJtVjFQcl9Bsjn4GfqNi-fmKE-1i0]--></g></svg>