<?xml version="1.0" encoding="us-ascii" standalone="no"?><svg xmlns="http://www.w3.org/2000/svg" xmlns:xlink="http://www.w3.org/1999/xlink" contentStyleType="text/css" height="1051px" preserveAspectRatio="none" style="width:1059px;height:1051px;background:#FFFFFF;" version="1.1" viewBox="0 0 1059 1051" width="1059px" zoomAndPan="magnify"><defs/><g><rect fill="#FFFFFF" height="955.7793" style="stroke:#181818;stroke-width:1.0;" width="10" x="28" y="48.6211"/><rect fill="#FFFFFF" height="932.4883" style="stroke:#181818;stroke-width:1.0;" width="10" x="227" y="71.9121"/><rect fill="#FFFFFF" height="853.9063" style="stroke:#181818;stroke-width:1.0;" width="10" x="340" y="103.2031"/><rect fill="#FFFFFF" height="156.4551" style="stroke:#181818;stroke-width:1.0;" width="10" x="483" y="134.4941"/><rect fill="#FFFFFF" height="93.873" style="stroke:#181818;stroke-width:1.0;" width="10" x="591" y="165.7852"/><rect fill="#FFFFFF" height="93.873" style="stroke:#181818;stroke-width:1.0;" width="10" x="591" y="584.1992"/><rect fill="#FFFFFF" height="30" style="stroke:#181818;stroke-width:1.0;" width="10" x="591" y="833.2363"/><rect fill="#FFFFFF" height="31.291" style="stroke:#181818;stroke-width:1.0;" width="10" x="699" y="197.0762"/><rect fill="#FFFFFF" height="603.5781" style="stroke:#181818;stroke-width:1.0;" width="10" x="761.5" y="322.2402"/><rect fill="#FFFFFF" height="31.291" style="stroke:#181818;stroke-width:1.0;" width="10" x="914.5" y="615.4902"/><rect fill="#FFFFFF" height="30" style="stroke:#181818;stroke-width:1.0;" width="10" x="914.5" y="740.6543"/><rect fill="#FFFFFF" height="355.832" style="stroke:#181818;stroke-width:1.0;" width="10" x="996.5" y="353.5313"/><rect fill="#FFFFFF" height="92.582" style="stroke:#181818;stroke-width:1.0;" width="10" x="996.5" y="801.9453"/><rect fill="none" height="565.2871" style="stroke:#000000;stroke-width:1.5;" width="1042.5" x="10" y="431.1133"/><line style="stroke:#181818;stroke-width:0.5;stroke-dasharray:5.0,5.0;" x1="33" x2="33" y1="38.6211" y2="1013.4004"/><line style="stroke:#181818;stroke-width:0.5;stroke-dasharray:5.0,5.0;" x1="232" x2="232" y1="38.6211" y2="1013.4004"/><line style="stroke:#181818;stroke-width:0.5;stroke-dasharray:5.0,5.0;" x1="345" x2="345" y1="38.6211" y2="1013.4004"/><line style="stroke:#181818;stroke-width:0.5;stroke-dasharray:5.0,5.0;" x1="488" x2="488" y1="38.6211" y2="1013.4004"/><line style="stroke:#181818;stroke-width:0.5;stroke-dasharray:5.0,5.0;" x1="596" x2="596" y1="38.6211" y2="1013.4004"/><line style="stroke:#181818;stroke-width:0.5;stroke-dasharray:5.0,5.0;" x1="704" x2="704" y1="38.6211" y2="1013.4004"/><line style="stroke:#181818;stroke-width:0.5;stroke-dasharray:5.0,5.0;" x1="766" x2="766" y1="38.6211" y2="1013.4004"/><line style="stroke:#181818;stroke-width:0.5;stroke-dasharray:5.0,5.0;" x1="919.5" x2="919.5" y1="38.6211" y2="1013.4004"/><line style="stroke:#181818;stroke-width:0.5;stroke-dasharray:5.0,5.0;" x1="1001.5" x2="1001.5" y1="38.6211" y2="1013.4004"/><rect fill="#E2E2F0" height="32.6211" rx="2.5" ry="2.5" style="stroke:#181818;stroke-width:0.5;" width="26" x="20" y="5"/><text fill="#000000" font-family="sans-serif" font-size="14" lengthAdjust="spacing" textLength="12" x="27" y="27.1074">UI</text><rect fill="#E2E2F0" height="32.6211" rx="2.5" ry="2.5" style="stroke:#181818;stroke-width:0.5;" width="26" x="20" y="1012.4004"/><text fill="#000000" font-family="sans-serif" font-size="14" lengthAdjust="spacing" textLength="12" x="27" y="1034.5078">UI</text><rect fill="#E2E2F0" height="32.6211" rx="2.5" ry="2.5" style="stroke:#181818;stroke-width:0.5;" width="52" x="206" y="5"/><text fill="#000000" font-family="sans-serif" font-size="14" lengthAdjust="spacing" textLength="38" x="213" y="27.1074">Route</text><rect fill="#E2E2F0" height="32.6211" rx="2.5" ry="2.5" style="stroke:#181818;stroke-width:0.5;" width="52" x="206" y="1012.4004"/><text fill="#000000" font-family="sans-serif" font-size="14" lengthAdjust="spacing" textLength="38" x="213" y="1034.5078">Route</text><rect fill="#E2E2F0" height="32.6211" rx="2.5" ry="2.5" style="stroke:#181818;stroke-width:0.5;" width="76" x="307" y="5"/><text fill="#000000" font-family="sans-serif" font-size="14" lengthAdjust="spacing" textLength="62" x="314" y="27.1074">Controller</text><rect fill="#E2E2F0" height="32.6211" rx="2.5" ry="2.5" style="stroke:#181818;stroke-width:0.5;" width="76" x="307" y="1012.4004"/><text fill="#000000" font-family="sans-serif" font-size="14" lengthAdjust="spacing" textLength="62" x="314" y="1034.5078">Controller</text><rect fill="#E2E2F0" height="32.6211" rx="2.5" ry="2.5" style="stroke:#181818;stroke-width:0.5;" width="98" x="439" y="5"/><text fill="#000000" font-family="sans-serif" font-size="14" lengthAdjust="spacing" textLength="84" x="446" y="27.1074">CreatingDTO</text><rect fill="#E2E2F0" height="32.6211" rx="2.5" ry="2.5" style="stroke:#181818;stroke-width:0.5;" width="98" x="439" y="1012.4004"/><text fill="#000000" font-family="sans-serif" font-size="14" lengthAdjust="spacing" textLength="84" x="446" y="1034.5078">CreatingDTO</text><rect fill="#E2E2F0" height="32.6211" rx="2.5" ry="2.5" style="stroke:#181818;stroke-width:0.5;" width="62" x="565" y="5"/><text fill="#000000" font-family="sans-serif" font-size="14" lengthAdjust="spacing" textLength="48" x="572" y="27.1074">Mapper</text><rect fill="#E2E2F0" height="32.6211" rx="2.5" ry="2.5" style="stroke:#181818;stroke-width:0.5;" width="62" x="565" y="1012.4004"/><text fill="#000000" font-family="sans-serif" font-size="14" lengthAdjust="spacing" textLength="48" x="572" y="1034.5078">Mapper</text><rect fill="#E2E2F0" height="32.6211" rx="2.5" ry="2.5" style="stroke:#181818;stroke-width:0.5;" width="44" x="682" y="5"/><text fill="#000000" font-family="sans-serif" font-size="14" lengthAdjust="spacing" textLength="30" x="689" y="27.1074">DTO</text><rect fill="#E2E2F0" height="32.6211" rx="2.5" ry="2.5" style="stroke:#181818;stroke-width:0.5;" width="44" x="682" y="1012.4004"/><text fill="#000000" font-family="sans-serif" font-size="14" lengthAdjust="spacing" textLength="30" x="689" y="1034.5078">DTO</text><rect fill="#E2E2F0" height="32.6211" rx="2.5" ry="2.5" style="stroke:#181818;stroke-width:0.5;" width="61" x="736" y="5"/><text fill="#000000" font-family="sans-serif" font-size="14" lengthAdjust="spacing" textLength="47" x="743" y="27.1074">Service</text><rect fill="#E2E2F0" height="32.6211" rx="2.5" ry="2.5" style="stroke:#181818;stroke-width:0.5;" width="61" x="736" y="1012.4004"/><text fill="#000000" font-family="sans-serif" font-size="14" lengthAdjust="spacing" textLength="47" x="743" y="1034.5078">Service</text><rect fill="#E2E2F0" height="32.6211" rx="2.5" ry="2.5" style="stroke:#181818;stroke-width:0.5;" width="62" x="888.5" y="5"/><text fill="#000000" font-family="sans-serif" font-size="14" lengthAdjust="spacing" textLength="48" x="895.5" y="27.1074">Domain</text><rect fill="#E2E2F0" height="32.6211" rx="2.5" ry="2.5" style="stroke:#181818;stroke-width:0.5;" width="62" x="888.5" y="1012.4004"/><text fill="#000000" font-family="sans-serif" font-size="14" lengthAdjust="spacing" textLength="48" x="895.5" y="1034.5078">Domain</text><rect fill="#E2E2F0" height="32.6211" rx="2.5" ry="2.5" style="stroke:#181818;stroke-width:0.5;" width="82" x="960.5" y="5"/><text fill="#000000" font-family="sans-serif" font-size="14" lengthAdjust="spacing" textLength="68" x="967.5" y="27.1074">Repository</text><rect fill="#E2E2F0" height="32.6211" rx="2.5" ry="2.5" style="stroke:#181818;stroke-width:0.5;" width="82" x="960.5" y="1012.4004"/><text fill="#000000" font-family="sans-serif" font-size="14" lengthAdjust="spacing" textLength="68" x="967.5" y="1034.5078">Repository</text><rect fill="#FFFFFF" height="955.7793" style="stroke:#181818;stroke-width:1.0;" width="10" x="28" y="48.6211"/><rect fill="#FFFFFF" height="932.4883" style="stroke:#181818;stroke-width:1.0;" width="10" x="227" y="71.9121"/><rect fill="#FFFFFF" height="853.9063" style="stroke:#181818;stroke-width:1.0;" width="10" x="340" y="103.2031"/><rect fill="#FFFFFF" height="156.4551" style="stroke:#181818;stroke-width:1.0;" width="10" x="483" y="134.4941"/><rect fill="#FFFFFF" height="93.873" style="stroke:#181818;stroke-width:1.0;" width="10" x="591" y="165.7852"/><rect fill="#FFFFFF" height="93.873" style="stroke:#181818;stroke-width:1.0;" width="10" x="591" y="584.1992"/><rect fill="#FFFFFF" height="30" style="stroke:#181818;stroke-width:1.0;" width="10" x="591" y="833.2363"/><rect fill="#FFFFFF" height="31.291" style="stroke:#181818;stroke-width:1.0;" width="10" x="699" y="197.0762"/><rect fill="#FFFFFF" height="603.5781" style="stroke:#181818;stroke-width:1.0;" width="10" x="761.5" y="322.2402"/><rect fill="#FFFFFF" height="31.291" style="stroke:#181818;stroke-width:1.0;" width="10" x="914.5" y="615.4902"/><rect fill="#FFFFFF" height="30" style="stroke:#181818;stroke-width:1.0;" width="10" x="914.5" y="740.6543"/><rect fill="#FFFFFF" height="355.832" style="stroke:#181818;stroke-width:1.0;" width="10" x="996.5" y="353.5313"/><rect fill="#FFFFFF" height="92.582" style="stroke:#181818;stroke-width:1.0;" width="10" x="996.5" y="801.9453"/><polygon fill="#181818" points="215,67.9121,225,71.9121,215,75.9121,219,71.9121" style="stroke:#181818;stroke-width:1.0;"/><line style="stroke:#181818;stroke-width:1.0;" x1="38" x2="221" y1="71.9121" y2="71.9121"/><text fill="#000000" font-family="sans-serif" font-size="13" font-weight="bold" lengthAdjust="spacing" textLength="7" x="45" y="66.6494">1</text><text fill="#000000" font-family="sans-serif" font-size="13" lengthAdjust="spacing" textLength="159" x="56" y="66.6494">patch('/api/elevador/update')</text><polygon fill="#181818" points="328,99.2031,338,103.2031,328,107.2031,332,103.2031" style="stroke:#181818;stroke-width:1.0;"/><line style="stroke:#181818;stroke-width:1.0;" x1="237" x2="334" y1="103.2031" y2="103.2031"/><text fill="#000000" font-family="sans-serif" font-size="13" font-weight="bold" lengthAdjust="spacing" textLength="7" x="244" y="97.9404">2</text><text fill="#000000" font-family="sans-serif" font-size="13" lengthAdjust="spacing" textLength="32" x="255" y="97.9404">patch</text><polygon fill="#181818" points="471,130.4941,481,134.4941,471,138.4941,475,134.4941" style="stroke:#181818;stroke-width:1.0;"/><line style="stroke:#181818;stroke-width:1.0;" x1="350" x2="477" y1="134.4941" y2="134.4941"/><text fill="#000000" font-family="sans-serif" font-size="13" font-weight="bold" lengthAdjust="spacing" textLength="7" x="357" y="129.2314">3</text><text fill="#000000" font-family="sans-serif" font-size="13" lengthAdjust="spacing" textLength="103" x="368" y="129.2314">receives body info</text><polygon fill="#181818" points="579,161.7852,589,165.7852,579,169.7852,583,165.7852" style="stroke:#181818;stroke-width:1.0;"/><line style="stroke:#181818;stroke-width:1.0;" x1="493" x2="585" y1="165.7852" y2="165.7852"/><text fill="#000000" font-family="sans-serif" font-size="13" font-weight="bold" lengthAdjust="spacing" textLength="7" x="500" y="160.5225">4</text><text fill="#000000" font-family="sans-serif" font-size="13" lengthAdjust="spacing" textLength="40" x="511" y="160.5225">ToDTO</text><polygon fill="#181818" points="687,193.0762,697,197.0762,687,201.0762,691,197.0762" style="stroke:#181818;stroke-width:1.0;"/><line style="stroke:#181818;stroke-width:1.0;" x1="601" x2="693" y1="197.0762" y2="197.0762"/><text fill="#000000" font-family="sans-serif" font-size="13" font-weight="bold" lengthAdjust="spacing" textLength="7" x="608" y="191.8135">5</text><text fill="#000000" font-family="sans-serif" font-size="13" lengthAdjust="spacing" textLength="53" x="619" y="191.8135">new DTO</text><polygon fill="#181818" points="612,224.3672,602,228.3672,612,232.3672,608,228.3672" style="stroke:#181818;stroke-width:1.0;"/><line style="stroke:#181818;stroke-width:1.0;" x1="606" x2="703" y1="228.3672" y2="228.3672"/><text fill="#000000" font-family="sans-serif" font-size="13" font-weight="bold" lengthAdjust="spacing" textLength="7" x="618" y="223.1045">6</text><text fill="#000000" font-family="sans-serif" font-size="13" lengthAdjust="spacing" textLength="63" x="629" y="223.1045">return DTO</text><polygon fill="#181818" points="504,255.6582,494,259.6582,504,263.6582,500,259.6582" style="stroke:#181818;stroke-width:1.0;"/><line style="stroke:#181818;stroke-width:1.0;" x1="498" x2="595" y1="259.6582" y2="259.6582"/><text fill="#000000" font-family="sans-serif" font-size="13" font-weight="bold" lengthAdjust="spacing" textLength="7" x="510" y="254.3955">7</text><text fill="#000000" font-family="sans-serif" font-size="13" lengthAdjust="spacing" textLength="63" x="521" y="254.3955">return DTO</text><polygon fill="#181818" points="361,286.9492,351,290.9492,361,294.9492,357,290.9492" style="stroke:#181818;stroke-width:1.0;"/><line style="stroke:#181818;stroke-width:1.0;" x1="355" x2="487" y1="290.9492" y2="290.9492"/><text fill="#000000" font-family="sans-serif" font-size="13" font-weight="bold" lengthAdjust="spacing" textLength="7" x="367" y="285.6865">8</text><text fill="#000000" font-family="sans-serif" font-size="13" lengthAdjust="spacing" textLength="63" x="378" y="285.6865">return DTO</text><polygon fill="#181818" points="749.5,318.2402,759.5,322.2402,749.5,326.2402,753.5,322.2402" style="stroke:#181818;stroke-width:1.0;"/><line style="stroke:#181818;stroke-width:1.0;" x1="350" x2="755.5" y1="322.2402" y2="322.2402"/><text fill="#000000" font-family="sans-serif" font-size="13" font-weight="bold" lengthAdjust="spacing" textLength="7" x="357" y="316.9775">9</text><text fill="#000000" font-family="sans-serif" font-size="13" lengthAdjust="spacing" textLength="128" x="368" y="316.9775">function call to service</text><polygon fill="#181818" points="984.5,349.5313,994.5,353.5313,984.5,357.5313,988.5,353.5313" style="stroke:#181818;stroke-width:1.0;"/><line style="stroke:#181818;stroke-width:1.0;" x1="771.5" x2="990.5" y1="353.5313" y2="353.5313"/><text fill="#000000" font-family="sans-serif" font-size="13" font-weight="bold" lengthAdjust="spacing" textLength="14" x="778.5" y="348.2686">10</text><text fill="#000000" font-family="sans-serif" font-size="13" lengthAdjust="spacing" textLength="69" x="796.5" y="348.2686">get elevador</text><polygon fill="#181818" points="984.5,380.8223,994.5,384.8223,984.5,388.8223,988.5,384.8223" style="stroke:#181818;stroke-width:1.0;"/><line style="stroke:#181818;stroke-width:1.0;" x1="771.5" x2="990.5" y1="384.8223" y2="384.8223"/><text fill="#000000" font-family="sans-serif" font-size="13" font-weight="bold" lengthAdjust="spacing" textLength="14" x="778.5" y="379.5596">11</text><text fill="#000000" font-family="sans-serif" font-size="13" lengthAdjust="spacing" textLength="62" x="796.5" y="379.5596">get building</text><polygon fill="#181818" points="984.5,412.1133,994.5,416.1133,984.5,420.1133,988.5,416.1133" style="stroke:#181818;stroke-width:1.0;"/><line style="stroke:#181818;stroke-width:1.0;" x1="771.5" x2="990.5" y1="416.1133" y2="416.1133"/><text fill="#000000" font-family="sans-serif" font-size="13" font-weight="bold" lengthAdjust="spacing" textLength="14" x="778.5" y="410.8506">12</text><text fill="#000000" font-family="sans-serif" font-size="13" lengthAdjust="spacing" textLength="53" x="796.5" y="410.8506">get pisos</text><path d="M10,431.1133 L71,431.1133 L71,440.4043 L61,450.4043 L10,450.4043 L10,431.1133 " fill="#EEEEEE" style="stroke:#000000;stroke-width:1.5;"/><rect fill="none" height="565.2871" style="stroke:#000000;stroke-width:1.5;" width="1042.5" x="10" y="431.1133"/><text fill="#000000" font-family="sans-serif" font-size="13" font-weight="bold" lengthAdjust="spacing" textLength="16" x="25" y="446.1416">alt</text><text fill="#000000" font-family="sans-serif" font-size="11" font-weight="bold" lengthAdjust="spacing" textLength="265" x="86" y="444.9834">[building == null || elevador == null || pisos == null]</text><polygon fill="#181818" points="782.5,469.6953,772.5,473.6953,782.5,477.6953,778.5,473.6953" style="stroke:#181818;stroke-width:1.0;"/><line style="stroke:#181818;stroke-width:1.0;" x1="776.5" x2="995.5" y1="473.6953" y2="473.6953"/><text fill="#000000" font-family="sans-serif" font-size="13" font-weight="bold" lengthAdjust="spacing" textLength="14" x="788.5" y="468.4326">13</text><text fill="#000000" font-family="sans-serif" font-size="13" lengthAdjust="spacing" textLength="57" x="806.5" y="468.4326">return null</text><polygon fill="#181818" points="248,500.9863,238,504.9863,248,508.9863,244,504.9863" style="stroke:#181818;stroke-width:1.0;"/><line style="stroke:#181818;stroke-width:1.0;" x1="242" x2="339" y1="504.9863" y2="504.9863"/><text fill="#000000" font-family="sans-serif" font-size="13" font-weight="bold" lengthAdjust="spacing" textLength="14" x="254" y="499.7236">14</text><text fill="#000000" font-family="sans-serif" font-size="13" lengthAdjust="spacing" textLength="61" x="272" y="499.7236">status 404</text><polygon fill="#181818" points="49,532.2773,39,536.2773,49,540.2773,45,536.2773" style="stroke:#181818;stroke-width:1.0;"/><line style="stroke:#181818;stroke-width:1.0;" x1="43" x2="226" y1="536.2773" y2="536.2773"/><text fill="#000000" font-family="sans-serif" font-size="13" font-weight="bold" lengthAdjust="spacing" textLength="14" x="55" y="531.0146">15</text><text fill="#000000" font-family="sans-serif" font-size="13" lengthAdjust="spacing" textLength="83" x="73" y="531.0146">error message</text><line style="stroke:#000000;stroke-width:1.0;stroke-dasharray:2.0,2.0;" x1="10" x2="1052.5" y1="545.2773" y2="545.2773"/><text fill="#000000" font-family="sans-serif" font-size="11" font-weight="bold" lengthAdjust="spacing" textLength="256" x="15" y="557.1475">[building != null || elevador != null || pisos != null]</text><polygon fill="#181818" points="612,580.1992,602,584.1992,612,588.1992,608,584.1992" style="stroke:#181818;stroke-width:1.0;"/><line style="stroke:#181818;stroke-width:1.0;" x1="606" x2="995.5" y1="584.1992" y2="584.1992"/><text fill="#000000" font-family="sans-serif" font-size="13" font-weight="bold" lengthAdjust="spacing" textLength="14" x="618" y="578.9365">16</text><text fill="#000000" font-family="sans-serif" font-size="13" lengthAdjust="spacing" textLength="55" x="636" y="578.9365">toDomain</text><polygon fill="#181818" points="902.5,611.4902,912.5,615.4902,902.5,619.4902,906.5,615.4902" style="stroke:#181818;stroke-width:1.0;"/><line style="stroke:#181818;stroke-width:1.0;" x1="601" x2="908.5" y1="615.4902" y2="615.4902"/><text fill="#000000" font-family="sans-serif" font-size="13" font-weight="bold" lengthAdjust="spacing" textLength="14" x="608" y="610.2275">17</text><text fill="#000000" font-family="sans-serif" font-size="13" lengthAdjust="spacing" textLength="136" x="626" y="610.2275">updates Domain Object</text><polygon fill="#181818" points="612,642.7813,602,646.7813,612,650.7813,608,646.7813" style="stroke:#181818;stroke-width:1.0;"/><line style="stroke:#181818;stroke-width:1.0;" x1="606" x2="918.5" y1="646.7813" y2="646.7813"/><text fill="#000000" font-family="sans-serif" font-size="13" font-weight="bold" lengthAdjust="spacing" textLength="14" x="618" y="641.5186">18</text><text fill="#000000" font-family="sans-serif" font-size="13" lengthAdjust="spacing" textLength="75" x="636" y="641.5186">return Object</text><polygon fill="#181818" points="984.5,674.0723,994.5,678.0723,984.5,682.0723,988.5,678.0723" style="stroke:#181818;stroke-width:1.0;"/><line style="stroke:#181818;stroke-width:1.0;" x1="596" x2="990.5" y1="678.0723" y2="678.0723"/><text fill="#000000" font-family="sans-serif" font-size="13" font-weight="bold" lengthAdjust="spacing" textLength="14" x="603" y="672.8096">19</text><text fill="#000000" font-family="sans-serif" font-size="13" lengthAdjust="spacing" textLength="75" x="621" y="672.8096">return Object</text><polygon fill="#181818" points="782.5,705.3633,772.5,709.3633,782.5,713.3633,778.5,709.3633" style="stroke:#181818;stroke-width:1.0;"/><line style="stroke:#181818;stroke-width:1.0;" x1="776.5" x2="1000.5" y1="709.3633" y2="709.3633"/><text fill="#000000" font-family="sans-serif" font-size="13" font-weight="bold" lengthAdjust="spacing" textLength="14" x="788.5" y="704.1006">20</text><text fill="#000000" font-family="sans-serif" font-size="13" lengthAdjust="spacing" textLength="75" x="806.5" y="704.1006">return Object</text><polygon fill="#181818" points="902.5,736.6543,912.5,740.6543,902.5,744.6543,906.5,740.6543" style="stroke:#181818;stroke-width:1.0;"/><line style="stroke:#181818;stroke-width:1.0;" x1="771.5" x2="908.5" y1="740.6543" y2="740.6543"/><text fill="#000000" font-family="sans-serif" font-size="13" font-weight="bold" lengthAdjust="spacing" textLength="14" x="778.5" y="735.3916">21</text><text fill="#000000" font-family="sans-serif" font-size="13" lengthAdjust="spacing" textLength="106" x="796.5" y="735.3916">update informa&#231;&#227;o</text><polygon fill="#181818" points="984.5,797.9453,994.5,801.9453,984.5,805.9453,988.5,801.9453" style="stroke:#181818;stroke-width:1.0;"/><line style="stroke:#181818;stroke-width:1.0;" x1="771.5" x2="990.5" y1="801.9453" y2="801.9453"/><text fill="#000000" font-family="sans-serif" font-size="13" font-weight="bold" lengthAdjust="spacing" textLength="14" x="778.5" y="796.6826">22</text><text fill="#000000" font-family="sans-serif" font-size="13" lengthAdjust="spacing" textLength="90" x="796.5" y="796.6826">update elevador</text><polygon fill="#181818" points="612,829.2363,602,833.2363,612,837.2363,608,833.2363" style="stroke:#181818;stroke-width:1.0;"/><line style="stroke:#181818;stroke-width:1.0;" x1="606" x2="995.5" y1="833.2363" y2="833.2363"/><text fill="#000000" font-family="sans-serif" font-size="13" font-weight="bold" lengthAdjust="spacing" textLength="14" x="618" y="827.9736">23</text><text fill="#000000" font-family="sans-serif" font-size="13" lengthAdjust="spacing" textLength="37" x="636" y="827.9736">toDTO</text><polygon fill="#181818" points="782.5,890.5273,772.5,894.5273,782.5,898.5273,778.5,894.5273" style="stroke:#181818;stroke-width:1.0;"/><line style="stroke:#181818;stroke-width:1.0;" x1="776.5" x2="1000.5" y1="894.5273" y2="894.5273"/><text fill="#000000" font-family="sans-serif" font-size="13" font-weight="bold" lengthAdjust="spacing" textLength="14" x="788.5" y="889.2646">24</text><text fill="#000000" font-family="sans-serif" font-size="13" lengthAdjust="spacing" textLength="63" x="806.5" y="889.2646">return DTO</text><polygon fill="#181818" points="361,921.8184,351,925.8184,361,929.8184,357,925.8184" style="stroke:#181818;stroke-width:1.0;"/><line style="stroke:#181818;stroke-width:1.0;" x1="355" x2="765.5" y1="925.8184" y2="925.8184"/><text fill="#000000" font-family="sans-serif" font-size="13" font-weight="bold" lengthAdjust="spacing" textLength="14" x="367" y="920.5557">25</text><text fill="#000000" font-family="sans-serif" font-size="13" lengthAdjust="spacing" textLength="63" x="385" y="920.5557">return DTO</text><polygon fill="#181818" points="248,953.1094,238,957.1094,248,961.1094,244,957.1094" style="stroke:#181818;stroke-width:1.0;"/><line style="stroke:#181818;stroke-width:1.0;" x1="242" x2="344" y1="957.1094" y2="957.1094"/><text fill="#000000" font-family="sans-serif" font-size="13" font-weight="bold" lengthAdjust="spacing" textLength="14" x="254" y="951.8467">26</text><text fill="#000000" font-family="sans-serif" font-size="13" lengthAdjust="spacing" textLength="61" x="272" y="951.8467">status 201</text><polygon fill="#181818" points="49,984.4004,39,988.4004,49,992.4004,45,988.4004" style="stroke:#181818;stroke-width:1.0;"/><line style="stroke:#181818;stroke-width:1.0;" x1="43" x2="226" y1="988.4004" y2="988.4004"/><text fill="#000000" font-family="sans-serif" font-size="13" font-weight="bold" lengthAdjust="spacing" textLength="14" x="55" y="983.1377">27</text><text fill="#000000" font-family="sans-serif" font-size="13" lengthAdjust="spacing" textLength="106" x="73" y="983.1377">success message</text><!--SRC=[XLExRjmm4Epv5RpgaiAHOxWwm6wK9eLWG78-W4VjdMb89CF71GRyDodo8VwnB2dfHCewkv6WdHbgTdUuVN9EsrrHw8v9v_lk6rTzOU6t1ydXgXNiQ5XF2FDEIT_lmH2YcN622uq2-kidPHQVMR5MtW4DG9tLIoMTKLq79c1bZXbWJiZZZyU72E8xmokczQ2hilh8Nz8RC2V18K1DpbSz4p9ASi-WbHLEcPVe6xy8TisTE37i1HiasEhLFQtfZchc-DENRS6qAA234skLARnkaRdzcgXgGkgWAITDWfM4b14B3Uoe0GxY19RkLVj2XJoeb1kw8v69YWhfZogMpeoAa2fWms4I_j0SZr-9te3pHWxb5d9QbTbQvLMpc_8oQxGTM0so3buYeYJbhEkeKzGEEqfiDeGqSSWuVbGSmT5flkbOutBU4Ljnm6Mk85fOPL7VpIHwTqUbHnklh-S_fBKecGgunN3OsCROx02KKoIiOyvRUdjzEwmSmxAZO0mUsuErx8XjGcTXTh1PSR1PEjWi7OJbEJM4U6t_20z1j5FI7_RFm5sQ1Kp28WSJ9ut2UE8unyl4QdKyAyHaRRFD67NJixT_RtzLPZBtqinMHk75O2n6jRWddpfVfdYq_N7Kc_THkBd-djy6aYJ3Uiun5kTiW6mfvfFy1m00]--></g></svg>