<?xml version="1.0" encoding="us-ascii" standalone="no"?><svg xmlns="http://www.w3.org/2000/svg" xmlns:xlink="http://www.w3.org/1999/xlink" contentStyleType="text/css" height="447px" preserveAspectRatio="none" style="width:959px;height:447px;background:#FFFFFF;" version="1.1" viewBox="0 0 959 447" width="959px" zoomAndPan="magnify"><defs/><g><!--cluster System--><g id="cluster_System"><rect fill="#0FAAFF" height="194" rx="2.5" ry="2.5" style="stroke:#181818;stroke-width:1.0;" width="224" x="340.5" y="113"/><rect fill="#0FAAFF" height="10" style="stroke:#181818;stroke-width:1.0;" width="15" x="544.5" y="118"/><rect fill="#0FAAFF" height="2" style="stroke:#181818;stroke-width:1.0;" width="4" x="542.5" y="120"/><rect fill="#0FAAFF" height="2" style="stroke:#181818;stroke-width:1.0;" width="4" x="542.5" y="124"/><text fill="#000000" font-family="sans-serif" font-size="14" font-style="italic" lengthAdjust="spacing" textLength="86" x="409.5" y="142.1074">&#171;component&#187;</text><text fill="#000000" font-family="sans-serif" font-size="14" font-style="italic" lengthAdjust="spacing" textLength="88" x="408.5" y="160.7285">&#171;system(C4)&#187;</text><text fill="#000000" font-family="sans-serif" font-size="14" font-weight="bold" lengthAdjust="spacing" textLength="91" x="407" y="181.3496">RobDroneGo</text></g><text fill="#000000" font-family="sans-serif" font-size="14" lengthAdjust="spacing" textLength="4" x="356.5" y="329.1074">&#160;</text><rect fill="#0FAAFF" height="12" style="stroke:#181818;stroke-width:1.5;" width="12" x="352.5" y="301"/><text fill="#000000" font-family="sans-serif" font-size="14" lengthAdjust="spacing" textLength="4" x="403.5" y="329.1074">&#160;</text><rect fill="#0FAAFF" height="12" style="stroke:#181818;stroke-width:1.5;" width="12" x="399.5" y="301"/><text fill="#000000" font-family="sans-serif" font-size="14" lengthAdjust="spacing" textLength="4" x="450.5" y="329.1074">&#160;</text><rect fill="#0FAAFF" height="12" style="stroke:#181818;stroke-width:1.5;" width="12" x="446.5" y="301"/><text fill="#000000" font-family="sans-serif" font-size="14" lengthAdjust="spacing" textLength="4" x="497.5" y="329.1074">&#160;</text><rect fill="#0FAAFF" height="12" style="stroke:#181818;stroke-width:1.5;" width="12" x="493.5" y="301"/><text fill="#000000" font-family="sans-serif" font-size="14" lengthAdjust="spacing" textLength="4" x="544.5" y="329.1074">&#160;</text><rect fill="#0FAAFF" height="12" style="stroke:#181818;stroke-width:1.5;" width="12" x="540.5" y="301"/><text fill="#000000" font-family="sans-serif" font-size="14" lengthAdjust="spacing" textLength="4" x="450.5" y="90.4863">&#160;</text><rect fill="#0FAAFF" height="12" style="stroke:#181818;stroke-width:1.5;" width="12" x="446.5" y="107"/><text fill="#000000" font-family="sans-serif" font-size="14" lengthAdjust="spacing" textLength="4" x="497.5" y="90.4863">&#160;</text><rect fill="#0FAAFF" height="12" style="stroke:#181818;stroke-width:1.5;" width="12" x="493.5" y="107"/><text fill="#000000" font-family="sans-serif" font-size="14" lengthAdjust="spacing" textLength="4" x="544.5" y="90.4863">&#160;</text><rect fill="#0FAAFF" height="12" style="stroke:#181818;stroke-width:1.5;" width="12" x="540.5" y="107"/><text fill="#000000" font-family="sans-serif" font-size="14" lengthAdjust="spacing" textLength="4" x="403.5" y="90.4863">&#160;</text><rect fill="#0FAAFF" height="12" style="stroke:#181818;stroke-width:1.5;" width="12" x="399.5" y="107"/><!--entity filesystem_API--><g id="elem_filesystem_API"><ellipse cx="54.5" cy="406" fill="#0FAAFF" rx="8" ry="8" style="stroke:#181818;stroke-width:0.5;"/><text fill="#000000" font-family="sans-serif" font-size="14" font-weight="bold" lengthAdjust="spacing" textLength="97" x="6" y="439.1074">filesystem API</text></g><!--entity UserAPI--><g id="elem_UserAPI"><ellipse cx="875.5" cy="406" fill="#0FAAFF" rx="8" ry="8" style="stroke:#181818;stroke-width:0.5;"/><text fill="#000000" font-family="sans-serif" font-size="14" font-weight="bold" lengthAdjust="spacing" textLength="154" x="798.5" y="439.1074">API User Management</text></g><!--entity UserUI--><g id="elem_UserUI"><ellipse cx="161.5" cy="14" fill="#0FAAFF" rx="8" ry="8" style="stroke:#181818;stroke-width:0.5;"/><text fill="#000000" font-family="sans-serif" font-size="14" font-weight="bold" lengthAdjust="spacing" textLength="146" x="88.5" y="47.1074">UI User Management</text></g><!--entity FleetAPI--><g id="elem_FleetAPI"><ellipse cx="233.5" cy="406" fill="#0FAAFF" rx="8" ry="8" style="stroke:#181818;stroke-width:0.5;"/><text fill="#000000" font-family="sans-serif" font-size="14" font-weight="bold" lengthAdjust="spacing" textLength="157" x="155" y="439.1074">API Fleet Management</text></g><!--entity CampusAPI--><g id="elem_CampusAPI"><ellipse cx="452.5" cy="406" fill="#0FAAFF" rx="8" ry="8" style="stroke:#181818;stroke-width:0.5;"/><text fill="#000000" font-family="sans-serif" font-size="14" font-weight="bold" lengthAdjust="spacing" textLength="177" x="364" y="439.1074">API Campus Management</text></g><!--entity TaskAPI--><g id="elem_TaskAPI"><ellipse cx="669.5" cy="406" fill="#0FAAFF" rx="8" ry="8" style="stroke:#181818;stroke-width:0.5;"/><text fill="#000000" font-family="sans-serif" font-size="14" font-weight="bold" lengthAdjust="spacing" textLength="153" x="593" y="439.1074">API Task Management</text></g><!--entity CampusM--><g id="elem_CampusM"><ellipse cx="371.5" cy="14" fill="#0FAAFF" rx="8" ry="8" style="stroke:#181818;stroke-width:0.5;"/><text fill="#000000" font-family="sans-serif" font-size="14" font-weight="bold" lengthAdjust="spacing" textLength="169" x="287" y="47.1074">UI Campus Management</text></g><!--entity TaskM--><g id="elem_TaskM"><ellipse cx="580.5" cy="14" fill="#0FAAFF" rx="8" ry="8" style="stroke:#181818;stroke-width:0.5;"/><text fill="#000000" font-family="sans-serif" font-size="14" font-weight="bold" lengthAdjust="spacing" textLength="145" x="508" y="47.1074">UI Task Management</text></g><!--entity FleetM--><g id="elem_FleetM"><ellipse cx="779.5" cy="14" fill="#0FAAFF" rx="8" ry="8" style="stroke:#181818;stroke-width:0.5;"/><text fill="#000000" font-family="sans-serif" font-size="14" font-weight="bold" lengthAdjust="spacing" textLength="149" x="705" y="47.1074">UI Fleet Management</text></g><!--link p1 to filesystem_API--><g id="link_p1_filesystem_API"><path d="M352.37,309.42 C325.5,315.68 215.68,341.99 128.5,373 C104.76,381.44 86.8484,389.5302 72.9484,396.1502 " fill="none" id="p1-to-filesystem_API" style="stroke:#181818;stroke-width:1.0;"/><path d="M70.3356,406.7619 A9,9 0 0 0 63.0626 391.4909" fill="none" style="stroke:#181818;stroke-width:1.5;"/></g><!--link p2 to FleetAPI--><g id="link_p2_FleetAPI"><path d="M399.38,311.45 C373.65,325.96 274.14,382.08 242.92,399.69 " fill="none" id="p2-FleetAPI" style="stroke:#181818;stroke-width:1.0;"/></g><!--link p3 to CampusAPI--><g id="link_p3_CampusAPI"><path d="M452.5,313.22 C452.5,329.19 452.5,377.54 452.5,396.88 " fill="none" id="p3-CampusAPI" style="stroke:#181818;stroke-width:1.0;"/></g><!--link p4 to TaskAPI--><g id="link_p4_TaskAPI"><path d="M505.55,311.45 C530.98,325.96 629.34,382.08 660.19,399.69 " fill="none" id="p4-TaskAPI" style="stroke:#181818;stroke-width:1.0;"/></g><!--link p5 to UserAPI--><g id="link_p5_UserAPI"><path d="M552.81,309.76 C579.48,317.22 685.67,347.03 772.5,373 C807.3,383.41 848.51,396.42 866.43,402.11 " fill="none" id="p5-UserAPI" style="stroke:#181818;stroke-width:1.0;"/></g><!--link CampusM to p6--><g id="link_CampusM_p6"><path d="M378.41,23.27 C394.63,42.7 434.8,90.8 448.12,106.76 " fill="none" id="CampusM-p6" style="stroke:#181818;stroke-width:1.0;"/></g><!--link TaskM to p7--><g id="link_TaskM_p7"><path d="M573.59,23.27 C557.37,42.7 517.2,90.8 503.88,106.76 " fill="none" id="TaskM-p7" style="stroke:#181818;stroke-width:1.0;"/></g><!--link FleetM to p8--><g id="link_FleetM_p8"><path d="M770.37,18.8 C732,34.77 584.4,96.22 552.57,109.47 " fill="none" id="FleetM-p8" style="stroke:#181818;stroke-width:1.0;"/></g><!--link UserUI to p9--><g id="link_UserUI_p9"><path d="M170.77,18.68 C210.46,34.46 365.64,96.16 399.11,109.46 " fill="none" id="UserUI-p9" style="stroke:#181818;stroke-width:1.0;"/></g><!--SRC=[ZLDRIyCm57u_loBKbraeE7U7Kf29uiD0r3qDaQnDjx3cGj8-3F6_cwJhPMxhR5zoliiff-VBbYO4nLJ56O6jFHCcyprYXAs9qW1wHxd42ZCaSP9Gla5zQAEKvqIbE2Re6v1vrZZURPGeU38NcL3evYx5E4tXfssA1PE24vvVDpNzKveHlTSvOLyFhoy8Q-JvVWCY0_g-rp8iDL6DqfuiWXQOumrXvkkdycMbNbuHFsM4vCVD7NJHCCTC5lhOKM8NBHzOxuuD5hdoXKKpm3_QjzITlTriBV6vMM7rxXRnwMHlOlsep8wVXOV2i5vu58LXkQ_UV7WRHG1D5afxcGWfL2wA77dcDUralyx4EVQ-anrqiiDETdJ2KbwJuovoqaLEkyXPJTeBO4OFWjwVz0FK0GoAmFm0QFBbW05KwN7b4AhBuCeHL649J3M6CWhsF873gcqnXSETiCKCu1S0]--></g></svg>